<?xml version="1.0" encoding="utf-8"?>
<!-- Generator: Adobe Illustrator 16.0.3, SVG Export Plug-In . SVG Version: 6.00 Build 0)  -->
<!DOCTYPE svg PUBLIC "-//W3C//DTD SVG 1.1//EN" "http://www.w3.org/Graphics/SVG/1.1/DTD/svg11.dtd">
<svg version="1.1" xmlns="http://www.w3.org/2000/svg" xmlns:xlink="http://www.w3.org/1999/xlink" x="0px" y="0px"
	 width="595.28px" height="841.89px" viewBox="0 0 595.28 841.89" enable-background="new 0 0 595.28 841.89" xml:space="preserve">
<g id="CutLine">
	
		<line fill="none" stroke="#242424" stroke-width="2" stroke-linecap="round" stroke-linejoin="round" stroke-miterlimit="500" x1="133.621" y1="111.899" x2="412.934" y2="111.899"/>
	
		<polyline fill="none" stroke="#242424" stroke-width="2" stroke-linecap="round" stroke-linejoin="round" stroke-miterlimit="500" points="
		412.934,111.899 412.934,767.619 412.934,778.094 133.621,778.094 133.621,767.619 133.621,111.899 	"/>
	
		<polygon fill="none" stroke="#242424" stroke-width="2" stroke-linecap="round" stroke-linejoin="round" stroke-miterlimit="500" points="
		477.61,733.887 483.916,718.666 488.03,708.707 492.075,698.719 495.98,688.676 499.678,678.555 503.106,668.338 506.208,658.02 
		508.926,647.592 511.218,637.063 513.041,626.441 514.366,615.748 515.171,605.002 515.44,594.23 515.171,583.459 514.366,572.713 
		513.041,562.02 511.218,551.398 508.926,540.871 506.208,530.443 503.106,520.123 499.678,509.906 495.98,499.785 492.075,489.742 
		488.03,479.756 483.916,469.795 477.61,454.574 442.934,454.574 442.934,733.887 	"/>
</g>
<g id="ValleyLine">
	
		<line fill="none" stroke="#242424" stroke-linecap="round" stroke-linejoin="round" stroke-miterlimit="500" stroke-dasharray="4" x1="133.621" y1="767.619" x2="412.934" y2="767.619"/>
	
		<line fill="none" stroke="#242424" stroke-linecap="round" stroke-linejoin="round" stroke-miterlimit="500" stroke-dasharray="4" x1="133.621" y1="685.654" x2="412.934" y2="685.654"/>
	
		<line fill="none" stroke="#242424" stroke-linecap="round" stroke-linejoin="round" stroke-miterlimit="500" stroke-dasharray="4" x1="133.621" y1="603.688" x2="412.934" y2="603.688"/>
	
		<line fill="none" stroke="#242424" stroke-linecap="round" stroke-linejoin="round" stroke-miterlimit="500" stroke-dasharray="4" x1="133.621" y1="521.723" x2="412.934" y2="521.723"/>
	
		<line fill="none" stroke="#242424" stroke-linecap="round" stroke-linejoin="round" stroke-miterlimit="500" stroke-dasharray="4" x1="133.621" y1="439.758" x2="412.934" y2="439.758"/>
	
		<line fill="none" stroke="#242424" stroke-linecap="round" stroke-linejoin="round" stroke-miterlimit="500" stroke-dasharray="4" x1="133.621" y1="357.793" x2="412.934" y2="357.793"/>
	
		<line fill="none" stroke="#242424" stroke-linecap="round" stroke-linejoin="round" stroke-miterlimit="500" stroke-dasharray="4" x1="133.621" y1="275.828" x2="412.934" y2="275.828"/>
	
		<line fill="none" stroke="#242424" stroke-linecap="round" stroke-linejoin="round" stroke-miterlimit="500" stroke-dasharray="4" x1="133.621" y1="193.864" x2="412.934" y2="193.864"/>
</g>
<g id="MountainLine">
	<polyline fill="none" stroke="#242424" stroke-linecap="round" stroke-linejoin="round" stroke-miterlimit="500" points="
		412.934,720.332 397.713,726.637 387.753,730.75 377.766,734.795 367.723,738.701 357.602,742.398 347.386,745.828 
		337.064,748.928 326.638,751.646 316.109,753.938 305.489,755.762 294.795,757.086 284.05,757.891 273.277,758.16 262.506,757.891 
		251.76,757.086 241.066,755.762 230.445,753.938 219.917,751.646 209.489,748.928 199.17,745.828 188.953,742.398 178.832,738.701 
		168.789,734.795 158.801,730.75 148.842,726.637 133.621,720.332 	"/>
	<polyline fill="none" stroke="#242424" stroke-linecap="round" stroke-linejoin="round" stroke-miterlimit="500" points="
		412.934,638.367 397.713,644.67 387.753,648.785 377.766,652.83 367.723,656.734 357.602,660.434 347.386,663.861 337.064,666.963 
		326.638,669.682 316.109,671.973 305.489,673.797 294.795,675.121 284.05,675.926 273.277,676.195 262.506,675.926 251.76,675.121 
		241.066,673.797 230.445,671.973 219.917,669.682 209.489,666.963 199.17,663.861 188.953,660.434 178.832,656.734 168.789,652.83 
		158.801,648.785 148.842,644.67 133.621,638.367 	"/>
	<polyline fill="none" stroke="#242424" stroke-linecap="round" stroke-linejoin="round" stroke-miterlimit="500" points="
		412.934,556.4 397.713,562.705 387.753,566.82 377.766,570.865 367.723,574.77 357.602,578.469 347.386,581.896 337.064,584.998 
		326.638,587.717 316.109,590.008 305.489,591.83 294.795,593.156 284.05,593.961 273.277,594.23 262.506,593.961 251.76,593.156 
		241.066,591.83 230.445,590.008 219.917,587.717 209.489,584.998 199.17,581.896 188.953,578.469 178.832,574.77 168.789,570.865 
		158.801,566.82 148.842,562.705 133.621,556.4 	"/>
	<polyline fill="none" stroke="#242424" stroke-linecap="round" stroke-linejoin="round" stroke-miterlimit="500" points="
		412.934,474.436 397.713,480.74 387.753,484.855 377.766,488.9 367.723,492.805 357.602,496.504 347.386,499.932 337.064,503.033 
		326.638,505.752 316.109,508.043 305.489,509.867 294.795,511.191 284.05,511.996 273.277,512.266 262.506,511.996 251.76,511.191 
		241.066,509.867 230.445,508.043 219.917,505.752 209.489,503.033 199.17,499.932 188.953,496.504 178.832,492.805 168.789,488.9 
		158.801,484.855 148.842,480.74 133.621,474.436 	"/>
	<polyline fill="none" stroke="#242424" stroke-linecap="round" stroke-linejoin="round" stroke-miterlimit="500" points="
		412.934,392.47 397.713,398.777 387.753,402.89 377.766,406.935 367.723,410.84 357.602,414.54 347.386,417.966 337.064,421.068 
		326.638,423.787 316.109,426.078 305.489,427.901 294.795,429.227 284.05,430.031 273.277,430.301 262.506,430.031 251.76,429.227 
		241.066,427.901 230.445,426.078 219.917,423.787 209.489,421.068 199.17,417.966 188.953,414.54 178.832,410.84 168.789,406.935 
		158.801,402.89 148.842,398.777 133.621,392.47 	"/>
	<polyline fill="none" stroke="#242424" stroke-linecap="round" stroke-linejoin="round" stroke-miterlimit="500" points="
		412.934,310.506 397.713,316.812 387.753,320.925 377.766,324.97 367.723,328.876 357.602,332.574 347.386,336.001 
		337.064,339.103 326.638,341.822 316.109,344.113 305.489,345.937 294.795,347.261 284.05,348.066 273.277,348.334 
		262.506,348.066 251.76,347.261 241.066,345.937 230.445,344.113 219.917,341.822 209.489,339.103 199.17,336.001 188.953,332.574 
		178.832,328.876 168.789,324.97 158.801,320.925 148.842,316.812 133.621,310.506 	"/>
	<polyline fill="none" stroke="#242424" stroke-linecap="round" stroke-linejoin="round" stroke-miterlimit="500" points="
		412.934,228.542 397.713,234.847 387.753,238.96 377.766,243.005 367.723,246.911 357.602,250.608 347.386,254.037 
		337.064,257.138 326.638,259.856 316.109,262.147 305.489,263.971 294.795,265.296 284.05,266.101 273.277,266.372 
		262.506,266.101 251.76,265.296 241.066,263.971 230.445,262.147 219.917,259.856 209.489,257.138 199.17,254.037 188.953,250.608 
		178.832,246.911 168.789,243.005 158.801,238.96 148.842,234.847 133.621,228.542 	"/>
	<polyline fill="none" stroke="#242424" stroke-linecap="round" stroke-linejoin="round" stroke-miterlimit="500" points="
		412.934,146.576 397.713,152.881 387.753,156.996 377.766,161.041 367.723,164.946 357.602,168.643 347.386,172.072 
		337.064,175.173 326.638,177.891 316.109,180.183 305.489,182.006 294.795,183.332 284.05,184.136 273.277,184.406 
		262.506,184.136 251.76,183.332 241.066,182.006 230.445,180.183 219.917,177.891 209.489,175.173 199.17,172.072 188.953,168.643 
		178.832,164.946 168.789,161.041 158.801,156.996 148.842,152.881 133.621,146.576 	"/>
</g>
<g id="Text">
	<text transform="matrix(1 0 0 1 432.3096 815.2715)" font-family="'ArialMT'" font-size="14">(c) 2016 Jun Mitani</text>
	<text transform="matrix(1 0 0 1 31.7119 42.1099)" font-family="'ArialMT'" font-size="18">Eight-Flap Sphere</text>
	<text transform="matrix(1 0 0 1 442.9336 758.1602)" font-family="'ArialMT'" font-size="12">Template</text>
</g>
</svg>
