<?xml version="1.0" encoding="utf-8"?>
<!-- Generator: Adobe Illustrator 16.0.3, SVG Export Plug-In . SVG Version: 6.00 Build 0)  -->
<!DOCTYPE svg PUBLIC "-//W3C//DTD SVG 1.1//EN" "http://www.w3.org/Graphics/SVG/1.1/DTD/svg11.dtd">
<svg version="1.1" xmlns="http://www.w3.org/2000/svg" xmlns:xlink="http://www.w3.org/1999/xlink" x="0px" y="0px"
	 width="595.28px" height="841.89px" viewBox="0 0 595.28 841.89" enable-background="new 0 0 595.28 841.89" xml:space="preserve">
<g id="CutLine">
	<path fill="none" stroke="#333333" stroke-width="2" stroke-miterlimit="10" d="M136.171,423.956
		c-35.702-9.473-66.017-36.307-78.281-74.05c-19.209-59.12,13.145-122.618,72.265-141.827c25.667-8.341,52.159-6.961,75.492,2.107"
		/>
	<path fill="none" stroke="#333333" stroke-width="2" stroke-miterlimit="10" d="M318.011,556.089
		c-20.043,31.03-54.932,51.569-94.617,51.569c-62.162,0-112.555-50.395-112.555-112.555c0-26.988,9.498-51.758,25.332-71.147"/>
	<path fill="none" stroke="#333333" stroke-width="2" stroke-miterlimit="10" d="M205.646,210.187
		c-2.023-36.883,14.129-74.006,46.236-97.333c50.291-36.539,120.678-25.391,157.217,24.9c15.862,21.833,22.737,47.455,21.324,72.449
		"/>
	<path fill="none" stroke="#333333" stroke-width="2" stroke-miterlimit="10" d="M430.424,210.203
		c34.45-13.323,74.748-9.434,106.855,13.894c50.291,36.538,61.438,106.926,24.901,157.217
		c-15.861,21.835-38.105,36.289-62.313,42.668"/>
	<path fill="none" stroke="#333333" stroke-width="2" stroke-miterlimit="10" d="M499.867,423.981
		c23.315,28.649,32.068,68.179,19.806,105.92c-19.21,59.121-82.707,91.475-141.828,72.265
		c-25.667-8.338-46.289-25.024-59.834-46.077"/>
	<g>
		<path fill="none" stroke="#333333" stroke-width="2" stroke-miterlimit="10" d="M405.515,655.924
			c31.027,20.043,51.566,54.933,51.566,94.616"/>
		<g id="LINE_1_">
			
				<polyline fill="none" stroke="#333333" stroke-width="2" stroke-linecap="round" stroke-linejoin="round" stroke-miterlimit="10" points="
				457.076,750.506 344.52,750.507 340.823,750.504 337.126,750.491 333.429,750.455 329.732,750.387 326.038,750.272 
				322.344,750.102 318.654,749.868 314.97,749.561 311.294,749.171 307.627,748.691 303.977,748.113 300.343,747.434 
				296.729,746.646 293.144,745.746 289.592,744.727 286.072,743.588 282.596,742.33 279.167,740.948 275.792,739.44 
				272.473,737.811 269.219,736.057 266.033,734.179 262.923,732.183 259.891,730.066 256.941,727.837 254.081,725.494 
				251.311,723.046 248.638,720.493 246.06,717.841 243.585,715.097 241.21,712.262 238.938,709.345 236.77,706.351 
				234.702,703.285 232.738,700.153 230.872,696.961 229.104,693.715 227.427,690.421 225.836,687.082 224.329,683.707 
				222.898,680.298 221.535,676.861 220.233,673.4 214.425,655.896 405.515,655.924 			"/>
		</g>
	</g>
</g>
<g id="ValleyLine">
	<g id="LINE_16_">
		
			<polyline fill="none" stroke="#333333" stroke-width="0.7087" stroke-linecap="round" stroke-linejoin="round" stroke-miterlimit="10" points="
			537.253,224.079 471.104,315.125 468.93,318.114 466.747,321.098 464.544,324.067 462.315,327.018 460.051,329.94 
			457.742,332.828 455.384,335.676 452.97,338.476 450.494,341.221 447.95,343.903 445.338,346.519 442.651,349.06 439.891,351.518 
			437.054,353.89 434.142,356.167 431.153,358.345 428.092,360.417 424.958,362.378 421.754,364.224 418.484,365.95 
			415.152,367.551 411.763,369.024 408.318,370.368 404.825,371.576 401.286,372.653 397.712,373.59 394.101,374.391 
			390.464,375.054 386.804,375.579 383.128,375.969 379.439,376.224 375.744,376.349 372.046,376.342 368.354,376.213 
			364.664,375.962 360.985,375.594 357.318,375.117 353.667,374.537 350.032,373.862 346.415,373.098 342.816,372.251 
			339.235,371.334 335.67,370.354 332.12,369.32 		"/>
	</g>
	<g id="LINE_15_">
		
			<polyline fill="none" stroke="#333333" stroke-width="0.7087" stroke-linecap="round" stroke-linejoin="round" stroke-miterlimit="10" points="
			519.679,529.867 412.63,495.086 409.115,493.941 405.604,492.787 402.099,491.61 398.604,490.402 395.126,489.152 
			391.665,487.848 388.229,486.486 384.819,485.055 381.443,483.549 378.104,481.959 374.812,480.281 371.565,478.513 
			368.372,476.646 365.24,474.683 362.177,472.615 359.182,470.445 356.264,468.175 353.43,465.801 350.686,463.323 
			348.033,460.748 345.48,458.074 343.031,455.304 340.689,452.444 338.46,449.494 336.344,446.463 334.348,443.352 332.47,440.166 
			330.716,436.912 329.084,433.594 327.578,430.219 326.196,426.788 324.937,423.313 323.799,419.795 322.78,416.24 321.88,412.655 
			321.092,409.043 320.413,405.408 319.836,401.758 319.354,398.091 318.965,394.415 318.657,390.73 318.423,387.041 
			318.254,383.348 318.14,379.652 		"/>
	</g>
	<g id="LINE_9_">
		
			<polyline fill="none" stroke="#333333" stroke-width="0.7087" stroke-linecap="round" stroke-linejoin="round" stroke-miterlimit="10" points="
			223.408,607.658 223.408,495.086 223.41,491.389 223.423,487.691 223.458,483.994 223.529,480.299 223.643,476.604 
			223.812,472.91 224.046,469.221 224.354,465.535 224.744,461.86 225.224,458.193 225.801,454.541 226.48,450.908 227.27,447.296 
			228.17,443.711 229.188,440.157 230.324,436.638 231.583,433.162 232.967,429.732 234.473,426.356 236.104,423.038 
			237.859,419.785 239.735,416.6 241.732,413.488 243.848,410.455 246.078,407.507 248.42,404.646 250.87,401.876 253.422,399.203 
			256.073,396.628 258.819,394.15 261.653,391.776 264.569,389.504 267.563,387.336 270.629,385.269 273.762,383.305 
			276.953,381.438 280.199,379.668 283.494,377.992 286.832,376.402 290.208,374.895 293.616,373.464 297.053,372.101 
			300.514,370.799 303.992,369.549 		"/>
	</g>
	<g id="LINE_8_">
		
			<polyline fill="none" stroke="#333333" stroke-width="0.7087" stroke-linecap="round" stroke-linejoin="round" stroke-miterlimit="10" points="
			57.89,349.905 164.936,315.125 168.451,313.983 171.973,312.853 175.5,311.744 179.037,310.669 182.586,309.636 186.15,308.655 
			189.731,307.737 193.332,306.892 196.948,306.127 200.584,305.45 204.235,304.871 207.901,304.395 211.579,304.028 
			215.269,303.776 218.964,303.646 222.66,303.641 226.355,303.765 230.043,304.021 233.72,304.409 237.379,304.936 
			241.018,305.599 244.627,306.399 248.201,307.337 251.74,308.411 255.233,309.622 258.678,310.965 262.067,312.438 
			265.399,314.04 268.671,315.765 271.873,317.611 275.008,319.572 278.069,321.645 281.058,323.821 283.969,326.099 
			286.807,328.47 289.567,330.93 292.253,333.471 294.867,336.085 297.409,338.769 299.885,341.514 302.301,344.313 
			304.658,347.161 306.967,350.048 309.23,352.973 		"/>
	</g>
	<g id="LINE_7_">
		
			<polyline fill="none" stroke="#333333" stroke-width="0.7087" stroke-linecap="round" stroke-linejoin="round" stroke-miterlimit="10" points="
			251.872,112.859 318.02,203.902 320.191,206.895 322.354,209.893 324.499,212.904 326.614,215.936 328.694,218.992 
			330.729,222.08 332.708,225.202 334.625,228.364 336.469,231.569 338.236,234.816 339.916,238.109 341.502,241.449 
			342.986,244.834 344.366,248.266 345.632,251.738 346.779,255.253 347.805,258.805 348.7,262.392 349.466,266.01 350.097,269.652 
			350.591,273.315 350.944,276.996 351.157,280.687 351.228,284.383 351.157,288.08 350.944,291.771 350.59,295.45 350.097,299.114 
			349.466,302.758 348.7,306.374 347.804,309.962 346.779,313.514 345.631,317.028 344.366,320.502 342.987,323.933 
			341.502,327.317 339.916,330.657 338.236,333.95 336.469,337.198 334.624,340.402 332.707,343.564 330.728,346.687 
			328.695,349.773 326.614,352.83 		"/>
	</g>
</g>
<g id="MountainLine">
	<g id="LINE_14_">
		<g>
			<g>
				<g>
					
						<line fill="none" stroke="#333333" stroke-linecap="round" stroke-linejoin="round" x1="321.536" y1="366.008" x2="323.438" y2="366.626"/>
					
						<line fill="none" stroke="#333333" stroke-linecap="round" stroke-linejoin="round" stroke-dasharray="4.0793,4.0793" x1="327.317" y1="367.886" x2="496.082" y2="422.723"/>
					
						<line fill="none" stroke="#333333" stroke-linecap="round" stroke-linejoin="round" x1="498.021" y1="423.353" x2="499.924" y2="423.971"/>
				</g>
			</g>
		</g>
	</g>
	<g id="LINE_13_">
		<g>
			<g>
				<g>
					
						<line fill="none" stroke="#333333" stroke-linecap="round" stroke-linejoin="round" x1="318.02" y1="368.563" x2="318.02" y2="370.563"/>
					
						<line fill="none" stroke="#333333" stroke-linecap="round" stroke-linejoin="round" stroke-dasharray="4.0787,4.0787" x1="318.02" y1="374.641" x2="318.02" y2="552.063"/>
					
						<line fill="none" stroke="#333333" stroke-linecap="round" stroke-linejoin="round" x1="318.02" y1="554.103" x2="318.02" y2="556.103"/>
				</g>
			</g>
		</g>
	</g>
	<g id="LINE_12_">
		<g>
			<g>
				<g>
					
						<line fill="none" stroke="#333333" stroke-linecap="round" stroke-linejoin="round" x1="314.502" y1="366.008" x2="312.6" y2="366.626"/>
					
						<line fill="none" stroke="#333333" stroke-linecap="round" stroke-linejoin="round" stroke-dasharray="4.0781,4.0781" x1="308.722" y1="367.886" x2="140.004" y2="422.705"/>
					
						<line fill="none" stroke="#333333" stroke-linecap="round" stroke-linejoin="round" x1="138.065" y1="423.335" x2="136.163" y2="423.953"/>
				</g>
			</g>
		</g>
	</g>
	<g id="LINE_11_">
		<g>
			<g>
				<g>
					
						<line fill="none" stroke="#333333" stroke-linecap="round" stroke-linejoin="round" x1="315.847" y1="361.873" x2="314.671" y2="360.255"/>
					
						<line fill="none" stroke="#333333" stroke-linecap="round" stroke-linejoin="round" stroke-dasharray="4.0779,4.0779" x1="312.274" y1="356.956" x2="208.01" y2="213.446"/>
					
						<line fill="none" stroke="#333333" stroke-linecap="round" stroke-linejoin="round" x1="206.812" y1="211.797" x2="205.636" y2="210.179"/>
				</g>
			</g>
		</g>
	</g>
	<g id="LINE_10_">
		<g>
			<g>
				<g>
					
						<line fill="none" stroke="#333333" stroke-linecap="round" stroke-linejoin="round" x1="320.193" y1="361.873" x2="321.369" y2="360.255"/>
					
						<line fill="none" stroke="#333333" stroke-linecap="round" stroke-linejoin="round" stroke-dasharray="4.0786,4.0786" x1="323.767" y1="356.955" x2="428.052" y2="213.419"/>
					
						<line fill="none" stroke="#333333" stroke-linecap="round" stroke-linejoin="round" x1="429.25" y1="211.77" x2="430.426" y2="210.151"/>
				</g>
			</g>
		</g>
	</g>
</g>
<g id="Text">
	<text transform="matrix(1 0 0 1 432.3096 815.2715)" font-family="'ArialMT'" font-size="14">(c) 2016 Jun Mitani</text>
	<text transform="matrix(1 0 0 1 31.7119 42.1099)" font-family="'ArialMT'" font-size="18">Japanese Apricot Flower</text>
	<text transform="matrix(1 0 0 1 296.0742 648.627)" font-family="'ArialMT'" font-size="12">Template</text>
</g>
</svg>
