<?xml version="1.0" encoding="utf-8"?>
<!-- Generator: Adobe Illustrator 16.0.3, SVG Export Plug-In . SVG Version: 6.00 Build 0)  -->
<!DOCTYPE svg PUBLIC "-//W3C//DTD SVG 1.1//EN" "http://www.w3.org/Graphics/SVG/1.1/DTD/svg11.dtd">
<svg version="1.1" xmlns="http://www.w3.org/2000/svg" xmlns:xlink="http://www.w3.org/1999/xlink" x="0px" y="0px"
	 width="595.28px" height="841.89px" viewBox="0 0 595.28 841.89" enable-background="new 0 0 595.28 841.89" xml:space="preserve">
<g id="CutLine">
	<polyline fill="none" stroke="#000000" stroke-width="2" stroke-linecap="round" stroke-linejoin="round" points="496.201,157.641 
		366.527,82.772 230.495,82.771 100.82,157.64 32.803,275.446 32.803,425.181 100.818,542.989 230.493,617.855 	"/>
	
		<line fill="none" stroke="#000000" stroke-width="2" stroke-linecap="round" stroke-linejoin="round" x1="496.201" y1="542.991" x2="366.527" y2="617.855"/>
	
		<line fill="none" stroke="#000000" stroke-width="2" stroke-linecap="round" stroke-linejoin="round" x1="564.219" y1="425.183" x2="496.201" y2="542.991"/>
	
		<line fill="none" stroke="#000000" stroke-width="2" stroke-linecap="round" stroke-linejoin="round" x1="564.219" y1="275.446" x2="564.219" y2="425.183"/>
	
		<line fill="none" stroke="#000000" stroke-width="2" stroke-linecap="round" stroke-linejoin="round" x1="496.201" y1="157.641" x2="564.219" y2="275.446"/>
	
		<line fill="none" stroke="#000000" stroke-width="2" stroke-linecap="round" stroke-linejoin="round" x1="230.493" y1="617.855" x2="366.527" y2="617.855"/>
	<path fill="none" stroke="#000000" stroke-width="2" d="M241.219,829.262L241.219,829.262h43.227l0,0l-0.094-6.223l-0.15-7.12
		l-0.281-8.988l-0.699-10.013l-1.742-11.377l-2.816-11.936l-3.941-11.743l-4.887-12.015l-5.453-12.007l-5.678-11.524l-5.555-10.522
		l-5.389-10.098l-5.139-10.076l-4.611-9.44l-3.781-8.108l-3.689-8.706L226.162,658l-2.842-7.657c-1.242-3.348-2.713-3.162-3.789,0
		L216.688,658l-4.375,11.365l-3.691,8.706l-3.781,8.108l-4.611,9.44l-5.139,10.076l-5.389,10.098l-5.553,10.522l-5.68,11.524
		l-5.455,12.007l-4.888,12.015l-3.938,11.743l-2.816,11.936l-1.742,11.377l-0.701,10.013l-0.281,8.988l-0.15,7.12l-0.093,6.223l0,0
		c0,0,43.224,0,43.226,0c0,0,0,0-0.002,0H241.219z"/>
	<path fill="none" stroke="#000000" stroke-width="2" d="M389.432,829.262L389.432,829.262l3.408-6.223l3.814-7.12l4.623-8.988
		l4.381-10.013l3.082-11.377l1.258-11.936l-1.096-11.743l-2.84-12.015l-3.975-12.007l-4.705-11.524l-5.029-10.522l-4.949-10.098
		l-4.461-10.076l-3.773-9.44l-2.879-8.108l-2.354-8.706L371.748,658l-1.266-7.657c-0.272-1.657-1.375-1.85-1.688,0L367.529,658
		l-2.191,11.365l-2.352,8.706l-2.88,8.108l-3.771,9.44l-4.462,10.076l-4.949,10.098l-5.03,10.522l-4.706,11.524l-3.975,12.007
		l-2.84,12.015l-1.094,11.743l1.256,11.936l3.084,11.377L338,806.931l4.623,8.988l3.814,7.12l3.406,6.223l0,0H389.432z"/>
</g>
<g id="ValleyLine">
	<polyline fill="none" stroke="#000000" stroke-linecap="round" stroke-linejoin="round" stroke-dasharray="4" points="
		303.877,351.226 311.929,352.591 323.959,354.483 333.343,355.641 342.256,356.422 352.737,357.148 364.033,357.736 
		375.473,358.117 387.362,358.569 400.184,359.413 413.308,360.693 426.154,362.467 438.296,364.93 450.04,368.458 460.766,372.638 
		469.784,377.038 477.711,381.286 483.951,384.718 489.388,387.748 564.219,387.749 	"/>
	<polyline fill="none" stroke="#000000" stroke-linecap="round" stroke-linejoin="round" stroke-dasharray="4" points="
		467.771,275.44 489.388,312.881 489.388,312.881 564.219,312.882 489.388,312.881 483.951,315.911 477.711,319.343 
		469.784,323.592 460.766,327.992 450.04,332.171 438.296,335.699 426.154,338.162 413.308,339.936 400.184,341.216 387.362,342.06 
		375.473,342.512 364.033,342.894 352.737,343.479 342.256,344.207 333.343,344.987 323.959,346.145 311.929,348.037 
		303.877,349.403 	"/>
	<polyline fill="none" stroke="#000000" stroke-linecap="round" stroke-linejoin="round" stroke-dasharray="4" points="
		301.982,346.121 307.191,339.833 314.846,330.359 320.541,322.811 325.671,315.483 331.542,306.768 337.696,297.279 
		343.749,287.563 350.086,277.494 357.226,266.811 364.896,256.087 372.857,245.848 381.061,236.563 389.986,228.157 
		398.967,220.959 407.29,215.347 414.933,210.608 421.025,206.917 426.367,203.727 426.367,203.727 447.979,241.159 	"/>
	<polyline fill="none" stroke="#000000" stroke-linecap="round" stroke-linejoin="round" stroke-dasharray="4" points="
		318.304,166.293 361.529,166.293 361.436,172.514 361.287,179.637 361.005,188.624 360.305,198.637 358.563,210.014 
		355.746,221.948 351.807,233.693 346.92,245.707 341.467,257.713 335.787,269.238 330.233,279.761 324.844,289.858 
		319.707,299.935 315.094,309.375 311.313,317.483 307.623,326.19 303.246,337.555 300.404,345.21 	"/>
	<polyline fill="none" stroke="#000000" stroke-linecap="round" stroke-linejoin="round" stroke-dasharray="4" points="
		296.615,345.21 293.771,337.555 289.396,326.19 285.705,317.483 281.926,309.375 277.314,299.935 272.174,289.858 266.785,279.761 
		261.232,269.238 255.553,257.713 250.1,245.707 245.211,233.693 241.273,221.948 238.457,210.014 236.715,198.637 236.014,188.624 
		235.732,179.637 235.582,172.514 235.49,166.293 278.715,166.293 	"/>
	<polyline fill="none" stroke="#000000" stroke-linecap="round" stroke-linejoin="round" stroke-dasharray="4" points="
		149.041,241.162 170.653,203.727 175.994,206.917 182.088,210.608 189.729,215.347 198.051,220.959 207.032,228.157 
		215.959,236.563 224.162,245.848 232.121,256.087 239.793,266.811 246.935,277.494 253.271,287.563 259.322,297.279 
		265.477,306.768 271.348,315.483 276.479,322.811 282.174,330.359 289.83,339.833 295.037,346.121 	"/>
	<polyline fill="none" stroke="#000000" stroke-linecap="round" stroke-linejoin="round" stroke-dasharray="4" points="
		293.143,349.403 285.092,348.037 273.061,346.145 263.676,344.987 254.763,344.207 244.281,343.479 232.986,342.894 
		221.547,342.512 209.657,342.06 196.836,341.216 183.711,339.936 170.865,338.162 158.723,335.699 146.98,332.171 136.255,327.992 
		127.233,323.592 119.311,319.343 113.067,315.911 107.633,312.881 129.246,275.446 	"/>
	<polyline fill="none" stroke="#000000" stroke-linecap="round" stroke-linejoin="round" stroke-dasharray="4" points="
		129.248,425.185 107.633,387.748 113.067,384.718 119.311,381.286 127.233,377.038 136.255,372.638 146.98,368.458 158.723,364.93 
		170.865,362.467 183.711,360.693 196.836,359.413 209.657,358.569 221.547,358.117 232.986,357.736 244.281,357.148 
		254.763,356.422 263.676,355.641 273.061,354.483 285.092,352.591 293.143,351.226 	"/>
	<polyline fill="none" stroke="#000000" stroke-linecap="round" stroke-linejoin="round" stroke-dasharray="4" points="
		295.037,354.508 289.83,360.796 282.174,370.27 276.479,377.818 271.348,385.146 265.477,393.861 259.322,403.349 253.271,413.064 
		246.935,423.136 239.793,433.815 232.121,444.544 224.162,454.781 215.959,464.066 207.032,472.471 198.051,479.67 
		189.729,485.283 182.088,490.019 175.994,493.712 170.653,496.902 149.042,459.471 	"/>
	<polyline fill="none" stroke="#000000" stroke-linecap="round" stroke-linejoin="round" stroke-dasharray="4" points="
		278.715,534.336 235.49,534.336 235.49,534.336 235.582,528.113 235.732,520.993 236.014,512.005 236.715,501.992 238.457,490.615 
		241.273,478.68 245.211,466.937 250.1,454.922 255.553,442.915 261.232,431.391 266.785,420.868 272.174,410.771 277.314,400.694 
		281.926,391.254 285.705,383.146 289.396,374.439 293.771,363.074 296.615,355.417 	"/>
	<polyline fill="none" stroke="#000000" stroke-linecap="round" stroke-linejoin="round" stroke-dasharray="4" points="
		300.404,355.417 303.246,363.074 307.623,374.439 311.313,383.146 315.094,391.254 319.707,400.694 324.844,410.771 
		330.233,420.868 335.787,431.391 341.467,442.915 346.92,454.922 351.807,466.937 355.746,478.68 358.563,490.615 360.305,501.992 
		361.005,512.005 361.287,520.993 361.436,528.113 361.529,534.336 318.304,534.336 	"/>
	<polyline fill="none" stroke="#000000" stroke-linecap="round" stroke-linejoin="round" stroke-dasharray="4" points="
		447.98,459.467 426.367,496.902 426.367,496.902 421.025,493.712 414.933,490.019 407.29,485.283 398.967,479.67 389.986,472.471 
		381.061,464.066 372.857,454.781 364.896,444.544 357.226,433.815 350.086,423.136 343.749,413.064 337.696,403.349 
		331.542,393.861 325.671,385.146 320.541,377.818 314.846,370.27 307.191,360.796 301.982,354.508 	"/>
	<polyline fill="none" stroke="#000000" stroke-linecap="round" stroke-linejoin="round" stroke-dasharray="4" points="
		489.388,387.748 489.388,387.748 467.774,425.182 	"/>
	
		<line fill="none" stroke="#000000" stroke-linecap="round" stroke-linejoin="round" stroke-dasharray="4" x1="463.781" y1="561.704" x2="426.369" y2="496.902"/>
	<polyline fill="none" stroke="#000000" stroke-linecap="round" stroke-linejoin="round" stroke-dasharray="4" points="
		361.529,534.336 361.529,534.336 361.531,534.338 398.945,599.14 	"/>
	
		<line fill="none" stroke="#000000" stroke-linecap="round" stroke-linejoin="round" stroke-dasharray="4" x1="235.49" y1="534.336" x2="198.076" y2="599.14"/>
	<polyline fill="none" stroke="#000000" stroke-linecap="round" stroke-linejoin="round" stroke-dasharray="4" points="
		133.238,561.704 170.653,496.902 170.653,496.902 	"/>
	<polyline fill="none" stroke="#000000" stroke-linecap="round" stroke-linejoin="round" stroke-dasharray="4" points="
		32.804,387.748 107.633,387.748 107.633,387.748 	"/>
	<polyline fill="none" stroke="#000000" stroke-linecap="round" stroke-linejoin="round" stroke-dasharray="4" points="
		107.633,312.881 107.633,312.881 32.804,312.881 	"/>
	<polyline fill="none" stroke="#000000" stroke-linecap="round" stroke-linejoin="round" stroke-dasharray="4" points="
		170.653,203.727 170.653,203.727 133.238,138.924 	"/>
	<polyline fill="none" stroke="#000000" stroke-linecap="round" stroke-linejoin="round" stroke-dasharray="4" points="
		198.076,101.49 235.49,166.293 235.49,166.293 	"/>
	<polyline fill="none" stroke="#000000" stroke-linecap="round" stroke-linejoin="round" stroke-dasharray="4" points="
		398.943,101.49 361.529,166.293 361.529,166.293 	"/>
	<polyline fill="none" stroke="#000000" stroke-linecap="round" stroke-linejoin="round" stroke-dasharray="4" points="
		426.367,203.725 426.367,203.728 463.779,138.924 	"/>
</g>
<g id="MountainLine">
	<g id="LINE_256_">
		<polyline fill="none" stroke="#000000" stroke-linecap="round" stroke-linejoin="round" points="293.668,352.136 286.406,354.867 
			275.468,358.653 266.752,360.968 258.289,362.528 248.227,363.982 237.271,365.157 226.052,365.92 214.423,366.826 
			202.09,368.513 189.704,371.074 177.881,374.621 167.161,379.545 157.455,386.602 149.144,394.96 142.663,403.76 137.192,412.258 
			132.93,419.122 129.246,425.181 129.246,425.181 32.803,425.181 32.803,425.181 		"/>
		<polyline fill="none" stroke="#000000" stroke-linecap="round" stroke-linejoin="round" points="100.818,542.989 100.818,542.989 
			149.041,459.467 156.131,459.309 164.207,459.048 174.301,458.559 185.162,457.348 196.557,454.328 207.52,449.45 
			217.146,442.629 226.129,434.163 234.54,424.718 242.168,414.881 248.766,405.263 255.037,395.928 261.531,387.026 
			267.82,379.038 273.404,372.49 279.768,366.1 288.516,358.521 294.512,353.597 		"/>
		<polyline fill="none" stroke="#000000" stroke-linecap="round" stroke-linejoin="round" points="299.354,355.417 300.619,363.074 
			302.809,374.439 305.162,383.146 308.041,391.254 311.813,400.694 316.275,410.771 321.225,420.868 326.254,431.391 
			330.958,442.915 334.934,454.922 337.774,466.937 338.87,478.68 337.611,490.615 334.529,501.992 330.148,512.005 
			325.524,520.993 321.711,528.113 318.304,534.336 278.715,534.336 275.309,528.113 271.495,520.993 266.871,512.005 
			262.49,501.992 259.407,490.615 258.15,478.68 259.244,466.937 262.085,454.922 266.06,442.915 270.765,431.391 275.795,420.868 
			280.744,410.771 285.205,400.694 288.977,391.254 291.857,383.146 294.209,374.439 296.4,363.074 297.666,355.417 		"/>
		<polyline fill="none" stroke="#000000" stroke-linecap="round" stroke-linejoin="round" points="297.666,345.21 296.4,337.555 
			294.209,326.19 291.857,317.483 288.977,309.375 285.205,299.935 280.744,289.858 275.795,279.761 270.765,269.238 
			266.06,257.713 262.085,245.707 259.244,233.693 258.15,221.948 259.407,210.014 262.49,198.637 266.871,188.624 271.495,179.637 
			275.309,172.514 278.715,166.293 318.304,166.293 321.711,172.514 325.524,179.637 330.148,188.624 334.529,198.637 
			337.611,210.014 338.87,221.948 337.774,233.693 334.934,245.707 330.958,257.713 326.254,269.238 321.225,279.761 
			316.275,289.858 311.813,299.935 308.041,309.375 305.162,317.483 302.809,326.19 300.619,337.555 299.354,345.21 		"/>
		
			<line fill="none" stroke="#000000" stroke-linecap="round" stroke-linejoin="round" x1="489.388" y1="387.748" x2="489.388" y2="312.881"/>
		<polyline fill="none" stroke="#000000" stroke-linecap="round" stroke-linejoin="round" points="302.508,353.597 308.505,358.521 
			317.252,366.1 323.616,372.49 329.2,379.038 335.487,387.026 341.98,395.928 348.252,405.263 354.851,414.881 362.479,424.718 
			370.891,434.163 379.873,442.629 389.5,449.45 400.462,454.328 411.857,457.348 422.718,458.559 432.813,459.048 440.888,459.309 
			447.979,459.467 467.774,425.182 564.219,425.183 		"/>
		<polyline fill="none" stroke="#000000" stroke-linecap="round" stroke-linejoin="round" points="496.201,542.991 447.98,459.469 
			447.979,459.467 447.979,459.467 467.773,425.181 467.773,425.181 464.09,419.122 459.829,412.258 454.358,403.76 447.875,394.96 
			439.563,386.602 429.858,379.545 419.138,374.621 407.313,371.074 394.929,368.513 382.596,366.826 370.968,365.92 
			359.749,365.157 348.793,363.982 338.73,362.528 330.268,360.968 321.553,358.653 310.613,354.867 303.354,352.136 		"/>
		
			<line fill="none" stroke="#000000" stroke-linecap="round" stroke-linejoin="round" x1="361.529" y1="534.336" x2="426.367" y2="496.902"/>
		<polyline fill="none" stroke="#000000" stroke-linecap="round" stroke-linejoin="round" points="230.493,617.855 230.493,617.855 
			278.715,534.333 278.713,534.336 278.715,534.336 278.715,534.336 318.304,534.336 318.304,534.336 318.308,534.336 
			366.527,617.855 		"/>
		
			<line fill="none" stroke="#000000" stroke-linecap="round" stroke-linejoin="round" x1="170.653" y1="496.902" x2="235.49" y2="534.336"/>
		<polyline fill="none" stroke="#000000" stroke-linecap="round" stroke-linejoin="round" points="129.248,425.185 149.042,459.471 
			149.041,459.467 149.04,459.467 		"/>
		
			<line fill="none" stroke="#000000" stroke-linecap="round" stroke-linejoin="round" x1="107.633" y1="312.881" x2="107.633" y2="387.748"/>
		<polyline fill="none" stroke="#000000" stroke-linecap="round" stroke-linejoin="round" points="293.668,348.492 286.406,345.762 
			275.468,341.976 266.752,339.661 258.289,338.1 248.227,336.646 237.271,335.473 226.052,334.709 214.423,333.803 202.09,332.116 
			189.704,329.555 177.881,326.008 167.161,321.084 157.455,314.027 149.144,305.669 142.663,296.868 137.192,288.372 
			132.93,281.507 129.246,275.446 129.246,275.446 149.042,241.16 149.041,241.16 149.041,241.16 149.041,241.162 129.246,275.446 
			32.803,275.446 32.803,275.446 		"/>
		<polyline fill="none" stroke="#000000" stroke-linecap="round" stroke-linejoin="round" points="100.82,157.64 100.82,157.64 
			149.041,241.16 156.131,241.321 164.207,241.58 174.301,242.07 185.162,243.281 196.557,246.301 207.52,251.179 217.146,258 
			226.129,266.465 234.54,275.911 242.168,285.749 248.766,295.367 255.037,304.7 261.531,313.603 267.82,321.589 273.404,328.139 
			279.768,334.529 288.516,342.108 294.512,347.032 		"/>
		
			<line fill="none" stroke="#000000" stroke-linecap="round" stroke-linejoin="round" x1="235.49" y1="166.293" x2="170.653" y2="203.727"/>
		<polyline fill="none" stroke="#000000" stroke-linecap="round" stroke-linejoin="round" points="366.527,82.772 366.527,82.772 
			318.304,166.293 318.304,166.293 318.303,166.292 278.718,166.293 278.715,166.293 278.715,166.293 230.495,82.771 
			230.495,82.771 		"/>
		
			<line fill="none" stroke="#000000" stroke-linecap="round" stroke-linejoin="round" x1="426.367" y1="203.727" x2="361.529" y2="166.293"/>
		<polyline fill="none" stroke="#000000" stroke-linecap="round" stroke-linejoin="round" points="302.508,347.032 308.505,342.108 
			317.252,334.529 323.616,328.139 329.2,321.589 335.487,313.603 341.98,304.7 348.252,295.367 354.851,285.749 362.479,275.911 
			370.891,266.465 379.873,258 389.5,251.179 400.462,246.301 411.857,243.281 422.718,242.07 432.813,241.58 440.888,241.321 
			447.979,241.16 447.979,241.16 447.979,241.159 467.771,275.44 447.977,241.159 447.98,241.163 496.201,157.641 496.201,157.641 
					"/>
		<polyline fill="none" stroke="#000000" stroke-linecap="round" stroke-linejoin="round" points="564.219,275.446 467.775,275.446 
			467.773,275.446 467.773,275.446 464.09,281.507 459.829,288.372 454.358,296.868 447.875,305.669 439.563,314.027 
			429.858,321.084 419.138,326.008 407.313,329.555 394.929,332.116 382.596,333.803 370.968,334.709 359.749,335.473 
			348.793,336.646 338.73,338.1 330.268,339.661 321.553,341.976 310.613,345.762 303.354,348.492 		"/>
	</g>
</g>
<g id="Text">
	<text transform="matrix(1 0 0 1 432.3096 815.2715)" font-family="'ArialMT'" font-size="14">(c) 2016 Jun Mitani</text>
	<text transform="matrix(1 0 0 1 31.7119 42.1099)" font-family="'ArialMT'" font-size="18">Whipped Cream</text>
	<text transform="matrix(1 0 0 1 280.501 663.6826)" font-family="'ArialMT'" font-size="12">Template</text>
</g>
</svg>
