  0
SECTION
  2
HEADER
  9
$ACADVER
  1
AC1012
  9
$DWGCODEPAGE
  3
ansi_932
  9
$INSBASE
 10
0.0
 20
0.0
 30
0.0
  9
$EXTMIN
 10
1.000000000000000E+20
 20
1.000000000000000E+20
 30
1.000000000000000E+20
  9
$EXTMAX
 10
-1.000000000000000E+20
 20
-1.000000000000000E+20
 30
-1.000000000000000E+20
  9
$LIMMIN
 10
0.0
 20
0.0
  9
$LIMMAX
 10
12.0
 20
9.0
  9
$ORTHOMODE
 70
     0
  9
$REGENMODE
 70
     1
  9
$FILLMODE
 70
     1
  9
$QTEXTMODE
 70
     0
  9
$MIRRTEXT
 70
     1
  9
$DRAGMODE
 70
     2
  9
$LTSCALE
 40
1.0
  9
$OSMODE
 70
    37
  9
$ATTMODE
 70
     1
  9
$TEXTSIZE
 40
0.2
  9
$TRACEWID
 40
0.05
  9
$TEXTSTYLE
  7
STANDARD
  9
$CLAYER
  8
0
  9
$CELTYPE
  6
BYLAYER
  9
$CECOLOR
 62
   256
  9
$CELTSCALE
 40
1.0
  9
$DELOBJ
 70
     1
  9
$DISPSILH
 70
     0
  9
$DIMSCALE
 40
1.0
  9
$DIMASZ
 40
0.18
  9
$DIMEXO
 40
0.0625
  9
$DIMDLI
 40
0.38
  9
$DIMRND
 40
0.0
  9
$DIMDLE
 40
0.0
  9
$DIMEXE
 40
0.18
  9
$DIMTP
 40
0.0
  9
$DIMTM
 40
0.0
  9
$DIMTXT
 40
0.18
  9
$DIMCEN
 40
0.09
  9
$DIMTSZ
 40
0.0
  9
$DIMTOL
 70
     0
  9
$DIMLIM
 70
     0
  9
$DIMTIH
 70
     1
  9
$DIMTOH
 70
     1
  9
$DIMSE1
 70
     0
  9
$DIMSE2
 70
     0
  9
$DIMTAD
 70
     0
  9
$DIMZIN
 70
     0
  9
$DIMBLK
  1

  9
$DIMASO
 70
     1
  9
$DIMSHO
 70
     1
  9
$DIMPOST
  1

  9
$DIMAPOST
  1

  9
$DIMALT
 70
     0
  9
$DIMALTD
 70
     2
  9
$DIMALTF
 40
25.4
  9
$DIMLFAC
 40
1.0
  9
$DIMTOFL
 70
     0
  9
$DIMTVP
 40
0.0
  9
$DIMTIX
 70
     0
  9
$DIMSOXD
 70
     0
  9
$DIMSAH
 70
     0
  9
$DIMBLK1
  1

  9
$DIMBLK2
  1

  9
$DIMSTYLE
  2
STANDARD
  9
$DIMCLRD
 70
     0
  9
$DIMCLRE
 70
     0
  9
$DIMCLRT
 70
     0
  9
$DIMTFAC
 40
1.0
  9
$DIMGAP
 40
0.09
  9
$DIMJUST
 70
     0
  9
$DIMSD1
 70
     0
  9
$DIMSD2
 70
     0
  9
$DIMTOLJ
 70
     1
  9
$DIMTZIN
 70
     0
  9
$DIMALTZ
 70
     0
  9
$DIMALTTZ
 70
     0
  9
$DIMFIT
 70
     3
  9
$DIMUPT
 70
     0
  9
$DIMUNIT
 70
     2
  9
$DIMDEC
 70
     4
  9
$DIMTDEC
 70
     4
  9
$DIMALTU
 70
     2
  9
$DIMALTTD
 70
     2
  9
$DIMTXSTY
  7
STANDARD
  9
$DIMAUNIT
 70
     0
  9
$LUNITS
 70
     2
  9
$LUPREC
 70
     4
  9
$SKETCHINC
 40
0.1
  9
$FILLETRAD
 40
0.5
  9
$AUNITS
 70
     0
  9
$AUPREC
 70
     0
  9
$MENU
  1
.
  9
$ELEVATION
 40
0.0
  9
$PELEVATION
 40
0.0
  9
$THICKNESS
 40
0.0
  9
$LIMCHECK
 70
     0
  9
$CHAMFERA
 40
0.5
  9
$CHAMFERB
 40
0.5
  9
$CHAMFERC
 40
1.0
  9
$CHAMFERD
 40
0.0
  9
$SKPOLY
 70
     0
  9
$TDCREATE
 40
2457508.893319977
  9
$TDUPDATE
 40
2457508.893319989
  9
$TDINDWG
 40
0.0000000116
  9
$TDUSRTIMER
 40
0.0000000116
  9
$USRTIMER
 70
     1
  9
$ANGBASE
 50
0.0
  9
$ANGDIR
 70
     0
  9
$PDMODE
 70
     0
  9
$PDSIZE
 40
0.0
  9
$PLINEWID
 40
0.0
  9
$COORDS
 70
     1
  9
$SPLFRAME
 70
     0
  9
$SPLINETYPE
 70
     6
  9
$SPLINESEGS
 70
     8
  9
$ATTDIA
 70
     0
  9
$ATTREQ
 70
     1
  9
$HANDLING
 70
     1
  9
$HANDSEED
  5
254
  9
$SURFTAB1
 70
     6
  9
$SURFTAB2
 70
     6
  9
$SURFTYPE
 70
     6
  9
$SURFU
 70
     6
  9
$SURFV
 70
     6
  9
$UCSNAME
  2

  9
$UCSORG
 10
0.0
 20
0.0
 30
0.0
  9
$UCSXDIR
 10
1.0
 20
0.0
 30
0.0
  9
$UCSYDIR
 10
0.0
 20
1.0
 30
0.0
  9
$PUCSNAME
  2

  9
$PUCSORG
 10
0.0
 20
0.0
 30
0.0
  9
$PUCSXDIR
 10
1.0
 20
0.0
 30
0.0
  9
$PUCSYDIR
 10
0.0
 20
1.0
 30
0.0
  9
$USERI1
 70
     0
  9
$USERI2
 70
     0
  9
$USERI3
 70
     0
  9
$USERI4
 70
     0
  9
$USERI5
 70
     0
  9
$USERR1
 40
0.0
  9
$USERR2
 40
0.0
  9
$USERR3
 40
0.0
  9
$USERR4
 40
0.0
  9
$USERR5
 40
0.0
  9
$WORLDVIEW
 70
     1
  9
$SHADEDGE
 70
     3
  9
$SHADEDIF
 70
    70
  9
$TILEMODE
 70
     1
  9
$MAXACTVP
 70
    64
  9
$PINSBASE
 10
0.0
 20
0.0
 30
0.0
  9
$PLIMCHECK
 70
     0
  9
$PEXTMIN
 10
1.000000000000000E+20
 20
1.000000000000000E+20
 30
1.000000000000000E+20
  9
$PEXTMAX
 10
-1.000000000000000E+20
 20
-1.000000000000000E+20
 30
-1.000000000000000E+20
  9
$PLIMMIN
 10
0.0
 20
0.0
  9
$PLIMMAX
 10
12.0
 20
9.0
  9
$UNITMODE
 70
     0
  9
$VISRETAIN
 70
     1
  9
$PLINEGEN
 70
     0
  9
$PSLTSCALE
 70
     1
  9
$TREEDEPTH
 70
  3020
  9
$PICKSTYLE
 70
     1
  9
$CMLSTYLE
  2
STANDARD
  9
$CMLJUST
 70
     0
  9
$CMLSCALE
 40
1.0
  9
$SAVEIMAGES
 70
     1
  0
ENDSEC
  0
SECTION
  2
CLASSES
  0
CLASS
  1
ACDBDICTIONARYWDFLT
  2
AcDbDictionaryWithDefault
  3
ObjectDBX Classes
 90
    32768
280
     0
281
     0
  0
CLASS
  1
VISUALSTYLE
  2
AcDbVisualStyle
  3
ObjectDBX Classes
 90
     4095
280
     0
281
     0
  0
CLASS
  1
XRECORD
  2
AcDbXrecord
  3
AutoCAD 2000
 90
    32768
280
     0
281
     0
  0
CLASS
  1
LWPOLYLINE
  2
AcDbPolyline
  3
AutoCAD 2000
 90
    32768
280
     0
281
     1
  0
CLASS
  1
HATCH
  2
AcDbHatch
  3
AutoCAD 2000
 90
    32768
280
     0
281
     1
  0
CLASS
  1
ACDBPLACEHOLDER
  2
AcDbPlaceHolder
  3
ObjectDBX Classes
 90
        0
280
     0
281
     0
  0
CLASS
  1
LAYOUT
  2
AcDbLayout
  3
ObjectDBX Classes
 90
        0
280
     0
281
     0
  0
ENDSEC
  0
SECTION
  2
TABLES
  0
TABLE
  2
VPORT
  5
8
330
0
100
AcDbSymbolTable
 70
     1
  0
VPORT
  5
29
330
8
100
AcDbSymbolTableRecord
100
AcDbViewportTableRecord
  2
*ACTIVE
 70
     0
 10
0.0
 20
0.0
 11
1.0
 21
1.0
 12
0.0
 22
0.0
 13
0.0
 23
0.0
 14
0.5
 24
0.5
 15
0.5
 25
0.5
 16
0.0
 26
0.0
 36
1.0
 17
105.0008259828644
 27
-148.4999796178229
 37
0.0
 40
296.9999592356459
 41
0.7070763662937379
 42
50.0
 43
0.0
 44
0.0
 50
0.0
 51
0.0
 71
     0
 72
   100
 73
     1
 74
     3
 75
     0
 76
     0
 77
     0
 78
     0
  0
ENDTAB
  0
TABLE
  2
LTYPE
  5
5
330
0
100
AcDbSymbolTable
 70
    35
  0
LTYPE
  5
14
330
5
100
AcDbSymbolTableRecord
100
AcDbLinetypeTableRecord
  2
BYBLOCK
 70
     0
  3

 72
    65
 73
     0
 40
0.0
  0
LTYPE
  5
15
330
5
100
AcDbSymbolTableRecord
100
AcDbLinetypeTableRecord
  2
BYLAYER
 70
     0
  3

 72
    65
 73
     0
 40
0.0
  0
LTYPE
  5
16
330
5
100
AcDbSymbolTableRecord
100
AcDbLinetypeTableRecord
  2
CONTINUOUS
 70
     0
  3
Solid line
 72
    65
 73
     0
 40
0.0
  0
LTYPE
  5
D0
330
5
100
AcDbSymbolTableRecord
100
AcDbLinetypeTableRecord
  2
AI-LINETYPE-1
 70
     0
  3
Adobe Illustrator Linetype No. 1
 72
    65
 73
     2
 40
2.822222221516667
 49
1.411111110758333
 74
     0
 49
-1.411111110758333
 74
     0
  0
LTYPE
  5
D9
330
5
100
AcDbSymbolTableRecord
100
AcDbLinetypeTableRecord
  2
AI-LINETYPE-2
 70
     0
  3
Adobe Illustrator Linetype No. 2
 72
    65
 73
     2
 40
2.822222221516667
 49
1.411111110758333
 74
     0
 49
-1.411111110758333
 74
     0
  0
LTYPE
  5
E2
330
5
100
AcDbSymbolTableRecord
100
AcDbLinetypeTableRecord
  2
AI-LINETYPE-3
 70
     0
  3
Adobe Illustrator Linetype No. 3
 72
    65
 73
     2
 40
2.822222221516667
 49
1.411111110758333
 74
     0
 49
-1.411111110758333
 74
     0
  0
LTYPE
  5
EB
330
5
100
AcDbSymbolTableRecord
100
AcDbLinetypeTableRecord
  2
AI-LINETYPE-4
 70
     0
  3
Adobe Illustrator Linetype No. 4
 72
    65
 73
     2
 40
2.822222221516667
 49
1.411111110758333
 74
     0
 49
-1.411111110758333
 74
     0
  0
LTYPE
  5
F4
330
5
100
AcDbSymbolTableRecord
100
AcDbLinetypeTableRecord
  2
AI-LINETYPE-5
 70
     0
  3
Adobe Illustrator Linetype No. 5
 72
    65
 73
     2
 40
2.822222221516667
 49
1.411111110758333
 74
     0
 49
-1.411111110758333
 74
     0
  0
LTYPE
  5
FD
330
5
100
AcDbSymbolTableRecord
100
AcDbLinetypeTableRecord
  2
AI-LINETYPE-6
 70
     0
  3
Adobe Illustrator Linetype No. 6
 72
    65
 73
     2
 40
2.822222221516667
 49
1.411111110758333
 74
     0
 49
-1.411111110758333
 74
     0
  0
LTYPE
  5
106
330
5
100
AcDbSymbolTableRecord
100
AcDbLinetypeTableRecord
  2
AI-LINETYPE-7
 70
     0
  3
Adobe Illustrator Linetype No. 7
 72
    65
 73
     2
 40
2.822222221516667
 49
1.411111110758333
 74
     0
 49
-1.411111110758333
 74
     0
  0
LTYPE
  5
10F
330
5
100
AcDbSymbolTableRecord
100
AcDbLinetypeTableRecord
  2
AI-LINETYPE-8
 70
     0
  3
Adobe Illustrator Linetype No. 8
 72
    65
 73
     2
 40
2.822222221516667
 49
1.411111110758333
 74
     0
 49
-1.411111110758333
 74
     0
  0
LTYPE
  5
118
330
5
100
AcDbSymbolTableRecord
100
AcDbLinetypeTableRecord
  2
AI-LINETYPE-9
 70
     0
  3
Adobe Illustrator Linetype No. 9
 72
    65
 73
     2
 40
2.822222221516667
 49
1.411111110758333
 74
     0
 49
-1.411111110758333
 74
     0
  0
LTYPE
  5
120
330
5
100
AcDbSymbolTableRecord
100
AcDbLinetypeTableRecord
  2
AI-LINETYPE-10
 70
     0
  3
Adobe Illustrator Linetype No. 10
 72
    65
 73
     2
 40
2.822222221516667
 49
1.411111110758333
 74
     0
 49
-1.411111110758333
 74
     0
  0
LTYPE
  5
125
330
5
100
AcDbSymbolTableRecord
100
AcDbLinetypeTableRecord
  2
AI-LINETYPE-11
 70
     0
  3
Adobe Illustrator Linetype No. 11
 72
    65
 73
     2
 40
2.822222221516667
 49
1.411111110758333
 74
     0
 49
-1.411111110758333
 74
     0
  0
LTYPE
  5
12E
330
5
100
AcDbSymbolTableRecord
100
AcDbLinetypeTableRecord
  2
AI-LINETYPE-12
 70
     0
  3
Adobe Illustrator Linetype No. 12
 72
    65
 73
     2
 40
2.822222221516667
 49
1.411111110758333
 74
     0
 49
-1.411111110758333
 74
     0
  0
LTYPE
  5
137
330
5
100
AcDbSymbolTableRecord
100
AcDbLinetypeTableRecord
  2
AI-LINETYPE-13
 70
     0
  3
Adobe Illustrator Linetype No. 13
 72
    65
 73
     2
 40
2.822222221516667
 49
1.411111110758333
 74
     0
 49
-1.411111110758333
 74
     0
  0
LTYPE
  5
140
330
5
100
AcDbSymbolTableRecord
100
AcDbLinetypeTableRecord
  2
AI-LINETYPE-14
 70
     0
  3
Adobe Illustrator Linetype No. 14
 72
    65
 73
     2
 40
2.822222221516667
 49
1.411111110758333
 74
     0
 49
-1.411111110758333
 74
     0
  0
LTYPE
  5
149
330
5
100
AcDbSymbolTableRecord
100
AcDbLinetypeTableRecord
  2
AI-LINETYPE-15
 70
     0
  3
Adobe Illustrator Linetype No. 15
 72
    65
 73
     2
 40
2.822222221516667
 49
1.411111110758333
 74
     0
 49
-1.411111110758333
 74
     0
  0
LTYPE
  5
152
330
5
100
AcDbSymbolTableRecord
100
AcDbLinetypeTableRecord
  2
AI-LINETYPE-16
 70
     0
  3
Adobe Illustrator Linetype No. 16
 72
    65
 73
     2
 40
2.822222221516667
 49
1.411111110758333
 74
     0
 49
-1.411111110758333
 74
     0
  0
LTYPE
  5
15B
330
5
100
AcDbSymbolTableRecord
100
AcDbLinetypeTableRecord
  2
AI-LINETYPE-17
 70
     0
  3
Adobe Illustrator Linetype No. 17
 72
    65
 73
     2
 40
2.822222221516667
 49
1.411111110758333
 74
     0
 49
-1.411111110758333
 74
     0
  0
LTYPE
  5
163
330
5
100
AcDbSymbolTableRecord
100
AcDbLinetypeTableRecord
  2
AI-LINETYPE-18
 70
     0
  3
Adobe Illustrator Linetype No. 18
 72
    65
 73
     2
 40
2.822222221516667
 49
1.411111110758333
 74
     0
 49
-1.411111110758333
 74
     0
  0
LTYPE
  5
168
330
5
100
AcDbSymbolTableRecord
100
AcDbLinetypeTableRecord
  2
AI-LINETYPE-19
 70
     0
  3
Adobe Illustrator Linetype No. 19
 72
    65
 73
     2
 40
2.822222221516667
 49
1.411111110758333
 74
     0
 49
-1.411111110758333
 74
     0
  0
LTYPE
  5
171
330
5
100
AcDbSymbolTableRecord
100
AcDbLinetypeTableRecord
  2
AI-LINETYPE-20
 70
     0
  3
Adobe Illustrator Linetype No. 20
 72
    65
 73
     2
 40
2.822222221516667
 49
1.411111110758333
 74
     0
 49
-1.411111110758333
 74
     0
  0
LTYPE
  5
17A
330
5
100
AcDbSymbolTableRecord
100
AcDbLinetypeTableRecord
  2
AI-LINETYPE-21
 70
     0
  3
Adobe Illustrator Linetype No. 21
 72
    65
 73
     2
 40
2.822222221516667
 49
1.411111110758333
 74
     0
 49
-1.411111110758333
 74
     0
  0
LTYPE
  5
17F
330
5
100
AcDbSymbolTableRecord
100
AcDbLinetypeTableRecord
  2
AI-LINETYPE-22
 70
     0
  3
Adobe Illustrator Linetype No. 22
 72
    65
 73
     2
 40
2.822222221516667
 49
1.411111110758333
 74
     0
 49
-1.411111110758333
 74
     0
  0
LTYPE
  5
19F
330
5
100
AcDbSymbolTableRecord
100
AcDbLinetypeTableRecord
  2
AI-LINETYPE-23
 70
     0
  3
Adobe Illustrator Linetype No. 23
 72
    65
 73
     2
 40
2.822222221516667
 49
1.411111110758333
 74
     0
 49
-1.411111110758333
 74
     0
  0
LTYPE
  5
1A8
330
5
100
AcDbSymbolTableRecord
100
AcDbLinetypeTableRecord
  2
AI-LINETYPE-24
 70
     0
  3
Adobe Illustrator Linetype No. 24
 72
    65
 73
     2
 40
2.822222221516667
 49
1.411111110758333
 74
     0
 49
-1.411111110758333
 74
     0
  0
LTYPE
  5
1C8
330
5
100
AcDbSymbolTableRecord
100
AcDbLinetypeTableRecord
  2
AI-LINETYPE-25
 70
     0
  3
Adobe Illustrator Linetype No. 25
 72
    65
 73
     2
 40
2.822222221516667
 49
1.411111110758333
 74
     0
 49
-1.411111110758333
 74
     0
  0
LTYPE
  5
1D1
330
5
100
AcDbSymbolTableRecord
100
AcDbLinetypeTableRecord
  2
AI-LINETYPE-26
 70
     0
  3
Adobe Illustrator Linetype No. 26
 72
    65
 73
     2
 40
2.822222221516667
 49
1.411111110758333
 74
     0
 49
-1.411111110758333
 74
     0
  0
LTYPE
  5
1DA
330
5
100
AcDbSymbolTableRecord
100
AcDbLinetypeTableRecord
  2
AI-LINETYPE-27
 70
     0
  3
Adobe Illustrator Linetype No. 27
 72
    65
 73
     2
 40
2.822222221516667
 49
1.411111110758333
 74
     0
 49
-1.411111110758333
 74
     0
  0
LTYPE
  5
1FA
330
5
100
AcDbSymbolTableRecord
100
AcDbLinetypeTableRecord
  2
AI-LINETYPE-28
 70
     0
  3
Adobe Illustrator Linetype No. 28
 72
    65
 73
     2
 40
2.822222221516667
 49
1.411111110758333
 74
     0
 49
-1.411111110758333
 74
     0
  0
LTYPE
  5
203
330
5
100
AcDbSymbolTableRecord
100
AcDbLinetypeTableRecord
  2
AI-LINETYPE-29
 70
     0
  3
Adobe Illustrator Linetype No. 29
 72
    65
 73
     2
 40
2.822222221516667
 49
1.411111110758333
 74
     0
 49
-1.411111110758333
 74
     0
  0
LTYPE
  5
20C
330
5
100
AcDbSymbolTableRecord
100
AcDbLinetypeTableRecord
  2
AI-LINETYPE-30
 70
     0
  3
Adobe Illustrator Linetype No. 30
 72
    65
 73
     2
 40
2.822222221516667
 49
1.411111110758333
 74
     0
 49
-1.411111110758333
 74
     0
  0
LTYPE
  5
22C
330
5
100
AcDbSymbolTableRecord
100
AcDbLinetypeTableRecord
  2
AI-LINETYPE-31
 70
     0
  3
Adobe Illustrator Linetype No. 31
 72
    65
 73
     2
 40
2.822222221516667
 49
1.411111110758333
 74
     0
 49
-1.411111110758333
 74
     0
  0
LTYPE
  5
235
330
5
100
AcDbSymbolTableRecord
100
AcDbLinetypeTableRecord
  2
AI-LINETYPE-32
 70
     0
  3
Adobe Illustrator Linetype No. 32
 72
    65
 73
     2
 40
2.822222221516667
 49
1.411111110758333
 74
     0
 49
-1.411111110758333
 74
     0
  0
LTYPE
  5
23E
330
5
100
AcDbSymbolTableRecord
100
AcDbLinetypeTableRecord
  2
AI-LINETYPE-33
 70
     0
  3
Adobe Illustrator Linetype No. 33
 72
    65
 73
     2
 40
2.822222221516667
 49
1.411111110758333
 74
     0
 49
-1.411111110758333
 74
     0
  0
LTYPE
  5
247
330
5
100
AcDbSymbolTableRecord
100
AcDbLinetypeTableRecord
  2
AI-LINETYPE-34
 70
     0
  3
Adobe Illustrator Linetype No. 34
 72
    65
 73
     2
 40
2.822222221516667
 49
1.411111110758333
 74
     0
 49
-1.411111110758333
 74
     0
  0
ENDTAB
  0
TABLE
  2
LAYER
  5
2
330
0
100
AcDbSymbolTable
 70
     5
  0
LAYER
  5
10
330
2
100
AcDbSymbolTableRecord
100
AcDbLayerTableRecord
  2
0
 70
     0
 62
     7
  6
CONTINUOUS
  0
LAYER
  5
3B
330
2
100
AcDbSymbolTableRecord
100
AcDbLayerTableRecord
  2
CUTLINE
 70
     0
 62
     7
  6
CONTINUOUS
  0
LAYER
  5
6B
330
2
100
AcDbSymbolTableRecord
100
AcDbLayerTableRecord
  2
VALLEYLINE
 70
     0
 62
     7
  6
CONTINUOUS
  0
LAYER
  5
C7
330
2
100
AcDbSymbolTableRecord
100
AcDbLayerTableRecord
  2
MOUNTAINLINE
 70
     0
 62
     7
  6
CONTINUOUS
  0
LAYER
  5
24C
330
2
100
AcDbSymbolTableRecord
100
AcDbLayerTableRecord
  2
TEXT
 70
     0
 62
     7
  6
CONTINUOUS
  0
ENDTAB
  0
TABLE
  2
STYLE
  5
3
330
0
100
AcDbSymbolTable
 70
     1
  0
STYLE
  5
11
330
3
100
AcDbSymbolTableRecord
100
AcDbTextStyleTableRecord
  2
STANDARD
 70
     0
 40
0.0
 41
1.0
 50
0.0
 71
     0
 42
0.2
  3
txt
  4

  0
ENDTAB
  0
TABLE
  2
VIEW
  5
6
330
0
100
AcDbSymbolTable
 70
     0
  0
ENDTAB
  0
TABLE
  2
UCS
  5
7
330
0
100
AcDbSymbolTable
 70
     0
  0
ENDTAB
  0
TABLE
  2
APPID
  5
9
330
0
100
AcDbSymbolTable
 70
     1
  0
APPID
  5
12
330
9
100
AcDbSymbolTableRecord
100
AcDbRegAppTableRecord
  2
ACAD
 70
     0
  0
ENDTAB
  0
TABLE
  2
DIMSTYLE
  5
A
330
0
100
AcDbSymbolTable
 70
     1
  0
DIMSTYLE
105
27
330
A
100
AcDbSymbolTableRecord
100
AcDbDimStyleTableRecord
  2
STANDARD
 70
     0
  3

  4

  5

  6

  7

 40
1.0
 41
0.18
 42
0.0625
 43
0.38
 44
0.18
 45
0.0
 46
0.0
 47
0.0
 48
0.0
140
0.18
141
0.09
142
0.0
143
25.4
144
1.0
145
0.0
146
1.0
147
0.09
 71
     0
 72
     0
 73
     1
 74
     1
 75
     0
 76
     0
 77
     0
 78
     0
170
     0
171
     2
172
     0
173
     0
174
     0
175
     0
176
     0
177
     0
178
     0
270
     2
271
     4
272
     4
273
     2
274
     2
340
11
275
     0
280
     0
281
     0
282
     0
283
     1
284
     0
285
     0
286
     0
287
     3
288
     0
  0
ENDTAB
  0
TABLE
  2
BLOCK_RECORD
  5
1
330
0
100
AcDbSymbolTable
 70
    37
  0
BLOCK_RECORD
  5
1F
330
1
100
AcDbSymbolTableRecord
100
AcDbBlockTableRecord
  2
*MODEL_SPACE
  0
BLOCK_RECORD
  5
1B
330
1
100
AcDbSymbolTableRecord
100
AcDbBlockTableRecord
  2
*PAPER_SPACE
  0
BLOCK_RECORD
  5
4C
330
1
100
AcDbSymbolTableRecord
100
AcDbBlockTableRecord
  2
BLOCK_2
  0
BLOCK_RECORD
  5
8C
330
1
100
AcDbSymbolTableRecord
100
AcDbBlockTableRecord
  2
BLOCK_3
  0
BLOCK_RECORD
  5
97
330
1
100
AcDbSymbolTableRecord
100
AcDbBlockTableRecord
  2
BLOCK_4
  0
BLOCK_RECORD
  5
9F
330
1
100
AcDbSymbolTableRecord
100
AcDbBlockTableRecord
  2
BLOCK_5
  0
BLOCK_RECORD
  5
A7
330
1
100
AcDbSymbolTableRecord
100
AcDbBlockTableRecord
  2
BLOCK_6
  0
BLOCK_RECORD
  5
C8
330
1
100
AcDbSymbolTableRecord
100
AcDbBlockTableRecord
  2
BLOCK_7
  0
BLOCK_RECORD
  5
D1
330
1
100
AcDbSymbolTableRecord
100
AcDbBlockTableRecord
  2
BLOCK_8
  0
BLOCK_RECORD
  5
DA
330
1
100
AcDbSymbolTableRecord
100
AcDbBlockTableRecord
  2
BLOCK_9
  0
BLOCK_RECORD
  5
E3
330
1
100
AcDbSymbolTableRecord
100
AcDbBlockTableRecord
  2
BLOCK_10
  0
BLOCK_RECORD
  5
EC
330
1
100
AcDbSymbolTableRecord
100
AcDbBlockTableRecord
  2
BLOCK_11
  0
BLOCK_RECORD
  5
F5
330
1
100
AcDbSymbolTableRecord
100
AcDbBlockTableRecord
  2
BLOCK_12
  0
BLOCK_RECORD
  5
FE
330
1
100
AcDbSymbolTableRecord
100
AcDbBlockTableRecord
  2
BLOCK_13
  0
BLOCK_RECORD
  5
107
330
1
100
AcDbSymbolTableRecord
100
AcDbBlockTableRecord
  2
BLOCK_14
  0
BLOCK_RECORD
  5
110
330
1
100
AcDbSymbolTableRecord
100
AcDbBlockTableRecord
  2
BLOCK_15
  0
BLOCK_RECORD
  5
119
330
1
100
AcDbSymbolTableRecord
100
AcDbBlockTableRecord
  2
BLOCK_16
  0
BLOCK_RECORD
  5
126
330
1
100
AcDbSymbolTableRecord
100
AcDbBlockTableRecord
  2
BLOCK_17
  0
BLOCK_RECORD
  5
12F
330
1
100
AcDbSymbolTableRecord
100
AcDbBlockTableRecord
  2
BLOCK_18
  0
BLOCK_RECORD
  5
138
330
1
100
AcDbSymbolTableRecord
100
AcDbBlockTableRecord
  2
BLOCK_19
  0
BLOCK_RECORD
  5
141
330
1
100
AcDbSymbolTableRecord
100
AcDbBlockTableRecord
  2
BLOCK_20
  0
BLOCK_RECORD
  5
14A
330
1
100
AcDbSymbolTableRecord
100
AcDbBlockTableRecord
  2
BLOCK_21
  0
BLOCK_RECORD
  5
153
330
1
100
AcDbSymbolTableRecord
100
AcDbBlockTableRecord
  2
BLOCK_22
  0
BLOCK_RECORD
  5
15C
330
1
100
AcDbSymbolTableRecord
100
AcDbBlockTableRecord
  2
BLOCK_23
  0
BLOCK_RECORD
  5
169
330
1
100
AcDbSymbolTableRecord
100
AcDbBlockTableRecord
  2
BLOCK_24
  0
BLOCK_RECORD
  5
172
330
1
100
AcDbSymbolTableRecord
100
AcDbBlockTableRecord
  2
BLOCK_25
  0
BLOCK_RECORD
  5
180
330
1
100
AcDbSymbolTableRecord
100
AcDbBlockTableRecord
  2
BLOCK_26
  0
BLOCK_RECORD
  5
1A0
330
1
100
AcDbSymbolTableRecord
100
AcDbBlockTableRecord
  2
BLOCK_27
  0
BLOCK_RECORD
  5
1A9
330
1
100
AcDbSymbolTableRecord
100
AcDbBlockTableRecord
  2
BLOCK_28
  0
BLOCK_RECORD
  5
1C9
330
1
100
AcDbSymbolTableRecord
100
AcDbBlockTableRecord
  2
BLOCK_29
  0
BLOCK_RECORD
  5
1D2
330
1
100
AcDbSymbolTableRecord
100
AcDbBlockTableRecord
  2
BLOCK_30
  0
BLOCK_RECORD
  5
1DB
330
1
100
AcDbSymbolTableRecord
100
AcDbBlockTableRecord
  2
BLOCK_31
  0
BLOCK_RECORD
  5
1FB
330
1
100
AcDbSymbolTableRecord
100
AcDbBlockTableRecord
  2
BLOCK_32
  0
BLOCK_RECORD
  5
204
330
1
100
AcDbSymbolTableRecord
100
AcDbBlockTableRecord
  2
BLOCK_33
  0
BLOCK_RECORD
  5
20D
330
1
100
AcDbSymbolTableRecord
100
AcDbBlockTableRecord
  2
BLOCK_34
  0
BLOCK_RECORD
  5
22D
330
1
100
AcDbSymbolTableRecord
100
AcDbBlockTableRecord
  2
BLOCK_35
  0
BLOCK_RECORD
  5
236
330
1
100
AcDbSymbolTableRecord
100
AcDbBlockTableRecord
  2
BLOCK_36
  0
BLOCK_RECORD
  5
23F
330
1
100
AcDbSymbolTableRecord
100
AcDbBlockTableRecord
  2
BLOCK_37
  0
ENDTAB
  0
ENDSEC
  0
SECTION
  2
BLOCKS
  0
BLOCK
  5
20
330
1F
100
AcDbEntity
  8
0
100
AcDbBlockBegin
  2
*MODEL_SPACE
 70
     0
 71
     0
 10
0.0
 20
0.0
 30
0.0
  3
*MODEL_SPACE
  1

  0
ENDBLK
  5
21
330
1F
100
AcDbEntity
  8
0
100
AcDbBlockEnd
  0
BLOCK
  5
1C
330
1B
100
AcDbEntity
 67
     1
  8
0
100
AcDbBlockBegin
  2
*PAPER_SPACE
 70
     0
 71
     0
 10
0.0
 20
0.0
 30
0.0
  3
*PAPER_SPACE
  1

  0
ENDBLK
  5
1D
330
1B
100
AcDbEntity
 67
     1
  8
0
100
AcDbBlockEnd
  0
BLOCK
  5
4E
330
4C
100
AcDbEntity
  8
0
100
AcDbBlockBegin
  2
BLOCK_2
 70
     0
 71
     0
 10
0.0
 20
0.0
 30
0.0
  3
BLOCK_2
  1

  0
POLYLINE
  5
50
330
4C
100
AcDbEntity
  8
CUTLINE
 62
     7
100
AcDb2dPolyline
 66
     1
 10
0.0
 20
0.0
 30
0.0
  0
VERTEX
  5
51
330
50
100
AcDbEntity
  8
CUTLINE
 62
     7
100
AcDbVertex
100
AcDb2dVertex
 10
136.1860025701202
 20
-279.2118977166554
 30
0.0
  0
VERTEX
  5
52
330
50
100
AcDbEntity
  8
CUTLINE
 62
     7
100
AcDbVertex
100
AcDb2dVertex
 10
133.2635280699827
 20
-279.0644476298867
 30
0.0
  0
VERTEX
  5
53
330
50
100
AcDbEntity
  8
CUTLINE
 62
     7
100
AcDbVertex
100
AcDb2dVertex
 10
130.3610351236597
 20
-278.6255424650658
 30
0.0
  0
VERTEX
  5
54
330
50
100
AcDbEntity
  8
CUTLINE
 62
     7
100
AcDbVertex
100
AcDb2dVertex
 10
127.4985052849657
 20
-277.9020724131634
 30
0.0
  0
VERTEX
  5
55
330
50
100
AcDbEntity
  8
CUTLINE
 62
     7
100
AcDbVertex
100
AcDb2dVertex
 10
124.6917859931326
 20
-276.9057507988291
 30
0.0
  0
VERTEX
  5
56
330
50
100
AcDbEntity
  8
CUTLINE
 62
     7
100
AcDbVertex
100
AcDb2dVertex
 10
121.9581027255869
 20
-275.6565591758775
 30
0.0
  0
VERTEX
  5
57
330
50
100
AcDbEntity
  8
CUTLINE
 62
     7
100
AcDbVertex
100
AcDb2dVertex
 10
119.3043456732989
 20
-274.173101059929
 30
0.0
  0
VERTEX
  5
58
330
50
100
AcDbEntity
  8
CUTLINE
 62
     7
100
AcDbVertex
100
AcDb2dVertex
 10
116.7401611036275
 20
-272.4815591766713
 30
0.0
  0
VERTEX
  5
59
330
50
100
AcDbEntity
  8
CUTLINE
 62
     7
100
AcDbVertex
100
AcDb2dVertex
 10
114.2607258828932
 20
-270.6101833090836
 30
0.0
  0
VERTEX
  5
5A
330
50
100
AcDbEntity
  8
CUTLINE
 62
     7
100
AcDbVertex
100
AcDb2dVertex
 10
111.8632839347078
 20
-268.5920463738242
 30
0.0
  0
VERTEX
  5
5B
330
50
100
AcDbEntity
  8
CUTLINE
 62
     7
100
AcDbVertex
100
AcDb2dVertex
 10
109.5343993866789
 20
-266.4609103066487
 30
0.0
  0
VERTEX
  5
5C
330
50
100
AcDbEntity
  8
CUTLINE
 62
     7
100
AcDbVertex
100
AcDb2dVertex
 10
107.2547797040891
 20
-264.2539821387977
 30
0.0
  0
VERTEX
  5
5D
330
50
100
AcDbEntity
  8
CUTLINE
 62
     7
100
AcDbVertex
100
AcDb2dVertex
 10
105.0013427471872
 20
-262.0091579206089
 30
0.0
  0
VERTEX
  5
5E
330
50
100
AcDbEntity
  8
CUTLINE
 62
     7
100
AcDbVertex
100
AcDb2dVertex
 10
102.7479057902852
 20
-259.763644683323
 30
0.0
  0
VERTEX
  5
5F
330
50
100
AcDbEntity
  8
CUTLINE
 62
     7
100
AcDbVertex
100
AcDb2dVertex
 10
100.4682861076954
 20
-257.5567165154719
 30
0.0
  0
VERTEX
  5
60
330
50
100
AcDbEntity
  8
CUTLINE
 62
     7
100
AcDbVertex
100
AcDb2dVertex
 10
98.13940155966654
 20
-255.4262694673934
 30
0.0
  0
VERTEX
  5
61
330
50
100
AcDbEntity
  8
CUTLINE
 62
     7
100
AcDbVertex
100
AcDb2dVertex
 10
95.74247637580397
 20
-253.407443513037
 30
0.0
  0
VERTEX
  5
62
330
50
100
AcDbEntity
  8
CUTLINE
 62
     7
100
AcDbVertex
100
AcDb2dVertex
 10
93.26355791939245
 20
-251.5367566645464
 30
0.0
  0
VERTEX
  5
63
330
50
100
AcDbEntity
  8
CUTLINE
 62
     7
100
AcDbVertex
100
AcDb2dVertex
 10
90.6988565853982
 20
-249.8445257621917
 30
0.0
  0
VERTEX
  5
64
330
50
100
AcDbEntity
  8
CUTLINE
 62
     7
100
AcDbVertex
100
AcDb2dVertex
 10
88.04561629743304
 20
-248.3617566653401
 30
0.0
  0
VERTEX
  5
65
330
50
100
AcDbEntity
  8
CUTLINE
 62
     7
100
AcDbVertex
100
AcDb2dVertex
 10
85.31089950124172
 20
-247.1118760232915
 30
0.0
  0
VERTEX
  5
66
330
50
100
AcDbEntity
  8
CUTLINE
 62
     7
100
AcDbVertex
100
AcDb2dVertex
 10
82.50469697373147
 20
-246.1155544089572
 30
0.0
  0
VERTEX
  5
67
330
50
100
AcDbEntity
  8
CUTLINE
 62
     7
100
AcDbVertex
100
AcDb2dVertex
 10
79.64182262548886
 20
-245.3927733761518
 30
0.0
  0
VERTEX
  5
68
330
50
100
AcDbEntity
  8
CUTLINE
 62
     7
100
AcDbVertex
100
AcDb2dVertex
 10
76.73950193394013
 20
-244.953868211331
 30
0.0
  0
VERTEX
  5
69
330
50
100
AcDbEntity
  8
CUTLINE
 62
     7
100
AcDbVertex
100
AcDb2dVertex
 10
73.81633841470564
 20
-244.8064181245623
 30
0.0
  0
SEQEND
  5
6A
330
50
100
AcDbEntity
  8
CUTLINE
  0
ENDBLK
  5
4F
330
4C
100
AcDbEntity
  8
0
100
AcDbBlockEnd
  0
BLOCK
  5
8E
330
8C
100
AcDbEntity
  8
0
100
AcDbBlockBegin
  2
BLOCK_3
 70
     0
 71
     0
 10
0.0
 20
0.0
 30
0.0
  3
BLOCK_3
  1

  0
POLYLINE
  5
90
330
8C
100
AcDbEntity
  8
VALLEYLINE
 62
     7
100
AcDb2dPolyline
 66
     1
 10
0.0
 20
0.0
 30
0.0
  0
VERTEX
  5
91
330
90
100
AcDbEntity
  8
VALLEYLINE
 62
     7
100
AcDbVertex
100
AcDb2dVertex
 10
72.8548122647724
 20
-242.1619628300845
 30
0.0
  0
VERTEX
  5
250
330
90
100
AcDbEntity
  8
0
100
AcDbVertex
100
AcDb2dVertex
 10
72.8548122647724
 20
-242.1619628300845
 30
0.0
  0
SEQEND
  5
92
330
90
100
AcDbEntity
  8
VALLEYLINE
  0
POLYLINE
  5
93
330
8C
100
AcDbEntity
  8
VALLEYLINE
 62
     7
100
AcDb2dPolyline
 66
     1
 10
0.0
 20
0.0
 30
0.0
  0
VERTEX
  5
94
330
93
100
AcDbEntity
  8
VALLEYLINE
 62
     7
100
AcDbVertex
100
AcDb2dVertex
 10
72.8548122647724
 20
-194.3660861059224
 30
0.0
  0
VERTEX
  5
95
330
93
100
AcDbEntity
  8
VALLEYLINE
 62
     7
100
AcDbVertex
100
AcDb2dVertex
 10
72.8548122647724
 20
-242.1619628300845
 30
0.0
  0
SEQEND
  5
96
330
93
100
AcDbEntity
  8
VALLEYLINE
  0
ENDBLK
  5
8F
330
8C
100
AcDbEntity
  8
0
100
AcDbBlockEnd
  0
BLOCK
  5
99
330
97
100
AcDbEntity
  8
0
100
AcDbBlockBegin
  2
BLOCK_4
 70
     0
 71
     0
 10
0.0
 20
0.0
 30
0.0
  3
BLOCK_4
  1

  0
POLYLINE
  5
9B
330
97
100
AcDbEntity
  8
VALLEYLINE
 62
     7
100
AcDb2dPolyline
 66
     1
 10
0.0
 20
0.0
 30
0.0
  0
VERTEX
  5
9C
330
9B
100
AcDbEntity
  8
VALLEYLINE
 62
     7
100
AcDbVertex
100
AcDb2dVertex
 10
135.2237874010899
 20
-143.1655937684621
 30
0.0
  0
VERTEX
  5
9D
330
9B
100
AcDbEntity
  8
VALLEYLINE
 62
     7
100
AcDbVertex
100
AcDb2dVertex
 10
135.2237874010899
 20
-228.7708766789184
 30
0.0
  0
SEQEND
  5
9E
330
9B
100
AcDbEntity
  8
VALLEYLINE
  0
ENDBLK
  5
9A
330
97
100
AcDbEntity
  8
0
100
AcDbBlockEnd
  0
BLOCK
  5
A1
330
9F
100
AcDbEntity
  8
0
100
AcDbBlockBegin
  2
BLOCK_5
 70
     0
 71
     0
 10
0.0
 20
0.0
 30
0.0
  3
BLOCK_5
  1

  0
POLYLINE
  5
A3
330
9F
100
AcDbEntity
  8
VALLEYLINE
 62
     7
100
AcDb2dPolyline
 66
     1
 10
0.0
 20
0.0
 30
0.0
  0
VERTEX
  5
A4
330
A3
100
AcDbEntity
  8
VALLEYLINE
 62
     7
100
AcDbVertex
100
AcDb2dVertex
 10
72.8548122647724
 20
-91.96510143100178
 30
0.0
  0
VERTEX
  5
A5
330
A3
100
AcDbEntity
  8
VALLEYLINE
 62
     7
100
AcDbVertex
100
AcDb2dVertex
 10
72.8548122647724
 20
-177.5698675771353
 30
0.0
  0
SEQEND
  5
A6
330
A3
100
AcDbEntity
  8
VALLEYLINE
  0
ENDBLK
  5
A2
330
9F
100
AcDbEntity
  8
0
100
AcDbBlockEnd
  0
BLOCK
  5
A9
330
A7
100
AcDbEntity
  8
0
100
AcDbBlockBegin
  2
BLOCK_6
 70
     0
 71
     0
 10
0.0
 20
0.0
 30
0.0
  3
BLOCK_6
  1

  0
POLYLINE
  5
AB
330
A7
100
AcDbEntity
  8
VALLEYLINE
 62
     7
100
AcDb2dPolyline
 66
     1
 10
0.0
 20
0.0
 30
0.0
  0
VERTEX
  5
AC
330
AB
100
AcDbEntity
  8
VALLEYLINE
 62
     7
100
AcDbVertex
100
AcDb2dVertex
 10
135.2230983819929
 20
-40.76392007444444
 30
0.0
  0
VERTEX
  5
AD
330
AB
100
AcDbEntity
  8
VALLEYLINE
 62
     7
100
AcDbVertex
100
AcDb2dVertex
 10
135.2230983819929
 20
-126.3700642587721
 30
0.0
  0
SEQEND
  5
AE
330
AB
100
AcDbEntity
  8
VALLEYLINE
  0
ENDBLK
  5
AA
330
A7
100
AcDbEntity
  8
0
100
AcDbBlockEnd
  0
BLOCK
  5
CA
330
C8
100
AcDbEntity
  8
0
100
AcDbBlockBegin
  2
BLOCK_7
 70
     0
 71
     0
 10
0.0
 20
0.0
 30
0.0
  3
BLOCK_7
  1

  0
POLYLINE
  5
CC
330
C8
100
AcDbEntity
  8
MOUNTAINLINE
  6
AI-LINETYPE-1
 62
     7
100
AcDb2dPolyline
 66
     1
 10
0.0
 20
0.0
 30
0.0
  0
VERTEX
  5
CD
330
CC
100
AcDbEntity
  8
MOUNTAINLINE
  6
AI-LINETYPE-1
 62
     7
100
AcDbVertex
100
AcDb2dVertex
 10
152.4265271971364
 20
-160.3671277810888
 30
0.0
  0
VERTEX
  5
CE
330
CC
100
AcDbEntity
  8
MOUNTAINLINE
  6
AI-LINETYPE-1
 62
     7
100
AcDbVertex
100
AcDb2dVertex
 10
187.2399060946831
 20
-160.3671277810888
 30
0.0
  0
SEQEND
  5
CF
330
CC
100
AcDbEntity
  8
MOUNTAINLINE
  6
AI-LINETYPE-1
  0
ENDBLK
  5
CB
330
C8
100
AcDbEntity
  8
0
100
AcDbBlockEnd
  0
BLOCK
  5
D3
330
D1
100
AcDbEntity
  8
0
100
AcDbBlockBegin
  2
BLOCK_8
 70
     0
 71
     0
 10
0.0
 20
0.0
 30
0.0
  3
BLOCK_8
  1

  0
POLYLINE
  5
D5
330
D1
100
AcDbEntity
  8
MOUNTAINLINE
  6
AI-LINETYPE-2
 62
     7
100
AcDb2dPolyline
 66
     1
 10
0.0
 20
0.0
 30
0.0
  0
VERTEX
  5
D6
330
D5
100
AcDbEntity
  8
MOUNTAINLINE
  6
AI-LINETYPE-2
 62
     7
100
AcDbVertex
100
AcDb2dVertex
 10
152.4265271971364
 20
-211.5681368828719
 30
0.0
  0
VERTEX
  5
D7
330
D5
100
AcDbEntity
  8
MOUNTAINLINE
  6
AI-LINETYPE-2
 62
     7
100
AcDbVertex
100
AcDb2dVertex
 10
187.2399060946831
 20
-211.5681368828719
 30
0.0
  0
SEQEND
  5
D8
330
D5
100
AcDbEntity
  8
MOUNTAINLINE
  6
AI-LINETYPE-2
  0
ENDBLK
  5
D4
330
D1
100
AcDbEntity
  8
0
100
AcDbBlockEnd
  0
BLOCK
  5
DC
330
DA
100
AcDbEntity
  8
0
100
AcDbBlockBegin
  2
BLOCK_9
 70
     0
 71
     0
 10
0.0
 20
0.0
 30
0.0
  3
BLOCK_9
  1

  0
POLYLINE
  5
DE
330
DA
100
AcDbEntity
  8
MOUNTAINLINE
  6
AI-LINETYPE-3
 62
     7
100
AcDb2dPolyline
 66
     1
 10
0.0
 20
0.0
 30
0.0
  0
VERTEX
  5
DF
330
DE
100
AcDbEntity
  8
MOUNTAINLINE
  6
AI-LINETYPE-3
 62
     7
100
AcDbVertex
100
AcDb2dVertex
 10
152.4261826875879
 20
-109.1671522079513
 30
0.0
  0
VERTEX
  5
E0
330
DE
100
AcDbEntity
  8
MOUNTAINLINE
  6
AI-LINETYPE-3
 62
     7
100
AcDbVertex
100
AcDb2dVertex
 10
187.2399060946831
 20
-109.1671522079513
 30
0.0
  0
SEQEND
  5
E1
330
DE
100
AcDbEntity
  8
MOUNTAINLINE
  6
AI-LINETYPE-3
  0
ENDBLK
  5
DD
330
DA
100
AcDbEntity
  8
0
100
AcDbBlockEnd
  0
BLOCK
  5
E5
330
E3
100
AcDbEntity
  8
0
100
AcDbBlockBegin
  2
BLOCK_10
 70
     0
 71
     0
 10
0.0
 20
0.0
 30
0.0
  3
BLOCK_10
  1

  0
POLYLINE
  5
E7
330
E3
100
AcDbEntity
  8
MOUNTAINLINE
  6
AI-LINETYPE-4
 62
     7
100
AcDb2dPolyline
 66
     1
 10
0.0
 20
0.0
 30
0.0
  0
VERTEX
  5
E8
330
E7
100
AcDbEntity
  8
MOUNTAINLINE
  6
AI-LINETYPE-4
 62
     7
100
AcDbVertex
100
AcDb2dVertex
 10
152.4261826875879
 20
-57.96631536094245
 30
0.0
  0
VERTEX
  5
E9
330
E7
100
AcDbEntity
  8
MOUNTAINLINE
  6
AI-LINETYPE-4
 62
     7
100
AcDbVertex
100
AcDb2dVertex
 10
187.2399060946831
 20
-57.96631536094245
 30
0.0
  0
SEQEND
  5
EA
330
E7
100
AcDbEntity
  8
MOUNTAINLINE
  6
AI-LINETYPE-4
  0
ENDBLK
  5
E6
330
E3
100
AcDbEntity
  8
0
100
AcDbBlockEnd
  0
BLOCK
  5
EE
330
EC
100
AcDbEntity
  8
0
100
AcDbBlockBegin
  2
BLOCK_11
 70
     0
 71
     0
 10
0.0
 20
0.0
 30
0.0
  3
BLOCK_11
  1

  0
POLYLINE
  5
F0
330
EC
100
AcDbEntity
  8
MOUNTAINLINE
  6
AI-LINETYPE-5
 62
     7
100
AcDb2dPolyline
 66
     1
 10
0.0
 20
0.0
 30
0.0
  0
VERTEX
  5
F1
330
F0
100
AcDbEntity
  8
MOUNTAINLINE
  6
AI-LINETYPE-5
 62
     7
100
AcDbVertex
100
AcDb2dVertex
 10
22.76260714491699
 20
-211.0954697822956
 30
0.0
  0
VERTEX
  5
F2
330
F0
100
AcDbEntity
  8
MOUNTAINLINE
  6
AI-LINETYPE-5
 62
     7
100
AcDbVertex
100
AcDb2dVertex
 10
56.12439505975362
 20
-211.0954697822956
 30
0.0
  0
SEQEND
  5
F3
330
F0
100
AcDbEntity
  8
MOUNTAINLINE
  6
AI-LINETYPE-5
  0
ENDBLK
  5
EF
330
EC
100
AcDbEntity
  8
0
100
AcDbBlockEnd
  0
BLOCK
  5
F7
330
F5
100
AcDbEntity
  8
0
100
AcDbBlockBegin
  2
BLOCK_12
 70
     0
 71
     0
 10
0.0
 20
0.0
 30
0.0
  3
BLOCK_12
  1

  0
POLYLINE
  5
F9
330
F5
100
AcDbEntity
  8
MOUNTAINLINE
  6
AI-LINETYPE-6
 62
     7
100
AcDb2dPolyline
 66
     1
 10
0.0
 20
0.0
 30
0.0
  0
VERTEX
  5
FA
330
F9
100
AcDbEntity
  8
MOUNTAINLINE
  6
AI-LINETYPE-6
 62
     7
100
AcDbVertex
100
AcDb2dVertex
 10
22.76260714491699
 20
-108.6941405978265
 30
0.0
  0
VERTEX
  5
FB
330
F9
100
AcDbEntity
  8
MOUNTAINLINE
  6
AI-LINETYPE-6
 62
     7
100
AcDbVertex
100
AcDb2dVertex
 10
56.12370604065658
 20
-108.6941405978265
 30
0.0
  0
SEQEND
  5
FC
330
F9
100
AcDbEntity
  8
MOUNTAINLINE
  6
AI-LINETYPE-6
  0
ENDBLK
  5
F8
330
F5
100
AcDbEntity
  8
0
100
AcDbBlockEnd
  0
BLOCK
  5
100
330
FE
100
AcDbEntity
  8
0
100
AcDbBlockBegin
  2
BLOCK_13
 70
     0
 71
     0
 10
0.0
 20
0.0
 30
0.0
  3
BLOCK_13
  1

  0
POLYLINE
  5
102
330
FE
100
AcDbEntity
  8
MOUNTAINLINE
  6
AI-LINETYPE-7
 62
     7
100
AcDb2dPolyline
 66
     1
 10
0.0
 20
0.0
 30
0.0
  0
VERTEX
  5
103
330
102
100
AcDbEntity
  8
MOUNTAINLINE
  6
AI-LINETYPE-7
 62
     7
100
AcDbVertex
100
AcDb2dVertex
 10
22.76260714491699
 20
-160.8397948816651
 30
0.0
  0
VERTEX
  5
104
330
102
100
AcDbEntity
  8
MOUNTAINLINE
  6
AI-LINETYPE-7
 62
     7
100
AcDbVertex
100
AcDb2dVertex
 10
56.12439505975362
 20
-160.8397948816651
 30
0.0
  0
SEQEND
  5
105
330
102
100
AcDbEntity
  8
MOUNTAINLINE
  6
AI-LINETYPE-7
  0
ENDBLK
  5
101
330
FE
100
AcDbEntity
  8
0
100
AcDbBlockEnd
  0
BLOCK
  5
109
330
107
100
AcDbEntity
  8
0
100
AcDbBlockBegin
  2
BLOCK_14
 70
     0
 71
     0
 10
0.0
 20
0.0
 30
0.0
  3
BLOCK_14
  1

  0
POLYLINE
  5
10B
330
107
100
AcDbEntity
  8
MOUNTAINLINE
  6
AI-LINETYPE-8
 62
     7
100
AcDb2dPolyline
 66
     1
 10
0.0
 20
0.0
 30
0.0
  0
VERTEX
  5
10C
330
10B
100
AcDbEntity
  8
MOUNTAINLINE
  6
AI-LINETYPE-8
 62
     7
100
AcDbVertex
100
AcDb2dVertex
 10
22.76260714491699
 20
-58.43932697106725
 30
0.0
  0
VERTEX
  5
10D
330
10B
100
AcDbEntity
  8
MOUNTAINLINE
  6
AI-LINETYPE-8
 62
     7
100
AcDbVertex
100
AcDb2dVertex
 10
56.12370604065658
 20
-58.43932697106725
 30
0.0
  0
SEQEND
  5
10E
330
10B
100
AcDbEntity
  8
MOUNTAINLINE
  6
AI-LINETYPE-8
  0
ENDBLK
  5
10A
330
107
100
AcDbEntity
  8
0
100
AcDbBlockEnd
  0
BLOCK
  5
112
330
110
100
AcDbEntity
  8
0
100
AcDbBlockBegin
  2
BLOCK_15
 70
     0
 71
     0
 10
0.0
 20
0.0
 30
0.0
  3
BLOCK_15
  1

  0
POLYLINE
  5
114
330
110
100
AcDbEntity
  8
MOUNTAINLINE
  6
AI-LINETYPE-9
 62
     7
100
AcDb2dPolyline
 66
     1
 10
0.0
 20
0.0
 30
0.0
  0
VERTEX
  5
115
330
114
100
AcDbEntity
  8
MOUNTAINLINE
  6
AI-LINETYPE-9
 62
     7
100
AcDbVertex
100
AcDb2dVertex
 10
31.31161159156446
 20
-242.1619628300845
 30
0.0
  0
VERTEX
  5
116
330
114
100
AcDbEntity
  8
MOUNTAINLINE
  6
AI-LINETYPE-9
 62
     7
100
AcDbVertex
100
AcDb2dVertex
 10
31.31161159156446
 20
-32.85225829256819
 30
0.0
  0
SEQEND
  5
117
330
114
100
AcDbEntity
  8
MOUNTAINLINE
  6
AI-LINETYPE-9
  0
ENDBLK
  5
113
330
110
100
AcDbEntity
  8
0
100
AcDbBlockEnd
  0
BLOCK
  5
11B
330
119
100
AcDbEntity
  8
0
100
AcDbBlockBegin
  2
BLOCK_16
 70
     0
 71
     0
 10
0.0
 20
0.0
 30
0.0
  3
BLOCK_16
  1

  0
POLYLINE
  5
11D
330
119
100
AcDbEntity
  8
MOUNTAINLINE
  6
AI-LINETYPE-10
 62
     7
100
AcDb2dPolyline
 66
     1
 10
0.0
 20
0.0
 30
0.0
  0
VERTEX
  5
11E
330
11D
100
AcDbEntity
  8
MOUNTAINLINE
  6
AI-LINETYPE-10
 62
     7
100
AcDbVertex
100
AcDb2dVertex
 10
178.1841281021554
 20
-242.1626518491816
 30
0.0
  0
VERTEX
  5
251
330
11D
100
AcDbEntity
  8
0
100
AcDbVertex
100
AcDb2dVertex
 10
178.1841281021554
 20
-242.1626518491816
 30
0.0
  0
SEQEND
  5
11F
330
11D
100
AcDbEntity
  8
MOUNTAINLINE
  6
AI-LINETYPE-10
  0
POLYLINE
  5
121
330
119
100
AcDbEntity
  8
MOUNTAINLINE
  6
AI-LINETYPE-11
 62
     7
100
AcDb2dPolyline
 66
     1
 10
0.0
 20
0.0
 30
0.0
  0
VERTEX
  5
122
330
121
100
AcDbEntity
  8
MOUNTAINLINE
  6
AI-LINETYPE-11
 62
     7
100
AcDbVertex
100
AcDb2dVertex
 10
178.1841281021554
 20
-32.36581081005091
 30
0.0
  0
VERTEX
  5
123
330
121
100
AcDbEntity
  8
MOUNTAINLINE
  6
AI-LINETYPE-11
 62
     7
100
AcDbVertex
100
AcDb2dVertex
 10
178.1841281021554
 20
-242.1626518491816
 30
0.0
  0
SEQEND
  5
124
330
121
100
AcDbEntity
  8
MOUNTAINLINE
  6
AI-LINETYPE-11
  0
ENDBLK
  5
11C
330
119
100
AcDbEntity
  8
0
100
AcDbBlockEnd
  0
BLOCK
  5
128
330
126
100
AcDbEntity
  8
0
100
AcDbBlockBegin
  2
BLOCK_17
 70
     0
 71
     0
 10
0.0
 20
0.0
 30
0.0
  3
BLOCK_17
  1

  0
POLYLINE
  5
12A
330
126
100
AcDbEntity
  8
MOUNTAINLINE
  6
AI-LINETYPE-12
 62
     7
100
AcDb2dPolyline
 66
     1
 10
0.0
 20
0.0
 30
0.0
  0
VERTEX
  5
12B
330
12A
100
AcDbEntity
  8
MOUNTAINLINE
  6
AI-LINETYPE-12
 62
     7
100
AcDbVertex
100
AcDb2dVertex
 10
152.4265271971364
 20
-57.96631536094245
 30
0.0
  0
VERTEX
  5
12C
330
12A
100
AcDbEntity
  8
MOUNTAINLINE
  6
AI-LINETYPE-12
 62
     7
100
AcDbVertex
100
AcDb2dVertex
 10
152.4265271971364
 20
-109.1671522079513
 30
0.0
  0
SEQEND
  5
12D
330
12A
100
AcDbEntity
  8
MOUNTAINLINE
  6
AI-LINETYPE-12
  0
ENDBLK
  5
129
330
126
100
AcDbEntity
  8
0
100
AcDbBlockEnd
  0
BLOCK
  5
131
330
12F
100
AcDbEntity
  8
0
100
AcDbBlockBegin
  2
BLOCK_18
 70
     0
 71
     0
 10
0.0
 20
0.0
 30
0.0
  3
BLOCK_18
  1

  0
POLYLINE
  5
133
330
12F
100
AcDbEntity
  8
MOUNTAINLINE
  6
AI-LINETYPE-13
 62
     7
100
AcDb2dPolyline
 66
     1
 10
0.0
 20
0.0
 30
0.0
  0
VERTEX
  5
134
330
133
100
AcDbEntity
  8
MOUNTAINLINE
  6
AI-LINETYPE-13
 62
     7
100
AcDbVertex
100
AcDb2dVertex
 10
56.12439505975362
 20
-108.6941405978265
 30
0.0
  0
VERTEX
  5
135
330
133
100
AcDbEntity
  8
MOUNTAINLINE
  6
AI-LINETYPE-13
 62
     7
100
AcDbVertex
100
AcDb2dVertex
 10
56.12439505975362
 20
-160.8397948816651
 30
0.0
  0
SEQEND
  5
136
330
133
100
AcDbEntity
  8
MOUNTAINLINE
  6
AI-LINETYPE-13
  0
ENDBLK
  5
132
330
12F
100
AcDbEntity
  8
0
100
AcDbBlockEnd
  0
BLOCK
  5
13A
330
138
100
AcDbEntity
  8
0
100
AcDbBlockBegin
  2
BLOCK_19
 70
     0
 71
     0
 10
0.0
 20
0.0
 30
0.0
  3
BLOCK_19
  1

  0
POLYLINE
  5
13C
330
138
100
AcDbEntity
  8
MOUNTAINLINE
  6
AI-LINETYPE-14
 62
     7
100
AcDb2dPolyline
 66
     1
 10
0.0
 20
0.0
 30
0.0
  0
VERTEX
  5
13D
330
13C
100
AcDbEntity
  8
MOUNTAINLINE
  6
AI-LINETYPE-14
 62
     7
100
AcDbVertex
100
AcDb2dVertex
 10
152.4265271971364
 20
-160.3671277810888
 30
0.0
  0
VERTEX
  5
13E
330
13C
100
AcDbEntity
  8
MOUNTAINLINE
  6
AI-LINETYPE-14
 62
     7
100
AcDbVertex
100
AcDb2dVertex
 10
152.4265271971364
 20
-211.5681368828719
 30
0.0
  0
SEQEND
  5
13F
330
13C
100
AcDbEntity
  8
MOUNTAINLINE
  6
AI-LINETYPE-14
  0
ENDBLK
  5
13B
330
138
100
AcDbEntity
  8
0
100
AcDbBlockEnd
  0
BLOCK
  5
143
330
141
100
AcDbEntity
  8
0
100
AcDbBlockBegin
  2
BLOCK_20
 70
     0
 71
     0
 10
0.0
 20
0.0
 30
0.0
  3
BLOCK_20
  1

  0
POLYLINE
  5
145
330
141
100
AcDbEntity
  8
MOUNTAINLINE
  6
AI-LINETYPE-15
 62
     7
100
AcDb2dPolyline
 66
     1
 10
0.0
 20
0.0
 30
0.0
  0
VERTEX
  5
146
330
145
100
AcDbEntity
  8
MOUNTAINLINE
  6
AI-LINETYPE-15
 62
     7
100
AcDbVertex
100
AcDb2dVertex
 10
56.12370604065658
 20
-32.36667208392223
 30
0.0
  0
VERTEX
  5
147
330
145
100
AcDbEntity
  8
MOUNTAINLINE
  6
AI-LINETYPE-15
 62
     7
100
AcDbVertex
100
AcDb2dVertex
 10
56.12370604065658
 20
-58.43932697106725
 30
0.0
  0
SEQEND
  5
148
330
145
100
AcDbEntity
  8
MOUNTAINLINE
  6
AI-LINETYPE-15
  0
ENDBLK
  5
144
330
141
100
AcDbEntity
  8
0
100
AcDbBlockEnd
  0
BLOCK
  5
14C
330
14A
100
AcDbEntity
  8
0
100
AcDbBlockBegin
  2
BLOCK_21
 70
     0
 71
     0
 10
0.0
 20
0.0
 30
0.0
  3
BLOCK_21
  1

  0
POLYLINE
  5
14E
330
14A
100
AcDbEntity
  8
MOUNTAINLINE
  6
AI-LINETYPE-16
 62
     7
100
AcDb2dPolyline
 66
     1
 10
0.0
 20
0.0
 30
0.0
  0
VERTEX
  5
14F
330
14E
100
AcDbEntity
  8
MOUNTAINLINE
  6
AI-LINETYPE-16
 62
     7
100
AcDbVertex
100
AcDb2dVertex
 10
56.12439505975362
 20
-211.0954697822956
 30
0.0
  0
VERTEX
  5
150
330
14E
100
AcDbEntity
  8
MOUNTAINLINE
  6
AI-LINETYPE-16
 62
     7
100
AcDbVertex
100
AcDb2dVertex
 10
56.12439505975362
 20
-242.1619628300845
 30
0.0
  0
SEQEND
  5
151
330
14E
100
AcDbEntity
  8
MOUNTAINLINE
  6
AI-LINETYPE-16
  0
ENDBLK
  5
14D
330
14A
100
AcDbEntity
  8
0
100
AcDbBlockEnd
  0
BLOCK
  5
155
330
153
100
AcDbEntity
  8
0
100
AcDbBlockBegin
  2
BLOCK_22
 70
     0
 71
     0
 10
0.0
 20
0.0
 30
0.0
  3
BLOCK_22
  1

  0
POLYLINE
  5
157
330
153
100
AcDbEntity
  8
MOUNTAINLINE
  6
AI-LINETYPE-17
 62
     7
100
AcDb2dPolyline
 66
     1
 10
0.0
 20
0.0
 30
0.0
  0
VERTEX
  5
158
330
157
100
AcDbEntity
  8
MOUNTAINLINE
  6
AI-LINETYPE-17
 62
     7
100
AcDbVertex
100
AcDb2dVertex
 10
72.8548122647724
 20
-177.5698675771353
 30
0.0
  0
VERTEX
  5
159
330
157
100
AcDbEntity
  8
MOUNTAINLINE
  6
AI-LINETYPE-17
 62
     7
100
AcDbVertex
100
AcDb2dVertex
 10
72.8548122647724
 20
-194.3660861059224
 30
0.0
  0
SEQEND
  5
15A
330
157
100
AcDbEntity
  8
MOUNTAINLINE
  6
AI-LINETYPE-17
  0
ENDBLK
  5
156
330
153
100
AcDbEntity
  8
0
100
AcDbBlockEnd
  0
BLOCK
  5
15E
330
15C
100
AcDbEntity
  8
0
100
AcDbBlockBegin
  2
BLOCK_23
 70
     0
 71
     0
 10
0.0
 20
0.0
 30
0.0
  3
BLOCK_23
  1

  0
POLYLINE
  5
160
330
15C
100
AcDbEntity
  8
MOUNTAINLINE
  6
AI-LINETYPE-18
 62
     7
100
AcDb2dPolyline
 66
     1
 10
0.0
 20
0.0
 30
0.0
  0
VERTEX
  5
161
330
160
100
AcDbEntity
  8
MOUNTAINLINE
  6
AI-LINETYPE-18
 62
     7
100
AcDbVertex
100
AcDb2dVertex
 10
135.2237874010899
 20
-242.1626518491816
 30
0.0
  0
VERTEX
  5
252
330
160
100
AcDbEntity
  8
0
100
AcDbVertex
100
AcDb2dVertex
 10
135.2237874010899
 20
-242.1626518491816
 30
0.0
  0
SEQEND
  5
162
330
160
100
AcDbEntity
  8
MOUNTAINLINE
  6
AI-LINETYPE-18
  0
POLYLINE
  5
164
330
15C
100
AcDbEntity
  8
MOUNTAINLINE
  6
AI-LINETYPE-19
 62
     7
100
AcDb2dPolyline
 66
     1
 10
0.0
 20
0.0
 30
0.0
  0
VERTEX
  5
165
330
164
100
AcDbEntity
  8
MOUNTAINLINE
  6
AI-LINETYPE-19
 62
     7
100
AcDbVertex
100
AcDb2dVertex
 10
135.2237874010899
 20
-228.7708766789184
 30
0.0
  0
VERTEX
  5
166
330
164
100
AcDbEntity
  8
MOUNTAINLINE
  6
AI-LINETYPE-19
 62
     7
100
AcDbVertex
100
AcDb2dVertex
 10
135.2237874010899
 20
-242.1626518491816
 30
0.0
  0
SEQEND
  5
167
330
164
100
AcDbEntity
  8
MOUNTAINLINE
  6
AI-LINETYPE-19
  0
ENDBLK
  5
15F
330
15C
100
AcDbEntity
  8
0
100
AcDbBlockEnd
  0
BLOCK
  5
16B
330
169
100
AcDbEntity
  8
0
100
AcDbBlockBegin
  2
BLOCK_24
 70
     0
 71
     0
 10
0.0
 20
0.0
 30
0.0
  3
BLOCK_24
  1

  0
POLYLINE
  5
16D
330
169
100
AcDbEntity
  8
MOUNTAINLINE
  6
AI-LINETYPE-20
 62
     7
100
AcDb2dPolyline
 66
     1
 10
0.0
 20
0.0
 30
0.0
  0
VERTEX
  5
16E
330
16D
100
AcDbEntity
  8
MOUNTAINLINE
  6
AI-LINETYPE-20
 62
     7
100
AcDbVertex
100
AcDb2dVertex
 10
72.8539509909011
 20
-75.16905515698899
 30
0.0
  0
VERTEX
  5
16F
330
16D
100
AcDbEntity
  8
MOUNTAINLINE
  6
AI-LINETYPE-20
 62
     7
100
AcDbVertex
100
AcDb2dVertex
 10
72.8548122647724
 20
-91.96510143100178
 30
0.0
  0
SEQEND
  5
170
330
16D
100
AcDbEntity
  8
MOUNTAINLINE
  6
AI-LINETYPE-20
  0
ENDBLK
  5
16C
330
169
100
AcDbEntity
  8
0
100
AcDbBlockEnd
  0
BLOCK
  5
174
330
172
100
AcDbEntity
  8
0
100
AcDbBlockBegin
  2
BLOCK_25
 70
     0
 71
     0
 10
0.0
 20
0.0
 30
0.0
  3
BLOCK_25
  1

  0
POLYLINE
  5
176
330
172
100
AcDbEntity
  8
MOUNTAINLINE
  6
AI-LINETYPE-21
 62
     7
100
AcDb2dPolyline
 66
     1
 10
0.0
 20
0.0
 30
0.0
  0
VERTEX
  5
177
330
176
100
AcDbEntity
  8
MOUNTAINLINE
  6
AI-LINETYPE-21
 62
     7
100
AcDbVertex
100
AcDb2dVertex
 10
135.2230983819929
 20
-126.3700642587721
 30
0.0
  0
VERTEX
  5
178
330
176
100
AcDbEntity
  8
MOUNTAINLINE
  6
AI-LINETYPE-21
 62
     7
100
AcDbVertex
100
AcDb2dVertex
 10
135.2230983819929
 20
-143.1655937684621
 30
0.0
  0
SEQEND
  5
179
330
176
100
AcDbEntity
  8
MOUNTAINLINE
  6
AI-LINETYPE-21
  0
ENDBLK
  5
175
330
172
100
AcDbEntity
  8
0
100
AcDbBlockEnd
  0
BLOCK
  5
182
330
180
100
AcDbEntity
  8
0
100
AcDbBlockBegin
  2
BLOCK_26
 70
     0
 71
     0
 10
0.0
 20
0.0
 30
0.0
  3
BLOCK_26
  1

  0
POLYLINE
  5
184
330
180
100
AcDbEntity
  8
MOUNTAINLINE
  6
AI-LINETYPE-23
 62
     7
100
AcDb2dPolyline
 66
     1
 10
0.0
 20
0.0
 30
0.0
  0
VERTEX
  5
185
330
184
100
AcDbEntity
  8
MOUNTAINLINE
  6
AI-LINETYPE-23
 62
     7
100
AcDbVertex
100
AcDb2dVertex
 10
135.2237874010899
 20
-228.7708766789184
 30
0.0
  0
VERTEX
  5
186
330
184
100
AcDbEntity
  8
MOUNTAINLINE
  6
AI-LINETYPE-23
 62
     7
100
AcDbVertex
100
AcDb2dVertex
 10
132.301657410501
 20
-228.6234265921497
 30
0.0
  0
VERTEX
  5
187
330
184
100
AcDbEntity
  8
MOUNTAINLINE
  6
AI-LINETYPE-23
 62
     7
100
AcDbVertex
100
AcDb2dVertex
 10
129.3988199546295
 20
-228.1845214273289
 30
0.0
  0
VERTEX
  5
188
330
184
100
AcDbEntity
  8
MOUNTAINLINE
  6
AI-LINETYPE-23
 62
     7
100
AcDbVertex
100
AcDb2dVertex
 10
126.5362901159354
 20
-227.4617403945235
 30
0.0
  0
VERTEX
  5
189
330
184
100
AcDbEntity
  8
MOUNTAINLINE
  6
AI-LINETYPE-23
 62
     7
100
AcDbVertex
100
AcDb2dVertex
 10
123.7306043527479
 20
-226.4661077992862
 30
0.0
  0
VERTEX
  5
18A
330
184
100
AcDbEntity
  8
MOUNTAINLINE
  6
AI-LINETYPE-23
 62
     7
100
AcDbVertex
100
AcDb2dVertex
 10
120.9951985374595
 20
-225.2155381381406
 30
0.0
  0
VERTEX
  5
18B
330
184
100
AcDbEntity
  8
MOUNTAINLINE
  6
AI-LINETYPE-23
 62
     7
100
AcDbVertex
100
AcDb2dVertex
 10
118.3428195233657
 20
-223.732080022192
 30
0.0
  0
VERTEX
  5
18C
330
184
100
AcDbEntity
  8
MOUNTAINLINE
  6
AI-LINETYPE-23
 62
     7
100
AcDbVertex
100
AcDb2dVertex
 10
115.7772569155001
 20
-222.0405381389343
 30
0.0
  0
VERTEX
  5
18D
330
184
100
AcDbEntity
  8
MOUNTAINLINE
  6
AI-LINETYPE-23
 62
     7
100
AcDbVertex
100
AcDb2dVertex
 10
113.2985107138629
 20
-220.1691622713466
 30
0.0
  0
VERTEX
  5
18E
330
184
100
AcDbEntity
  8
MOUNTAINLINE
  6
AI-LINETYPE-23
 62
     7
100
AcDbVertex
100
AcDb2dVertex
 10
110.901413275226
 20
-218.1517143551843
 30
0.0
  0
VERTEX
  5
18F
330
184
100
AcDbEntity
  8
MOUNTAINLINE
  6
AI-LINETYPE-23
 62
     7
100
AcDbVertex
100
AcDb2dVertex
 10
108.5725287271972
 20
-216.0205782880087
 30
0.0
  0
VERTEX
  5
190
330
184
100
AcDbEntity
  8
MOUNTAINLINE
  6
AI-LINETYPE-23
 62
     7
100
AcDbVertex
100
AcDb2dVertex
 10
106.2929090446073
 20
-213.8136501201577
 30
0.0
  0
VERTEX
  5
191
330
184
100
AcDbEntity
  8
MOUNTAINLINE
  6
AI-LINETYPE-23
 62
     7
100
AcDbVertex
100
AcDb2dVertex
 10
104.0391275781569
 20
-211.5681368828719
 30
0.0
  0
VERTEX
  5
192
330
184
100
AcDbEntity
  8
MOUNTAINLINE
  6
AI-LINETYPE-23
 62
     7
100
AcDbVertex
100
AcDb2dVertex
 10
101.785690621255
 20
-209.321934626489
 30
0.0
  0
VERTEX
  5
193
330
184
100
AcDbEntity
  8
MOUNTAINLINE
  6
AI-LINETYPE-23
 62
     7
100
AcDbVertex
100
AcDb2dVertex
 10
99.50624319343942
 20
-207.116384496832
 30
0.0
  0
VERTEX
  5
194
330
184
100
AcDbEntity
  8
MOUNTAINLINE
  6
AI-LINETYPE-23
 62
     7
100
AcDbVertex
100
AcDb2dVertex
 10
97.17735864541052
 20
-204.9845594105594
 30
0.0
  0
VERTEX
  5
195
330
184
100
AcDbEntity
  8
MOUNTAINLINE
  6
AI-LINETYPE-23
 62
     7
100
AcDbVertex
100
AcDb2dVertex
 10
94.77991669722516
 20
-202.9671114943971
 30
0.0
  0
VERTEX
  5
196
330
184
100
AcDbEntity
  8
MOUNTAINLINE
  6
AI-LINETYPE-23
 62
     7
100
AcDbVertex
100
AcDb2dVertex
 10
92.30237627900775
 20
-201.0957356268094
 30
0.0
  0
VERTEX
  5
197
330
184
100
AcDbEntity
  8
MOUNTAINLINE
  6
AI-LINETYPE-23
 62
     7
100
AcDbVertex
100
AcDb2dVertex
 10
89.7362969068194
 20
-199.4041937435517
 30
0.0
  0
VERTEX
  5
198
330
184
100
AcDbEntity
  8
MOUNTAINLINE
  6
AI-LINETYPE-23
 62
     7
100
AcDbVertex
100
AcDb2dVertex
 10
87.08305661885424
 20
-197.9207356276032
 30
0.0
  0
VERTEX
  5
199
330
184
100
AcDbEntity
  8
MOUNTAINLINE
  6
AI-LINETYPE-23
 62
     7
100
AcDbVertex
100
AcDb2dVertex
 10
84.34851207743718
 20
-196.6701659664575
 30
0.0
  0
VERTEX
  5
19A
330
184
100
AcDbEntity
  8
MOUNTAINLINE
  6
AI-LINETYPE-23
 62
     7
100
AcDbVertex
100
AcDb2dVertex
 10
81.54299856902398
 20
-195.6752223903173
 30
0.0
  0
VERTEX
  5
19B
330
184
100
AcDbEntity
  8
MOUNTAINLINE
  6
AI-LINETYPE-23
 62
     7
100
AcDbVertex
100
AcDb2dVertex
 10
78.67960745645857
 20
-194.9517523384148
 30
0.0
  0
VERTEX
  5
19C
330
184
100
AcDbEntity
  8
MOUNTAINLINE
  6
AI-LINETYPE-23
 62
     7
100
AcDbVertex
100
AcDb2dVertex
 10
75.77728676490985
 20
-194.512847173594
 30
0.0
  0
VERTEX
  5
19D
330
184
100
AcDbEntity
  8
MOUNTAINLINE
  6
AI-LINETYPE-23
 62
     7
100
AcDbVertex
100
AcDb2dVertex
 10
72.8548122647724
 20
-194.3660861059224
 30
0.0
  0
SEQEND
  5
19E
330
184
100
AcDbEntity
  8
MOUNTAINLINE
  6
AI-LINETYPE-23
  0
ENDBLK
  5
183
330
180
100
AcDbEntity
  8
0
100
AcDbBlockEnd
  0
BLOCK
  5
1A2
330
1A0
100
AcDbEntity
  8
0
100
AcDbBlockBegin
  2
BLOCK_27
 70
     0
 71
     0
 10
0.0
 20
0.0
 30
0.0
  3
BLOCK_27
  1

  0
POLYLINE
  5
1A4
330
1A0
100
AcDbEntity
  8
MOUNTAINLINE
  6
AI-LINETYPE-24
 62
     7
100
AcDb2dPolyline
 66
     1
 10
0.0
 20
0.0
 30
0.0
  0
VERTEX
  5
1A5
330
1A4
100
AcDbEntity
  8
MOUNTAINLINE
  6
AI-LINETYPE-24
 62
     7
100
AcDbVertex
100
AcDb2dVertex
 10
135.2237874010899
 20
-228.7708766789184
 30
0.0
  0
VERTEX
  5
1A6
330
1A4
100
AcDbEntity
  8
MOUNTAINLINE
  6
AI-LINETYPE-24
 62
     7
100
AcDbVertex
100
AcDb2dVertex
 10
152.4265271971364
 20
-211.5681368828719
 30
0.0
  0
SEQEND
  5
1A7
330
1A4
100
AcDbEntity
  8
MOUNTAINLINE
  6
AI-LINETYPE-24
  0
ENDBLK
  5
1A3
330
1A0
100
AcDbEntity
  8
0
100
AcDbBlockEnd
  0
BLOCK
  5
1AB
330
1A9
100
AcDbEntity
  8
0
100
AcDbBlockBegin
  2
BLOCK_28
 70
     0
 71
     0
 10
0.0
 20
0.0
 30
0.0
  3
BLOCK_28
  1

  0
POLYLINE
  5
1AD
330
1A9
100
AcDbEntity
  8
MOUNTAINLINE
  6
AI-LINETYPE-25
 62
     7
100
AcDb2dPolyline
 66
     1
 10
0.0
 20
0.0
 30
0.0
  0
VERTEX
  5
1AE
330
1AD
100
AcDbEntity
  8
MOUNTAINLINE
  6
AI-LINETYPE-25
 62
     7
100
AcDbVertex
100
AcDb2dVertex
 10
135.2230983819929
 20
-126.3700642587721
 30
0.0
  0
VERTEX
  5
1AF
330
1AD
100
AcDbEntity
  8
MOUNTAINLINE
  6
AI-LINETYPE-25
 62
     7
100
AcDbVertex
100
AcDb2dVertex
 10
132.3013129009525
 20
-126.2222696624548
 30
0.0
  0
VERTEX
  5
1B0
330
1AD
100
AcDbEntity
  8
MOUNTAINLINE
  6
AI-LINETYPE-25
 62
     7
100
AcDbVertex
100
AcDb2dVertex
 10
129.3988199546295
 20
-125.7831922428598
 30
0.0
  0
VERTEX
  5
1B1
330
1AD
100
AcDbEntity
  8
MOUNTAINLINE
  6
AI-LINETYPE-25
 62
     7
100
AcDbVertex
100
AcDb2dVertex
 10
126.5362901159354
 20
-125.0600667005058
 30
0.0
  0
VERTEX
  5
1B2
330
1AD
100
AcDbEntity
  8
MOUNTAINLINE
  6
AI-LINETYPE-25
 62
     7
100
AcDbVertex
100
AcDb2dVertex
 10
123.7292263145538
 20
-124.0649508695914
 30
0.0
  0
VERTEX
  5
1B3
330
1AD
100
AcDbEntity
  8
MOUNTAINLINE
  6
AI-LINETYPE-25
 62
     7
100
AcDbVertex
100
AcDb2dVertex
 10
120.9951985374595
 20
-122.815242482317
 30
0.0
  0
VERTEX
  5
1B4
330
1AD
100
AcDbEntity
  8
MOUNTAINLINE
  6
AI-LINETYPE-25
 62
     7
100
AcDbVertex
100
AcDb2dVertex
 10
118.3417859947201
 20
-121.3305785829486
 30
0.0
  0
VERTEX
  5
1B5
330
1AD
100
AcDbEntity
  8
MOUNTAINLINE
  6
AI-LINETYPE-25
 62
     7
100
AcDbVertex
100
AcDb2dVertex
 10
115.7772569155001
 20
-119.6392089544652
 30
0.0
  0
VERTEX
  5
1B6
330
1AD
100
AcDbEntity
  8
MOUNTAINLINE
  6
AI-LINETYPE-25
 62
     7
100
AcDbVertex
100
AcDb2dVertex
 10
113.2985107138629
 20
-117.7680053416518
 30
0.0
  0
VERTEX
  5
1B7
330
1AD
100
AcDbEntity
  8
MOUNTAINLINE
  6
AI-LINETYPE-25
 62
     7
100
AcDbVertex
100
AcDb2dVertex
 10
110.901413275226
 20
-115.7502129159409
 30
0.0
  0
VERTEX
  5
1B8
330
1AD
100
AcDbEntity
  8
MOUNTAINLINE
  6
AI-LINETYPE-25
 62
     7
100
AcDbVertex
100
AcDb2dVertex
 10
108.5725287271972
 20
-113.6195936130882
 30
0.0
  0
VERTEX
  5
1B9
330
1AD
100
AcDbEntity
  8
MOUNTAINLINE
  6
AI-LINETYPE-25
 62
     7
100
AcDbVertex
100
AcDb2dVertex
 10
106.2922200255103
 20
-111.4124931904629
 30
0.0
  0
VERTEX
  5
1BA
330
1AD
100
AcDbEntity
  8
MOUNTAINLINE
  6
AI-LINETYPE-25
 62
     7
100
AcDbVertex
100
AcDb2dVertex
 10
104.0391275781569
 20
-109.1671522079513
 30
0.0
  0
VERTEX
  5
1BB
330
1AD
100
AcDbEntity
  8
MOUNTAINLINE
  6
AI-LINETYPE-25
 62
     7
100
AcDbVertex
100
AcDb2dVertex
 10
101.7853461117064
 20
-106.9218112254397
 30
0.0
  0
VERTEX
  5
1BC
330
1AD
100
AcDbEntity
  8
MOUNTAINLINE
  6
AI-LINETYPE-25
 62
     7
100
AcDbVertex
100
AcDb2dVertex
 10
99.50624319343942
 20
-104.7147108028144
 30
0.0
  0
VERTEX
  5
1BD
330
1AD
100
AcDbEntity
  8
MOUNTAINLINE
  6
AI-LINETYPE-25
 62
     7
100
AcDbVertex
100
AcDb2dVertex
 10
97.17735864541052
 20
-102.5840914999616
 30
0.0
  0
VERTEX
  5
1BE
330
1AD
100
AcDbEntity
  8
MOUNTAINLINE
  6
AI-LINETYPE-25
 62
     7
100
AcDbVertex
100
AcDb2dVertex
 10
94.77991669722516
 20
-100.5659545647023
 30
0.0
  0
VERTEX
  5
1BF
330
1AD
100
AcDbEntity
  8
MOUNTAINLINE
  6
AI-LINETYPE-25
 62
     7
100
AcDbVertex
100
AcDb2dVertex
 10
92.30151500513644
 20
-98.69492320666308
 30
0.0
  0
VERTEX
  5
1C0
330
1AD
100
AcDbEntity
  8
MOUNTAINLINE
  6
AI-LINETYPE-25
 62
     7
100
AcDbVertex
100
AcDb2dVertex
 10
89.7362969068194
 20
-97.00303681385688
 30
0.0
  0
VERTEX
  5
1C1
330
1AD
100
AcDbEntity
  8
MOUNTAINLINE
  6
AI-LINETYPE-25
 62
     7
100
AcDbVertex
100
AcDb2dVertex
 10
87.08305661885424
 20
-95.51992320745683
 30
0.0
  0
VERTEX
  5
1C2
330
1AD
100
AcDbEntity
  8
MOUNTAINLINE
  6
AI-LINETYPE-25
 62
     7
100
AcDbVertex
100
AcDb2dVertex
 10
84.34816756788865
 20
-94.26935354631114
 30
0.0
  0
VERTEX
  5
1C3
330
1AD
100
AcDbEntity
  8
MOUNTAINLINE
  6
AI-LINETYPE-25
 62
     7
100
AcDbVertex
100
AcDb2dVertex
 10
81.54248180470118
 20
-93.27372095107394
 30
0.0
  0
VERTEX
  5
1C4
330
1AD
100
AcDbEntity
  8
MOUNTAINLINE
  6
AI-LINETYPE-25
 62
     7
100
AcDbVertex
100
AcDb2dVertex
 10
78.67960745645857
 20
-92.55076766349426
 30
0.0
  0
VERTEX
  5
1C5
330
1AD
100
AcDbEntity
  8
MOUNTAINLINE
  6
AI-LINETYPE-25
 62
     7
100
AcDbVertex
100
AcDb2dVertex
 10
75.77728676490985
 20
-92.11169024389916
 30
0.0
  0
VERTEX
  5
1C6
330
1AD
100
AcDbEntity
  8
MOUNTAINLINE
  6
AI-LINETYPE-25
 62
     7
100
AcDbVertex
100
AcDb2dVertex
 10
72.8548122647724
 20
-91.96510143100178
 30
0.0
  0
SEQEND
  5
1C7
330
1AD
100
AcDbEntity
  8
MOUNTAINLINE
  6
AI-LINETYPE-25
  0
ENDBLK
  5
1AC
330
1A9
100
AcDbEntity
  8
0
100
AcDbBlockEnd
  0
BLOCK
  5
1CB
330
1C9
100
AcDbEntity
  8
0
100
AcDbBlockBegin
  2
BLOCK_29
 70
     0
 71
     0
 10
0.0
 20
0.0
 30
0.0
  3
BLOCK_29
  1

  0
POLYLINE
  5
1CD
330
1C9
100
AcDbEntity
  8
MOUNTAINLINE
  6
AI-LINETYPE-26
 62
     7
100
AcDb2dPolyline
 66
     1
 10
0.0
 20
0.0
 30
0.0
  0
VERTEX
  5
1CE
330
1CD
100
AcDbEntity
  8
MOUNTAINLINE
  6
AI-LINETYPE-26
 62
     7
100
AcDbVertex
100
AcDb2dVertex
 10
135.2230983819929
 20
-126.3700642587721
 30
0.0
  0
VERTEX
  5
1CF
330
1CD
100
AcDbEntity
  8
MOUNTAINLINE
  6
AI-LINETYPE-26
 62
     7
100
AcDbVertex
100
AcDb2dVertex
 10
152.4261826875879
 20
-109.1671522079513
 30
0.0
  0
SEQEND
  5
1D0
330
1CD
100
AcDbEntity
  8
MOUNTAINLINE
  6
AI-LINETYPE-26
  0
ENDBLK
  5
1CC
330
1C9
100
AcDbEntity
  8
0
100
AcDbBlockEnd
  0
BLOCK
  5
1D4
330
1D2
100
AcDbEntity
  8
0
100
AcDbBlockBegin
  2
BLOCK_30
 70
     0
 71
     0
 10
0.0
 20
0.0
 30
0.0
  3
BLOCK_30
  1

  0
POLYLINE
  5
1D6
330
1D2
100
AcDbEntity
  8
MOUNTAINLINE
  6
AI-LINETYPE-27
 62
     7
100
AcDb2dPolyline
 66
     1
 10
0.0
 20
0.0
 30
0.0
  0
VERTEX
  5
1D7
330
1D6
100
AcDbEntity
  8
MOUNTAINLINE
  6
AI-LINETYPE-27
 62
     7
100
AcDbVertex
100
AcDb2dVertex
 10
56.12439505975362
 20
-160.8397948816651
 30
0.0
  0
VERTEX
  5
1D8
330
1D6
100
AcDbEntity
  8
MOUNTAINLINE
  6
AI-LINETYPE-27
 62
     7
100
AcDbVertex
100
AcDb2dVertex
 10
72.8548122647724
 20
-177.5698675771353
 30
0.0
  0
SEQEND
  5
1D9
330
1D6
100
AcDbEntity
  8
MOUNTAINLINE
  6
AI-LINETYPE-27
  0
ENDBLK
  5
1D5
330
1D2
100
AcDbEntity
  8
0
100
AcDbBlockEnd
  0
BLOCK
  5
1DD
330
1DB
100
AcDbEntity
  8
0
100
AcDbBlockBegin
  2
BLOCK_31
 70
     0
 71
     0
 10
0.0
 20
0.0
 30
0.0
  3
BLOCK_31
  1

  0
POLYLINE
  5
1DF
330
1DB
100
AcDbEntity
  8
MOUNTAINLINE
  6
AI-LINETYPE-28
 62
     7
100
AcDb2dPolyline
 66
     1
 10
0.0
 20
0.0
 30
0.0
  0
VERTEX
  5
1E0
330
1DF
100
AcDbEntity
  8
MOUNTAINLINE
  6
AI-LINETYPE-28
 62
     7
100
AcDbVertex
100
AcDb2dVertex
 10
135.2237874010899
 20
-143.1655937684621
 30
0.0
  0
VERTEX
  5
1E1
330
1DF
100
AcDbEntity
  8
MOUNTAINLINE
  6
AI-LINETYPE-28
 62
     7
100
AcDbVertex
100
AcDb2dVertex
 10
132.3013129009525
 20
-143.3126993456823
 30
0.0
  0
VERTEX
  5
1E2
330
1DF
100
AcDbEntity
  8
MOUNTAINLINE
  6
AI-LINETYPE-28
 62
     7
100
AcDbVertex
100
AcDb2dVertex
 10
129.3988199546295
 20
-143.7519490200516
 30
0.0
  0
VERTEX
  5
1E3
330
1DF
100
AcDbEntity
  8
MOUNTAINLINE
  6
AI-LINETYPE-28
 62
     7
100
AcDbVertex
100
AcDb2dVertex
 10
126.5362901159354
 20
-144.4743855433085
 30
0.0
  0
VERTEX
  5
1E4
330
1DF
100
AcDbEntity
  8
MOUNTAINLINE
  6
AI-LINETYPE-28
 62
     7
100
AcDbVertex
100
AcDb2dVertex
 10
123.7306043527479
 20
-145.4703626480942
 30
0.0
  0
VERTEX
  5
1E5
330
1DF
100
AcDbEntity
  8
MOUNTAINLINE
  6
AI-LINETYPE-28
 62
     7
100
AcDbVertex
100
AcDb2dVertex
 10
120.9951985374595
 20
-146.7198987805943
 30
0.0
  0
VERTEX
  5
1E6
330
1DF
100
AcDbEntity
  8
MOUNTAINLINE
  6
AI-LINETYPE-28
 62
     7
100
AcDbVertex
100
AcDb2dVertex
 10
118.3428195233657
 20
-148.2037014060915
 30
0.0
  0
VERTEX
  5
1E7
330
1DF
100
AcDbEntity
  8
MOUNTAINLINE
  6
AI-LINETYPE-28
 62
     7
100
AcDbVertex
100
AcDb2dVertex
 10
115.7772569155001
 20
-149.8954155441234
 30
0.0
  0
VERTEX
  5
1E8
330
1DF
100
AcDbEntity
  8
MOUNTAINLINE
  6
AI-LINETYPE-28
 62
     7
100
AcDbVertex
100
AcDb2dVertex
 10
113.2985107138629
 20
-151.7667914117111
 30
0.0
  0
VERTEX
  5
1E9
330
1DF
100
AcDbEntity
  8
MOUNTAINLINE
  6
AI-LINETYPE-28
 62
     7
100
AcDbVertex
100
AcDb2dVertex
 10
110.901413275226
 20
-153.7842393278734
 30
0.0
  0
VERTEX
  5
1EA
330
1DF
100
AcDbEntity
  8
MOUNTAINLINE
  6
AI-LINETYPE-28
 62
     7
100
AcDbVertex
100
AcDb2dVertex
 10
108.5725287271972
 20
-155.915375395049
 30
0.0
  0
VERTEX
  5
1EB
330
1DF
100
AcDbEntity
  8
MOUNTAINLINE
  6
AI-LINETYPE-28
 62
     7
100
AcDbVertex
100
AcDb2dVertex
 10
106.2929090446073
 20
-158.1223035629
 30
0.0
  0
VERTEX
  5
1EC
330
1DF
100
AcDbEntity
  8
MOUNTAINLINE
  6
AI-LINETYPE-28
 62
     7
100
AcDbVertex
100
AcDb2dVertex
 10
104.0391275781569
 20
-160.3678168001858
 30
0.0
  0
VERTEX
  5
1ED
330
1DF
100
AcDbEntity
  8
MOUNTAINLINE
  6
AI-LINETYPE-28
 62
     7
100
AcDbVertex
100
AcDb2dVertex
 10
101.7853461117064
 20
-162.6126410183746
 30
0.0
  0
VERTEX
  5
1EE
330
1DF
100
AcDbEntity
  8
MOUNTAINLINE
  6
AI-LINETYPE-28
 62
     7
100
AcDbVertex
100
AcDb2dVertex
 10
99.50624319343942
 20
-164.8202582053227
 30
0.0
  0
VERTEX
  5
1EF
330
1DF
100
AcDbEntity
  8
MOUNTAINLINE
  6
AI-LINETYPE-28
 62
     7
100
AcDbVertex
100
AcDb2dVertex
 10
97.17735864541052
 20
-166.9500162343042
 30
0.0
  0
VERTEX
  5
1F0
330
1DF
100
AcDbEntity
  8
MOUNTAINLINE
  6
AI-LINETYPE-28
 62
     7
100
AcDbVertex
100
AcDb2dVertex
 10
94.77991669722516
 20
-168.9688421886606
 30
0.0
  0
VERTEX
  5
1F1
330
1DF
100
AcDbEntity
  8
MOUNTAINLINE
  6
AI-LINETYPE-28
 62
     7
100
AcDbVertex
100
AcDb2dVertex
 10
92.30237627900775
 20
-170.8402180562483
 30
0.0
  0
VERTEX
  5
1F2
330
1DF
100
AcDbEntity
  8
MOUNTAINLINE
  6
AI-LINETYPE-28
 62
     7
100
AcDbVertex
100
AcDb2dVertex
 10
89.7362969068194
 20
-172.5317599395059
 30
0.0
  0
VERTEX
  5
1F3
330
1DF
100
AcDbEntity
  8
MOUNTAINLINE
  6
AI-LINETYPE-28
 62
     7
100
AcDbVertex
100
AcDb2dVertex
 10
87.08305661885424
 20
-174.0152180554545
 30
0.0
  0
VERTEX
  5
1F4
330
1DF
100
AcDbEntity
  8
MOUNTAINLINE
  6
AI-LINETYPE-28
 62
     7
100
AcDbVertex
100
AcDb2dVertex
 10
84.34851207743718
 20
-175.2657877166002
 30
0.0
  0
VERTEX
  5
1F5
330
1DF
100
AcDbEntity
  8
MOUNTAINLINE
  6
AI-LINETYPE-28
 62
     7
100
AcDbVertex
100
AcDb2dVertex
 10
81.54299856902398
 20
-176.2607312927404
 30
0.0
  0
VERTEX
  5
1F6
330
1DF
100
AcDbEntity
  8
MOUNTAINLINE
  6
AI-LINETYPE-28
 62
     7
100
AcDbVertex
100
AcDb2dVertex
 10
78.67960745645857
 20
-176.9842013446429
 30
0.0
  0
VERTEX
  5
1F7
330
1DF
100
AcDbEntity
  8
MOUNTAINLINE
  6
AI-LINETYPE-28
 62
     7
100
AcDbVertex
100
AcDb2dVertex
 10
75.77728676490985
 20
-177.4231065094637
 30
0.0
  0
VERTEX
  5
1F8
330
1DF
100
AcDbEntity
  8
MOUNTAINLINE
  6
AI-LINETYPE-28
 62
     7
100
AcDbVertex
100
AcDb2dVertex
 10
72.8548122647724
 20
-177.5698675771353
 30
0.0
  0
SEQEND
  5
1F9
330
1DF
100
AcDbEntity
  8
MOUNTAINLINE
  6
AI-LINETYPE-28
  0
ENDBLK
  5
1DE
330
1DB
100
AcDbEntity
  8
0
100
AcDbBlockEnd
  0
BLOCK
  5
1FD
330
1FB
100
AcDbEntity
  8
0
100
AcDbBlockBegin
  2
BLOCK_32
 70
     0
 71
     0
 10
0.0
 20
0.0
 30
0.0
  3
BLOCK_32
  1

  0
POLYLINE
  5
1FF
330
1FB
100
AcDbEntity
  8
MOUNTAINLINE
  6
AI-LINETYPE-29
 62
     7
100
AcDb2dPolyline
 66
     1
 10
0.0
 20
0.0
 30
0.0
  0
VERTEX
  5
200
330
1FF
100
AcDbEntity
  8
MOUNTAINLINE
  6
AI-LINETYPE-29
 62
     7
100
AcDbVertex
100
AcDb2dVertex
 10
135.2237874010899
 20
-143.1655937684621
 30
0.0
  0
VERTEX
  5
201
330
1FF
100
AcDbEntity
  8
MOUNTAINLINE
  6
AI-LINETYPE-29
 62
     7
100
AcDbVertex
100
AcDb2dVertex
 10
152.4265271971364
 20
-160.3671277810888
 30
0.0
  0
SEQEND
  5
202
330
1FF
100
AcDbEntity
  8
MOUNTAINLINE
  6
AI-LINETYPE-29
  0
ENDBLK
  5
1FE
330
1FB
100
AcDbEntity
  8
0
100
AcDbBlockEnd
  0
BLOCK
  5
206
330
204
100
AcDbEntity
  8
0
100
AcDbBlockBegin
  2
BLOCK_33
 70
     0
 71
     0
 10
0.0
 20
0.0
 30
0.0
  3
BLOCK_33
  1

  0
POLYLINE
  5
208
330
204
100
AcDbEntity
  8
MOUNTAINLINE
  6
AI-LINETYPE-30
 62
     7
100
AcDb2dPolyline
 66
     1
 10
0.0
 20
0.0
 30
0.0
  0
VERTEX
  5
209
330
208
100
AcDbEntity
  8
MOUNTAINLINE
  6
AI-LINETYPE-30
 62
     7
100
AcDbVertex
100
AcDb2dVertex
 10
56.12370604065658
 20
-58.43932697106725
 30
0.0
  0
VERTEX
  5
20A
330
208
100
AcDbEntity
  8
MOUNTAINLINE
  6
AI-LINETYPE-30
 62
     7
100
AcDbVertex
100
AcDb2dVertex
 10
72.8539509909011
 20
-75.16905515698899
 30
0.0
  0
SEQEND
  5
20B
330
208
100
AcDbEntity
  8
MOUNTAINLINE
  6
AI-LINETYPE-30
  0
ENDBLK
  5
207
330
204
100
AcDbEntity
  8
0
100
AcDbBlockEnd
  0
BLOCK
  5
20F
330
20D
100
AcDbEntity
  8
0
100
AcDbBlockBegin
  2
BLOCK_34
 70
     0
 71
     0
 10
0.0
 20
0.0
 30
0.0
  3
BLOCK_34
  1

  0
POLYLINE
  5
211
330
20D
100
AcDbEntity
  8
MOUNTAINLINE
  6
AI-LINETYPE-31
 62
     7
100
AcDb2dPolyline
 66
     1
 10
0.0
 20
0.0
 30
0.0
  0
VERTEX
  5
212
330
211
100
AcDbEntity
  8
MOUNTAINLINE
  6
AI-LINETYPE-31
 62
     7
100
AcDbVertex
100
AcDb2dVertex
 10
135.2230983819929
 20
-40.76392007444444
 30
0.0
  0
VERTEX
  5
213
330
211
100
AcDbEntity
  8
MOUNTAINLINE
  6
AI-LINETYPE-31
 62
     7
100
AcDbVertex
100
AcDb2dVertex
 10
132.3013129009525
 20
-40.91154241598739
 30
0.0
  0
VERTEX
  5
214
330
211
100
AcDbEntity
  8
MOUNTAINLINE
  6
AI-LINETYPE-31
 62
     7
100
AcDbVertex
100
AcDb2dVertex
 10
129.3988199546295
 20
-41.35044758080822
 30
0.0
  0
VERTEX
  5
215
330
211
100
AcDbEntity
  8
MOUNTAINLINE
  6
AI-LINETYPE-31
 62
     7
100
AcDbVertex
100
AcDb2dVertex
 10
126.5362901159354
 20
-42.0734008683879
 30
0.0
  0
VERTEX
  5
216
330
211
100
AcDbEntity
  8
MOUNTAINLINE
  6
AI-LINETYPE-31
 62
     7
100
AcDbVertex
100
AcDb2dVertex
 10
123.7292263145538
 20
-43.0690334636251
 30
0.0
  0
VERTEX
  5
217
330
211
100
AcDbEntity
  8
MOUNTAINLINE
  6
AI-LINETYPE-31
 62
     7
100
AcDbVertex
100
AcDb2dVertex
 10
120.9951985374595
 20
-44.31874185089949
 30
0.0
  0
VERTEX
  5
218
330
211
100
AcDbEntity
  8
MOUNTAINLINE
  6
AI-LINETYPE-31
 62
     7
100
AcDbVertex
100
AcDb2dVertex
 10
118.3417859947201
 20
-45.80271673117085
 30
0.0
  0
VERTEX
  5
219
330
211
100
AcDbEntity
  8
MOUNTAINLINE
  6
AI-LINETYPE-31
 62
     7
100
AcDbVertex
100
AcDb2dVertex
 10
115.7772569155001
 20
-47.49425861442852
 30
0.0
  0
VERTEX
  5
21A
330
211
100
AcDbEntity
  8
MOUNTAINLINE
  6
AI-LINETYPE-31
 62
     7
100
AcDbVertex
100
AcDb2dVertex
 10
113.2985107138629
 20
-49.36511771769344
 30
0.0
  0
VERTEX
  5
21B
330
211
100
AcDbEntity
  8
MOUNTAINLINE
  6
AI-LINETYPE-31
 62
     7
100
AcDbVertex
100
AcDb2dVertex
 10
110.901413275226
 20
-51.38377141727559
 30
0.0
  0
VERTEX
  5
21C
330
211
100
AcDbEntity
  8
MOUNTAINLINE
  6
AI-LINETYPE-31
 62
     7
100
AcDbVertex
100
AcDb2dVertex
 10
108.5725287271972
 20
-53.51421846535408
 30
0.0
  0
VERTEX
  5
21D
330
211
100
AcDbEntity
  8
MOUNTAINLINE
  6
AI-LINETYPE-31
 62
     7
100
AcDbVertex
100
AcDb2dVertex
 10
106.2922200255103
 20
-55.72131888797939
 30
0.0
  0
VERTEX
  5
21E
330
211
100
AcDbEntity
  8
MOUNTAINLINE
  6
AI-LINETYPE-31
 62
     7
100
AcDbVertex
100
AcDb2dVertex
 10
104.0391275781569
 20
-57.96631536094245
 30
0.0
  0
VERTEX
  5
21F
330
211
100
AcDbEntity
  8
MOUNTAINLINE
  6
AI-LINETYPE-31
 62
     7
100
AcDbVertex
100
AcDb2dVertex
 10
101.7853461117064
 20
-60.21165634345403
 30
0.0
  0
VERTEX
  5
220
330
211
100
AcDbEntity
  8
MOUNTAINLINE
  6
AI-LINETYPE-31
 62
     7
100
AcDbVertex
100
AcDb2dVertex
 10
99.50624319343942
 20
-62.41875676607934
 30
0.0
  0
VERTEX
  5
221
330
211
100
AcDbEntity
  8
MOUNTAINLINE
  6
AI-LINETYPE-31
 62
     7
100
AcDbVertex
100
AcDb2dVertex
 10
97.17735864541052
 20
-64.5493760689321
 30
0.0
  0
VERTEX
  5
222
330
211
100
AcDbEntity
  8
MOUNTAINLINE
  6
AI-LINETYPE-31
 62
     7
100
AcDbVertex
100
AcDb2dVertex
 10
94.77991669722516
 20
-66.5682020232885
 30
0.0
  0
VERTEX
  5
223
330
211
100
AcDbEntity
  8
MOUNTAINLINE
  6
AI-LINETYPE-31
 62
     7
100
AcDbVertex
100
AcDb2dVertex
 10
92.30151500513644
 20
-68.43871661700491
 30
0.0
  0
VERTEX
  5
224
330
211
100
AcDbEntity
  8
MOUNTAINLINE
  6
AI-LINETYPE-31
 62
     7
100
AcDbVertex
100
AcDb2dVertex
 10
89.7362969068194
 20
-70.13077526458537
 30
0.0
  0
VERTEX
  5
225
330
211
100
AcDbEntity
  8
MOUNTAINLINE
  6
AI-LINETYPE-31
 62
     7
100
AcDbVertex
100
AcDb2dVertex
 10
87.08305661885424
 20
-71.61388887098542
 30
0.0
  0
VERTEX
  5
226
330
211
100
AcDbEntity
  8
MOUNTAINLINE
  6
AI-LINETYPE-31
 62
     7
100
AcDbVertex
100
AcDb2dVertex
 10
84.34816756788865
 20
-72.86376951303406
 30
0.0
  0
VERTEX
  5
227
330
211
100
AcDbEntity
  8
MOUNTAINLINE
  6
AI-LINETYPE-31
 62
     7
100
AcDbVertex
100
AcDb2dVertex
 10
81.54248180470118
 20
-73.85957436304552
 30
0.0
  0
VERTEX
  5
228
330
211
100
AcDbEntity
  8
MOUNTAINLINE
  6
AI-LINETYPE-31
 62
     7
100
AcDbVertex
100
AcDb2dVertex
 10
78.67960745645857
 20
-74.58287216017374
 30
0.0
  0
VERTEX
  5
229
330
211
100
AcDbEntity
  8
MOUNTAINLINE
  6
AI-LINETYPE-31
 62
     7
100
AcDbVertex
100
AcDb2dVertex
 10
75.77728676490985
 20
-75.0216050702203
 30
0.0
  0
VERTEX
  5
22A
330
211
100
AcDbEntity
  8
MOUNTAINLINE
  6
AI-LINETYPE-31
 62
     7
100
AcDbVertex
100
AcDb2dVertex
 10
72.8539509909011
 20
-75.16905515698899
 30
0.0
  0
SEQEND
  5
22B
330
211
100
AcDbEntity
  8
MOUNTAINLINE
  6
AI-LINETYPE-31
  0
ENDBLK
  5
210
330
20D
100
AcDbEntity
  8
0
100
AcDbBlockEnd
  0
BLOCK
  5
22F
330
22D
100
AcDbEntity
  8
0
100
AcDbBlockBegin
  2
BLOCK_35
 70
     0
 71
     0
 10
0.0
 20
0.0
 30
0.0
  3
BLOCK_35
  1

  0
POLYLINE
  5
231
330
22D
100
AcDbEntity
  8
MOUNTAINLINE
  6
AI-LINETYPE-32
 62
     7
100
AcDb2dPolyline
 66
     1
 10
0.0
 20
0.0
 30
0.0
  0
VERTEX
  5
232
330
231
100
AcDbEntity
  8
MOUNTAINLINE
  6
AI-LINETYPE-32
 62
     7
100
AcDbVertex
100
AcDb2dVertex
 10
135.2230983819929
 20
-40.76392007444444
 30
0.0
  0
VERTEX
  5
233
330
231
100
AcDbEntity
  8
MOUNTAINLINE
  6
AI-LINETYPE-32
 62
     7
100
AcDbVertex
100
AcDb2dVertex
 10
152.4261826875879
 20
-57.96631536094245
 30
0.0
  0
SEQEND
  5
234
330
231
100
AcDbEntity
  8
MOUNTAINLINE
  6
AI-LINETYPE-32
  0
ENDBLK
  5
230
330
22D
100
AcDbEntity
  8
0
100
AcDbBlockEnd
  0
BLOCK
  5
238
330
236
100
AcDbEntity
  8
0
100
AcDbBlockBegin
  2
BLOCK_36
 70
     0
 71
     0
 10
0.0
 20
0.0
 30
0.0
  3
BLOCK_36
  1

  0
POLYLINE
  5
23A
330
236
100
AcDbEntity
  8
MOUNTAINLINE
  6
AI-LINETYPE-33
 62
     7
100
AcDb2dPolyline
 66
     1
 10
0.0
 20
0.0
 30
0.0
  0
VERTEX
  5
23B
330
23A
100
AcDbEntity
  8
MOUNTAINLINE
  6
AI-LINETYPE-33
 62
     7
100
AcDbVertex
100
AcDb2dVertex
 10
56.12439505975362
 20
-211.0954697822956
 30
0.0
  0
VERTEX
  5
23C
330
23A
100
AcDbEntity
  8
MOUNTAINLINE
  6
AI-LINETYPE-33
 62
     7
100
AcDbVertex
100
AcDb2dVertex
 10
72.8548122647724
 20
-194.3660861059224
 30
0.0
  0
SEQEND
  5
23D
330
23A
100
AcDbEntity
  8
MOUNTAINLINE
  6
AI-LINETYPE-33
  0
ENDBLK
  5
239
330
236
100
AcDbEntity
  8
0
100
AcDbBlockEnd
  0
BLOCK
  5
241
330
23F
100
AcDbEntity
  8
0
100
AcDbBlockBegin
  2
BLOCK_37
 70
     0
 71
     0
 10
0.0
 20
0.0
 30
0.0
  3
BLOCK_37
  1

  0
POLYLINE
  5
243
330
23F
100
AcDbEntity
  8
MOUNTAINLINE
  6
AI-LINETYPE-34
 62
     7
100
AcDb2dPolyline
 66
     1
 10
0.0
 20
0.0
 30
0.0
  0
VERTEX
  5
244
330
243
100
AcDbEntity
  8
MOUNTAINLINE
  6
AI-LINETYPE-34
 62
     7
100
AcDbVertex
100
AcDb2dVertex
 10
56.12370604065658
 20
-108.6941405978265
 30
0.0
  0
VERTEX
  5
245
330
243
100
AcDbEntity
  8
MOUNTAINLINE
  6
AI-LINETYPE-34
 62
     7
100
AcDbVertex
100
AcDb2dVertex
 10
72.8548122647724
 20
-91.96510143100178
 30
0.0
  0
SEQEND
  5
246
330
243
100
AcDbEntity
  8
MOUNTAINLINE
  6
AI-LINETYPE-34
  0
ENDBLK
  5
242
330
23F
100
AcDbEntity
  8
0
100
AcDbBlockEnd
  0
ENDSEC
  0
SECTION
  2
ENTITIES
  0
POLYLINE
  5
3C
330
1F
100
AcDbEntity
  8
CUTLINE
 62
     7
100
AcDb2dPolyline
 66
     1
 10
0.0
 20
0.0
 30
0.0
  0
VERTEX
  5
3D
330
3C
100
AcDbEntity
  8
CUTLINE
 62
     7
100
AcDbVertex
100
AcDb2dVertex
 10
22.76260714491699
 20
-242.1619628300845
 30
0.0
  0
VERTEX
  5
3E
330
3C
100
AcDbEntity
  8
CUTLINE
 62
     7
100
AcDbVertex
100
AcDb2dVertex
 10
22.76260714491699
 20
-32.36581081005091
 30
0.0
  0
VERTEX
  5
3F
330
3C
100
AcDbEntity
  8
CUTLINE
 62
     7
100
AcDbVertex
100
AcDb2dVertex
 10
187.2399060946831
 20
-32.36581081005091
 30
0.0
  0
VERTEX
  5
40
330
3C
100
AcDbEntity
  8
CUTLINE
 62
     7
100
AcDbVertex
100
AcDb2dVertex
 10
187.2399060946831
 20
-242.1619628300845
 30
0.0
  0
SEQEND
  5
41
330
3C
100
AcDbEntity
  8
CUTLINE
  0
POLYLINE
  5
42
330
1F
100
AcDbEntity
  8
CUTLINE
 62
     7
100
AcDb2dPolyline
 66
     1
 10
0.0
 20
0.0
 30
0.0
  0
VERTEX
  5
43
330
42
100
AcDbEntity
  8
CUTLINE
 62
     7
100
AcDbVertex
100
AcDb2dVertex
 10
187.2399060946831
 20
-242.1619628300845
 30
0.0
  0
VERTEX
  5
44
330
42
100
AcDbEntity
  8
CUTLINE
 62
     7
100
AcDbVertex
100
AcDb2dVertex
 10
22.76260714491699
 20
-242.1619628300845
 30
0.0
  0
SEQEND
  5
45
330
42
100
AcDbEntity
  8
CUTLINE
  0
POLYLINE
  5
46
330
1F
100
AcDbEntity
  8
CUTLINE
 62
     7
100
AcDb2dPolyline
 66
     1
 10
0.0
 20
0.0
 30
0.0
  0
VERTEX
  5
47
330
46
100
AcDbEntity
  8
CUTLINE
 62
     7
100
AcDbVertex
100
AcDb2dVertex
 10
73.81633841470564
 20
-244.8064181245623
 30
0.0
  0
VERTEX
  5
48
330
46
100
AcDbEntity
  8
CUTLINE
 62
     7
100
AcDbVertex
100
AcDb2dVertex
 10
73.81633841470564
 20
-287.6096624715004
 30
0.0
  0
VERTEX
  5
49
330
46
100
AcDbEntity
  8
CUTLINE
 62
     7
100
AcDbVertex
100
AcDb2dVertex
 10
136.1860025701202
 20
-287.6096624715004
 30
0.0
  0
VERTEX
  5
4A
330
46
100
AcDbEntity
  8
CUTLINE
 62
     7
100
AcDbVertex
100
AcDb2dVertex
 10
136.1860025701202
 20
-279.2118977166554
 30
0.0
  0
SEQEND
  5
4B
330
46
100
AcDbEntity
  8
CUTLINE
  0
INSERT
  5
4D
330
1F
100
AcDbEntity
  8
CUTLINE
100
AcDbBlockReference
  2
BLOCK_2
 10
0.0
 20
0.0
 30
0.0
  0
POLYLINE
  5
6C
330
1F
100
AcDbEntity
  8
VALLEYLINE
 62
     7
100
AcDb2dPolyline
 66
     1
 10
0.0
 20
0.0
 30
0.0
  0
VERTEX
  5
6D
330
6C
100
AcDbEntity
  8
VALLEYLINE
 62
     7
100
AcDbVertex
100
AcDb2dVertex
 10
178.1841281021554
 20
-211.5681368828719
 30
0.0
  0
VERTEX
  5
6E
330
6C
100
AcDbEntity
  8
VALLEYLINE
 62
     7
100
AcDbVertex
100
AcDb2dVertex
 10
187.2399060946831
 20
-202.5137369285382
 30
0.0
  0
SEQEND
  5
6F
330
6C
100
AcDbEntity
  8
VALLEYLINE
  0
POLYLINE
  5
70
330
1F
100
AcDbEntity
  8
VALLEYLINE
 62
     7
100
AcDb2dPolyline
 66
     1
 10
0.0
 20
0.0
 30
0.0
  0
VERTEX
  5
71
330
70
100
AcDbEntity
  8
VALLEYLINE
 62
     7
100
AcDbVertex
100
AcDb2dVertex
 10
178.1841281021554
 20
-160.3678168001858
 30
0.0
  0
VERTEX
  5
72
330
70
100
AcDbEntity
  8
VALLEYLINE
 62
     7
100
AcDbVertex
100
AcDb2dVertex
 10
187.239217075586
 20
-151.3127278267552
 30
0.0
  0
SEQEND
  5
73
330
70
100
AcDbEntity
  8
VALLEYLINE
  0
POLYLINE
  5
74
330
1F
100
AcDbEntity
  8
VALLEYLINE
 62
     7
100
AcDb2dPolyline
 66
     1
 10
0.0
 20
0.0
 30
0.0
  0
VERTEX
  5
75
330
74
100
AcDbEntity
  8
VALLEYLINE
 62
     7
100
AcDbVertex
100
AcDb2dVertex
 10
178.1841281021554
 20
-109.1671522079513
 30
0.0
  0
VERTEX
  5
76
330
74
100
AcDbEntity
  8
VALLEYLINE
 62
     7
100
AcDbVertex
100
AcDb2dVertex
 10
187.239217075586
 20
-100.1122354892949
 30
0.0
  0
SEQEND
  5
77
330
74
100
AcDbEntity
  8
VALLEYLINE
  0
POLYLINE
  5
78
330
1F
100
AcDbEntity
  8
VALLEYLINE
 62
     7
100
AcDb2dPolyline
 66
     1
 10
0.0
 20
0.0
 30
0.0
  0
VERTEX
  5
79
330
78
100
AcDbEntity
  8
VALLEYLINE
 62
     7
100
AcDbVertex
100
AcDb2dVertex
 10
178.1834390830583
 20
-57.96631536094245
 30
0.0
  0
VERTEX
  5
7A
330
78
100
AcDbEntity
  8
VALLEYLINE
 62
     7
100
AcDbVertex
100
AcDb2dVertex
 10
187.239217075586
 20
-48.91139864228604
 30
0.0
  0
SEQEND
  5
7B
330
78
100
AcDbEntity
  8
VALLEYLINE
  0
POLYLINE
  5
7C
330
1F
100
AcDbEntity
  8
VALLEYLINE
 62
     7
100
AcDb2dPolyline
 66
     1
 10
0.0
 20
0.0
 30
0.0
  0
VERTEX
  5
7D
330
7C
100
AcDbEntity
  8
VALLEYLINE
 62
     7
100
AcDbVertex
100
AcDb2dVertex
 10
31.31092257246741
 20
-160.8397948816651
 30
0.0
  0
VERTEX
  5
7E
330
7C
100
AcDbEntity
  8
VALLEYLINE
 62
     7
100
AcDbVertex
100
AcDb2dVertex
 10
22.76260714491699
 20
-169.389143837861
 30
0.0
  0
SEQEND
  5
7F
330
7C
100
AcDbEntity
  8
VALLEYLINE
  0
POLYLINE
  5
80
330
1F
100
AcDbEntity
  8
VALLEYLINE
 62
     7
100
AcDb2dPolyline
 66
     1
 10
0.0
 20
0.0
 30
0.0
  0
VERTEX
  5
81
330
80
100
AcDbEntity
  8
VALLEYLINE
 62
     7
100
AcDbVertex
100
AcDb2dVertex
 10
31.31092257246741
 20
-108.6941405978265
 30
0.0
  0
VERTEX
  5
82
330
80
100
AcDbEntity
  8
VALLEYLINE
 62
     7
100
AcDbVertex
100
AcDb2dVertex
 10
22.76260714491699
 20
-117.2433172992482
 30
0.0
  0
SEQEND
  5
83
330
80
100
AcDbEntity
  8
VALLEYLINE
  0
POLYLINE
  5
84
330
1F
100
AcDbEntity
  8
VALLEYLINE
 62
     7
100
AcDb2dPolyline
 66
     1
 10
0.0
 20
0.0
 30
0.0
  0
VERTEX
  5
85
330
84
100
AcDbEntity
  8
VALLEYLINE
 62
     7
100
AcDbVertex
100
AcDb2dVertex
 10
31.31092257246741
 20
-58.43932697106725
 30
0.0
  0
VERTEX
  5
86
330
84
100
AcDbEntity
  8
VALLEYLINE
 62
     7
100
AcDbVertex
100
AcDb2dVertex
 10
22.76174587104568
 20
-66.98815916294046
 30
0.0
  0
SEQEND
  5
87
330
84
100
AcDbEntity
  8
VALLEYLINE
  0
POLYLINE
  5
88
330
1F
100
AcDbEntity
  8
VALLEYLINE
 62
     7
100
AcDb2dPolyline
 66
     1
 10
0.0
 20
0.0
 30
0.0
  0
VERTEX
  5
89
330
88
100
AcDbEntity
  8
VALLEYLINE
 62
     7
100
AcDbVertex
100
AcDb2dVertex
 10
31.31161159156446
 20
-211.0954697822956
 30
0.0
  0
VERTEX
  5
8A
330
88
100
AcDbEntity
  8
VALLEYLINE
 62
     7
100
AcDbVertex
100
AcDb2dVertex
 10
22.76260714491699
 20
-219.6441297193945
 30
0.0
  0
SEQEND
  5
8B
330
88
100
AcDbEntity
  8
VALLEYLINE
  0
INSERT
  5
8D
330
1F
100
AcDbEntity
  8
VALLEYLINE
100
AcDbBlockReference
  2
BLOCK_3
 10
0.0
 20
0.0
 30
0.0
  0
INSERT
  5
98
330
1F
100
AcDbEntity
  8
VALLEYLINE
100
AcDbBlockReference
  2
BLOCK_4
 10
0.0
 20
0.0
 30
0.0
  0
INSERT
  5
A0
330
1F
100
AcDbEntity
  8
VALLEYLINE
100
AcDbBlockReference
  2
BLOCK_5
 10
0.0
 20
0.0
 30
0.0
  0
INSERT
  5
A8
330
1F
100
AcDbEntity
  8
VALLEYLINE
100
AcDbBlockReference
  2
BLOCK_6
 10
0.0
 20
0.0
 30
0.0
  0
POLYLINE
  5
AF
330
1F
100
AcDbEntity
  8
VALLEYLINE
 62
     7
100
AcDb2dPolyline
 66
     1
 10
0.0
 20
0.0
 30
0.0
  0
VERTEX
  5
B0
330
AF
100
AcDbEntity
  8
VALLEYLINE
 62
     7
100
AcDbVertex
100
AcDb2dVertex
 10
72.8539509909011
 20
-32.36581081005091
 30
0.0
  0
VERTEX
  5
B1
330
AF
100
AcDbEntity
  8
VALLEYLINE
 62
     7
100
AcDbVertex
100
AcDb2dVertex
 10
72.8539509909011
 20
-75.16905515698899
 30
0.0
  0
SEQEND
  5
B2
330
AF
100
AcDbEntity
  8
VALLEYLINE
  0
POLYLINE
  5
B3
330
1F
100
AcDbEntity
  8
VALLEYLINE
 62
     7
100
AcDb2dPolyline
 66
     1
 10
0.0
 20
0.0
 30
0.0
  0
VERTEX
  5
B4
330
B3
100
AcDbEntity
  8
VALLEYLINE
 62
     7
100
AcDbVertex
100
AcDb2dVertex
 10
56.12439505975362
 20
-160.8404839007621
 30
0.0
  0
VERTEX
  5
B5
330
B3
100
AcDbEntity
  8
VALLEYLINE
 62
     7
100
AcDbVertex
100
AcDb2dVertex
 10
56.12439505975362
 20
-211.0954697822956
 30
0.0
  0
SEQEND
  5
B6
330
B3
100
AcDbEntity
  8
VALLEYLINE
  0
POLYLINE
  5
B7
330
1F
100
AcDbEntity
  8
VALLEYLINE
 62
     7
100
AcDb2dPolyline
 66
     1
 10
0.0
 20
0.0
 30
0.0
  0
VERTEX
  5
B8
330
B7
100
AcDbEntity
  8
VALLEYLINE
 62
     7
100
AcDbVertex
100
AcDb2dVertex
 10
56.12370604065658
 20
-58.43932697106725
 30
0.0
  0
VERTEX
  5
B9
330
B7
100
AcDbEntity
  8
VALLEYLINE
 62
     7
100
AcDbVertex
100
AcDb2dVertex
 10
56.12370604065658
 20
-108.6941405978265
 30
0.0
  0
SEQEND
  5
BA
330
B7
100
AcDbEntity
  8
VALLEYLINE
  0
POLYLINE
  5
BB
330
1F
100
AcDbEntity
  8
VALLEYLINE
 62
     7
100
AcDb2dPolyline
 66
     1
 10
0.0
 20
0.0
 30
0.0
  0
VERTEX
  5
BC
330
BB
100
AcDbEntity
  8
VALLEYLINE
 62
     7
100
AcDbVertex
100
AcDb2dVertex
 10
152.4265271971364
 20
-110.1124864091038
 30
0.0
  0
VERTEX
  5
BD
330
BB
100
AcDbEntity
  8
VALLEYLINE
 62
     7
100
AcDbVertex
100
AcDb2dVertex
 10
152.4265271971364
 20
-160.3671277810888
 30
0.0
  0
SEQEND
  5
BE
330
BB
100
AcDbEntity
  8
VALLEYLINE
  0
POLYLINE
  5
BF
330
1F
100
AcDbEntity
  8
VALLEYLINE
 62
     7
100
AcDb2dPolyline
 66
     1
 10
0.0
 20
0.0
 30
0.0
  0
VERTEX
  5
C0
330
BF
100
AcDbEntity
  8
VALLEYLINE
 62
     7
100
AcDbVertex
100
AcDb2dVertex
 10
152.4265271971364
 20
-32.36581081005091
 30
0.0
  0
VERTEX
  5
C1
330
BF
100
AcDbEntity
  8
VALLEYLINE
 62
     7
100
AcDbVertex
100
AcDb2dVertex
 10
152.4265271971364
 20
-57.96631536094245
 30
0.0
  0
SEQEND
  5
C2
330
BF
100
AcDbEntity
  8
VALLEYLINE
  0
POLYLINE
  5
C3
330
1F
100
AcDbEntity
  8
VALLEYLINE
 62
     7
100
AcDb2dPolyline
 66
     1
 10
0.0
 20
0.0
 30
0.0
  0
VERTEX
  5
C4
330
C3
100
AcDbEntity
  8
VALLEYLINE
 62
     7
100
AcDbVertex
100
AcDb2dVertex
 10
152.4265271971364
 20
-211.5681368828719
 30
0.0
  0
VERTEX
  5
C5
330
C3
100
AcDbEntity
  8
VALLEYLINE
 62
     7
100
AcDbVertex
100
AcDb2dVertex
 10
152.4265271971364
 20
-242.1619628300845
 30
0.0
  0
SEQEND
  5
C6
330
C3
100
AcDbEntity
  8
VALLEYLINE
  0
INSERT
  5
C9
330
1F
100
AcDbEntity
  8
MOUNTAINLINE
100
AcDbBlockReference
  2
BLOCK_7
 10
0.0
 20
0.0
 30
0.0
  0
INSERT
  5
D2
330
1F
100
AcDbEntity
  8
MOUNTAINLINE
100
AcDbBlockReference
  2
BLOCK_8
 10
0.0
 20
0.0
 30
0.0
  0
INSERT
  5
DB
330
1F
100
AcDbEntity
  8
MOUNTAINLINE
100
AcDbBlockReference
  2
BLOCK_9
 10
0.0
 20
0.0
 30
0.0
  0
INSERT
  5
E4
330
1F
100
AcDbEntity
  8
MOUNTAINLINE
100
AcDbBlockReference
  2
BLOCK_10
 10
0.0
 20
0.0
 30
0.0
  0
INSERT
  5
ED
330
1F
100
AcDbEntity
  8
MOUNTAINLINE
100
AcDbBlockReference
  2
BLOCK_11
 10
0.0
 20
0.0
 30
0.0
  0
INSERT
  5
F6
330
1F
100
AcDbEntity
  8
MOUNTAINLINE
100
AcDbBlockReference
  2
BLOCK_12
 10
0.0
 20
0.0
 30
0.0
  0
INSERT
  5
FF
330
1F
100
AcDbEntity
  8
MOUNTAINLINE
100
AcDbBlockReference
  2
BLOCK_13
 10
0.0
 20
0.0
 30
0.0
  0
INSERT
  5
108
330
1F
100
AcDbEntity
  8
MOUNTAINLINE
100
AcDbBlockReference
  2
BLOCK_14
 10
0.0
 20
0.0
 30
0.0
  0
INSERT
  5
111
330
1F
100
AcDbEntity
  8
MOUNTAINLINE
100
AcDbBlockReference
  2
BLOCK_15
 10
0.0
 20
0.0
 30
0.0
  0
INSERT
  5
11A
330
1F
100
AcDbEntity
  8
MOUNTAINLINE
100
AcDbBlockReference
  2
BLOCK_16
 10
0.0
 20
0.0
 30
0.0
  0
INSERT
  5
127
330
1F
100
AcDbEntity
  8
MOUNTAINLINE
100
AcDbBlockReference
  2
BLOCK_17
 10
0.0
 20
0.0
 30
0.0
  0
INSERT
  5
130
330
1F
100
AcDbEntity
  8
MOUNTAINLINE
100
AcDbBlockReference
  2
BLOCK_18
 10
0.0
 20
0.0
 30
0.0
  0
INSERT
  5
139
330
1F
100
AcDbEntity
  8
MOUNTAINLINE
100
AcDbBlockReference
  2
BLOCK_19
 10
0.0
 20
0.0
 30
0.0
  0
INSERT
  5
142
330
1F
100
AcDbEntity
  8
MOUNTAINLINE
100
AcDbBlockReference
  2
BLOCK_20
 10
0.0
 20
0.0
 30
0.0
  0
INSERT
  5
14B
330
1F
100
AcDbEntity
  8
MOUNTAINLINE
100
AcDbBlockReference
  2
BLOCK_21
 10
0.0
 20
0.0
 30
0.0
  0
INSERT
  5
154
330
1F
100
AcDbEntity
  8
MOUNTAINLINE
100
AcDbBlockReference
  2
BLOCK_22
 10
0.0
 20
0.0
 30
0.0
  0
INSERT
  5
15D
330
1F
100
AcDbEntity
  8
MOUNTAINLINE
100
AcDbBlockReference
  2
BLOCK_23
 10
0.0
 20
0.0
 30
0.0
  0
INSERT
  5
16A
330
1F
100
AcDbEntity
  8
MOUNTAINLINE
100
AcDbBlockReference
  2
BLOCK_24
 10
0.0
 20
0.0
 30
0.0
  0
INSERT
  5
173
330
1F
100
AcDbEntity
  8
MOUNTAINLINE
100
AcDbBlockReference
  2
BLOCK_25
 10
0.0
 20
0.0
 30
0.0
  0
POLYLINE
  5
17B
330
1F
100
AcDbEntity
  8
MOUNTAINLINE
  6
AI-LINETYPE-22
 62
     7
100
AcDb2dPolyline
 66
     1
 10
0.0
 20
0.0
 30
0.0
  0
VERTEX
  5
17C
330
17B
100
AcDbEntity
  8
MOUNTAINLINE
  6
AI-LINETYPE-22
 62
     7
100
AcDbVertex
100
AcDb2dVertex
 10
135.2230983819929
 20
-32.36581081005091
 30
0.0
  0
VERTEX
  5
17D
330
17B
100
AcDbEntity
  8
MOUNTAINLINE
  6
AI-LINETYPE-22
 62
     7
100
AcDbVertex
100
AcDb2dVertex
 10
135.2230983819929
 20
-40.76392007444444
 30
0.0
  0
SEQEND
  5
17E
330
17B
100
AcDbEntity
  8
MOUNTAINLINE
  6
AI-LINETYPE-22
  0
INSERT
  5
181
330
1F
100
AcDbEntity
  8
MOUNTAINLINE
100
AcDbBlockReference
  2
BLOCK_26
 10
0.0
 20
0.0
 30
0.0
  0
INSERT
  5
1A1
330
1F
100
AcDbEntity
  8
MOUNTAINLINE
100
AcDbBlockReference
  2
BLOCK_27
 10
0.0
 20
0.0
 30
0.0
  0
INSERT
  5
1AA
330
1F
100
AcDbEntity
  8
MOUNTAINLINE
100
AcDbBlockReference
  2
BLOCK_28
 10
0.0
 20
0.0
 30
0.0
  0
INSERT
  5
1CA
330
1F
100
AcDbEntity
  8
MOUNTAINLINE
100
AcDbBlockReference
  2
BLOCK_29
 10
0.0
 20
0.0
 30
0.0
  0
INSERT
  5
1D3
330
1F
100
AcDbEntity
  8
MOUNTAINLINE
100
AcDbBlockReference
  2
BLOCK_30
 10
0.0
 20
0.0
 30
0.0
  0
INSERT
  5
1DC
330
1F
100
AcDbEntity
  8
MOUNTAINLINE
100
AcDbBlockReference
  2
BLOCK_31
 10
0.0
 20
0.0
 30
0.0
  0
INSERT
  5
1FC
330
1F
100
AcDbEntity
  8
MOUNTAINLINE
100
AcDbBlockReference
  2
BLOCK_32
 10
0.0
 20
0.0
 30
0.0
  0
INSERT
  5
205
330
1F
100
AcDbEntity
  8
MOUNTAINLINE
100
AcDbBlockReference
  2
BLOCK_33
 10
0.0
 20
0.0
 30
0.0
  0
INSERT
  5
20E
330
1F
100
AcDbEntity
  8
MOUNTAINLINE
100
AcDbBlockReference
  2
BLOCK_34
 10
0.0
 20
0.0
 30
0.0
  0
INSERT
  5
22E
330
1F
100
AcDbEntity
  8
MOUNTAINLINE
100
AcDbBlockReference
  2
BLOCK_35
 10
0.0
 20
0.0
 30
0.0
  0
INSERT
  5
237
330
1F
100
AcDbEntity
  8
MOUNTAINLINE
100
AcDbBlockReference
  2
BLOCK_36
 10
0.0
 20
0.0
 30
0.0
  0
INSERT
  5
240
330
1F
100
AcDbEntity
  8
MOUNTAINLINE
100
AcDbBlockReference
  2
BLOCK_37
 10
0.0
 20
0.0
 30
0.0
  0
POLYLINE
  5
248
330
1F
100
AcDbEntity
  8
MOUNTAINLINE
 62
     7
100
AcDb2dPolyline
 66
     1
 10
0.0
 20
0.0
 30
0.0
  0
VERTEX
  5
249
330
248
100
AcDbEntity
  8
MOUNTAINLINE
 62
     7
100
AcDbVertex
100
AcDb2dVertex
 10
187.2399060946831
 20
-237.5014376576385
 30
0.0
  0
VERTEX
  5
24A
330
248
100
AcDbEntity
  8
MOUNTAINLINE
 62
     7
100
AcDbVertex
100
AcDb2dVertex
 10
22.76260714491699
 20
-237.5014376576385
 30
0.0
  0
SEQEND
  5
24B
330
248
100
AcDbEntity
  8
MOUNTAINLINE
  0
MTEXT
  5
24D
330
1F
100
AcDbEntity
  8
TEXT
 62
     7
100
AcDbMText
 10
152.5092094887824
 20
-287.6096624715004
 30
0.0
 40
3.358444443604833
 41
0.0
 71
     7
 72
     1
  1
\fArial|b0|i0|c0|p34;\W1;(c) 2016 Jun Mitani
  0
MTEXT
  5
24E
330
1F
100
AcDbEntity
  8
TEXT
 62
     7
100
AcDbMText
 10
11.1872585692518
 20
-14.85542398717156
 30
0.0
 40
4.3179999989205
 41
0.0
 71
     7
 72
     1
  1
\fArial|b0|i0|c0|p34;\W1;Corrugated Square Pillar Unit
  0
MTEXT
  5
24F
330
1F
100
AcDbEntity
  8
TEXT
 62
     7
100
AcDbMText
 10
108.6900064832442
 20
-258.8348469404996
 30
0.0
 40
2.878666665947001
 41
0.0
 71
     7
 72
     1
  1
\fArial|b0|i0|c0|p34;\W1;Template
  0
ENDSEC
  0
SECTION
  2
OBJECTS
  0
DICTIONARY
  5
C
330
0
100
AcDbDictionary
  3
ACAD_GROUP
350
D
  3
ACAD_LAYOUT
350
1A
  3
ACAD_MLINESTYLE
350
17
  3
ACAD_PLOTSETTINGS
350
19
  3
ACAD_TABLESTYLE
350
253
  3
ACAD_VISUALSTYLE
350
2A
1001
ACAD
1000
TREAT_AS_HARD
1070
     0
  0
DICTIONARY
  5
D
102
{ACAD_REACTORS
330
C
102
}
330
C
100
AcDbDictionary
1001
ACAD
1000
TREAT_AS_HARD
1070
     0
  0
DICTIONARY
  5
1A
102
{ACAD_REACTORS
330
C
102
}
330
C
100
AcDbDictionary
1001
ACAD
1000
TREAT_AS_HARD
1070
     0
  0
DICTIONARY
  5
17
102
{ACAD_REACTORS
330
C
102
}
330
C
100
AcDbDictionary
  3
STANDARD
350
18
1001
ACAD
1000
TREAT_AS_HARD
1070
     0
  0
DICTIONARY
  5
19
102
{ACAD_REACTORS
330
C
102
}
330
C
100
AcDbDictionary
1001
ACAD
1000
TREAT_AS_HARD
1070
     0
  0
DICTIONARY
  5
253
102
{ACAD_REACTORS
330
C
102
}
330
C
100
AcDbDictionary
1001
ACAD
1000
TREAT_AS_HARD
1070
     0
  0
DICTIONARY
  5
2A
102
{ACAD_REACTORS
330
C
102
}
330
C
100
AcDbDictionary
  3
2DWIREFRAME
350
2F
  3
3D_HIDDEN
350
31
  3
3DWIREFRAME
350
30
  3
BASIC
350
32
  3
BRIGHTEN
350
36
  3
COLORCHANGE
350
3A
  3
CONCEPTUAL
350
34
  3
DIM
350
35
  3
FACEPATTERN
350
39
  3
FLAT
350
2B
  3
FLATWITHEDGES
350
2C
  3
GOURAUD
350
2D
  3
GOURAUDWITHEDGES
350
2E
  3
LINEPATTERN
350
38
  3
REALISTIC
350
33
  3
THICKEN
350
37
1001
ACAD
1000
TREAT_AS_HARD
1070
     0
  0
MLINESTYLE
  5
18
102
{ACAD_REACTORS
330
17
102
}
330
17
100
AcDbMlineStyle
  2
Standard
 70
     0
  3

 62
   256
 51
90.0
 52
90.0
 71
     2
 49
0.5
 62
   256
  6
BYLAYER
 49
-0.5
 62
   256
  6
BYLAYER
  0
VISUALSTYLE
  5
2F
102
{ACAD_REACTORS
330
2A
102
}
330
2A
100
AcDbVisualStyle
  2
2dWireframe
 70
     4
 71
     0
 72
     2
 73
     0
 90
        0
 40
-0.6
 41
-30.0
 62
     5
 63
     7
 74
     1
 91
        4
 64
     7
 65
   257
 75
     1
175
     1
 42
1.0
 92
        0
 66
   257
 43
1.0
 76
     1
 77
     6
 78
     2
 67
     7
 79
     5
170
     0
171
     0
290
     0
174
     0
 93
        1
 44
0.0
173
     0
291
     0
 45
0.0
1001
ACAD
1000
AcDbSavedByObjectVersion
1070
     0
  0
VISUALSTYLE
  5
31
102
{ACAD_REACTORS
330
2A
102
}
330
2A
100
AcDbVisualStyle
  2
3D Hidden
 70
     6
 71
     1
 72
     2
 73
     2
 90
        0
 40
-0.6
 41
-30.0
 62
     5
 63
     7
 74
     2
 91
        2
 64
     7
 65
   257
 75
     2
175
     1
 42
40.0
 92
        0
 66
   257
 43
1.0
 76
     1
 77
     6
 78
     2
 67
     7
 79
     3
170
     0
171
     0
290
     0
174
     0
 93
        1
 44
0.0
173
     0
291
     0
 45
0.0
1001
ACAD
1000
AcDbSavedByObjectVersion
1070
     0
  0
VISUALSTYLE
  5
30
102
{ACAD_REACTORS
330
2A
102
}
330
2A
100
AcDbVisualStyle
  2
3dWireframe
 70
     5
 71
     0
 72
     2
 73
     0
 90
        0
 40
-0.6
 41
-30.0
 62
     5
 63
     7
 74
     1
 91
        4
 64
     7
 65
   257
 75
     1
175
     1
 42
1.0
 92
        0
 66
   257
 43
1.0
 76
     1
 77
     6
 78
     2
 67
     7
 79
     5
170
     0
171
     0
290
     0
174
     0
 93
        1
 44
0.0
173
     0
291
     0
 45
0.0
1001
ACAD
1000
AcDbSavedByObjectVersion
1070
     0
  0
VISUALSTYLE
  5
32
102
{ACAD_REACTORS
330
2A
102
}
330
2A
100
AcDbVisualStyle
  2
Basic
 70
     7
 71
     1
 72
     0
 73
     1
 90
        0
 40
-0.6
 41
-30.0
 62
     5
 63
     7
 74
     0
 91
        4
 64
     7
 65
   257
 75
     1
175
     1
 42
1.0
 92
        8
 66
     7
 43
1.0
 76
     1
 77
     6
 78
     2
 67
     7
 79
     5
170
     0
171
     0
290
     0
174
     0
 93
        1
 44
0.0
173
     0
291
     1
 45
0.0
1001
ACAD
1000
AcDbSavedByObjectVersion
1070
     0
  0
VISUALSTYLE
  5
36
102
{ACAD_REACTORS
330
2A
102
}
330
2A
100
AcDbVisualStyle
  2
Brighten
 70
    12
 71
     2
 72
     2
 73
     0
 90
        0
 40
-0.6
 41
-30.0
 62
     5
 63
     7
 74
     1
 91
        4
 64
     7
 65
   257
 75
     1
175
     1
 42
1.0
 92
        8
 66
     7
 43
1.0
 76
     1
 77
     6
 78
     2
 67
     7
 79
     5
170
     0
171
     0
290
     0
174
     0
 93
        1
 44
50.0
173
     0
291
     1
 45
0.0
1001
ACAD
1000
AcDbSavedByObjectVersion
1070
     0
  0
VISUALSTYLE
  5
3A
102
{ACAD_REACTORS
330
2A
102
}
330
2A
100
AcDbVisualStyle
  2
ColorChange
 70
    16
 71
     2
 72
     2
 73
     3
 90
        0
 40
-0.6
 41
-30.0
 62
     5
 63
     8
 74
     1
 91
        4
 64
     7
 65
   257
 75
     1
175
     1
 42
1.0
 92
        8
 66
     8
 43
1.0
 76
     1
 77
     6
 78
     2
 67
     7
 79
     5
170
     0
171
     0
290
     0
174
     0
 93
        1
 44
0.0
173
     0
291
     1
 45
0.0
1001
ACAD
1000
AcDbSavedByObjectVersion
1070
     0
  0
VISUALSTYLE
  5
34
102
{ACAD_REACTORS
330
2A
102
}
330
2A
100
AcDbVisualStyle
  2
Conceptual
 70
     9
 71
     3
 72
     2
 73
     0
 90
        0
 40
-0.6
 41
-30.0
 62
     5
 63
     7
 74
     2
 91
        2
 64
     7
 65
   257
 75
     1
175
     1
 42
40.0
 92
        8
 66
     7
 43
1.0
 76
     1
 77
     6
 78
     2
 67
     7
 79
     3
170
     0
171
     0
290
     0
174
     0
 93
        1
 44
0.0
173
     0
291
     0
 45
0.0
1001
ACAD
1000
AcDbSavedByObjectVersion
1070
     0
  0
VISUALSTYLE
  5
35
102
{ACAD_REACTORS
330
2A
102
}
330
2A
100
AcDbVisualStyle
  2
Dim
 70
    11
 71
     2
 72
     2
 73
     0
 90
        0
 40
-0.6
 41
-30.0
 62
     5
 63
     7
 74
     1
 91
        4
 64
     7
 65
   257
 75
     1
175
     1
 42
1.0
 92
        8
 66
     7
 43
1.0
 76
     1
 77
     6
 78
     2
 67
     7
 79
     5
170
     0
171
     0
290
     0
174
     0
 93
        1
 44
-50.0
173
     0
291
     1
 45
0.0
1001
ACAD
1000
AcDbSavedByObjectVersion
1070
     0
  0
VISUALSTYLE
  5
39
102
{ACAD_REACTORS
330
2A
102
}
330
2A
100
AcDbVisualStyle
  2
Facepattern
 70
    15
 71
     2
 72
     2
 73
     0
 90
        0
 40
-0.6
 41
-30.0
 62
     5
 63
     7
 74
     1
 91
        4
 64
     7
 65
   257
 75
     1
175
     1
 42
1.0
 92
        8
 66
     7
 43
1.0
 76
     1
 77
     6
 78
     2
 67
     7
 79
     5
170
     0
171
     0
290
     0
174
     0
 93
        1
 44
0.0
173
     0
291
     1
 45
0.0
1001
ACAD
1000
AcDbSavedByObjectVersion
1070
     0
  0
VISUALSTYLE
  5
2B
102
{ACAD_REACTORS
330
2A
102
}
330
2A
100
AcDbVisualStyle
  2
Flat
 70
     0
 71
     2
 72
     1
 73
     1
 90
        2
 40
-0.6
 41
30.0
 62
     5
 63
     7
 74
     0
 91
        4
 64
     7
 65
   257
 75
     1
175
     1
 42
1.0
 92
        8
 66
     7
 43
1.0
 76
     1
 77
     6
 78
     2
 67
     7
 79
     5
170
     0
171
     0
290
     0
174
     0
 93
       13
 44
0.0
173
     0
291
     1
 45
0.0
1001
ACAD
1000
AcDbSavedByObjectVersion
1070
     0
  0
VISUALSTYLE
  5
2C
102
{ACAD_REACTORS
330
2A
102
}
330
2A
100
AcDbVisualStyle
  2
FlatWithEdges
 70
     1
 71
     2
 72
     1
 73
     1
 90
        2
 40
-0.6
 41
30.0
 62
     5
 63
     7
 74
     1
 91
        4
 64
     7
 65
   257
 75
     1
175
     1
 42
1.0
 92
        0
 66
   257
 43
1.0
 76
     1
 77
     6
 78
     2
 67
     7
 79
     5
170
     0
171
     0
290
     0
174
     0
 93
       13
 44
0.0
173
     0
291
     1
 45
0.0
1001
ACAD
1000
AcDbSavedByObjectVersion
1070
     0
  0
VISUALSTYLE
  5
2D
102
{ACAD_REACTORS
330
2A
102
}
330
2A
100
AcDbVisualStyle
  2
Gouraud
 70
     2
 71
     2
 72
     2
 73
     1
 90
        2
 40
-0.6
 41
30.0
 62
     5
 63
     7
 74
     0
 91
        4
 64
     7
 65
   257
 75
     1
175
     1
 42
1.0
 92
        0
 66
     7
 43
1.0
 76
     1
 77
     6
 78
     2
 67
     7
 79
     5
170
     0
171
     0
290
     0
174
     0
 93
       13
 44
0.0
173
     0
291
     1
 45
0.0
1001
ACAD
1000
AcDbSavedByObjectVersion
1070
     0
  0
VISUALSTYLE
  5
2E
102
{ACAD_REACTORS
330
2A
102
}
330
2A
100
AcDbVisualStyle
  2
GouraudWithEdges
 70
     3
 71
     2
 72
     2
 73
     1
 90
        2
 40
-0.6
 41
30.0
 62
     5
 63
     7
 74
     1
 91
        4
 64
     7
 65
   257
 75
     1
175
     1
 42
1.0
 92
        0
 66
   257
 43
1.0
 76
     1
 77
     6
 78
     2
 67
     7
 79
     5
170
     0
171
     0
290
     0
174
     0
 93
       13
 44
0.0
173
     0
291
     1
 45
0.0
1001
ACAD
1000
AcDbSavedByObjectVersion
1070
     0
  0
VISUALSTYLE
  5
38
102
{ACAD_REACTORS
330
2A
102
}
330
2A
100
AcDbVisualStyle
  2
Linepattern
 70
    14
 71
     2
 72
     2
 73
     0
 90
        0
 40
-0.6
 41
-30.0
 62
     5
 63
     7
 74
     1
 91
        4
 64
     7
 65
   257
 75
     7
175
     7
 42
1.0
 92
        8
 66
     7
 43
1.0
 76
     1
 77
     6
 78
     2
 67
     7
 79
     5
170
     0
171
     0
290
     0
174
     0
 93
        1
 44
0.0
173
     0
291
     1
 45
0.0
1001
ACAD
1000
AcDbSavedByObjectVersion
1070
     0
  0
VISUALSTYLE
  5
33
102
{ACAD_REACTORS
330
2A
102
}
330
2A
100
AcDbVisualStyle
  2
Realistic
 70
     8
 71
     2
 72
     2
 73
     0
 90
        0
 40
-0.6
 41
-30.0
 62
     5
 63
     7
 74
     1
 91
        0
 64
     7
 65
   257
 75
     1
175
     1
 42
1.0
 92
        8
 66
     8
 43
1.0
 76
     1
 77
     6
 78
     2
 67
     7
 79
     5
170
     0
171
     0
290
     0
174
     0
 93
       13
 44
0.0
173
     0
291
     0
 45
0.0
1001
ACAD
1000
AcDbSavedByObjectVersion
1070
     0
  0
VISUALSTYLE
  5
37
102
{ACAD_REACTORS
330
2A
102
}
330
2A
100
AcDbVisualStyle
  2
Thicken
 70
    13
 71
     2
 72
     2
 73
     0
 90
        0
 40
-0.6
 41
-30.0
 62
     5
 63
     7
 74
     1
 91
        4
 64
     7
 65
   257
 75
     1
175
     1
 42
1.0
 92
       12
 66
     7
 43
1.0
 76
     1
 77
     6
 78
     2
 67
     7
 79
     5
170
     0
171
     0
290
     0
174
     0
 93
        1
 44
0.0
173
     0
291
     1
 45
0.0
1001
ACAD
1000
AcDbSavedByObjectVersion
1070
     0
  0
ENDSEC
  0
EOF
