<?xml version="1.0" encoding="utf-8"?>
<!-- Generator: Adobe Illustrator 16.0.3, SVG Export Plug-In . SVG Version: 6.00 Build 0)  -->
<!DOCTYPE svg PUBLIC "-//W3C//DTD SVG 1.1//EN" "http://www.w3.org/Graphics/SVG/1.1/DTD/svg11.dtd">
<svg version="1.1" xmlns="http://www.w3.org/2000/svg" xmlns:xlink="http://www.w3.org/1999/xlink" x="0px" y="0px"
	 width="595.28px" height="841.89px" viewBox="0 0 595.28 841.89" enable-background="new 0 0 595.28 841.89" xml:space="preserve">
<g id="CutLine">
	<polyline fill="none" stroke="#000000" stroke-width="2" stroke-linecap="round" stroke-linejoin="round" points="64.524,686.443 
		64.524,91.746 530.759,91.746 530.759,686.443 	"/>
	
		<line fill="none" stroke="#000000" stroke-width="2" stroke-linecap="round" stroke-linejoin="round" x1="530.759" y1="686.443" x2="64.524" y2="686.443"/>
	<polyline fill="none" stroke="#000000" stroke-width="2" stroke-linecap="round" stroke-linejoin="round" points="209.243,693.939 
		209.243,815.271 386.039,815.271 386.039,791.467 	"/>
	<g id="LINE_2_">
		<polyline fill="none" stroke="#000000" stroke-width="2" stroke-linecap="round" stroke-linejoin="round" points="
			386.039,791.467 377.755,791.049 369.527,789.805 361.413,787.754 353.457,784.93 345.708,781.389 338.186,777.184 
			330.917,772.389 323.889,767.084 317.093,761.363 310.491,755.322 304.029,749.066 297.642,742.703 291.254,736.338 
			284.792,730.082 278.19,724.043 271.396,718.32 264.369,713.018 257.099,708.221 249.578,704.018 241.826,700.475 233.872,697.65 
			225.756,695.602 217.529,694.357 209.243,693.939 		"/>
	</g>
</g>
<g id="ValleyLine">
	
		<line fill="none" stroke="#000000" stroke-linecap="round" stroke-linejoin="round" x1="505.089" y1="599.721" x2="530.759" y2="574.055"/>
	
		<line fill="none" stroke="#000000" stroke-linecap="round" stroke-linejoin="round" x1="505.089" y1="454.586" x2="530.757" y2="428.918"/>
	
		<line fill="none" stroke="#000000" stroke-linecap="round" stroke-linejoin="round" x1="505.089" y1="309.45" x2="530.757" y2="283.783"/>
	
		<line fill="none" stroke="#000000" stroke-linecap="round" stroke-linejoin="round" x1="505.087" y1="164.314" x2="530.757" y2="138.646"/>
	
		<line fill="none" stroke="#000000" stroke-linecap="round" stroke-linejoin="round" x1="88.755" y1="455.924" x2="64.524" y2="480.158"/>
	
		<line fill="none" stroke="#000000" stroke-linecap="round" stroke-linejoin="round" x1="88.755" y1="308.109" x2="64.524" y2="332.343"/>
	
		<line fill="none" stroke="#000000" stroke-linecap="round" stroke-linejoin="round" x1="88.755" y1="165.655" x2="64.521" y2="189.888"/>
	
		<line fill="none" stroke="#000000" stroke-linecap="round" stroke-linejoin="round" x1="88.757" y1="598.381" x2="64.524" y2="622.613"/>
	<g id="LINE_67_">
		<path fill="none" stroke="#000000" stroke-linecap="round" stroke-linejoin="round" d="M206.518,686.443"/>
		
			<line fill="none" stroke="#000000" stroke-linecap="round" stroke-linejoin="round" x1="206.518" y1="550.959" x2="206.518" y2="686.443"/>
	</g>
	<g id="LINE_66_">
		
			<line fill="none" stroke="#000000" stroke-linecap="round" stroke-linejoin="round" x1="383.312" y1="405.824" x2="383.312" y2="648.484"/>
	</g>
	<g id="LINE_65_">
		
			<line fill="none" stroke="#000000" stroke-linecap="round" stroke-linejoin="round" x1="206.518" y1="260.688" x2="206.518" y2="503.348"/>
	</g>
	<g id="LINE_64_">
		
			<line fill="none" stroke="#000000" stroke-linecap="round" stroke-linejoin="round" x1="383.31" y1="115.551" x2="383.31" y2="358.214"/>
	</g>
	
		<line fill="none" stroke="#000000" stroke-linecap="round" stroke-linejoin="round" x1="206.515" y1="91.746" x2="206.515" y2="213.078"/>
	
		<line fill="none" stroke="#000000" stroke-linecap="round" stroke-linejoin="round" x1="159.093" y1="455.926" x2="159.093" y2="598.381"/>
	
		<line fill="none" stroke="#000000" stroke-linecap="round" stroke-linejoin="round" x1="159.091" y1="165.655" x2="159.091" y2="308.109"/>
	
		<line fill="none" stroke="#000000" stroke-linecap="round" stroke-linejoin="round" x1="432.075" y1="312.13" x2="432.075" y2="454.584"/>
	
		<line fill="none" stroke="#000000" stroke-linecap="round" stroke-linejoin="round" x1="432.075" y1="91.746" x2="432.075" y2="164.314"/>
	
		<line fill="none" stroke="#000000" stroke-linecap="round" stroke-linejoin="round" x1="432.075" y1="599.721" x2="432.075" y2="686.443"/>
</g>
<g id="MountainLine">
	<g id="LINE_39_">
		
			<line fill="none" stroke="#000000" stroke-linecap="round" stroke-linejoin="round" stroke-dasharray="4" x1="432.075" y1="454.584" x2="530.759" y2="454.584"/>
	</g>
	<g id="LINE_38_">
		
			<line fill="none" stroke="#000000" stroke-linecap="round" stroke-linejoin="round" stroke-dasharray="4" x1="432.075" y1="599.721" x2="530.759" y2="599.721"/>
	</g>
	<g id="LINE_37_">
		
			<line fill="none" stroke="#000000" stroke-linecap="round" stroke-linejoin="round" stroke-dasharray="4" x1="432.074" y1="309.45" x2="530.759" y2="309.45"/>
	</g>
	<g id="LINE_36_">
		
			<line fill="none" stroke="#000000" stroke-linecap="round" stroke-linejoin="round" stroke-dasharray="4" x1="432.074" y1="164.314" x2="530.759" y2="164.314"/>
	</g>
	<g id="LINE_35_">
		
			<line fill="none" stroke="#000000" stroke-linecap="round" stroke-linejoin="round" stroke-dasharray="4" x1="64.524" y1="598.381" x2="159.093" y2="598.381"/>
	</g>
	<g id="LINE_34_">
		
			<line fill="none" stroke="#000000" stroke-linecap="round" stroke-linejoin="round" stroke-dasharray="4" x1="64.524" y1="308.109" x2="159.091" y2="308.109"/>
	</g>
	<g id="LINE_33_">
		
			<line fill="none" stroke="#000000" stroke-linecap="round" stroke-linejoin="round" stroke-dasharray="4" x1="64.524" y1="455.924" x2="159.093" y2="455.924"/>
	</g>
	<g id="LINE_32_">
		
			<line fill="none" stroke="#000000" stroke-linecap="round" stroke-linejoin="round" stroke-dasharray="4" x1="64.524" y1="165.655" x2="159.091" y2="165.655"/>
	</g>
	<g id="LINE_31_">
		
			<line fill="none" stroke="#000000" stroke-linecap="round" stroke-linejoin="round" stroke-dasharray="4" x1="88.757" y1="686.443" x2="88.757" y2="93.125"/>
	</g>
	<g id="LINE_30_">
		<path fill="none" stroke="#000000" stroke-linecap="round" stroke-linejoin="round" stroke-dasharray="4" d="M505.089,686.445"/>
		
			<line fill="none" stroke="#000000" stroke-linecap="round" stroke-linejoin="round" stroke-dasharray="4" x1="505.089" y1="91.746" x2="505.089" y2="686.445"/>
	</g>
	<g id="LINE_29_">
		
			<line fill="none" stroke="#000000" stroke-linecap="round" stroke-linejoin="round" stroke-dasharray="4" x1="432.075" y1="164.314" x2="432.075" y2="309.45"/>
	</g>
	<g id="LINE_28_">
		
			<line fill="none" stroke="#000000" stroke-linecap="round" stroke-linejoin="round" stroke-dasharray="4" x1="159.093" y1="308.109" x2="159.093" y2="455.924"/>
	</g>
	<g id="LINE_27_">
		
			<line fill="none" stroke="#000000" stroke-linecap="round" stroke-linejoin="round" stroke-dasharray="4" x1="432.075" y1="454.584" x2="432.075" y2="599.721"/>
	</g>
	<g id="LINE_26_">
		
			<line fill="none" stroke="#000000" stroke-linecap="round" stroke-linejoin="round" stroke-dasharray="4" x1="159.091" y1="91.748" x2="159.091" y2="165.655"/>
	</g>
	<g id="LINE_25_">
		
			<line fill="none" stroke="#000000" stroke-linecap="round" stroke-linejoin="round" stroke-dasharray="4" x1="159.093" y1="598.381" x2="159.093" y2="686.443"/>
	</g>
	<g id="LINE_24_">
		
			<line fill="none" stroke="#000000" stroke-linecap="round" stroke-linejoin="round" stroke-dasharray="4" x1="206.518" y1="503.348" x2="206.518" y2="550.959"/>
	</g>
	<g id="LINE_23_">
		<path fill="none" stroke="#000000" stroke-linecap="round" stroke-linejoin="round" stroke-dasharray="4" d="M383.312,686.445"/>
		
			<line fill="none" stroke="#000000" stroke-linecap="round" stroke-linejoin="round" stroke-dasharray="4" x1="383.312" y1="648.484" x2="383.312" y2="686.445"/>
	</g>
	<g id="LINE_22_">
		
			<line fill="none" stroke="#000000" stroke-linecap="round" stroke-linejoin="round" stroke-dasharray="4" x1="206.515" y1="213.078" x2="206.518" y2="260.688"/>
	</g>
	<g id="LINE_21_">
		
			<line fill="none" stroke="#000000" stroke-linecap="round" stroke-linejoin="round" stroke-dasharray="4" x1="383.31" y1="358.214" x2="383.31" y2="405.824"/>
	</g>
	
		<line fill="none" stroke="#000000" stroke-linecap="round" stroke-linejoin="round" stroke-dasharray="4" x1="383.31" y1="91.746" x2="383.31" y2="115.551"/>
	<g id="LINE_20_">
		<polyline fill="none" stroke="#000000" stroke-linecap="round" stroke-linejoin="round" stroke-dasharray="4" points="
			383.312,648.484 375.028,648.066 366.8,646.822 358.686,644.773 350.732,641.951 342.979,638.406 335.46,634.201 328.188,629.406 
			321.161,624.102 314.366,618.383 307.765,612.342 301.303,606.086 294.914,599.721 288.526,593.354 282.065,587.102 
			275.463,581.059 268.667,575.34 261.645,570.035 254.371,565.24 246.85,561.035 239.098,557.49 231.146,554.67 223.029,552.619 
			214.802,551.375 206.518,550.959 		"/>
	</g>
	<g id="LINE_19_">
		
			<line fill="none" stroke="#000000" stroke-linecap="round" stroke-linejoin="round" stroke-dasharray="4" x1="383.312" y1="648.484" x2="432.075" y2="599.721"/>
	</g>
	<g id="LINE_18_">
		<polyline fill="none" stroke="#000000" stroke-linecap="round" stroke-linejoin="round" stroke-dasharray="4" points="
			383.31,358.214 375.027,357.795 366.8,356.551 358.686,354.501 350.729,351.68 342.979,348.138 335.457,343.929 328.188,339.135 
			321.161,333.831 314.366,328.111 307.765,322.071 301.301,315.815 294.914,309.45 288.525,303.085 282.065,296.829 
			275.463,290.79 268.667,285.069 261.642,279.765 254.371,274.969 246.85,270.765 239.097,267.22 231.144,264.398 223.029,262.349 
			214.802,261.104 206.518,260.688 		"/>
	</g>
	<g id="LINE_17_">
		
			<line fill="none" stroke="#000000" stroke-linecap="round" stroke-linejoin="round" stroke-dasharray="4" x1="383.31" y1="358.214" x2="432.074" y2="309.45"/>
	</g>
	<g id="LINE_16_">
		
			<line fill="none" stroke="#000000" stroke-linecap="round" stroke-linejoin="round" stroke-dasharray="4" x1="159.093" y1="455.924" x2="206.518" y2="503.348"/>
	</g>
	<g id="LINE_15_">
		<polyline fill="none" stroke="#000000" stroke-linecap="round" stroke-linejoin="round" stroke-dasharray="4" points="
			383.312,405.824 375.027,406.241 366.8,407.486 358.686,409.534 350.732,412.357 342.979,415.899 335.46,420.105 328.188,424.9 
			321.161,430.205 314.366,435.924 307.765,441.965 301.303,448.221 294.914,454.586 288.525,460.949 282.065,467.207 
			275.463,473.244 268.667,478.967 261.645,484.271 254.371,489.066 246.85,493.271 239.098,496.816 231.146,499.637 
			223.029,501.688 214.802,502.932 206.518,503.348 		"/>
	</g>
	<g id="LINE_14_">
		
			<line fill="none" stroke="#000000" stroke-linecap="round" stroke-linejoin="round" stroke-dasharray="4" x1="383.312" y1="405.824" x2="432.075" y2="454.584"/>
	</g>
	<g id="LINE_13_">
		
			<line fill="none" stroke="#000000" stroke-linecap="round" stroke-linejoin="round" stroke-dasharray="4" x1="159.091" y1="165.655" x2="206.515" y2="213.078"/>
	</g>
	<g id="LINE_11_">
		<polyline fill="none" stroke="#000000" stroke-linecap="round" stroke-linejoin="round" stroke-dasharray="4" points="
			383.31,115.551 375.027,115.97 366.8,117.214 358.686,119.263 350.729,122.085 342.979,125.628 335.457,129.834 328.188,134.629 
			321.161,139.933 314.366,145.655 307.765,151.694 301.301,157.95 294.914,164.314 288.525,170.679 282.065,176.935 
			275.463,182.975 268.667,188.697 261.642,194 254.371,198.796 246.85,203 239.097,206.543 231.144,209.366 223.029,211.416 
			214.802,212.66 206.515,213.078 		"/>
	</g>
	<g id="LINE_9_">
		
			<line fill="none" stroke="#000000" stroke-linecap="round" stroke-linejoin="round" stroke-dasharray="4" x1="383.31" y1="115.551" x2="432.074" y2="164.314"/>
	</g>
	<g id="LINE_8_">
		
			<line fill="none" stroke="#000000" stroke-linecap="round" stroke-linejoin="round" stroke-dasharray="4" x1="159.093" y1="598.381" x2="206.518" y2="550.959"/>
	</g>
	<g id="LINE_7_">
		
			<line fill="none" stroke="#000000" stroke-linecap="round" stroke-linejoin="round" stroke-dasharray="4" x1="159.091" y1="308.109" x2="206.518" y2="260.688"/>
	</g>
	
		<line fill="none" stroke="#000000" stroke-width="0.25" stroke-linecap="round" stroke-linejoin="round" x1="530.759" y1="673.232" x2="64.524" y2="673.232"/>
</g>
<g id="Text">
	<text transform="matrix(1 0 0 1 432.3096 815.2715)" font-family="'ArialMT'" font-size="14">(c) 2016 Jun Mitani</text>
	<text transform="matrix(1 0 0 1 31.7119 42.1099)" font-family="'ArialMT'" font-size="18">Corrugated Square Pillar Unit</text>
	<text transform="matrix(1 0 0 1 308.0977 733.7051)" font-family="'ArialMT'" font-size="12">Template</text>
</g>
</svg>
