<?xml version="1.0" encoding="utf-8"?>
<!-- Generator: Adobe Illustrator 16.0.3, SVG Export Plug-In . SVG Version: 6.00 Build 0)  -->
<!DOCTYPE svg PUBLIC "-//W3C//DTD SVG 1.1//EN" "http://www.w3.org/Graphics/SVG/1.1/DTD/svg11.dtd">
<svg version="1.1" xmlns="http://www.w3.org/2000/svg" xmlns:xlink="http://www.w3.org/1999/xlink" x="0px" y="0px"
	 width="595.28px" height="841.89px" viewBox="0 0 595.28 841.89" enable-background="new 0 0 595.28 841.89" xml:space="preserve">
<g id="CutLine">
	<polyline fill="none" stroke="#000000" stroke-width="2" stroke-linecap="round" stroke-linejoin="round" points="44.478,105.712 
		44.478,736.178 550.806,736.178 550.806,105.712 	"/>
	
		<line fill="none" stroke="#000000" stroke-width="2" stroke-linecap="round" stroke-linejoin="round" x1="550.806" y1="105.712" x2="44.478" y2="105.712"/>
</g>
<g id="ValleyLine">
	
		<line fill="none" stroke="#000000" stroke-linecap="round" stroke-linejoin="round" stroke-dasharray="4" x1="522.929" y1="184.521" x2="550.806" y2="212.395"/>
	
		<line fill="none" stroke="#000000" stroke-linecap="round" stroke-linejoin="round" stroke-dasharray="4" x1="522.929" y1="342.137" x2="550.805" y2="370.012"/>
	
		<line fill="none" stroke="#000000" stroke-linecap="round" stroke-linejoin="round" stroke-dasharray="4" x1="522.929" y1="499.753" x2="550.805" y2="527.628"/>
	
		<line fill="none" stroke="#000000" stroke-linecap="round" stroke-linejoin="round" stroke-dasharray="4" x1="522.928" y1="657.37" x2="550.804" y2="685.245"/>
	
		<line fill="none" stroke="#000000" stroke-linecap="round" stroke-linejoin="round" stroke-dasharray="4" x1="70.793" y1="340.683" x2="44.478" y2="314.365"/>
	
		<line fill="none" stroke="#000000" stroke-linecap="round" stroke-linejoin="round" stroke-dasharray="4" x1="70.793" y1="501.208" x2="44.478" y2="474.891"/>
	
		<line fill="none" stroke="#000000" stroke-linecap="round" stroke-linejoin="round" stroke-dasharray="4" x1="70.793" y1="655.913" x2="44.476" y2="629.598"/>
	
		<line fill="none" stroke="#000000" stroke-linecap="round" stroke-linejoin="round" stroke-dasharray="4" x1="70.795" y1="185.976" x2="44.478" y2="159.659"/>
	<g id="LINE_12_">
		<path fill="none" stroke="#000000" stroke-linecap="round" stroke-linejoin="round" stroke-dasharray="4" d="M198.682,105.712"/>
		
			<line fill="none" stroke="#000000" stroke-linecap="round" stroke-linejoin="round" stroke-dasharray="4" x1="198.682" y1="237.476" x2="198.682" y2="105.712"/>
	</g>
	<g id="LINE_10_">
		
			<line fill="none" stroke="#000000" stroke-linecap="round" stroke-linejoin="round" stroke-dasharray="4" x1="390.68" y1="395.092" x2="390.68" y2="131.565"/>
	</g>
	<g id="LINE_5_">
		
			<line fill="none" stroke="#000000" stroke-linecap="round" stroke-linejoin="round" stroke-dasharray="4" x1="198.682" y1="552.707" x2="198.682" y2="289.181"/>
	</g>
	<g id="LINE_1_">
		
			<line fill="none" stroke="#000000" stroke-linecap="round" stroke-linejoin="round" stroke-dasharray="4" x1="390.678" y1="710.326" x2="390.678" y2="446.795"/>
	</g>
	
		<line fill="none" stroke="#000000" stroke-linecap="round" stroke-linejoin="round" stroke-dasharray="4" x1="198.68" y1="736.178" x2="198.68" y2="604.412"/>
	
		<line fill="none" stroke="#000000" stroke-linecap="round" stroke-linejoin="round" stroke-dasharray="4" x1="147.179" y1="340.681" x2="147.179" y2="185.976"/>
	
		<line fill="none" stroke="#000000" stroke-linecap="round" stroke-linejoin="round" stroke-dasharray="4" x1="147.177" y1="655.913" x2="147.177" y2="501.208"/>
	
		<line fill="none" stroke="#000000" stroke-linecap="round" stroke-linejoin="round" stroke-dasharray="4" x1="443.637" y1="496.843" x2="443.637" y2="342.138"/>
	
		<line fill="none" stroke="#000000" stroke-linecap="round" stroke-linejoin="round" stroke-dasharray="4" x1="443.637" y1="736.178" x2="443.637" y2="657.37"/>
	
		<line fill="none" stroke="#000000" stroke-linecap="round" stroke-linejoin="round" stroke-dasharray="4" x1="443.637" y1="184.521" x2="443.637" y2="105.712"/>
</g>
<g id="MountainLine">
	<g id="LINE_70_">
		
			<line fill="none" stroke="#000000" stroke-linecap="round" stroke-linejoin="round" x1="443.637" y1="342.138" x2="550.806" y2="342.138"/>
	</g>
	<g id="LINE_69_">
		
			<line fill="none" stroke="#000000" stroke-linecap="round" stroke-linejoin="round" x1="443.637" y1="184.521" x2="550.806" y2="184.521"/>
	</g>
	<g id="LINE_68_">
		
			<line fill="none" stroke="#000000" stroke-linecap="round" stroke-linejoin="round" x1="443.635" y1="499.753" x2="550.806" y2="499.753"/>
	</g>
	<g id="LINE_67_">
		
			<line fill="none" stroke="#000000" stroke-linecap="round" stroke-linejoin="round" x1="443.635" y1="657.37" x2="550.806" y2="657.37"/>
	</g>
	<g id="LINE_66_">
		
			<line fill="none" stroke="#000000" stroke-linecap="round" stroke-linejoin="round" x1="44.478" y1="185.976" x2="147.179" y2="185.976"/>
	</g>
	<g id="LINE_65_">
		
			<line fill="none" stroke="#000000" stroke-linecap="round" stroke-linejoin="round" x1="44.478" y1="501.208" x2="147.177" y2="501.208"/>
	</g>
	<g id="LINE_64_">
		
			<line fill="none" stroke="#000000" stroke-linecap="round" stroke-linejoin="round" x1="44.478" y1="340.683" x2="147.179" y2="340.683"/>
	</g>
	<g id="LINE_63_">
		
			<line fill="none" stroke="#000000" stroke-linecap="round" stroke-linejoin="round" x1="44.478" y1="655.913" x2="147.177" y2="655.913"/>
	</g>
	<g id="LINE_62_">
		
			<line fill="none" stroke="#000000" stroke-linecap="round" stroke-linejoin="round" x1="70.795" y1="105.712" x2="70.795" y2="734.681"/>
	</g>
	<g id="LINE_61_">
		<path fill="none" stroke="#000000" stroke-linecap="round" stroke-linejoin="round" d="M522.929,105.712"/>
		
			<line fill="none" stroke="#000000" stroke-linecap="round" stroke-linejoin="round" x1="522.929" y1="736.178" x2="522.929" y2="105.712"/>
	</g>
	<g id="LINE_60_">
		
			<line fill="none" stroke="#000000" stroke-linecap="round" stroke-linejoin="round" x1="443.637" y1="657.37" x2="443.637" y2="499.753"/>
	</g>
	<g id="LINE_59_">
		
			<line fill="none" stroke="#000000" stroke-linecap="round" stroke-linejoin="round" x1="147.179" y1="501.208" x2="147.179" y2="340.683"/>
	</g>
	<g id="LINE_58_">
		
			<line fill="none" stroke="#000000" stroke-linecap="round" stroke-linejoin="round" x1="443.637" y1="342.138" x2="443.637" y2="184.521"/>
	</g>
	<g id="LINE_57_">
		
			<line fill="none" stroke="#000000" stroke-linecap="round" stroke-linejoin="round" x1="147.177" y1="736.176" x2="147.177" y2="655.913"/>
	</g>
	<g id="LINE_56_">
		
			<line fill="none" stroke="#000000" stroke-linecap="round" stroke-linejoin="round" x1="147.179" y1="185.976" x2="147.179" y2="105.713"/>
	</g>
	<g id="LINE_55_">
		
			<line fill="none" stroke="#000000" stroke-linecap="round" stroke-linejoin="round" x1="198.682" y1="289.181" x2="198.682" y2="237.476"/>
	</g>
	<g id="LINE_54_">
		<path fill="none" stroke="#000000" stroke-linecap="round" stroke-linejoin="round" d="M390.68,105.712"/>
		
			<line fill="none" stroke="#000000" stroke-linecap="round" stroke-linejoin="round" x1="390.68" y1="131.565" x2="390.68" y2="105.712"/>
	</g>
	<g id="LINE_53_">
		
			<line fill="none" stroke="#000000" stroke-linecap="round" stroke-linejoin="round" x1="198.68" y1="604.412" x2="198.682" y2="552.707"/>
	</g>
	<g id="LINE_52_">
		
			<line fill="none" stroke="#000000" stroke-linecap="round" stroke-linejoin="round" x1="390.678" y1="446.795" x2="390.678" y2="395.092"/>
	</g>
	
		<line fill="none" stroke="#000000" stroke-linecap="round" stroke-linejoin="round" x1="390.678" y1="736.178" x2="390.678" y2="710.326"/>
	<g id="LINE_51_">
		<polyline fill="none" stroke="#000000" stroke-linecap="round" stroke-linejoin="round" points="390.68,131.565 381.685,132.018 
			372.747,133.369 363.935,135.595 355.298,138.659 346.879,142.508 338.713,147.075 330.814,152.283 323.185,158.043 
			315.805,164.254 308.635,170.815 301.618,177.608 294.681,184.521 287.744,191.434 280.726,198.226 273.557,204.786 
			266.177,210.999 258.549,216.758 250.65,221.966 242.483,226.533 234.064,230.381 225.428,233.445 216.613,235.671 
			207.679,237.023 198.682,237.476 		"/>
	</g>
	<g id="LINE_50_">
		
			<line fill="none" stroke="#000000" stroke-linecap="round" stroke-linejoin="round" x1="390.68" y1="131.565" x2="443.637" y2="184.521"/>
	</g>
	<g id="LINE_49_">
		<polyline fill="none" stroke="#000000" stroke-linecap="round" stroke-linejoin="round" points="390.678,446.795 381.682,447.25 
			372.747,448.603 363.935,450.828 355.294,453.891 346.879,457.739 338.71,462.309 330.814,467.515 323.184,473.275 
			315.805,479.488 308.635,486.047 301.616,492.84 294.681,499.753 287.742,506.664 280.726,513.46 273.557,520.019 
			266.177,526.231 258.547,531.989 250.65,537.199 242.483,541.765 234.063,545.614 225.426,548.678 216.613,550.904 
			207.679,552.257 198.682,552.707 		"/>
	</g>
	<g id="LINE_48_">
		
			<line fill="none" stroke="#000000" stroke-linecap="round" stroke-linejoin="round" x1="390.678" y1="446.795" x2="443.635" y2="499.753"/>
	</g>
	<g id="LINE_47_">
		
			<line fill="none" stroke="#000000" stroke-linecap="round" stroke-linejoin="round" x1="147.179" y1="340.683" x2="198.682" y2="289.181"/>
	</g>
	<g id="LINE_46_">
		<polyline fill="none" stroke="#000000" stroke-linecap="round" stroke-linejoin="round" points="390.68,395.092 381.682,394.64 
			372.747,393.288 363.935,391.063 355.298,387.998 346.879,384.149 338.713,379.582 330.814,374.374 323.184,368.615 
			315.805,362.403 308.635,355.843 301.618,349.048 294.681,342.137 287.742,335.225 280.726,328.43 273.557,321.873 
			266.177,315.659 258.549,309.898 250.65,304.69 242.483,300.124 234.064,296.276 225.428,293.211 216.613,290.984 
			207.679,289.634 198.682,289.181 		"/>
	</g>
	<g id="LINE_45_">
		
			<line fill="none" stroke="#000000" stroke-linecap="round" stroke-linejoin="round" x1="390.68" y1="395.092" x2="443.637" y2="342.138"/>
	</g>
	<g id="LINE_44_">
		
			<line fill="none" stroke="#000000" stroke-linecap="round" stroke-linejoin="round" x1="147.177" y1="655.913" x2="198.68" y2="604.412"/>
	</g>
	<g id="LINE_43_">
		<polyline fill="none" stroke="#000000" stroke-linecap="round" stroke-linejoin="round" points="390.678,710.326 381.682,709.872 
			372.747,708.521 363.935,706.295 355.294,703.229 346.879,699.382 338.71,694.814 330.814,689.606 323.184,683.849 
			315.805,677.634 308.635,671.074 301.616,664.281 294.681,657.37 287.742,650.457 280.726,643.664 273.557,637.104 
			266.177,630.891 258.547,625.132 250.65,619.922 242.483,615.356 234.063,611.51 225.426,608.443 216.613,606.218 
			207.679,604.866 198.68,604.412 		"/>
	</g>
	<g id="LINE_42_">
		
			<line fill="none" stroke="#000000" stroke-linecap="round" stroke-linejoin="round" x1="390.678" y1="710.326" x2="443.635" y2="657.37"/>
	</g>
	<g id="LINE_41_">
		
			<line fill="none" stroke="#000000" stroke-linecap="round" stroke-linejoin="round" x1="147.179" y1="185.976" x2="198.682" y2="237.476"/>
	</g>
	<g id="LINE_40_">
		
			<line fill="none" stroke="#000000" stroke-linecap="round" stroke-linejoin="round" x1="147.177" y1="501.208" x2="198.682" y2="552.707"/>
	</g>
</g>
<g id="Text">
	<text transform="matrix(1 0 0 1 432.3096 815.2715)" font-family="'ArialMT'" font-size="14">(c) 2016 Jun Mitani</text>
	<text transform="matrix(1 0 0 1 31.7119 42.1099)" font-family="'ArialMT'" font-size="18">Combination of Corrugated Square Pillar Units</text>
</g>
</svg>
