  0
SECTION
  2
HEADER
  9
$ACADVER
  1
AC1012
  9
$DWGCODEPAGE
  3
ansi_932
  9
$INSBASE
 10
0.0
 20
0.0
 30
0.0
  9
$EXTMIN
 10
1.000000000000000E+20
 20
1.000000000000000E+20
 30
1.000000000000000E+20
  9
$EXTMAX
 10
-1.000000000000000E+20
 20
-1.000000000000000E+20
 30
-1.000000000000000E+20
  9
$LIMMIN
 10
0.0
 20
0.0
  9
$LIMMAX
 10
12.0
 20
9.0
  9
$ORTHOMODE
 70
     0
  9
$REGENMODE
 70
     1
  9
$FILLMODE
 70
     1
  9
$QTEXTMODE
 70
     0
  9
$MIRRTEXT
 70
     1
  9
$DRAGMODE
 70
     2
  9
$LTSCALE
 40
1.0
  9
$OSMODE
 70
    37
  9
$ATTMODE
 70
     1
  9
$TEXTSIZE
 40
0.2
  9
$TRACEWID
 40
0.05
  9
$TEXTSTYLE
  7
STANDARD
  9
$CLAYER
  8
0
  9
$CELTYPE
  6
BYLAYER
  9
$CECOLOR
 62
   256
  9
$CELTSCALE
 40
1.0
  9
$DELOBJ
 70
     1
  9
$DISPSILH
 70
     0
  9
$DIMSCALE
 40
1.0
  9
$DIMASZ
 40
0.18
  9
$DIMEXO
 40
0.0625
  9
$DIMDLI
 40
0.38
  9
$DIMRND
 40
0.0
  9
$DIMDLE
 40
0.0
  9
$DIMEXE
 40
0.18
  9
$DIMTP
 40
0.0
  9
$DIMTM
 40
0.0
  9
$DIMTXT
 40
0.18
  9
$DIMCEN
 40
0.09
  9
$DIMTSZ
 40
0.0
  9
$DIMTOL
 70
     0
  9
$DIMLIM
 70
     0
  9
$DIMTIH
 70
     1
  9
$DIMTOH
 70
     1
  9
$DIMSE1
 70
     0
  9
$DIMSE2
 70
     0
  9
$DIMTAD
 70
     0
  9
$DIMZIN
 70
     0
  9
$DIMBLK
  1

  9
$DIMASO
 70
     1
  9
$DIMSHO
 70
     1
  9
$DIMPOST
  1

  9
$DIMAPOST
  1

  9
$DIMALT
 70
     0
  9
$DIMALTD
 70
     2
  9
$DIMALTF
 40
25.4
  9
$DIMLFAC
 40
1.0
  9
$DIMTOFL
 70
     0
  9
$DIMTVP
 40
0.0
  9
$DIMTIX
 70
     0
  9
$DIMSOXD
 70
     0
  9
$DIMSAH
 70
     0
  9
$DIMBLK1
  1

  9
$DIMBLK2
  1

  9
$DIMSTYLE
  2
STANDARD
  9
$DIMCLRD
 70
     0
  9
$DIMCLRE
 70
     0
  9
$DIMCLRT
 70
     0
  9
$DIMTFAC
 40
1.0
  9
$DIMGAP
 40
0.09
  9
$DIMJUST
 70
     0
  9
$DIMSD1
 70
     0
  9
$DIMSD2
 70
     0
  9
$DIMTOLJ
 70
     1
  9
$DIMTZIN
 70
     0
  9
$DIMALTZ
 70
     0
  9
$DIMALTTZ
 70
     0
  9
$DIMFIT
 70
     3
  9
$DIMUPT
 70
     0
  9
$DIMUNIT
 70
     2
  9
$DIMDEC
 70
     4
  9
$DIMTDEC
 70
     4
  9
$DIMALTU
 70
     2
  9
$DIMALTTD
 70
     2
  9
$DIMTXSTY
  7
STANDARD
  9
$DIMAUNIT
 70
     0
  9
$LUNITS
 70
     2
  9
$LUPREC
 70
     4
  9
$SKETCHINC
 40
0.1
  9
$FILLETRAD
 40
0.5
  9
$AUNITS
 70
     0
  9
$AUPREC
 70
     0
  9
$MENU
  1
.
  9
$ELEVATION
 40
0.0
  9
$PELEVATION
 40
0.0
  9
$THICKNESS
 40
0.0
  9
$LIMCHECK
 70
     0
  9
$CHAMFERA
 40
0.5
  9
$CHAMFERB
 40
0.5
  9
$CHAMFERC
 40
1.0
  9
$CHAMFERD
 40
0.0
  9
$SKPOLY
 70
     0
  9
$TDCREATE
 40
2457508.826705683
  9
$TDUPDATE
 40
2457508.826705695
  9
$TDINDWG
 40
0.0000000116
  9
$TDUSRTIMER
 40
0.0000000116
  9
$USRTIMER
 70
     1
  9
$ANGBASE
 50
0.0
  9
$ANGDIR
 70
     0
  9
$PDMODE
 70
     0
  9
$PDSIZE
 40
0.0
  9
$PLINEWID
 40
0.0
  9
$COORDS
 70
     1
  9
$SPLFRAME
 70
     0
  9
$SPLINETYPE
 70
     6
  9
$SPLINESEGS
 70
     8
  9
$ATTDIA
 70
     0
  9
$ATTREQ
 70
     1
  9
$HANDLING
 70
     1
  9
$HANDSEED
  5
336
  9
$SURFTAB1
 70
     6
  9
$SURFTAB2
 70
     6
  9
$SURFTYPE
 70
     6
  9
$SURFU
 70
     6
  9
$SURFV
 70
     6
  9
$UCSNAME
  2

  9
$UCSORG
 10
0.0
 20
0.0
 30
0.0
  9
$UCSXDIR
 10
1.0
 20
0.0
 30
0.0
  9
$UCSYDIR
 10
0.0
 20
1.0
 30
0.0
  9
$PUCSNAME
  2

  9
$PUCSORG
 10
0.0
 20
0.0
 30
0.0
  9
$PUCSXDIR
 10
1.0
 20
0.0
 30
0.0
  9
$PUCSYDIR
 10
0.0
 20
1.0
 30
0.0
  9
$USERI1
 70
     0
  9
$USERI2
 70
     0
  9
$USERI3
 70
     0
  9
$USERI4
 70
     0
  9
$USERI5
 70
     0
  9
$USERR1
 40
0.0
  9
$USERR2
 40
0.0
  9
$USERR3
 40
0.0
  9
$USERR4
 40
0.0
  9
$USERR5
 40
0.0
  9
$WORLDVIEW
 70
     1
  9
$SHADEDGE
 70
     3
  9
$SHADEDIF
 70
    70
  9
$TILEMODE
 70
     1
  9
$MAXACTVP
 70
    64
  9
$PINSBASE
 10
0.0
 20
0.0
 30
0.0
  9
$PLIMCHECK
 70
     0
  9
$PEXTMIN
 10
1.000000000000000E+20
 20
1.000000000000000E+20
 30
1.000000000000000E+20
  9
$PEXTMAX
 10
-1.000000000000000E+20
 20
-1.000000000000000E+20
 30
-1.000000000000000E+20
  9
$PLIMMIN
 10
0.0
 20
0.0
  9
$PLIMMAX
 10
12.0
 20
9.0
  9
$UNITMODE
 70
     0
  9
$VISRETAIN
 70
     1
  9
$PLINEGEN
 70
     0
  9
$PSLTSCALE
 70
     1
  9
$TREEDEPTH
 70
  3020
  9
$PICKSTYLE
 70
     1
  9
$CMLSTYLE
  2
STANDARD
  9
$CMLJUST
 70
     0
  9
$CMLSCALE
 40
1.0
  9
$SAVEIMAGES
 70
     1
  0
ENDSEC
  0
SECTION
  2
CLASSES
  0
CLASS
  1
ACDBDICTIONARYWDFLT
  2
AcDbDictionaryWithDefault
  3
ObjectDBX Classes
 90
    32768
280
     0
281
     0
  0
CLASS
  1
VISUALSTYLE
  2
AcDbVisualStyle
  3
ObjectDBX Classes
 90
     4095
280
     0
281
     0
  0
CLASS
  1
XRECORD
  2
AcDbXrecord
  3
AutoCAD 2000
 90
    32768
280
     0
281
     0
  0
CLASS
  1
LWPOLYLINE
  2
AcDbPolyline
  3
AutoCAD 2000
 90
    32768
280
     0
281
     1
  0
CLASS
  1
HATCH
  2
AcDbHatch
  3
AutoCAD 2000
 90
    32768
280
     0
281
     1
  0
CLASS
  1
ACDBPLACEHOLDER
  2
AcDbPlaceHolder
  3
ObjectDBX Classes
 90
        0
280
     0
281
     0
  0
CLASS
  1
LAYOUT
  2
AcDbLayout
  3
ObjectDBX Classes
 90
        0
280
     0
281
     0
  0
ENDSEC
  0
SECTION
  2
TABLES
  0
TABLE
  2
VPORT
  5
8
330
0
100
AcDbSymbolTable
 70
     1
  0
VPORT
  5
29
330
8
100
AcDbSymbolTableRecord
100
AcDbViewportTableRecord
  2
*ACTIVE
 70
     0
 10
0.0
 20
0.0
 11
1.0
 21
1.0
 12
0.0
 22
0.0
 13
0.0
 23
0.0
 14
0.5
 24
0.5
 15
0.5
 25
0.5
 16
0.0
 26
0.0
 36
1.0
 17
105.0008259828644
 27
-148.4999796178229
 37
0.0
 40
296.9999592356459
 41
0.7070763662937379
 42
50.0
 43
0.0
 44
0.0
 50
0.0
 51
0.0
 71
     0
 72
   100
 73
     1
 74
     3
 75
     0
 76
     0
 77
     0
 78
     0
  0
ENDTAB
  0
TABLE
  2
LTYPE
  5
5
330
0
100
AcDbSymbolTable
 70
   105
  0
LTYPE
  5
14
330
5
100
AcDbSymbolTableRecord
100
AcDbLinetypeTableRecord
  2
BYBLOCK
 70
     0
  3

 72
    65
 73
     0
 40
0.0
  0
LTYPE
  5
15
330
5
100
AcDbSymbolTableRecord
100
AcDbLinetypeTableRecord
  2
BYLAYER
 70
     0
  3

 72
    65
 73
     0
 40
0.0
  0
LTYPE
  5
16
330
5
100
AcDbSymbolTableRecord
100
AcDbLinetypeTableRecord
  2
CONTINUOUS
 70
     0
  3
Solid line
 72
    65
 73
     0
 40
0.0
  0
LTYPE
  5
51
330
5
100
AcDbSymbolTableRecord
100
AcDbLinetypeTableRecord
  2
AI-LINETYPE-1
 70
     0
  3
Adobe Illustrator Linetype No. 1
 72
    65
 73
     2
 40
2.370038635932962
 49
1.185019317966481
 74
     0
 49
-1.185019317966481
 74
     0
  0
LTYPE
  5
56
330
5
100
AcDbSymbolTableRecord
100
AcDbLinetypeTableRecord
  2
AI-LINETYPE-2
 70
     0
  3
Adobe Illustrator Linetype No. 2
 72
    65
 73
     2
 40
2.370038635932962
 49
1.185019317966481
 74
     0
 49
-1.185019317966481
 74
     0
  0
LTYPE
  5
5B
330
5
100
AcDbSymbolTableRecord
100
AcDbLinetypeTableRecord
  2
AI-LINETYPE-3
 70
     0
  3
Adobe Illustrator Linetype No. 3
 72
    65
 73
     2
 40
2.370038635932962
 49
1.185019317966481
 74
     0
 49
-1.185019317966481
 74
     0
  0
LTYPE
  5
60
330
5
100
AcDbSymbolTableRecord
100
AcDbLinetypeTableRecord
  2
AI-LINETYPE-4
 70
     0
  3
Adobe Illustrator Linetype No. 4
 72
    65
 73
     2
 40
2.370038635932962
 49
1.185019317966481
 74
     0
 49
-1.185019317966481
 74
     0
  0
LTYPE
  5
65
330
5
100
AcDbSymbolTableRecord
100
AcDbLinetypeTableRecord
  2
AI-LINETYPE-5
 70
     0
  3
Adobe Illustrator Linetype No. 5
 72
    65
 73
     2
 40
2.370038635932962
 49
1.185019317966481
 74
     0
 49
-1.185019317966481
 74
     0
  0
LTYPE
  5
6A
330
5
100
AcDbSymbolTableRecord
100
AcDbLinetypeTableRecord
  2
AI-LINETYPE-6
 70
     0
  3
Adobe Illustrator Linetype No. 6
 72
    65
 73
     2
 40
2.370038635932962
 49
1.185019317966481
 74
     0
 49
-1.185019317966481
 74
     0
  0
LTYPE
  5
6F
330
5
100
AcDbSymbolTableRecord
100
AcDbLinetypeTableRecord
  2
AI-LINETYPE-7
 70
     0
  3
Adobe Illustrator Linetype No. 7
 72
    65
 73
     2
 40
2.370038635932962
 49
1.185019317966481
 74
     0
 49
-1.185019317966481
 74
     0
  0
LTYPE
  5
74
330
5
100
AcDbSymbolTableRecord
100
AcDbLinetypeTableRecord
  2
AI-LINETYPE-8
 70
     0
  3
Adobe Illustrator Linetype No. 8
 72
    65
 73
     2
 40
2.370038635932962
 49
1.185019317966481
 74
     0
 49
-1.185019317966481
 74
     0
  0
LTYPE
  5
79
330
5
100
AcDbSymbolTableRecord
100
AcDbLinetypeTableRecord
  2
AI-LINETYPE-9
 70
     0
  3
Adobe Illustrator Linetype No. 9
 72
    65
 73
     2
 40
2.370038635932962
 49
1.185019317966481
 74
     0
 49
-1.185019317966481
 74
     0
  0
LTYPE
  5
7E
330
5
100
AcDbSymbolTableRecord
100
AcDbLinetypeTableRecord
  2
AI-LINETYPE-10
 70
     0
  3
Adobe Illustrator Linetype No. 10
 72
    65
 73
     2
 40
2.370038635932962
 49
1.185019317966481
 74
     0
 49
-1.185019317966481
 74
     0
  0
LTYPE
  5
83
330
5
100
AcDbSymbolTableRecord
100
AcDbLinetypeTableRecord
  2
AI-LINETYPE-11
 70
     0
  3
Adobe Illustrator Linetype No. 11
 72
    65
 73
     2
 40
2.370038635932962
 49
1.185019317966481
 74
     0
 49
-1.185019317966481
 74
     0
  0
LTYPE
  5
88
330
5
100
AcDbSymbolTableRecord
100
AcDbLinetypeTableRecord
  2
AI-LINETYPE-12
 70
     0
  3
Adobe Illustrator Linetype No. 12
 72
    65
 73
     2
 40
2.370038635932962
 49
1.185019317966481
 74
     0
 49
-1.185019317966481
 74
     0
  0
LTYPE
  5
8D
330
5
100
AcDbSymbolTableRecord
100
AcDbLinetypeTableRecord
  2
AI-LINETYPE-13
 70
     0
  3
Adobe Illustrator Linetype No. 13
 72
    65
 73
     2
 40
2.370038635932962
 49
1.185019317966481
 74
     0
 49
-1.185019317966481
 74
     0
  0
LTYPE
  5
92
330
5
100
AcDbSymbolTableRecord
100
AcDbLinetypeTableRecord
  2
AI-LINETYPE-14
 70
     0
  3
Adobe Illustrator Linetype No. 14
 72
    65
 73
     2
 40
2.370038635932962
 49
1.185019317966481
 74
     0
 49
-1.185019317966481
 74
     0
  0
LTYPE
  5
97
330
5
100
AcDbSymbolTableRecord
100
AcDbLinetypeTableRecord
  2
AI-LINETYPE-15
 70
     0
  3
Adobe Illustrator Linetype No. 15
 72
    65
 73
     2
 40
2.370038635932962
 49
1.185019317966481
 74
     0
 49
-1.185019317966481
 74
     0
  0
LTYPE
  5
9C
330
5
100
AcDbSymbolTableRecord
100
AcDbLinetypeTableRecord
  2
AI-LINETYPE-16
 70
     0
  3
Adobe Illustrator Linetype No. 16
 72
    65
 73
     2
 40
2.370038635932962
 49
1.185019317966481
 74
     0
 49
-1.185019317966481
 74
     0
  0
LTYPE
  5
A1
330
5
100
AcDbSymbolTableRecord
100
AcDbLinetypeTableRecord
  2
AI-LINETYPE-17
 70
     0
  3
Adobe Illustrator Linetype No. 17
 72
    65
 73
     2
 40
2.370038635932962
 49
1.185019317966481
 74
     0
 49
-1.185019317966481
 74
     0
  0
LTYPE
  5
A6
330
5
100
AcDbSymbolTableRecord
100
AcDbLinetypeTableRecord
  2
AI-LINETYPE-18
 70
     0
  3
Adobe Illustrator Linetype No. 18
 72
    65
 73
     2
 40
2.370038635932962
 49
1.185019317966481
 74
     0
 49
-1.185019317966481
 74
     0
  0
LTYPE
  5
AB
330
5
100
AcDbSymbolTableRecord
100
AcDbLinetypeTableRecord
  2
AI-LINETYPE-19
 70
     0
  3
Adobe Illustrator Linetype No. 19
 72
    65
 73
     2
 40
2.370038635932962
 49
1.185019317966481
 74
     0
 49
-1.185019317966481
 74
     0
  0
LTYPE
  5
B0
330
5
100
AcDbSymbolTableRecord
100
AcDbLinetypeTableRecord
  2
AI-LINETYPE-20
 70
     0
  3
Adobe Illustrator Linetype No. 20
 72
    65
 73
     2
 40
2.370038635932962
 49
1.185019317966481
 74
     0
 49
-1.185019317966481
 74
     0
  0
LTYPE
  5
B5
330
5
100
AcDbSymbolTableRecord
100
AcDbLinetypeTableRecord
  2
AI-LINETYPE-21
 70
     0
  3
Adobe Illustrator Linetype No. 21
 72
    65
 73
     2
 40
2.370038635932962
 49
1.185019317966481
 74
     0
 49
-1.185019317966481
 74
     0
  0
LTYPE
  5
BA
330
5
100
AcDbSymbolTableRecord
100
AcDbLinetypeTableRecord
  2
AI-LINETYPE-22
 70
     0
  3
Adobe Illustrator Linetype No. 22
 72
    65
 73
     2
 40
2.370038635932962
 49
1.185019317966481
 74
     0
 49
-1.185019317966481
 74
     0
  0
LTYPE
  5
BF
330
5
100
AcDbSymbolTableRecord
100
AcDbLinetypeTableRecord
  2
AI-LINETYPE-23
 70
     0
  3
Adobe Illustrator Linetype No. 23
 72
    65
 73
     2
 40
2.370038635932962
 49
1.185019317966481
 74
     0
 49
-1.185019317966481
 74
     0
  0
LTYPE
  5
C4
330
5
100
AcDbSymbolTableRecord
100
AcDbLinetypeTableRecord
  2
AI-LINETYPE-24
 70
     0
  3
Adobe Illustrator Linetype No. 24
 72
    65
 73
     2
 40
2.370038635932962
 49
1.185019317966481
 74
     0
 49
-1.185019317966481
 74
     0
  0
LTYPE
  5
C9
330
5
100
AcDbSymbolTableRecord
100
AcDbLinetypeTableRecord
  2
AI-LINETYPE-25
 70
     0
  3
Adobe Illustrator Linetype No. 25
 72
    65
 73
     2
 40
2.370038635932962
 49
1.185019317966481
 74
     0
 49
-1.185019317966481
 74
     0
  0
LTYPE
  5
CE
330
5
100
AcDbSymbolTableRecord
100
AcDbLinetypeTableRecord
  2
AI-LINETYPE-26
 70
     0
  3
Adobe Illustrator Linetype No. 26
 72
    65
 73
     2
 40
2.370038635932962
 49
1.185019317966481
 74
     0
 49
-1.185019317966481
 74
     0
  0
LTYPE
  5
D3
330
5
100
AcDbSymbolTableRecord
100
AcDbLinetypeTableRecord
  2
AI-LINETYPE-27
 70
     0
  3
Adobe Illustrator Linetype No. 27
 72
    65
 73
     2
 40
2.370038635932962
 49
1.185019317966481
 74
     0
 49
-1.185019317966481
 74
     0
  0
LTYPE
  5
D8
330
5
100
AcDbSymbolTableRecord
100
AcDbLinetypeTableRecord
  2
AI-LINETYPE-28
 70
     0
  3
Adobe Illustrator Linetype No. 28
 72
    65
 73
     2
 40
2.370038635932962
 49
1.185019317966481
 74
     0
 49
-1.185019317966481
 74
     0
  0
LTYPE
  5
DD
330
5
100
AcDbSymbolTableRecord
100
AcDbLinetypeTableRecord
  2
AI-LINETYPE-29
 70
     0
  3
Adobe Illustrator Linetype No. 29
 72
    65
 73
     2
 40
2.370038635932962
 49
1.185019317966481
 74
     0
 49
-1.185019317966481
 74
     0
  0
LTYPE
  5
E2
330
5
100
AcDbSymbolTableRecord
100
AcDbLinetypeTableRecord
  2
AI-LINETYPE-30
 70
     0
  3
Adobe Illustrator Linetype No. 30
 72
    65
 73
     2
 40
2.370038635932962
 49
1.185019317966481
 74
     0
 49
-1.185019317966481
 74
     0
  0
LTYPE
  5
E7
330
5
100
AcDbSymbolTableRecord
100
AcDbLinetypeTableRecord
  2
AI-LINETYPE-31
 70
     0
  3
Adobe Illustrator Linetype No. 31
 72
    65
 73
     2
 40
2.370038635932962
 49
1.185019317966481
 74
     0
 49
-1.185019317966481
 74
     0
  0
LTYPE
  5
EC
330
5
100
AcDbSymbolTableRecord
100
AcDbLinetypeTableRecord
  2
AI-LINETYPE-32
 70
     0
  3
Adobe Illustrator Linetype No. 32
 72
    65
 73
     2
 40
2.370038635932962
 49
1.185019317966481
 74
     0
 49
-1.185019317966481
 74
     0
  0
LTYPE
  5
F1
330
5
100
AcDbSymbolTableRecord
100
AcDbLinetypeTableRecord
  2
AI-LINETYPE-33
 70
     0
  3
Adobe Illustrator Linetype No. 33
 72
    65
 73
     2
 40
2.370038635932962
 49
1.185019317966481
 74
     0
 49
-1.185019317966481
 74
     0
  0
LTYPE
  5
F6
330
5
100
AcDbSymbolTableRecord
100
AcDbLinetypeTableRecord
  2
AI-LINETYPE-34
 70
     0
  3
Adobe Illustrator Linetype No. 34
 72
    65
 73
     2
 40
2.370038635932962
 49
1.185019317966481
 74
     0
 49
-1.185019317966481
 74
     0
  0
LTYPE
  5
FB
330
5
100
AcDbSymbolTableRecord
100
AcDbLinetypeTableRecord
  2
AI-LINETYPE-35
 70
     0
  3
Adobe Illustrator Linetype No. 35
 72
    65
 73
     2
 40
2.370038635932962
 49
1.185019317966481
 74
     0
 49
-1.185019317966481
 74
     0
  0
LTYPE
  5
100
330
5
100
AcDbSymbolTableRecord
100
AcDbLinetypeTableRecord
  2
AI-LINETYPE-36
 70
     0
  3
Adobe Illustrator Linetype No. 36
 72
    65
 73
     2
 40
2.370038635932962
 49
1.185019317966481
 74
     0
 49
-1.185019317966481
 74
     0
  0
LTYPE
  5
105
330
5
100
AcDbSymbolTableRecord
100
AcDbLinetypeTableRecord
  2
AI-LINETYPE-37
 70
     0
  3
Adobe Illustrator Linetype No. 37
 72
    65
 73
     2
 40
2.370038635932962
 49
1.185019317966481
 74
     0
 49
-1.185019317966481
 74
     0
  0
LTYPE
  5
10A
330
5
100
AcDbSymbolTableRecord
100
AcDbLinetypeTableRecord
  2
AI-LINETYPE-38
 70
     0
  3
Adobe Illustrator Linetype No. 38
 72
    65
 73
     2
 40
2.370038635932962
 49
1.185019317966481
 74
     0
 49
-1.185019317966481
 74
     0
  0
LTYPE
  5
10F
330
5
100
AcDbSymbolTableRecord
100
AcDbLinetypeTableRecord
  2
AI-LINETYPE-39
 70
     0
  3
Adobe Illustrator Linetype No. 39
 72
    65
 73
     2
 40
2.370038635932962
 49
1.185019317966481
 74
     0
 49
-1.185019317966481
 74
     0
  0
LTYPE
  5
114
330
5
100
AcDbSymbolTableRecord
100
AcDbLinetypeTableRecord
  2
AI-LINETYPE-40
 70
     0
  3
Adobe Illustrator Linetype No. 40
 72
    65
 73
     2
 40
2.370038635932962
 49
1.185019317966481
 74
     0
 49
-1.185019317966481
 74
     0
  0
LTYPE
  5
119
330
5
100
AcDbSymbolTableRecord
100
AcDbLinetypeTableRecord
  2
AI-LINETYPE-41
 70
     0
  3
Adobe Illustrator Linetype No. 41
 72
    65
 73
     2
 40
2.370038635932962
 49
1.185019317966481
 74
     0
 49
-1.185019317966481
 74
     0
  0
LTYPE
  5
11E
330
5
100
AcDbSymbolTableRecord
100
AcDbLinetypeTableRecord
  2
AI-LINETYPE-42
 70
     0
  3
Adobe Illustrator Linetype No. 42
 72
    65
 73
     2
 40
2.370038635932962
 49
1.185019317966481
 74
     0
 49
-1.185019317966481
 74
     0
  0
LTYPE
  5
123
330
5
100
AcDbSymbolTableRecord
100
AcDbLinetypeTableRecord
  2
AI-LINETYPE-43
 70
     0
  3
Adobe Illustrator Linetype No. 43
 72
    65
 73
     2
 40
2.370038635932962
 49
1.185019317966481
 74
     0
 49
-1.185019317966481
 74
     0
  0
LTYPE
  5
128
330
5
100
AcDbSymbolTableRecord
100
AcDbLinetypeTableRecord
  2
AI-LINETYPE-44
 70
     0
  3
Adobe Illustrator Linetype No. 44
 72
    65
 73
     2
 40
2.370038635932962
 49
1.185019317966481
 74
     0
 49
-1.185019317966481
 74
     0
  0
LTYPE
  5
12D
330
5
100
AcDbSymbolTableRecord
100
AcDbLinetypeTableRecord
  2
AI-LINETYPE-45
 70
     0
  3
Adobe Illustrator Linetype No. 45
 72
    65
 73
     2
 40
2.370038635932962
 49
1.185019317966481
 74
     0
 49
-1.185019317966481
 74
     0
  0
LTYPE
  5
132
330
5
100
AcDbSymbolTableRecord
100
AcDbLinetypeTableRecord
  2
AI-LINETYPE-46
 70
     0
  3
Adobe Illustrator Linetype No. 46
 72
    65
 73
     2
 40
2.370038635932962
 49
1.185019317966481
 74
     0
 49
-1.185019317966481
 74
     0
  0
LTYPE
  5
137
330
5
100
AcDbSymbolTableRecord
100
AcDbLinetypeTableRecord
  2
AI-LINETYPE-47
 70
     0
  3
Adobe Illustrator Linetype No. 47
 72
    65
 73
     2
 40
2.370038635932962
 49
1.185019317966481
 74
     0
 49
-1.185019317966481
 74
     0
  0
LTYPE
  5
13C
330
5
100
AcDbSymbolTableRecord
100
AcDbLinetypeTableRecord
  2
AI-LINETYPE-48
 70
     0
  3
Adobe Illustrator Linetype No. 48
 72
    65
 73
     2
 40
2.370038635932962
 49
1.185019317966481
 74
     0
 49
-1.185019317966481
 74
     0
  0
LTYPE
  5
141
330
5
100
AcDbSymbolTableRecord
100
AcDbLinetypeTableRecord
  2
AI-LINETYPE-49
 70
     0
  3
Adobe Illustrator Linetype No. 49
 72
    65
 73
     2
 40
2.370038635932962
 49
1.185019317966481
 74
     0
 49
-1.185019317966481
 74
     0
  0
LTYPE
  5
146
330
5
100
AcDbSymbolTableRecord
100
AcDbLinetypeTableRecord
  2
AI-LINETYPE-50
 70
     0
  3
Adobe Illustrator Linetype No. 50
 72
    65
 73
     2
 40
2.370038635932962
 49
1.185019317966481
 74
     0
 49
-1.185019317966481
 74
     0
  0
LTYPE
  5
14B
330
5
100
AcDbSymbolTableRecord
100
AcDbLinetypeTableRecord
  2
AI-LINETYPE-51
 70
     0
  3
Adobe Illustrator Linetype No. 51
 72
    65
 73
     2
 40
2.370038635932962
 49
1.185019317966481
 74
     0
 49
-1.185019317966481
 74
     0
  0
LTYPE
  5
150
330
5
100
AcDbSymbolTableRecord
100
AcDbLinetypeTableRecord
  2
AI-LINETYPE-52
 70
     0
  3
Adobe Illustrator Linetype No. 52
 72
    65
 73
     2
 40
2.370038635932962
 49
1.185019317966481
 74
     0
 49
-1.185019317966481
 74
     0
  0
LTYPE
  5
155
330
5
100
AcDbSymbolTableRecord
100
AcDbLinetypeTableRecord
  2
AI-LINETYPE-53
 70
     0
  3
Adobe Illustrator Linetype No. 53
 72
    65
 73
     2
 40
2.370038635932962
 49
1.185019317966481
 74
     0
 49
-1.185019317966481
 74
     0
  0
LTYPE
  5
15A
330
5
100
AcDbSymbolTableRecord
100
AcDbLinetypeTableRecord
  2
AI-LINETYPE-54
 70
     0
  3
Adobe Illustrator Linetype No. 54
 72
    65
 73
     2
 40
2.370038635932962
 49
1.185019317966481
 74
     0
 49
-1.185019317966481
 74
     0
  0
LTYPE
  5
15F
330
5
100
AcDbSymbolTableRecord
100
AcDbLinetypeTableRecord
  2
AI-LINETYPE-55
 70
     0
  3
Adobe Illustrator Linetype No. 55
 72
    65
 73
     2
 40
2.370038635932962
 49
1.185019317966481
 74
     0
 49
-1.185019317966481
 74
     0
  0
LTYPE
  5
164
330
5
100
AcDbSymbolTableRecord
100
AcDbLinetypeTableRecord
  2
AI-LINETYPE-56
 70
     0
  3
Adobe Illustrator Linetype No. 56
 72
    65
 73
     2
 40
2.370038635932962
 49
1.185019317966481
 74
     0
 49
-1.185019317966481
 74
     0
  0
LTYPE
  5
169
330
5
100
AcDbSymbolTableRecord
100
AcDbLinetypeTableRecord
  2
AI-LINETYPE-57
 70
     0
  3
Adobe Illustrator Linetype No. 57
 72
    65
 73
     2
 40
2.370038635932962
 49
1.185019317966481
 74
     0
 49
-1.185019317966481
 74
     0
  0
LTYPE
  5
16E
330
5
100
AcDbSymbolTableRecord
100
AcDbLinetypeTableRecord
  2
AI-LINETYPE-58
 70
     0
  3
Adobe Illustrator Linetype No. 58
 72
    65
 73
     2
 40
2.370038635932962
 49
1.185019317966481
 74
     0
 49
-1.185019317966481
 74
     0
  0
LTYPE
  5
173
330
5
100
AcDbSymbolTableRecord
100
AcDbLinetypeTableRecord
  2
AI-LINETYPE-59
 70
     0
  3
Adobe Illustrator Linetype No. 59
 72
    65
 73
     2
 40
2.370038635932962
 49
1.185019317966481
 74
     0
 49
-1.185019317966481
 74
     0
  0
LTYPE
  5
178
330
5
100
AcDbSymbolTableRecord
100
AcDbLinetypeTableRecord
  2
AI-LINETYPE-60
 70
     0
  3
Adobe Illustrator Linetype No. 60
 72
    65
 73
     2
 40
2.370038635932962
 49
1.185019317966481
 74
     0
 49
-1.185019317966481
 74
     0
  0
LTYPE
  5
17D
330
5
100
AcDbSymbolTableRecord
100
AcDbLinetypeTableRecord
  2
AI-LINETYPE-61
 70
     0
  3
Adobe Illustrator Linetype No. 61
 72
    65
 73
     2
 40
2.370038635932962
 49
1.185019317966481
 74
     0
 49
-1.185019317966481
 74
     0
  0
LTYPE
  5
182
330
5
100
AcDbSymbolTableRecord
100
AcDbLinetypeTableRecord
  2
AI-LINETYPE-62
 70
     0
  3
Adobe Illustrator Linetype No. 62
 72
    65
 73
     2
 40
2.370038635932962
 49
1.185019317966481
 74
     0
 49
-1.185019317966481
 74
     0
  0
LTYPE
  5
187
330
5
100
AcDbSymbolTableRecord
100
AcDbLinetypeTableRecord
  2
AI-LINETYPE-63
 70
     0
  3
Adobe Illustrator Linetype No. 63
 72
    65
 73
     2
 40
2.370038635932962
 49
1.185019317966481
 74
     0
 49
-1.185019317966481
 74
     0
  0
LTYPE
  5
18C
330
5
100
AcDbSymbolTableRecord
100
AcDbLinetypeTableRecord
  2
AI-LINETYPE-64
 70
     0
  3
Adobe Illustrator Linetype No. 64
 72
    65
 73
     2
 40
2.370038635932962
 49
1.185019317966481
 74
     0
 49
-1.185019317966481
 74
     0
  0
LTYPE
  5
191
330
5
100
AcDbSymbolTableRecord
100
AcDbLinetypeTableRecord
  2
AI-LINETYPE-65
 70
     0
  3
Adobe Illustrator Linetype No. 65
 72
    65
 73
     2
 40
2.370038635932962
 49
1.185019317966481
 74
     0
 49
-1.185019317966481
 74
     0
  0
LTYPE
  5
196
330
5
100
AcDbSymbolTableRecord
100
AcDbLinetypeTableRecord
  2
AI-LINETYPE-66
 70
     0
  3
Adobe Illustrator Linetype No. 66
 72
    65
 73
     2
 40
2.370038635932962
 49
1.185019317966481
 74
     0
 49
-1.185019317966481
 74
     0
  0
LTYPE
  5
19B
330
5
100
AcDbSymbolTableRecord
100
AcDbLinetypeTableRecord
  2
AI-LINETYPE-67
 70
     0
  3
Adobe Illustrator Linetype No. 67
 72
    65
 73
     2
 40
2.370038635932962
 49
1.185019317966481
 74
     0
 49
-1.185019317966481
 74
     0
  0
LTYPE
  5
1A0
330
5
100
AcDbSymbolTableRecord
100
AcDbLinetypeTableRecord
  2
AI-LINETYPE-68
 70
     0
  3
Adobe Illustrator Linetype No. 68
 72
    65
 73
     2
 40
2.370038635932962
 49
1.185019317966481
 74
     0
 49
-1.185019317966481
 74
     0
  0
LTYPE
  5
1A5
330
5
100
AcDbSymbolTableRecord
100
AcDbLinetypeTableRecord
  2
AI-LINETYPE-69
 70
     0
  3
Adobe Illustrator Linetype No. 69
 72
    65
 73
     2
 40
2.370038635932962
 49
1.185019317966481
 74
     0
 49
-1.185019317966481
 74
     0
  0
LTYPE
  5
1AA
330
5
100
AcDbSymbolTableRecord
100
AcDbLinetypeTableRecord
  2
AI-LINETYPE-70
 70
     0
  3
Adobe Illustrator Linetype No. 70
 72
    65
 73
     2
 40
2.370038635932962
 49
1.185019317966481
 74
     0
 49
-1.185019317966481
 74
     0
  0
LTYPE
  5
1AF
330
5
100
AcDbSymbolTableRecord
100
AcDbLinetypeTableRecord
  2
AI-LINETYPE-71
 70
     0
  3
Adobe Illustrator Linetype No. 71
 72
    65
 73
     2
 40
2.370038635932962
 49
1.185019317966481
 74
     0
 49
-1.185019317966481
 74
     0
  0
LTYPE
  5
1B4
330
5
100
AcDbSymbolTableRecord
100
AcDbLinetypeTableRecord
  2
AI-LINETYPE-72
 70
     0
  3
Adobe Illustrator Linetype No. 72
 72
    65
 73
     2
 40
2.370038635932962
 49
1.185019317966481
 74
     0
 49
-1.185019317966481
 74
     0
  0
LTYPE
  5
1B9
330
5
100
AcDbSymbolTableRecord
100
AcDbLinetypeTableRecord
  2
AI-LINETYPE-73
 70
     0
  3
Adobe Illustrator Linetype No. 73
 72
    65
 73
     2
 40
2.370038635932962
 49
1.185019317966481
 74
     0
 49
-1.185019317966481
 74
     0
  0
LTYPE
  5
1BE
330
5
100
AcDbSymbolTableRecord
100
AcDbLinetypeTableRecord
  2
AI-LINETYPE-74
 70
     0
  3
Adobe Illustrator Linetype No. 74
 72
    65
 73
     2
 40
2.370038635932962
 49
1.185019317966481
 74
     0
 49
-1.185019317966481
 74
     0
  0
LTYPE
  5
1C3
330
5
100
AcDbSymbolTableRecord
100
AcDbLinetypeTableRecord
  2
AI-LINETYPE-75
 70
     0
  3
Adobe Illustrator Linetype No. 75
 72
    65
 73
     2
 40
2.370038635932962
 49
1.185019317966481
 74
     0
 49
-1.185019317966481
 74
     0
  0
LTYPE
  5
1C8
330
5
100
AcDbSymbolTableRecord
100
AcDbLinetypeTableRecord
  2
AI-LINETYPE-76
 70
     0
  3
Adobe Illustrator Linetype No. 76
 72
    65
 73
     2
 40
2.370038635932962
 49
1.185019317966481
 74
     0
 49
-1.185019317966481
 74
     0
  0
LTYPE
  5
1CD
330
5
100
AcDbSymbolTableRecord
100
AcDbLinetypeTableRecord
  2
AI-LINETYPE-77
 70
     0
  3
Adobe Illustrator Linetype No. 77
 72
    65
 73
     2
 40
2.370038635932962
 49
1.185019317966481
 74
     0
 49
-1.185019317966481
 74
     0
  0
LTYPE
  5
1D2
330
5
100
AcDbSymbolTableRecord
100
AcDbLinetypeTableRecord
  2
AI-LINETYPE-78
 70
     0
  3
Adobe Illustrator Linetype No. 78
 72
    65
 73
     2
 40
2.370038635932962
 49
1.185019317966481
 74
     0
 49
-1.185019317966481
 74
     0
  0
LTYPE
  5
1D7
330
5
100
AcDbSymbolTableRecord
100
AcDbLinetypeTableRecord
  2
AI-LINETYPE-79
 70
     0
  3
Adobe Illustrator Linetype No. 79
 72
    65
 73
     2
 40
2.370038635932962
 49
1.185019317966481
 74
     0
 49
-1.185019317966481
 74
     0
  0
LTYPE
  5
1DC
330
5
100
AcDbSymbolTableRecord
100
AcDbLinetypeTableRecord
  2
AI-LINETYPE-80
 70
     0
  3
Adobe Illustrator Linetype No. 80
 72
    65
 73
     2
 40
2.370038635932962
 49
1.185019317966481
 74
     0
 49
-1.185019317966481
 74
     0
  0
LTYPE
  5
1E1
330
5
100
AcDbSymbolTableRecord
100
AcDbLinetypeTableRecord
  2
AI-LINETYPE-81
 70
     0
  3
Adobe Illustrator Linetype No. 81
 72
    65
 73
     2
 40
2.370038635932962
 49
1.185019317966481
 74
     0
 49
-1.185019317966481
 74
     0
  0
LTYPE
  5
1E6
330
5
100
AcDbSymbolTableRecord
100
AcDbLinetypeTableRecord
  2
AI-LINETYPE-82
 70
     0
  3
Adobe Illustrator Linetype No. 82
 72
    65
 73
     2
 40
2.370038635932962
 49
1.185019317966481
 74
     0
 49
-1.185019317966481
 74
     0
  0
LTYPE
  5
1EB
330
5
100
AcDbSymbolTableRecord
100
AcDbLinetypeTableRecord
  2
AI-LINETYPE-83
 70
     0
  3
Adobe Illustrator Linetype No. 83
 72
    65
 73
     2
 40
2.370038635932962
 49
1.185019317966481
 74
     0
 49
-1.185019317966481
 74
     0
  0
LTYPE
  5
1F0
330
5
100
AcDbSymbolTableRecord
100
AcDbLinetypeTableRecord
  2
AI-LINETYPE-84
 70
     0
  3
Adobe Illustrator Linetype No. 84
 72
    65
 73
     2
 40
2.370038635932962
 49
1.185019317966481
 74
     0
 49
-1.185019317966481
 74
     0
  0
LTYPE
  5
1F5
330
5
100
AcDbSymbolTableRecord
100
AcDbLinetypeTableRecord
  2
AI-LINETYPE-85
 70
     0
  3
Adobe Illustrator Linetype No. 85
 72
    65
 73
     2
 40
2.370038635932962
 49
1.185019317966481
 74
     0
 49
-1.185019317966481
 74
     0
  0
LTYPE
  5
1FA
330
5
100
AcDbSymbolTableRecord
100
AcDbLinetypeTableRecord
  2
AI-LINETYPE-86
 70
     0
  3
Adobe Illustrator Linetype No. 86
 72
    65
 73
     2
 40
2.370038635932962
 49
1.185019317966481
 74
     0
 49
-1.185019317966481
 74
     0
  0
LTYPE
  5
1FF
330
5
100
AcDbSymbolTableRecord
100
AcDbLinetypeTableRecord
  2
AI-LINETYPE-87
 70
     0
  3
Adobe Illustrator Linetype No. 87
 72
    65
 73
     2
 40
2.370038635932962
 49
1.185019317966481
 74
     0
 49
-1.185019317966481
 74
     0
  0
LTYPE
  5
204
330
5
100
AcDbSymbolTableRecord
100
AcDbLinetypeTableRecord
  2
AI-LINETYPE-88
 70
     0
  3
Adobe Illustrator Linetype No. 88
 72
    65
 73
     2
 40
2.370038635932962
 49
1.185019317966481
 74
     0
 49
-1.185019317966481
 74
     0
  0
LTYPE
  5
209
330
5
100
AcDbSymbolTableRecord
100
AcDbLinetypeTableRecord
  2
AI-LINETYPE-89
 70
     0
  3
Adobe Illustrator Linetype No. 89
 72
    65
 73
     2
 40
2.370038635932962
 49
1.185019317966481
 74
     0
 49
-1.185019317966481
 74
     0
  0
LTYPE
  5
20E
330
5
100
AcDbSymbolTableRecord
100
AcDbLinetypeTableRecord
  2
AI-LINETYPE-90
 70
     0
  3
Adobe Illustrator Linetype No. 90
 72
    65
 73
     2
 40
2.370038635932962
 49
1.185019317966481
 74
     0
 49
-1.185019317966481
 74
     0
  0
LTYPE
  5
213
330
5
100
AcDbSymbolTableRecord
100
AcDbLinetypeTableRecord
  2
AI-LINETYPE-91
 70
     0
  3
Adobe Illustrator Linetype No. 91
 72
    65
 73
     2
 40
2.370038635932962
 49
1.185019317966481
 74
     0
 49
-1.185019317966481
 74
     0
  0
LTYPE
  5
218
330
5
100
AcDbSymbolTableRecord
100
AcDbLinetypeTableRecord
  2
AI-LINETYPE-92
 70
     0
  3
Adobe Illustrator Linetype No. 92
 72
    65
 73
     2
 40
2.370038635932962
 49
1.185019317966481
 74
     0
 49
-1.185019317966481
 74
     0
  0
LTYPE
  5
21D
330
5
100
AcDbSymbolTableRecord
100
AcDbLinetypeTableRecord
  2
AI-LINETYPE-93
 70
     0
  3
Adobe Illustrator Linetype No. 93
 72
    65
 73
     2
 40
2.370038635932962
 49
1.185019317966481
 74
     0
 49
-1.185019317966481
 74
     0
  0
LTYPE
  5
222
330
5
100
AcDbSymbolTableRecord
100
AcDbLinetypeTableRecord
  2
AI-LINETYPE-94
 70
     0
  3
Adobe Illustrator Linetype No. 94
 72
    65
 73
     2
 40
2.370038635932962
 49
1.185019317966481
 74
     0
 49
-1.185019317966481
 74
     0
  0
LTYPE
  5
227
330
5
100
AcDbSymbolTableRecord
100
AcDbLinetypeTableRecord
  2
AI-LINETYPE-95
 70
     0
  3
Adobe Illustrator Linetype No. 95
 72
    65
 73
     2
 40
2.370038635932962
 49
1.185019317966481
 74
     0
 49
-1.185019317966481
 74
     0
  0
LTYPE
  5
22C
330
5
100
AcDbSymbolTableRecord
100
AcDbLinetypeTableRecord
  2
AI-LINETYPE-96
 70
     0
  3
Adobe Illustrator Linetype No. 96
 72
    65
 73
     2
 40
2.370038635932962
 49
1.185019317966481
 74
     0
 49
-1.185019317966481
 74
     0
  0
LTYPE
  5
231
330
5
100
AcDbSymbolTableRecord
100
AcDbLinetypeTableRecord
  2
AI-LINETYPE-97
 70
     0
  3
Adobe Illustrator Linetype No. 97
 72
    65
 73
     2
 40
2.370038635932962
 49
1.185019317966481
 74
     0
 49
-1.185019317966481
 74
     0
  0
LTYPE
  5
236
330
5
100
AcDbSymbolTableRecord
100
AcDbLinetypeTableRecord
  2
AI-LINETYPE-98
 70
     0
  3
Adobe Illustrator Linetype No. 98
 72
    65
 73
     2
 40
2.370038635932962
 49
1.185019317966481
 74
     0
 49
-1.185019317966481
 74
     0
  0
LTYPE
  5
23B
330
5
100
AcDbSymbolTableRecord
100
AcDbLinetypeTableRecord
  2
AI-LINETYPE-99
 70
     0
  3
Adobe Illustrator Linetype No. 99
 72
    65
 73
     2
 40
2.370038635932962
 49
1.185019317966481
 74
     0
 49
-1.185019317966481
 74
     0
  0
LTYPE
  5
240
330
5
100
AcDbSymbolTableRecord
100
AcDbLinetypeTableRecord
  2
AI-LINETYPE-100
 70
     0
  3
Adobe Illustrator Linetype No. 100
 72
    65
 73
     2
 40
2.370038635932962
 49
1.185019317966481
 74
     0
 49
-1.185019317966481
 74
     0
  0
LTYPE
  5
245
330
5
100
AcDbSymbolTableRecord
100
AcDbLinetypeTableRecord
  2
AI-LINETYPE-101
 70
     0
  3
Adobe Illustrator Linetype No. 101
 72
    65
 73
     2
 40
2.370038635932962
 49
1.185019317966481
 74
     0
 49
-1.185019317966481
 74
     0
  0
LTYPE
  5
24A
330
5
100
AcDbSymbolTableRecord
100
AcDbLinetypeTableRecord
  2
AI-LINETYPE-102
 70
     0
  3
Adobe Illustrator Linetype No. 102
 72
    65
 73
     2
 40
2.370038635932962
 49
1.185019317966481
 74
     0
 49
-1.185019317966481
 74
     0
  0
LTYPE
  5
24F
330
5
100
AcDbSymbolTableRecord
100
AcDbLinetypeTableRecord
  2
AI-LINETYPE-103
 70
     0
  3
Adobe Illustrator Linetype No. 103
 72
    65
 73
     2
 40
2.370038635932962
 49
1.185019317966481
 74
     0
 49
-1.185019317966481
 74
     0
  0
LTYPE
  5
254
330
5
100
AcDbSymbolTableRecord
100
AcDbLinetypeTableRecord
  2
AI-LINETYPE-104
 70
     0
  3
Adobe Illustrator Linetype No. 104
 72
    65
 73
     2
 40
2.370038635932962
 49
1.185019317966481
 74
     0
 49
-1.185019317966481
 74
     0
  0
ENDTAB
  0
TABLE
  2
LAYER
  5
2
330
0
100
AcDbSymbolTable
 70
     5
  0
LAYER
  5
10
330
2
100
AcDbSymbolTableRecord
100
AcDbLayerTableRecord
  2
0
 70
     0
 62
     7
  6
CONTINUOUS
  0
LAYER
  5
3B
330
2
100
AcDbSymbolTableRecord
100
AcDbLayerTableRecord
  2
CUTLINE
 70
     0
 62
     7
  6
CONTINUOUS
  0
LAYER
  5
4C
330
2
100
AcDbSymbolTableRecord
100
AcDbLayerTableRecord
  2
VALLEYLINE
 70
     0
 62
     7
  6
CONTINUOUS
  0
LAYER
  5
255
330
2
100
AcDbSymbolTableRecord
100
AcDbLayerTableRecord
  2
MOUNTAINLINE
 70
     0
 62
     7
  6
CONTINUOUS
  0
LAYER
  5
332
330
2
100
AcDbSymbolTableRecord
100
AcDbLayerTableRecord
  2
TEXT
 70
     0
 62
     7
  6
CONTINUOUS
  0
ENDTAB
  0
TABLE
  2
STYLE
  5
3
330
0
100
AcDbSymbolTable
 70
     1
  0
STYLE
  5
11
330
3
100
AcDbSymbolTableRecord
100
AcDbTextStyleTableRecord
  2
STANDARD
 70
     0
 40
0.0
 41
1.0
 50
0.0
 71
     0
 42
0.2
  3
txt
  4

  0
ENDTAB
  0
TABLE
  2
VIEW
  5
6
330
0
100
AcDbSymbolTable
 70
     0
  0
ENDTAB
  0
TABLE
  2
UCS
  5
7
330
0
100
AcDbSymbolTable
 70
     0
  0
ENDTAB
  0
TABLE
  2
APPID
  5
9
330
0
100
AcDbSymbolTable
 70
     1
  0
APPID
  5
12
330
9
100
AcDbSymbolTableRecord
100
AcDbRegAppTableRecord
  2
ACAD
 70
     0
  0
ENDTAB
  0
TABLE
  2
DIMSTYLE
  5
A
330
0
100
AcDbSymbolTable
 70
     1
  0
DIMSTYLE
105
27
330
A
100
AcDbSymbolTableRecord
100
AcDbDimStyleTableRecord
  2
STANDARD
 70
     0
  3

  4

  5

  6

  7

 40
1.0
 41
0.18
 42
0.0625
 43
0.38
 44
0.18
 45
0.0
 46
0.0
 47
0.0
 48
0.0
140
0.18
141
0.09
142
0.0
143
25.4
144
1.0
145
0.0
146
1.0
147
0.09
 71
     0
 72
     0
 73
     1
 74
     1
 75
     0
 76
     0
 77
     0
 78
     0
170
     0
171
     2
172
     0
173
     0
174
     0
175
     0
176
     0
177
     0
178
     0
270
     2
271
     4
272
     4
273
     2
274
     2
340
11
275
     0
280
     0
281
     0
282
     0
283
     1
284
     0
285
     0
286
     0
287
     3
288
     0
  0
ENDTAB
  0
TABLE
  2
BLOCK_RECORD
  5
1
330
0
100
AcDbSymbolTable
 70
     1
  0
BLOCK_RECORD
  5
1F
330
1
100
AcDbSymbolTableRecord
100
AcDbBlockTableRecord
  2
*MODEL_SPACE
  0
BLOCK_RECORD
  5
1B
330
1
100
AcDbSymbolTableRecord
100
AcDbBlockTableRecord
  2
*PAPER_SPACE
  0
ENDTAB
  0
ENDSEC
  0
SECTION
  2
BLOCKS
  0
BLOCK
  5
20
330
1F
100
AcDbEntity
  8
0
100
AcDbBlockBegin
  2
*MODEL_SPACE
 70
     0
 71
     0
 10
0.0
 20
0.0
 30
0.0
  3
*MODEL_SPACE
  1

  0
ENDBLK
  5
21
330
1F
100
AcDbEntity
  8
0
100
AcDbBlockEnd
  0
BLOCK
  5
1C
330
1B
100
AcDbEntity
 67
     1
  8
0
100
AcDbBlockBegin
  2
*PAPER_SPACE
 70
     0
 71
     0
 10
0.0
 20
0.0
 30
0.0
  3
*PAPER_SPACE
  1

  0
ENDBLK
  5
1D
330
1B
100
AcDbEntity
 67
     1
  8
0
100
AcDbBlockEnd
  0
ENDSEC
  0
SECTION
  2
ENTITIES
  0
POLYLINE
  5
3C
330
1F
100
AcDbEntity
  8
CUTLINE
 62
   250
100
AcDb2dPolyline
 66
     1
 10
0.0
 20
0.0
 30
0.0
  0
VERTEX
  5
3D
330
3C
100
AcDbEntity
  8
CUTLINE
 62
   250
100
AcDbVertex
100
AcDb2dVertex
 10
11.77740342587509
 20
-253.9920762168839
 30
0.0
  0
VERTEX
  5
3E
330
3C
100
AcDbEntity
  8
CUTLINE
 62
   250
100
AcDbVertex
100
AcDb2dVertex
 10
11.77740342587509
 20
-39.85699868795242
 30
0.0
  0
SEQEND
  5
3F
330
3C
100
AcDbEntity
  8
CUTLINE
  0
POLYLINE
  5
40
330
1F
100
AcDbEntity
  8
CUTLINE
 62
   250
100
AcDb2dPolyline
 66
     1
 10
0.0
 20
0.0
 30
0.0
  0
VERTEX
  5
41
330
40
100
AcDbEntity
  8
CUTLINE
 62
   250
100
AcDbVertex
100
AcDb2dVertex
 10
198.9663221073765
 20
-253.9920762168839
 30
0.0
  0
VERTEX
  5
42
330
40
100
AcDbEntity
  8
CUTLINE
 62
   250
100
AcDbVertex
100
AcDb2dVertex
 10
198.9663221073765
 20
-39.85699868795242
 30
0.0
  0
SEQEND
  5
43
330
40
100
AcDbEntity
  8
CUTLINE
  0
POLYLINE
  5
44
330
1F
100
AcDbEntity
  8
CUTLINE
 62
   250
100
AcDb2dPolyline
 66
     1
 10
0.0
 20
0.0
 30
0.0
  0
VERTEX
  5
45
330
44
100
AcDbEntity
  8
CUTLINE
 62
   250
100
AcDbVertex
100
AcDb2dVertex
 10
198.9663221073765
 20
-253.9920762168839
 30
0.0
  0
VERTEX
  5
46
330
44
100
AcDbEntity
  8
CUTLINE
 62
   250
100
AcDbVertex
100
AcDb2dVertex
 10
11.77740342587509
 20
-253.9920762168839
 30
0.0
  0
SEQEND
  5
47
330
44
100
AcDbEntity
  8
CUTLINE
  0
POLYLINE
  5
48
330
1F
100
AcDbEntity
  8
CUTLINE
 62
   250
100
AcDb2dPolyline
 66
     1
 10
0.0
 20
0.0
 30
0.0
  0
VERTEX
  5
49
330
48
100
AcDbEntity
  8
CUTLINE
 62
   250
100
AcDbVertex
100
AcDb2dVertex
 10
198.9663221073765
 20
-39.85699868795242
 30
0.0
  0
VERTEX
  5
4A
330
48
100
AcDbEntity
  8
CUTLINE
 62
   250
100
AcDbVertex
100
AcDb2dVertex
 10
11.77740342587509
 20
-39.85699868795242
 30
0.0
  0
SEQEND
  5
4B
330
48
100
AcDbEntity
  8
CUTLINE
  0
POLYLINE
  5
4D
330
1F
100
AcDbEntity
  8
VALLEYLINE
  6
AI-LINETYPE-1
 62
   250
100
AcDb2dPolyline
 66
     1
 10
0.0
 20
0.0
 30
0.0
  0
VERTEX
  5
4E
330
4D
100
AcDbEntity
  8
VALLEYLINE
  6
AI-LINETYPE-1
 62
   250
100
AcDbVertex
100
AcDb2dVertex
 10
198.9663221073765
 20
-247.3309840961534
 30
0.0
  0
VERTEX
  5
4F
330
4D
100
AcDbEntity
  8
VALLEYLINE
  6
AI-LINETYPE-1
 62
   250
100
AcDbVertex
100
AcDb2dVertex
 10
155.688343602571
 20
-229.9019015267259
 30
0.0
  0
SEQEND
  5
50
330
4D
100
AcDbEntity
  8
VALLEYLINE
  6
AI-LINETYPE-1
  0
POLYLINE
  5
52
330
1F
100
AcDbEntity
  8
VALLEYLINE
  6
AI-LINETYPE-2
 62
   250
100
AcDb2dPolyline
 66
     1
 10
0.0
 20
0.0
 30
0.0
  0
VERTEX
  5
53
330
52
100
AcDbEntity
  8
VALLEYLINE
  6
AI-LINETYPE-2
 62
   250
100
AcDbVertex
100
AcDb2dVertex
 10
155.688343602571
 20
-229.9019015267259
 30
0.0
  0
VERTEX
  5
54
330
52
100
AcDbEntity
  8
VALLEYLINE
  6
AI-LINETYPE-2
 62
   250
100
AcDbVertex
100
AcDb2dVertex
 10
141.698844365617
 20
-229.9019015267259
 30
0.0
  0
SEQEND
  5
55
330
52
100
AcDbEntity
  8
VALLEYLINE
  6
AI-LINETYPE-2
  0
POLYLINE
  5
57
330
1F
100
AcDbEntity
  8
VALLEYLINE
  6
AI-LINETYPE-3
 62
   250
100
AcDb2dPolyline
 66
     1
 10
0.0
 20
0.0
 30
0.0
  0
VERTEX
  5
58
330
57
100
AcDbEntity
  8
VALLEYLINE
  6
AI-LINETYPE-3
 62
   250
100
AcDbVertex
100
AcDb2dVertex
 10
141.698844365617
 20
-229.9019015267259
 30
0.0
  0
VERTEX
  5
59
330
57
100
AcDbEntity
  8
VALLEYLINE
  6
AI-LINETYPE-3
 62
   250
100
AcDbVertex
100
AcDb2dVertex
 10
94.35048554498877
 20
-248.6387423423542
 30
0.0
  0
SEQEND
  5
5A
330
57
100
AcDbEntity
  8
VALLEYLINE
  6
AI-LINETYPE-3
  0
POLYLINE
  5
5C
330
1F
100
AcDbEntity
  8
VALLEYLINE
  6
AI-LINETYPE-4
 62
   250
100
AcDb2dPolyline
 66
     1
 10
0.0
 20
0.0
 30
0.0
  0
VERTEX
  5
5D
330
5C
100
AcDbEntity
  8
VALLEYLINE
  6
AI-LINETYPE-4
 62
   250
100
AcDbVertex
100
AcDb2dVertex
 10
94.35048554498877
 20
-248.6387423423542
 30
0.0
  0
VERTEX
  5
5E
330
5C
100
AcDbEntity
  8
VALLEYLINE
  6
AI-LINETYPE-4
 62
   250
100
AcDbVertex
100
AcDb2dVertex
 10
80.3616753271318
 20
-248.6387423423542
 30
0.0
  0
SEQEND
  5
5F
330
5C
100
AcDbEntity
  8
VALLEYLINE
  6
AI-LINETYPE-4
  0
POLYLINE
  5
61
330
1F
100
AcDbEntity
  8
VALLEYLINE
  6
AI-LINETYPE-5
 62
   250
100
AcDb2dPolyline
 66
     1
 10
0.0
 20
0.0
 30
0.0
  0
VERTEX
  5
62
330
61
100
AcDbEntity
  8
VALLEYLINE
  6
AI-LINETYPE-5
 62
   250
100
AcDbVertex
100
AcDb2dVertex
 10
80.3616753271318
 20
-248.6387423423542
 30
0.0
  0
VERTEX
  5
63
330
61
100
AcDbEntity
  8
VALLEYLINE
  6
AI-LINETYPE-5
 62
   250
100
AcDbVertex
100
AcDb2dVertex
 10
45.15228270355568
 20
-235.2552354012556
 30
0.0
  0
SEQEND
  5
64
330
61
100
AcDbEntity
  8
VALLEYLINE
  6
AI-LINETYPE-5
  0
POLYLINE
  5
66
330
1F
100
AcDbEntity
  8
VALLEYLINE
  6
AI-LINETYPE-6
 62
   250
100
AcDb2dPolyline
 66
     1
 10
0.0
 20
0.0
 30
0.0
  0
VERTEX
  5
67
330
66
100
AcDbEntity
  8
VALLEYLINE
  6
AI-LINETYPE-6
 62
   250
100
AcDbVertex
100
AcDb2dVertex
 10
45.15228270355568
 20
-235.2552354012556
 30
0.0
  0
VERTEX
  5
68
330
66
100
AcDbEntity
  8
VALLEYLINE
  6
AI-LINETYPE-6
 62
   250
100
AcDbVertex
100
AcDb2dVertex
 10
31.16381699524724
 20
-235.2552354012556
 30
0.0
  0
SEQEND
  5
69
330
66
100
AcDbEntity
  8
VALLEYLINE
  6
AI-LINETYPE-6
  0
POLYLINE
  5
6B
330
1F
100
AcDbEntity
  8
VALLEYLINE
  6
AI-LINETYPE-7
 62
   250
100
AcDb2dPolyline
 66
     1
 10
0.0
 20
0.0
 30
0.0
  0
VERTEX
  5
6C
330
6B
100
AcDbEntity
  8
VALLEYLINE
  6
AI-LINETYPE-7
 62
   250
100
AcDbVertex
100
AcDb2dVertex
 10
31.16381699524724
 20
-235.2552354012556
 30
0.0
  0
VERTEX
  5
6D
330
6B
100
AcDbEntity
  8
VALLEYLINE
  6
AI-LINETYPE-7
 62
   250
100
AcDbVertex
100
AcDb2dVertex
 10
11.77740342587509
 20
-243.2854084678245
 30
0.0
  0
SEQEND
  5
6E
330
6B
100
AcDbEntity
  8
VALLEYLINE
  6
AI-LINETYPE-7
  0
POLYLINE
  5
70
330
1F
100
AcDbEntity
  8
VALLEYLINE
  6
AI-LINETYPE-8
 62
   250
100
AcDb2dPolyline
 66
     1
 10
0.0
 20
0.0
 30
0.0
  0
VERTEX
  5
71
330
70
100
AcDbEntity
  8
VALLEYLINE
  6
AI-LINETYPE-8
 62
   250
100
AcDbVertex
100
AcDb2dVertex
 10
155.688343602571
 20
-253.9920762168839
 30
0.0
  0
VERTEX
  5
72
330
70
100
AcDbEntity
  8
VALLEYLINE
  6
AI-LINETYPE-8
 62
   250
100
AcDbVertex
100
AcDb2dVertex
 10
155.688343602571
 20
-229.9019015267259
 30
0.0
  0
SEQEND
  5
73
330
70
100
AcDbEntity
  8
VALLEYLINE
  6
AI-LINETYPE-8
  0
POLYLINE
  5
75
330
1F
100
AcDbEntity
  8
VALLEYLINE
  6
AI-LINETYPE-9
 62
   250
100
AcDb2dPolyline
 66
     1
 10
0.0
 20
0.0
 30
0.0
  0
VERTEX
  5
76
330
75
100
AcDbEntity
  8
VALLEYLINE
  6
AI-LINETYPE-9
 62
   250
100
AcDbVertex
100
AcDb2dVertex
 10
141.698844365617
 20
-253.9920762168839
 30
0.0
  0
VERTEX
  5
77
330
75
100
AcDbEntity
  8
VALLEYLINE
  6
AI-LINETYPE-9
 62
   250
100
AcDbVertex
100
AcDb2dVertex
 10
141.698844365617
 20
-229.9019015267259
 30
0.0
  0
SEQEND
  5
78
330
75
100
AcDbEntity
  8
VALLEYLINE
  6
AI-LINETYPE-9
  0
POLYLINE
  5
7A
330
1F
100
AcDbEntity
  8
VALLEYLINE
  6
AI-LINETYPE-10
 62
   250
100
AcDb2dPolyline
 66
     1
 10
0.0
 20
0.0
 30
0.0
  0
VERTEX
  5
7B
330
7A
100
AcDbEntity
  8
VALLEYLINE
  6
AI-LINETYPE-10
 62
   250
100
AcDbVertex
100
AcDb2dVertex
 10
94.35048554498877
 20
-248.6387423423542
 30
0.0
  0
VERTEX
  5
7C
330
7A
100
AcDbEntity
  8
VALLEYLINE
  6
AI-LINETYPE-10
 62
   250
100
AcDbVertex
100
AcDb2dVertex
 10
94.35048554498877
 20
-227.2254068442353
 30
0.0
  0
SEQEND
  5
7D
330
7A
100
AcDbEntity
  8
VALLEYLINE
  6
AI-LINETYPE-10
  0
POLYLINE
  5
7F
330
1F
100
AcDbEntity
  8
VALLEYLINE
  6
AI-LINETYPE-11
 62
   250
100
AcDb2dPolyline
 66
     1
 10
0.0
 20
0.0
 30
0.0
  0
VERTEX
  5
80
330
7F
100
AcDbEntity
  8
VALLEYLINE
  6
AI-LINETYPE-11
 62
   250
100
AcDbVertex
100
AcDb2dVertex
 10
80.3616753271318
 20
-248.6387423423542
 30
0.0
  0
VERTEX
  5
81
330
7F
100
AcDbEntity
  8
VALLEYLINE
  6
AI-LINETYPE-11
 62
   250
100
AcDbVertex
100
AcDb2dVertex
 10
80.3616753271318
 20
-227.2254068442353
 30
0.0
  0
SEQEND
  5
82
330
7F
100
AcDbEntity
  8
VALLEYLINE
  6
AI-LINETYPE-11
  0
POLYLINE
  5
84
330
1F
100
AcDbEntity
  8
VALLEYLINE
  6
AI-LINETYPE-12
 62
   250
100
AcDb2dPolyline
 66
     1
 10
0.0
 20
0.0
 30
0.0
  0
VERTEX
  5
85
330
84
100
AcDbEntity
  8
VALLEYLINE
  6
AI-LINETYPE-12
 62
   250
100
AcDbVertex
100
AcDb2dVertex
 10
45.15228270355568
 20
-253.9920762168839
 30
0.0
  0
VERTEX
  5
86
330
84
100
AcDbEntity
  8
VALLEYLINE
  6
AI-LINETYPE-12
 62
   250
100
AcDbVertex
100
AcDb2dVertex
 10
45.15228270355568
 20
-235.2552354012556
 30
0.0
  0
SEQEND
  5
87
330
84
100
AcDbEntity
  8
VALLEYLINE
  6
AI-LINETYPE-12
  0
POLYLINE
  5
89
330
1F
100
AcDbEntity
  8
VALLEYLINE
  6
AI-LINETYPE-13
 62
   250
100
AcDb2dPolyline
 66
     1
 10
0.0
 20
0.0
 30
0.0
  0
VERTEX
  5
8A
330
89
100
AcDbEntity
  8
VALLEYLINE
  6
AI-LINETYPE-13
 62
   250
100
AcDbVertex
100
AcDb2dVertex
 10
31.16381699524724
 20
-253.9920762168839
 30
0.0
  0
VERTEX
  5
8B
330
89
100
AcDbEntity
  8
VALLEYLINE
  6
AI-LINETYPE-13
 62
   250
100
AcDbVertex
100
AcDb2dVertex
 10
31.16381699524724
 20
-235.2552354012556
 30
0.0
  0
SEQEND
  5
8C
330
89
100
AcDbEntity
  8
VALLEYLINE
  6
AI-LINETYPE-13
  0
POLYLINE
  5
8E
330
1F
100
AcDbEntity
  8
VALLEYLINE
  6
AI-LINETYPE-14
 62
   250
100
AcDb2dPolyline
 66
     1
 10
0.0
 20
0.0
 30
0.0
  0
VERTEX
  5
8F
330
8E
100
AcDbEntity
  8
VALLEYLINE
  6
AI-LINETYPE-14
 62
   250
100
AcDbVertex
100
AcDb2dVertex
 10
198.9663221073765
 20
-220.5643147235048
 30
0.0
  0
VERTEX
  5
90
330
8E
100
AcDbEntity
  8
VALLEYLINE
  6
AI-LINETYPE-14
 62
   250
100
AcDbVertex
100
AcDb2dVertex
 10
155.688343602571
 20
-203.1345431349803
 30
0.0
  0
SEQEND
  5
91
330
8E
100
AcDbEntity
  8
VALLEYLINE
  6
AI-LINETYPE-14
  0
POLYLINE
  5
93
330
1F
100
AcDbEntity
  8
VALLEYLINE
  6
AI-LINETYPE-15
 62
   250
100
AcDb2dPolyline
 66
     1
 10
0.0
 20
0.0
 30
0.0
  0
VERTEX
  5
94
330
93
100
AcDbEntity
  8
VALLEYLINE
  6
AI-LINETYPE-15
 62
   250
100
AcDbVertex
100
AcDb2dVertex
 10
155.688343602571
 20
-203.1345431349803
 30
0.0
  0
VERTEX
  5
95
330
93
100
AcDbEntity
  8
VALLEYLINE
  6
AI-LINETYPE-15
 62
   250
100
AcDbVertex
100
AcDb2dVertex
 10
141.698844365617
 20
-203.1345431349803
 30
0.0
  0
SEQEND
  5
96
330
93
100
AcDbEntity
  8
VALLEYLINE
  6
AI-LINETYPE-15
  0
POLYLINE
  5
98
330
1F
100
AcDbEntity
  8
VALLEYLINE
  6
AI-LINETYPE-16
 62
   250
100
AcDb2dPolyline
 66
     1
 10
0.0
 20
0.0
 30
0.0
  0
VERTEX
  5
99
330
98
100
AcDbEntity
  8
VALLEYLINE
  6
AI-LINETYPE-16
 62
   250
100
AcDbVertex
100
AcDb2dVertex
 10
141.698844365617
 20
-203.1345431349803
 30
0.0
  0
VERTEX
  5
9A
330
98
100
AcDbEntity
  8
VALLEYLINE
  6
AI-LINETYPE-16
 62
   250
100
AcDbVertex
100
AcDb2dVertex
 10
94.35048554498877
 20
-221.8713839506086
 30
0.0
  0
SEQEND
  5
9B
330
98
100
AcDbEntity
  8
VALLEYLINE
  6
AI-LINETYPE-16
  0
POLYLINE
  5
9D
330
1F
100
AcDbEntity
  8
VALLEYLINE
  6
AI-LINETYPE-17
 62
   250
100
AcDb2dPolyline
 66
     1
 10
0.0
 20
0.0
 30
0.0
  0
VERTEX
  5
9E
330
9D
100
AcDbEntity
  8
VALLEYLINE
  6
AI-LINETYPE-17
 62
   250
100
AcDbVertex
100
AcDb2dVertex
 10
94.35048554498877
 20
-221.8713839506086
 30
0.0
  0
VERTEX
  5
9F
330
9D
100
AcDbEntity
  8
VALLEYLINE
  6
AI-LINETYPE-17
 62
   250
100
AcDbVertex
100
AcDb2dVertex
 10
80.3616753271318
 20
-221.8713839506086
 30
0.0
  0
SEQEND
  5
A0
330
9D
100
AcDbEntity
  8
VALLEYLINE
  6
AI-LINETYPE-17
  0
POLYLINE
  5
A2
330
1F
100
AcDbEntity
  8
VALLEYLINE
  6
AI-LINETYPE-18
 62
   250
100
AcDb2dPolyline
 66
     1
 10
0.0
 20
0.0
 30
0.0
  0
VERTEX
  5
A3
330
A2
100
AcDbEntity
  8
VALLEYLINE
  6
AI-LINETYPE-18
 62
   250
100
AcDbVertex
100
AcDb2dVertex
 10
80.3616753271318
 20
-221.8713839506086
 30
0.0
  0
VERTEX
  5
A4
330
A2
100
AcDbEntity
  8
VALLEYLINE
  6
AI-LINETYPE-18
 62
   250
100
AcDbVertex
100
AcDb2dVertex
 10
45.15228270355568
 20
-208.4882215190585
 30
0.0
  0
SEQEND
  5
A5
330
A2
100
AcDbEntity
  8
VALLEYLINE
  6
AI-LINETYPE-18
  0
POLYLINE
  5
A7
330
1F
100
AcDbEntity
  8
VALLEYLINE
  6
AI-LINETYPE-19
 62
   250
100
AcDb2dPolyline
 66
     1
 10
0.0
 20
0.0
 30
0.0
  0
VERTEX
  5
A8
330
A7
100
AcDbEntity
  8
VALLEYLINE
  6
AI-LINETYPE-19
 62
   250
100
AcDbVertex
100
AcDb2dVertex
 10
45.15228270355568
 20
-208.4882215190585
 30
0.0
  0
VERTEX
  5
A9
330
A7
100
AcDbEntity
  8
VALLEYLINE
  6
AI-LINETYPE-19
 62
   250
100
AcDbVertex
100
AcDb2dVertex
 10
31.16381699524724
 20
-208.4882215190585
 30
0.0
  0
SEQEND
  5
AA
330
A7
100
AcDbEntity
  8
VALLEYLINE
  6
AI-LINETYPE-19
  0
POLYLINE
  5
AC
330
1F
100
AcDbEntity
  8
VALLEYLINE
  6
AI-LINETYPE-20
 62
   250
100
AcDb2dPolyline
 66
     1
 10
0.0
 20
0.0
 30
0.0
  0
VERTEX
  5
AD
330
AC
100
AcDbEntity
  8
VALLEYLINE
  6
AI-LINETYPE-20
 62
   250
100
AcDbVertex
100
AcDb2dVertex
 10
31.16381699524724
 20
-208.4882215190585
 30
0.0
  0
VERTEX
  5
AE
330
AC
100
AcDbEntity
  8
VALLEYLINE
  6
AI-LINETYPE-20
 62
   250
100
AcDbVertex
100
AcDb2dVertex
 10
11.77740342587509
 20
-216.5183945856274
 30
0.0
  0
SEQEND
  5
AF
330
AC
100
AcDbEntity
  8
VALLEYLINE
  6
AI-LINETYPE-20
  0
POLYLINE
  5
B1
330
1F
100
AcDbEntity
  8
VALLEYLINE
  6
AI-LINETYPE-21
 62
   250
100
AcDb2dPolyline
 66
     1
 10
0.0
 20
0.0
 30
0.0
  0
VERTEX
  5
B2
330
B1
100
AcDbEntity
  8
VALLEYLINE
  6
AI-LINETYPE-21
 62
   250
100
AcDbVertex
100
AcDb2dVertex
 10
155.688343602571
 20
-227.2254068442353
 30
0.0
  0
VERTEX
  5
B3
330
B1
100
AcDbEntity
  8
VALLEYLINE
  6
AI-LINETYPE-21
 62
   250
100
AcDbVertex
100
AcDb2dVertex
 10
155.688343602571
 20
-203.1345431349803
 30
0.0
  0
SEQEND
  5
B4
330
B1
100
AcDbEntity
  8
VALLEYLINE
  6
AI-LINETYPE-21
  0
POLYLINE
  5
B6
330
1F
100
AcDbEntity
  8
VALLEYLINE
  6
AI-LINETYPE-22
 62
   250
100
AcDb2dPolyline
 66
     1
 10
0.0
 20
0.0
 30
0.0
  0
VERTEX
  5
B7
330
B6
100
AcDbEntity
  8
VALLEYLINE
  6
AI-LINETYPE-22
 62
   250
100
AcDbVertex
100
AcDb2dVertex
 10
141.698844365617
 20
-227.2254068442353
 30
0.0
  0
VERTEX
  5
B8
330
B6
100
AcDbEntity
  8
VALLEYLINE
  6
AI-LINETYPE-22
 62
   250
100
AcDbVertex
100
AcDb2dVertex
 10
141.698844365617
 20
-203.1345431349803
 30
0.0
  0
SEQEND
  5
B9
330
B6
100
AcDbEntity
  8
VALLEYLINE
  6
AI-LINETYPE-22
  0
POLYLINE
  5
BB
330
1F
100
AcDbEntity
  8
VALLEYLINE
  6
AI-LINETYPE-23
 62
   250
100
AcDb2dPolyline
 66
     1
 10
0.0
 20
0.0
 30
0.0
  0
VERTEX
  5
BC
330
BB
100
AcDbEntity
  8
VALLEYLINE
  6
AI-LINETYPE-23
 62
   250
100
AcDbVertex
100
AcDb2dVertex
 10
94.35048554498877
 20
-221.8713839506086
 30
0.0
  0
VERTEX
  5
BD
330
BB
100
AcDbEntity
  8
VALLEYLINE
  6
AI-LINETYPE-23
 62
   250
100
AcDbVertex
100
AcDb2dVertex
 10
94.35048554498877
 20
-200.4580484524897
 30
0.0
  0
SEQEND
  5
BE
330
BB
100
AcDbEntity
  8
VALLEYLINE
  6
AI-LINETYPE-23
  0
POLYLINE
  5
C0
330
1F
100
AcDbEntity
  8
VALLEYLINE
  6
AI-LINETYPE-24
 62
   250
100
AcDb2dPolyline
 66
     1
 10
0.0
 20
0.0
 30
0.0
  0
VERTEX
  5
C1
330
C0
100
AcDbEntity
  8
VALLEYLINE
  6
AI-LINETYPE-24
 62
   250
100
AcDbVertex
100
AcDb2dVertex
 10
80.3616753271318
 20
-221.8713839506086
 30
0.0
  0
VERTEX
  5
C2
330
C0
100
AcDbEntity
  8
VALLEYLINE
  6
AI-LINETYPE-24
 62
   250
100
AcDbVertex
100
AcDb2dVertex
 10
80.3616753271318
 20
-200.4580484524897
 30
0.0
  0
SEQEND
  5
C3
330
C0
100
AcDbEntity
  8
VALLEYLINE
  6
AI-LINETYPE-24
  0
POLYLINE
  5
C5
330
1F
100
AcDbEntity
  8
VALLEYLINE
  6
AI-LINETYPE-25
 62
   250
100
AcDb2dPolyline
 66
     1
 10
0.0
 20
0.0
 30
0.0
  0
VERTEX
  5
C6
330
C5
100
AcDbEntity
  8
VALLEYLINE
  6
AI-LINETYPE-25
 62
   250
100
AcDbVertex
100
AcDb2dVertex
 10
45.15228270355568
 20
-227.2254068442353
 30
0.0
  0
VERTEX
  5
C7
330
C5
100
AcDbEntity
  8
VALLEYLINE
  6
AI-LINETYPE-25
 62
   250
100
AcDbVertex
100
AcDb2dVertex
 10
45.15228270355568
 20
-208.4882215190585
 30
0.0
  0
SEQEND
  5
C8
330
C5
100
AcDbEntity
  8
VALLEYLINE
  6
AI-LINETYPE-25
  0
POLYLINE
  5
CA
330
1F
100
AcDbEntity
  8
VALLEYLINE
  6
AI-LINETYPE-26
 62
   250
100
AcDb2dPolyline
 66
     1
 10
0.0
 20
0.0
 30
0.0
  0
VERTEX
  5
CB
330
CA
100
AcDbEntity
  8
VALLEYLINE
  6
AI-LINETYPE-26
 62
   250
100
AcDbVertex
100
AcDb2dVertex
 10
31.16381699524724
 20
-227.2254068442353
 30
0.0
  0
VERTEX
  5
CC
330
CA
100
AcDbEntity
  8
VALLEYLINE
  6
AI-LINETYPE-26
 62
   250
100
AcDbVertex
100
AcDb2dVertex
 10
31.16381699524724
 20
-208.4882215190585
 30
0.0
  0
SEQEND
  5
CD
330
CA
100
AcDbEntity
  8
VALLEYLINE
  6
AI-LINETYPE-26
  0
POLYLINE
  5
CF
330
1F
100
AcDbEntity
  8
VALLEYLINE
  6
AI-LINETYPE-27
 62
   250
100
AcDb2dPolyline
 66
     1
 10
0.0
 20
0.0
 30
0.0
  0
VERTEX
  5
D0
330
CF
100
AcDbEntity
  8
VALLEYLINE
  6
AI-LINETYPE-27
 62
   250
100
AcDbVertex
100
AcDb2dVertex
 10
198.9663221073765
 20
-193.7969563317591
 30
0.0
  0
VERTEX
  5
D1
330
CF
100
AcDbEntity
  8
VALLEYLINE
  6
AI-LINETYPE-27
 62
   250
100
AcDbVertex
100
AcDb2dVertex
 10
155.688343602571
 20
-176.3682182718802
 30
0.0
  0
SEQEND
  5
D2
330
CF
100
AcDbEntity
  8
VALLEYLINE
  6
AI-LINETYPE-27
  0
POLYLINE
  5
D4
330
1F
100
AcDbEntity
  8
VALLEYLINE
  6
AI-LINETYPE-28
 62
   250
100
AcDb2dPolyline
 66
     1
 10
0.0
 20
0.0
 30
0.0
  0
VERTEX
  5
D5
330
D4
100
AcDbEntity
  8
VALLEYLINE
  6
AI-LINETYPE-28
 62
   250
100
AcDbVertex
100
AcDb2dVertex
 10
155.688343602571
 20
-176.3682182718802
 30
0.0
  0
VERTEX
  5
D6
330
D4
100
AcDbEntity
  8
VALLEYLINE
  6
AI-LINETYPE-28
 62
   250
100
AcDbVertex
100
AcDb2dVertex
 10
141.698844365617
 20
-176.3682182718802
 30
0.0
  0
SEQEND
  5
D7
330
D4
100
AcDbEntity
  8
VALLEYLINE
  6
AI-LINETYPE-28
  0
POLYLINE
  5
D9
330
1F
100
AcDbEntity
  8
VALLEYLINE
  6
AI-LINETYPE-29
 62
   250
100
AcDb2dPolyline
 66
     1
 10
0.0
 20
0.0
 30
0.0
  0
VERTEX
  5
DA
330
D9
100
AcDbEntity
  8
VALLEYLINE
  6
AI-LINETYPE-29
 62
   250
100
AcDbVertex
100
AcDb2dVertex
 10
141.698844365617
 20
-176.3682182718802
 30
0.0
  0
VERTEX
  5
DB
330
D9
100
AcDbEntity
  8
VALLEYLINE
  6
AI-LINETYPE-29
 62
   250
100
AcDbVertex
100
AcDb2dVertex
 10
94.35048554498877
 20
-195.10471457796
 30
0.0
  0
SEQEND
  5
DC
330
D9
100
AcDbEntity
  8
VALLEYLINE
  6
AI-LINETYPE-29
  0
POLYLINE
  5
DE
330
1F
100
AcDbEntity
  8
VALLEYLINE
  6
AI-LINETYPE-30
 62
   250
100
AcDb2dPolyline
 66
     1
 10
0.0
 20
0.0
 30
0.0
  0
VERTEX
  5
DF
330
DE
100
AcDbEntity
  8
VALLEYLINE
  6
AI-LINETYPE-30
 62
   250
100
AcDbVertex
100
AcDb2dVertex
 10
94.35048554498877
 20
-195.10471457796
 30
0.0
  0
VERTEX
  5
E0
330
DE
100
AcDbEntity
  8
VALLEYLINE
  6
AI-LINETYPE-30
 62
   250
100
AcDbVertex
100
AcDb2dVertex
 10
80.3616753271318
 20
-195.10471457796
 30
0.0
  0
SEQEND
  5
E1
330
DE
100
AcDbEntity
  8
VALLEYLINE
  6
AI-LINETYPE-30
  0
POLYLINE
  5
E3
330
1F
100
AcDbEntity
  8
VALLEYLINE
  6
AI-LINETYPE-31
 62
   250
100
AcDb2dPolyline
 66
     1
 10
0.0
 20
0.0
 30
0.0
  0
VERTEX
  5
E4
330
E3
100
AcDbEntity
  8
VALLEYLINE
  6
AI-LINETYPE-31
 62
   250
100
AcDbVertex
100
AcDb2dVertex
 10
80.3616753271318
 20
-195.10471457796
 30
0.0
  0
VERTEX
  5
E5
330
E3
100
AcDbEntity
  8
VALLEYLINE
  6
AI-LINETYPE-31
 62
   250
100
AcDbVertex
100
AcDb2dVertex
 10
45.15228270355568
 20
-181.7212076368614
 30
0.0
  0
SEQEND
  5
E6
330
E3
100
AcDbEntity
  8
VALLEYLINE
  6
AI-LINETYPE-31
  0
POLYLINE
  5
E8
330
1F
100
AcDbEntity
  8
VALLEYLINE
  6
AI-LINETYPE-32
 62
   250
100
AcDb2dPolyline
 66
     1
 10
0.0
 20
0.0
 30
0.0
  0
VERTEX
  5
E9
330
E8
100
AcDbEntity
  8
VALLEYLINE
  6
AI-LINETYPE-32
 62
   250
100
AcDbVertex
100
AcDb2dVertex
 10
45.15228270355568
 20
-181.7212076368614
 30
0.0
  0
VERTEX
  5
EA
330
E8
100
AcDbEntity
  8
VALLEYLINE
  6
AI-LINETYPE-32
 62
   250
100
AcDbVertex
100
AcDb2dVertex
 10
31.16381699524724
 20
-181.7212076368614
 30
0.0
  0
SEQEND
  5
EB
330
E8
100
AcDbEntity
  8
VALLEYLINE
  6
AI-LINETYPE-32
  0
POLYLINE
  5
ED
330
1F
100
AcDbEntity
  8
VALLEYLINE
  6
AI-LINETYPE-33
 62
   250
100
AcDb2dPolyline
 66
     1
 10
0.0
 20
0.0
 30
0.0
  0
VERTEX
  5
EE
330
ED
100
AcDbEntity
  8
VALLEYLINE
  6
AI-LINETYPE-33
 62
   250
100
AcDbVertex
100
AcDb2dVertex
 10
31.16381699524724
 20
-181.7212076368614
 30
0.0
  0
VERTEX
  5
EF
330
ED
100
AcDbEntity
  8
VALLEYLINE
  6
AI-LINETYPE-33
 62
   250
100
AcDbVertex
100
AcDb2dVertex
 10
11.77740342587509
 20
-189.7513807034302
 30
0.0
  0
SEQEND
  5
F0
330
ED
100
AcDbEntity
  8
VALLEYLINE
  6
AI-LINETYPE-33
  0
POLYLINE
  5
F2
330
1F
100
AcDbEntity
  8
VALLEYLINE
  6
AI-LINETYPE-34
 62
   250
100
AcDb2dPolyline
 66
     1
 10
0.0
 20
0.0
 30
0.0
  0
VERTEX
  5
F3
330
F2
100
AcDbEntity
  8
VALLEYLINE
  6
AI-LINETYPE-34
 62
   250
100
AcDbVertex
100
AcDb2dVertex
 10
155.688343602571
 20
-200.4580484524897
 30
0.0
  0
VERTEX
  5
F4
330
F2
100
AcDbEntity
  8
VALLEYLINE
  6
AI-LINETYPE-34
 62
   250
100
AcDbVertex
100
AcDb2dVertex
 10
155.688343602571
 20
-176.3682182718802
 30
0.0
  0
SEQEND
  5
F5
330
F2
100
AcDbEntity
  8
VALLEYLINE
  6
AI-LINETYPE-34
  0
POLYLINE
  5
F7
330
1F
100
AcDbEntity
  8
VALLEYLINE
  6
AI-LINETYPE-35
 62
   250
100
AcDb2dPolyline
 66
     1
 10
0.0
 20
0.0
 30
0.0
  0
VERTEX
  5
F8
330
F7
100
AcDbEntity
  8
VALLEYLINE
  6
AI-LINETYPE-35
 62
   250
100
AcDbVertex
100
AcDb2dVertex
 10
141.698844365617
 20
-200.4580484524897
 30
0.0
  0
VERTEX
  5
F9
330
F7
100
AcDbEntity
  8
VALLEYLINE
  6
AI-LINETYPE-35
 62
   250
100
AcDbVertex
100
AcDb2dVertex
 10
141.698844365617
 20
-176.3682182718802
 30
0.0
  0
SEQEND
  5
FA
330
F7
100
AcDbEntity
  8
VALLEYLINE
  6
AI-LINETYPE-35
  0
POLYLINE
  5
FC
330
1F
100
AcDbEntity
  8
VALLEYLINE
  6
AI-LINETYPE-36
 62
   250
100
AcDb2dPolyline
 66
     1
 10
0.0
 20
0.0
 30
0.0
  0
VERTEX
  5
FD
330
FC
100
AcDbEntity
  8
VALLEYLINE
  6
AI-LINETYPE-36
 62
   250
100
AcDbVertex
100
AcDb2dVertex
 10
94.35048554498877
 20
-195.10471457796
 30
0.0
  0
VERTEX
  5
FE
330
FC
100
AcDbEntity
  8
VALLEYLINE
  6
AI-LINETYPE-36
 62
   250
100
AcDbVertex
100
AcDb2dVertex
 10
94.35048554498877
 20
-173.6913790798411
 30
0.0
  0
SEQEND
  5
FF
330
FC
100
AcDbEntity
  8
VALLEYLINE
  6
AI-LINETYPE-36
  0
POLYLINE
  5
101
330
1F
100
AcDbEntity
  8
VALLEYLINE
  6
AI-LINETYPE-37
 62
   250
100
AcDb2dPolyline
 66
     1
 10
0.0
 20
0.0
 30
0.0
  0
VERTEX
  5
102
330
101
100
AcDbEntity
  8
VALLEYLINE
  6
AI-LINETYPE-37
 62
   250
100
AcDbVertex
100
AcDb2dVertex
 10
80.3616753271318
 20
-195.10471457796
 30
0.0
  0
VERTEX
  5
103
330
101
100
AcDbEntity
  8
VALLEYLINE
  6
AI-LINETYPE-37
 62
   250
100
AcDbVertex
100
AcDb2dVertex
 10
80.3616753271318
 20
-173.6913790798411
 30
0.0
  0
SEQEND
  5
104
330
101
100
AcDbEntity
  8
VALLEYLINE
  6
AI-LINETYPE-37
  0
POLYLINE
  5
106
330
1F
100
AcDbEntity
  8
VALLEYLINE
  6
AI-LINETYPE-38
 62
   250
100
AcDb2dPolyline
 66
     1
 10
0.0
 20
0.0
 30
0.0
  0
VERTEX
  5
107
330
106
100
AcDbEntity
  8
VALLEYLINE
  6
AI-LINETYPE-38
 62
   250
100
AcDbVertex
100
AcDb2dVertex
 10
45.15228270355568
 20
-200.4580484524897
 30
0.0
  0
VERTEX
  5
108
330
106
100
AcDbEntity
  8
VALLEYLINE
  6
AI-LINETYPE-38
 62
   250
100
AcDbVertex
100
AcDb2dVertex
 10
45.15228270355568
 20
-181.7212076368614
 30
0.0
  0
SEQEND
  5
109
330
106
100
AcDbEntity
  8
VALLEYLINE
  6
AI-LINETYPE-38
  0
POLYLINE
  5
10B
330
1F
100
AcDbEntity
  8
VALLEYLINE
  6
AI-LINETYPE-39
 62
   250
100
AcDb2dPolyline
 66
     1
 10
0.0
 20
0.0
 30
0.0
  0
VERTEX
  5
10C
330
10B
100
AcDbEntity
  8
VALLEYLINE
  6
AI-LINETYPE-39
 62
   250
100
AcDbVertex
100
AcDb2dVertex
 10
31.16381699524724
 20
-200.4580484524897
 30
0.0
  0
VERTEX
  5
10D
330
10B
100
AcDbEntity
  8
VALLEYLINE
  6
AI-LINETYPE-39
 62
   250
100
AcDbVertex
100
AcDb2dVertex
 10
31.16381699524724
 20
-181.7212076368614
 30
0.0
  0
SEQEND
  5
10E
330
10B
100
AcDbEntity
  8
VALLEYLINE
  6
AI-LINETYPE-39
  0
POLYLINE
  5
110
330
1F
100
AcDbEntity
  8
VALLEYLINE
  6
AI-LINETYPE-40
 62
   250
100
AcDb2dPolyline
 66
     1
 10
0.0
 20
0.0
 30
0.0
  0
VERTEX
  5
111
330
110
100
AcDbEntity
  8
VALLEYLINE
  6
AI-LINETYPE-40
 62
   250
100
AcDbVertex
100
AcDb2dVertex
 10
198.9680446551191
 20
-167.0313204877561
 30
0.0
  0
VERTEX
  5
112
330
110
100
AcDbEntity
  8
VALLEYLINE
  6
AI-LINETYPE-40
 62
   250
100
AcDbVertex
100
AcDb2dVertex
 10
155.688343602571
 20
-149.601204389683
 30
0.0
  0
SEQEND
  5
113
330
110
100
AcDbEntity
  8
VALLEYLINE
  6
AI-LINETYPE-40
  0
POLYLINE
  5
115
330
1F
100
AcDbEntity
  8
VALLEYLINE
  6
AI-LINETYPE-41
 62
   250
100
AcDb2dPolyline
 66
     1
 10
0.0
 20
0.0
 30
0.0
  0
VERTEX
  5
116
330
115
100
AcDbEntity
  8
VALLEYLINE
  6
AI-LINETYPE-41
 62
   250
100
AcDbVertex
100
AcDb2dVertex
 10
155.688343602571
 20
-149.601204389683
 30
0.0
  0
VERTEX
  5
117
330
115
100
AcDbEntity
  8
VALLEYLINE
  6
AI-LINETYPE-41
 62
   250
100
AcDbVertex
100
AcDb2dVertex
 10
141.698844365617
 20
-149.601204389683
 30
0.0
  0
SEQEND
  5
118
330
115
100
AcDbEntity
  8
VALLEYLINE
  6
AI-LINETYPE-41
  0
POLYLINE
  5
11A
330
1F
100
AcDbEntity
  8
VALLEYLINE
  6
AI-LINETYPE-42
 62
   250
100
AcDb2dPolyline
 66
     1
 10
0.0
 20
0.0
 30
0.0
  0
VERTEX
  5
11B
330
11A
100
AcDbEntity
  8
VALLEYLINE
  6
AI-LINETYPE-42
 62
   250
100
AcDbVertex
100
AcDb2dVertex
 10
141.698844365617
 20
-149.601204389683
 30
0.0
  0
VERTEX
  5
11C
330
11A
100
AcDbEntity
  8
VALLEYLINE
  6
AI-LINETYPE-42
 62
   250
100
AcDbVertex
100
AcDb2dVertex
 10
94.35048554498877
 20
-168.3380452053113
 30
0.0
  0
SEQEND
  5
11D
330
11A
100
AcDbEntity
  8
VALLEYLINE
  6
AI-LINETYPE-42
  0
POLYLINE
  5
11F
330
1F
100
AcDbEntity
  8
VALLEYLINE
  6
AI-LINETYPE-43
 62
   250
100
AcDb2dPolyline
 66
     1
 10
0.0
 20
0.0
 30
0.0
  0
VERTEX
  5
120
330
11F
100
AcDbEntity
  8
VALLEYLINE
  6
AI-LINETYPE-43
 62
   250
100
AcDbVertex
100
AcDb2dVertex
 10
94.35048554498877
 20
-168.3380452053113
 30
0.0
  0
VERTEX
  5
121
330
11F
100
AcDbEntity
  8
VALLEYLINE
  6
AI-LINETYPE-43
 62
   250
100
AcDbVertex
100
AcDb2dVertex
 10
80.3616753271318
 20
-168.3380452053113
 30
0.0
  0
SEQEND
  5
122
330
11F
100
AcDbEntity
  8
VALLEYLINE
  6
AI-LINETYPE-43
  0
POLYLINE
  5
124
330
1F
100
AcDbEntity
  8
VALLEYLINE
  6
AI-LINETYPE-44
 62
   250
100
AcDb2dPolyline
 66
     1
 10
0.0
 20
0.0
 30
0.0
  0
VERTEX
  5
125
330
124
100
AcDbEntity
  8
VALLEYLINE
  6
AI-LINETYPE-44
 62
   250
100
AcDbVertex
100
AcDb2dVertex
 10
80.3616753271318
 20
-168.3380452053113
 30
0.0
  0
VERTEX
  5
126
330
124
100
AcDbEntity
  8
VALLEYLINE
  6
AI-LINETYPE-44
 62
   250
100
AcDbVertex
100
AcDb2dVertex
 10
45.15228270355568
 20
-154.9545382642128
 30
0.0
  0
SEQEND
  5
127
330
124
100
AcDbEntity
  8
VALLEYLINE
  6
AI-LINETYPE-44
  0
POLYLINE
  5
129
330
1F
100
AcDbEntity
  8
VALLEYLINE
  6
AI-LINETYPE-45
 62
   250
100
AcDb2dPolyline
 66
     1
 10
0.0
 20
0.0
 30
0.0
  0
VERTEX
  5
12A
330
129
100
AcDbEntity
  8
VALLEYLINE
  6
AI-LINETYPE-45
 62
   250
100
AcDbVertex
100
AcDb2dVertex
 10
45.15228270355568
 20
-154.9545382642128
 30
0.0
  0
VERTEX
  5
12B
330
129
100
AcDbEntity
  8
VALLEYLINE
  6
AI-LINETYPE-45
 62
   250
100
AcDbVertex
100
AcDb2dVertex
 10
31.16381699524724
 20
-154.9545382642128
 30
0.0
  0
SEQEND
  5
12C
330
129
100
AcDbEntity
  8
VALLEYLINE
  6
AI-LINETYPE-45
  0
POLYLINE
  5
12E
330
1F
100
AcDbEntity
  8
VALLEYLINE
  6
AI-LINETYPE-46
 62
   250
100
AcDb2dPolyline
 66
     1
 10
0.0
 20
0.0
 30
0.0
  0
VERTEX
  5
12F
330
12E
100
AcDbEntity
  8
VALLEYLINE
  6
AI-LINETYPE-46
 62
   250
100
AcDbVertex
100
AcDb2dVertex
 10
31.16381699524724
 20
-154.9545382642128
 30
0.0
  0
VERTEX
  5
130
330
12E
100
AcDbEntity
  8
VALLEYLINE
  6
AI-LINETYPE-46
 62
   250
100
AcDbVertex
100
AcDb2dVertex
 10
11.77740342587509
 20
-162.9843668212331
 30
0.0
  0
SEQEND
  5
131
330
12E
100
AcDbEntity
  8
VALLEYLINE
  6
AI-LINETYPE-46
  0
POLYLINE
  5
133
330
1F
100
AcDbEntity
  8
VALLEYLINE
  6
AI-LINETYPE-47
 62
   250
100
AcDb2dPolyline
 66
     1
 10
0.0
 20
0.0
 30
0.0
  0
VERTEX
  5
134
330
133
100
AcDbEntity
  8
VALLEYLINE
  6
AI-LINETYPE-47
 62
   250
100
AcDbVertex
100
AcDb2dVertex
 10
155.688343602571
 20
-173.6913790798411
 30
0.0
  0
VERTEX
  5
135
330
133
100
AcDbEntity
  8
VALLEYLINE
  6
AI-LINETYPE-47
 62
   250
100
AcDbVertex
100
AcDb2dVertex
 10
155.688343602571
 20
-149.601204389683
 30
0.0
  0
SEQEND
  5
136
330
133
100
AcDbEntity
  8
VALLEYLINE
  6
AI-LINETYPE-47
  0
POLYLINE
  5
138
330
1F
100
AcDbEntity
  8
VALLEYLINE
  6
AI-LINETYPE-48
 62
   250
100
AcDb2dPolyline
 66
     1
 10
0.0
 20
0.0
 30
0.0
  0
VERTEX
  5
139
330
138
100
AcDbEntity
  8
VALLEYLINE
  6
AI-LINETYPE-48
 62
   250
100
AcDbVertex
100
AcDb2dVertex
 10
141.698844365617
 20
-173.6913790798411
 30
0.0
  0
VERTEX
  5
13A
330
138
100
AcDbEntity
  8
VALLEYLINE
  6
AI-LINETYPE-48
 62
   250
100
AcDbVertex
100
AcDb2dVertex
 10
141.698844365617
 20
-149.601204389683
 30
0.0
  0
SEQEND
  5
13B
330
138
100
AcDbEntity
  8
VALLEYLINE
  6
AI-LINETYPE-48
  0
POLYLINE
  5
13D
330
1F
100
AcDbEntity
  8
VALLEYLINE
  6
AI-LINETYPE-49
 62
   250
100
AcDb2dPolyline
 66
     1
 10
0.0
 20
0.0
 30
0.0
  0
VERTEX
  5
13E
330
13D
100
AcDbEntity
  8
VALLEYLINE
  6
AI-LINETYPE-49
 62
   250
100
AcDbVertex
100
AcDb2dVertex
 10
94.35048554498877
 20
-168.3380452053113
 30
0.0
  0
VERTEX
  5
13F
330
13D
100
AcDbEntity
  8
VALLEYLINE
  6
AI-LINETYPE-49
 62
   250
100
AcDbVertex
100
AcDb2dVertex
 10
94.35048554498877
 20
-146.9245374524182
 30
0.0
  0
SEQEND
  5
140
330
13D
100
AcDbEntity
  8
VALLEYLINE
  6
AI-LINETYPE-49
  0
POLYLINE
  5
142
330
1F
100
AcDbEntity
  8
VALLEYLINE
  6
AI-LINETYPE-50
 62
   250
100
AcDb2dPolyline
 66
     1
 10
0.0
 20
0.0
 30
0.0
  0
VERTEX
  5
143
330
142
100
AcDbEntity
  8
VALLEYLINE
  6
AI-LINETYPE-50
 62
   250
100
AcDbVertex
100
AcDb2dVertex
 10
80.3616753271318
 20
-168.3380452053113
 30
0.0
  0
VERTEX
  5
144
330
142
100
AcDbEntity
  8
VALLEYLINE
  6
AI-LINETYPE-50
 62
   250
100
AcDbVertex
100
AcDb2dVertex
 10
80.3616753271318
 20
-146.9245374524182
 30
0.0
  0
SEQEND
  5
145
330
142
100
AcDbEntity
  8
VALLEYLINE
  6
AI-LINETYPE-50
  0
POLYLINE
  5
147
330
1F
100
AcDbEntity
  8
VALLEYLINE
  6
AI-LINETYPE-51
 62
   250
100
AcDb2dPolyline
 66
     1
 10
0.0
 20
0.0
 30
0.0
  0
VERTEX
  5
148
330
147
100
AcDbEntity
  8
VALLEYLINE
  6
AI-LINETYPE-51
 62
   250
100
AcDbVertex
100
AcDb2dVertex
 10
45.15228270355568
 20
-173.6913790798411
 30
0.0
  0
VERTEX
  5
149
330
147
100
AcDbEntity
  8
VALLEYLINE
  6
AI-LINETYPE-51
 62
   250
100
AcDbVertex
100
AcDb2dVertex
 10
45.15228270355568
 20
-154.9545382642128
 30
0.0
  0
SEQEND
  5
14A
330
147
100
AcDbEntity
  8
VALLEYLINE
  6
AI-LINETYPE-51
  0
POLYLINE
  5
14C
330
1F
100
AcDbEntity
  8
VALLEYLINE
  6
AI-LINETYPE-52
 62
   250
100
AcDb2dPolyline
 66
     1
 10
0.0
 20
0.0
 30
0.0
  0
VERTEX
  5
14D
330
14C
100
AcDbEntity
  8
VALLEYLINE
  6
AI-LINETYPE-52
 62
   250
100
AcDbVertex
100
AcDb2dVertex
 10
31.16381699524724
 20
-173.6913790798411
 30
0.0
  0
VERTEX
  5
14E
330
14C
100
AcDbEntity
  8
VALLEYLINE
  6
AI-LINETYPE-52
 62
   250
100
AcDbVertex
100
AcDb2dVertex
 10
31.16381699524724
 20
-154.9545382642128
 30
0.0
  0
SEQEND
  5
14F
330
14C
100
AcDbEntity
  8
VALLEYLINE
  6
AI-LINETYPE-52
  0
POLYLINE
  5
151
330
1F
100
AcDbEntity
  8
VALLEYLINE
  6
AI-LINETYPE-53
 62
   250
100
AcDb2dPolyline
 66
     1
 10
0.0
 20
0.0
 30
0.0
  0
VERTEX
  5
152
330
151
100
AcDbEntity
  8
VALLEYLINE
  6
AI-LINETYPE-53
 62
   250
100
AcDbVertex
100
AcDb2dVertex
 10
198.9680446551191
 20
-140.2646511151075
 30
0.0
  0
VERTEX
  5
153
330
151
100
AcDbEntity
  8
VALLEYLINE
  6
AI-LINETYPE-53
 62
   250
100
AcDbVertex
100
AcDb2dVertex
 10
155.688343602571
 20
-122.8341905074859
 30
0.0
  0
SEQEND
  5
154
330
151
100
AcDbEntity
  8
VALLEYLINE
  6
AI-LINETYPE-53
  0
POLYLINE
  5
156
330
1F
100
AcDbEntity
  8
VALLEYLINE
  6
AI-LINETYPE-54
 62
   250
100
AcDb2dPolyline
 66
     1
 10
0.0
 20
0.0
 30
0.0
  0
VERTEX
  5
157
330
156
100
AcDbEntity
  8
VALLEYLINE
  6
AI-LINETYPE-54
 62
   250
100
AcDbVertex
100
AcDb2dVertex
 10
155.688343602571
 20
-122.8341905074859
 30
0.0
  0
VERTEX
  5
158
330
156
100
AcDbEntity
  8
VALLEYLINE
  6
AI-LINETYPE-54
 62
   250
100
AcDbVertex
100
AcDb2dVertex
 10
141.698844365617
 20
-122.8341905074859
 30
0.0
  0
SEQEND
  5
159
330
156
100
AcDbEntity
  8
VALLEYLINE
  6
AI-LINETYPE-54
  0
POLYLINE
  5
15B
330
1F
100
AcDbEntity
  8
VALLEYLINE
  6
AI-LINETYPE-55
 62
   250
100
AcDb2dPolyline
 66
     1
 10
0.0
 20
0.0
 30
0.0
  0
VERTEX
  5
15C
330
15B
100
AcDbEntity
  8
VALLEYLINE
  6
AI-LINETYPE-55
 62
   250
100
AcDbVertex
100
AcDb2dVertex
 10
141.698844365617
 20
-122.8341905074859
 30
0.0
  0
VERTEX
  5
15D
330
15B
100
AcDbEntity
  8
VALLEYLINE
  6
AI-LINETYPE-55
 62
   250
100
AcDbVertex
100
AcDb2dVertex
 10
94.35048554498877
 20
-141.5710313231142
 30
0.0
  0
SEQEND
  5
15E
330
15B
100
AcDbEntity
  8
VALLEYLINE
  6
AI-LINETYPE-55
  0
POLYLINE
  5
160
330
1F
100
AcDbEntity
  8
VALLEYLINE
  6
AI-LINETYPE-56
 62
   250
100
AcDb2dPolyline
 66
     1
 10
0.0
 20
0.0
 30
0.0
  0
VERTEX
  5
161
330
160
100
AcDbEntity
  8
VALLEYLINE
  6
AI-LINETYPE-56
 62
   250
100
AcDbVertex
100
AcDb2dVertex
 10
94.35048554498877
 20
-141.5710313231142
 30
0.0
  0
VERTEX
  5
162
330
160
100
AcDbEntity
  8
VALLEYLINE
  6
AI-LINETYPE-56
 62
   250
100
AcDbVertex
100
AcDb2dVertex
 10
80.3616753271318
 20
-141.5710313231142
 30
0.0
  0
SEQEND
  5
163
330
160
100
AcDbEntity
  8
VALLEYLINE
  6
AI-LINETYPE-56
  0
POLYLINE
  5
165
330
1F
100
AcDbEntity
  8
VALLEYLINE
  6
AI-LINETYPE-57
 62
   250
100
AcDb2dPolyline
 66
     1
 10
0.0
 20
0.0
 30
0.0
  0
VERTEX
  5
166
330
165
100
AcDbEntity
  8
VALLEYLINE
  6
AI-LINETYPE-57
 62
   250
100
AcDbVertex
100
AcDb2dVertex
 10
80.3616753271318
 20
-141.5710313231142
 30
0.0
  0
VERTEX
  5
167
330
165
100
AcDbEntity
  8
VALLEYLINE
  6
AI-LINETYPE-57
 62
   250
100
AcDbVertex
100
AcDb2dVertex
 10
45.15228270355568
 20
-128.1873521272414
 30
0.0
  0
SEQEND
  5
168
330
165
100
AcDbEntity
  8
VALLEYLINE
  6
AI-LINETYPE-57
  0
POLYLINE
  5
16A
330
1F
100
AcDbEntity
  8
VALLEYLINE
  6
AI-LINETYPE-58
 62
   250
100
AcDb2dPolyline
 66
     1
 10
0.0
 20
0.0
 30
0.0
  0
VERTEX
  5
16B
330
16A
100
AcDbEntity
  8
VALLEYLINE
  6
AI-LINETYPE-58
 62
   250
100
AcDbVertex
100
AcDb2dVertex
 10
45.15228270355568
 20
-128.1873521272414
 30
0.0
  0
VERTEX
  5
16C
330
16A
100
AcDbEntity
  8
VALLEYLINE
  6
AI-LINETYPE-58
 62
   250
100
AcDbVertex
100
AcDb2dVertex
 10
31.16381699524724
 20
-128.1873521272414
 30
0.0
  0
SEQEND
  5
16D
330
16A
100
AcDbEntity
  8
VALLEYLINE
  6
AI-LINETYPE-58
  0
POLYLINE
  5
16F
330
1F
100
AcDbEntity
  8
VALLEYLINE
  6
AI-LINETYPE-59
 62
   250
100
AcDb2dPolyline
 66
     1
 10
0.0
 20
0.0
 30
0.0
  0
VERTEX
  5
170
330
16F
100
AcDbEntity
  8
VALLEYLINE
  6
AI-LINETYPE-59
 62
   250
100
AcDbVertex
100
AcDb2dVertex
 10
31.16381699524724
 20
-128.1873521272414
 30
0.0
  0
VERTEX
  5
171
330
16F
100
AcDbEntity
  8
VALLEYLINE
  6
AI-LINETYPE-59
 62
   250
100
AcDbVertex
100
AcDb2dVertex
 10
11.77740342587509
 20
-136.2173529390359
 30
0.0
  0
SEQEND
  5
172
330
16F
100
AcDbEntity
  8
VALLEYLINE
  6
AI-LINETYPE-59
  0
POLYLINE
  5
174
330
1F
100
AcDbEntity
  8
VALLEYLINE
  6
AI-LINETYPE-60
 62
   250
100
AcDb2dPolyline
 66
     1
 10
0.0
 20
0.0
 30
0.0
  0
VERTEX
  5
175
330
174
100
AcDbEntity
  8
VALLEYLINE
  6
AI-LINETYPE-60
 62
   250
100
AcDbVertex
100
AcDb2dVertex
 10
155.688343602571
 20
-146.9245374524182
 30
0.0
  0
VERTEX
  5
176
330
174
100
AcDbEntity
  8
VALLEYLINE
  6
AI-LINETYPE-60
 62
   250
100
AcDbVertex
100
AcDb2dVertex
 10
155.688343602571
 20
-122.8341905074859
 30
0.0
  0
SEQEND
  5
177
330
174
100
AcDbEntity
  8
VALLEYLINE
  6
AI-LINETYPE-60
  0
POLYLINE
  5
179
330
1F
100
AcDbEntity
  8
VALLEYLINE
  6
AI-LINETYPE-61
 62
   250
100
AcDb2dPolyline
 66
     1
 10
0.0
 20
0.0
 30
0.0
  0
VERTEX
  5
17A
330
179
100
AcDbEntity
  8
VALLEYLINE
  6
AI-LINETYPE-61
 62
   250
100
AcDbVertex
100
AcDb2dVertex
 10
141.698844365617
 20
-146.9245374524182
 30
0.0
  0
VERTEX
  5
17B
330
179
100
AcDbEntity
  8
VALLEYLINE
  6
AI-LINETYPE-61
 62
   250
100
AcDbVertex
100
AcDb2dVertex
 10
141.698844365617
 20
-122.8341905074859
 30
0.0
  0
SEQEND
  5
17C
330
179
100
AcDbEntity
  8
VALLEYLINE
  6
AI-LINETYPE-61
  0
POLYLINE
  5
17E
330
1F
100
AcDbEntity
  8
VALLEYLINE
  6
AI-LINETYPE-62
 62
   250
100
AcDb2dPolyline
 66
     1
 10
0.0
 20
0.0
 30
0.0
  0
VERTEX
  5
17F
330
17E
100
AcDbEntity
  8
VALLEYLINE
  6
AI-LINETYPE-62
 62
   250
100
AcDbVertex
100
AcDb2dVertex
 10
94.35048554498877
 20
-141.5710313231142
 30
0.0
  0
VERTEX
  5
180
330
17E
100
AcDbEntity
  8
VALLEYLINE
  6
AI-LINETYPE-62
 62
   250
100
AcDbVertex
100
AcDb2dVertex
 10
94.35048554498877
 20
-120.157523570221
 30
0.0
  0
SEQEND
  5
181
330
17E
100
AcDbEntity
  8
VALLEYLINE
  6
AI-LINETYPE-62
  0
POLYLINE
  5
183
330
1F
100
AcDbEntity
  8
VALLEYLINE
  6
AI-LINETYPE-63
 62
   250
100
AcDb2dPolyline
 66
     1
 10
0.0
 20
0.0
 30
0.0
  0
VERTEX
  5
184
330
183
100
AcDbEntity
  8
VALLEYLINE
  6
AI-LINETYPE-63
 62
   250
100
AcDbVertex
100
AcDb2dVertex
 10
80.3616753271318
 20
-141.5710313231142
 30
0.0
  0
VERTEX
  5
185
330
183
100
AcDbEntity
  8
VALLEYLINE
  6
AI-LINETYPE-63
 62
   250
100
AcDbVertex
100
AcDb2dVertex
 10
80.3616753271318
 20
-120.157523570221
 30
0.0
  0
SEQEND
  5
186
330
183
100
AcDbEntity
  8
VALLEYLINE
  6
AI-LINETYPE-63
  0
POLYLINE
  5
188
330
1F
100
AcDbEntity
  8
VALLEYLINE
  6
AI-LINETYPE-64
 62
   250
100
AcDb2dPolyline
 66
     1
 10
0.0
 20
0.0
 30
0.0
  0
VERTEX
  5
189
330
188
100
AcDbEntity
  8
VALLEYLINE
  6
AI-LINETYPE-64
 62
   250
100
AcDbVertex
100
AcDb2dVertex
 10
45.15228270355568
 20
-146.9245374524182
 30
0.0
  0
VERTEX
  5
18A
330
188
100
AcDbEntity
  8
VALLEYLINE
  6
AI-LINETYPE-64
 62
   250
100
AcDbVertex
100
AcDb2dVertex
 10
45.15228270355568
 20
-128.1873521272414
 30
0.0
  0
SEQEND
  5
18B
330
188
100
AcDbEntity
  8
VALLEYLINE
  6
AI-LINETYPE-64
  0
POLYLINE
  5
18D
330
1F
100
AcDbEntity
  8
VALLEYLINE
  6
AI-LINETYPE-65
 62
   250
100
AcDb2dPolyline
 66
     1
 10
0.0
 20
0.0
 30
0.0
  0
VERTEX
  5
18E
330
18D
100
AcDbEntity
  8
VALLEYLINE
  6
AI-LINETYPE-65
 62
   250
100
AcDbVertex
100
AcDb2dVertex
 10
31.16381699524724
 20
-146.9245374524182
 30
0.0
  0
VERTEX
  5
18F
330
18D
100
AcDbEntity
  8
VALLEYLINE
  6
AI-LINETYPE-65
 62
   250
100
AcDbVertex
100
AcDb2dVertex
 10
31.16381699524724
 20
-128.1873521272414
 30
0.0
  0
SEQEND
  5
190
330
18D
100
AcDbEntity
  8
VALLEYLINE
  6
AI-LINETYPE-65
  0
POLYLINE
  5
192
330
1F
100
AcDbEntity
  8
VALLEYLINE
  6
AI-LINETYPE-66
 62
   250
100
AcDb2dPolyline
 66
     1
 10
0.0
 20
0.0
 30
0.0
  0
VERTEX
  5
193
330
192
100
AcDbEntity
  8
VALLEYLINE
  6
AI-LINETYPE-66
 62
   250
100
AcDbVertex
100
AcDb2dVertex
 10
198.9704562219588
 20
-113.4979817424588
 30
0.0
  0
VERTEX
  5
194
330
192
100
AcDbEntity
  8
VALLEYLINE
  6
AI-LINETYPE-66
 62
   250
100
AcDbVertex
100
AcDb2dVertex
 10
155.688343602571
 20
-96.06752113483729
 30
0.0
  0
SEQEND
  5
195
330
192
100
AcDbEntity
  8
VALLEYLINE
  6
AI-LINETYPE-66
  0
POLYLINE
  5
197
330
1F
100
AcDbEntity
  8
VALLEYLINE
  6
AI-LINETYPE-67
 62
   250
100
AcDb2dPolyline
 66
     1
 10
0.0
 20
0.0
 30
0.0
  0
VERTEX
  5
198
330
197
100
AcDbEntity
  8
VALLEYLINE
  6
AI-LINETYPE-67
 62
   250
100
AcDbVertex
100
AcDb2dVertex
 10
155.688343602571
 20
-96.06752113483729
 30
0.0
  0
VERTEX
  5
199
330
197
100
AcDbEntity
  8
VALLEYLINE
  6
AI-LINETYPE-67
 62
   250
100
AcDbVertex
100
AcDb2dVertex
 10
141.698844365617
 20
-96.06752113483729
 30
0.0
  0
SEQEND
  5
19A
330
197
100
AcDbEntity
  8
VALLEYLINE
  6
AI-LINETYPE-67
  0
POLYLINE
  5
19C
330
1F
100
AcDbEntity
  8
VALLEYLINE
  6
AI-LINETYPE-68
 62
   250
100
AcDb2dPolyline
 66
     1
 10
0.0
 20
0.0
 30
0.0
  0
VERTEX
  5
19D
330
19C
100
AcDbEntity
  8
VALLEYLINE
  6
AI-LINETYPE-68
 62
   250
100
AcDbVertex
100
AcDb2dVertex
 10
141.698844365617
 20
-96.06752113483729
 30
0.0
  0
VERTEX
  5
19E
330
19C
100
AcDbEntity
  8
VALLEYLINE
  6
AI-LINETYPE-68
 62
   250
100
AcDbVertex
100
AcDb2dVertex
 10
94.35048554498877
 20
-114.8043619504656
 30
0.0
  0
SEQEND
  5
19F
330
19C
100
AcDbEntity
  8
VALLEYLINE
  6
AI-LINETYPE-68
  0
POLYLINE
  5
1A1
330
1F
100
AcDbEntity
  8
VALLEYLINE
  6
AI-LINETYPE-69
 62
   250
100
AcDb2dPolyline
 66
     1
 10
0.0
 20
0.0
 30
0.0
  0
VERTEX
  5
1A2
330
1A1
100
AcDbEntity
  8
VALLEYLINE
  6
AI-LINETYPE-69
 62
   250
100
AcDbVertex
100
AcDb2dVertex
 10
94.35048554498877
 20
-114.8043619504656
 30
0.0
  0
VERTEX
  5
1A3
330
1A1
100
AcDbEntity
  8
VALLEYLINE
  6
AI-LINETYPE-69
 62
   250
100
AcDbVertex
100
AcDb2dVertex
 10
80.3616753271318
 20
-114.8043619504656
 30
0.0
  0
SEQEND
  5
1A4
330
1A1
100
AcDbEntity
  8
VALLEYLINE
  6
AI-LINETYPE-69
  0
POLYLINE
  5
1A6
330
1F
100
AcDbEntity
  8
VALLEYLINE
  6
AI-LINETYPE-70
 62
   250
100
AcDb2dPolyline
 66
     1
 10
0.0
 20
0.0
 30
0.0
  0
VERTEX
  5
1A7
330
1A6
100
AcDbEntity
  8
VALLEYLINE
  6
AI-LINETYPE-70
 62
   250
100
AcDbVertex
100
AcDb2dVertex
 10
80.3616753271318
 20
-114.8043619504656
 30
0.0
  0
VERTEX
  5
1A8
330
1A6
100
AcDbEntity
  8
VALLEYLINE
  6
AI-LINETYPE-70
 62
   250
100
AcDbVertex
100
AcDb2dVertex
 10
45.15228270355568
 20
-101.4206827545927
 30
0.0
  0
SEQEND
  5
1A9
330
1A6
100
AcDbEntity
  8
VALLEYLINE
  6
AI-LINETYPE-70
  0
POLYLINE
  5
1AB
330
1F
100
AcDbEntity
  8
VALLEYLINE
  6
AI-LINETYPE-71
 62
   250
100
AcDb2dPolyline
 66
     1
 10
0.0
 20
0.0
 30
0.0
  0
VERTEX
  5
1AC
330
1AB
100
AcDbEntity
  8
VALLEYLINE
  6
AI-LINETYPE-71
 62
   250
100
AcDbVertex
100
AcDb2dVertex
 10
45.15228270355568
 20
-101.4206827545927
 30
0.0
  0
VERTEX
  5
1AD
330
1AB
100
AcDbEntity
  8
VALLEYLINE
  6
AI-LINETYPE-71
 62
   250
100
AcDbVertex
100
AcDb2dVertex
 10
31.16381699524724
 20
-101.4206827545927
 30
0.0
  0
SEQEND
  5
1AE
330
1AB
100
AcDbEntity
  8
VALLEYLINE
  6
AI-LINETYPE-71
  0
POLYLINE
  5
1B0
330
1F
100
AcDbEntity
  8
VALLEYLINE
  6
AI-LINETYPE-72
 62
   250
100
AcDb2dPolyline
 66
     1
 10
0.0
 20
0.0
 30
0.0
  0
VERTEX
  5
1B1
330
1B0
100
AcDbEntity
  8
VALLEYLINE
  6
AI-LINETYPE-72
 62
   250
100
AcDbVertex
100
AcDb2dVertex
 10
31.16381699524724
 20
-101.4206827545927
 30
0.0
  0
VERTEX
  5
1B2
330
1B0
100
AcDbEntity
  8
VALLEYLINE
  6
AI-LINETYPE-72
 62
   250
100
AcDbVertex
100
AcDb2dVertex
 10
11.77740342587509
 20
-109.4505113116131
 30
0.0
  0
SEQEND
  5
1B3
330
1B0
100
AcDbEntity
  8
VALLEYLINE
  6
AI-LINETYPE-72
  0
POLYLINE
  5
1B5
330
1F
100
AcDbEntity
  8
VALLEYLINE
  6
AI-LINETYPE-73
 62
   250
100
AcDb2dPolyline
 66
     1
 10
0.0
 20
0.0
 30
0.0
  0
VERTEX
  5
1B6
330
1B5
100
AcDbEntity
  8
VALLEYLINE
  6
AI-LINETYPE-73
 62
   250
100
AcDbVertex
100
AcDb2dVertex
 10
155.688343602571
 20
-120.157523570221
 30
0.0
  0
VERTEX
  5
1B7
330
1B5
100
AcDbEntity
  8
VALLEYLINE
  6
AI-LINETYPE-73
 62
   250
100
AcDbVertex
100
AcDb2dVertex
 10
155.688343602571
 20
-96.06752113483729
 30
0.0
  0
SEQEND
  5
1B8
330
1B5
100
AcDbEntity
  8
VALLEYLINE
  6
AI-LINETYPE-73
  0
POLYLINE
  5
1BA
330
1F
100
AcDbEntity
  8
VALLEYLINE
  6
AI-LINETYPE-74
 62
   250
100
AcDb2dPolyline
 66
     1
 10
0.0
 20
0.0
 30
0.0
  0
VERTEX
  5
1BB
330
1BA
100
AcDbEntity
  8
VALLEYLINE
  6
AI-LINETYPE-74
 62
   250
100
AcDbVertex
100
AcDb2dVertex
 10
141.698844365617
 20
-120.157523570221
 30
0.0
  0
VERTEX
  5
1BC
330
1BA
100
AcDbEntity
  8
VALLEYLINE
  6
AI-LINETYPE-74
 62
   250
100
AcDbVertex
100
AcDb2dVertex
 10
141.698844365617
 20
-96.06752113483729
 30
0.0
  0
SEQEND
  5
1BD
330
1BA
100
AcDbEntity
  8
VALLEYLINE
  6
AI-LINETYPE-74
  0
POLYLINE
  5
1BF
330
1F
100
AcDbEntity
  8
VALLEYLINE
  6
AI-LINETYPE-75
 62
   250
100
AcDb2dPolyline
 66
     1
 10
0.0
 20
0.0
 30
0.0
  0
VERTEX
  5
1C0
330
1BF
100
AcDbEntity
  8
VALLEYLINE
  6
AI-LINETYPE-75
 62
   250
100
AcDbVertex
100
AcDb2dVertex
 10
94.35048554498877
 20
-114.8043619504656
 30
0.0
  0
VERTEX
  5
1C1
330
1BF
100
AcDbEntity
  8
VALLEYLINE
  6
AI-LINETYPE-75
 62
   250
100
AcDbVertex
100
AcDb2dVertex
 10
94.35048554498877
 20
-93.39016517847539
 30
0.0
  0
SEQEND
  5
1C2
330
1BF
100
AcDbEntity
  8
VALLEYLINE
  6
AI-LINETYPE-75
  0
POLYLINE
  5
1C4
330
1F
100
AcDbEntity
  8
VALLEYLINE
  6
AI-LINETYPE-76
 62
   250
100
AcDb2dPolyline
 66
     1
 10
0.0
 20
0.0
 30
0.0
  0
VERTEX
  5
1C5
330
1C4
100
AcDbEntity
  8
VALLEYLINE
  6
AI-LINETYPE-76
 62
   250
100
AcDbVertex
100
AcDb2dVertex
 10
80.3616753271318
 20
-114.8043619504656
 30
0.0
  0
VERTEX
  5
1C6
330
1C4
100
AcDbEntity
  8
VALLEYLINE
  6
AI-LINETYPE-76
 62
   250
100
AcDbVertex
100
AcDb2dVertex
 10
80.3616753271318
 20
-93.39016517847539
 30
0.0
  0
SEQEND
  5
1C7
330
1C4
100
AcDbEntity
  8
VALLEYLINE
  6
AI-LINETYPE-76
  0
POLYLINE
  5
1C9
330
1F
100
AcDbEntity
  8
VALLEYLINE
  6
AI-LINETYPE-77
 62
   250
100
AcDb2dPolyline
 66
     1
 10
0.0
 20
0.0
 30
0.0
  0
VERTEX
  5
1CA
330
1C9
100
AcDbEntity
  8
VALLEYLINE
  6
AI-LINETYPE-77
 62
   250
100
AcDbVertex
100
AcDb2dVertex
 10
45.15228270355568
 20
-120.157523570221
 30
0.0
  0
VERTEX
  5
1CB
330
1C9
100
AcDbEntity
  8
VALLEYLINE
  6
AI-LINETYPE-77
 62
   250
100
AcDbVertex
100
AcDb2dVertex
 10
45.15228270355568
 20
-101.4206827545927
 30
0.0
  0
SEQEND
  5
1CC
330
1C9
100
AcDbEntity
  8
VALLEYLINE
  6
AI-LINETYPE-77
  0
POLYLINE
  5
1CE
330
1F
100
AcDbEntity
  8
VALLEYLINE
  6
AI-LINETYPE-78
 62
   250
100
AcDb2dPolyline
 66
     1
 10
0.0
 20
0.0
 30
0.0
  0
VERTEX
  5
1CF
330
1CE
100
AcDbEntity
  8
VALLEYLINE
  6
AI-LINETYPE-78
 62
   250
100
AcDbVertex
100
AcDb2dVertex
 10
31.16381699524724
 20
-120.157523570221
 30
0.0
  0
VERTEX
  5
1D0
330
1CE
100
AcDbEntity
  8
VALLEYLINE
  6
AI-LINETYPE-78
 62
   250
100
AcDbVertex
100
AcDb2dVertex
 10
31.16381699524724
 20
-101.4206827545927
 30
0.0
  0
SEQEND
  5
1D1
330
1CE
100
AcDbEntity
  8
VALLEYLINE
  6
AI-LINETYPE-78
  0
POLYLINE
  5
1D3
330
1F
100
AcDbEntity
  8
VALLEYLINE
  6
AI-LINETYPE-79
 62
   250
100
AcDb2dPolyline
 66
     1
 10
0.0
 20
0.0
 30
0.0
  0
VERTEX
  5
1D4
330
1D3
100
AcDbEntity
  8
VALLEYLINE
  6
AI-LINETYPE-79
 62
   250
100
AcDbVertex
100
AcDb2dVertex
 10
198.9663221073765
 20
-86.72924531251908
 30
0.0
  0
VERTEX
  5
1D5
330
1D3
100
AcDbEntity
  8
VALLEYLINE
  6
AI-LINETYPE-79
 62
   250
100
AcDbVertex
100
AcDb2dVertex
 10
155.688343602571
 20
-69.30016274309163
 30
0.0
  0
SEQEND
  5
1D6
330
1D3
100
AcDbEntity
  8
VALLEYLINE
  6
AI-LINETYPE-79
  0
POLYLINE
  5
1D8
330
1F
100
AcDbEntity
  8
VALLEYLINE
  6
AI-LINETYPE-80
 62
   250
100
AcDb2dPolyline
 66
     1
 10
0.0
 20
0.0
 30
0.0
  0
VERTEX
  5
1D9
330
1D8
100
AcDbEntity
  8
VALLEYLINE
  6
AI-LINETYPE-80
 62
   250
100
AcDbVertex
100
AcDb2dVertex
 10
155.688343602571
 20
-69.30016274309163
 30
0.0
  0
VERTEX
  5
1DA
330
1D8
100
AcDbEntity
  8
VALLEYLINE
  6
AI-LINETYPE-80
 62
   250
100
AcDbVertex
100
AcDb2dVertex
 10
141.698844365617
 20
-69.30016274309163
 30
0.0
  0
SEQEND
  5
1DB
330
1D8
100
AcDbEntity
  8
VALLEYLINE
  6
AI-LINETYPE-80
  0
POLYLINE
  5
1DD
330
1F
100
AcDbEntity
  8
VALLEYLINE
  6
AI-LINETYPE-81
 62
   250
100
AcDb2dPolyline
 66
     1
 10
0.0
 20
0.0
 30
0.0
  0
VERTEX
  5
1DE
330
1DD
100
AcDbEntity
  8
VALLEYLINE
  6
AI-LINETYPE-81
 62
   250
100
AcDbVertex
100
AcDb2dVertex
 10
141.698844365617
 20
-69.30016274309163
 30
0.0
  0
VERTEX
  5
1DF
330
1DD
100
AcDbEntity
  8
VALLEYLINE
  6
AI-LINETYPE-81
 62
   250
100
AcDbVertex
100
AcDb2dVertex
 10
94.35048554498877
 20
-88.03700355871992
 30
0.0
  0
SEQEND
  5
1E0
330
1DD
100
AcDbEntity
  8
VALLEYLINE
  6
AI-LINETYPE-81
  0
POLYLINE
  5
1E2
330
1F
100
AcDbEntity
  8
VALLEYLINE
  6
AI-LINETYPE-82
 62
   250
100
AcDb2dPolyline
 66
     1
 10
0.0
 20
0.0
 30
0.0
  0
VERTEX
  5
1E3
330
1E2
100
AcDbEntity
  8
VALLEYLINE
  6
AI-LINETYPE-82
 62
   250
100
AcDbVertex
100
AcDb2dVertex
 10
94.35048554498877
 20
-88.03700355871992
 30
0.0
  0
VERTEX
  5
1E4
330
1E2
100
AcDbEntity
  8
VALLEYLINE
  6
AI-LINETYPE-82
 62
   250
100
AcDbVertex
100
AcDb2dVertex
 10
80.3616753271318
 20
-88.03700355871992
 30
0.0
  0
SEQEND
  5
1E5
330
1E2
100
AcDbEntity
  8
VALLEYLINE
  6
AI-LINETYPE-82
  0
POLYLINE
  5
1E7
330
1F
100
AcDbEntity
  8
VALLEYLINE
  6
AI-LINETYPE-83
 62
   250
100
AcDb2dPolyline
 66
     1
 10
0.0
 20
0.0
 30
0.0
  0
VERTEX
  5
1E8
330
1E7
100
AcDbEntity
  8
VALLEYLINE
  6
AI-LINETYPE-83
 62
   250
100
AcDbVertex
100
AcDb2dVertex
 10
80.3616753271318
 20
-88.03700355871992
 30
0.0
  0
VERTEX
  5
1E9
330
1E7
100
AcDbEntity
  8
VALLEYLINE
  6
AI-LINETYPE-83
 62
   250
100
AcDbVertex
100
AcDb2dVertex
 10
45.15228270355568
 20
-74.65332436284709
 30
0.0
  0
SEQEND
  5
1EA
330
1E7
100
AcDbEntity
  8
VALLEYLINE
  6
AI-LINETYPE-83
  0
POLYLINE
  5
1EC
330
1F
100
AcDbEntity
  8
VALLEYLINE
  6
AI-LINETYPE-84
 62
   250
100
AcDb2dPolyline
 66
     1
 10
0.0
 20
0.0
 30
0.0
  0
VERTEX
  5
1ED
330
1EC
100
AcDbEntity
  8
VALLEYLINE
  6
AI-LINETYPE-84
 62
   250
100
AcDbVertex
100
AcDb2dVertex
 10
45.15228270355568
 20
-74.65332436284709
 30
0.0
  0
VERTEX
  5
1EE
330
1EC
100
AcDbEntity
  8
VALLEYLINE
  6
AI-LINETYPE-84
 62
   250
100
AcDbVertex
100
AcDb2dVertex
 10
31.16381699524724
 20
-74.65332436284709
 30
0.0
  0
SEQEND
  5
1EF
330
1EC
100
AcDbEntity
  8
VALLEYLINE
  6
AI-LINETYPE-84
  0
POLYLINE
  5
1F1
330
1F
100
AcDbEntity
  8
VALLEYLINE
  6
AI-LINETYPE-85
 62
   250
100
AcDb2dPolyline
 66
     1
 10
0.0
 20
0.0
 30
0.0
  0
VERTEX
  5
1F2
330
1F1
100
AcDbEntity
  8
VALLEYLINE
  6
AI-LINETYPE-85
 62
   250
100
AcDbVertex
100
AcDb2dVertex
 10
31.16381699524724
 20
-74.65332436284709
 30
0.0
  0
VERTEX
  5
1F3
330
1F1
100
AcDbEntity
  8
VALLEYLINE
  6
AI-LINETYPE-85
 62
   250
100
AcDbVertex
100
AcDb2dVertex
 10
11.77740342587509
 20
-82.68349742941594
 30
0.0
  0
SEQEND
  5
1F4
330
1F1
100
AcDbEntity
  8
VALLEYLINE
  6
AI-LINETYPE-85
  0
POLYLINE
  5
1F6
330
1F
100
AcDbEntity
  8
VALLEYLINE
  6
AI-LINETYPE-86
 62
   250
100
AcDb2dPolyline
 66
     1
 10
0.0
 20
0.0
 30
0.0
  0
VERTEX
  5
1F7
330
1F6
100
AcDbEntity
  8
VALLEYLINE
  6
AI-LINETYPE-86
 62
   250
100
AcDbVertex
100
AcDb2dVertex
 10
155.688343602571
 20
-93.39016517847539
 30
0.0
  0
VERTEX
  5
1F8
330
1F6
100
AcDbEntity
  8
VALLEYLINE
  6
AI-LINETYPE-86
 62
   250
100
AcDbVertex
100
AcDb2dVertex
 10
155.688343602571
 20
-69.30016274309163
 30
0.0
  0
SEQEND
  5
1F9
330
1F6
100
AcDbEntity
  8
VALLEYLINE
  6
AI-LINETYPE-86
  0
POLYLINE
  5
1FB
330
1F
100
AcDbEntity
  8
VALLEYLINE
  6
AI-LINETYPE-87
 62
   250
100
AcDb2dPolyline
 66
     1
 10
0.0
 20
0.0
 30
0.0
  0
VERTEX
  5
1FC
330
1FB
100
AcDbEntity
  8
VALLEYLINE
  6
AI-LINETYPE-87
 62
   250
100
AcDbVertex
100
AcDb2dVertex
 10
141.698844365617
 20
-93.39016517847539
 30
0.0
  0
VERTEX
  5
1FD
330
1FB
100
AcDbEntity
  8
VALLEYLINE
  6
AI-LINETYPE-87
 62
   250
100
AcDbVertex
100
AcDb2dVertex
 10
141.698844365617
 20
-69.30016274309163
 30
0.0
  0
SEQEND
  5
1FE
330
1FB
100
AcDbEntity
  8
VALLEYLINE
  6
AI-LINETYPE-87
  0
POLYLINE
  5
200
330
1F
100
AcDbEntity
  8
VALLEYLINE
  6
AI-LINETYPE-88
 62
   250
100
AcDb2dPolyline
 66
     1
 10
0.0
 20
0.0
 30
0.0
  0
VERTEX
  5
201
330
200
100
AcDbEntity
  8
VALLEYLINE
  6
AI-LINETYPE-88
 62
   250
100
AcDbVertex
100
AcDb2dVertex
 10
94.35048554498877
 20
-88.03700355871992
 30
0.0
  0
VERTEX
  5
202
330
200
100
AcDbEntity
  8
VALLEYLINE
  6
AI-LINETYPE-88
 62
   250
100
AcDbVertex
100
AcDb2dVertex
 10
94.35048554498877
 20
-66.62401257014956
 30
0.0
  0
SEQEND
  5
203
330
200
100
AcDbEntity
  8
VALLEYLINE
  6
AI-LINETYPE-88
  0
POLYLINE
  5
205
330
1F
100
AcDbEntity
  8
VALLEYLINE
  6
AI-LINETYPE-89
 62
   250
100
AcDb2dPolyline
 66
     1
 10
0.0
 20
0.0
 30
0.0
  0
VERTEX
  5
206
330
205
100
AcDbEntity
  8
VALLEYLINE
  6
AI-LINETYPE-89
 62
   250
100
AcDbVertex
100
AcDb2dVertex
 10
80.3616753271318
 20
-88.03700355871992
 30
0.0
  0
VERTEX
  5
207
330
205
100
AcDbEntity
  8
VALLEYLINE
  6
AI-LINETYPE-89
 62
   250
100
AcDbVertex
100
AcDb2dVertex
 10
80.3616753271318
 20
-66.62401257014956
 30
0.0
  0
SEQEND
  5
208
330
205
100
AcDbEntity
  8
VALLEYLINE
  6
AI-LINETYPE-89
  0
POLYLINE
  5
20A
330
1F
100
AcDbEntity
  8
VALLEYLINE
  6
AI-LINETYPE-90
 62
   250
100
AcDb2dPolyline
 66
     1
 10
0.0
 20
0.0
 30
0.0
  0
VERTEX
  5
20B
330
20A
100
AcDbEntity
  8
VALLEYLINE
  6
AI-LINETYPE-90
 62
   250
100
AcDbVertex
100
AcDb2dVertex
 10
45.15228270355568
 20
-93.39016517847539
 30
0.0
  0
VERTEX
  5
20C
330
20A
100
AcDbEntity
  8
VALLEYLINE
  6
AI-LINETYPE-90
 62
   250
100
AcDbVertex
100
AcDb2dVertex
 10
45.15228270355568
 20
-74.65332436284709
 30
0.0
  0
SEQEND
  5
20D
330
20A
100
AcDbEntity
  8
VALLEYLINE
  6
AI-LINETYPE-90
  0
POLYLINE
  5
20F
330
1F
100
AcDbEntity
  8
VALLEYLINE
  6
AI-LINETYPE-91
 62
   250
100
AcDb2dPolyline
 66
     1
 10
0.0
 20
0.0
 30
0.0
  0
VERTEX
  5
210
330
20F
100
AcDbEntity
  8
VALLEYLINE
  6
AI-LINETYPE-91
 62
   250
100
AcDbVertex
100
AcDb2dVertex
 10
31.16381699524724
 20
-93.39016517847539
 30
0.0
  0
VERTEX
  5
211
330
20F
100
AcDbEntity
  8
VALLEYLINE
  6
AI-LINETYPE-91
 62
   250
100
AcDbVertex
100
AcDb2dVertex
 10
31.16381699524724
 20
-74.65332436284709
 30
0.0
  0
SEQEND
  5
212
330
20F
100
AcDbEntity
  8
VALLEYLINE
  6
AI-LINETYPE-91
  0
POLYLINE
  5
214
330
1F
100
AcDbEntity
  8
VALLEYLINE
  6
AI-LINETYPE-92
 62
   250
100
AcDb2dPolyline
 66
     1
 10
0.0
 20
0.0
 30
0.0
  0
VERTEX
  5
215
330
214
100
AcDbEntity
  8
VALLEYLINE
  6
AI-LINETYPE-92
 62
   250
100
AcDbVertex
100
AcDb2dVertex
 10
198.9663221073765
 20
-59.96292044941899
 30
0.0
  0
VERTEX
  5
216
330
214
100
AcDbEntity
  8
VALLEYLINE
  6
AI-LINETYPE-92
 62
   250
100
AcDbVertex
100
AcDb2dVertex
 10
155.688343602571
 20
-42.53366562521728
 30
0.0
  0
SEQEND
  5
217
330
214
100
AcDbEntity
  8
VALLEYLINE
  6
AI-LINETYPE-92
  0
POLYLINE
  5
219
330
1F
100
AcDbEntity
  8
VALLEYLINE
  6
AI-LINETYPE-93
 62
   250
100
AcDb2dPolyline
 66
     1
 10
0.0
 20
0.0
 30
0.0
  0
VERTEX
  5
21A
330
219
100
AcDbEntity
  8
VALLEYLINE
  6
AI-LINETYPE-93
 62
   250
100
AcDbVertex
100
AcDb2dVertex
 10
155.688343602571
 20
-42.53366562521728
 30
0.0
  0
VERTEX
  5
21B
330
219
100
AcDbEntity
  8
VALLEYLINE
  6
AI-LINETYPE-93
 62
   250
100
AcDbVertex
100
AcDb2dVertex
 10
141.698844365617
 20
-42.53366562521728
 30
0.0
  0
SEQEND
  5
21C
330
219
100
AcDbEntity
  8
VALLEYLINE
  6
AI-LINETYPE-93
  0
POLYLINE
  5
21E
330
1F
100
AcDbEntity
  8
VALLEYLINE
  6
AI-LINETYPE-94
 62
   250
100
AcDb2dPolyline
 66
     1
 10
0.0
 20
0.0
 30
0.0
  0
VERTEX
  5
21F
330
21E
100
AcDbEntity
  8
VALLEYLINE
  6
AI-LINETYPE-94
 62
   250
100
AcDbVertex
100
AcDb2dVertex
 10
141.698844365617
 20
-42.53366562521728
 30
0.0
  0
VERTEX
  5
220
330
21E
100
AcDbEntity
  8
VALLEYLINE
  6
AI-LINETYPE-94
 62
   250
100
AcDbVertex
100
AcDb2dVertex
 10
94.35048554498877
 20
-61.26998967652278
 30
0.0
  0
SEQEND
  5
221
330
21E
100
AcDbEntity
  8
VALLEYLINE
  6
AI-LINETYPE-94
  0
POLYLINE
  5
223
330
1F
100
AcDbEntity
  8
VALLEYLINE
  6
AI-LINETYPE-95
 62
   250
100
AcDb2dPolyline
 66
     1
 10
0.0
 20
0.0
 30
0.0
  0
VERTEX
  5
224
330
223
100
AcDbEntity
  8
VALLEYLINE
  6
AI-LINETYPE-95
 62
   250
100
AcDbVertex
100
AcDb2dVertex
 10
94.35048554498877
 20
-61.26998967652278
 30
0.0
  0
VERTEX
  5
225
330
223
100
AcDbEntity
  8
VALLEYLINE
  6
AI-LINETYPE-95
 62
   250
100
AcDbVertex
100
AcDb2dVertex
 10
80.3616753271318
 20
-61.26998967652278
 30
0.0
  0
SEQEND
  5
226
330
223
100
AcDbEntity
  8
VALLEYLINE
  6
AI-LINETYPE-95
  0
POLYLINE
  5
228
330
1F
100
AcDbEntity
  8
VALLEYLINE
  6
AI-LINETYPE-96
 62
   250
100
AcDb2dPolyline
 66
     1
 10
0.0
 20
0.0
 30
0.0
  0
VERTEX
  5
229
330
228
100
AcDbEntity
  8
VALLEYLINE
  6
AI-LINETYPE-96
 62
   250
100
AcDbVertex
100
AcDb2dVertex
 10
80.3616753271318
 20
-61.26998967652278
 30
0.0
  0
VERTEX
  5
22A
330
228
100
AcDbEntity
  8
VALLEYLINE
  6
AI-LINETYPE-96
 62
   250
100
AcDbVertex
100
AcDb2dVertex
 10
45.15228270355568
 20
-47.88682724497274
 30
0.0
  0
SEQEND
  5
22B
330
228
100
AcDbEntity
  8
VALLEYLINE
  6
AI-LINETYPE-96
  0
POLYLINE
  5
22D
330
1F
100
AcDbEntity
  8
VALLEYLINE
  6
AI-LINETYPE-97
 62
   250
100
AcDb2dPolyline
 66
     1
 10
0.0
 20
0.0
 30
0.0
  0
VERTEX
  5
22E
330
22D
100
AcDbEntity
  8
VALLEYLINE
  6
AI-LINETYPE-97
 62
   250
100
AcDbVertex
100
AcDb2dVertex
 10
45.15228270355568
 20
-47.88682724497274
 30
0.0
  0
VERTEX
  5
22F
330
22D
100
AcDbEntity
  8
VALLEYLINE
  6
AI-LINETYPE-97
 62
   250
100
AcDbVertex
100
AcDb2dVertex
 10
31.16381699524724
 20
-47.88682724497274
 30
0.0
  0
SEQEND
  5
230
330
22D
100
AcDbEntity
  8
VALLEYLINE
  6
AI-LINETYPE-97
  0
POLYLINE
  5
232
330
1F
100
AcDbEntity
  8
VALLEYLINE
  6
AI-LINETYPE-98
 62
   250
100
AcDb2dPolyline
 66
     1
 10
0.0
 20
0.0
 30
0.0
  0
VERTEX
  5
233
330
232
100
AcDbEntity
  8
VALLEYLINE
  6
AI-LINETYPE-98
 62
   250
100
AcDbVertex
100
AcDb2dVertex
 10
31.16381699524724
 20
-47.88682724497274
 30
0.0
  0
VERTEX
  5
234
330
232
100
AcDbEntity
  8
VALLEYLINE
  6
AI-LINETYPE-98
 62
   250
100
AcDbVertex
100
AcDb2dVertex
 10
11.77740342587509
 20
-55.9164835472188
 30
0.0
  0
SEQEND
  5
235
330
232
100
AcDbEntity
  8
VALLEYLINE
  6
AI-LINETYPE-98
  0
POLYLINE
  5
237
330
1F
100
AcDbEntity
  8
VALLEYLINE
  6
AI-LINETYPE-99
 62
   250
100
AcDb2dPolyline
 66
     1
 10
0.0
 20
0.0
 30
0.0
  0
VERTEX
  5
238
330
237
100
AcDbEntity
  8
VALLEYLINE
  6
AI-LINETYPE-99
 62
   250
100
AcDbVertex
100
AcDb2dVertex
 10
155.688343602571
 20
-66.62401257014956
 30
0.0
  0
VERTEX
  5
239
330
237
100
AcDbEntity
  8
VALLEYLINE
  6
AI-LINETYPE-99
 62
   250
100
AcDbVertex
100
AcDb2dVertex
 10
155.688343602571
 20
-42.53366562521728
 30
0.0
  0
SEQEND
  5
23A
330
237
100
AcDbEntity
  8
VALLEYLINE
  6
AI-LINETYPE-99
  0
POLYLINE
  5
23C
330
1F
100
AcDbEntity
  8
VALLEYLINE
  6
AI-LINETYPE-100
 62
   250
100
AcDb2dPolyline
 66
     1
 10
0.0
 20
0.0
 30
0.0
  0
VERTEX
  5
23D
330
23C
100
AcDbEntity
  8
VALLEYLINE
  6
AI-LINETYPE-100
 62
   250
100
AcDbVertex
100
AcDb2dVertex
 10
141.698844365617
 20
-66.62401257014956
 30
0.0
  0
VERTEX
  5
23E
330
23C
100
AcDbEntity
  8
VALLEYLINE
  6
AI-LINETYPE-100
 62
   250
100
AcDbVertex
100
AcDb2dVertex
 10
141.698844365617
 20
-42.53366562521728
 30
0.0
  0
SEQEND
  5
23F
330
23C
100
AcDbEntity
  8
VALLEYLINE
  6
AI-LINETYPE-100
  0
POLYLINE
  5
241
330
1F
100
AcDbEntity
  8
VALLEYLINE
  6
AI-LINETYPE-101
 62
   250
100
AcDb2dPolyline
 66
     1
 10
0.0
 20
0.0
 30
0.0
  0
VERTEX
  5
242
330
241
100
AcDbEntity
  8
VALLEYLINE
  6
AI-LINETYPE-101
 62
   250
100
AcDbVertex
100
AcDb2dVertex
 10
94.35048554498877
 20
-61.26998967652278
 30
0.0
  0
VERTEX
  5
243
330
241
100
AcDbEntity
  8
VALLEYLINE
  6
AI-LINETYPE-101
 62
   250
100
AcDbVertex
100
AcDb2dVertex
 10
94.35048554498877
 20
-39.85699868795242
 30
0.0
  0
SEQEND
  5
244
330
241
100
AcDbEntity
  8
VALLEYLINE
  6
AI-LINETYPE-101
  0
POLYLINE
  5
246
330
1F
100
AcDbEntity
  8
VALLEYLINE
  6
AI-LINETYPE-102
 62
   250
100
AcDb2dPolyline
 66
     1
 10
0.0
 20
0.0
 30
0.0
  0
VERTEX
  5
247
330
246
100
AcDbEntity
  8
VALLEYLINE
  6
AI-LINETYPE-102
 62
   250
100
AcDbVertex
100
AcDb2dVertex
 10
80.3616753271318
 20
-61.26998967652278
 30
0.0
  0
VERTEX
  5
248
330
246
100
AcDbEntity
  8
VALLEYLINE
  6
AI-LINETYPE-102
 62
   250
100
AcDbVertex
100
AcDb2dVertex
 10
80.3616753271318
 20
-39.85699868795242
 30
0.0
  0
SEQEND
  5
249
330
246
100
AcDbEntity
  8
VALLEYLINE
  6
AI-LINETYPE-102
  0
POLYLINE
  5
24B
330
1F
100
AcDbEntity
  8
VALLEYLINE
  6
AI-LINETYPE-103
 62
   250
100
AcDb2dPolyline
 66
     1
 10
0.0
 20
0.0
 30
0.0
  0
VERTEX
  5
24C
330
24B
100
AcDbEntity
  8
VALLEYLINE
  6
AI-LINETYPE-103
 62
   250
100
AcDbVertex
100
AcDb2dVertex
 10
45.15228270355568
 20
-66.62401257014956
 30
0.0
  0
VERTEX
  5
24D
330
24B
100
AcDbEntity
  8
VALLEYLINE
  6
AI-LINETYPE-103
 62
   250
100
AcDbVertex
100
AcDb2dVertex
 10
45.15228270355568
 20
-47.88682724497274
 30
0.0
  0
SEQEND
  5
24E
330
24B
100
AcDbEntity
  8
VALLEYLINE
  6
AI-LINETYPE-103
  0
POLYLINE
  5
250
330
1F
100
AcDbEntity
  8
VALLEYLINE
  6
AI-LINETYPE-104
 62
   250
100
AcDb2dPolyline
 66
     1
 10
0.0
 20
0.0
 30
0.0
  0
VERTEX
  5
251
330
250
100
AcDbEntity
  8
VALLEYLINE
  6
AI-LINETYPE-104
 62
   250
100
AcDbVertex
100
AcDb2dVertex
 10
31.16381699524724
 20
-66.62401257014956
 30
0.0
  0
VERTEX
  5
252
330
250
100
AcDbEntity
  8
VALLEYLINE
  6
AI-LINETYPE-104
 62
   250
100
AcDbVertex
100
AcDb2dVertex
 10
31.16381699524724
 20
-47.88682724497274
 30
0.0
  0
SEQEND
  5
253
330
250
100
AcDbEntity
  8
VALLEYLINE
  6
AI-LINETYPE-104
  0
POLYLINE
  5
256
330
1F
100
AcDbEntity
  8
MOUNTAINLINE
 62
   250
100
AcDb2dPolyline
 66
     1
 10
0.0
 20
0.0
 30
0.0
  0
VERTEX
  5
257
330
256
100
AcDbEntity
  8
MOUNTAINLINE
 62
   250
100
AcDbVertex
100
AcDb2dVertex
 10
198.9663221073765
 20
-227.2254068442353
 30
0.0
  0
VERTEX
  5
258
330
256
100
AcDbEntity
  8
MOUNTAINLINE
 62
   250
100
AcDbVertex
100
AcDb2dVertex
 10
11.77740342587509
 20
-227.2254068442353
 30
0.0
  0
SEQEND
  5
259
330
256
100
AcDbEntity
  8
MOUNTAINLINE
  0
POLYLINE
  5
25A
330
1F
100
AcDbEntity
  8
MOUNTAINLINE
 62
   250
100
AcDb2dPolyline
 66
     1
 10
0.0
 20
0.0
 30
0.0
  0
VERTEX
  5
25B
330
25A
100
AcDbEntity
  8
MOUNTAINLINE
 62
   250
100
AcDbVertex
100
AcDb2dVertex
 10
198.9663221073765
 20
-200.4580484524897
 30
0.0
  0
VERTEX
  5
25C
330
25A
100
AcDbEntity
  8
MOUNTAINLINE
 62
   250
100
AcDbVertex
100
AcDb2dVertex
 10
11.77740342587509
 20
-200.4580484524897
 30
0.0
  0
SEQEND
  5
25D
330
25A
100
AcDbEntity
  8
MOUNTAINLINE
  0
POLYLINE
  5
25E
330
1F
100
AcDbEntity
  8
MOUNTAINLINE
 62
   250
100
AcDb2dPolyline
 66
     1
 10
0.0
 20
0.0
 30
0.0
  0
VERTEX
  5
25F
330
25E
100
AcDbEntity
  8
MOUNTAINLINE
 62
   250
100
AcDbVertex
100
AcDb2dVertex
 10
198.9663221073765
 20
-173.6913790798411
 30
0.0
  0
VERTEX
  5
260
330
25E
100
AcDbEntity
  8
MOUNTAINLINE
 62
   250
100
AcDbVertex
100
AcDb2dVertex
 10
11.77740342587509
 20
-173.6913790798411
 30
0.0
  0
SEQEND
  5
261
330
25E
100
AcDbEntity
  8
MOUNTAINLINE
  0
POLYLINE
  5
262
330
1F
100
AcDbEntity
  8
MOUNTAINLINE
 62
   250
100
AcDb2dPolyline
 66
     1
 10
0.0
 20
0.0
 30
0.0
  0
VERTEX
  5
263
330
262
100
AcDbEntity
  8
MOUNTAINLINE
 62
   250
100
AcDbVertex
100
AcDb2dVertex
 10
198.9663221073765
 20
-146.9245374524182
 30
0.0
  0
VERTEX
  5
264
330
262
100
AcDbEntity
  8
MOUNTAINLINE
 62
   250
100
AcDbVertex
100
AcDb2dVertex
 10
11.77740342587509
 20
-146.9245374524182
 30
0.0
  0
SEQEND
  5
265
330
262
100
AcDbEntity
  8
MOUNTAINLINE
  0
POLYLINE
  5
266
330
1F
100
AcDbEntity
  8
MOUNTAINLINE
 62
   250
100
AcDb2dPolyline
 66
     1
 10
0.0
 20
0.0
 30
0.0
  0
VERTEX
  5
267
330
266
100
AcDbEntity
  8
MOUNTAINLINE
 62
   250
100
AcDbVertex
100
AcDb2dVertex
 10
198.9663221073765
 20
-120.157523570221
 30
0.0
  0
VERTEX
  5
268
330
266
100
AcDbEntity
  8
MOUNTAINLINE
 62
   250
100
AcDbVertex
100
AcDb2dVertex
 10
11.77740342587509
 20
-120.157523570221
 30
0.0
  0
SEQEND
  5
269
330
266
100
AcDbEntity
  8
MOUNTAINLINE
  0
POLYLINE
  5
26A
330
1F
100
AcDbEntity
  8
MOUNTAINLINE
 62
   250
100
AcDb2dPolyline
 66
     1
 10
0.0
 20
0.0
 30
0.0
  0
VERTEX
  5
26B
330
26A
100
AcDbEntity
  8
MOUNTAINLINE
 62
   250
100
AcDbVertex
100
AcDb2dVertex
 10
198.9663221073765
 20
-93.39016517847539
 30
0.0
  0
VERTEX
  5
26C
330
26A
100
AcDbEntity
  8
MOUNTAINLINE
 62
   250
100
AcDbVertex
100
AcDb2dVertex
 10
11.77740342587509
 20
-93.39016517847539
 30
0.0
  0
SEQEND
  5
26D
330
26A
100
AcDbEntity
  8
MOUNTAINLINE
  0
POLYLINE
  5
26E
330
1F
100
AcDbEntity
  8
MOUNTAINLINE
 62
   250
100
AcDb2dPolyline
 66
     1
 10
0.0
 20
0.0
 30
0.0
  0
VERTEX
  5
26F
330
26E
100
AcDbEntity
  8
MOUNTAINLINE
 62
   250
100
AcDbVertex
100
AcDb2dVertex
 10
198.9663221073765
 20
-66.62401257014956
 30
0.0
  0
VERTEX
  5
270
330
26E
100
AcDbEntity
  8
MOUNTAINLINE
 62
   250
100
AcDbVertex
100
AcDb2dVertex
 10
11.77740342587509
 20
-66.62401257014956
 30
0.0
  0
SEQEND
  5
271
330
26E
100
AcDbEntity
  8
MOUNTAINLINE
  0
POLYLINE
  5
272
330
1F
100
AcDbEntity
  8
MOUNTAINLINE
 62
   250
100
AcDb2dPolyline
 66
     1
 10
0.0
 20
0.0
 30
0.0
  0
VERTEX
  5
273
330
272
100
AcDbEntity
  8
MOUNTAINLINE
 62
   250
100
AcDbVertex
100
AcDb2dVertex
 10
155.688343602571
 20
-229.9019015267259
 30
0.0
  0
VERTEX
  5
274
330
272
100
AcDbEntity
  8
MOUNTAINLINE
 62
   250
100
AcDbVertex
100
AcDb2dVertex
 10
155.688343602571
 20
-227.2254068442353
 30
0.0
  0
SEQEND
  5
275
330
272
100
AcDbEntity
  8
MOUNTAINLINE
  0
POLYLINE
  5
276
330
1F
100
AcDbEntity
  8
MOUNTAINLINE
 62
   250
100
AcDb2dPolyline
 66
     1
 10
0.0
 20
0.0
 30
0.0
  0
VERTEX
  5
277
330
276
100
AcDbEntity
  8
MOUNTAINLINE
 62
   250
100
AcDbVertex
100
AcDb2dVertex
 10
141.698844365617
 20
-229.9019015267259
 30
0.0
  0
VERTEX
  5
278
330
276
100
AcDbEntity
  8
MOUNTAINLINE
 62
   250
100
AcDbVertex
100
AcDb2dVertex
 10
141.698844365617
 20
-227.2254068442353
 30
0.0
  0
SEQEND
  5
279
330
276
100
AcDbEntity
  8
MOUNTAINLINE
  0
POLYLINE
  5
27A
330
1F
100
AcDbEntity
  8
MOUNTAINLINE
 62
   250
100
AcDb2dPolyline
 66
     1
 10
0.0
 20
0.0
 30
0.0
  0
VERTEX
  5
27B
330
27A
100
AcDbEntity
  8
MOUNTAINLINE
 62
   250
100
AcDbVertex
100
AcDb2dVertex
 10
94.35048554498877
 20
-253.9920762168839
 30
0.0
  0
VERTEX
  5
27C
330
27A
100
AcDbEntity
  8
MOUNTAINLINE
 62
   250
100
AcDbVertex
100
AcDb2dVertex
 10
94.35048554498877
 20
-248.6387423423542
 30
0.0
  0
SEQEND
  5
27D
330
27A
100
AcDbEntity
  8
MOUNTAINLINE
  0
POLYLINE
  5
27E
330
1F
100
AcDbEntity
  8
MOUNTAINLINE
 62
   250
100
AcDb2dPolyline
 66
     1
 10
0.0
 20
0.0
 30
0.0
  0
VERTEX
  5
27F
330
27E
100
AcDbEntity
  8
MOUNTAINLINE
 62
   250
100
AcDbVertex
100
AcDb2dVertex
 10
80.3616753271318
 20
-253.9920762168839
 30
0.0
  0
VERTEX
  5
280
330
27E
100
AcDbEntity
  8
MOUNTAINLINE
 62
   250
100
AcDbVertex
100
AcDb2dVertex
 10
80.3616753271318
 20
-248.6387423423542
 30
0.0
  0
SEQEND
  5
281
330
27E
100
AcDbEntity
  8
MOUNTAINLINE
  0
POLYLINE
  5
282
330
1F
100
AcDbEntity
  8
MOUNTAINLINE
 62
   250
100
AcDb2dPolyline
 66
     1
 10
0.0
 20
0.0
 30
0.0
  0
VERTEX
  5
283
330
282
100
AcDbEntity
  8
MOUNTAINLINE
 62
   250
100
AcDbVertex
100
AcDb2dVertex
 10
45.15228270355568
 20
-235.2552354012556
 30
0.0
  0
VERTEX
  5
284
330
282
100
AcDbEntity
  8
MOUNTAINLINE
 62
   250
100
AcDbVertex
100
AcDb2dVertex
 10
45.15228270355568
 20
-227.2254068442353
 30
0.0
  0
SEQEND
  5
285
330
282
100
AcDbEntity
  8
MOUNTAINLINE
  0
POLYLINE
  5
286
330
1F
100
AcDbEntity
  8
MOUNTAINLINE
 62
   250
100
AcDb2dPolyline
 66
     1
 10
0.0
 20
0.0
 30
0.0
  0
VERTEX
  5
287
330
286
100
AcDbEntity
  8
MOUNTAINLINE
 62
   250
100
AcDbVertex
100
AcDb2dVertex
 10
31.16381699524724
 20
-235.2552354012556
 30
0.0
  0
VERTEX
  5
288
330
286
100
AcDbEntity
  8
MOUNTAINLINE
 62
   250
100
AcDbVertex
100
AcDb2dVertex
 10
31.16381699524724
 20
-227.2254068442353
 30
0.0
  0
SEQEND
  5
289
330
286
100
AcDbEntity
  8
MOUNTAINLINE
  0
POLYLINE
  5
28A
330
1F
100
AcDbEntity
  8
MOUNTAINLINE
 62
   250
100
AcDb2dPolyline
 66
     1
 10
0.0
 20
0.0
 30
0.0
  0
VERTEX
  5
28B
330
28A
100
AcDbEntity
  8
MOUNTAINLINE
 62
   250
100
AcDbVertex
100
AcDb2dVertex
 10
155.688343602571
 20
-203.1345431349803
 30
0.0
  0
VERTEX
  5
28C
330
28A
100
AcDbEntity
  8
MOUNTAINLINE
 62
   250
100
AcDbVertex
100
AcDb2dVertex
 10
155.688343602571
 20
-200.4580484524897
 30
0.0
  0
SEQEND
  5
28D
330
28A
100
AcDbEntity
  8
MOUNTAINLINE
  0
POLYLINE
  5
28E
330
1F
100
AcDbEntity
  8
MOUNTAINLINE
 62
   250
100
AcDb2dPolyline
 66
     1
 10
0.0
 20
0.0
 30
0.0
  0
VERTEX
  5
28F
330
28E
100
AcDbEntity
  8
MOUNTAINLINE
 62
   250
100
AcDbVertex
100
AcDb2dVertex
 10
141.698844365617
 20
-203.1345431349803
 30
0.0
  0
VERTEX
  5
290
330
28E
100
AcDbEntity
  8
MOUNTAINLINE
 62
   250
100
AcDbVertex
100
AcDb2dVertex
 10
141.698844365617
 20
-200.4580484524897
 30
0.0
  0
SEQEND
  5
291
330
28E
100
AcDbEntity
  8
MOUNTAINLINE
  0
POLYLINE
  5
292
330
1F
100
AcDbEntity
  8
MOUNTAINLINE
 62
   250
100
AcDb2dPolyline
 66
     1
 10
0.0
 20
0.0
 30
0.0
  0
VERTEX
  5
293
330
292
100
AcDbEntity
  8
MOUNTAINLINE
 62
   250
100
AcDbVertex
100
AcDb2dVertex
 10
94.35048554498877
 20
-227.2254068442353
 30
0.0
  0
VERTEX
  5
294
330
292
100
AcDbEntity
  8
MOUNTAINLINE
 62
   250
100
AcDbVertex
100
AcDb2dVertex
 10
94.35048554498877
 20
-221.8713839506086
 30
0.0
  0
SEQEND
  5
295
330
292
100
AcDbEntity
  8
MOUNTAINLINE
  0
POLYLINE
  5
296
330
1F
100
AcDbEntity
  8
MOUNTAINLINE
 62
   250
100
AcDb2dPolyline
 66
     1
 10
0.0
 20
0.0
 30
0.0
  0
VERTEX
  5
297
330
296
100
AcDbEntity
  8
MOUNTAINLINE
 62
   250
100
AcDbVertex
100
AcDb2dVertex
 10
80.3616753271318
 20
-227.2254068442353
 30
0.0
  0
VERTEX
  5
298
330
296
100
AcDbEntity
  8
MOUNTAINLINE
 62
   250
100
AcDbVertex
100
AcDb2dVertex
 10
80.3616753271318
 20
-221.8713839506086
 30
0.0
  0
SEQEND
  5
299
330
296
100
AcDbEntity
  8
MOUNTAINLINE
  0
POLYLINE
  5
29A
330
1F
100
AcDbEntity
  8
MOUNTAINLINE
 62
   250
100
AcDb2dPolyline
 66
     1
 10
0.0
 20
0.0
 30
0.0
  0
VERTEX
  5
29B
330
29A
100
AcDbEntity
  8
MOUNTAINLINE
 62
   250
100
AcDbVertex
100
AcDb2dVertex
 10
45.15228270355568
 20
-208.4882215190585
 30
0.0
  0
VERTEX
  5
29C
330
29A
100
AcDbEntity
  8
MOUNTAINLINE
 62
   250
100
AcDbVertex
100
AcDb2dVertex
 10
45.15228270355568
 20
-200.4580484524897
 30
0.0
  0
SEQEND
  5
29D
330
29A
100
AcDbEntity
  8
MOUNTAINLINE
  0
POLYLINE
  5
29E
330
1F
100
AcDbEntity
  8
MOUNTAINLINE
 62
   250
100
AcDb2dPolyline
 66
     1
 10
0.0
 20
0.0
 30
0.0
  0
VERTEX
  5
29F
330
29E
100
AcDbEntity
  8
MOUNTAINLINE
 62
   250
100
AcDbVertex
100
AcDb2dVertex
 10
31.16381699524724
 20
-208.4882215190585
 30
0.0
  0
VERTEX
  5
2A0
330
29E
100
AcDbEntity
  8
MOUNTAINLINE
 62
   250
100
AcDbVertex
100
AcDb2dVertex
 10
31.16381699524724
 20
-200.4580484524897
 30
0.0
  0
SEQEND
  5
2A1
330
29E
100
AcDbEntity
  8
MOUNTAINLINE
  0
POLYLINE
  5
2A2
330
1F
100
AcDbEntity
  8
MOUNTAINLINE
 62
   250
100
AcDb2dPolyline
 66
     1
 10
0.0
 20
0.0
 30
0.0
  0
VERTEX
  5
2A3
330
2A2
100
AcDbEntity
  8
MOUNTAINLINE
 62
   250
100
AcDbVertex
100
AcDb2dVertex
 10
155.688343602571
 20
-176.3682182718802
 30
0.0
  0
VERTEX
  5
2A4
330
2A2
100
AcDbEntity
  8
MOUNTAINLINE
 62
   250
100
AcDbVertex
100
AcDb2dVertex
 10
155.688343602571
 20
-173.6913790798411
 30
0.0
  0
SEQEND
  5
2A5
330
2A2
100
AcDbEntity
  8
MOUNTAINLINE
  0
POLYLINE
  5
2A6
330
1F
100
AcDbEntity
  8
MOUNTAINLINE
 62
   250
100
AcDb2dPolyline
 66
     1
 10
0.0
 20
0.0
 30
0.0
  0
VERTEX
  5
2A7
330
2A6
100
AcDbEntity
  8
MOUNTAINLINE
 62
   250
100
AcDbVertex
100
AcDb2dVertex
 10
141.698844365617
 20
-176.3682182718802
 30
0.0
  0
VERTEX
  5
2A8
330
2A6
100
AcDbEntity
  8
MOUNTAINLINE
 62
   250
100
AcDbVertex
100
AcDb2dVertex
 10
141.698844365617
 20
-173.6913790798411
 30
0.0
  0
SEQEND
  5
2A9
330
2A6
100
AcDbEntity
  8
MOUNTAINLINE
  0
POLYLINE
  5
2AA
330
1F
100
AcDbEntity
  8
MOUNTAINLINE
 62
   250
100
AcDb2dPolyline
 66
     1
 10
0.0
 20
0.0
 30
0.0
  0
VERTEX
  5
2AB
330
2AA
100
AcDbEntity
  8
MOUNTAINLINE
 62
   250
100
AcDbVertex
100
AcDb2dVertex
 10
94.35048554498877
 20
-200.4580484524897
 30
0.0
  0
VERTEX
  5
2AC
330
2AA
100
AcDbEntity
  8
MOUNTAINLINE
 62
   250
100
AcDbVertex
100
AcDb2dVertex
 10
94.35048554498877
 20
-195.10471457796
 30
0.0
  0
SEQEND
  5
2AD
330
2AA
100
AcDbEntity
  8
MOUNTAINLINE
  0
POLYLINE
  5
2AE
330
1F
100
AcDbEntity
  8
MOUNTAINLINE
 62
   250
100
AcDb2dPolyline
 66
     1
 10
0.0
 20
0.0
 30
0.0
  0
VERTEX
  5
2AF
330
2AE
100
AcDbEntity
  8
MOUNTAINLINE
 62
   250
100
AcDbVertex
100
AcDb2dVertex
 10
80.3616753271318
 20
-200.4580484524897
 30
0.0
  0
VERTEX
  5
2B0
330
2AE
100
AcDbEntity
  8
MOUNTAINLINE
 62
   250
100
AcDbVertex
100
AcDb2dVertex
 10
80.3616753271318
 20
-195.10471457796
 30
0.0
  0
SEQEND
  5
2B1
330
2AE
100
AcDbEntity
  8
MOUNTAINLINE
  0
POLYLINE
  5
2B2
330
1F
100
AcDbEntity
  8
MOUNTAINLINE
 62
   250
100
AcDb2dPolyline
 66
     1
 10
0.0
 20
0.0
 30
0.0
  0
VERTEX
  5
2B3
330
2B2
100
AcDbEntity
  8
MOUNTAINLINE
 62
   250
100
AcDbVertex
100
AcDb2dVertex
 10
45.15228270355568
 20
-181.7212076368614
 30
0.0
  0
VERTEX
  5
2B4
330
2B2
100
AcDbEntity
  8
MOUNTAINLINE
 62
   250
100
AcDbVertex
100
AcDb2dVertex
 10
45.15228270355568
 20
-173.6913790798411
 30
0.0
  0
SEQEND
  5
2B5
330
2B2
100
AcDbEntity
  8
MOUNTAINLINE
  0
POLYLINE
  5
2B6
330
1F
100
AcDbEntity
  8
MOUNTAINLINE
 62
   250
100
AcDb2dPolyline
 66
     1
 10
0.0
 20
0.0
 30
0.0
  0
VERTEX
  5
2B7
330
2B6
100
AcDbEntity
  8
MOUNTAINLINE
 62
   250
100
AcDbVertex
100
AcDb2dVertex
 10
31.16381699524724
 20
-181.7212076368614
 30
0.0
  0
VERTEX
  5
2B8
330
2B6
100
AcDbEntity
  8
MOUNTAINLINE
 62
   250
100
AcDbVertex
100
AcDb2dVertex
 10
31.16381699524724
 20
-173.6913790798411
 30
0.0
  0
SEQEND
  5
2B9
330
2B6
100
AcDbEntity
  8
MOUNTAINLINE
  0
POLYLINE
  5
2BA
330
1F
100
AcDbEntity
  8
MOUNTAINLINE
 62
   250
100
AcDb2dPolyline
 66
     1
 10
0.0
 20
0.0
 30
0.0
  0
VERTEX
  5
2BB
330
2BA
100
AcDbEntity
  8
MOUNTAINLINE
 62
   250
100
AcDbVertex
100
AcDb2dVertex
 10
155.688343602571
 20
-149.601204389683
 30
0.0
  0
VERTEX
  5
2BC
330
2BA
100
AcDbEntity
  8
MOUNTAINLINE
 62
   250
100
AcDbVertex
100
AcDb2dVertex
 10
155.688343602571
 20
-146.9245374524182
 30
0.0
  0
SEQEND
  5
2BD
330
2BA
100
AcDbEntity
  8
MOUNTAINLINE
  0
POLYLINE
  5
2BE
330
1F
100
AcDbEntity
  8
MOUNTAINLINE
 62
   250
100
AcDb2dPolyline
 66
     1
 10
0.0
 20
0.0
 30
0.0
  0
VERTEX
  5
2BF
330
2BE
100
AcDbEntity
  8
MOUNTAINLINE
 62
   250
100
AcDbVertex
100
AcDb2dVertex
 10
141.698844365617
 20
-149.601204389683
 30
0.0
  0
VERTEX
  5
2C0
330
2BE
100
AcDbEntity
  8
MOUNTAINLINE
 62
   250
100
AcDbVertex
100
AcDb2dVertex
 10
141.698844365617
 20
-146.9245374524182
 30
0.0
  0
SEQEND
  5
2C1
330
2BE
100
AcDbEntity
  8
MOUNTAINLINE
  0
POLYLINE
  5
2C2
330
1F
100
AcDbEntity
  8
MOUNTAINLINE
 62
   250
100
AcDb2dPolyline
 66
     1
 10
0.0
 20
0.0
 30
0.0
  0
VERTEX
  5
2C3
330
2C2
100
AcDbEntity
  8
MOUNTAINLINE
 62
   250
100
AcDbVertex
100
AcDb2dVertex
 10
94.35048554498877
 20
-173.6913790798411
 30
0.0
  0
VERTEX
  5
2C4
330
2C2
100
AcDbEntity
  8
MOUNTAINLINE
 62
   250
100
AcDbVertex
100
AcDb2dVertex
 10
94.35048554498877
 20
-168.3380452053113
 30
0.0
  0
SEQEND
  5
2C5
330
2C2
100
AcDbEntity
  8
MOUNTAINLINE
  0
POLYLINE
  5
2C6
330
1F
100
AcDbEntity
  8
MOUNTAINLINE
 62
   250
100
AcDb2dPolyline
 66
     1
 10
0.0
 20
0.0
 30
0.0
  0
VERTEX
  5
2C7
330
2C6
100
AcDbEntity
  8
MOUNTAINLINE
 62
   250
100
AcDbVertex
100
AcDb2dVertex
 10
80.3616753271318
 20
-173.6913790798411
 30
0.0
  0
VERTEX
  5
2C8
330
2C6
100
AcDbEntity
  8
MOUNTAINLINE
 62
   250
100
AcDbVertex
100
AcDb2dVertex
 10
80.3616753271318
 20
-168.3380452053113
 30
0.0
  0
SEQEND
  5
2C9
330
2C6
100
AcDbEntity
  8
MOUNTAINLINE
  0
POLYLINE
  5
2CA
330
1F
100
AcDbEntity
  8
MOUNTAINLINE
 62
   250
100
AcDb2dPolyline
 66
     1
 10
0.0
 20
0.0
 30
0.0
  0
VERTEX
  5
2CB
330
2CA
100
AcDbEntity
  8
MOUNTAINLINE
 62
   250
100
AcDbVertex
100
AcDb2dVertex
 10
45.15228270355568
 20
-154.9545382642128
 30
0.0
  0
VERTEX
  5
2CC
330
2CA
100
AcDbEntity
  8
MOUNTAINLINE
 62
   250
100
AcDbVertex
100
AcDb2dVertex
 10
45.15228270355568
 20
-146.9245374524182
 30
0.0
  0
SEQEND
  5
2CD
330
2CA
100
AcDbEntity
  8
MOUNTAINLINE
  0
POLYLINE
  5
2CE
330
1F
100
AcDbEntity
  8
MOUNTAINLINE
 62
   250
100
AcDb2dPolyline
 66
     1
 10
0.0
 20
0.0
 30
0.0
  0
VERTEX
  5
2CF
330
2CE
100
AcDbEntity
  8
MOUNTAINLINE
 62
   250
100
AcDbVertex
100
AcDb2dVertex
 10
31.16381699524724
 20
-154.9545382642128
 30
0.0
  0
VERTEX
  5
2D0
330
2CE
100
AcDbEntity
  8
MOUNTAINLINE
 62
   250
100
AcDbVertex
100
AcDb2dVertex
 10
31.16381699524724
 20
-146.9245374524182
 30
0.0
  0
SEQEND
  5
2D1
330
2CE
100
AcDbEntity
  8
MOUNTAINLINE
  0
POLYLINE
  5
2D2
330
1F
100
AcDbEntity
  8
MOUNTAINLINE
 62
   250
100
AcDb2dPolyline
 66
     1
 10
0.0
 20
0.0
 30
0.0
  0
VERTEX
  5
2D3
330
2D2
100
AcDbEntity
  8
MOUNTAINLINE
 62
   250
100
AcDbVertex
100
AcDb2dVertex
 10
155.688343602571
 20
-122.8341905074859
 30
0.0
  0
VERTEX
  5
2D4
330
2D2
100
AcDbEntity
  8
MOUNTAINLINE
 62
   250
100
AcDbVertex
100
AcDb2dVertex
 10
155.688343602571
 20
-120.157523570221
 30
0.0
  0
SEQEND
  5
2D5
330
2D2
100
AcDbEntity
  8
MOUNTAINLINE
  0
POLYLINE
  5
2D6
330
1F
100
AcDbEntity
  8
MOUNTAINLINE
 62
   250
100
AcDb2dPolyline
 66
     1
 10
0.0
 20
0.0
 30
0.0
  0
VERTEX
  5
2D7
330
2D6
100
AcDbEntity
  8
MOUNTAINLINE
 62
   250
100
AcDbVertex
100
AcDb2dVertex
 10
141.698844365617
 20
-122.8341905074859
 30
0.0
  0
VERTEX
  5
2D8
330
2D6
100
AcDbEntity
  8
MOUNTAINLINE
 62
   250
100
AcDbVertex
100
AcDb2dVertex
 10
141.698844365617
 20
-120.157523570221
 30
0.0
  0
SEQEND
  5
2D9
330
2D6
100
AcDbEntity
  8
MOUNTAINLINE
  0
POLYLINE
  5
2DA
330
1F
100
AcDbEntity
  8
MOUNTAINLINE
 62
   250
100
AcDb2dPolyline
 66
     1
 10
0.0
 20
0.0
 30
0.0
  0
VERTEX
  5
2DB
330
2DA
100
AcDbEntity
  8
MOUNTAINLINE
 62
   250
100
AcDbVertex
100
AcDb2dVertex
 10
94.35048554498877
 20
-146.9245374524182
 30
0.0
  0
VERTEX
  5
2DC
330
2DA
100
AcDbEntity
  8
MOUNTAINLINE
 62
   250
100
AcDbVertex
100
AcDb2dVertex
 10
94.35048554498877
 20
-141.5710313231142
 30
0.0
  0
SEQEND
  5
2DD
330
2DA
100
AcDbEntity
  8
MOUNTAINLINE
  0
POLYLINE
  5
2DE
330
1F
100
AcDbEntity
  8
MOUNTAINLINE
 62
   250
100
AcDb2dPolyline
 66
     1
 10
0.0
 20
0.0
 30
0.0
  0
VERTEX
  5
2DF
330
2DE
100
AcDbEntity
  8
MOUNTAINLINE
 62
   250
100
AcDbVertex
100
AcDb2dVertex
 10
80.3616753271318
 20
-146.9245374524182
 30
0.0
  0
VERTEX
  5
2E0
330
2DE
100
AcDbEntity
  8
MOUNTAINLINE
 62
   250
100
AcDbVertex
100
AcDb2dVertex
 10
80.3616753271318
 20
-141.5710313231142
 30
0.0
  0
SEQEND
  5
2E1
330
2DE
100
AcDbEntity
  8
MOUNTAINLINE
  0
POLYLINE
  5
2E2
330
1F
100
AcDbEntity
  8
MOUNTAINLINE
 62
   250
100
AcDb2dPolyline
 66
     1
 10
0.0
 20
0.0
 30
0.0
  0
VERTEX
  5
2E3
330
2E2
100
AcDbEntity
  8
MOUNTAINLINE
 62
   250
100
AcDbVertex
100
AcDb2dVertex
 10
45.15228270355568
 20
-128.1873521272414
 30
0.0
  0
VERTEX
  5
2E4
330
2E2
100
AcDbEntity
  8
MOUNTAINLINE
 62
   250
100
AcDbVertex
100
AcDb2dVertex
 10
45.15228270355568
 20
-120.157523570221
 30
0.0
  0
SEQEND
  5
2E5
330
2E2
100
AcDbEntity
  8
MOUNTAINLINE
  0
POLYLINE
  5
2E6
330
1F
100
AcDbEntity
  8
MOUNTAINLINE
 62
   250
100
AcDb2dPolyline
 66
     1
 10
0.0
 20
0.0
 30
0.0
  0
VERTEX
  5
2E7
330
2E6
100
AcDbEntity
  8
MOUNTAINLINE
 62
   250
100
AcDbVertex
100
AcDb2dVertex
 10
31.16381699524724
 20
-128.1873521272414
 30
0.0
  0
VERTEX
  5
2E8
330
2E6
100
AcDbEntity
  8
MOUNTAINLINE
 62
   250
100
AcDbVertex
100
AcDb2dVertex
 10
31.16381699524724
 20
-120.157523570221
 30
0.0
  0
SEQEND
  5
2E9
330
2E6
100
AcDbEntity
  8
MOUNTAINLINE
  0
POLYLINE
  5
2EA
330
1F
100
AcDbEntity
  8
MOUNTAINLINE
 62
   250
100
AcDb2dPolyline
 66
     1
 10
0.0
 20
0.0
 30
0.0
  0
VERTEX
  5
2EB
330
2EA
100
AcDbEntity
  8
MOUNTAINLINE
 62
   250
100
AcDbVertex
100
AcDb2dVertex
 10
155.688343602571
 20
-96.06752113483729
 30
0.0
  0
VERTEX
  5
2EC
330
2EA
100
AcDbEntity
  8
MOUNTAINLINE
 62
   250
100
AcDbVertex
100
AcDb2dVertex
 10
155.688343602571
 20
-93.39016517847539
 30
0.0
  0
SEQEND
  5
2ED
330
2EA
100
AcDbEntity
  8
MOUNTAINLINE
  0
POLYLINE
  5
2EE
330
1F
100
AcDbEntity
  8
MOUNTAINLINE
 62
   250
100
AcDb2dPolyline
 66
     1
 10
0.0
 20
0.0
 30
0.0
  0
VERTEX
  5
2EF
330
2EE
100
AcDbEntity
  8
MOUNTAINLINE
 62
   250
100
AcDbVertex
100
AcDb2dVertex
 10
141.698844365617
 20
-96.06752113483729
 30
0.0
  0
VERTEX
  5
2F0
330
2EE
100
AcDbEntity
  8
MOUNTAINLINE
 62
   250
100
AcDbVertex
100
AcDb2dVertex
 10
141.698844365617
 20
-93.39016517847539
 30
0.0
  0
SEQEND
  5
2F1
330
2EE
100
AcDbEntity
  8
MOUNTAINLINE
  0
POLYLINE
  5
2F2
330
1F
100
AcDbEntity
  8
MOUNTAINLINE
 62
   250
100
AcDb2dPolyline
 66
     1
 10
0.0
 20
0.0
 30
0.0
  0
VERTEX
  5
2F3
330
2F2
100
AcDbEntity
  8
MOUNTAINLINE
 62
   250
100
AcDbVertex
100
AcDb2dVertex
 10
94.35048554498877
 20
-120.157523570221
 30
0.0
  0
VERTEX
  5
2F4
330
2F2
100
AcDbEntity
  8
MOUNTAINLINE
 62
   250
100
AcDbVertex
100
AcDb2dVertex
 10
94.35048554498877
 20
-114.8043619504656
 30
0.0
  0
SEQEND
  5
2F5
330
2F2
100
AcDbEntity
  8
MOUNTAINLINE
  0
POLYLINE
  5
2F6
330
1F
100
AcDbEntity
  8
MOUNTAINLINE
 62
   250
100
AcDb2dPolyline
 66
     1
 10
0.0
 20
0.0
 30
0.0
  0
VERTEX
  5
2F7
330
2F6
100
AcDbEntity
  8
MOUNTAINLINE
 62
   250
100
AcDbVertex
100
AcDb2dVertex
 10
80.3616753271318
 20
-120.157523570221
 30
0.0
  0
VERTEX
  5
2F8
330
2F6
100
AcDbEntity
  8
MOUNTAINLINE
 62
   250
100
AcDbVertex
100
AcDb2dVertex
 10
80.3616753271318
 20
-114.8043619504656
 30
0.0
  0
SEQEND
  5
2F9
330
2F6
100
AcDbEntity
  8
MOUNTAINLINE
  0
POLYLINE
  5
2FA
330
1F
100
AcDbEntity
  8
MOUNTAINLINE
 62
   250
100
AcDb2dPolyline
 66
     1
 10
0.0
 20
0.0
 30
0.0
  0
VERTEX
  5
2FB
330
2FA
100
AcDbEntity
  8
MOUNTAINLINE
 62
   250
100
AcDbVertex
100
AcDb2dVertex
 10
45.15228270355568
 20
-101.4206827545927
 30
0.0
  0
VERTEX
  5
2FC
330
2FA
100
AcDbEntity
  8
MOUNTAINLINE
 62
   250
100
AcDbVertex
100
AcDb2dVertex
 10
45.15228270355568
 20
-93.39016517847539
 30
0.0
  0
SEQEND
  5
2FD
330
2FA
100
AcDbEntity
  8
MOUNTAINLINE
  0
POLYLINE
  5
2FE
330
1F
100
AcDbEntity
  8
MOUNTAINLINE
 62
   250
100
AcDb2dPolyline
 66
     1
 10
0.0
 20
0.0
 30
0.0
  0
VERTEX
  5
2FF
330
2FE
100
AcDbEntity
  8
MOUNTAINLINE
 62
   250
100
AcDbVertex
100
AcDb2dVertex
 10
31.16381699524724
 20
-101.4206827545927
 30
0.0
  0
VERTEX
  5
300
330
2FE
100
AcDbEntity
  8
MOUNTAINLINE
 62
   250
100
AcDbVertex
100
AcDb2dVertex
 10
31.16381699524724
 20
-93.39016517847539
 30
0.0
  0
SEQEND
  5
301
330
2FE
100
AcDbEntity
  8
MOUNTAINLINE
  0
POLYLINE
  5
302
330
1F
100
AcDbEntity
  8
MOUNTAINLINE
 62
   250
100
AcDb2dPolyline
 66
     1
 10
0.0
 20
0.0
 30
0.0
  0
VERTEX
  5
303
330
302
100
AcDbEntity
  8
MOUNTAINLINE
 62
   250
100
AcDbVertex
100
AcDb2dVertex
 10
155.688343602571
 20
-69.30016274309163
 30
0.0
  0
VERTEX
  5
304
330
302
100
AcDbEntity
  8
MOUNTAINLINE
 62
   250
100
AcDbVertex
100
AcDb2dVertex
 10
155.688343602571
 20
-66.62401257014956
 30
0.0
  0
SEQEND
  5
305
330
302
100
AcDbEntity
  8
MOUNTAINLINE
  0
POLYLINE
  5
306
330
1F
100
AcDbEntity
  8
MOUNTAINLINE
 62
   250
100
AcDb2dPolyline
 66
     1
 10
0.0
 20
0.0
 30
0.0
  0
VERTEX
  5
307
330
306
100
AcDbEntity
  8
MOUNTAINLINE
 62
   250
100
AcDbVertex
100
AcDb2dVertex
 10
141.698844365617
 20
-69.30016274309163
 30
0.0
  0
VERTEX
  5
308
330
306
100
AcDbEntity
  8
MOUNTAINLINE
 62
   250
100
AcDbVertex
100
AcDb2dVertex
 10
141.698844365617
 20
-66.62401257014956
 30
0.0
  0
SEQEND
  5
309
330
306
100
AcDbEntity
  8
MOUNTAINLINE
  0
POLYLINE
  5
30A
330
1F
100
AcDbEntity
  8
MOUNTAINLINE
 62
   250
100
AcDb2dPolyline
 66
     1
 10
0.0
 20
0.0
 30
0.0
  0
VERTEX
  5
30B
330
30A
100
AcDbEntity
  8
MOUNTAINLINE
 62
   250
100
AcDbVertex
100
AcDb2dVertex
 10
94.35048554498877
 20
-93.39016517847539
 30
0.0
  0
VERTEX
  5
30C
330
30A
100
AcDbEntity
  8
MOUNTAINLINE
 62
   250
100
AcDbVertex
100
AcDb2dVertex
 10
94.35048554498877
 20
-88.03700355871992
 30
0.0
  0
SEQEND
  5
30D
330
30A
100
AcDbEntity
  8
MOUNTAINLINE
  0
POLYLINE
  5
30E
330
1F
100
AcDbEntity
  8
MOUNTAINLINE
 62
   250
100
AcDb2dPolyline
 66
     1
 10
0.0
 20
0.0
 30
0.0
  0
VERTEX
  5
30F
330
30E
100
AcDbEntity
  8
MOUNTAINLINE
 62
   250
100
AcDbVertex
100
AcDb2dVertex
 10
80.3616753271318
 20
-93.39016517847539
 30
0.0
  0
VERTEX
  5
310
330
30E
100
AcDbEntity
  8
MOUNTAINLINE
 62
   250
100
AcDbVertex
100
AcDb2dVertex
 10
80.3616753271318
 20
-88.03700355871992
 30
0.0
  0
SEQEND
  5
311
330
30E
100
AcDbEntity
  8
MOUNTAINLINE
  0
POLYLINE
  5
312
330
1F
100
AcDbEntity
  8
MOUNTAINLINE
 62
   250
100
AcDb2dPolyline
 66
     1
 10
0.0
 20
0.0
 30
0.0
  0
VERTEX
  5
313
330
312
100
AcDbEntity
  8
MOUNTAINLINE
 62
   250
100
AcDbVertex
100
AcDb2dVertex
 10
45.15228270355568
 20
-74.65332436284709
 30
0.0
  0
VERTEX
  5
314
330
312
100
AcDbEntity
  8
MOUNTAINLINE
 62
   250
100
AcDbVertex
100
AcDb2dVertex
 10
45.15228270355568
 20
-66.62401257014956
 30
0.0
  0
SEQEND
  5
315
330
312
100
AcDbEntity
  8
MOUNTAINLINE
  0
POLYLINE
  5
316
330
1F
100
AcDbEntity
  8
MOUNTAINLINE
 62
   250
100
AcDb2dPolyline
 66
     1
 10
0.0
 20
0.0
 30
0.0
  0
VERTEX
  5
317
330
316
100
AcDbEntity
  8
MOUNTAINLINE
 62
   250
100
AcDbVertex
100
AcDb2dVertex
 10
31.16381699524724
 20
-74.65332436284709
 30
0.0
  0
VERTEX
  5
318
330
316
100
AcDbEntity
  8
MOUNTAINLINE
 62
   250
100
AcDbVertex
100
AcDb2dVertex
 10
31.16381699524724
 20
-66.62401257014956
 30
0.0
  0
SEQEND
  5
319
330
316
100
AcDbEntity
  8
MOUNTAINLINE
  0
POLYLINE
  5
31A
330
1F
100
AcDbEntity
  8
MOUNTAINLINE
 62
   250
100
AcDb2dPolyline
 66
     1
 10
0.0
 20
0.0
 30
0.0
  0
VERTEX
  5
31B
330
31A
100
AcDbEntity
  8
MOUNTAINLINE
 62
   250
100
AcDbVertex
100
AcDb2dVertex
 10
155.688343602571
 20
-42.53366562521728
 30
0.0
  0
VERTEX
  5
31C
330
31A
100
AcDbEntity
  8
MOUNTAINLINE
 62
   250
100
AcDbVertex
100
AcDb2dVertex
 10
155.688343602571
 20
-39.85699868795242
 30
0.0
  0
SEQEND
  5
31D
330
31A
100
AcDbEntity
  8
MOUNTAINLINE
  0
POLYLINE
  5
31E
330
1F
100
AcDbEntity
  8
MOUNTAINLINE
 62
   250
100
AcDb2dPolyline
 66
     1
 10
0.0
 20
0.0
 30
0.0
  0
VERTEX
  5
31F
330
31E
100
AcDbEntity
  8
MOUNTAINLINE
 62
   250
100
AcDbVertex
100
AcDb2dVertex
 10
141.698844365617
 20
-42.53366562521728
 30
0.0
  0
VERTEX
  5
320
330
31E
100
AcDbEntity
  8
MOUNTAINLINE
 62
   250
100
AcDbVertex
100
AcDb2dVertex
 10
141.698844365617
 20
-39.85699868795242
 30
0.0
  0
SEQEND
  5
321
330
31E
100
AcDbEntity
  8
MOUNTAINLINE
  0
POLYLINE
  5
322
330
1F
100
AcDbEntity
  8
MOUNTAINLINE
 62
   250
100
AcDb2dPolyline
 66
     1
 10
0.0
 20
0.0
 30
0.0
  0
VERTEX
  5
323
330
322
100
AcDbEntity
  8
MOUNTAINLINE
 62
   250
100
AcDbVertex
100
AcDb2dVertex
 10
94.35048554498877
 20
-66.62401257014956
 30
0.0
  0
VERTEX
  5
324
330
322
100
AcDbEntity
  8
MOUNTAINLINE
 62
   250
100
AcDbVertex
100
AcDb2dVertex
 10
94.35048554498877
 20
-61.26998967652278
 30
0.0
  0
SEQEND
  5
325
330
322
100
AcDbEntity
  8
MOUNTAINLINE
  0
POLYLINE
  5
326
330
1F
100
AcDbEntity
  8
MOUNTAINLINE
 62
   250
100
AcDb2dPolyline
 66
     1
 10
0.0
 20
0.0
 30
0.0
  0
VERTEX
  5
327
330
326
100
AcDbEntity
  8
MOUNTAINLINE
 62
   250
100
AcDbVertex
100
AcDb2dVertex
 10
80.3616753271318
 20
-66.62401257014956
 30
0.0
  0
VERTEX
  5
328
330
326
100
AcDbEntity
  8
MOUNTAINLINE
 62
   250
100
AcDbVertex
100
AcDb2dVertex
 10
80.3616753271318
 20
-61.26998967652278
 30
0.0
  0
SEQEND
  5
329
330
326
100
AcDbEntity
  8
MOUNTAINLINE
  0
POLYLINE
  5
32A
330
1F
100
AcDbEntity
  8
MOUNTAINLINE
 62
   250
100
AcDb2dPolyline
 66
     1
 10
0.0
 20
0.0
 30
0.0
  0
VERTEX
  5
32B
330
32A
100
AcDbEntity
  8
MOUNTAINLINE
 62
   250
100
AcDbVertex
100
AcDb2dVertex
 10
45.15228270355568
 20
-47.88682724497274
 30
0.0
  0
VERTEX
  5
32C
330
32A
100
AcDbEntity
  8
MOUNTAINLINE
 62
   250
100
AcDbVertex
100
AcDb2dVertex
 10
45.15228270355568
 20
-39.85699868795242
 30
0.0
  0
SEQEND
  5
32D
330
32A
100
AcDbEntity
  8
MOUNTAINLINE
  0
POLYLINE
  5
32E
330
1F
100
AcDbEntity
  8
MOUNTAINLINE
 62
   250
100
AcDb2dPolyline
 66
     1
 10
0.0
 20
0.0
 30
0.0
  0
VERTEX
  5
32F
330
32E
100
AcDbEntity
  8
MOUNTAINLINE
 62
   250
100
AcDbVertex
100
AcDb2dVertex
 10
31.16381699524724
 20
-47.88682724497274
 30
0.0
  0
VERTEX
  5
330
330
32E
100
AcDbEntity
  8
MOUNTAINLINE
 62
   250
100
AcDbVertex
100
AcDb2dVertex
 10
31.16381699524724
 20
-39.85699868795242
 30
0.0
  0
SEQEND
  5
331
330
32E
100
AcDbEntity
  8
MOUNTAINLINE
  0
MTEXT
  5
333
330
1F
100
AcDbEntity
  8
TEXT
 62
     7
100
AcDbMText
 10
152.5092094887824
 20
-287.6096624715004
 30
0.0
 40
3.358444443604833
 41
0.0
 71
     7
 72
     1
  1
\fArial|b0|i0|c0|p34;\W1;(c) 2016 Jun Mitani
  0
MTEXT
  5
334
330
1F
100
AcDbEntity
  8
TEXT
 62
     7
100
AcDbMText
 10
10.83448079156221
 20
-14.85542398717156
 30
0.0
 40
4.3179999989205
 41
0.0
 71
     7
 72
     1
  1
\fArial|b0|i0|c0|p34;\W1;Three-Tier Octagonal Box
  0
ENDSEC
  0
SECTION
  2
OBJECTS
  0
DICTIONARY
  5
C
330
0
100
AcDbDictionary
  3
ACAD_GROUP
350
D
  3
ACAD_LAYOUT
350
1A
  3
ACAD_MLINESTYLE
350
17
  3
ACAD_PLOTSETTINGS
350
19
  3
ACAD_TABLESTYLE
350
335
  3
ACAD_VISUALSTYLE
350
2A
1001
ACAD
1000
TREAT_AS_HARD
1070
     0
  0
DICTIONARY
  5
D
102
{ACAD_REACTORS
330
C
102
}
330
C
100
AcDbDictionary
1001
ACAD
1000
TREAT_AS_HARD
1070
     0
  0
DICTIONARY
  5
1A
102
{ACAD_REACTORS
330
C
102
}
330
C
100
AcDbDictionary
1001
ACAD
1000
TREAT_AS_HARD
1070
     0
  0
DICTIONARY
  5
17
102
{ACAD_REACTORS
330
C
102
}
330
C
100
AcDbDictionary
  3
STANDARD
350
18
1001
ACAD
1000
TREAT_AS_HARD
1070
     0
  0
DICTIONARY
  5
19
102
{ACAD_REACTORS
330
C
102
}
330
C
100
AcDbDictionary
1001
ACAD
1000
TREAT_AS_HARD
1070
     0
  0
DICTIONARY
  5
335
102
{ACAD_REACTORS
330
C
102
}
330
C
100
AcDbDictionary
1001
ACAD
1000
TREAT_AS_HARD
1070
     0
  0
DICTIONARY
  5
2A
102
{ACAD_REACTORS
330
C
102
}
330
C
100
AcDbDictionary
  3
2DWIREFRAME
350
2F
  3
3D_HIDDEN
350
31
  3
3DWIREFRAME
350
30
  3
BASIC
350
32
  3
BRIGHTEN
350
36
  3
COLORCHANGE
350
3A
  3
CONCEPTUAL
350
34
  3
DIM
350
35
  3
FACEPATTERN
350
39
  3
FLAT
350
2B
  3
FLATWITHEDGES
350
2C
  3
GOURAUD
350
2D
  3
GOURAUDWITHEDGES
350
2E
  3
LINEPATTERN
350
38
  3
REALISTIC
350
33
  3
THICKEN
350
37
1001
ACAD
1000
TREAT_AS_HARD
1070
     0
  0
MLINESTYLE
  5
18
102
{ACAD_REACTORS
330
17
102
}
330
17
100
AcDbMlineStyle
  2
Standard
 70
     0
  3

 62
   256
 51
90.0
 52
90.0
 71
     2
 49
0.5
 62
   256
  6
BYLAYER
 49
-0.5
 62
   256
  6
BYLAYER
  0
VISUALSTYLE
  5
2F
102
{ACAD_REACTORS
330
2A
102
}
330
2A
100
AcDbVisualStyle
  2
2dWireframe
 70
     4
 71
     0
 72
     2
 73
     0
 90
        0
 40
-0.6
 41
-30.0
 62
     5
 63
     7
 74
     1
 91
        4
 64
     7
 65
   257
 75
     1
175
     1
 42
1.0
 92
        0
 66
   257
 43
1.0
 76
     1
 77
     6
 78
     2
 67
     7
 79
     5
170
     0
171
     0
290
     0
174
     0
 93
        1
 44
0.0
173
     0
291
     0
 45
0.0
1001
ACAD
1000
AcDbSavedByObjectVersion
1070
     0
  0
VISUALSTYLE
  5
31
102
{ACAD_REACTORS
330
2A
102
}
330
2A
100
AcDbVisualStyle
  2
3D Hidden
 70
     6
 71
     1
 72
     2
 73
     2
 90
        0
 40
-0.6
 41
-30.0
 62
     5
 63
     7
 74
     2
 91
        2
 64
     7
 65
   257
 75
     2
175
     1
 42
40.0
 92
        0
 66
   257
 43
1.0
 76
     1
 77
     6
 78
     2
 67
     7
 79
     3
170
     0
171
     0
290
     0
174
     0
 93
        1
 44
0.0
173
     0
291
     0
 45
0.0
1001
ACAD
1000
AcDbSavedByObjectVersion
1070
     0
  0
VISUALSTYLE
  5
30
102
{ACAD_REACTORS
330
2A
102
}
330
2A
100
AcDbVisualStyle
  2
3dWireframe
 70
     5
 71
     0
 72
     2
 73
     0
 90
        0
 40
-0.6
 41
-30.0
 62
     5
 63
     7
 74
     1
 91
        4
 64
     7
 65
   257
 75
     1
175
     1
 42
1.0
 92
        0
 66
   257
 43
1.0
 76
     1
 77
     6
 78
     2
 67
     7
 79
     5
170
     0
171
     0
290
     0
174
     0
 93
        1
 44
0.0
173
     0
291
     0
 45
0.0
1001
ACAD
1000
AcDbSavedByObjectVersion
1070
     0
  0
VISUALSTYLE
  5
32
102
{ACAD_REACTORS
330
2A
102
}
330
2A
100
AcDbVisualStyle
  2
Basic
 70
     7
 71
     1
 72
     0
 73
     1
 90
        0
 40
-0.6
 41
-30.0
 62
     5
 63
     7
 74
     0
 91
        4
 64
     7
 65
   257
 75
     1
175
     1
 42
1.0
 92
        8
 66
     7
 43
1.0
 76
     1
 77
     6
 78
     2
 67
     7
 79
     5
170
     0
171
     0
290
     0
174
     0
 93
        1
 44
0.0
173
     0
291
     1
 45
0.0
1001
ACAD
1000
AcDbSavedByObjectVersion
1070
     0
  0
VISUALSTYLE
  5
36
102
{ACAD_REACTORS
330
2A
102
}
330
2A
100
AcDbVisualStyle
  2
Brighten
 70
    12
 71
     2
 72
     2
 73
     0
 90
        0
 40
-0.6
 41
-30.0
 62
     5
 63
     7
 74
     1
 91
        4
 64
     7
 65
   257
 75
     1
175
     1
 42
1.0
 92
        8
 66
     7
 43
1.0
 76
     1
 77
     6
 78
     2
 67
     7
 79
     5
170
     0
171
     0
290
     0
174
     0
 93
        1
 44
50.0
173
     0
291
     1
 45
0.0
1001
ACAD
1000
AcDbSavedByObjectVersion
1070
     0
  0
VISUALSTYLE
  5
3A
102
{ACAD_REACTORS
330
2A
102
}
330
2A
100
AcDbVisualStyle
  2
ColorChange
 70
    16
 71
     2
 72
     2
 73
     3
 90
        0
 40
-0.6
 41
-30.0
 62
     5
 63
     8
 74
     1
 91
        4
 64
     7
 65
   257
 75
     1
175
     1
 42
1.0
 92
        8
 66
     8
 43
1.0
 76
     1
 77
     6
 78
     2
 67
     7
 79
     5
170
     0
171
     0
290
     0
174
     0
 93
        1
 44
0.0
173
     0
291
     1
 45
0.0
1001
ACAD
1000
AcDbSavedByObjectVersion
1070
     0
  0
VISUALSTYLE
  5
34
102
{ACAD_REACTORS
330
2A
102
}
330
2A
100
AcDbVisualStyle
  2
Conceptual
 70
     9
 71
     3
 72
     2
 73
     0
 90
        0
 40
-0.6
 41
-30.0
 62
     5
 63
     7
 74
     2
 91
        2
 64
     7
 65
   257
 75
     1
175
     1
 42
40.0
 92
        8
 66
     7
 43
1.0
 76
     1
 77
     6
 78
     2
 67
     7
 79
     3
170
     0
171
     0
290
     0
174
     0
 93
        1
 44
0.0
173
     0
291
     0
 45
0.0
1001
ACAD
1000
AcDbSavedByObjectVersion
1070
     0
  0
VISUALSTYLE
  5
35
102
{ACAD_REACTORS
330
2A
102
}
330
2A
100
AcDbVisualStyle
  2
Dim
 70
    11
 71
     2
 72
     2
 73
     0
 90
        0
 40
-0.6
 41
-30.0
 62
     5
 63
     7
 74
     1
 91
        4
 64
     7
 65
   257
 75
     1
175
     1
 42
1.0
 92
        8
 66
     7
 43
1.0
 76
     1
 77
     6
 78
     2
 67
     7
 79
     5
170
     0
171
     0
290
     0
174
     0
 93
        1
 44
-50.0
173
     0
291
     1
 45
0.0
1001
ACAD
1000
AcDbSavedByObjectVersion
1070
     0
  0
VISUALSTYLE
  5
39
102
{ACAD_REACTORS
330
2A
102
}
330
2A
100
AcDbVisualStyle
  2
Facepattern
 70
    15
 71
     2
 72
     2
 73
     0
 90
        0
 40
-0.6
 41
-30.0
 62
     5
 63
     7
 74
     1
 91
        4
 64
     7
 65
   257
 75
     1
175
     1
 42
1.0
 92
        8
 66
     7
 43
1.0
 76
     1
 77
     6
 78
     2
 67
     7
 79
     5
170
     0
171
     0
290
     0
174
     0
 93
        1
 44
0.0
173
     0
291
     1
 45
0.0
1001
ACAD
1000
AcDbSavedByObjectVersion
1070
     0
  0
VISUALSTYLE
  5
2B
102
{ACAD_REACTORS
330
2A
102
}
330
2A
100
AcDbVisualStyle
  2
Flat
 70
     0
 71
     2
 72
     1
 73
     1
 90
        2
 40
-0.6
 41
30.0
 62
     5
 63
     7
 74
     0
 91
        4
 64
     7
 65
   257
 75
     1
175
     1
 42
1.0
 92
        8
 66
     7
 43
1.0
 76
     1
 77
     6
 78
     2
 67
     7
 79
     5
170
     0
171
     0
290
     0
174
     0
 93
       13
 44
0.0
173
     0
291
     1
 45
0.0
1001
ACAD
1000
AcDbSavedByObjectVersion
1070
     0
  0
VISUALSTYLE
  5
2C
102
{ACAD_REACTORS
330
2A
102
}
330
2A
100
AcDbVisualStyle
  2
FlatWithEdges
 70
     1
 71
     2
 72
     1
 73
     1
 90
        2
 40
-0.6
 41
30.0
 62
     5
 63
     7
 74
     1
 91
        4
 64
     7
 65
   257
 75
     1
175
     1
 42
1.0
 92
        0
 66
   257
 43
1.0
 76
     1
 77
     6
 78
     2
 67
     7
 79
     5
170
     0
171
     0
290
     0
174
     0
 93
       13
 44
0.0
173
     0
291
     1
 45
0.0
1001
ACAD
1000
AcDbSavedByObjectVersion
1070
     0
  0
VISUALSTYLE
  5
2D
102
{ACAD_REACTORS
330
2A
102
}
330
2A
100
AcDbVisualStyle
  2
Gouraud
 70
     2
 71
     2
 72
     2
 73
     1
 90
        2
 40
-0.6
 41
30.0
 62
     5
 63
     7
 74
     0
 91
        4
 64
     7
 65
   257
 75
     1
175
     1
 42
1.0
 92
        0
 66
     7
 43
1.0
 76
     1
 77
     6
 78
     2
 67
     7
 79
     5
170
     0
171
     0
290
     0
174
     0
 93
       13
 44
0.0
173
     0
291
     1
 45
0.0
1001
ACAD
1000
AcDbSavedByObjectVersion
1070
     0
  0
VISUALSTYLE
  5
2E
102
{ACAD_REACTORS
330
2A
102
}
330
2A
100
AcDbVisualStyle
  2
GouraudWithEdges
 70
     3
 71
     2
 72
     2
 73
     1
 90
        2
 40
-0.6
 41
30.0
 62
     5
 63
     7
 74
     1
 91
        4
 64
     7
 65
   257
 75
     1
175
     1
 42
1.0
 92
        0
 66
   257
 43
1.0
 76
     1
 77
     6
 78
     2
 67
     7
 79
     5
170
     0
171
     0
290
     0
174
     0
 93
       13
 44
0.0
173
     0
291
     1
 45
0.0
1001
ACAD
1000
AcDbSavedByObjectVersion
1070
     0
  0
VISUALSTYLE
  5
38
102
{ACAD_REACTORS
330
2A
102
}
330
2A
100
AcDbVisualStyle
  2
Linepattern
 70
    14
 71
     2
 72
     2
 73
     0
 90
        0
 40
-0.6
 41
-30.0
 62
     5
 63
     7
 74
     1
 91
        4
 64
     7
 65
   257
 75
     7
175
     7
 42
1.0
 92
        8
 66
     7
 43
1.0
 76
     1
 77
     6
 78
     2
 67
     7
 79
     5
170
     0
171
     0
290
     0
174
     0
 93
        1
 44
0.0
173
     0
291
     1
 45
0.0
1001
ACAD
1000
AcDbSavedByObjectVersion
1070
     0
  0
VISUALSTYLE
  5
33
102
{ACAD_REACTORS
330
2A
102
}
330
2A
100
AcDbVisualStyle
  2
Realistic
 70
     8
 71
     2
 72
     2
 73
     0
 90
        0
 40
-0.6
 41
-30.0
 62
     5
 63
     7
 74
     1
 91
        0
 64
     7
 65
   257
 75
     1
175
     1
 42
1.0
 92
        8
 66
     8
 43
1.0
 76
     1
 77
     6
 78
     2
 67
     7
 79
     5
170
     0
171
     0
290
     0
174
     0
 93
       13
 44
0.0
173
     0
291
     0
 45
0.0
1001
ACAD
1000
AcDbSavedByObjectVersion
1070
     0
  0
VISUALSTYLE
  5
37
102
{ACAD_REACTORS
330
2A
102
}
330
2A
100
AcDbVisualStyle
  2
Thicken
 70
    13
 71
     2
 72
     2
 73
     0
 90
        0
 40
-0.6
 41
-30.0
 62
     5
 63
     7
 74
     1
 91
        4
 64
     7
 65
   257
 75
     1
175
     1
 42
1.0
 92
       12
 66
     7
 43
1.0
 76
     1
 77
     6
 78
     2
 67
     7
 79
     5
170
     0
171
     0
290
     0
174
     0
 93
        1
 44
0.0
173
     0
291
     1
 45
0.0
1001
ACAD
1000
AcDbSavedByObjectVersion
1070
     0
  0
ENDSEC
  0
EOF
