<?xml version="1.0" encoding="utf-8"?>
<!-- Generator: Adobe Illustrator 16.0.3, SVG Export Plug-In . SVG Version: 6.00 Build 0)  -->
<!DOCTYPE svg PUBLIC "-//W3C//DTD SVG 1.1//EN" "http://www.w3.org/Graphics/SVG/1.1/DTD/svg11.dtd">
<svg version="1.1" xmlns="http://www.w3.org/2000/svg" xmlns:xlink="http://www.w3.org/1999/xlink" x="0px" y="0px"
	 width="595.28px" height="841.89px" viewBox="0 0 595.28 841.89" enable-background="new 0 0 595.28 841.89" xml:space="preserve">
<g id="CutLine">
	<g id="LINE_13_">
		
			<line fill="none" stroke="#333333" stroke-width="2" stroke-linecap="round" stroke-linejoin="round" stroke-miterlimit="10" x1="77.135" y1="775" x2="77.135" y2="92.453"/>
	</g>
	<g id="LINE_14_">
		
			<line fill="none" stroke="#333333" stroke-width="2" stroke-linecap="round" stroke-linejoin="round" stroke-miterlimit="10" x1="507.298" y1="775" x2="507.298" y2="92.453"/>
	</g>
	<g id="LINE_616_">
		
			<line fill="none" stroke="#333333" stroke-width="2" stroke-linecap="round" stroke-linejoin="round" stroke-miterlimit="10" x1="77.135" y1="92.453" x2="292.218" y2="92.453"/>
	</g>
	<g id="LINE_12_">
		
			<line fill="none" stroke="#333333" stroke-width="2" stroke-linecap="round" stroke-linejoin="round" stroke-miterlimit="10" x1="507.298" y1="775" x2="292.218" y2="775"/>
	</g>
</g>
<g id="ValleyLine">
	<g id="LINE_41_">
		
			<polyline fill="none" stroke="#333333" stroke-linecap="round" stroke-linejoin="round" stroke-miterlimit="10" stroke-dasharray="4" points="
			507.298,750.744 491.69,746.561 483.521,744.376 475.344,742.229 467.147,740.159 458.923,738.196 450.669,736.375 
			442.374,734.73 434.043,733.288 425.675,732.072 417.277,731.104 408.851,730.401 400.406,729.976 391.952,729.832 
			383.499,729.976 375.055,730.401 366.631,731.104 358.23,732.072 349.862,733.288 341.534,734.73 333.239,736.375 
			324.984,738.196 316.76,740.159 308.562,742.229 300.387,744.376 292.218,746.561 284.05,748.743 275.871,750.888 
			267.672,752.962 259.45,754.926 251.192,756.744 242.899,758.389 234.568,759.833 226.201,761.048 217.803,762.016 
			209.376,762.718 200.933,763.146 192.479,763.29 184.028,763.146 175.583,762.718 167.157,762.016 158.757,761.048 
			150.392,759.833 142.061,758.389 133.766,756.744 125.509,754.926 117.286,752.962 109.089,750.888 100.911,748.743 
			92.744,746.561 77.135,742.38 		"/>
	</g>
	<g id="LINE_40_">
		
			<polyline fill="none" stroke="#333333" stroke-linecap="round" stroke-linejoin="round" stroke-miterlimit="10" stroke-dasharray="4" points="
			507.298,693.865 491.69,689.68 483.521,687.497 475.344,685.351 467.147,683.278 458.923,681.317 450.669,679.498 
			442.374,677.852 434.043,676.409 425.675,675.193 417.277,674.225 408.851,673.521 400.406,673.097 391.952,672.953 
			383.499,673.097 375.055,673.521 366.631,674.225 358.23,675.193 349.862,676.409 341.534,677.852 333.239,679.498 
			324.984,681.317 316.76,683.278 308.562,685.351 300.387,687.497 292.218,689.68 284.05,691.864 275.871,694.012 267.672,696.083 
			259.45,698.047 251.192,699.863 242.899,701.51 234.568,702.954 226.201,704.169 217.803,705.137 209.376,705.842 200.933,706.27 
			192.479,706.411 184.028,706.27 175.583,705.842 167.157,705.137 158.757,704.169 150.392,702.954 142.061,701.51 
			133.766,699.863 125.509,698.047 117.286,696.083 109.089,694.012 100.911,691.864 92.744,689.68 77.135,685.499 		"/>
	</g>
	<g id="LINE_26_">
		
			<polyline fill="none" stroke="#333333" stroke-linecap="round" stroke-linejoin="round" stroke-miterlimit="10" stroke-dasharray="4" points="
			507.298,636.984 491.69,632.804 483.521,630.618 475.344,628.474 467.147,626.399 458.923,624.437 450.669,622.619 
			442.374,620.974 434.043,619.531 425.675,618.314 417.277,617.346 408.851,616.644 400.406,616.216 391.952,616.072 
			383.499,616.216 375.055,616.644 366.631,617.346 358.23,618.314 349.862,619.531 341.534,620.974 333.239,622.619 
			324.984,624.437 316.76,626.399 308.562,628.474 300.387,630.618 292.218,632.804 284.05,634.986 275.871,637.133 
			267.672,639.205 259.45,641.168 251.192,642.987 242.899,644.631 234.568,646.073 226.201,647.29 217.803,648.258 
			209.376,648.963 200.933,649.389 192.479,649.532 184.028,649.389 175.583,648.963 167.157,648.258 158.757,647.29 
			150.392,646.073 142.061,644.631 133.766,642.987 125.509,641.168 117.286,639.205 109.089,637.133 100.911,634.986 
			92.744,632.804 77.135,628.62 		"/>
	</g>
	<g id="LINE_25_">
		
			<polyline fill="none" stroke="#333333" stroke-linecap="round" stroke-linejoin="round" stroke-miterlimit="10" stroke-dasharray="4" points="
			507.298,580.105 491.69,575.925 483.521,573.74 475.344,571.595 467.147,569.521 458.923,567.558 450.669,565.741 
			442.374,564.097 434.043,562.652 425.675,561.436 417.277,560.468 408.851,559.765 400.406,559.337 391.952,559.193 
			383.499,559.337 375.055,559.765 366.631,560.468 358.23,561.436 349.862,562.652 341.534,564.097 333.239,565.741 
			324.984,567.558 316.76,569.521 308.562,571.595 300.387,573.74 292.218,575.925 284.05,578.107 275.871,580.254 267.672,582.326 
			259.45,584.289 251.192,586.108 242.899,587.752 234.568,589.195 226.201,590.411 217.803,591.38 209.376,592.082 
			200.933,592.508 192.479,592.653 184.028,592.508 175.583,592.082 167.157,591.38 158.757,590.411 150.392,589.195 
			142.061,587.752 133.766,586.108 125.509,584.289 117.286,582.326 109.089,580.254 100.911,578.107 92.744,575.925 
			77.135,571.741 		"/>
	</g>
	<g id="LINE_24_">
		
			<polyline fill="none" stroke="#333333" stroke-linecap="round" stroke-linejoin="round" stroke-miterlimit="10" stroke-dasharray="4" points="
			507.298,523.227 491.69,519.044 483.521,516.861 475.344,514.716 467.147,512.644 458.923,510.679 450.669,508.86 
			442.374,507.216 434.043,505.771 425.675,504.557 417.277,503.589 408.851,502.887 400.406,502.459 391.952,502.315 
			383.499,502.459 375.055,502.887 366.631,503.589 358.23,504.557 349.862,505.771 341.534,507.216 333.239,508.86 
			324.984,510.679 316.76,512.644 308.562,514.716 300.387,516.861 292.218,519.044 284.05,521.229 275.871,523.375 
			267.672,525.447 259.45,527.408 251.192,529.229 242.899,530.874 234.568,532.316 226.201,533.532 217.803,534.499 
			209.376,535.203 200.933,535.631 192.479,535.772 184.028,535.631 175.583,535.203 167.157,534.499 158.757,533.532 
			150.392,532.316 142.061,530.874 133.766,529.229 125.509,527.408 117.286,525.447 109.089,523.375 100.911,521.229 
			92.744,519.044 77.135,514.862 		"/>
	</g>
	<g id="LINE_23_">
		
			<polyline fill="none" stroke="#333333" stroke-linecap="round" stroke-linejoin="round" stroke-miterlimit="10" stroke-dasharray="4" points="
			507.298,466.349 491.69,462.165 483.521,459.983 475.344,457.836 467.147,455.765 458.923,453.802 450.669,451.98 
			442.374,450.336 434.043,448.893 425.675,447.68 417.277,446.711 408.851,446.008 400.406,445.58 391.952,445.438 383.499,445.58 
			375.055,446.008 366.631,446.711 358.23,447.68 349.862,448.893 341.534,450.336 333.239,451.98 324.984,453.802 316.76,455.765 
			308.562,457.836 300.387,459.983 292.218,462.165 284.05,464.35 275.871,466.496 267.672,468.566 259.45,470.529 251.192,472.351 
			242.899,473.995 234.568,475.438 226.201,476.654 217.803,477.62 209.376,478.324 200.933,478.752 192.479,478.894 
			184.028,478.752 175.583,478.324 167.157,477.62 158.757,476.654 150.392,475.438 142.061,473.995 133.766,472.351 
			125.509,470.529 117.286,468.566 109.089,466.496 100.911,464.35 92.744,462.165 77.135,457.983 		"/>
	</g>
	<g id="LINE_22_">
		
			<polyline fill="none" stroke="#333333" stroke-linecap="round" stroke-linejoin="round" stroke-miterlimit="10" stroke-dasharray="4" points="
			507.298,409.47 491.69,405.287 483.521,403.103 475.344,400.956 467.147,398.885 458.923,396.923 450.669,395.103 
			442.374,393.458 434.043,392.014 425.675,390.799 417.277,389.833 408.851,389.128 400.406,388.701 391.952,388.559 
			383.499,388.701 375.055,389.128 366.631,389.833 358.23,390.799 349.862,392.014 341.534,393.458 333.239,395.103 
			324.984,396.923 316.76,398.885 308.562,400.956 300.387,403.103 292.218,405.287 284.05,407.47 275.871,409.617 267.672,411.688 
			259.45,413.652 251.192,415.47 242.899,417.117 234.568,418.559 226.201,419.774 217.803,420.742 209.376,421.445 
			200.933,421.873 192.479,422.016 184.028,421.873 175.583,421.445 167.157,420.742 158.757,419.774 150.392,418.559 
			142.061,417.117 133.766,415.47 125.509,413.652 117.286,411.688 109.089,409.617 100.911,407.47 92.744,405.287 77.135,401.105 
					"/>
	</g>
	<g id="LINE_21_">
		
			<polyline fill="none" stroke="#333333" stroke-linecap="round" stroke-linejoin="round" stroke-miterlimit="10" stroke-dasharray="4" points="
			507.298,352.591 491.69,348.409 483.521,346.223 475.344,344.077 467.147,342.004 458.923,340.043 450.669,338.224 
			442.374,336.579 434.043,335.136 425.675,333.919 417.277,332.953 408.851,332.249 400.406,331.821 391.952,331.679 
			383.499,331.821 375.055,332.249 366.631,332.953 358.23,333.919 349.862,335.136 341.534,336.579 333.239,338.224 
			324.984,340.043 316.76,342.004 308.562,344.077 300.387,346.223 292.218,348.409 284.05,350.591 275.871,352.737 267.672,354.81 
			259.45,356.773 251.192,358.592 242.899,360.237 234.568,361.68 226.201,362.896 217.803,363.864 209.376,364.567 
			200.933,364.995 192.479,365.138 184.028,364.995 175.583,364.567 167.157,363.864 158.757,362.896 150.392,361.68 
			142.061,360.237 133.766,358.592 125.509,356.773 117.286,354.81 109.089,352.737 100.911,350.591 92.744,348.409 77.135,344.227 
					"/>
	</g>
	<g id="LINE_20_">
		
			<polyline fill="none" stroke="#333333" stroke-linecap="round" stroke-linejoin="round" stroke-miterlimit="10" stroke-dasharray="4" points="
			507.298,295.713 491.69,291.529 483.521,289.345 475.344,287.199 467.147,285.126 458.923,283.165 450.669,281.346 442.374,279.7 
			434.043,278.258 425.675,277.041 417.277,276.074 408.851,275.369 400.406,274.943 391.952,274.8 383.499,274.943 
			375.055,275.369 366.631,276.074 358.23,277.041 349.862,278.258 341.534,279.7 333.239,281.346 324.984,283.165 316.76,285.126 
			308.562,287.199 300.387,289.345 292.218,291.529 284.05,293.713 275.871,295.859 267.672,297.932 259.45,299.893 
			251.192,301.712 242.899,303.357 234.568,304.8 226.201,306.017 217.803,306.985 209.376,307.689 200.933,308.115 
			192.479,308.259 184.028,308.115 175.583,307.689 167.157,306.985 158.757,306.017 150.392,304.8 142.061,303.357 
			133.766,301.712 125.509,299.893 117.286,297.932 109.089,295.859 100.911,293.713 92.744,291.529 77.135,287.349 		"/>
	</g>
	<g id="LINE_19_">
		
			<polyline fill="none" stroke="#333333" stroke-linecap="round" stroke-linejoin="round" stroke-miterlimit="10" stroke-dasharray="4" points="
			507.298,238.833 491.69,234.65 483.521,232.467 475.344,230.321 467.147,228.248 458.923,226.286 450.669,224.466 
			442.374,222.821 434.043,221.378 425.675,220.162 417.277,219.194 408.851,218.491 400.406,218.064 391.952,217.92 
			383.499,218.064 375.055,218.491 366.631,219.194 358.23,220.162 349.862,221.378 341.534,222.821 333.239,224.466 
			324.984,226.286 316.76,228.248 308.562,230.321 300.387,232.467 292.218,234.65 284.05,236.833 275.871,238.98 267.672,241.051 
			259.45,243.015 251.192,244.834 242.899,246.479 234.568,247.923 226.201,249.139 217.803,250.107 209.376,250.81 
			200.933,251.237 192.479,251.379 184.028,251.237 175.583,250.81 167.157,250.107 158.757,249.139 150.392,247.923 
			142.061,246.479 133.766,244.834 125.509,243.015 117.286,241.051 109.089,238.98 100.911,236.833 92.744,234.65 77.135,230.468 
					"/>
	</g>
	<g id="LINE_18_">
		
			<polyline fill="none" stroke="#333333" stroke-linecap="round" stroke-linejoin="round" stroke-miterlimit="10" stroke-dasharray="4" points="
			507.298,181.954 491.69,177.771 483.521,175.588 475.344,173.44 467.147,171.369 458.923,169.406 450.669,167.587 
			442.374,165.942 434.043,164.5 425.675,163.284 417.277,162.316 408.851,161.612 400.406,161.187 391.952,161.042 
			383.499,161.187 375.055,161.612 366.631,162.316 358.23,163.284 349.862,164.5 341.534,165.942 333.239,167.587 324.984,169.406 
			316.76,171.369 308.562,173.44 300.387,175.588 292.218,177.771 284.05,179.955 275.871,182.101 267.672,184.173 259.45,186.135 
			251.192,187.956 242.899,189.601 234.568,191.043 226.201,192.258 217.803,193.228 209.376,193.93 200.933,194.356 
			192.479,194.501 184.028,194.356 175.583,193.93 167.157,193.228 158.757,192.258 150.392,191.043 142.061,189.601 
			133.766,187.956 125.509,186.135 117.286,184.173 109.089,182.101 100.911,179.955 92.744,177.771 77.135,173.59 		"/>
	</g>
	<g id="LINE_17_">
		
			<polyline fill="none" stroke="#333333" stroke-linecap="round" stroke-linejoin="round" stroke-miterlimit="10" stroke-dasharray="4" points="
			507.298,125.074 491.69,120.892 483.521,118.708 475.344,116.563 467.147,114.491 458.923,112.528 450.669,110.709 
			442.374,109.062 434.043,107.62 425.675,106.404 417.277,105.437 408.851,104.734 400.406,104.307 391.952,104.164 
			383.499,104.307 375.055,104.734 366.631,105.437 358.23,106.404 349.862,107.62 341.534,109.062 333.239,110.709 
			324.984,112.528 316.76,114.491 308.562,116.563 300.387,118.708 292.218,120.892 284.05,123.076 275.871,125.222 
			267.672,127.294 259.45,129.258 251.192,131.076 242.899,132.72 234.568,134.165 226.201,135.38 217.803,136.349 209.376,137.052 
			200.933,137.478 192.479,137.621 184.028,137.478 175.583,137.052 167.157,136.349 158.757,135.38 150.392,134.165 
			142.061,132.72 133.766,131.076 125.509,129.258 117.286,127.294 109.089,125.222 100.911,123.076 92.744,120.892 77.135,116.71 
					"/>
	</g>
</g>
<g id="MountainLine">
	<g id="LINE_39_">
		
			<line fill="none" stroke="#333333" stroke-width="2" stroke-linecap="round" stroke-linejoin="round" stroke-miterlimit="10" x1="77.135" y1="775" x2="292.218" y2="775"/>
	</g>
	<g id="LINE_38_">
		
			<line fill="none" stroke="#333333" stroke-linecap="round" stroke-linejoin="round" stroke-miterlimit="10" x1="77.135" y1="718.121" x2="507.298" y2="718.121"/>
	</g>
	<g id="LINE_37_">
		
			<line fill="none" stroke="#333333" stroke-linecap="round" stroke-linejoin="round" stroke-miterlimit="10" x1="77.135" y1="661.242" x2="507.298" y2="661.242"/>
	</g>
	<g id="LINE_36_">
		
			<line fill="none" stroke="#333333" stroke-linecap="round" stroke-linejoin="round" stroke-miterlimit="10" x1="77.135" y1="604.364" x2="507.298" y2="604.364"/>
	</g>
	<g id="LINE_35_">
		
			<line fill="none" stroke="#333333" stroke-linecap="round" stroke-linejoin="round" stroke-miterlimit="10" x1="77.135" y1="547.483" x2="507.298" y2="547.483"/>
	</g>
	<g id="LINE_34_">
		
			<line fill="none" stroke="#333333" stroke-linecap="round" stroke-linejoin="round" stroke-miterlimit="10" x1="77.135" y1="490.604" x2="507.298" y2="490.604"/>
	</g>
	<g id="LINE_33_">
		
			<line fill="none" stroke="#333333" stroke-linecap="round" stroke-linejoin="round" stroke-miterlimit="10" x1="77.135" y1="433.727" x2="507.298" y2="433.727"/>
	</g>
	<g id="LINE_32_">
		
			<line fill="none" stroke="#333333" stroke-linecap="round" stroke-linejoin="round" stroke-miterlimit="10" x1="77.135" y1="376.848" x2="507.298" y2="376.848"/>
	</g>
	<g id="LINE_31_">
		
			<line fill="none" stroke="#333333" stroke-linecap="round" stroke-linejoin="round" stroke-miterlimit="10" x1="77.135" y1="319.968" x2="507.298" y2="319.968"/>
	</g>
	<g id="LINE_30_">
		
			<line fill="none" stroke="#333333" stroke-linecap="round" stroke-linejoin="round" stroke-miterlimit="10" x1="77.135" y1="263.09" x2="507.298" y2="263.09"/>
	</g>
	<g id="LINE_29_">
		
			<line fill="none" stroke="#333333" stroke-linecap="round" stroke-linejoin="round" stroke-miterlimit="10" x1="77.135" y1="206.209" x2="507.298" y2="206.209"/>
	</g>
	<g id="LINE_28_">
		
			<line fill="none" stroke="#333333" stroke-linecap="round" stroke-linejoin="round" stroke-miterlimit="10" x1="77.135" y1="149.332" x2="507.298" y2="149.332"/>
	</g>
	<g id="LINE_27_">
		
			<line fill="none" stroke="#333333" stroke-width="2" stroke-linecap="round" stroke-linejoin="round" stroke-miterlimit="10" x1="292.218" y1="92.453" x2="507.298" y2="92.453"/>
	</g>
</g>
<g id="Text">
	<text transform="matrix(1 0 0 1 432.3096 815.2715)" font-family="'ArialMT'" font-size="14">(c) 2016 Jun Mitani</text>
	<text transform="matrix(1 0 0 1 30.7119 42.1099)" font-family="'ArialMT'" font-size="18">Two Connected Spheres</text>
</g>
</svg>
