  0
SECTION
  2
HEADER
  9
$ACADVER
  1
AC1012
  9
$DWGCODEPAGE
  3
ansi_932
  9
$INSBASE
 10
0.0
 20
0.0
 30
0.0
  9
$EXTMIN
 10
1.000000000000000E+20
 20
1.000000000000000E+20
 30
1.000000000000000E+20
  9
$EXTMAX
 10
-1.000000000000000E+20
 20
-1.000000000000000E+20
 30
-1.000000000000000E+20
  9
$LIMMIN
 10
0.0
 20
0.0
  9
$LIMMAX
 10
12.0
 20
9.0
  9
$ORTHOMODE
 70
     0
  9
$REGENMODE
 70
     1
  9
$FILLMODE
 70
     1
  9
$QTEXTMODE
 70
     0
  9
$MIRRTEXT
 70
     1
  9
$DRAGMODE
 70
     2
  9
$LTSCALE
 40
1.0
  9
$OSMODE
 70
    37
  9
$ATTMODE
 70
     1
  9
$TEXTSIZE
 40
0.2
  9
$TRACEWID
 40
0.05
  9
$TEXTSTYLE
  7
STANDARD
  9
$CLAYER
  8
0
  9
$CELTYPE
  6
BYLAYER
  9
$CECOLOR
 62
   256
  9
$CELTSCALE
 40
1.0
  9
$DELOBJ
 70
     1
  9
$DISPSILH
 70
     0
  9
$DIMSCALE
 40
1.0
  9
$DIMASZ
 40
0.18
  9
$DIMEXO
 40
0.0625
  9
$DIMDLI
 40
0.38
  9
$DIMRND
 40
0.0
  9
$DIMDLE
 40
0.0
  9
$DIMEXE
 40
0.18
  9
$DIMTP
 40
0.0
  9
$DIMTM
 40
0.0
  9
$DIMTXT
 40
0.18
  9
$DIMCEN
 40
0.09
  9
$DIMTSZ
 40
0.0
  9
$DIMTOL
 70
     0
  9
$DIMLIM
 70
     0
  9
$DIMTIH
 70
     1
  9
$DIMTOH
 70
     1
  9
$DIMSE1
 70
     0
  9
$DIMSE2
 70
     0
  9
$DIMTAD
 70
     0
  9
$DIMZIN
 70
     0
  9
$DIMBLK
  1

  9
$DIMASO
 70
     1
  9
$DIMSHO
 70
     1
  9
$DIMPOST
  1

  9
$DIMAPOST
  1

  9
$DIMALT
 70
     0
  9
$DIMALTD
 70
     2
  9
$DIMALTF
 40
25.4
  9
$DIMLFAC
 40
1.0
  9
$DIMTOFL
 70
     0
  9
$DIMTVP
 40
0.0
  9
$DIMTIX
 70
     0
  9
$DIMSOXD
 70
     0
  9
$DIMSAH
 70
     0
  9
$DIMBLK1
  1

  9
$DIMBLK2
  1

  9
$DIMSTYLE
  2
STANDARD
  9
$DIMCLRD
 70
     0
  9
$DIMCLRE
 70
     0
  9
$DIMCLRT
 70
     0
  9
$DIMTFAC
 40
1.0
  9
$DIMGAP
 40
0.09
  9
$DIMJUST
 70
     0
  9
$DIMSD1
 70
     0
  9
$DIMSD2
 70
     0
  9
$DIMTOLJ
 70
     1
  9
$DIMTZIN
 70
     0
  9
$DIMALTZ
 70
     0
  9
$DIMALTTZ
 70
     0
  9
$DIMFIT
 70
     3
  9
$DIMUPT
 70
     0
  9
$DIMUNIT
 70
     2
  9
$DIMDEC
 70
     4
  9
$DIMTDEC
 70
     4
  9
$DIMALTU
 70
     2
  9
$DIMALTTD
 70
     2
  9
$DIMTXSTY
  7
STANDARD
  9
$DIMAUNIT
 70
     0
  9
$LUNITS
 70
     2
  9
$LUPREC
 70
     4
  9
$SKETCHINC
 40
0.1
  9
$FILLETRAD
 40
0.5
  9
$AUNITS
 70
     0
  9
$AUPREC
 70
     0
  9
$MENU
  1
.
  9
$ELEVATION
 40
0.0
  9
$PELEVATION
 40
0.0
  9
$THICKNESS
 40
0.0
  9
$LIMCHECK
 70
     0
  9
$CHAMFERA
 40
0.5
  9
$CHAMFERB
 40
0.5
  9
$CHAMFERC
 40
1.0
  9
$CHAMFERD
 40
0.0
  9
$SKPOLY
 70
     0
  9
$TDCREATE
 40
2457508.888019039
  9
$TDUPDATE
 40
2457508.888019051
  9
$TDINDWG
 40
0.0000000116
  9
$TDUSRTIMER
 40
0.0000000116
  9
$USRTIMER
 70
     1
  9
$ANGBASE
 50
0.0
  9
$ANGDIR
 70
     0
  9
$PDMODE
 70
     0
  9
$PDSIZE
 40
0.0
  9
$PLINEWID
 40
0.0
  9
$COORDS
 70
     1
  9
$SPLFRAME
 70
     0
  9
$SPLINETYPE
 70
     6
  9
$SPLINESEGS
 70
     8
  9
$ATTDIA
 70
     0
  9
$ATTREQ
 70
     1
  9
$HANDLING
 70
     1
  9
$HANDSEED
  5
3A3
  9
$SURFTAB1
 70
     6
  9
$SURFTAB2
 70
     6
  9
$SURFTYPE
 70
     6
  9
$SURFU
 70
     6
  9
$SURFV
 70
     6
  9
$UCSNAME
  2

  9
$UCSORG
 10
0.0
 20
0.0
 30
0.0
  9
$UCSXDIR
 10
1.0
 20
0.0
 30
0.0
  9
$UCSYDIR
 10
0.0
 20
1.0
 30
0.0
  9
$PUCSNAME
  2

  9
$PUCSORG
 10
0.0
 20
0.0
 30
0.0
  9
$PUCSXDIR
 10
1.0
 20
0.0
 30
0.0
  9
$PUCSYDIR
 10
0.0
 20
1.0
 30
0.0
  9
$USERI1
 70
     0
  9
$USERI2
 70
     0
  9
$USERI3
 70
     0
  9
$USERI4
 70
     0
  9
$USERI5
 70
     0
  9
$USERR1
 40
0.0
  9
$USERR2
 40
0.0
  9
$USERR3
 40
0.0
  9
$USERR4
 40
0.0
  9
$USERR5
 40
0.0
  9
$WORLDVIEW
 70
     1
  9
$SHADEDGE
 70
     3
  9
$SHADEDIF
 70
    70
  9
$TILEMODE
 70
     1
  9
$MAXACTVP
 70
    64
  9
$PINSBASE
 10
0.0
 20
0.0
 30
0.0
  9
$PLIMCHECK
 70
     0
  9
$PEXTMIN
 10
1.000000000000000E+20
 20
1.000000000000000E+20
 30
1.000000000000000E+20
  9
$PEXTMAX
 10
-1.000000000000000E+20
 20
-1.000000000000000E+20
 30
-1.000000000000000E+20
  9
$PLIMMIN
 10
0.0
 20
0.0
  9
$PLIMMAX
 10
12.0
 20
9.0
  9
$UNITMODE
 70
     0
  9
$VISRETAIN
 70
     1
  9
$PLINEGEN
 70
     0
  9
$PSLTSCALE
 70
     1
  9
$TREEDEPTH
 70
  3020
  9
$PICKSTYLE
 70
     1
  9
$CMLSTYLE
  2
STANDARD
  9
$CMLJUST
 70
     0
  9
$CMLSCALE
 40
1.0
  9
$SAVEIMAGES
 70
     1
  0
ENDSEC
  0
SECTION
  2
CLASSES
  0
CLASS
  1
ACDBDICTIONARYWDFLT
  2
AcDbDictionaryWithDefault
  3
ObjectDBX Classes
 90
    32768
280
     0
281
     0
  0
CLASS
  1
VISUALSTYLE
  2
AcDbVisualStyle
  3
ObjectDBX Classes
 90
     4095
280
     0
281
     0
  0
CLASS
  1
XRECORD
  2
AcDbXrecord
  3
AutoCAD 2000
 90
    32768
280
     0
281
     0
  0
CLASS
  1
LWPOLYLINE
  2
AcDbPolyline
  3
AutoCAD 2000
 90
    32768
280
     0
281
     1
  0
CLASS
  1
HATCH
  2
AcDbHatch
  3
AutoCAD 2000
 90
    32768
280
     0
281
     1
  0
CLASS
  1
ACDBPLACEHOLDER
  2
AcDbPlaceHolder
  3
ObjectDBX Classes
 90
        0
280
     0
281
     0
  0
CLASS
  1
LAYOUT
  2
AcDbLayout
  3
ObjectDBX Classes
 90
        0
280
     0
281
     0
  0
ENDSEC
  0
SECTION
  2
TABLES
  0
TABLE
  2
VPORT
  5
8
330
0
100
AcDbSymbolTable
 70
     1
  0
VPORT
  5
29
330
8
100
AcDbSymbolTableRecord
100
AcDbViewportTableRecord
  2
*ACTIVE
 70
     0
 10
0.0
 20
0.0
 11
1.0
 21
1.0
 12
0.0
 22
0.0
 13
0.0
 23
0.0
 14
0.5
 24
0.5
 15
0.5
 25
0.5
 16
0.0
 26
0.0
 36
1.0
 17
105.0008259828644
 27
-148.4999796178229
 37
0.0
 40
296.9999592356459
 41
0.7070763662937379
 42
50.0
 43
0.0
 44
0.0
 50
0.0
 51
0.0
 71
     0
 72
   100
 73
     1
 74
     3
 75
     0
 76
     0
 77
     0
 78
     0
  0
ENDTAB
  0
TABLE
  2
LTYPE
  5
5
330
0
100
AcDbSymbolTable
 70
    41
  0
LTYPE
  5
14
330
5
100
AcDbSymbolTableRecord
100
AcDbLinetypeTableRecord
  2
BYBLOCK
 70
     0
  3

 72
    65
 73
     0
 40
0.0
  0
LTYPE
  5
15
330
5
100
AcDbSymbolTableRecord
100
AcDbLinetypeTableRecord
  2
BYLAYER
 70
     0
  3

 72
    65
 73
     0
 40
0.0
  0
LTYPE
  5
16
330
5
100
AcDbSymbolTableRecord
100
AcDbLinetypeTableRecord
  2
CONTINUOUS
 70
     0
  3
Solid line
 72
    65
 73
     0
 40
0.0
  0
LTYPE
  5
AE
330
5
100
AcDbSymbolTableRecord
100
AcDbLinetypeTableRecord
  2
AI-LINETYPE-1
 70
     0
  3
Adobe Illustrator Linetype No. 1
 72
    65
 73
     2
 40
2.822222221516667
 49
1.411111110758333
 74
     0
 49
-1.411111110758333
 74
     0
  0
LTYPE
  5
B7
330
5
100
AcDbSymbolTableRecord
100
AcDbLinetypeTableRecord
  2
AI-LINETYPE-2
 70
     0
  3
Adobe Illustrator Linetype No. 2
 72
    65
 73
     2
 40
2.822222221516667
 49
1.411111110758333
 74
     0
 49
-1.411111110758333
 74
     0
  0
LTYPE
  5
C0
330
5
100
AcDbSymbolTableRecord
100
AcDbLinetypeTableRecord
  2
AI-LINETYPE-3
 70
     0
  3
Adobe Illustrator Linetype No. 3
 72
    65
 73
     2
 40
2.822222221516667
 49
1.411111110758333
 74
     0
 49
-1.411111110758333
 74
     0
  0
LTYPE
  5
C9
330
5
100
AcDbSymbolTableRecord
100
AcDbLinetypeTableRecord
  2
AI-LINETYPE-4
 70
     0
  3
Adobe Illustrator Linetype No. 4
 72
    65
 73
     2
 40
2.822222221516667
 49
1.411111110758333
 74
     0
 49
-1.411111110758333
 74
     0
  0
LTYPE
  5
D2
330
5
100
AcDbSymbolTableRecord
100
AcDbLinetypeTableRecord
  2
AI-LINETYPE-5
 70
     0
  3
Adobe Illustrator Linetype No. 5
 72
    65
 73
     2
 40
2.822222221516667
 49
1.411111110758333
 74
     0
 49
-1.411111110758333
 74
     0
  0
LTYPE
  5
DB
330
5
100
AcDbSymbolTableRecord
100
AcDbLinetypeTableRecord
  2
AI-LINETYPE-6
 70
     0
  3
Adobe Illustrator Linetype No. 6
 72
    65
 73
     2
 40
2.822222221516667
 49
1.411111110758333
 74
     0
 49
-1.411111110758333
 74
     0
  0
LTYPE
  5
E4
330
5
100
AcDbSymbolTableRecord
100
AcDbLinetypeTableRecord
  2
AI-LINETYPE-7
 70
     0
  3
Adobe Illustrator Linetype No. 7
 72
    65
 73
     2
 40
2.822222221516667
 49
1.411111110758333
 74
     0
 49
-1.411111110758333
 74
     0
  0
LTYPE
  5
ED
330
5
100
AcDbSymbolTableRecord
100
AcDbLinetypeTableRecord
  2
AI-LINETYPE-8
 70
     0
  3
Adobe Illustrator Linetype No. 8
 72
    65
 73
     2
 40
2.822222221516667
 49
1.411111110758333
 74
     0
 49
-1.411111110758333
 74
     0
  0
LTYPE
  5
F6
330
5
100
AcDbSymbolTableRecord
100
AcDbLinetypeTableRecord
  2
AI-LINETYPE-9
 70
     0
  3
Adobe Illustrator Linetype No. 9
 72
    65
 73
     2
 40
2.822222221516667
 49
1.411111110758333
 74
     0
 49
-1.411111110758333
 74
     0
  0
LTYPE
  5
FF
330
5
100
AcDbSymbolTableRecord
100
AcDbLinetypeTableRecord
  2
AI-LINETYPE-10
 70
     0
  3
Adobe Illustrator Linetype No. 10
 72
    65
 73
     2
 40
2.822222221516667
 49
1.411111110758333
 74
     0
 49
-1.411111110758333
 74
     0
  0
LTYPE
  5
108
330
5
100
AcDbSymbolTableRecord
100
AcDbLinetypeTableRecord
  2
AI-LINETYPE-11
 70
     0
  3
Adobe Illustrator Linetype No. 11
 72
    65
 73
     2
 40
2.822222221516667
 49
1.411111110758333
 74
     0
 49
-1.411111110758333
 74
     0
  0
LTYPE
  5
111
330
5
100
AcDbSymbolTableRecord
100
AcDbLinetypeTableRecord
  2
AI-LINETYPE-12
 70
     0
  3
Adobe Illustrator Linetype No. 12
 72
    65
 73
     2
 40
2.822222221516667
 49
1.411111110758333
 74
     0
 49
-1.411111110758333
 74
     0
  0
LTYPE
  5
11A
330
5
100
AcDbSymbolTableRecord
100
AcDbLinetypeTableRecord
  2
AI-LINETYPE-13
 70
     0
  3
Adobe Illustrator Linetype No. 13
 72
    65
 73
     2
 40
2.822222221516667
 49
1.411111110758333
 74
     0
 49
-1.411111110758333
 74
     0
  0
LTYPE
  5
123
330
5
100
AcDbSymbolTableRecord
100
AcDbLinetypeTableRecord
  2
AI-LINETYPE-14
 70
     0
  3
Adobe Illustrator Linetype No. 14
 72
    65
 73
     2
 40
2.822222221516667
 49
1.411111110758333
 74
     0
 49
-1.411111110758333
 74
     0
  0
LTYPE
  5
12C
330
5
100
AcDbSymbolTableRecord
100
AcDbLinetypeTableRecord
  2
AI-LINETYPE-15
 70
     0
  3
Adobe Illustrator Linetype No. 15
 72
    65
 73
     2
 40
2.822222221516667
 49
1.411111110758333
 74
     0
 49
-1.411111110758333
 74
     0
  0
LTYPE
  5
135
330
5
100
AcDbSymbolTableRecord
100
AcDbLinetypeTableRecord
  2
AI-LINETYPE-16
 70
     0
  3
Adobe Illustrator Linetype No. 16
 72
    65
 73
     2
 40
2.822222221516667
 49
1.411111110758333
 74
     0
 49
-1.411111110758333
 74
     0
  0
LTYPE
  5
13E
330
5
100
AcDbSymbolTableRecord
100
AcDbLinetypeTableRecord
  2
AI-LINETYPE-17
 70
     0
  3
Adobe Illustrator Linetype No. 17
 72
    65
 73
     2
 40
2.822222221516667
 49
1.411111110758333
 74
     0
 49
-1.411111110758333
 74
     0
  0
LTYPE
  5
147
330
5
100
AcDbSymbolTableRecord
100
AcDbLinetypeTableRecord
  2
AI-LINETYPE-18
 70
     0
  3
Adobe Illustrator Linetype No. 18
 72
    65
 73
     2
 40
2.822222221516667
 49
1.411111110758333
 74
     0
 49
-1.411111110758333
 74
     0
  0
LTYPE
  5
150
330
5
100
AcDbSymbolTableRecord
100
AcDbLinetypeTableRecord
  2
AI-LINETYPE-19
 70
     0
  3
Adobe Illustrator Linetype No. 19
 72
    65
 73
     2
 40
2.822222221516667
 49
1.411111110758333
 74
     0
 49
-1.411111110758333
 74
     0
  0
LTYPE
  5
159
330
5
100
AcDbSymbolTableRecord
100
AcDbLinetypeTableRecord
  2
AI-LINETYPE-20
 70
     0
  3
Adobe Illustrator Linetype No. 20
 72
    65
 73
     2
 40
2.822222221516667
 49
1.411111110758333
 74
     0
 49
-1.411111110758333
 74
     0
  0
LTYPE
  5
162
330
5
100
AcDbSymbolTableRecord
100
AcDbLinetypeTableRecord
  2
AI-LINETYPE-21
 70
     0
  3
Adobe Illustrator Linetype No. 21
 72
    65
 73
     2
 40
2.822222221516667
 49
1.411111110758333
 74
     0
 49
-1.411111110758333
 74
     0
  0
LTYPE
  5
16B
330
5
100
AcDbSymbolTableRecord
100
AcDbLinetypeTableRecord
  2
AI-LINETYPE-22
 70
     0
  3
Adobe Illustrator Linetype No. 22
 72
    65
 73
     2
 40
2.822222221516667
 49
1.411111110758333
 74
     0
 49
-1.411111110758333
 74
     0
  0
LTYPE
  5
174
330
5
100
AcDbSymbolTableRecord
100
AcDbLinetypeTableRecord
  2
AI-LINETYPE-23
 70
     0
  3
Adobe Illustrator Linetype No. 23
 72
    65
 73
     2
 40
2.822222221516667
 49
1.411111110758333
 74
     0
 49
-1.411111110758333
 74
     0
  0
LTYPE
  5
17D
330
5
100
AcDbSymbolTableRecord
100
AcDbLinetypeTableRecord
  2
AI-LINETYPE-24
 70
     0
  3
Adobe Illustrator Linetype No. 24
 72
    65
 73
     2
 40
2.822222221516667
 49
1.411111110758333
 74
     0
 49
-1.411111110758333
 74
     0
  0
LTYPE
  5
186
330
5
100
AcDbSymbolTableRecord
100
AcDbLinetypeTableRecord
  2
AI-LINETYPE-25
 70
     0
  3
Adobe Illustrator Linetype No. 25
 72
    65
 73
     2
 40
2.822222221516667
 49
1.411111110758333
 74
     0
 49
-1.411111110758333
 74
     0
  0
LTYPE
  5
18F
330
5
100
AcDbSymbolTableRecord
100
AcDbLinetypeTableRecord
  2
AI-LINETYPE-26
 70
     0
  3
Adobe Illustrator Linetype No. 26
 72
    65
 73
     2
 40
2.822222221516667
 49
1.411111110758333
 74
     0
 49
-1.411111110758333
 74
     0
  0
LTYPE
  5
198
330
5
100
AcDbSymbolTableRecord
100
AcDbLinetypeTableRecord
  2
AI-LINETYPE-27
 70
     0
  3
Adobe Illustrator Linetype No. 27
 72
    65
 73
     2
 40
2.822222221516667
 49
1.411111110758333
 74
     0
 49
-1.411111110758333
 74
     0
  0
LTYPE
  5
1A1
330
5
100
AcDbSymbolTableRecord
100
AcDbLinetypeTableRecord
  2
AI-LINETYPE-28
 70
     0
  3
Adobe Illustrator Linetype No. 28
 72
    65
 73
     2
 40
2.822222221516667
 49
1.411111110758333
 74
     0
 49
-1.411111110758333
 74
     0
  0
LTYPE
  5
1AA
330
5
100
AcDbSymbolTableRecord
100
AcDbLinetypeTableRecord
  2
AI-LINETYPE-29
 70
     0
  3
Adobe Illustrator Linetype No. 29
 72
    65
 73
     2
 40
2.822222221516667
 49
1.411111110758333
 74
     0
 49
-1.411111110758333
 74
     0
  0
LTYPE
  5
1B3
330
5
100
AcDbSymbolTableRecord
100
AcDbLinetypeTableRecord
  2
AI-LINETYPE-30
 70
     0
  3
Adobe Illustrator Linetype No. 30
 72
    65
 73
     2
 40
2.822222221516667
 49
1.411111110758333
 74
     0
 49
-1.411111110758333
 74
     0
  0
LTYPE
  5
1BC
330
5
100
AcDbSymbolTableRecord
100
AcDbLinetypeTableRecord
  2
AI-LINETYPE-31
 70
     0
  3
Adobe Illustrator Linetype No. 31
 72
    65
 73
     2
 40
2.822222221516667
 49
1.411111110758333
 74
     0
 49
-1.411111110758333
 74
     0
  0
LTYPE
  5
1C5
330
5
100
AcDbSymbolTableRecord
100
AcDbLinetypeTableRecord
  2
AI-LINETYPE-32
 70
     0
  3
Adobe Illustrator Linetype No. 32
 72
    65
 73
     2
 40
2.822222221516667
 49
1.411111110758333
 74
     0
 49
-1.411111110758333
 74
     0
  0
LTYPE
  5
1CE
330
5
100
AcDbSymbolTableRecord
100
AcDbLinetypeTableRecord
  2
AI-LINETYPE-33
 70
     0
  3
Adobe Illustrator Linetype No. 33
 72
    65
 73
     2
 40
2.822222221516667
 49
1.411111110758333
 74
     0
 49
-1.411111110758333
 74
     0
  0
LTYPE
  5
1D7
330
5
100
AcDbSymbolTableRecord
100
AcDbLinetypeTableRecord
  2
AI-LINETYPE-34
 70
     0
  3
Adobe Illustrator Linetype No. 34
 72
    65
 73
     2
 40
2.822222221516667
 49
1.411111110758333
 74
     0
 49
-1.411111110758333
 74
     0
  0
LTYPE
  5
1E0
330
5
100
AcDbSymbolTableRecord
100
AcDbLinetypeTableRecord
  2
AI-LINETYPE-35
 70
     0
  3
Adobe Illustrator Linetype No. 35
 72
    65
 73
     2
 40
2.822222221516667
 49
1.411111110758333
 74
     0
 49
-1.411111110758333
 74
     0
  0
LTYPE
  5
1E9
330
5
100
AcDbSymbolTableRecord
100
AcDbLinetypeTableRecord
  2
AI-LINETYPE-36
 70
     0
  3
Adobe Illustrator Linetype No. 36
 72
    65
 73
     2
 40
2.822222221516667
 49
1.411111110758333
 74
     0
 49
-1.411111110758333
 74
     0
  0
LTYPE
  5
1F2
330
5
100
AcDbSymbolTableRecord
100
AcDbLinetypeTableRecord
  2
AI-LINETYPE-37
 70
     0
  3
Adobe Illustrator Linetype No. 37
 72
    65
 73
     2
 40
2.822222221516667
 49
1.411111110758333
 74
     0
 49
-1.411111110758333
 74
     0
  0
LTYPE
  5
1FB
330
5
100
AcDbSymbolTableRecord
100
AcDbLinetypeTableRecord
  2
AI-LINETYPE-38
 70
     0
  3
Adobe Illustrator Linetype No. 38
 72
    65
 73
     2
 40
2.822222221516667
 49
1.411111110758333
 74
     0
 49
-1.411111110758333
 74
     0
  0
LTYPE
  5
204
330
5
100
AcDbSymbolTableRecord
100
AcDbLinetypeTableRecord
  2
AI-LINETYPE-39
 70
     0
  3
Adobe Illustrator Linetype No. 39
 72
    65
 73
     2
 40
2.822222221516667
 49
1.411111110758333
 74
     0
 49
-1.411111110758333
 74
     0
  0
LTYPE
  5
20D
330
5
100
AcDbSymbolTableRecord
100
AcDbLinetypeTableRecord
  2
AI-LINETYPE-40
 70
     0
  3
Adobe Illustrator Linetype No. 40
 72
    65
 73
     2
 40
2.822222221516667
 49
1.411111110758333
 74
     0
 49
-1.411111110758333
 74
     0
  0
ENDTAB
  0
TABLE
  2
LAYER
  5
2
330
0
100
AcDbSymbolTable
 70
     5
  0
LAYER
  5
10
330
2
100
AcDbSymbolTableRecord
100
AcDbLayerTableRecord
  2
0
 70
     0
 62
     7
  6
CONTINUOUS
  0
LAYER
  5
3B
330
2
100
AcDbSymbolTableRecord
100
AcDbLayerTableRecord
  2
CUTLINE
 70
     0
 62
     7
  6
CONTINUOUS
  0
LAYER
  5
A5
330
2
100
AcDbSymbolTableRecord
100
AcDbLayerTableRecord
  2
VALLEYLINE
 70
     0
 62
     7
  6
CONTINUOUS
  0
LAYER
  5
20E
330
2
100
AcDbSymbolTableRecord
100
AcDbLayerTableRecord
  2
MOUNTAINLINE
 70
     0
 62
     7
  6
CONTINUOUS
  0
LAYER
  5
39F
330
2
100
AcDbSymbolTableRecord
100
AcDbLayerTableRecord
  2
TEXT
 70
     0
 62
     7
  6
CONTINUOUS
  0
ENDTAB
  0
TABLE
  2
STYLE
  5
3
330
0
100
AcDbSymbolTable
 70
     1
  0
STYLE
  5
11
330
3
100
AcDbSymbolTableRecord
100
AcDbTextStyleTableRecord
  2
STANDARD
 70
     0
 40
0.0
 41
1.0
 50
0.0
 71
     0
 42
0.2
  3
txt
  4

  0
ENDTAB
  0
TABLE
  2
VIEW
  5
6
330
0
100
AcDbSymbolTable
 70
     0
  0
ENDTAB
  0
TABLE
  2
UCS
  5
7
330
0
100
AcDbSymbolTable
 70
     0
  0
ENDTAB
  0
TABLE
  2
APPID
  5
9
330
0
100
AcDbSymbolTable
 70
     1
  0
APPID
  5
12
330
9
100
AcDbSymbolTableRecord
100
AcDbRegAppTableRecord
  2
ACAD
 70
     0
  0
ENDTAB
  0
TABLE
  2
DIMSTYLE
  5
A
330
0
100
AcDbSymbolTable
 70
     1
  0
DIMSTYLE
105
27
330
A
100
AcDbSymbolTableRecord
100
AcDbDimStyleTableRecord
  2
STANDARD
 70
     0
  3

  4

  5

  6

  7

 40
1.0
 41
0.18
 42
0.0625
 43
0.38
 44
0.18
 45
0.0
 46
0.0
 47
0.0
 48
0.0
140
0.18
141
0.09
142
0.0
143
25.4
144
1.0
145
0.0
146
1.0
147
0.09
 71
     0
 72
     0
 73
     1
 74
     1
 75
     0
 76
     0
 77
     0
 78
     0
170
     0
171
     2
172
     0
173
     0
174
     0
175
     0
176
     0
177
     0
178
     0
270
     2
271
     4
272
     4
273
     2
274
     2
340
11
275
     0
280
     0
281
     0
282
     0
283
     1
284
     0
285
     0
286
     0
287
     3
288
     0
  0
ENDTAB
  0
TABLE
  2
BLOCK_RECORD
  5
1
330
0
100
AcDbSymbolTable
 70
   101
  0
BLOCK_RECORD
  5
1F
330
1
100
AcDbSymbolTableRecord
100
AcDbBlockTableRecord
  2
*MODEL_SPACE
  0
BLOCK_RECORD
  5
1B
330
1
100
AcDbSymbolTableRecord
100
AcDbBlockTableRecord
  2
*PAPER_SPACE
  0
BLOCK_RECORD
  5
3C
330
1
100
AcDbSymbolTableRecord
100
AcDbBlockTableRecord
  2
BLOCK_2
  0
BLOCK_RECORD
  5
44
330
1
100
AcDbSymbolTableRecord
100
AcDbBlockTableRecord
  2
BLOCK_3
  0
BLOCK_RECORD
  5
4C
330
1
100
AcDbSymbolTableRecord
100
AcDbBlockTableRecord
  2
BLOCK_4
  0
BLOCK_RECORD
  5
54
330
1
100
AcDbSymbolTableRecord
100
AcDbBlockTableRecord
  2
BLOCK_5
  0
BLOCK_RECORD
  5
5D
330
1
100
AcDbSymbolTableRecord
100
AcDbBlockTableRecord
  2
BLOCK_6
  0
BLOCK_RECORD
  5
65
330
1
100
AcDbSymbolTableRecord
100
AcDbBlockTableRecord
  2
BLOCK_7
  0
BLOCK_RECORD
  5
6D
330
1
100
AcDbSymbolTableRecord
100
AcDbBlockTableRecord
  2
BLOCK_8
  0
BLOCK_RECORD
  5
75
330
1
100
AcDbSymbolTableRecord
100
AcDbBlockTableRecord
  2
BLOCK_9
  0
BLOCK_RECORD
  5
7D
330
1
100
AcDbSymbolTableRecord
100
AcDbBlockTableRecord
  2
BLOCK_10
  0
BLOCK_RECORD
  5
85
330
1
100
AcDbSymbolTableRecord
100
AcDbBlockTableRecord
  2
BLOCK_11
  0
BLOCK_RECORD
  5
8D
330
1
100
AcDbSymbolTableRecord
100
AcDbBlockTableRecord
  2
BLOCK_12
  0
BLOCK_RECORD
  5
95
330
1
100
AcDbSymbolTableRecord
100
AcDbBlockTableRecord
  2
BLOCK_13
  0
BLOCK_RECORD
  5
9D
330
1
100
AcDbSymbolTableRecord
100
AcDbBlockTableRecord
  2
BLOCK_14
  0
BLOCK_RECORD
  5
A6
330
1
100
AcDbSymbolTableRecord
100
AcDbBlockTableRecord
  2
BLOCK_15
  0
BLOCK_RECORD
  5
AF
330
1
100
AcDbSymbolTableRecord
100
AcDbBlockTableRecord
  2
BLOCK_16
  0
BLOCK_RECORD
  5
B8
330
1
100
AcDbSymbolTableRecord
100
AcDbBlockTableRecord
  2
BLOCK_17
  0
BLOCK_RECORD
  5
C1
330
1
100
AcDbSymbolTableRecord
100
AcDbBlockTableRecord
  2
BLOCK_18
  0
BLOCK_RECORD
  5
CA
330
1
100
AcDbSymbolTableRecord
100
AcDbBlockTableRecord
  2
BLOCK_19
  0
BLOCK_RECORD
  5
D3
330
1
100
AcDbSymbolTableRecord
100
AcDbBlockTableRecord
  2
BLOCK_20
  0
BLOCK_RECORD
  5
DC
330
1
100
AcDbSymbolTableRecord
100
AcDbBlockTableRecord
  2
BLOCK_21
  0
BLOCK_RECORD
  5
E5
330
1
100
AcDbSymbolTableRecord
100
AcDbBlockTableRecord
  2
BLOCK_22
  0
BLOCK_RECORD
  5
EE
330
1
100
AcDbSymbolTableRecord
100
AcDbBlockTableRecord
  2
BLOCK_23
  0
BLOCK_RECORD
  5
F7
330
1
100
AcDbSymbolTableRecord
100
AcDbBlockTableRecord
  2
BLOCK_24
  0
BLOCK_RECORD
  5
100
330
1
100
AcDbSymbolTableRecord
100
AcDbBlockTableRecord
  2
BLOCK_25
  0
BLOCK_RECORD
  5
109
330
1
100
AcDbSymbolTableRecord
100
AcDbBlockTableRecord
  2
BLOCK_26
  0
BLOCK_RECORD
  5
112
330
1
100
AcDbSymbolTableRecord
100
AcDbBlockTableRecord
  2
BLOCK_27
  0
BLOCK_RECORD
  5
11B
330
1
100
AcDbSymbolTableRecord
100
AcDbBlockTableRecord
  2
BLOCK_28
  0
BLOCK_RECORD
  5
124
330
1
100
AcDbSymbolTableRecord
100
AcDbBlockTableRecord
  2
BLOCK_29
  0
BLOCK_RECORD
  5
12D
330
1
100
AcDbSymbolTableRecord
100
AcDbBlockTableRecord
  2
BLOCK_30
  0
BLOCK_RECORD
  5
136
330
1
100
AcDbSymbolTableRecord
100
AcDbBlockTableRecord
  2
BLOCK_31
  0
BLOCK_RECORD
  5
13F
330
1
100
AcDbSymbolTableRecord
100
AcDbBlockTableRecord
  2
BLOCK_32
  0
BLOCK_RECORD
  5
148
330
1
100
AcDbSymbolTableRecord
100
AcDbBlockTableRecord
  2
BLOCK_33
  0
BLOCK_RECORD
  5
151
330
1
100
AcDbSymbolTableRecord
100
AcDbBlockTableRecord
  2
BLOCK_34
  0
BLOCK_RECORD
  5
15A
330
1
100
AcDbSymbolTableRecord
100
AcDbBlockTableRecord
  2
BLOCK_35
  0
BLOCK_RECORD
  5
163
330
1
100
AcDbSymbolTableRecord
100
AcDbBlockTableRecord
  2
BLOCK_36
  0
BLOCK_RECORD
  5
16C
330
1
100
AcDbSymbolTableRecord
100
AcDbBlockTableRecord
  2
BLOCK_37
  0
BLOCK_RECORD
  5
175
330
1
100
AcDbSymbolTableRecord
100
AcDbBlockTableRecord
  2
BLOCK_38
  0
BLOCK_RECORD
  5
17E
330
1
100
AcDbSymbolTableRecord
100
AcDbBlockTableRecord
  2
BLOCK_39
  0
BLOCK_RECORD
  5
187
330
1
100
AcDbSymbolTableRecord
100
AcDbBlockTableRecord
  2
BLOCK_40
  0
BLOCK_RECORD
  5
190
330
1
100
AcDbSymbolTableRecord
100
AcDbBlockTableRecord
  2
BLOCK_41
  0
BLOCK_RECORD
  5
199
330
1
100
AcDbSymbolTableRecord
100
AcDbBlockTableRecord
  2
BLOCK_42
  0
BLOCK_RECORD
  5
1A2
330
1
100
AcDbSymbolTableRecord
100
AcDbBlockTableRecord
  2
BLOCK_43
  0
BLOCK_RECORD
  5
1AB
330
1
100
AcDbSymbolTableRecord
100
AcDbBlockTableRecord
  2
BLOCK_44
  0
BLOCK_RECORD
  5
1B4
330
1
100
AcDbSymbolTableRecord
100
AcDbBlockTableRecord
  2
BLOCK_45
  0
BLOCK_RECORD
  5
1BD
330
1
100
AcDbSymbolTableRecord
100
AcDbBlockTableRecord
  2
BLOCK_46
  0
BLOCK_RECORD
  5
1C6
330
1
100
AcDbSymbolTableRecord
100
AcDbBlockTableRecord
  2
BLOCK_47
  0
BLOCK_RECORD
  5
1CF
330
1
100
AcDbSymbolTableRecord
100
AcDbBlockTableRecord
  2
BLOCK_48
  0
BLOCK_RECORD
  5
1D8
330
1
100
AcDbSymbolTableRecord
100
AcDbBlockTableRecord
  2
BLOCK_49
  0
BLOCK_RECORD
  5
1E1
330
1
100
AcDbSymbolTableRecord
100
AcDbBlockTableRecord
  2
BLOCK_50
  0
BLOCK_RECORD
  5
1EA
330
1
100
AcDbSymbolTableRecord
100
AcDbBlockTableRecord
  2
BLOCK_51
  0
BLOCK_RECORD
  5
1F3
330
1
100
AcDbSymbolTableRecord
100
AcDbBlockTableRecord
  2
BLOCK_52
  0
BLOCK_RECORD
  5
1FC
330
1
100
AcDbSymbolTableRecord
100
AcDbBlockTableRecord
  2
BLOCK_53
  0
BLOCK_RECORD
  5
205
330
1
100
AcDbSymbolTableRecord
100
AcDbBlockTableRecord
  2
BLOCK_54
  0
BLOCK_RECORD
  5
20F
330
1
100
AcDbSymbolTableRecord
100
AcDbBlockTableRecord
  2
BLOCK_55
  0
BLOCK_RECORD
  5
217
330
1
100
AcDbSymbolTableRecord
100
AcDbBlockTableRecord
  2
BLOCK_56
  0
BLOCK_RECORD
  5
21F
330
1
100
AcDbSymbolTableRecord
100
AcDbBlockTableRecord
  2
BLOCK_57
  0
BLOCK_RECORD
  5
227
330
1
100
AcDbSymbolTableRecord
100
AcDbBlockTableRecord
  2
BLOCK_58
  0
BLOCK_RECORD
  5
22F
330
1
100
AcDbSymbolTableRecord
100
AcDbBlockTableRecord
  2
BLOCK_59
  0
BLOCK_RECORD
  5
237
330
1
100
AcDbSymbolTableRecord
100
AcDbBlockTableRecord
  2
BLOCK_60
  0
BLOCK_RECORD
  5
23F
330
1
100
AcDbSymbolTableRecord
100
AcDbBlockTableRecord
  2
BLOCK_61
  0
BLOCK_RECORD
  5
247
330
1
100
AcDbSymbolTableRecord
100
AcDbBlockTableRecord
  2
BLOCK_62
  0
BLOCK_RECORD
  5
24F
330
1
100
AcDbSymbolTableRecord
100
AcDbBlockTableRecord
  2
BLOCK_63
  0
BLOCK_RECORD
  5
257
330
1
100
AcDbSymbolTableRecord
100
AcDbBlockTableRecord
  2
BLOCK_64
  0
BLOCK_RECORD
  5
25F
330
1
100
AcDbSymbolTableRecord
100
AcDbBlockTableRecord
  2
BLOCK_65
  0
BLOCK_RECORD
  5
267
330
1
100
AcDbSymbolTableRecord
100
AcDbBlockTableRecord
  2
BLOCK_66
  0
BLOCK_RECORD
  5
26F
330
1
100
AcDbSymbolTableRecord
100
AcDbBlockTableRecord
  2
BLOCK_67
  0
BLOCK_RECORD
  5
277
330
1
100
AcDbSymbolTableRecord
100
AcDbBlockTableRecord
  2
BLOCK_68
  0
BLOCK_RECORD
  5
27F
330
1
100
AcDbSymbolTableRecord
100
AcDbBlockTableRecord
  2
BLOCK_69
  0
BLOCK_RECORD
  5
287
330
1
100
AcDbSymbolTableRecord
100
AcDbBlockTableRecord
  2
BLOCK_70
  0
BLOCK_RECORD
  5
28F
330
1
100
AcDbSymbolTableRecord
100
AcDbBlockTableRecord
  2
BLOCK_71
  0
BLOCK_RECORD
  5
297
330
1
100
AcDbSymbolTableRecord
100
AcDbBlockTableRecord
  2
BLOCK_72
  0
BLOCK_RECORD
  5
29F
330
1
100
AcDbSymbolTableRecord
100
AcDbBlockTableRecord
  2
BLOCK_73
  0
BLOCK_RECORD
  5
2A7
330
1
100
AcDbSymbolTableRecord
100
AcDbBlockTableRecord
  2
BLOCK_74
  0
BLOCK_RECORD
  5
2AF
330
1
100
AcDbSymbolTableRecord
100
AcDbBlockTableRecord
  2
BLOCK_75
  0
BLOCK_RECORD
  5
2B7
330
1
100
AcDbSymbolTableRecord
100
AcDbBlockTableRecord
  2
BLOCK_76
  0
BLOCK_RECORD
  5
2BF
330
1
100
AcDbSymbolTableRecord
100
AcDbBlockTableRecord
  2
BLOCK_77
  0
BLOCK_RECORD
  5
2C7
330
1
100
AcDbSymbolTableRecord
100
AcDbBlockTableRecord
  2
BLOCK_78
  0
BLOCK_RECORD
  5
2CF
330
1
100
AcDbSymbolTableRecord
100
AcDbBlockTableRecord
  2
BLOCK_79
  0
BLOCK_RECORD
  5
2D7
330
1
100
AcDbSymbolTableRecord
100
AcDbBlockTableRecord
  2
BLOCK_80
  0
BLOCK_RECORD
  5
2DF
330
1
100
AcDbSymbolTableRecord
100
AcDbBlockTableRecord
  2
BLOCK_81
  0
BLOCK_RECORD
  5
2E7
330
1
100
AcDbSymbolTableRecord
100
AcDbBlockTableRecord
  2
BLOCK_82
  0
BLOCK_RECORD
  5
2EF
330
1
100
AcDbSymbolTableRecord
100
AcDbBlockTableRecord
  2
BLOCK_83
  0
BLOCK_RECORD
  5
2F7
330
1
100
AcDbSymbolTableRecord
100
AcDbBlockTableRecord
  2
BLOCK_84
  0
BLOCK_RECORD
  5
2FF
330
1
100
AcDbSymbolTableRecord
100
AcDbBlockTableRecord
  2
BLOCK_85
  0
BLOCK_RECORD
  5
307
330
1
100
AcDbSymbolTableRecord
100
AcDbBlockTableRecord
  2
BLOCK_86
  0
BLOCK_RECORD
  5
30F
330
1
100
AcDbSymbolTableRecord
100
AcDbBlockTableRecord
  2
BLOCK_87
  0
BLOCK_RECORD
  5
317
330
1
100
AcDbSymbolTableRecord
100
AcDbBlockTableRecord
  2
BLOCK_88
  0
BLOCK_RECORD
  5
31F
330
1
100
AcDbSymbolTableRecord
100
AcDbBlockTableRecord
  2
BLOCK_89
  0
BLOCK_RECORD
  5
327
330
1
100
AcDbSymbolTableRecord
100
AcDbBlockTableRecord
  2
BLOCK_90
  0
BLOCK_RECORD
  5
32F
330
1
100
AcDbSymbolTableRecord
100
AcDbBlockTableRecord
  2
BLOCK_91
  0
BLOCK_RECORD
  5
337
330
1
100
AcDbSymbolTableRecord
100
AcDbBlockTableRecord
  2
BLOCK_92
  0
BLOCK_RECORD
  5
33F
330
1
100
AcDbSymbolTableRecord
100
AcDbBlockTableRecord
  2
BLOCK_93
  0
BLOCK_RECORD
  5
347
330
1
100
AcDbSymbolTableRecord
100
AcDbBlockTableRecord
  2
BLOCK_94
  0
BLOCK_RECORD
  5
34F
330
1
100
AcDbSymbolTableRecord
100
AcDbBlockTableRecord
  2
BLOCK_95
  0
BLOCK_RECORD
  5
357
330
1
100
AcDbSymbolTableRecord
100
AcDbBlockTableRecord
  2
BLOCK_96
  0
BLOCK_RECORD
  5
35F
330
1
100
AcDbSymbolTableRecord
100
AcDbBlockTableRecord
  2
BLOCK_97
  0
BLOCK_RECORD
  5
367
330
1
100
AcDbSymbolTableRecord
100
AcDbBlockTableRecord
  2
BLOCK_98
  0
BLOCK_RECORD
  5
36F
330
1
100
AcDbSymbolTableRecord
100
AcDbBlockTableRecord
  2
BLOCK_99
  0
BLOCK_RECORD
  5
377
330
1
100
AcDbSymbolTableRecord
100
AcDbBlockTableRecord
  2
BLOCK_100
  0
BLOCK_RECORD
  5
37F
330
1
100
AcDbSymbolTableRecord
100
AcDbBlockTableRecord
  2
BLOCK_101
  0
ENDTAB
  0
ENDSEC
  0
SECTION
  2
BLOCKS
  0
BLOCK
  5
20
330
1F
100
AcDbEntity
  8
0
100
AcDbBlockBegin
  2
*MODEL_SPACE
 70
     0
 71
     0
 10
0.0
 20
0.0
 30
0.0
  3
*MODEL_SPACE
  1

  0
ENDBLK
  5
21
330
1F
100
AcDbEntity
  8
0
100
AcDbBlockEnd
  0
BLOCK
  5
1C
330
1B
100
AcDbEntity
 67
     1
  8
0
100
AcDbBlockBegin
  2
*PAPER_SPACE
 70
     0
 71
     0
 10
0.0
 20
0.0
 30
0.0
  3
*PAPER_SPACE
  1

  0
ENDBLK
  5
1D
330
1B
100
AcDbEntity
 67
     1
  8
0
100
AcDbBlockEnd
  0
BLOCK
  5
3E
330
3C
100
AcDbEntity
  8
0
100
AcDbBlockBegin
  2
BLOCK_2
 70
     0
 71
     0
 10
0.0
 20
0.0
 30
0.0
  3
BLOCK_2
  1

  0
POLYLINE
  5
40
330
3C
100
AcDbEntity
  8
CUTLINE
 62
     7
100
AcDb2dPolyline
 66
     1
 10
0.0
 20
0.0
 30
0.0
  0
VERTEX
  5
41
330
40
100
AcDbEntity
  8
CUTLINE
 62
     7
100
AcDbVertex
100
AcDb2dVertex
 10
70.70662297494488
 20
-116.6969251552876
 30
0.0
  0
VERTEX
  5
42
330
40
100
AcDbEntity
  8
CUTLINE
 62
     7
100
AcDbVertex
100
AcDb2dVertex
 10
70.70662297494488
 20
-158.5873914534087
 30
0.0
  0
SEQEND
  5
43
330
40
100
AcDbEntity
  8
CUTLINE
  0
ENDBLK
  5
3F
330
3C
100
AcDbEntity
  8
0
100
AcDbBlockEnd
  0
BLOCK
  5
46
330
44
100
AcDbEntity
  8
0
100
AcDbBlockBegin
  2
BLOCK_3
 70
     0
 71
     0
 10
0.0
 20
0.0
 30
0.0
  3
BLOCK_3
  1

  0
POLYLINE
  5
48
330
44
100
AcDbEntity
  8
CUTLINE
 62
     7
100
AcDb2dPolyline
 66
     1
 10
0.0
 20
0.0
 30
0.0
  0
VERTEX
  5
49
330
48
100
AcDbEntity
  8
CUTLINE
 62
     7
100
AcDbVertex
100
AcDb2dVertex
 10
70.70662297494488
 20
-74.80697562148923
 30
0.0
  0
VERTEX
  5
4A
330
48
100
AcDbEntity
  8
CUTLINE
 62
     7
100
AcDbVertex
100
AcDb2dVertex
 10
70.70662297494488
 20
-116.6969251552876
 30
0.0
  0
SEQEND
  5
4B
330
48
100
AcDbEntity
  8
CUTLINE
  0
ENDBLK
  5
47
330
44
100
AcDbEntity
  8
0
100
AcDbBlockEnd
  0
BLOCK
  5
4E
330
4C
100
AcDbEntity
  8
0
100
AcDbBlockBegin
  2
BLOCK_4
 70
     0
 71
     0
 10
0.0
 20
0.0
 30
0.0
  3
BLOCK_4
  1

  0
POLYLINE
  5
50
330
4C
100
AcDbEntity
  8
CUTLINE
 62
     7
100
AcDb2dPolyline
 66
     1
 10
0.0
 20
0.0
 30
0.0
  0
VERTEX
  5
51
330
50
100
AcDbEntity
  8
CUTLINE
 62
     7
100
AcDbVertex
100
AcDb2dVertex
 10
70.70662297494488
 20
-32.9165093233681
 30
0.0
  0
VERTEX
  5
52
330
50
100
AcDbEntity
  8
CUTLINE
 62
     7
100
AcDbVertex
100
AcDb2dVertex
 10
70.70662297494488
 20
-74.80697562148923
 30
0.0
  0
SEQEND
  5
53
330
50
100
AcDbEntity
  8
CUTLINE
  0
ENDBLK
  5
4F
330
4C
100
AcDbEntity
  8
0
100
AcDbBlockEnd
  0
BLOCK
  5
56
330
54
100
AcDbEntity
  8
0
100
AcDbBlockBegin
  2
BLOCK_5
 70
     0
 71
     0
 10
0.0
 20
0.0
 30
0.0
  3
BLOCK_5
  1

  0
POLYLINE
  5
58
330
54
100
AcDbEntity
  8
CUTLINE
 62
     7
100
AcDb2dPolyline
 66
     1
 10
0.0
 20
0.0
 30
0.0
  0
VERTEX
  5
59
330
58
100
AcDbEntity
  8
CUTLINE
 62
     7
100
AcDbVertex
100
AcDb2dVertex
 10
70.70662297494488
 20
-242.3679795401025
 30
0.0
  0
VERTEX
  5
5A
330
58
100
AcDbEntity
  8
CUTLINE
 62
     7
100
AcDbVertex
100
AcDb2dVertex
 10
70.70662297494488
 20
-284.2582735834494
 30
0.0
  0
VERTEX
  5
5B
330
58
100
AcDbEntity
  8
CUTLINE
 62
     7
100
AcDbVertex
100
AcDb2dVertex
 10
128.9740396812982
 20
-284.2582735834494
 30
0.0
  0
SEQEND
  5
5C
330
58
100
AcDbEntity
  8
CUTLINE
  0
ENDBLK
  5
57
330
54
100
AcDbEntity
  8
0
100
AcDbBlockEnd
  0
BLOCK
  5
5F
330
5D
100
AcDbEntity
  8
0
100
AcDbBlockBegin
  2
BLOCK_6
 70
     0
 71
     0
 10
0.0
 20
0.0
 30
0.0
  3
BLOCK_6
  1

  0
POLYLINE
  5
61
330
5D
100
AcDbEntity
  8
CUTLINE
 62
     7
100
AcDb2dPolyline
 66
     1
 10
0.0
 20
0.0
 30
0.0
  0
VERTEX
  5
62
330
61
100
AcDbEntity
  8
CUTLINE
 62
     7
100
AcDbVertex
100
AcDb2dVertex
 10
70.70662297494488
 20
-200.4769964776585
 30
0.0
  0
VERTEX
  5
63
330
61
100
AcDbEntity
  8
CUTLINE
 62
     7
100
AcDbVertex
100
AcDb2dVertex
 10
70.70662297494488
 20
-242.3679795401025
 30
0.0
  0
SEQEND
  5
64
330
61
100
AcDbEntity
  8
CUTLINE
  0
ENDBLK
  5
60
330
5D
100
AcDbEntity
  8
0
100
AcDbBlockEnd
  0
BLOCK
  5
67
330
65
100
AcDbEntity
  8
0
100
AcDbBlockBegin
  2
BLOCK_7
 70
     0
 71
     0
 10
0.0
 20
0.0
 30
0.0
  3
BLOCK_7
  1

  0
POLYLINE
  5
69
330
65
100
AcDbEntity
  8
CUTLINE
 62
     7
100
AcDb2dPolyline
 66
     1
 10
0.0
 20
0.0
 30
0.0
  0
VERTEX
  5
6A
330
69
100
AcDbEntity
  8
CUTLINE
 62
     7
100
AcDbVertex
100
AcDb2dVertex
 10
70.70662297494488
 20
-158.5873914534087
 30
0.0
  0
VERTEX
  5
6B
330
69
100
AcDbEntity
  8
CUTLINE
 62
     7
100
AcDbVertex
100
AcDb2dVertex
 10
70.70662297494488
 20
-200.4769964776585
 30
0.0
  0
SEQEND
  5
6C
330
69
100
AcDbEntity
  8
CUTLINE
  0
ENDBLK
  5
68
330
65
100
AcDbEntity
  8
0
100
AcDbBlockEnd
  0
BLOCK
  5
6F
330
6D
100
AcDbEntity
  8
0
100
AcDbBlockBegin
  2
BLOCK_8
 70
     0
 71
     0
 10
0.0
 20
0.0
 30
0.0
  3
BLOCK_8
  1

  0
POLYLINE
  5
71
330
6D
100
AcDbEntity
  8
CUTLINE
 62
     7
100
AcDb2dPolyline
 66
     1
 10
0.0
 20
0.0
 30
0.0
  0
VERTEX
  5
72
330
71
100
AcDbEntity
  8
CUTLINE
 62
     7
100
AcDbVertex
100
AcDb2dVertex
 10
128.9740396812982
 20
-116.6969251552876
 30
0.0
  0
VERTEX
  5
73
330
71
100
AcDbEntity
  8
CUTLINE
 62
     7
100
AcDbVertex
100
AcDb2dVertex
 10
128.9740396812982
 20
-158.5873914534087
 30
0.0
  0
SEQEND
  5
74
330
71
100
AcDbEntity
  8
CUTLINE
  0
ENDBLK
  5
70
330
6D
100
AcDbEntity
  8
0
100
AcDbBlockEnd
  0
BLOCK
  5
77
330
75
100
AcDbEntity
  8
0
100
AcDbBlockBegin
  2
BLOCK_9
 70
     0
 71
     0
 10
0.0
 20
0.0
 30
0.0
  3
BLOCK_9
  1

  0
POLYLINE
  5
79
330
75
100
AcDbEntity
  8
CUTLINE
 62
     7
100
AcDb2dPolyline
 66
     1
 10
0.0
 20
0.0
 30
0.0
  0
VERTEX
  5
7A
330
79
100
AcDbEntity
  8
CUTLINE
 62
     7
100
AcDbVertex
100
AcDb2dVertex
 10
128.9740396812982
 20
-74.80697562148923
 30
0.0
  0
VERTEX
  5
7B
330
79
100
AcDbEntity
  8
CUTLINE
 62
     7
100
AcDbVertex
100
AcDb2dVertex
 10
128.9740396812982
 20
-116.6969251552876
 30
0.0
  0
SEQEND
  5
7C
330
79
100
AcDbEntity
  8
CUTLINE
  0
ENDBLK
  5
78
330
75
100
AcDbEntity
  8
0
100
AcDbBlockEnd
  0
BLOCK
  5
7F
330
7D
100
AcDbEntity
  8
0
100
AcDbBlockBegin
  2
BLOCK_10
 70
     0
 71
     0
 10
0.0
 20
0.0
 30
0.0
  3
BLOCK_10
  1

  0
POLYLINE
  5
81
330
7D
100
AcDbEntity
  8
CUTLINE
 62
     7
100
AcDb2dPolyline
 66
     1
 10
0.0
 20
0.0
 30
0.0
  0
VERTEX
  5
82
330
81
100
AcDbEntity
  8
CUTLINE
 62
     7
100
AcDbVertex
100
AcDb2dVertex
 10
128.9740396812982
 20
-32.9165093233681
 30
0.0
  0
VERTEX
  5
83
330
81
100
AcDbEntity
  8
CUTLINE
 62
     7
100
AcDbVertex
100
AcDb2dVertex
 10
128.9740396812982
 20
-74.80697562148923
 30
0.0
  0
SEQEND
  5
84
330
81
100
AcDbEntity
  8
CUTLINE
  0
ENDBLK
  5
80
330
7D
100
AcDbEntity
  8
0
100
AcDbBlockEnd
  0
BLOCK
  5
87
330
85
100
AcDbEntity
  8
0
100
AcDbBlockBegin
  2
BLOCK_11
 70
     0
 71
     0
 10
0.0
 20
0.0
 30
0.0
  3
BLOCK_11
  1

  0
POLYLINE
  5
89
330
85
100
AcDbEntity
  8
CUTLINE
 62
     7
100
AcDb2dPolyline
 66
     1
 10
0.0
 20
0.0
 30
0.0
  0
VERTEX
  5
8A
330
89
100
AcDbEntity
  8
CUTLINE
 62
     7
100
AcDbVertex
100
AcDb2dVertex
 10
128.9740396812982
 20
-242.3679795401025
 30
0.0
  0
VERTEX
  5
8B
330
89
100
AcDbEntity
  8
CUTLINE
 62
     7
100
AcDbVertex
100
AcDb2dVertex
 10
128.9740396812982
 20
-284.2582735834494
 30
0.0
  0
SEQEND
  5
8C
330
89
100
AcDbEntity
  8
CUTLINE
  0
ENDBLK
  5
88
330
85
100
AcDbEntity
  8
0
100
AcDbBlockEnd
  0
BLOCK
  5
8F
330
8D
100
AcDbEntity
  8
0
100
AcDbBlockBegin
  2
BLOCK_12
 70
     0
 71
     0
 10
0.0
 20
0.0
 30
0.0
  3
BLOCK_12
  1

  0
POLYLINE
  5
91
330
8D
100
AcDbEntity
  8
CUTLINE
 62
     7
100
AcDb2dPolyline
 66
     1
 10
0.0
 20
0.0
 30
0.0
  0
VERTEX
  5
92
330
91
100
AcDbEntity
  8
CUTLINE
 62
     7
100
AcDbVertex
100
AcDb2dVertex
 10
128.9740396812982
 20
-200.4769964776585
 30
0.0
  0
VERTEX
  5
93
330
91
100
AcDbEntity
  8
CUTLINE
 62
     7
100
AcDbVertex
100
AcDb2dVertex
 10
128.9740396812982
 20
-242.3679795401025
 30
0.0
  0
SEQEND
  5
94
330
91
100
AcDbEntity
  8
CUTLINE
  0
ENDBLK
  5
90
330
8D
100
AcDbEntity
  8
0
100
AcDbBlockEnd
  0
BLOCK
  5
97
330
95
100
AcDbEntity
  8
0
100
AcDbBlockBegin
  2
BLOCK_13
 70
     0
 71
     0
 10
0.0
 20
0.0
 30
0.0
  3
BLOCK_13
  1

  0
POLYLINE
  5
99
330
95
100
AcDbEntity
  8
CUTLINE
 62
     7
100
AcDb2dPolyline
 66
     1
 10
0.0
 20
0.0
 30
0.0
  0
VERTEX
  5
9A
330
99
100
AcDbEntity
  8
CUTLINE
 62
     7
100
AcDbVertex
100
AcDb2dVertex
 10
128.9740396812982
 20
-158.5873914534087
 30
0.0
  0
VERTEX
  5
9B
330
99
100
AcDbEntity
  8
CUTLINE
 62
     7
100
AcDbVertex
100
AcDb2dVertex
 10
128.9740396812982
 20
-200.4769964776585
 30
0.0
  0
SEQEND
  5
9C
330
99
100
AcDbEntity
  8
CUTLINE
  0
ENDBLK
  5
98
330
95
100
AcDbEntity
  8
0
100
AcDbBlockEnd
  0
BLOCK
  5
9F
330
9D
100
AcDbEntity
  8
0
100
AcDbBlockBegin
  2
BLOCK_14
 70
     0
 71
     0
 10
0.0
 20
0.0
 30
0.0
  3
BLOCK_14
  1

  0
POLYLINE
  5
A1
330
9D
100
AcDbEntity
  8
CUTLINE
 62
     7
100
AcDb2dPolyline
 66
     1
 10
0.0
 20
0.0
 30
0.0
  0
VERTEX
  5
A2
330
A1
100
AcDbEntity
  8
CUTLINE
 62
     7
100
AcDbVertex
100
AcDb2dVertex
 10
128.9740396812982
 20
-32.9165093233681
 30
0.0
  0
VERTEX
  5
A3
330
A1
100
AcDbEntity
  8
CUTLINE
 62
     7
100
AcDbVertex
100
AcDb2dVertex
 10
70.70662297494488
 20
-32.9165093233681
 30
0.0
  0
SEQEND
  5
A4
330
A1
100
AcDbEntity
  8
CUTLINE
  0
ENDBLK
  5
A0
330
9D
100
AcDbEntity
  8
0
100
AcDbBlockEnd
  0
BLOCK
  5
A8
330
A6
100
AcDbEntity
  8
0
100
AcDbBlockBegin
  2
BLOCK_15
 70
     0
 71
     0
 10
0.0
 20
0.0
 30
0.0
  3
BLOCK_15
  1

  0
POLYLINE
  5
AA
330
A6
100
AcDbEntity
  8
VALLEYLINE
  6
AI-LINETYPE-1
 62
     7
100
AcDb2dPolyline
 66
     1
 10
0.0
 20
0.0
 30
0.0
  0
VERTEX
  5
AB
330
AA
100
AcDbEntity
  8
VALLEYLINE
  6
AI-LINETYPE-1
 62
     7
100
AcDbVertex
100
AcDb2dVertex
 10
75.93627792155412
 20
-32.9165093233681
 30
0.0
  0
VERTEX
  5
AC
330
AA
100
AcDbEntity
  8
VALLEYLINE
  6
AI-LINETYPE-1
 62
     7
100
AcDbVertex
100
AcDb2dVertex
 10
75.93627792155412
 20
-74.80697562148923
 30
0.0
  0
SEQEND
  5
AD
330
AA
100
AcDbEntity
  8
VALLEYLINE
  6
AI-LINETYPE-1
  0
ENDBLK
  5
A9
330
A6
100
AcDbEntity
  8
0
100
AcDbBlockEnd
  0
BLOCK
  5
B1
330
AF
100
AcDbEntity
  8
0
100
AcDbBlockBegin
  2
BLOCK_16
 70
     0
 71
     0
 10
0.0
 20
0.0
 30
0.0
  3
BLOCK_16
  1

  0
POLYLINE
  5
B3
330
AF
100
AcDbEntity
  8
VALLEYLINE
  6
AI-LINETYPE-2
 62
     7
100
AcDb2dPolyline
 66
     1
 10
0.0
 20
0.0
 30
0.0
  0
VERTEX
  5
B4
330
B3
100
AcDbEntity
  8
VALLEYLINE
  6
AI-LINETYPE-2
 62
     7
100
AcDbVertex
100
AcDb2dVertex
 10
88.43784041842873
 20
-137.6424166865095
 30
0.0
  0
VERTEX
  5
B5
330
B3
100
AcDbEntity
  8
VALLEYLINE
  6
AI-LINETYPE-2
 62
     7
100
AcDbVertex
100
AcDb2dVertex
 10
88.43784041842873
 20
-158.5873914534087
 30
0.0
  0
SEQEND
  5
B6
330
B3
100
AcDbEntity
  8
VALLEYLINE
  6
AI-LINETYPE-2
  0
ENDBLK
  5
B2
330
AF
100
AcDbEntity
  8
0
100
AcDbBlockEnd
  0
BLOCK
  5
BA
330
B8
100
AcDbEntity
  8
0
100
AcDbBlockBegin
  2
BLOCK_17
 70
     0
 71
     0
 10
0.0
 20
0.0
 30
0.0
  3
BLOCK_17
  1

  0
POLYLINE
  5
BC
330
B8
100
AcDbEntity
  8
VALLEYLINE
  6
AI-LINETYPE-3
 62
     7
100
AcDb2dPolyline
 66
     1
 10
0.0
 20
0.0
 30
0.0
  0
VERTEX
  5
BD
330
BC
100
AcDbEntity
  8
VALLEYLINE
  6
AI-LINETYPE-3
 62
     7
100
AcDbVertex
100
AcDb2dVertex
 10
88.43784041842873
 20
-158.5873914534087
 30
0.0
  0
VERTEX
  5
BE
330
BC
100
AcDbEntity
  8
VALLEYLINE
  6
AI-LINETYPE-3
 62
     7
100
AcDbVertex
100
AcDb2dVertex
 10
88.43784041842873
 20
-179.5321939655336
 30
0.0
  0
SEQEND
  5
BF
330
BC
100
AcDbEntity
  8
VALLEYLINE
  6
AI-LINETYPE-3
  0
ENDBLK
  5
BB
330
B8
100
AcDbEntity
  8
0
100
AcDbBlockEnd
  0
BLOCK
  5
C3
330
C1
100
AcDbEntity
  8
0
100
AcDbBlockBegin
  2
BLOCK_18
 70
     0
 71
     0
 10
0.0
 20
0.0
 30
0.0
  3
BLOCK_18
  1

  0
POLYLINE
  5
C5
330
C1
100
AcDbEntity
  8
VALLEYLINE
  6
AI-LINETYPE-4
 62
     7
100
AcDb2dPolyline
 66
     1
 10
0.0
 20
0.0
 30
0.0
  0
VERTEX
  5
C6
330
C5
100
AcDbEntity
  8
VALLEYLINE
  6
AI-LINETYPE-4
 62
     7
100
AcDbVertex
100
AcDb2dVertex
 10
75.93627792155412
 20
-116.6969251552876
 30
0.0
  0
VERTEX
  5
C7
330
C5
100
AcDbEntity
  8
VALLEYLINE
  6
AI-LINETYPE-4
 62
     7
100
AcDbVertex
100
AcDb2dVertex
 10
75.93627792155412
 20
-158.5873914534087
 30
0.0
  0
SEQEND
  5
C8
330
C5
100
AcDbEntity
  8
VALLEYLINE
  6
AI-LINETYPE-4
  0
ENDBLK
  5
C4
330
C1
100
AcDbEntity
  8
0
100
AcDbBlockEnd
  0
BLOCK
  5
CC
330
CA
100
AcDbEntity
  8
0
100
AcDbBlockBegin
  2
BLOCK_19
 70
     0
 71
     0
 10
0.0
 20
0.0
 30
0.0
  3
BLOCK_19
  1

  0
POLYLINE
  5
CE
330
CA
100
AcDbEntity
  8
VALLEYLINE
  6
AI-LINETYPE-5
 62
     7
100
AcDb2dPolyline
 66
     1
 10
0.0
 20
0.0
 30
0.0
  0
VERTEX
  5
CF
330
CE
100
AcDbEntity
  8
VALLEYLINE
  6
AI-LINETYPE-5
 62
     7
100
AcDbVertex
100
AcDb2dVertex
 10
88.43784041842873
 20
-95.75195038838841
 30
0.0
  0
VERTEX
  5
D0
330
CE
100
AcDbEntity
  8
VALLEYLINE
  6
AI-LINETYPE-5
 62
     7
100
AcDbVertex
100
AcDb2dVertex
 10
88.43784041842873
 20
-137.6424166865095
 30
0.0
  0
SEQEND
  5
D1
330
CE
100
AcDbEntity
  8
VALLEYLINE
  6
AI-LINETYPE-5
  0
ENDBLK
  5
CD
330
CA
100
AcDbEntity
  8
0
100
AcDbBlockEnd
  0
BLOCK
  5
D5
330
D3
100
AcDbEntity
  8
0
100
AcDbBlockBegin
  2
BLOCK_20
 70
     0
 71
     0
 10
0.0
 20
0.0
 30
0.0
  3
BLOCK_20
  1

  0
POLYLINE
  5
D7
330
D3
100
AcDbEntity
  8
VALLEYLINE
  6
AI-LINETYPE-6
 62
     7
100
AcDb2dPolyline
 66
     1
 10
0.0
 20
0.0
 30
0.0
  0
VERTEX
  5
D8
330
D7
100
AcDbEntity
  8
VALLEYLINE
  6
AI-LINETYPE-6
 62
     7
100
AcDbVertex
100
AcDb2dVertex
 10
83.4855156583821
 20
-137.6424166865095
 30
0.0
  0
VERTEX
  5
D9
330
D7
100
AcDbEntity
  8
VALLEYLINE
  6
AI-LINETYPE-6
 62
     7
100
AcDbVertex
100
AcDb2dVertex
 10
83.4855156583821
 20
-158.5873914534087
 30
0.0
  0
SEQEND
  5
DA
330
D7
100
AcDbEntity
  8
VALLEYLINE
  6
AI-LINETYPE-6
  0
ENDBLK
  5
D6
330
D3
100
AcDbEntity
  8
0
100
AcDbBlockEnd
  0
BLOCK
  5
DE
330
DC
100
AcDbEntity
  8
0
100
AcDbBlockBegin
  2
BLOCK_21
 70
     0
 71
     0
 10
0.0
 20
0.0
 30
0.0
  3
BLOCK_21
  1

  0
POLYLINE
  5
E0
330
DC
100
AcDbEntity
  8
VALLEYLINE
  6
AI-LINETYPE-7
 62
     7
100
AcDb2dPolyline
 66
     1
 10
0.0
 20
0.0
 30
0.0
  0
VERTEX
  5
E1
330
E0
100
AcDbEntity
  8
VALLEYLINE
  6
AI-LINETYPE-7
 62
     7
100
AcDbVertex
100
AcDb2dVertex
 10
83.4855156583821
 20
-158.5873914534087
 30
0.0
  0
VERTEX
  5
E2
330
E0
100
AcDbEntity
  8
VALLEYLINE
  6
AI-LINETYPE-7
 62
     7
100
AcDbVertex
100
AcDb2dVertex
 10
83.4855156583821
 20
-179.5321939655336
 30
0.0
  0
SEQEND
  5
E3
330
E0
100
AcDbEntity
  8
VALLEYLINE
  6
AI-LINETYPE-7
  0
ENDBLK
  5
DF
330
DC
100
AcDbEntity
  8
0
100
AcDbBlockEnd
  0
BLOCK
  5
E7
330
E5
100
AcDbEntity
  8
0
100
AcDbBlockBegin
  2
BLOCK_22
 70
     0
 71
     0
 10
0.0
 20
0.0
 30
0.0
  3
BLOCK_22
  1

  0
POLYLINE
  5
E9
330
E5
100
AcDbEntity
  8
VALLEYLINE
  6
AI-LINETYPE-8
 62
     7
100
AcDb2dPolyline
 66
     1
 10
0.0
 20
0.0
 30
0.0
  0
VERTEX
  5
EA
330
E9
100
AcDbEntity
  8
VALLEYLINE
  6
AI-LINETYPE-8
 62
     7
100
AcDbVertex
100
AcDb2dVertex
 10
83.4855156583821
 20
-95.75195038838841
 30
0.0
  0
VERTEX
  5
EB
330
E9
100
AcDbEntity
  8
VALLEYLINE
  6
AI-LINETYPE-8
 62
     7
100
AcDbVertex
100
AcDb2dVertex
 10
83.4855156583821
 20
-137.6424166865095
 30
0.0
  0
SEQEND
  5
EC
330
E9
100
AcDbEntity
  8
VALLEYLINE
  6
AI-LINETYPE-8
  0
ENDBLK
  5
E8
330
E5
100
AcDbEntity
  8
0
100
AcDbBlockEnd
  0
BLOCK
  5
F0
330
EE
100
AcDbEntity
  8
0
100
AcDbBlockBegin
  2
BLOCK_23
 70
     0
 71
     0
 10
0.0
 20
0.0
 30
0.0
  3
BLOCK_23
  1

  0
POLYLINE
  5
F2
330
EE
100
AcDbEntity
  8
VALLEYLINE
  6
AI-LINETYPE-9
 62
     7
100
AcDb2dPolyline
 66
     1
 10
0.0
 20
0.0
 30
0.0
  0
VERTEX
  5
F3
330
F2
100
AcDbEntity
  8
VALLEYLINE
  6
AI-LINETYPE-9
 62
     7
100
AcDbVertex
100
AcDb2dVertex
 10
88.43784041842873
 20
-95.75195038838841
 30
0.0
  0
VERTEX
  5
F4
330
F2
100
AcDbEntity
  8
VALLEYLINE
  6
AI-LINETYPE-9
 62
     7
100
AcDbVertex
100
AcDb2dVertex
 10
88.43784041842873
 20
-33.46479626984561
 30
0.0
  0
SEQEND
  5
F5
330
F2
100
AcDbEntity
  8
VALLEYLINE
  6
AI-LINETYPE-9
  0
ENDBLK
  5
F1
330
EE
100
AcDbEntity
  8
0
100
AcDbBlockEnd
  0
BLOCK
  5
F9
330
F7
100
AcDbEntity
  8
0
100
AcDbBlockBegin
  2
BLOCK_24
 70
     0
 71
     0
 10
0.0
 20
0.0
 30
0.0
  3
BLOCK_24
  1

  0
POLYLINE
  5
FB
330
F7
100
AcDbEntity
  8
VALLEYLINE
  6
AI-LINETYPE-10
 62
     7
100
AcDb2dPolyline
 66
     1
 10
0.0
 20
0.0
 30
0.0
  0
VERTEX
  5
FC
330
FB
100
AcDbEntity
  8
VALLEYLINE
  6
AI-LINETYPE-10
 62
     7
100
AcDbVertex
100
AcDb2dVertex
 10
83.4855156583821
 20
-33.46479626984561
 30
0.0
  0
VERTEX
  5
FD
330
FB
100
AcDbEntity
  8
VALLEYLINE
  6
AI-LINETYPE-10
 62
     7
100
AcDbVertex
100
AcDb2dVertex
 10
83.4855156583821
 20
-95.75195038838841
 30
0.0
  0
SEQEND
  5
FE
330
FB
100
AcDbEntity
  8
VALLEYLINE
  6
AI-LINETYPE-10
  0
ENDBLK
  5
FA
330
F7
100
AcDbEntity
  8
0
100
AcDbBlockEnd
  0
BLOCK
  5
102
330
100
100
AcDbEntity
  8
0
100
AcDbBlockBegin
  2
BLOCK_25
 70
     0
 71
     0
 10
0.0
 20
0.0
 30
0.0
  3
BLOCK_25
  1

  0
POLYLINE
  5
104
330
100
100
AcDbEntity
  8
VALLEYLINE
  6
AI-LINETYPE-11
 62
     7
100
AcDb2dPolyline
 66
     1
 10
0.0
 20
0.0
 30
0.0
  0
VERTEX
  5
105
330
104
100
AcDbEntity
  8
VALLEYLINE
  6
AI-LINETYPE-11
 62
     7
100
AcDbVertex
100
AcDb2dVertex
 10
75.93627792155412
 20
-74.80697562148923
 30
0.0
  0
VERTEX
  5
106
330
104
100
AcDbEntity
  8
VALLEYLINE
  6
AI-LINETYPE-11
 62
     7
100
AcDbVertex
100
AcDb2dVertex
 10
75.93627792155412
 20
-116.6969251552876
 30
0.0
  0
SEQEND
  5
107
330
104
100
AcDbEntity
  8
VALLEYLINE
  6
AI-LINETYPE-11
  0
ENDBLK
  5
103
330
100
100
AcDbEntity
  8
0
100
AcDbBlockEnd
  0
BLOCK
  5
10B
330
109
100
AcDbEntity
  8
0
100
AcDbBlockBegin
  2
BLOCK_26
 70
     0
 71
     0
 10
0.0
 20
0.0
 30
0.0
  3
BLOCK_26
  1

  0
POLYLINE
  5
10D
330
109
100
AcDbEntity
  8
VALLEYLINE
  6
AI-LINETYPE-12
 62
     7
100
AcDb2dPolyline
 66
     1
 10
0.0
 20
0.0
 30
0.0
  0
VERTEX
  5
10E
330
10D
100
AcDbEntity
  8
VALLEYLINE
  6
AI-LINETYPE-12
 62
     7
100
AcDbVertex
100
AcDb2dVertex
 10
75.93627792155412
 20
-158.5873914534087
 30
0.0
  0
VERTEX
  5
10F
330
10D
100
AcDbEntity
  8
VALLEYLINE
  6
AI-LINETYPE-12
 62
     7
100
AcDbVertex
100
AcDb2dVertex
 10
75.93627792155412
 20
-200.4769964776585
 30
0.0
  0
SEQEND
  5
110
330
10D
100
AcDbEntity
  8
VALLEYLINE
  6
AI-LINETYPE-12
  0
ENDBLK
  5
10C
330
109
100
AcDbEntity
  8
0
100
AcDbBlockEnd
  0
BLOCK
  5
114
330
112
100
AcDbEntity
  8
0
100
AcDbBlockBegin
  2
BLOCK_27
 70
     0
 71
     0
 10
0.0
 20
0.0
 30
0.0
  3
BLOCK_27
  1

  0
POLYLINE
  5
116
330
112
100
AcDbEntity
  8
VALLEYLINE
  6
AI-LINETYPE-13
 62
     7
100
AcDb2dPolyline
 66
     1
 10
0.0
 20
0.0
 30
0.0
  0
VERTEX
  5
117
330
116
100
AcDbEntity
  8
VALLEYLINE
  6
AI-LINETYPE-13
 62
     7
100
AcDbVertex
100
AcDb2dVertex
 10
88.43784041842873
 20
-263.3127820522274
 30
0.0
  0
VERTEX
  5
118
330
116
100
AcDbEntity
  8
VALLEYLINE
  6
AI-LINETYPE-13
 62
     7
100
AcDbVertex
100
AcDb2dVertex
 10
88.43784041842873
 20
-284.2059081320735
 30
0.0
  0
SEQEND
  5
119
330
116
100
AcDbEntity
  8
VALLEYLINE
  6
AI-LINETYPE-13
  0
ENDBLK
  5
115
330
112
100
AcDbEntity
  8
0
100
AcDbBlockEnd
  0
BLOCK
  5
11D
330
11B
100
AcDbEntity
  8
0
100
AcDbBlockBegin
  2
BLOCK_28
 70
     0
 71
     0
 10
0.0
 20
0.0
 30
0.0
  3
BLOCK_28
  1

  0
POLYLINE
  5
11F
330
11B
100
AcDbEntity
  8
VALLEYLINE
  6
AI-LINETYPE-14
 62
     7
100
AcDb2dPolyline
 66
     1
 10
0.0
 20
0.0
 30
0.0
  0
VERTEX
  5
120
330
11F
100
AcDbEntity
  8
VALLEYLINE
  6
AI-LINETYPE-14
 62
     7
100
AcDbVertex
100
AcDb2dVertex
 10
75.93627792155412
 20
-242.3679795401025
 30
0.0
  0
VERTEX
  5
121
330
11F
100
AcDbEntity
  8
VALLEYLINE
  6
AI-LINETYPE-14
 62
     7
100
AcDbVertex
100
AcDb2dVertex
 10
75.93627792155412
 20
-284.2582735834494
 30
0.0
  0
SEQEND
  5
122
330
11F
100
AcDbEntity
  8
VALLEYLINE
  6
AI-LINETYPE-14
  0
ENDBLK
  5
11E
330
11B
100
AcDbEntity
  8
0
100
AcDbBlockEnd
  0
BLOCK
  5
126
330
124
100
AcDbEntity
  8
0
100
AcDbBlockBegin
  2
BLOCK_29
 70
     0
 71
     0
 10
0.0
 20
0.0
 30
0.0
  3
BLOCK_29
  1

  0
POLYLINE
  5
128
330
124
100
AcDbEntity
  8
VALLEYLINE
  6
AI-LINETYPE-15
 62
     7
100
AcDb2dPolyline
 66
     1
 10
0.0
 20
0.0
 30
0.0
  0
VERTEX
  5
129
330
128
100
AcDbEntity
  8
VALLEYLINE
  6
AI-LINETYPE-15
 62
     7
100
AcDbVertex
100
AcDb2dVertex
 10
88.43784041842873
 20
-221.4224880088805
 30
0.0
  0
VERTEX
  5
12A
330
128
100
AcDbEntity
  8
VALLEYLINE
  6
AI-LINETYPE-15
 62
     7
100
AcDbVertex
100
AcDb2dVertex
 10
88.43784041842873
 20
-263.3127820522274
 30
0.0
  0
SEQEND
  5
12B
330
128
100
AcDbEntity
  8
VALLEYLINE
  6
AI-LINETYPE-15
  0
ENDBLK
  5
127
330
124
100
AcDbEntity
  8
0
100
AcDbBlockEnd
  0
BLOCK
  5
12F
330
12D
100
AcDbEntity
  8
0
100
AcDbBlockBegin
  2
BLOCK_30
 70
     0
 71
     0
 10
0.0
 20
0.0
 30
0.0
  3
BLOCK_30
  1

  0
POLYLINE
  5
131
330
12D
100
AcDbEntity
  8
VALLEYLINE
  6
AI-LINETYPE-16
 62
     7
100
AcDb2dPolyline
 66
     1
 10
0.0
 20
0.0
 30
0.0
  0
VERTEX
  5
132
330
131
100
AcDbEntity
  8
VALLEYLINE
  6
AI-LINETYPE-16
 62
     7
100
AcDbVertex
100
AcDb2dVertex
 10
88.43784041842873
 20
-221.4224880088805
 30
0.0
  0
VERTEX
  5
133
330
131
100
AcDbEntity
  8
VALLEYLINE
  6
AI-LINETYPE-16
 62
     7
100
AcDbVertex
100
AcDb2dVertex
 10
88.43784041842873
 20
-179.5321939655336
 30
0.0
  0
SEQEND
  5
134
330
131
100
AcDbEntity
  8
VALLEYLINE
  6
AI-LINETYPE-16
  0
ENDBLK
  5
130
330
12D
100
AcDbEntity
  8
0
100
AcDbBlockEnd
  0
BLOCK
  5
138
330
136
100
AcDbEntity
  8
0
100
AcDbBlockBegin
  2
BLOCK_31
 70
     0
 71
     0
 10
0.0
 20
0.0
 30
0.0
  3
BLOCK_31
  1

  0
POLYLINE
  5
13A
330
136
100
AcDbEntity
  8
VALLEYLINE
  6
AI-LINETYPE-17
 62
     7
100
AcDb2dPolyline
 66
     1
 10
0.0
 20
0.0
 30
0.0
  0
VERTEX
  5
13B
330
13A
100
AcDbEntity
  8
VALLEYLINE
  6
AI-LINETYPE-17
 62
     7
100
AcDbVertex
100
AcDb2dVertex
 10
83.4855156583821
 20
-179.5321939655336
 30
0.0
  0
VERTEX
  5
13C
330
13A
100
AcDbEntity
  8
VALLEYLINE
  6
AI-LINETYPE-17
 62
     7
100
AcDbVertex
100
AcDb2dVertex
 10
83.4855156583821
 20
-221.4224880088805
 30
0.0
  0
SEQEND
  5
13D
330
13A
100
AcDbEntity
  8
VALLEYLINE
  6
AI-LINETYPE-17
  0
ENDBLK
  5
139
330
136
100
AcDbEntity
  8
0
100
AcDbBlockEnd
  0
BLOCK
  5
141
330
13F
100
AcDbEntity
  8
0
100
AcDbBlockBegin
  2
BLOCK_32
 70
     0
 71
     0
 10
0.0
 20
0.0
 30
0.0
  3
BLOCK_32
  1

  0
POLYLINE
  5
143
330
13F
100
AcDbEntity
  8
VALLEYLINE
  6
AI-LINETYPE-18
 62
     7
100
AcDb2dPolyline
 66
     1
 10
0.0
 20
0.0
 30
0.0
  0
VERTEX
  5
144
330
143
100
AcDbEntity
  8
VALLEYLINE
  6
AI-LINETYPE-18
 62
     7
100
AcDbVertex
100
AcDb2dVertex
 10
83.4855156583821
 20
-263.3127820522274
 30
0.0
  0
VERTEX
  5
145
330
143
100
AcDbEntity
  8
VALLEYLINE
  6
AI-LINETYPE-18
 62
     7
100
AcDbVertex
100
AcDb2dVertex
 10
83.4855156583821
 20
-284.2059081320735
 30
0.0
  0
SEQEND
  5
146
330
143
100
AcDbEntity
  8
VALLEYLINE
  6
AI-LINETYPE-18
  0
ENDBLK
  5
142
330
13F
100
AcDbEntity
  8
0
100
AcDbBlockEnd
  0
BLOCK
  5
14A
330
148
100
AcDbEntity
  8
0
100
AcDbBlockBegin
  2
BLOCK_33
 70
     0
 71
     0
 10
0.0
 20
0.0
 30
0.0
  3
BLOCK_33
  1

  0
POLYLINE
  5
14C
330
148
100
AcDbEntity
  8
VALLEYLINE
  6
AI-LINETYPE-19
 62
     7
100
AcDb2dPolyline
 66
     1
 10
0.0
 20
0.0
 30
0.0
  0
VERTEX
  5
14D
330
14C
100
AcDbEntity
  8
VALLEYLINE
  6
AI-LINETYPE-19
 62
     7
100
AcDbVertex
100
AcDb2dVertex
 10
83.4855156583821
 20
-221.4224880088805
 30
0.0
  0
VERTEX
  5
14E
330
14C
100
AcDbEntity
  8
VALLEYLINE
  6
AI-LINETYPE-19
 62
     7
100
AcDbVertex
100
AcDb2dVertex
 10
83.4855156583821
 20
-263.3127820522274
 30
0.0
  0
SEQEND
  5
14F
330
14C
100
AcDbEntity
  8
VALLEYLINE
  6
AI-LINETYPE-19
  0
ENDBLK
  5
14B
330
148
100
AcDbEntity
  8
0
100
AcDbBlockEnd
  0
BLOCK
  5
153
330
151
100
AcDbEntity
  8
0
100
AcDbBlockBegin
  2
BLOCK_34
 70
     0
 71
     0
 10
0.0
 20
0.0
 30
0.0
  3
BLOCK_34
  1

  0
POLYLINE
  5
155
330
151
100
AcDbEntity
  8
VALLEYLINE
  6
AI-LINETYPE-20
 62
     7
100
AcDb2dPolyline
 66
     1
 10
0.0
 20
0.0
 30
0.0
  0
VERTEX
  5
156
330
155
100
AcDbEntity
  8
VALLEYLINE
  6
AI-LINETYPE-20
 62
     7
100
AcDbVertex
100
AcDb2dVertex
 10
75.93627792155412
 20
-200.4769964776585
 30
0.0
  0
VERTEX
  5
157
330
155
100
AcDbEntity
  8
VALLEYLINE
  6
AI-LINETYPE-20
 62
     7
100
AcDbVertex
100
AcDb2dVertex
 10
75.93627792155412
 20
-242.3679795401025
 30
0.0
  0
SEQEND
  5
158
330
155
100
AcDbEntity
  8
VALLEYLINE
  6
AI-LINETYPE-20
  0
ENDBLK
  5
154
330
151
100
AcDbEntity
  8
0
100
AcDbBlockEnd
  0
BLOCK
  5
15C
330
15A
100
AcDbEntity
  8
0
100
AcDbBlockBegin
  2
BLOCK_35
 70
     0
 71
     0
 10
0.0
 20
0.0
 30
0.0
  3
BLOCK_35
  1

  0
POLYLINE
  5
15E
330
15A
100
AcDbEntity
  8
VALLEYLINE
  6
AI-LINETYPE-21
 62
     7
100
AcDb2dPolyline
 66
     1
 10
0.0
 20
0.0
 30
0.0
  0
VERTEX
  5
15F
330
15E
100
AcDbEntity
  8
VALLEYLINE
  6
AI-LINETYPE-21
 62
     7
100
AcDbVertex
100
AcDb2dVertex
 10
123.7443847346889
 20
-32.9165093233681
 30
0.0
  0
VERTEX
  5
160
330
15E
100
AcDbEntity
  8
VALLEYLINE
  6
AI-LINETYPE-21
 62
     7
100
AcDbVertex
100
AcDb2dVertex
 10
123.7443847346889
 20
-74.80697562148923
 30
0.0
  0
SEQEND
  5
161
330
15E
100
AcDbEntity
  8
VALLEYLINE
  6
AI-LINETYPE-21
  0
ENDBLK
  5
15D
330
15A
100
AcDbEntity
  8
0
100
AcDbBlockEnd
  0
BLOCK
  5
165
330
163
100
AcDbEntity
  8
0
100
AcDbBlockBegin
  2
BLOCK_36
 70
     0
 71
     0
 10
0.0
 20
0.0
 30
0.0
  3
BLOCK_36
  1

  0
POLYLINE
  5
167
330
163
100
AcDbEntity
  8
VALLEYLINE
  6
AI-LINETYPE-22
 62
     7
100
AcDb2dPolyline
 66
     1
 10
0.0
 20
0.0
 30
0.0
  0
VERTEX
  5
168
330
167
100
AcDbEntity
  8
VALLEYLINE
  6
AI-LINETYPE-22
 62
     7
100
AcDbVertex
100
AcDb2dVertex
 10
111.2435112569113
 20
-137.6424166865095
 30
0.0
  0
VERTEX
  5
169
330
167
100
AcDbEntity
  8
VALLEYLINE
  6
AI-LINETYPE-22
 62
     7
100
AcDbVertex
100
AcDb2dVertex
 10
111.2435112569113
 20
-158.5873914534087
 30
0.0
  0
SEQEND
  5
16A
330
167
100
AcDbEntity
  8
VALLEYLINE
  6
AI-LINETYPE-22
  0
ENDBLK
  5
166
330
163
100
AcDbEntity
  8
0
100
AcDbBlockEnd
  0
BLOCK
  5
16E
330
16C
100
AcDbEntity
  8
0
100
AcDbBlockBegin
  2
BLOCK_37
 70
     0
 71
     0
 10
0.0
 20
0.0
 30
0.0
  3
BLOCK_37
  1

  0
POLYLINE
  5
170
330
16C
100
AcDbEntity
  8
VALLEYLINE
  6
AI-LINETYPE-23
 62
     7
100
AcDb2dPolyline
 66
     1
 10
0.0
 20
0.0
 30
0.0
  0
VERTEX
  5
171
330
170
100
AcDbEntity
  8
VALLEYLINE
  6
AI-LINETYPE-23
 62
     7
100
AcDbVertex
100
AcDb2dVertex
 10
111.2435112569113
 20
-158.5873914534087
 30
0.0
  0
VERTEX
  5
172
330
170
100
AcDbEntity
  8
VALLEYLINE
  6
AI-LINETYPE-23
 62
     7
100
AcDbVertex
100
AcDb2dVertex
 10
111.2435112569113
 20
-179.5321939655336
 30
0.0
  0
SEQEND
  5
173
330
170
100
AcDbEntity
  8
VALLEYLINE
  6
AI-LINETYPE-23
  0
ENDBLK
  5
16F
330
16C
100
AcDbEntity
  8
0
100
AcDbBlockEnd
  0
BLOCK
  5
177
330
175
100
AcDbEntity
  8
0
100
AcDbBlockBegin
  2
BLOCK_38
 70
     0
 71
     0
 10
0.0
 20
0.0
 30
0.0
  3
BLOCK_38
  1

  0
POLYLINE
  5
179
330
175
100
AcDbEntity
  8
VALLEYLINE
  6
AI-LINETYPE-24
 62
     7
100
AcDb2dPolyline
 66
     1
 10
0.0
 20
0.0
 30
0.0
  0
VERTEX
  5
17A
330
179
100
AcDbEntity
  8
VALLEYLINE
  6
AI-LINETYPE-24
 62
     7
100
AcDbVertex
100
AcDb2dVertex
 10
123.7443847346889
 20
-116.6969251552876
 30
0.0
  0
VERTEX
  5
17B
330
179
100
AcDbEntity
  8
VALLEYLINE
  6
AI-LINETYPE-24
 62
     7
100
AcDbVertex
100
AcDb2dVertex
 10
123.7443847346889
 20
-158.5873914534087
 30
0.0
  0
SEQEND
  5
17C
330
179
100
AcDbEntity
  8
VALLEYLINE
  6
AI-LINETYPE-24
  0
ENDBLK
  5
178
330
175
100
AcDbEntity
  8
0
100
AcDbBlockEnd
  0
BLOCK
  5
180
330
17E
100
AcDbEntity
  8
0
100
AcDbBlockBegin
  2
BLOCK_39
 70
     0
 71
     0
 10
0.0
 20
0.0
 30
0.0
  3
BLOCK_39
  1

  0
POLYLINE
  5
182
330
17E
100
AcDbEntity
  8
VALLEYLINE
  6
AI-LINETYPE-25
 62
     7
100
AcDb2dPolyline
 66
     1
 10
0.0
 20
0.0
 30
0.0
  0
VERTEX
  5
183
330
182
100
AcDbEntity
  8
VALLEYLINE
  6
AI-LINETYPE-25
 62
     7
100
AcDbVertex
100
AcDb2dVertex
 10
111.2435112569113
 20
-95.75195038838841
 30
0.0
  0
VERTEX
  5
184
330
182
100
AcDbEntity
  8
VALLEYLINE
  6
AI-LINETYPE-25
 62
     7
100
AcDbVertex
100
AcDb2dVertex
 10
111.2435112569113
 20
-137.6424166865095
 30
0.0
  0
SEQEND
  5
185
330
182
100
AcDbEntity
  8
VALLEYLINE
  6
AI-LINETYPE-25
  0
ENDBLK
  5
181
330
17E
100
AcDbEntity
  8
0
100
AcDbBlockEnd
  0
BLOCK
  5
189
330
187
100
AcDbEntity
  8
0
100
AcDbBlockBegin
  2
BLOCK_40
 70
     0
 71
     0
 10
0.0
 20
0.0
 30
0.0
  3
BLOCK_40
  1

  0
POLYLINE
  5
18B
330
187
100
AcDbEntity
  8
VALLEYLINE
  6
AI-LINETYPE-26
 62
     7
100
AcDb2dPolyline
 66
     1
 10
0.0
 20
0.0
 30
0.0
  0
VERTEX
  5
18C
330
18B
100
AcDbEntity
  8
VALLEYLINE
  6
AI-LINETYPE-26
 62
     7
100
AcDbVertex
100
AcDb2dVertex
 10
116.1954915074095
 20
-137.6424166865095
 30
0.0
  0
VERTEX
  5
18D
330
18B
100
AcDbEntity
  8
VALLEYLINE
  6
AI-LINETYPE-26
 62
     7
100
AcDbVertex
100
AcDb2dVertex
 10
116.1954915074095
 20
-158.5873914534087
 30
0.0
  0
SEQEND
  5
18E
330
18B
100
AcDbEntity
  8
VALLEYLINE
  6
AI-LINETYPE-26
  0
ENDBLK
  5
18A
330
187
100
AcDbEntity
  8
0
100
AcDbBlockEnd
  0
BLOCK
  5
192
330
190
100
AcDbEntity
  8
0
100
AcDbBlockBegin
  2
BLOCK_41
 70
     0
 71
     0
 10
0.0
 20
0.0
 30
0.0
  3
BLOCK_41
  1

  0
POLYLINE
  5
194
330
190
100
AcDbEntity
  8
VALLEYLINE
  6
AI-LINETYPE-27
 62
     7
100
AcDb2dPolyline
 66
     1
 10
0.0
 20
0.0
 30
0.0
  0
VERTEX
  5
195
330
194
100
AcDbEntity
  8
VALLEYLINE
  6
AI-LINETYPE-27
 62
     7
100
AcDbVertex
100
AcDb2dVertex
 10
116.1954915074095
 20
-158.5873914534087
 30
0.0
  0
VERTEX
  5
196
330
194
100
AcDbEntity
  8
VALLEYLINE
  6
AI-LINETYPE-27
 62
     7
100
AcDbVertex
100
AcDb2dVertex
 10
116.1954915074095
 20
-179.5321939655336
 30
0.0
  0
SEQEND
  5
197
330
194
100
AcDbEntity
  8
VALLEYLINE
  6
AI-LINETYPE-27
  0
ENDBLK
  5
193
330
190
100
AcDbEntity
  8
0
100
AcDbBlockEnd
  0
BLOCK
  5
19B
330
199
100
AcDbEntity
  8
0
100
AcDbBlockBegin
  2
BLOCK_42
 70
     0
 71
     0
 10
0.0
 20
0.0
 30
0.0
  3
BLOCK_42
  1

  0
POLYLINE
  5
19D
330
199
100
AcDbEntity
  8
VALLEYLINE
  6
AI-LINETYPE-28
 62
     7
100
AcDb2dPolyline
 66
     1
 10
0.0
 20
0.0
 30
0.0
  0
VERTEX
  5
19E
330
19D
100
AcDbEntity
  8
VALLEYLINE
  6
AI-LINETYPE-28
 62
     7
100
AcDbVertex
100
AcDb2dVertex
 10
116.1954915074095
 20
-95.75195038838841
 30
0.0
  0
VERTEX
  5
19F
330
19D
100
AcDbEntity
  8
VALLEYLINE
  6
AI-LINETYPE-28
 62
     7
100
AcDbVertex
100
AcDb2dVertex
 10
116.1954915074095
 20
-137.6424166865095
 30
0.0
  0
SEQEND
  5
1A0
330
19D
100
AcDbEntity
  8
VALLEYLINE
  6
AI-LINETYPE-28
  0
ENDBLK
  5
19C
330
199
100
AcDbEntity
  8
0
100
AcDbBlockEnd
  0
BLOCK
  5
1A4
330
1A2
100
AcDbEntity
  8
0
100
AcDbBlockBegin
  2
BLOCK_43
 70
     0
 71
     0
 10
0.0
 20
0.0
 30
0.0
  3
BLOCK_43
  1

  0
POLYLINE
  5
1A6
330
1A2
100
AcDbEntity
  8
VALLEYLINE
  6
AI-LINETYPE-29
 62
     7
100
AcDb2dPolyline
 66
     1
 10
0.0
 20
0.0
 30
0.0
  0
VERTEX
  5
1A7
330
1A6
100
AcDbEntity
  8
VALLEYLINE
  6
AI-LINETYPE-29
 62
     7
100
AcDbVertex
100
AcDb2dVertex
 10
111.2435112569113
 20
-95.75195038838841
 30
0.0
  0
VERTEX
  5
1A8
330
1A6
100
AcDbEntity
  8
VALLEYLINE
  6
AI-LINETYPE-29
 62
     7
100
AcDbVertex
100
AcDb2dVertex
 10
111.2435112569113
 20
-33.16593423650018
 30
0.0
  0
SEQEND
  5
1A9
330
1A6
100
AcDbEntity
  8
VALLEYLINE
  6
AI-LINETYPE-29
  0
ENDBLK
  5
1A5
330
1A2
100
AcDbEntity
  8
0
100
AcDbBlockEnd
  0
BLOCK
  5
1AD
330
1AB
100
AcDbEntity
  8
0
100
AcDbBlockBegin
  2
BLOCK_44
 70
     0
 71
     0
 10
0.0
 20
0.0
 30
0.0
  3
BLOCK_44
  1

  0
POLYLINE
  5
1AF
330
1AB
100
AcDbEntity
  8
VALLEYLINE
  6
AI-LINETYPE-30
 62
     7
100
AcDb2dPolyline
 66
     1
 10
0.0
 20
0.0
 30
0.0
  0
VERTEX
  5
1B0
330
1AF
100
AcDbEntity
  8
VALLEYLINE
  6
AI-LINETYPE-30
 62
     7
100
AcDbVertex
100
AcDb2dVertex
 10
116.1954915074095
 20
-32.96301811241897
 30
0.0
  0
VERTEX
  5
1B1
330
1AF
100
AcDbEntity
  8
VALLEYLINE
  6
AI-LINETYPE-30
 62
     7
100
AcDbVertex
100
AcDb2dVertex
 10
116.1954915074095
 20
-95.75195038838841
 30
0.0
  0
SEQEND
  5
1B2
330
1AF
100
AcDbEntity
  8
VALLEYLINE
  6
AI-LINETYPE-30
  0
ENDBLK
  5
1AE
330
1AB
100
AcDbEntity
  8
0
100
AcDbBlockEnd
  0
BLOCK
  5
1B6
330
1B4
100
AcDbEntity
  8
0
100
AcDbBlockBegin
  2
BLOCK_45
 70
     0
 71
     0
 10
0.0
 20
0.0
 30
0.0
  3
BLOCK_45
  1

  0
POLYLINE
  5
1B8
330
1B4
100
AcDbEntity
  8
VALLEYLINE
  6
AI-LINETYPE-31
 62
     7
100
AcDb2dPolyline
 66
     1
 10
0.0
 20
0.0
 30
0.0
  0
VERTEX
  5
1B9
330
1B8
100
AcDbEntity
  8
VALLEYLINE
  6
AI-LINETYPE-31
 62
     7
100
AcDbVertex
100
AcDb2dVertex
 10
123.7443847346889
 20
-74.80697562148923
 30
0.0
  0
VERTEX
  5
1BA
330
1B8
100
AcDbEntity
  8
VALLEYLINE
  6
AI-LINETYPE-31
 62
     7
100
AcDbVertex
100
AcDb2dVertex
 10
123.7443847346889
 20
-116.6969251552876
 30
0.0
  0
SEQEND
  5
1BB
330
1B8
100
AcDbEntity
  8
VALLEYLINE
  6
AI-LINETYPE-31
  0
ENDBLK
  5
1B7
330
1B4
100
AcDbEntity
  8
0
100
AcDbBlockEnd
  0
BLOCK
  5
1BF
330
1BD
100
AcDbEntity
  8
0
100
AcDbBlockBegin
  2
BLOCK_46
 70
     0
 71
     0
 10
0.0
 20
0.0
 30
0.0
  3
BLOCK_46
  1

  0
POLYLINE
  5
1C1
330
1BD
100
AcDbEntity
  8
VALLEYLINE
  6
AI-LINETYPE-32
 62
     7
100
AcDb2dPolyline
 66
     1
 10
0.0
 20
0.0
 30
0.0
  0
VERTEX
  5
1C2
330
1C1
100
AcDbEntity
  8
VALLEYLINE
  6
AI-LINETYPE-32
 62
     7
100
AcDbVertex
100
AcDb2dVertex
 10
123.7443847346889
 20
-158.5873914534087
 30
0.0
  0
VERTEX
  5
1C3
330
1C1
100
AcDbEntity
  8
VALLEYLINE
  6
AI-LINETYPE-32
 62
     7
100
AcDbVertex
100
AcDb2dVertex
 10
123.7443847346889
 20
-200.4769964776585
 30
0.0
  0
SEQEND
  5
1C4
330
1C1
100
AcDbEntity
  8
VALLEYLINE
  6
AI-LINETYPE-32
  0
ENDBLK
  5
1C0
330
1BD
100
AcDbEntity
  8
0
100
AcDbBlockEnd
  0
BLOCK
  5
1C8
330
1C6
100
AcDbEntity
  8
0
100
AcDbBlockBegin
  2
BLOCK_47
 70
     0
 71
     0
 10
0.0
 20
0.0
 30
0.0
  3
BLOCK_47
  1

  0
POLYLINE
  5
1CA
330
1C6
100
AcDbEntity
  8
VALLEYLINE
  6
AI-LINETYPE-33
 62
     7
100
AcDb2dPolyline
 66
     1
 10
0.0
 20
0.0
 30
0.0
  0
VERTEX
  5
1CB
330
1CA
100
AcDbEntity
  8
VALLEYLINE
  6
AI-LINETYPE-33
 62
     7
100
AcDbVertex
100
AcDb2dVertex
 10
111.2435112569113
 20
-263.3127820522274
 30
0.0
  0
VERTEX
  5
1CC
330
1CA
100
AcDbEntity
  8
VALLEYLINE
  6
AI-LINETYPE-33
 62
     7
100
AcDbVertex
100
AcDb2dVertex
 10
111.2435112569113
 20
-284.2059081320735
 30
0.0
  0
SEQEND
  5
1CD
330
1CA
100
AcDbEntity
  8
VALLEYLINE
  6
AI-LINETYPE-33
  0
ENDBLK
  5
1C9
330
1C6
100
AcDbEntity
  8
0
100
AcDbBlockEnd
  0
BLOCK
  5
1D1
330
1CF
100
AcDbEntity
  8
0
100
AcDbBlockBegin
  2
BLOCK_48
 70
     0
 71
     0
 10
0.0
 20
0.0
 30
0.0
  3
BLOCK_48
  1

  0
POLYLINE
  5
1D3
330
1CF
100
AcDbEntity
  8
VALLEYLINE
  6
AI-LINETYPE-34
 62
     7
100
AcDb2dPolyline
 66
     1
 10
0.0
 20
0.0
 30
0.0
  0
VERTEX
  5
1D4
330
1D3
100
AcDbEntity
  8
VALLEYLINE
  6
AI-LINETYPE-34
 62
     7
100
AcDbVertex
100
AcDb2dVertex
 10
123.7443847346889
 20
-242.3679795401025
 30
0.0
  0
VERTEX
  5
1D5
330
1D3
100
AcDbEntity
  8
VALLEYLINE
  6
AI-LINETYPE-34
 62
     7
100
AcDbVertex
100
AcDb2dVertex
 10
123.7443847346889
 20
-284.2582735834494
 30
0.0
  0
SEQEND
  5
1D6
330
1D3
100
AcDbEntity
  8
VALLEYLINE
  6
AI-LINETYPE-34
  0
ENDBLK
  5
1D2
330
1CF
100
AcDbEntity
  8
0
100
AcDbBlockEnd
  0
BLOCK
  5
1DA
330
1D8
100
AcDbEntity
  8
0
100
AcDbBlockBegin
  2
BLOCK_49
 70
     0
 71
     0
 10
0.0
 20
0.0
 30
0.0
  3
BLOCK_49
  1

  0
POLYLINE
  5
1DC
330
1D8
100
AcDbEntity
  8
VALLEYLINE
  6
AI-LINETYPE-35
 62
     7
100
AcDb2dPolyline
 66
     1
 10
0.0
 20
0.0
 30
0.0
  0
VERTEX
  5
1DD
330
1DC
100
AcDbEntity
  8
VALLEYLINE
  6
AI-LINETYPE-35
 62
     7
100
AcDbVertex
100
AcDb2dVertex
 10
111.2435112569113
 20
-221.4224880088805
 30
0.0
  0
VERTEX
  5
1DE
330
1DC
100
AcDbEntity
  8
VALLEYLINE
  6
AI-LINETYPE-35
 62
     7
100
AcDbVertex
100
AcDb2dVertex
 10
111.2435112569113
 20
-263.3127820522274
 30
0.0
  0
SEQEND
  5
1DF
330
1DC
100
AcDbEntity
  8
VALLEYLINE
  6
AI-LINETYPE-35
  0
ENDBLK
  5
1DB
330
1D8
100
AcDbEntity
  8
0
100
AcDbBlockEnd
  0
BLOCK
  5
1E3
330
1E1
100
AcDbEntity
  8
0
100
AcDbBlockBegin
  2
BLOCK_50
 70
     0
 71
     0
 10
0.0
 20
0.0
 30
0.0
  3
BLOCK_50
  1

  0
POLYLINE
  5
1E5
330
1E1
100
AcDbEntity
  8
VALLEYLINE
  6
AI-LINETYPE-36
 62
     7
100
AcDb2dPolyline
 66
     1
 10
0.0
 20
0.0
 30
0.0
  0
VERTEX
  5
1E6
330
1E5
100
AcDbEntity
  8
VALLEYLINE
  6
AI-LINETYPE-36
 62
     7
100
AcDbVertex
100
AcDb2dVertex
 10
111.2435112569113
 20
-221.4224880088805
 30
0.0
  0
VERTEX
  5
1E7
330
1E5
100
AcDbEntity
  8
VALLEYLINE
  6
AI-LINETYPE-36
 62
     7
100
AcDbVertex
100
AcDb2dVertex
 10
111.2435112569113
 20
-179.5321939655336
 30
0.0
  0
SEQEND
  5
1E8
330
1E5
100
AcDbEntity
  8
VALLEYLINE
  6
AI-LINETYPE-36
  0
ENDBLK
  5
1E4
330
1E1
100
AcDbEntity
  8
0
100
AcDbBlockEnd
  0
BLOCK
  5
1EC
330
1EA
100
AcDbEntity
  8
0
100
AcDbBlockBegin
  2
BLOCK_51
 70
     0
 71
     0
 10
0.0
 20
0.0
 30
0.0
  3
BLOCK_51
  1

  0
POLYLINE
  5
1EE
330
1EA
100
AcDbEntity
  8
VALLEYLINE
  6
AI-LINETYPE-37
 62
     7
100
AcDb2dPolyline
 66
     1
 10
0.0
 20
0.0
 30
0.0
  0
VERTEX
  5
1EF
330
1EE
100
AcDbEntity
  8
VALLEYLINE
  6
AI-LINETYPE-37
 62
     7
100
AcDbVertex
100
AcDb2dVertex
 10
116.1954915074095
 20
-179.5321939655336
 30
0.0
  0
VERTEX
  5
1F0
330
1EE
100
AcDbEntity
  8
VALLEYLINE
  6
AI-LINETYPE-37
 62
     7
100
AcDbVertex
100
AcDb2dVertex
 10
116.1954915074095
 20
-221.4224880088805
 30
0.0
  0
SEQEND
  5
1F1
330
1EE
100
AcDbEntity
  8
VALLEYLINE
  6
AI-LINETYPE-37
  0
ENDBLK
  5
1ED
330
1EA
100
AcDbEntity
  8
0
100
AcDbBlockEnd
  0
BLOCK
  5
1F5
330
1F3
100
AcDbEntity
  8
0
100
AcDbBlockBegin
  2
BLOCK_52
 70
     0
 71
     0
 10
0.0
 20
0.0
 30
0.0
  3
BLOCK_52
  1

  0
POLYLINE
  5
1F7
330
1F3
100
AcDbEntity
  8
VALLEYLINE
  6
AI-LINETYPE-38
 62
     7
100
AcDb2dPolyline
 66
     1
 10
0.0
 20
0.0
 30
0.0
  0
VERTEX
  5
1F8
330
1F7
100
AcDbEntity
  8
VALLEYLINE
  6
AI-LINETYPE-38
 62
     7
100
AcDbVertex
100
AcDb2dVertex
 10
116.1954915074095
 20
-263.3127820522274
 30
0.0
  0
VERTEX
  5
1F9
330
1F7
100
AcDbEntity
  8
VALLEYLINE
  6
AI-LINETYPE-38
 62
     7
100
AcDbVertex
100
AcDb2dVertex
 10
116.1954915074095
 20
-284.2059081320735
 30
0.0
  0
SEQEND
  5
1FA
330
1F7
100
AcDbEntity
  8
VALLEYLINE
  6
AI-LINETYPE-38
  0
ENDBLK
  5
1F6
330
1F3
100
AcDbEntity
  8
0
100
AcDbBlockEnd
  0
BLOCK
  5
1FE
330
1FC
100
AcDbEntity
  8
0
100
AcDbBlockBegin
  2
BLOCK_53
 70
     0
 71
     0
 10
0.0
 20
0.0
 30
0.0
  3
BLOCK_53
  1

  0
POLYLINE
  5
200
330
1FC
100
AcDbEntity
  8
VALLEYLINE
  6
AI-LINETYPE-39
 62
     7
100
AcDb2dPolyline
 66
     1
 10
0.0
 20
0.0
 30
0.0
  0
VERTEX
  5
201
330
200
100
AcDbEntity
  8
VALLEYLINE
  6
AI-LINETYPE-39
 62
     7
100
AcDbVertex
100
AcDb2dVertex
 10
116.1954915074095
 20
-221.4224880088805
 30
0.0
  0
VERTEX
  5
202
330
200
100
AcDbEntity
  8
VALLEYLINE
  6
AI-LINETYPE-39
 62
     7
100
AcDbVertex
100
AcDb2dVertex
 10
116.1954915074095
 20
-263.3127820522274
 30
0.0
  0
SEQEND
  5
203
330
200
100
AcDbEntity
  8
VALLEYLINE
  6
AI-LINETYPE-39
  0
ENDBLK
  5
1FF
330
1FC
100
AcDbEntity
  8
0
100
AcDbBlockEnd
  0
BLOCK
  5
207
330
205
100
AcDbEntity
  8
0
100
AcDbBlockBegin
  2
BLOCK_54
 70
     0
 71
     0
 10
0.0
 20
0.0
 30
0.0
  3
BLOCK_54
  1

  0
POLYLINE
  5
209
330
205
100
AcDbEntity
  8
VALLEYLINE
  6
AI-LINETYPE-40
 62
     7
100
AcDb2dPolyline
 66
     1
 10
0.0
 20
0.0
 30
0.0
  0
VERTEX
  5
20A
330
209
100
AcDbEntity
  8
VALLEYLINE
  6
AI-LINETYPE-40
 62
     7
100
AcDbVertex
100
AcDb2dVertex
 10
123.7443847346889
 20
-200.4769964776585
 30
0.0
  0
VERTEX
  5
20B
330
209
100
AcDbEntity
  8
VALLEYLINE
  6
AI-LINETYPE-40
 62
     7
100
AcDbVertex
100
AcDb2dVertex
 10
123.7443847346889
 20
-242.3679795401025
 30
0.0
  0
SEQEND
  5
20C
330
209
100
AcDbEntity
  8
VALLEYLINE
  6
AI-LINETYPE-40
  0
ENDBLK
  5
208
330
205
100
AcDbEntity
  8
0
100
AcDbBlockEnd
  0
BLOCK
  5
211
330
20F
100
AcDbEntity
  8
0
100
AcDbBlockBegin
  2
BLOCK_55
 70
     0
 71
     0
 10
0.0
 20
0.0
 30
0.0
  3
BLOCK_55
  1

  0
POLYLINE
  5
213
330
20F
100
AcDbEntity
  8
MOUNTAINLINE
 62
     7
100
AcDb2dPolyline
 66
     1
 10
0.0
 20
0.0
 30
0.0
  0
VERTEX
  5
214
330
213
100
AcDbEntity
  8
MOUNTAINLINE
 62
     7
100
AcDbVertex
100
AcDb2dVertex
 10
75.93627792155412
 20
-74.80697562148923
 30
0.0
  0
VERTEX
  5
215
330
213
100
AcDbEntity
  8
MOUNTAINLINE
 62
     7
100
AcDbVertex
100
AcDb2dVertex
 10
83.4855156583821
 20
-53.86200085459006
 30
0.0
  0
SEQEND
  5
216
330
213
100
AcDbEntity
  8
MOUNTAINLINE
  0
ENDBLK
  5
212
330
20F
100
AcDbEntity
  8
0
100
AcDbBlockEnd
  0
BLOCK
  5
219
330
217
100
AcDbEntity
  8
0
100
AcDbBlockBegin
  2
BLOCK_56
 70
     0
 71
     0
 10
0.0
 20
0.0
 30
0.0
  3
BLOCK_56
  1

  0
POLYLINE
  5
21B
330
217
100
AcDbEntity
  8
MOUNTAINLINE
 62
     7
100
AcDb2dPolyline
 66
     1
 10
0.0
 20
0.0
 30
0.0
  0
VERTEX
  5
21C
330
21B
100
AcDbEntity
  8
MOUNTAINLINE
 62
     7
100
AcDbVertex
100
AcDb2dVertex
 10
83.4855156583821
 20
-137.6424166865095
 30
0.0
  0
VERTEX
  5
21D
330
21B
100
AcDbEntity
  8
MOUNTAINLINE
 62
     7
100
AcDbVertex
100
AcDb2dVertex
 10
75.93627792155412
 20
-116.6969251552876
 30
0.0
  0
SEQEND
  5
21E
330
21B
100
AcDbEntity
  8
MOUNTAINLINE
  0
ENDBLK
  5
21A
330
217
100
AcDbEntity
  8
0
100
AcDbBlockEnd
  0
BLOCK
  5
221
330
21F
100
AcDbEntity
  8
0
100
AcDbBlockBegin
  2
BLOCK_57
 70
     0
 71
     0
 10
0.0
 20
0.0
 30
0.0
  3
BLOCK_57
  1

  0
POLYLINE
  5
223
330
21F
100
AcDbEntity
  8
MOUNTAINLINE
 62
     7
100
AcDb2dPolyline
 66
     1
 10
0.0
 20
0.0
 30
0.0
  0
VERTEX
  5
224
330
223
100
AcDbEntity
  8
MOUNTAINLINE
 62
     7
100
AcDbVertex
100
AcDb2dVertex
 10
75.93627792155412
 20
-158.5873914534087
 30
0.0
  0
VERTEX
  5
225
330
223
100
AcDbEntity
  8
MOUNTAINLINE
 62
     7
100
AcDbVertex
100
AcDb2dVertex
 10
83.4855156583821
 20
-137.6424166865095
 30
0.0
  0
SEQEND
  5
226
330
223
100
AcDbEntity
  8
MOUNTAINLINE
  0
ENDBLK
  5
222
330
21F
100
AcDbEntity
  8
0
100
AcDbBlockEnd
  0
BLOCK
  5
229
330
227
100
AcDbEntity
  8
0
100
AcDbBlockBegin
  2
BLOCK_58
 70
     0
 71
     0
 10
0.0
 20
0.0
 30
0.0
  3
BLOCK_58
  1

  0
POLYLINE
  5
22B
330
227
100
AcDbEntity
  8
MOUNTAINLINE
 62
     7
100
AcDb2dPolyline
 66
     1
 10
0.0
 20
0.0
 30
0.0
  0
VERTEX
  5
22C
330
22B
100
AcDbEntity
  8
MOUNTAINLINE
 62
     7
100
AcDbVertex
100
AcDb2dVertex
 10
88.43784041842873
 20
-137.6424166865095
 30
0.0
  0
VERTEX
  5
22D
330
22B
100
AcDbEntity
  8
MOUNTAINLINE
 62
     7
100
AcDbVertex
100
AcDb2dVertex
 10
83.4855156583821
 20
-137.6424166865095
 30
0.0
  0
SEQEND
  5
22E
330
22B
100
AcDbEntity
  8
MOUNTAINLINE
  0
ENDBLK
  5
22A
330
227
100
AcDbEntity
  8
0
100
AcDbBlockEnd
  0
BLOCK
  5
231
330
22F
100
AcDbEntity
  8
0
100
AcDbBlockBegin
  2
BLOCK_59
 70
     0
 71
     0
 10
0.0
 20
0.0
 30
0.0
  3
BLOCK_59
  1

  0
POLYLINE
  5
233
330
22F
100
AcDbEntity
  8
MOUNTAINLINE
 62
     7
100
AcDb2dPolyline
 66
     1
 10
0.0
 20
0.0
 30
0.0
  0
VERTEX
  5
234
330
233
100
AcDbEntity
  8
MOUNTAINLINE
 62
     7
100
AcDbVertex
100
AcDb2dVertex
 10
83.4855156583821
 20
-179.5321939655336
 30
0.0
  0
VERTEX
  5
235
330
233
100
AcDbEntity
  8
MOUNTAINLINE
 62
     7
100
AcDbVertex
100
AcDb2dVertex
 10
88.43784041842873
 20
-179.5321939655336
 30
0.0
  0
SEQEND
  5
236
330
233
100
AcDbEntity
  8
MOUNTAINLINE
  0
ENDBLK
  5
232
330
22F
100
AcDbEntity
  8
0
100
AcDbBlockEnd
  0
BLOCK
  5
239
330
237
100
AcDbEntity
  8
0
100
AcDbBlockBegin
  2
BLOCK_60
 70
     0
 71
     0
 10
0.0
 20
0.0
 30
0.0
  3
BLOCK_60
  1

  0
POLYLINE
  5
23B
330
237
100
AcDbEntity
  8
MOUNTAINLINE
 62
     7
100
AcDb2dPolyline
 66
     1
 10
0.0
 20
0.0
 30
0.0
  0
VERTEX
  5
23C
330
23B
100
AcDbEntity
  8
MOUNTAINLINE
 62
     7
100
AcDbVertex
100
AcDb2dVertex
 10
88.43784041842873
 20
-95.75195038838841
 30
0.0
  0
VERTEX
  5
23D
330
23B
100
AcDbEntity
  8
MOUNTAINLINE
 62
     7
100
AcDbVertex
100
AcDb2dVertex
 10
83.4855156583821
 20
-95.75195038838841
 30
0.0
  0
SEQEND
  5
23E
330
23B
100
AcDbEntity
  8
MOUNTAINLINE
  0
ENDBLK
  5
23A
330
237
100
AcDbEntity
  8
0
100
AcDbBlockEnd
  0
BLOCK
  5
241
330
23F
100
AcDbEntity
  8
0
100
AcDbBlockBegin
  2
BLOCK_61
 70
     0
 71
     0
 10
0.0
 20
0.0
 30
0.0
  3
BLOCK_61
  1

  0
POLYLINE
  5
243
330
23F
100
AcDbEntity
  8
MOUNTAINLINE
 62
     7
100
AcDb2dPolyline
 66
     1
 10
0.0
 20
0.0
 30
0.0
  0
VERTEX
  5
244
330
243
100
AcDbEntity
  8
MOUNTAINLINE
 62
     7
100
AcDbVertex
100
AcDb2dVertex
 10
83.4855156583821
 20
-95.75195038838841
 30
0.0
  0
VERTEX
  5
245
330
243
100
AcDbEntity
  8
MOUNTAINLINE
 62
     7
100
AcDbVertex
100
AcDb2dVertex
 10
75.93627792155412
 20
-116.6969251552876
 30
0.0
  0
SEQEND
  5
246
330
243
100
AcDbEntity
  8
MOUNTAINLINE
  0
ENDBLK
  5
242
330
23F
100
AcDbEntity
  8
0
100
AcDbBlockEnd
  0
BLOCK
  5
249
330
247
100
AcDbEntity
  8
0
100
AcDbBlockBegin
  2
BLOCK_62
 70
     0
 71
     0
 10
0.0
 20
0.0
 30
0.0
  3
BLOCK_62
  1

  0
POLYLINE
  5
24B
330
247
100
AcDbEntity
  8
MOUNTAINLINE
 62
     7
100
AcDb2dPolyline
 66
     1
 10
0.0
 20
0.0
 30
0.0
  0
VERTEX
  5
24C
330
24B
100
AcDbEntity
  8
MOUNTAINLINE
 62
     7
100
AcDbVertex
100
AcDb2dVertex
 10
83.4855156583821
 20
-95.75195038838841
 30
0.0
  0
VERTEX
  5
24D
330
24B
100
AcDbEntity
  8
MOUNTAINLINE
 62
     7
100
AcDbVertex
100
AcDb2dVertex
 10
75.93627792155412
 20
-74.80697562148923
 30
0.0
  0
SEQEND
  5
24E
330
24B
100
AcDbEntity
  8
MOUNTAINLINE
  0
ENDBLK
  5
24A
330
247
100
AcDbEntity
  8
0
100
AcDbBlockEnd
  0
BLOCK
  5
251
330
24F
100
AcDbEntity
  8
0
100
AcDbBlockBegin
  2
BLOCK_63
 70
     0
 71
     0
 10
0.0
 20
0.0
 30
0.0
  3
BLOCK_63
  1

  0
POLYLINE
  5
253
330
24F
100
AcDbEntity
  8
MOUNTAINLINE
 62
     7
100
AcDb2dPolyline
 66
     1
 10
0.0
 20
0.0
 30
0.0
  0
VERTEX
  5
254
330
253
100
AcDbEntity
  8
MOUNTAINLINE
 62
     7
100
AcDbVertex
100
AcDb2dVertex
 10
75.93627792155412
 20
-116.6969251552876
 30
0.0
  0
VERTEX
  5
255
330
253
100
AcDbEntity
  8
MOUNTAINLINE
 62
     7
100
AcDbVertex
100
AcDb2dVertex
 10
70.70662297494488
 20
-116.6969251552876
 30
0.0
  0
SEQEND
  5
256
330
253
100
AcDbEntity
  8
MOUNTAINLINE
  0
ENDBLK
  5
252
330
24F
100
AcDbEntity
  8
0
100
AcDbBlockEnd
  0
BLOCK
  5
259
330
257
100
AcDbEntity
  8
0
100
AcDbBlockBegin
  2
BLOCK_64
 70
     0
 71
     0
 10
0.0
 20
0.0
 30
0.0
  3
BLOCK_64
  1

  0
POLYLINE
  5
25B
330
257
100
AcDbEntity
  8
MOUNTAINLINE
 62
     7
100
AcDb2dPolyline
 66
     1
 10
0.0
 20
0.0
 30
0.0
  0
VERTEX
  5
25C
330
25B
100
AcDbEntity
  8
MOUNTAINLINE
 62
     7
100
AcDbVertex
100
AcDb2dVertex
 10
70.70662297494488
 20
-158.5873914534087
 30
0.0
  0
VERTEX
  5
25D
330
25B
100
AcDbEntity
  8
MOUNTAINLINE
 62
     7
100
AcDbVertex
100
AcDb2dVertex
 10
75.93627792155412
 20
-158.5873914534087
 30
0.0
  0
SEQEND
  5
25E
330
25B
100
AcDbEntity
  8
MOUNTAINLINE
  0
ENDBLK
  5
25A
330
257
100
AcDbEntity
  8
0
100
AcDbBlockEnd
  0
BLOCK
  5
261
330
25F
100
AcDbEntity
  8
0
100
AcDbBlockBegin
  2
BLOCK_65
 70
     0
 71
     0
 10
0.0
 20
0.0
 30
0.0
  3
BLOCK_65
  1

  0
POLYLINE
  5
263
330
25F
100
AcDbEntity
  8
MOUNTAINLINE
 62
     7
100
AcDb2dPolyline
 66
     1
 10
0.0
 20
0.0
 30
0.0
  0
VERTEX
  5
264
330
263
100
AcDbEntity
  8
MOUNTAINLINE
 62
     7
100
AcDbVertex
100
AcDb2dVertex
 10
75.93627792155412
 20
-74.80697562148923
 30
0.0
  0
VERTEX
  5
265
330
263
100
AcDbEntity
  8
MOUNTAINLINE
 62
     7
100
AcDbVertex
100
AcDb2dVertex
 10
70.70662297494488
 20
-74.80697562148923
 30
0.0
  0
SEQEND
  5
266
330
263
100
AcDbEntity
  8
MOUNTAINLINE
  0
ENDBLK
  5
262
330
25F
100
AcDbEntity
  8
0
100
AcDbBlockEnd
  0
BLOCK
  5
269
330
267
100
AcDbEntity
  8
0
100
AcDbBlockBegin
  2
BLOCK_66
 70
     0
 71
     0
 10
0.0
 20
0.0
 30
0.0
  3
BLOCK_66
  1

  0
POLYLINE
  5
26B
330
267
100
AcDbEntity
  8
MOUNTAINLINE
 62
     7
100
AcDb2dPolyline
 66
     1
 10
0.0
 20
0.0
 30
0.0
  0
VERTEX
  5
26C
330
26B
100
AcDbEntity
  8
MOUNTAINLINE
 62
     7
100
AcDbVertex
100
AcDb2dVertex
 10
75.93627792155412
 20
-158.5873914534087
 30
0.0
  0
VERTEX
  5
26D
330
26B
100
AcDbEntity
  8
MOUNTAINLINE
 62
     7
100
AcDbVertex
100
AcDb2dVertex
 10
83.4855156583821
 20
-179.5321939655336
 30
0.0
  0
SEQEND
  5
26E
330
26B
100
AcDbEntity
  8
MOUNTAINLINE
  0
ENDBLK
  5
26A
330
267
100
AcDbEntity
  8
0
100
AcDbBlockEnd
  0
BLOCK
  5
271
330
26F
100
AcDbEntity
  8
0
100
AcDbBlockBegin
  2
BLOCK_67
 70
     0
 71
     0
 10
0.0
 20
0.0
 30
0.0
  3
BLOCK_67
  1

  0
POLYLINE
  5
273
330
26F
100
AcDbEntity
  8
MOUNTAINLINE
 62
     7
100
AcDb2dPolyline
 66
     1
 10
0.0
 20
0.0
 30
0.0
  0
VERTEX
  5
274
330
273
100
AcDbEntity
  8
MOUNTAINLINE
 62
     7
100
AcDbVertex
100
AcDb2dVertex
 10
75.93627792155412
 20
-200.4769964776585
 30
0.0
  0
VERTEX
  5
275
330
273
100
AcDbEntity
  8
MOUNTAINLINE
 62
     7
100
AcDbVertex
100
AcDb2dVertex
 10
83.4855156583821
 20
-179.5321939655336
 30
0.0
  0
SEQEND
  5
276
330
273
100
AcDbEntity
  8
MOUNTAINLINE
  0
ENDBLK
  5
272
330
26F
100
AcDbEntity
  8
0
100
AcDbBlockEnd
  0
BLOCK
  5
279
330
277
100
AcDbEntity
  8
0
100
AcDbBlockBegin
  2
BLOCK_68
 70
     0
 71
     0
 10
0.0
 20
0.0
 30
0.0
  3
BLOCK_68
  1

  0
POLYLINE
  5
27B
330
277
100
AcDbEntity
  8
MOUNTAINLINE
 62
     7
100
AcDb2dPolyline
 66
     1
 10
0.0
 20
0.0
 30
0.0
  0
VERTEX
  5
27C
330
27B
100
AcDbEntity
  8
MOUNTAINLINE
 62
     7
100
AcDbVertex
100
AcDb2dVertex
 10
83.4855156583821
 20
-263.3127820522274
 30
0.0
  0
VERTEX
  5
27D
330
27B
100
AcDbEntity
  8
MOUNTAINLINE
 62
     7
100
AcDbVertex
100
AcDb2dVertex
 10
75.93627792155412
 20
-242.3679795401025
 30
0.0
  0
SEQEND
  5
27E
330
27B
100
AcDbEntity
  8
MOUNTAINLINE
  0
ENDBLK
  5
27A
330
277
100
AcDbEntity
  8
0
100
AcDbBlockEnd
  0
BLOCK
  5
281
330
27F
100
AcDbEntity
  8
0
100
AcDbBlockBegin
  2
BLOCK_69
 70
     0
 71
     0
 10
0.0
 20
0.0
 30
0.0
  3
BLOCK_69
  1

  0
POLYLINE
  5
283
330
27F
100
AcDbEntity
  8
MOUNTAINLINE
 62
     7
100
AcDb2dPolyline
 66
     1
 10
0.0
 20
0.0
 30
0.0
  0
VERTEX
  5
284
330
283
100
AcDbEntity
  8
MOUNTAINLINE
 62
     7
100
AcDbVertex
100
AcDb2dVertex
 10
75.93627792155412
 20
-284.2582735834494
 30
0.0
  0
VERTEX
  5
285
330
283
100
AcDbEntity
  8
MOUNTAINLINE
 62
     7
100
AcDbVertex
100
AcDb2dVertex
 10
83.4855156583821
 20
-263.3127820522274
 30
0.0
  0
SEQEND
  5
286
330
283
100
AcDbEntity
  8
MOUNTAINLINE
  0
ENDBLK
  5
282
330
27F
100
AcDbEntity
  8
0
100
AcDbBlockEnd
  0
BLOCK
  5
289
330
287
100
AcDbEntity
  8
0
100
AcDbBlockBegin
  2
BLOCK_70
 70
     0
 71
     0
 10
0.0
 20
0.0
 30
0.0
  3
BLOCK_70
  1

  0
POLYLINE
  5
28B
330
287
100
AcDbEntity
  8
MOUNTAINLINE
 62
     7
100
AcDb2dPolyline
 66
     1
 10
0.0
 20
0.0
 30
0.0
  0
VERTEX
  5
28C
330
28B
100
AcDbEntity
  8
MOUNTAINLINE
 62
     7
100
AcDbVertex
100
AcDb2dVertex
 10
83.4855156583821
 20
-221.4224880088805
 30
0.0
  0
VERTEX
  5
28D
330
28B
100
AcDbEntity
  8
MOUNTAINLINE
 62
     7
100
AcDbVertex
100
AcDb2dVertex
 10
88.43784041842873
 20
-221.4224880088805
 30
0.0
  0
SEQEND
  5
28E
330
28B
100
AcDbEntity
  8
MOUNTAINLINE
  0
ENDBLK
  5
28A
330
287
100
AcDbEntity
  8
0
100
AcDbBlockEnd
  0
BLOCK
  5
291
330
28F
100
AcDbEntity
  8
0
100
AcDbBlockBegin
  2
BLOCK_71
 70
     0
 71
     0
 10
0.0
 20
0.0
 30
0.0
  3
BLOCK_71
  1

  0
POLYLINE
  5
293
330
28F
100
AcDbEntity
  8
MOUNTAINLINE
 62
     7
100
AcDb2dPolyline
 66
     1
 10
0.0
 20
0.0
 30
0.0
  0
VERTEX
  5
294
330
293
100
AcDbEntity
  8
MOUNTAINLINE
 62
     7
100
AcDbVertex
100
AcDb2dVertex
 10
88.43784041842873
 20
-263.3127820522274
 30
0.0
  0
VERTEX
  5
295
330
293
100
AcDbEntity
  8
MOUNTAINLINE
 62
     7
100
AcDbVertex
100
AcDb2dVertex
 10
83.4855156583821
 20
-263.3127820522274
 30
0.0
  0
SEQEND
  5
296
330
293
100
AcDbEntity
  8
MOUNTAINLINE
  0
ENDBLK
  5
292
330
28F
100
AcDbEntity
  8
0
100
AcDbBlockEnd
  0
BLOCK
  5
299
330
297
100
AcDbEntity
  8
0
100
AcDbBlockBegin
  2
BLOCK_72
 70
     0
 71
     0
 10
0.0
 20
0.0
 30
0.0
  3
BLOCK_72
  1

  0
POLYLINE
  5
29B
330
297
100
AcDbEntity
  8
MOUNTAINLINE
 62
     7
100
AcDb2dPolyline
 66
     1
 10
0.0
 20
0.0
 30
0.0
  0
VERTEX
  5
29C
330
29B
100
AcDbEntity
  8
MOUNTAINLINE
 62
     7
100
AcDbVertex
100
AcDb2dVertex
 10
83.4855156583821
 20
-221.4224880088805
 30
0.0
  0
VERTEX
  5
29D
330
29B
100
AcDbEntity
  8
MOUNTAINLINE
 62
     7
100
AcDbVertex
100
AcDb2dVertex
 10
75.93627792155412
 20
-200.4769964776585
 30
0.0
  0
SEQEND
  5
29E
330
29B
100
AcDbEntity
  8
MOUNTAINLINE
  0
ENDBLK
  5
29A
330
297
100
AcDbEntity
  8
0
100
AcDbBlockEnd
  0
BLOCK
  5
2A1
330
29F
100
AcDbEntity
  8
0
100
AcDbBlockBegin
  2
BLOCK_73
 70
     0
 71
     0
 10
0.0
 20
0.0
 30
0.0
  3
BLOCK_73
  1

  0
POLYLINE
  5
2A3
330
29F
100
AcDbEntity
  8
MOUNTAINLINE
 62
     7
100
AcDb2dPolyline
 66
     1
 10
0.0
 20
0.0
 30
0.0
  0
VERTEX
  5
2A4
330
2A3
100
AcDbEntity
  8
MOUNTAINLINE
 62
     7
100
AcDbVertex
100
AcDb2dVertex
 10
75.93627792155412
 20
-242.3679795401025
 30
0.0
  0
VERTEX
  5
2A5
330
2A3
100
AcDbEntity
  8
MOUNTAINLINE
 62
     7
100
AcDbVertex
100
AcDb2dVertex
 10
83.4855156583821
 20
-221.4224880088805
 30
0.0
  0
SEQEND
  5
2A6
330
2A3
100
AcDbEntity
  8
MOUNTAINLINE
  0
ENDBLK
  5
2A2
330
29F
100
AcDbEntity
  8
0
100
AcDbBlockEnd
  0
BLOCK
  5
2A9
330
2A7
100
AcDbEntity
  8
0
100
AcDbBlockBegin
  2
BLOCK_74
 70
     0
 71
     0
 10
0.0
 20
0.0
 30
0.0
  3
BLOCK_74
  1

  0
POLYLINE
  5
2AB
330
2A7
100
AcDbEntity
  8
MOUNTAINLINE
 62
     7
100
AcDb2dPolyline
 66
     1
 10
0.0
 20
0.0
 30
0.0
  0
VERTEX
  5
2AC
330
2AB
100
AcDbEntity
  8
MOUNTAINLINE
 62
     7
100
AcDbVertex
100
AcDb2dVertex
 10
75.93627792155412
 20
-242.3679795401025
 30
0.0
  0
VERTEX
  5
2AD
330
2AB
100
AcDbEntity
  8
MOUNTAINLINE
 62
     7
100
AcDbVertex
100
AcDb2dVertex
 10
70.70662297494488
 20
-242.3679795401025
 30
0.0
  0
SEQEND
  5
2AE
330
2AB
100
AcDbEntity
  8
MOUNTAINLINE
  0
ENDBLK
  5
2AA
330
2A7
100
AcDbEntity
  8
0
100
AcDbBlockEnd
  0
BLOCK
  5
2B1
330
2AF
100
AcDbEntity
  8
0
100
AcDbBlockBegin
  2
BLOCK_75
 70
     0
 71
     0
 10
0.0
 20
0.0
 30
0.0
  3
BLOCK_75
  1

  0
POLYLINE
  5
2B3
330
2AF
100
AcDbEntity
  8
MOUNTAINLINE
 62
     7
100
AcDb2dPolyline
 66
     1
 10
0.0
 20
0.0
 30
0.0
  0
VERTEX
  5
2B4
330
2B3
100
AcDbEntity
  8
MOUNTAINLINE
 62
     7
100
AcDbVertex
100
AcDb2dVertex
 10
75.93627792155412
 20
-200.4769964776585
 30
0.0
  0
VERTEX
  5
2B5
330
2B3
100
AcDbEntity
  8
MOUNTAINLINE
 62
     7
100
AcDbVertex
100
AcDb2dVertex
 10
70.70662297494488
 20
-200.4769964776585
 30
0.0
  0
SEQEND
  5
2B6
330
2B3
100
AcDbEntity
  8
MOUNTAINLINE
  0
ENDBLK
  5
2B2
330
2AF
100
AcDbEntity
  8
0
100
AcDbBlockEnd
  0
BLOCK
  5
2B9
330
2B7
100
AcDbEntity
  8
0
100
AcDbBlockBegin
  2
BLOCK_76
 70
     0
 71
     0
 10
0.0
 20
0.0
 30
0.0
  3
BLOCK_76
  1

  0
POLYLINE
  5
2BB
330
2B7
100
AcDbEntity
  8
MOUNTAINLINE
 62
     7
100
AcDb2dPolyline
 66
     1
 10
0.0
 20
0.0
 30
0.0
  0
VERTEX
  5
2BC
330
2BB
100
AcDbEntity
  8
MOUNTAINLINE
 62
     7
100
AcDbVertex
100
AcDb2dVertex
 10
83.4855156583821
 20
-53.86200085459006
 30
0.0
  0
VERTEX
  5
2BD
330
2BB
100
AcDbEntity
  8
MOUNTAINLINE
 62
     7
100
AcDbVertex
100
AcDb2dVertex
 10
75.93627792155412
 20
-32.9165093233681
 30
0.0
  0
SEQEND
  5
2BE
330
2BB
100
AcDbEntity
  8
MOUNTAINLINE
  0
ENDBLK
  5
2BA
330
2B7
100
AcDbEntity
  8
0
100
AcDbBlockEnd
  0
BLOCK
  5
2C1
330
2BF
100
AcDbEntity
  8
0
100
AcDbBlockBegin
  2
BLOCK_77
 70
     0
 71
     0
 10
0.0
 20
0.0
 30
0.0
  3
BLOCK_77
  1

  0
POLYLINE
  5
2C3
330
2BF
100
AcDbEntity
  8
MOUNTAINLINE
 62
     7
100
AcDb2dPolyline
 66
     1
 10
0.0
 20
0.0
 30
0.0
  0
VERTEX
  5
2C4
330
2C3
100
AcDbEntity
  8
MOUNTAINLINE
 62
     7
100
AcDbVertex
100
AcDb2dVertex
 10
88.43784041842873
 20
-53.86200085459006
 30
0.0
  0
VERTEX
  5
2C5
330
2C3
100
AcDbEntity
  8
MOUNTAINLINE
 62
     7
100
AcDbVertex
100
AcDb2dVertex
 10
83.4855156583821
 20
-53.86200085459006
 30
0.0
  0
SEQEND
  5
2C6
330
2C3
100
AcDbEntity
  8
MOUNTAINLINE
  0
ENDBLK
  5
2C2
330
2BF
100
AcDbEntity
  8
0
100
AcDbBlockEnd
  0
BLOCK
  5
2C9
330
2C7
100
AcDbEntity
  8
0
100
AcDbBlockBegin
  2
BLOCK_78
 70
     0
 71
     0
 10
0.0
 20
0.0
 30
0.0
  3
BLOCK_78
  1

  0
POLYLINE
  5
2CB
330
2C7
100
AcDbEntity
  8
MOUNTAINLINE
 62
     7
100
AcDb2dPolyline
 66
     1
 10
0.0
 20
0.0
 30
0.0
  0
VERTEX
  5
2CC
330
2CB
100
AcDbEntity
  8
MOUNTAINLINE
 62
     7
100
AcDbVertex
100
AcDb2dVertex
 10
116.1954915074095
 20
-53.86200085459006
 30
0.0
  0
VERTEX
  5
2CD
330
2CB
100
AcDbEntity
  8
MOUNTAINLINE
 62
     7
100
AcDbVertex
100
AcDb2dVertex
 10
123.7443847346889
 20
-32.9165093233681
 30
0.0
  0
SEQEND
  5
2CE
330
2CB
100
AcDbEntity
  8
MOUNTAINLINE
  0
ENDBLK
  5
2CA
330
2C7
100
AcDbEntity
  8
0
100
AcDbBlockEnd
  0
BLOCK
  5
2D1
330
2CF
100
AcDbEntity
  8
0
100
AcDbBlockBegin
  2
BLOCK_79
 70
     0
 71
     0
 10
0.0
 20
0.0
 30
0.0
  3
BLOCK_79
  1

  0
POLYLINE
  5
2D3
330
2CF
100
AcDbEntity
  8
MOUNTAINLINE
 62
     7
100
AcDb2dPolyline
 66
     1
 10
0.0
 20
0.0
 30
0.0
  0
VERTEX
  5
2D4
330
2D3
100
AcDbEntity
  8
MOUNTAINLINE
 62
     7
100
AcDbVertex
100
AcDb2dVertex
 10
111.2435112569113
 20
-53.86200085459006
 30
0.0
  0
VERTEX
  5
2D5
330
2D3
100
AcDbEntity
  8
MOUNTAINLINE
 62
     7
100
AcDbVertex
100
AcDb2dVertex
 10
116.1954915074095
 20
-53.86200085459006
 30
0.0
  0
SEQEND
  5
2D6
330
2D3
100
AcDbEntity
  8
MOUNTAINLINE
  0
ENDBLK
  5
2D2
330
2CF
100
AcDbEntity
  8
0
100
AcDbBlockEnd
  0
BLOCK
  5
2D9
330
2D7
100
AcDbEntity
  8
0
100
AcDbBlockBegin
  2
BLOCK_80
 70
     0
 71
     0
 10
0.0
 20
0.0
 30
0.0
  3
BLOCK_80
  1

  0
POLYLINE
  5
2DB
330
2D7
100
AcDbEntity
  8
MOUNTAINLINE
 62
     7
100
AcDb2dPolyline
 66
     1
 10
0.0
 20
0.0
 30
0.0
  0
VERTEX
  5
2DC
330
2DB
100
AcDbEntity
  8
MOUNTAINLINE
 62
     7
100
AcDbVertex
100
AcDb2dVertex
 10
123.7443847346889
 20
-32.9165093233681
 30
0.0
  0
VERTEX
  5
2DD
330
2DB
100
AcDbEntity
  8
MOUNTAINLINE
 62
     7
100
AcDbVertex
100
AcDb2dVertex
 10
128.9740396812982
 20
-32.9165093233681
 30
0.0
  0
SEQEND
  5
2DE
330
2DB
100
AcDbEntity
  8
MOUNTAINLINE
  0
ENDBLK
  5
2DA
330
2D7
100
AcDbEntity
  8
0
100
AcDbBlockEnd
  0
BLOCK
  5
2E1
330
2DF
100
AcDbEntity
  8
0
100
AcDbBlockBegin
  2
BLOCK_81
 70
     0
 71
     0
 10
0.0
 20
0.0
 30
0.0
  3
BLOCK_81
  1

  0
POLYLINE
  5
2E3
330
2DF
100
AcDbEntity
  8
MOUNTAINLINE
 62
     7
100
AcDb2dPolyline
 66
     1
 10
0.0
 20
0.0
 30
0.0
  0
VERTEX
  5
2E4
330
2E3
100
AcDbEntity
  8
MOUNTAINLINE
 62
     7
100
AcDbVertex
100
AcDb2dVertex
 10
123.7443847346889
 20
-74.80697562148923
 30
0.0
  0
VERTEX
  5
2E5
330
2E3
100
AcDbEntity
  8
MOUNTAINLINE
 62
     7
100
AcDbVertex
100
AcDb2dVertex
 10
116.1954915074095
 20
-53.86200085459006
 30
0.0
  0
SEQEND
  5
2E6
330
2E3
100
AcDbEntity
  8
MOUNTAINLINE
  0
ENDBLK
  5
2E2
330
2DF
100
AcDbEntity
  8
0
100
AcDbBlockEnd
  0
BLOCK
  5
2E9
330
2E7
100
AcDbEntity
  8
0
100
AcDbBlockBegin
  2
BLOCK_82
 70
     0
 71
     0
 10
0.0
 20
0.0
 30
0.0
  3
BLOCK_82
  1

  0
POLYLINE
  5
2EB
330
2E7
100
AcDbEntity
  8
MOUNTAINLINE
 62
     7
100
AcDb2dPolyline
 66
     1
 10
0.0
 20
0.0
 30
0.0
  0
VERTEX
  5
2EC
330
2EB
100
AcDbEntity
  8
MOUNTAINLINE
 62
     7
100
AcDbVertex
100
AcDb2dVertex
 10
116.1954915074095
 20
-137.6424166865095
 30
0.0
  0
VERTEX
  5
2ED
330
2EB
100
AcDbEntity
  8
MOUNTAINLINE
 62
     7
100
AcDbVertex
100
AcDb2dVertex
 10
123.7443847346889
 20
-116.6969251552876
 30
0.0
  0
SEQEND
  5
2EE
330
2EB
100
AcDbEntity
  8
MOUNTAINLINE
  0
ENDBLK
  5
2EA
330
2E7
100
AcDbEntity
  8
0
100
AcDbBlockEnd
  0
BLOCK
  5
2F1
330
2EF
100
AcDbEntity
  8
0
100
AcDbBlockBegin
  2
BLOCK_83
 70
     0
 71
     0
 10
0.0
 20
0.0
 30
0.0
  3
BLOCK_83
  1

  0
POLYLINE
  5
2F3
330
2EF
100
AcDbEntity
  8
MOUNTAINLINE
 62
     7
100
AcDb2dPolyline
 66
     1
 10
0.0
 20
0.0
 30
0.0
  0
VERTEX
  5
2F4
330
2F3
100
AcDbEntity
  8
MOUNTAINLINE
 62
     7
100
AcDbVertex
100
AcDb2dVertex
 10
123.7443847346889
 20
-158.5873914534087
 30
0.0
  0
VERTEX
  5
2F5
330
2F3
100
AcDbEntity
  8
MOUNTAINLINE
 62
     7
100
AcDbVertex
100
AcDb2dVertex
 10
116.1954915074095
 20
-137.6424166865095
 30
0.0
  0
SEQEND
  5
2F6
330
2F3
100
AcDbEntity
  8
MOUNTAINLINE
  0
ENDBLK
  5
2F2
330
2EF
100
AcDbEntity
  8
0
100
AcDbBlockEnd
  0
BLOCK
  5
2F9
330
2F7
100
AcDbEntity
  8
0
100
AcDbBlockBegin
  2
BLOCK_84
 70
     0
 71
     0
 10
0.0
 20
0.0
 30
0.0
  3
BLOCK_84
  1

  0
POLYLINE
  5
2FB
330
2F7
100
AcDbEntity
  8
MOUNTAINLINE
 62
     7
100
AcDb2dPolyline
 66
     1
 10
0.0
 20
0.0
 30
0.0
  0
VERTEX
  5
2FC
330
2FB
100
AcDbEntity
  8
MOUNTAINLINE
 62
     7
100
AcDbVertex
100
AcDb2dVertex
 10
111.2435112569113
 20
-137.6424166865095
 30
0.0
  0
VERTEX
  5
2FD
330
2FB
100
AcDbEntity
  8
MOUNTAINLINE
 62
     7
100
AcDbVertex
100
AcDb2dVertex
 10
116.1954915074095
 20
-137.6424166865095
 30
0.0
  0
SEQEND
  5
2FE
330
2FB
100
AcDbEntity
  8
MOUNTAINLINE
  0
ENDBLK
  5
2FA
330
2F7
100
AcDbEntity
  8
0
100
AcDbBlockEnd
  0
BLOCK
  5
301
330
2FF
100
AcDbEntity
  8
0
100
AcDbBlockBegin
  2
BLOCK_85
 70
     0
 71
     0
 10
0.0
 20
0.0
 30
0.0
  3
BLOCK_85
  1

  0
POLYLINE
  5
303
330
2FF
100
AcDbEntity
  8
MOUNTAINLINE
 62
     7
100
AcDb2dPolyline
 66
     1
 10
0.0
 20
0.0
 30
0.0
  0
VERTEX
  5
304
330
303
100
AcDbEntity
  8
MOUNTAINLINE
 62
     7
100
AcDbVertex
100
AcDb2dVertex
 10
116.1954915074095
 20
-179.5321939655336
 30
0.0
  0
VERTEX
  5
305
330
303
100
AcDbEntity
  8
MOUNTAINLINE
 62
     7
100
AcDbVertex
100
AcDb2dVertex
 10
111.2435112569113
 20
-179.5321939655336
 30
0.0
  0
SEQEND
  5
306
330
303
100
AcDbEntity
  8
MOUNTAINLINE
  0
ENDBLK
  5
302
330
2FF
100
AcDbEntity
  8
0
100
AcDbBlockEnd
  0
BLOCK
  5
309
330
307
100
AcDbEntity
  8
0
100
AcDbBlockBegin
  2
BLOCK_86
 70
     0
 71
     0
 10
0.0
 20
0.0
 30
0.0
  3
BLOCK_86
  1

  0
POLYLINE
  5
30B
330
307
100
AcDbEntity
  8
MOUNTAINLINE
 62
     7
100
AcDb2dPolyline
 66
     1
 10
0.0
 20
0.0
 30
0.0
  0
VERTEX
  5
30C
330
30B
100
AcDbEntity
  8
MOUNTAINLINE
 62
     7
100
AcDbVertex
100
AcDb2dVertex
 10
111.2435112569113
 20
-95.75195038838841
 30
0.0
  0
VERTEX
  5
30D
330
30B
100
AcDbEntity
  8
MOUNTAINLINE
 62
     7
100
AcDbVertex
100
AcDb2dVertex
 10
116.1954915074095
 20
-95.75195038838841
 30
0.0
  0
SEQEND
  5
30E
330
30B
100
AcDbEntity
  8
MOUNTAINLINE
  0
ENDBLK
  5
30A
330
307
100
AcDbEntity
  8
0
100
AcDbBlockEnd
  0
BLOCK
  5
311
330
30F
100
AcDbEntity
  8
0
100
AcDbBlockBegin
  2
BLOCK_87
 70
     0
 71
     0
 10
0.0
 20
0.0
 30
0.0
  3
BLOCK_87
  1

  0
POLYLINE
  5
313
330
30F
100
AcDbEntity
  8
MOUNTAINLINE
 62
     7
100
AcDb2dPolyline
 66
     1
 10
0.0
 20
0.0
 30
0.0
  0
VERTEX
  5
314
330
313
100
AcDbEntity
  8
MOUNTAINLINE
 62
     7
100
AcDbVertex
100
AcDb2dVertex
 10
116.1954915074095
 20
-95.75195038838841
 30
0.0
  0
VERTEX
  5
315
330
313
100
AcDbEntity
  8
MOUNTAINLINE
 62
     7
100
AcDbVertex
100
AcDb2dVertex
 10
123.7443847346889
 20
-116.6969251552876
 30
0.0
  0
SEQEND
  5
316
330
313
100
AcDbEntity
  8
MOUNTAINLINE
  0
ENDBLK
  5
312
330
30F
100
AcDbEntity
  8
0
100
AcDbBlockEnd
  0
BLOCK
  5
319
330
317
100
AcDbEntity
  8
0
100
AcDbBlockBegin
  2
BLOCK_88
 70
     0
 71
     0
 10
0.0
 20
0.0
 30
0.0
  3
BLOCK_88
  1

  0
POLYLINE
  5
31B
330
317
100
AcDbEntity
  8
MOUNTAINLINE
 62
     7
100
AcDb2dPolyline
 66
     1
 10
0.0
 20
0.0
 30
0.0
  0
VERTEX
  5
31C
330
31B
100
AcDbEntity
  8
MOUNTAINLINE
 62
     7
100
AcDbVertex
100
AcDb2dVertex
 10
116.1954915074095
 20
-95.75195038838841
 30
0.0
  0
VERTEX
  5
31D
330
31B
100
AcDbEntity
  8
MOUNTAINLINE
 62
     7
100
AcDbVertex
100
AcDb2dVertex
 10
123.7443847346889
 20
-74.80697562148923
 30
0.0
  0
SEQEND
  5
31E
330
31B
100
AcDbEntity
  8
MOUNTAINLINE
  0
ENDBLK
  5
31A
330
317
100
AcDbEntity
  8
0
100
AcDbBlockEnd
  0
BLOCK
  5
321
330
31F
100
AcDbEntity
  8
0
100
AcDbBlockBegin
  2
BLOCK_89
 70
     0
 71
     0
 10
0.0
 20
0.0
 30
0.0
  3
BLOCK_89
  1

  0
POLYLINE
  5
323
330
31F
100
AcDbEntity
  8
MOUNTAINLINE
 62
     7
100
AcDb2dPolyline
 66
     1
 10
0.0
 20
0.0
 30
0.0
  0
VERTEX
  5
324
330
323
100
AcDbEntity
  8
MOUNTAINLINE
 62
     7
100
AcDbVertex
100
AcDb2dVertex
 10
123.7443847346889
 20
-116.6969251552876
 30
0.0
  0
VERTEX
  5
325
330
323
100
AcDbEntity
  8
MOUNTAINLINE
 62
     7
100
AcDbVertex
100
AcDb2dVertex
 10
128.9740396812982
 20
-116.6969251552876
 30
0.0
  0
SEQEND
  5
326
330
323
100
AcDbEntity
  8
MOUNTAINLINE
  0
ENDBLK
  5
322
330
31F
100
AcDbEntity
  8
0
100
AcDbBlockEnd
  0
BLOCK
  5
329
330
327
100
AcDbEntity
  8
0
100
AcDbBlockBegin
  2
BLOCK_90
 70
     0
 71
     0
 10
0.0
 20
0.0
 30
0.0
  3
BLOCK_90
  1

  0
POLYLINE
  5
32B
330
327
100
AcDbEntity
  8
MOUNTAINLINE
 62
     7
100
AcDb2dPolyline
 66
     1
 10
0.0
 20
0.0
 30
0.0
  0
VERTEX
  5
32C
330
32B
100
AcDbEntity
  8
MOUNTAINLINE
 62
     7
100
AcDbVertex
100
AcDb2dVertex
 10
128.9740396812982
 20
-158.5873914534087
 30
0.0
  0
VERTEX
  5
32D
330
32B
100
AcDbEntity
  8
MOUNTAINLINE
 62
     7
100
AcDbVertex
100
AcDb2dVertex
 10
123.7443847346889
 20
-158.5873914534087
 30
0.0
  0
SEQEND
  5
32E
330
32B
100
AcDbEntity
  8
MOUNTAINLINE
  0
ENDBLK
  5
32A
330
327
100
AcDbEntity
  8
0
100
AcDbBlockEnd
  0
BLOCK
  5
331
330
32F
100
AcDbEntity
  8
0
100
AcDbBlockBegin
  2
BLOCK_91
 70
     0
 71
     0
 10
0.0
 20
0.0
 30
0.0
  3
BLOCK_91
  1

  0
POLYLINE
  5
333
330
32F
100
AcDbEntity
  8
MOUNTAINLINE
 62
     7
100
AcDb2dPolyline
 66
     1
 10
0.0
 20
0.0
 30
0.0
  0
VERTEX
  5
334
330
333
100
AcDbEntity
  8
MOUNTAINLINE
 62
     7
100
AcDbVertex
100
AcDb2dVertex
 10
123.7443847346889
 20
-74.80697562148923
 30
0.0
  0
VERTEX
  5
335
330
333
100
AcDbEntity
  8
MOUNTAINLINE
 62
     7
100
AcDbVertex
100
AcDb2dVertex
 10
128.9740396812982
 20
-74.80697562148923
 30
0.0
  0
SEQEND
  5
336
330
333
100
AcDbEntity
  8
MOUNTAINLINE
  0
ENDBLK
  5
332
330
32F
100
AcDbEntity
  8
0
100
AcDbBlockEnd
  0
BLOCK
  5
339
330
337
100
AcDbEntity
  8
0
100
AcDbBlockBegin
  2
BLOCK_92
 70
     0
 71
     0
 10
0.0
 20
0.0
 30
0.0
  3
BLOCK_92
  1

  0
POLYLINE
  5
33B
330
337
100
AcDbEntity
  8
MOUNTAINLINE
 62
     7
100
AcDb2dPolyline
 66
     1
 10
0.0
 20
0.0
 30
0.0
  0
VERTEX
  5
33C
330
33B
100
AcDbEntity
  8
MOUNTAINLINE
 62
     7
100
AcDbVertex
100
AcDb2dVertex
 10
123.7443847346889
 20
-158.5873914534087
 30
0.0
  0
VERTEX
  5
33D
330
33B
100
AcDbEntity
  8
MOUNTAINLINE
 62
     7
100
AcDbVertex
100
AcDb2dVertex
 10
116.1954915074095
 20
-179.5321939655336
 30
0.0
  0
SEQEND
  5
33E
330
33B
100
AcDbEntity
  8
MOUNTAINLINE
  0
ENDBLK
  5
33A
330
337
100
AcDbEntity
  8
0
100
AcDbBlockEnd
  0
BLOCK
  5
341
330
33F
100
AcDbEntity
  8
0
100
AcDbBlockBegin
  2
BLOCK_93
 70
     0
 71
     0
 10
0.0
 20
0.0
 30
0.0
  3
BLOCK_93
  1

  0
POLYLINE
  5
343
330
33F
100
AcDbEntity
  8
MOUNTAINLINE
 62
     7
100
AcDb2dPolyline
 66
     1
 10
0.0
 20
0.0
 30
0.0
  0
VERTEX
  5
344
330
343
100
AcDbEntity
  8
MOUNTAINLINE
 62
     7
100
AcDbVertex
100
AcDb2dVertex
 10
123.7443847346889
 20
-200.4769964776585
 30
0.0
  0
VERTEX
  5
345
330
343
100
AcDbEntity
  8
MOUNTAINLINE
 62
     7
100
AcDbVertex
100
AcDb2dVertex
 10
116.1954915074095
 20
-179.5321939655336
 30
0.0
  0
SEQEND
  5
346
330
343
100
AcDbEntity
  8
MOUNTAINLINE
  0
ENDBLK
  5
342
330
33F
100
AcDbEntity
  8
0
100
AcDbBlockEnd
  0
BLOCK
  5
349
330
347
100
AcDbEntity
  8
0
100
AcDbBlockBegin
  2
BLOCK_94
 70
     0
 71
     0
 10
0.0
 20
0.0
 30
0.0
  3
BLOCK_94
  1

  0
POLYLINE
  5
34B
330
347
100
AcDbEntity
  8
MOUNTAINLINE
 62
     7
100
AcDb2dPolyline
 66
     1
 10
0.0
 20
0.0
 30
0.0
  0
VERTEX
  5
34C
330
34B
100
AcDbEntity
  8
MOUNTAINLINE
 62
     7
100
AcDbVertex
100
AcDb2dVertex
 10
116.1954915074095
 20
-263.3127820522274
 30
0.0
  0
VERTEX
  5
34D
330
34B
100
AcDbEntity
  8
MOUNTAINLINE
 62
     7
100
AcDbVertex
100
AcDb2dVertex
 10
123.7443847346889
 20
-242.3679795401025
 30
0.0
  0
SEQEND
  5
34E
330
34B
100
AcDbEntity
  8
MOUNTAINLINE
  0
ENDBLK
  5
34A
330
347
100
AcDbEntity
  8
0
100
AcDbBlockEnd
  0
BLOCK
  5
351
330
34F
100
AcDbEntity
  8
0
100
AcDbBlockBegin
  2
BLOCK_95
 70
     0
 71
     0
 10
0.0
 20
0.0
 30
0.0
  3
BLOCK_95
  1

  0
POLYLINE
  5
353
330
34F
100
AcDbEntity
  8
MOUNTAINLINE
 62
     7
100
AcDb2dPolyline
 66
     1
 10
0.0
 20
0.0
 30
0.0
  0
VERTEX
  5
354
330
353
100
AcDbEntity
  8
MOUNTAINLINE
 62
     7
100
AcDbVertex
100
AcDb2dVertex
 10
123.7443847346889
 20
-284.2582735834494
 30
0.0
  0
VERTEX
  5
355
330
353
100
AcDbEntity
  8
MOUNTAINLINE
 62
     7
100
AcDbVertex
100
AcDb2dVertex
 10
116.1954915074095
 20
-263.3127820522274
 30
0.0
  0
SEQEND
  5
356
330
353
100
AcDbEntity
  8
MOUNTAINLINE
  0
ENDBLK
  5
352
330
34F
100
AcDbEntity
  8
0
100
AcDbBlockEnd
  0
BLOCK
  5
359
330
357
100
AcDbEntity
  8
0
100
AcDbBlockBegin
  2
BLOCK_96
 70
     0
 71
     0
 10
0.0
 20
0.0
 30
0.0
  3
BLOCK_96
  1

  0
POLYLINE
  5
35B
330
357
100
AcDbEntity
  8
MOUNTAINLINE
 62
     7
100
AcDb2dPolyline
 66
     1
 10
0.0
 20
0.0
 30
0.0
  0
VERTEX
  5
35C
330
35B
100
AcDbEntity
  8
MOUNTAINLINE
 62
     7
100
AcDbVertex
100
AcDb2dVertex
 10
116.1954915074095
 20
-221.4224880088805
 30
0.0
  0
VERTEX
  5
35D
330
35B
100
AcDbEntity
  8
MOUNTAINLINE
 62
     7
100
AcDbVertex
100
AcDb2dVertex
 10
111.2435112569113
 20
-221.4224880088805
 30
0.0
  0
SEQEND
  5
35E
330
35B
100
AcDbEntity
  8
MOUNTAINLINE
  0
ENDBLK
  5
35A
330
357
100
AcDbEntity
  8
0
100
AcDbBlockEnd
  0
BLOCK
  5
361
330
35F
100
AcDbEntity
  8
0
100
AcDbBlockBegin
  2
BLOCK_97
 70
     0
 71
     0
 10
0.0
 20
0.0
 30
0.0
  3
BLOCK_97
  1

  0
POLYLINE
  5
363
330
35F
100
AcDbEntity
  8
MOUNTAINLINE
 62
     7
100
AcDb2dPolyline
 66
     1
 10
0.0
 20
0.0
 30
0.0
  0
VERTEX
  5
364
330
363
100
AcDbEntity
  8
MOUNTAINLINE
 62
     7
100
AcDbVertex
100
AcDb2dVertex
 10
111.2435112569113
 20
-263.3127820522274
 30
0.0
  0
VERTEX
  5
365
330
363
100
AcDbEntity
  8
MOUNTAINLINE
 62
     7
100
AcDbVertex
100
AcDb2dVertex
 10
116.1954915074095
 20
-263.3127820522274
 30
0.0
  0
SEQEND
  5
366
330
363
100
AcDbEntity
  8
MOUNTAINLINE
  0
ENDBLK
  5
362
330
35F
100
AcDbEntity
  8
0
100
AcDbBlockEnd
  0
BLOCK
  5
369
330
367
100
AcDbEntity
  8
0
100
AcDbBlockBegin
  2
BLOCK_98
 70
     0
 71
     0
 10
0.0
 20
0.0
 30
0.0
  3
BLOCK_98
  1

  0
POLYLINE
  5
36B
330
367
100
AcDbEntity
  8
MOUNTAINLINE
 62
     7
100
AcDb2dPolyline
 66
     1
 10
0.0
 20
0.0
 30
0.0
  0
VERTEX
  5
36C
330
36B
100
AcDbEntity
  8
MOUNTAINLINE
 62
     7
100
AcDbVertex
100
AcDb2dVertex
 10
116.1954915074095
 20
-221.4224880088805
 30
0.0
  0
VERTEX
  5
36D
330
36B
100
AcDbEntity
  8
MOUNTAINLINE
 62
     7
100
AcDbVertex
100
AcDb2dVertex
 10
123.7443847346889
 20
-200.4769964776585
 30
0.0
  0
SEQEND
  5
36E
330
36B
100
AcDbEntity
  8
MOUNTAINLINE
  0
ENDBLK
  5
36A
330
367
100
AcDbEntity
  8
0
100
AcDbBlockEnd
  0
BLOCK
  5
371
330
36F
100
AcDbEntity
  8
0
100
AcDbBlockBegin
  2
BLOCK_99
 70
     0
 71
     0
 10
0.0
 20
0.0
 30
0.0
  3
BLOCK_99
  1

  0
POLYLINE
  5
373
330
36F
100
AcDbEntity
  8
MOUNTAINLINE
 62
     7
100
AcDb2dPolyline
 66
     1
 10
0.0
 20
0.0
 30
0.0
  0
VERTEX
  5
374
330
373
100
AcDbEntity
  8
MOUNTAINLINE
 62
     7
100
AcDbVertex
100
AcDb2dVertex
 10
123.7443847346889
 20
-242.3679795401025
 30
0.0
  0
VERTEX
  5
375
330
373
100
AcDbEntity
  8
MOUNTAINLINE
 62
     7
100
AcDbVertex
100
AcDb2dVertex
 10
116.1954915074095
 20
-221.4224880088805
 30
0.0
  0
SEQEND
  5
376
330
373
100
AcDbEntity
  8
MOUNTAINLINE
  0
ENDBLK
  5
372
330
36F
100
AcDbEntity
  8
0
100
AcDbBlockEnd
  0
BLOCK
  5
379
330
377
100
AcDbEntity
  8
0
100
AcDbBlockBegin
  2
BLOCK_100
 70
     0
 71
     0
 10
0.0
 20
0.0
 30
0.0
  3
BLOCK_100
  1

  0
POLYLINE
  5
37B
330
377
100
AcDbEntity
  8
MOUNTAINLINE
 62
     7
100
AcDb2dPolyline
 66
     1
 10
0.0
 20
0.0
 30
0.0
  0
VERTEX
  5
37C
330
37B
100
AcDbEntity
  8
MOUNTAINLINE
 62
     7
100
AcDbVertex
100
AcDb2dVertex
 10
123.7443847346889
 20
-242.3679795401025
 30
0.0
  0
VERTEX
  5
37D
330
37B
100
AcDbEntity
  8
MOUNTAINLINE
 62
     7
100
AcDbVertex
100
AcDb2dVertex
 10
128.9740396812982
 20
-242.3679795401025
 30
0.0
  0
SEQEND
  5
37E
330
37B
100
AcDbEntity
  8
MOUNTAINLINE
  0
ENDBLK
  5
37A
330
377
100
AcDbEntity
  8
0
100
AcDbBlockEnd
  0
BLOCK
  5
381
330
37F
100
AcDbEntity
  8
0
100
AcDbBlockBegin
  2
BLOCK_101
 70
     0
 71
     0
 10
0.0
 20
0.0
 30
0.0
  3
BLOCK_101
  1

  0
POLYLINE
  5
383
330
37F
100
AcDbEntity
  8
MOUNTAINLINE
 62
     7
100
AcDb2dPolyline
 66
     1
 10
0.0
 20
0.0
 30
0.0
  0
VERTEX
  5
384
330
383
100
AcDbEntity
  8
MOUNTAINLINE
 62
     7
100
AcDbVertex
100
AcDb2dVertex
 10
123.7443847346889
 20
-200.4769964776585
 30
0.0
  0
VERTEX
  5
385
330
383
100
AcDbEntity
  8
MOUNTAINLINE
 62
     7
100
AcDbVertex
100
AcDb2dVertex
 10
128.9740396812982
 20
-200.4769964776585
 30
0.0
  0
SEQEND
  5
386
330
383
100
AcDbEntity
  8
MOUNTAINLINE
  0
ENDBLK
  5
382
330
37F
100
AcDbEntity
  8
0
100
AcDbBlockEnd
  0
ENDSEC
  0
SECTION
  2
ENTITIES
  0
INSERT
  5
3D
330
1F
100
AcDbEntity
  8
CUTLINE
100
AcDbBlockReference
  2
BLOCK_2
 10
0.0
 20
0.0
 30
0.0
  0
INSERT
  5
45
330
1F
100
AcDbEntity
  8
CUTLINE
100
AcDbBlockReference
  2
BLOCK_3
 10
0.0
 20
0.0
 30
0.0
  0
INSERT
  5
4D
330
1F
100
AcDbEntity
  8
CUTLINE
100
AcDbBlockReference
  2
BLOCK_4
 10
0.0
 20
0.0
 30
0.0
  0
INSERT
  5
55
330
1F
100
AcDbEntity
  8
CUTLINE
100
AcDbBlockReference
  2
BLOCK_5
 10
0.0
 20
0.0
 30
0.0
  0
INSERT
  5
5E
330
1F
100
AcDbEntity
  8
CUTLINE
100
AcDbBlockReference
  2
BLOCK_6
 10
0.0
 20
0.0
 30
0.0
  0
INSERT
  5
66
330
1F
100
AcDbEntity
  8
CUTLINE
100
AcDbBlockReference
  2
BLOCK_7
 10
0.0
 20
0.0
 30
0.0
  0
INSERT
  5
6E
330
1F
100
AcDbEntity
  8
CUTLINE
100
AcDbBlockReference
  2
BLOCK_8
 10
0.0
 20
0.0
 30
0.0
  0
INSERT
  5
76
330
1F
100
AcDbEntity
  8
CUTLINE
100
AcDbBlockReference
  2
BLOCK_9
 10
0.0
 20
0.0
 30
0.0
  0
INSERT
  5
7E
330
1F
100
AcDbEntity
  8
CUTLINE
100
AcDbBlockReference
  2
BLOCK_10
 10
0.0
 20
0.0
 30
0.0
  0
INSERT
  5
86
330
1F
100
AcDbEntity
  8
CUTLINE
100
AcDbBlockReference
  2
BLOCK_11
 10
0.0
 20
0.0
 30
0.0
  0
INSERT
  5
8E
330
1F
100
AcDbEntity
  8
CUTLINE
100
AcDbBlockReference
  2
BLOCK_12
 10
0.0
 20
0.0
 30
0.0
  0
INSERT
  5
96
330
1F
100
AcDbEntity
  8
CUTLINE
100
AcDbBlockReference
  2
BLOCK_13
 10
0.0
 20
0.0
 30
0.0
  0
INSERT
  5
9E
330
1F
100
AcDbEntity
  8
CUTLINE
100
AcDbBlockReference
  2
BLOCK_14
 10
0.0
 20
0.0
 30
0.0
  0
INSERT
  5
A7
330
1F
100
AcDbEntity
  8
VALLEYLINE
100
AcDbBlockReference
  2
BLOCK_15
 10
0.0
 20
0.0
 30
0.0
  0
INSERT
  5
B0
330
1F
100
AcDbEntity
  8
VALLEYLINE
100
AcDbBlockReference
  2
BLOCK_16
 10
0.0
 20
0.0
 30
0.0
  0
INSERT
  5
B9
330
1F
100
AcDbEntity
  8
VALLEYLINE
100
AcDbBlockReference
  2
BLOCK_17
 10
0.0
 20
0.0
 30
0.0
  0
INSERT
  5
C2
330
1F
100
AcDbEntity
  8
VALLEYLINE
100
AcDbBlockReference
  2
BLOCK_18
 10
0.0
 20
0.0
 30
0.0
  0
INSERT
  5
CB
330
1F
100
AcDbEntity
  8
VALLEYLINE
100
AcDbBlockReference
  2
BLOCK_19
 10
0.0
 20
0.0
 30
0.0
  0
INSERT
  5
D4
330
1F
100
AcDbEntity
  8
VALLEYLINE
100
AcDbBlockReference
  2
BLOCK_20
 10
0.0
 20
0.0
 30
0.0
  0
INSERT
  5
DD
330
1F
100
AcDbEntity
  8
VALLEYLINE
100
AcDbBlockReference
  2
BLOCK_21
 10
0.0
 20
0.0
 30
0.0
  0
INSERT
  5
E6
330
1F
100
AcDbEntity
  8
VALLEYLINE
100
AcDbBlockReference
  2
BLOCK_22
 10
0.0
 20
0.0
 30
0.0
  0
INSERT
  5
EF
330
1F
100
AcDbEntity
  8
VALLEYLINE
100
AcDbBlockReference
  2
BLOCK_23
 10
0.0
 20
0.0
 30
0.0
  0
INSERT
  5
F8
330
1F
100
AcDbEntity
  8
VALLEYLINE
100
AcDbBlockReference
  2
BLOCK_24
 10
0.0
 20
0.0
 30
0.0
  0
INSERT
  5
101
330
1F
100
AcDbEntity
  8
VALLEYLINE
100
AcDbBlockReference
  2
BLOCK_25
 10
0.0
 20
0.0
 30
0.0
  0
INSERT
  5
10A
330
1F
100
AcDbEntity
  8
VALLEYLINE
100
AcDbBlockReference
  2
BLOCK_26
 10
0.0
 20
0.0
 30
0.0
  0
INSERT
  5
113
330
1F
100
AcDbEntity
  8
VALLEYLINE
100
AcDbBlockReference
  2
BLOCK_27
 10
0.0
 20
0.0
 30
0.0
  0
INSERT
  5
11C
330
1F
100
AcDbEntity
  8
VALLEYLINE
100
AcDbBlockReference
  2
BLOCK_28
 10
0.0
 20
0.0
 30
0.0
  0
INSERT
  5
125
330
1F
100
AcDbEntity
  8
VALLEYLINE
100
AcDbBlockReference
  2
BLOCK_29
 10
0.0
 20
0.0
 30
0.0
  0
INSERT
  5
12E
330
1F
100
AcDbEntity
  8
VALLEYLINE
100
AcDbBlockReference
  2
BLOCK_30
 10
0.0
 20
0.0
 30
0.0
  0
INSERT
  5
137
330
1F
100
AcDbEntity
  8
VALLEYLINE
100
AcDbBlockReference
  2
BLOCK_31
 10
0.0
 20
0.0
 30
0.0
  0
INSERT
  5
140
330
1F
100
AcDbEntity
  8
VALLEYLINE
100
AcDbBlockReference
  2
BLOCK_32
 10
0.0
 20
0.0
 30
0.0
  0
INSERT
  5
149
330
1F
100
AcDbEntity
  8
VALLEYLINE
100
AcDbBlockReference
  2
BLOCK_33
 10
0.0
 20
0.0
 30
0.0
  0
INSERT
  5
152
330
1F
100
AcDbEntity
  8
VALLEYLINE
100
AcDbBlockReference
  2
BLOCK_34
 10
0.0
 20
0.0
 30
0.0
  0
INSERT
  5
15B
330
1F
100
AcDbEntity
  8
VALLEYLINE
100
AcDbBlockReference
  2
BLOCK_35
 10
0.0
 20
0.0
 30
0.0
  0
INSERT
  5
164
330
1F
100
AcDbEntity
  8
VALLEYLINE
100
AcDbBlockReference
  2
BLOCK_36
 10
0.0
 20
0.0
 30
0.0
  0
INSERT
  5
16D
330
1F
100
AcDbEntity
  8
VALLEYLINE
100
AcDbBlockReference
  2
BLOCK_37
 10
0.0
 20
0.0
 30
0.0
  0
INSERT
  5
176
330
1F
100
AcDbEntity
  8
VALLEYLINE
100
AcDbBlockReference
  2
BLOCK_38
 10
0.0
 20
0.0
 30
0.0
  0
INSERT
  5
17F
330
1F
100
AcDbEntity
  8
VALLEYLINE
100
AcDbBlockReference
  2
BLOCK_39
 10
0.0
 20
0.0
 30
0.0
  0
INSERT
  5
188
330
1F
100
AcDbEntity
  8
VALLEYLINE
100
AcDbBlockReference
  2
BLOCK_40
 10
0.0
 20
0.0
 30
0.0
  0
INSERT
  5
191
330
1F
100
AcDbEntity
  8
VALLEYLINE
100
AcDbBlockReference
  2
BLOCK_41
 10
0.0
 20
0.0
 30
0.0
  0
INSERT
  5
19A
330
1F
100
AcDbEntity
  8
VALLEYLINE
100
AcDbBlockReference
  2
BLOCK_42
 10
0.0
 20
0.0
 30
0.0
  0
INSERT
  5
1A3
330
1F
100
AcDbEntity
  8
VALLEYLINE
100
AcDbBlockReference
  2
BLOCK_43
 10
0.0
 20
0.0
 30
0.0
  0
INSERT
  5
1AC
330
1F
100
AcDbEntity
  8
VALLEYLINE
100
AcDbBlockReference
  2
BLOCK_44
 10
0.0
 20
0.0
 30
0.0
  0
INSERT
  5
1B5
330
1F
100
AcDbEntity
  8
VALLEYLINE
100
AcDbBlockReference
  2
BLOCK_45
 10
0.0
 20
0.0
 30
0.0
  0
INSERT
  5
1BE
330
1F
100
AcDbEntity
  8
VALLEYLINE
100
AcDbBlockReference
  2
BLOCK_46
 10
0.0
 20
0.0
 30
0.0
  0
INSERT
  5
1C7
330
1F
100
AcDbEntity
  8
VALLEYLINE
100
AcDbBlockReference
  2
BLOCK_47
 10
0.0
 20
0.0
 30
0.0
  0
INSERT
  5
1D0
330
1F
100
AcDbEntity
  8
VALLEYLINE
100
AcDbBlockReference
  2
BLOCK_48
 10
0.0
 20
0.0
 30
0.0
  0
INSERT
  5
1D9
330
1F
100
AcDbEntity
  8
VALLEYLINE
100
AcDbBlockReference
  2
BLOCK_49
 10
0.0
 20
0.0
 30
0.0
  0
INSERT
  5
1E2
330
1F
100
AcDbEntity
  8
VALLEYLINE
100
AcDbBlockReference
  2
BLOCK_50
 10
0.0
 20
0.0
 30
0.0
  0
INSERT
  5
1EB
330
1F
100
AcDbEntity
  8
VALLEYLINE
100
AcDbBlockReference
  2
BLOCK_51
 10
0.0
 20
0.0
 30
0.0
  0
INSERT
  5
1F4
330
1F
100
AcDbEntity
  8
VALLEYLINE
100
AcDbBlockReference
  2
BLOCK_52
 10
0.0
 20
0.0
 30
0.0
  0
INSERT
  5
1FD
330
1F
100
AcDbEntity
  8
VALLEYLINE
100
AcDbBlockReference
  2
BLOCK_53
 10
0.0
 20
0.0
 30
0.0
  0
INSERT
  5
206
330
1F
100
AcDbEntity
  8
VALLEYLINE
100
AcDbBlockReference
  2
BLOCK_54
 10
0.0
 20
0.0
 30
0.0
  0
INSERT
  5
210
330
1F
100
AcDbEntity
  8
MOUNTAINLINE
100
AcDbBlockReference
  2
BLOCK_55
 10
0.0
 20
0.0
 30
0.0
  0
INSERT
  5
218
330
1F
100
AcDbEntity
  8
MOUNTAINLINE
100
AcDbBlockReference
  2
BLOCK_56
 10
0.0
 20
0.0
 30
0.0
  0
INSERT
  5
220
330
1F
100
AcDbEntity
  8
MOUNTAINLINE
100
AcDbBlockReference
  2
BLOCK_57
 10
0.0
 20
0.0
 30
0.0
  0
INSERT
  5
228
330
1F
100
AcDbEntity
  8
MOUNTAINLINE
100
AcDbBlockReference
  2
BLOCK_58
 10
0.0
 20
0.0
 30
0.0
  0
INSERT
  5
230
330
1F
100
AcDbEntity
  8
MOUNTAINLINE
100
AcDbBlockReference
  2
BLOCK_59
 10
0.0
 20
0.0
 30
0.0
  0
INSERT
  5
238
330
1F
100
AcDbEntity
  8
MOUNTAINLINE
100
AcDbBlockReference
  2
BLOCK_60
 10
0.0
 20
0.0
 30
0.0
  0
INSERT
  5
240
330
1F
100
AcDbEntity
  8
MOUNTAINLINE
100
AcDbBlockReference
  2
BLOCK_61
 10
0.0
 20
0.0
 30
0.0
  0
INSERT
  5
248
330
1F
100
AcDbEntity
  8
MOUNTAINLINE
100
AcDbBlockReference
  2
BLOCK_62
 10
0.0
 20
0.0
 30
0.0
  0
INSERT
  5
250
330
1F
100
AcDbEntity
  8
MOUNTAINLINE
100
AcDbBlockReference
  2
BLOCK_63
 10
0.0
 20
0.0
 30
0.0
  0
INSERT
  5
258
330
1F
100
AcDbEntity
  8
MOUNTAINLINE
100
AcDbBlockReference
  2
BLOCK_64
 10
0.0
 20
0.0
 30
0.0
  0
INSERT
  5
260
330
1F
100
AcDbEntity
  8
MOUNTAINLINE
100
AcDbBlockReference
  2
BLOCK_65
 10
0.0
 20
0.0
 30
0.0
  0
INSERT
  5
268
330
1F
100
AcDbEntity
  8
MOUNTAINLINE
100
AcDbBlockReference
  2
BLOCK_66
 10
0.0
 20
0.0
 30
0.0
  0
INSERT
  5
270
330
1F
100
AcDbEntity
  8
MOUNTAINLINE
100
AcDbBlockReference
  2
BLOCK_67
 10
0.0
 20
0.0
 30
0.0
  0
INSERT
  5
278
330
1F
100
AcDbEntity
  8
MOUNTAINLINE
100
AcDbBlockReference
  2
BLOCK_68
 10
0.0
 20
0.0
 30
0.0
  0
INSERT
  5
280
330
1F
100
AcDbEntity
  8
MOUNTAINLINE
100
AcDbBlockReference
  2
BLOCK_69
 10
0.0
 20
0.0
 30
0.0
  0
INSERT
  5
288
330
1F
100
AcDbEntity
  8
MOUNTAINLINE
100
AcDbBlockReference
  2
BLOCK_70
 10
0.0
 20
0.0
 30
0.0
  0
INSERT
  5
290
330
1F
100
AcDbEntity
  8
MOUNTAINLINE
100
AcDbBlockReference
  2
BLOCK_71
 10
0.0
 20
0.0
 30
0.0
  0
INSERT
  5
298
330
1F
100
AcDbEntity
  8
MOUNTAINLINE
100
AcDbBlockReference
  2
BLOCK_72
 10
0.0
 20
0.0
 30
0.0
  0
INSERT
  5
2A0
330
1F
100
AcDbEntity
  8
MOUNTAINLINE
100
AcDbBlockReference
  2
BLOCK_73
 10
0.0
 20
0.0
 30
0.0
  0
INSERT
  5
2A8
330
1F
100
AcDbEntity
  8
MOUNTAINLINE
100
AcDbBlockReference
  2
BLOCK_74
 10
0.0
 20
0.0
 30
0.0
  0
INSERT
  5
2B0
330
1F
100
AcDbEntity
  8
MOUNTAINLINE
100
AcDbBlockReference
  2
BLOCK_75
 10
0.0
 20
0.0
 30
0.0
  0
INSERT
  5
2B8
330
1F
100
AcDbEntity
  8
MOUNTAINLINE
100
AcDbBlockReference
  2
BLOCK_76
 10
0.0
 20
0.0
 30
0.0
  0
INSERT
  5
2C0
330
1F
100
AcDbEntity
  8
MOUNTAINLINE
100
AcDbBlockReference
  2
BLOCK_77
 10
0.0
 20
0.0
 30
0.0
  0
INSERT
  5
2C8
330
1F
100
AcDbEntity
  8
MOUNTAINLINE
100
AcDbBlockReference
  2
BLOCK_78
 10
0.0
 20
0.0
 30
0.0
  0
INSERT
  5
2D0
330
1F
100
AcDbEntity
  8
MOUNTAINLINE
100
AcDbBlockReference
  2
BLOCK_79
 10
0.0
 20
0.0
 30
0.0
  0
INSERT
  5
2D8
330
1F
100
AcDbEntity
  8
MOUNTAINLINE
100
AcDbBlockReference
  2
BLOCK_80
 10
0.0
 20
0.0
 30
0.0
  0
INSERT
  5
2E0
330
1F
100
AcDbEntity
  8
MOUNTAINLINE
100
AcDbBlockReference
  2
BLOCK_81
 10
0.0
 20
0.0
 30
0.0
  0
INSERT
  5
2E8
330
1F
100
AcDbEntity
  8
MOUNTAINLINE
100
AcDbBlockReference
  2
BLOCK_82
 10
0.0
 20
0.0
 30
0.0
  0
INSERT
  5
2F0
330
1F
100
AcDbEntity
  8
MOUNTAINLINE
100
AcDbBlockReference
  2
BLOCK_83
 10
0.0
 20
0.0
 30
0.0
  0
INSERT
  5
2F8
330
1F
100
AcDbEntity
  8
MOUNTAINLINE
100
AcDbBlockReference
  2
BLOCK_84
 10
0.0
 20
0.0
 30
0.0
  0
INSERT
  5
300
330
1F
100
AcDbEntity
  8
MOUNTAINLINE
100
AcDbBlockReference
  2
BLOCK_85
 10
0.0
 20
0.0
 30
0.0
  0
INSERT
  5
308
330
1F
100
AcDbEntity
  8
MOUNTAINLINE
100
AcDbBlockReference
  2
BLOCK_86
 10
0.0
 20
0.0
 30
0.0
  0
INSERT
  5
310
330
1F
100
AcDbEntity
  8
MOUNTAINLINE
100
AcDbBlockReference
  2
BLOCK_87
 10
0.0
 20
0.0
 30
0.0
  0
INSERT
  5
318
330
1F
100
AcDbEntity
  8
MOUNTAINLINE
100
AcDbBlockReference
  2
BLOCK_88
 10
0.0
 20
0.0
 30
0.0
  0
INSERT
  5
320
330
1F
100
AcDbEntity
  8
MOUNTAINLINE
100
AcDbBlockReference
  2
BLOCK_89
 10
0.0
 20
0.0
 30
0.0
  0
INSERT
  5
328
330
1F
100
AcDbEntity
  8
MOUNTAINLINE
100
AcDbBlockReference
  2
BLOCK_90
 10
0.0
 20
0.0
 30
0.0
  0
INSERT
  5
330
330
1F
100
AcDbEntity
  8
MOUNTAINLINE
100
AcDbBlockReference
  2
BLOCK_91
 10
0.0
 20
0.0
 30
0.0
  0
INSERT
  5
338
330
1F
100
AcDbEntity
  8
MOUNTAINLINE
100
AcDbBlockReference
  2
BLOCK_92
 10
0.0
 20
0.0
 30
0.0
  0
INSERT
  5
340
330
1F
100
AcDbEntity
  8
MOUNTAINLINE
100
AcDbBlockReference
  2
BLOCK_93
 10
0.0
 20
0.0
 30
0.0
  0
INSERT
  5
348
330
1F
100
AcDbEntity
  8
MOUNTAINLINE
100
AcDbBlockReference
  2
BLOCK_94
 10
0.0
 20
0.0
 30
0.0
  0
INSERT
  5
350
330
1F
100
AcDbEntity
  8
MOUNTAINLINE
100
AcDbBlockReference
  2
BLOCK_95
 10
0.0
 20
0.0
 30
0.0
  0
INSERT
  5
358
330
1F
100
AcDbEntity
  8
MOUNTAINLINE
100
AcDbBlockReference
  2
BLOCK_96
 10
0.0
 20
0.0
 30
0.0
  0
INSERT
  5
360
330
1F
100
AcDbEntity
  8
MOUNTAINLINE
100
AcDbBlockReference
  2
BLOCK_97
 10
0.0
 20
0.0
 30
0.0
  0
INSERT
  5
368
330
1F
100
AcDbEntity
  8
MOUNTAINLINE
100
AcDbBlockReference
  2
BLOCK_98
 10
0.0
 20
0.0
 30
0.0
  0
INSERT
  5
370
330
1F
100
AcDbEntity
  8
MOUNTAINLINE
100
AcDbBlockReference
  2
BLOCK_99
 10
0.0
 20
0.0
 30
0.0
  0
INSERT
  5
378
330
1F
100
AcDbEntity
  8
MOUNTAINLINE
100
AcDbBlockReference
  2
BLOCK_100
 10
0.0
 20
0.0
 30
0.0
  0
INSERT
  5
380
330
1F
100
AcDbEntity
  8
MOUNTAINLINE
100
AcDbBlockReference
  2
BLOCK_101
 10
0.0
 20
0.0
 30
0.0
  0
SPLINE
  5
387
330
1F
100
AcDbEntity
  8
MOUNTAINLINE
 62
     7
100
AcDbSpline
210
0.0
220
0.0
230
1.0
 70
     8
 71
     3
 72
     8
 73
     4
 74
     0
 42
0.0000000001
 43
0.0000000001
 40
0.0
 40
0.0
 40
0.0
 40
0.0
 40
1.0
 40
1.0
 40
1.0
 40
1.0
 10
88.43784041842873
 20
-263.3127820522274
 30
0.0
 10
90.4215263988356
 20
-256.7416069236618
 30
0.0
 10
96.9520494006752
 20
-246.6026909105716
 30
0.0
 10
99.84041745550866
 20
-246.6536783237533
 30
0.0
  0
SPLINE
  5
388
330
1F
100
AcDbEntity
  8
MOUNTAINLINE
 62
     7
100
AcDbSpline
210
0.0
220
0.0
230
1.0
 70
     8
 71
     3
 72
     8
 73
     4
 74
     0
 42
0.0000000001
 43
0.0000000001
 40
0.0
 40
0.0
 40
0.0
 40
0.0
 40
1.0
 40
1.0
 40
1.0
 40
1.0
 10
111.2435112569113
 20
-263.3127820522274
 30
0.0
 10
109.2598252765045
 20
-256.7416069236618
 30
0.0
 10
102.7294745294392
 20
-246.6026909105716
 30
0.0
 10
99.84041745550866
 20
-246.6536783237533
 30
0.0
  0
SPLINE
  5
389
330
1F
100
AcDbEntity
  8
MOUNTAINLINE
 62
     7
100
AcDbSpline
210
0.0
220
0.0
230
1.0
 70
     8
 71
     3
 72
     8
 73
     4
 74
     0
 42
0.0000000001
 43
0.0000000001
 40
0.0
 40
0.0
 40
0.0
 40
0.0
 40
1.0
 40
1.0
 40
1.0
 40
1.0
 10
88.43784041842873
 20
-263.3127820522274
 30
0.0
 10
90.4215263988356
 20
-269.8839571807929
 30
0.0
 10
96.9520494006752
 20
-280.0228731938832
 30
0.0
 10
99.84041745550866
 20
-279.9718857807015
 30
0.0
  0
SPLINE
  5
38A
330
1F
100
AcDbEntity
  8
MOUNTAINLINE
 62
     7
100
AcDbSpline
210
0.0
220
0.0
230
1.0
 70
     8
 71
     3
 72
     8
 73
     4
 74
     0
 42
0.0000000001
 43
0.0000000001
 40
0.0
 40
0.0
 40
0.0
 40
0.0
 40
1.0
 40
1.0
 40
1.0
 40
1.0
 10
111.2435112569113
 20
-263.3127820522274
 30
0.0
 10
109.2598252765045
 20
-269.8839571807929
 30
0.0
 10
102.7294745294392
 20
-280.0228731938832
 30
0.0
 10
99.84041745550866
 20
-279.9718857807015
 30
0.0
  0
SPLINE
  5
38B
330
1F
100
AcDbEntity
  8
MOUNTAINLINE
 62
     7
100
AcDbSpline
210
0.0
220
0.0
230
1.0
 70
     8
 71
     3
 72
     8
 73
     4
 74
     0
 42
0.0000000001
 43
0.0000000001
 40
0.0
 40
0.0
 40
0.0
 40
0.0
 40
1.0
 40
1.0
 40
1.0
 40
1.0
 10
88.43784041842873
 20
-221.4224880088805
 30
0.0
 10
90.4215263988356
 20
-214.851312880315
 30
0.0
 10
96.9520494006752
 20
-204.7123968672247
 30
0.0
 10
99.84041745550866
 20
-204.7633842804064
 30
0.0
  0
SPLINE
  5
38C
330
1F
100
AcDbEntity
  8
MOUNTAINLINE
 62
     7
100
AcDbSpline
210
0.0
220
0.0
230
1.0
 70
     8
 71
     3
 72
     8
 73
     4
 74
     0
 42
0.0000000001
 43
0.0000000001
 40
0.0
 40
0.0
 40
0.0
 40
0.0
 40
1.0
 40
1.0
 40
1.0
 40
1.0
 10
111.2435112569113
 20
-221.4224880088805
 30
0.0
 10
109.2598252765045
 20
-214.851312880315
 30
0.0
 10
102.7294745294392
 20
-204.7123968672247
 30
0.0
 10
99.84041745550866
 20
-204.7633842804064
 30
0.0
  0
SPLINE
  5
38D
330
1F
100
AcDbEntity
  8
MOUNTAINLINE
 62
     7
100
AcDbSpline
210
0.0
220
0.0
230
1.0
 70
     8
 71
     3
 72
     8
 73
     4
 74
     0
 42
0.0000000001
 43
0.0000000001
 40
0.0
 40
0.0
 40
0.0
 40
0.0
 40
1.0
 40
1.0
 40
1.0
 40
1.0
 10
88.43784041842873
 20
-221.4224880088805
 30
0.0
 10
90.4215263988356
 20
-227.9943521565431
 30
0.0
 10
96.9520494006752
 20
-238.1332681696334
 30
0.0
 10
99.84041745550866
 20
-238.0815917373546
 30
0.0
  0
SPLINE
  5
38E
330
1F
100
AcDbEntity
  8
MOUNTAINLINE
 62
     7
100
AcDbSpline
210
0.0
220
0.0
230
1.0
 70
     8
 71
     3
 72
     8
 73
     4
 74
     0
 42
0.0000000001
 43
0.0000000001
 40
0.0
 40
0.0
 40
0.0
 40
0.0
 40
1.0
 40
1.0
 40
1.0
 40
1.0
 10
111.2435112569113
 20
-221.4224880088805
 30
0.0
 10
109.2598252765045
 20
-227.9943521565431
 30
0.0
 10
102.7294745294392
 20
-238.1332681696334
 30
0.0
 10
99.84041745550866
 20
-238.0815917373546
 30
0.0
  0
SPLINE
  5
38F
330
1F
100
AcDbEntity
  8
MOUNTAINLINE
 62
     7
100
AcDbSpline
210
0.0
220
0.0
230
1.0
 70
     8
 71
     3
 72
     8
 73
     4
 74
     0
 42
0.0000000001
 43
0.0000000001
 40
0.0
 40
0.0
 40
0.0
 40
0.0
 40
1.0
 40
1.0
 40
1.0
 40
1.0
 10
88.43784041842873
 20
-179.5321939655336
 30
0.0
 10
90.4215263988356
 20
-172.9610188369681
 30
0.0
 10
96.9520494006752
 20
-162.8221028238778
 30
0.0
 10
99.84041745550866
 20
-162.8730902370595
 30
0.0
  0
SPLINE
  5
390
330
1F
100
AcDbEntity
  8
MOUNTAINLINE
 62
     7
100
AcDbSpline
210
0.0
220
0.0
230
1.0
 70
     8
 71
     3
 72
     8
 73
     4
 74
     0
 42
0.0000000001
 43
0.0000000001
 40
0.0
 40
0.0
 40
0.0
 40
0.0
 40
1.0
 40
1.0
 40
1.0
 40
1.0
 10
111.2435112569113
 20
-179.5321939655336
 30
0.0
 10
109.2598252765045
 20
-172.9610188369681
 30
0.0
 10
102.7294745294392
 20
-162.8221028238778
 30
0.0
 10
99.84041745550866
 20
-162.8730902370595
 30
0.0
  0
SPLINE
  5
391
330
1F
100
AcDbEntity
  8
MOUNTAINLINE
 62
     7
100
AcDbSpline
210
0.0
220
0.0
230
1.0
 70
     8
 71
     3
 72
     8
 73
     4
 74
     0
 42
0.0000000001
 43
0.0000000001
 40
0.0
 40
0.0
 40
0.0
 40
0.0
 40
1.0
 40
1.0
 40
1.0
 40
1.0
 10
88.43784041842873
 20
-179.5321939655336
 30
0.0
 10
90.4215263988356
 20
-186.1040581131962
 30
0.0
 10
96.9520494006752
 20
-196.2429741262865
 30
0.0
 10
99.84041745550866
 20
-196.1919867131048
 30
0.0
  0
SPLINE
  5
392
330
1F
100
AcDbEntity
  8
MOUNTAINLINE
 62
     7
100
AcDbSpline
210
0.0
220
0.0
230
1.0
 70
     8
 71
     3
 72
     8
 73
     4
 74
     0
 42
0.0000000001
 43
0.0000000001
 40
0.0
 40
0.0
 40
0.0
 40
0.0
 40
1.0
 40
1.0
 40
1.0
 40
1.0
 10
111.2435112569113
 20
-179.5321939655336
 30
0.0
 10
109.2598252765045
 20
-186.1040581131962
 30
0.0
 10
102.7294745294392
 20
-196.2429741262865
 30
0.0
 10
99.84041745550866
 20
-196.1919867131048
 30
0.0
  0
SPLINE
  5
393
330
1F
100
AcDbEntity
  8
MOUNTAINLINE
 62
     7
100
AcDbSpline
210
0.0
220
0.0
230
1.0
 70
     8
 71
     3
 72
     8
 73
     4
 74
     0
 42
0.0000000001
 43
0.0000000001
 40
0.0
 40
0.0
 40
0.0
 40
0.0
 40
1.0
 40
1.0
 40
1.0
 40
1.0
 10
88.43784041842873
 20
-137.642072176961
 30
0.0
 10
90.4215263988356
 20
-131.0708970483955
 30
0.0
 10
96.9520494006752
 20
-120.9323255448537
 30
0.0
 10
99.84041745550866
 20
-120.9826239389384
 30
0.0
  0
SPLINE
  5
394
330
1F
100
AcDbEntity
  8
MOUNTAINLINE
 62
     7
100
AcDbSpline
210
0.0
220
0.0
230
1.0
 70
     8
 71
     3
 72
     8
 73
     4
 74
     0
 42
0.0000000001
 43
0.0000000001
 40
0.0
 40
0.0
 40
0.0
 40
0.0
 40
1.0
 40
1.0
 40
1.0
 40
1.0
 10
111.2435112569113
 20
-137.642072176961
 30
0.0
 10
109.2598252765045
 20
-131.0708970483955
 30
0.0
 10
102.7294745294392
 20
-120.9323255448537
 30
0.0
 10
99.84041745550866
 20
-120.9826239389384
 30
0.0
  0
SPLINE
  5
395
330
1F
100
AcDbEntity
  8
MOUNTAINLINE
 62
     7
100
AcDbSpline
210
0.0
220
0.0
230
1.0
 70
     8
 71
     3
 72
     8
 73
     4
 74
     0
 42
0.0000000001
 43
0.0000000001
 40
0.0
 40
0.0
 40
0.0
 40
0.0
 40
1.0
 40
1.0
 40
1.0
 40
1.0
 10
88.43784041842873
 20
-137.642072176961
 30
0.0
 10
90.4215263988356
 20
-144.2139363246236
 30
0.0
 10
96.9520494006752
 20
-154.3526800829396
 30
0.0
 10
99.84041745550866
 20
-154.3010036506609
 30
0.0
  0
SPLINE
  5
396
330
1F
100
AcDbEntity
  8
MOUNTAINLINE
 62
     7
100
AcDbSpline
210
0.0
220
0.0
230
1.0
 70
     8
 71
     3
 72
     8
 73
     4
 74
     0
 42
0.0000000001
 43
0.0000000001
 40
0.0
 40
0.0
 40
0.0
 40
0.0
 40
1.0
 40
1.0
 40
1.0
 40
1.0
 10
111.2435112569113
 20
-137.642072176961
 30
0.0
 10
109.2598252765045
 20
-144.2139363246236
 30
0.0
 10
102.7294745294392
 20
-154.3526800829396
 30
0.0
 10
99.84041745550866
 20
-154.3010036506609
 30
0.0
  0
SPLINE
  5
397
330
1F
100
AcDbEntity
  8
MOUNTAINLINE
 62
     7
100
AcDbSpline
210
0.0
220
0.0
230
1.0
 70
     8
 71
     3
 72
     8
 73
     4
 74
     0
 42
0.0000000001
 43
0.0000000001
 40
0.0
 40
0.0
 40
0.0
 40
0.0
 40
1.0
 40
1.0
 40
1.0
 40
1.0
 10
88.43784041842873
 20
-95.75195038838841
 30
0.0
 10
90.4215263988356
 20
-89.18043075027434
 30
0.0
 10
96.9520494006752
 20
-79.04168699195833
 30
0.0
 10
99.84041745550866
 20
-79.09267440514003
 30
0.0
  0
SPLINE
  5
398
330
1F
100
AcDbEntity
  8
MOUNTAINLINE
 62
     7
100
AcDbSpline
210
0.0
220
0.0
230
1.0
 70
     8
 71
     3
 72
     8
 73
     4
 74
     0
 42
0.0000000001
 43
0.0000000001
 40
0.0
 40
0.0
 40
0.0
 40
0.0
 40
1.0
 40
1.0
 40
1.0
 40
1.0
 10
111.2435112569113
 20
-95.75195038838841
 30
0.0
 10
109.2598252765045
 20
-89.18043075027434
 30
0.0
 10
102.7294745294392
 20
-79.04168699195833
 30
0.0
 10
99.84041745550866
 20
-79.09267440514003
 30
0.0
  0
SPLINE
  5
399
330
1F
100
AcDbEntity
  8
MOUNTAINLINE
 62
     7
100
AcDbSpline
210
0.0
220
0.0
230
1.0
 70
     8
 71
     3
 72
     8
 73
     4
 74
     0
 42
0.0000000001
 43
0.0000000001
 40
0.0
 40
0.0
 40
0.0
 40
0.0
 40
1.0
 40
1.0
 40
1.0
 40
1.0
 10
88.43784041842873
 20
-95.75195038838841
 30
0.0
 10
90.4215263988356
 20
-102.3236422812767
 30
0.0
 10
96.9520494006752
 20
-112.4622137848185
 30
0.0
 10
99.84041745550866
 20
-112.4112263716368
 30
0.0
  0
SPLINE
  5
39A
330
1F
100
AcDbEntity
  8
MOUNTAINLINE
 62
     7
100
AcDbSpline
210
0.0
220
0.0
230
1.0
 70
     8
 71
     3
 72
     8
 73
     4
 74
     0
 42
0.0000000001
 43
0.0000000001
 40
0.0
 40
0.0
 40
0.0
 40
0.0
 40
1.0
 40
1.0
 40
1.0
 40
1.0
 10
111.2435112569113
 20
-95.75195038838841
 30
0.0
 10
109.2598252765045
 20
-102.3236422812767
 30
0.0
 10
102.7294745294392
 20
-112.4622137848185
 30
0.0
 10
99.84041745550866
 20
-112.4112263716368
 30
0.0
  0
SPLINE
  5
39B
330
1F
100
AcDbEntity
  8
MOUNTAINLINE
 62
     7
100
AcDbSpline
210
0.0
220
0.0
230
1.0
 70
     8
 71
     3
 72
     8
 73
     4
 74
     0
 42
0.0000000001
 43
0.0000000001
 40
0.0
 40
0.0
 40
0.0
 40
0.0
 40
1.0
 40
1.0
 40
1.0
 40
1.0
 10
88.43784041842873
 20
-53.86165634504153
 30
0.0
 10
90.4215263988356
 20
-47.290481216476
 30
0.0
 10
96.9520494006752
 20
-37.15173745815999
 30
0.0
 10
99.84041745550866
 20
-37.20203585224463
 30
0.0
  0
SPLINE
  5
39C
330
1F
100
AcDbEntity
  8
MOUNTAINLINE
 62
     7
100
AcDbSpline
210
0.0
220
0.0
230
1.0
 70
     8
 71
     3
 72
     8
 73
     4
 74
     0
 42
0.0000000001
 43
0.0000000001
 40
0.0
 40
0.0
 40
0.0
 40
0.0
 40
1.0
 40
1.0
 40
1.0
 40
1.0
 10
111.2435112569113
 20
-53.86165634504153
 30
0.0
 10
109.2598252765045
 20
-47.290481216476
 30
0.0
 10
102.7294745294392
 20
-37.15173745815999
 30
0.0
 10
99.84041745550866
 20
-37.20203585224463
 30
0.0
  0
SPLINE
  5
39D
330
1F
100
AcDbEntity
  8
MOUNTAINLINE
 62
     7
100
AcDbSpline
210
0.0
220
0.0
230
1.0
 70
     8
 71
     3
 72
     8
 73
     4
 74
     0
 42
0.0000000001
 43
0.0000000001
 40
0.0
 40
0.0
 40
0.0
 40
0.0
 40
1.0
 40
1.0
 40
1.0
 40
1.0
 10
88.43784041842873
 20
-53.86165634504153
 30
0.0
 10
90.4215263988356
 20
-60.43334823792986
 30
0.0
 10
96.9520494006752
 20
-70.57226425102013
 30
0.0
 10
99.84041745550866
 20
-70.52076007351565
 30
0.0
  0
SPLINE
  5
39E
330
1F
100
AcDbEntity
  8
MOUNTAINLINE
 62
     7
100
AcDbSpline
210
0.0
220
0.0
230
1.0
 70
     8
 71
     3
 72
     8
 73
     4
 74
     0
 42
0.0000000001
 43
0.0000000001
 40
0.0
 40
0.0
 40
0.0
 40
0.0
 40
1.0
 40
1.0
 40
1.0
 40
1.0
 10
111.2435112569113
 20
-53.86165634504153
 30
0.0
 10
109.2598252765045
 20
-60.43334823792986
 30
0.0
 10
102.7294745294392
 20
-70.57226425102013
 30
0.0
 10
99.84041745550866
 20
-70.52076007351565
 30
0.0
  0
MTEXT
  5
3A0
330
1F
100
AcDbEntity
  8
TEXT
 62
     7
100
AcDbMText
 10
152.5092094887824
 20
-287.6096624715004
 30
0.0
 40
3.358444443604833
 41
0.0
 71
     7
 72
     1
  1
\fArial|b0|i0|c0|p34;\W1;(c) 2016 Jun Mitani
  0
MTEXT
  5
3A1
330
1F
100
AcDbEntity
  8
TEXT
 62
     7
100
AcDbMText
 10
11.1872585692518
 20
-14.85542398717156
 30
0.0
 40
4.3179999989205
 41
0.0
 71
     7
 72
     1
  1
\fArial|b0|i0|c0|p34;\W1;A Big Cardboard Art Object
  0
ENDSEC
  0
SECTION
  2
OBJECTS
  0
DICTIONARY
  5
C
330
0
100
AcDbDictionary
  3
ACAD_GROUP
350
D
  3
ACAD_LAYOUT
350
1A
  3
ACAD_MLINESTYLE
350
17
  3
ACAD_PLOTSETTINGS
350
19
  3
ACAD_TABLESTYLE
350
3A2
  3
ACAD_VISUALSTYLE
350
2A
1001
ACAD
1000
TREAT_AS_HARD
1070
     0
  0
DICTIONARY
  5
D
102
{ACAD_REACTORS
330
C
102
}
330
C
100
AcDbDictionary
1001
ACAD
1000
TREAT_AS_HARD
1070
     0
  0
DICTIONARY
  5
1A
102
{ACAD_REACTORS
330
C
102
}
330
C
100
AcDbDictionary
1001
ACAD
1000
TREAT_AS_HARD
1070
     0
  0
DICTIONARY
  5
17
102
{ACAD_REACTORS
330
C
102
}
330
C
100
AcDbDictionary
  3
STANDARD
350
18
1001
ACAD
1000
TREAT_AS_HARD
1070
     0
  0
DICTIONARY
  5
19
102
{ACAD_REACTORS
330
C
102
}
330
C
100
AcDbDictionary
1001
ACAD
1000
TREAT_AS_HARD
1070
     0
  0
DICTIONARY
  5
3A2
102
{ACAD_REACTORS
330
C
102
}
330
C
100
AcDbDictionary
1001
ACAD
1000
TREAT_AS_HARD
1070
     0
  0
DICTIONARY
  5
2A
102
{ACAD_REACTORS
330
C
102
}
330
C
100
AcDbDictionary
  3
2DWIREFRAME
350
2F
  3
3D_HIDDEN
350
31
  3
3DWIREFRAME
350
30
  3
BASIC
350
32
  3
BRIGHTEN
350
36
  3
COLORCHANGE
350
3A
  3
CONCEPTUAL
350
34
  3
DIM
350
35
  3
FACEPATTERN
350
39
  3
FLAT
350
2B
  3
FLATWITHEDGES
350
2C
  3
GOURAUD
350
2D
  3
GOURAUDWITHEDGES
350
2E
  3
LINEPATTERN
350
38
  3
REALISTIC
350
33
  3
THICKEN
350
37
1001
ACAD
1000
TREAT_AS_HARD
1070
     0
  0
MLINESTYLE
  5
18
102
{ACAD_REACTORS
330
17
102
}
330
17
100
AcDbMlineStyle
  2
Standard
 70
     0
  3

 62
   256
 51
90.0
 52
90.0
 71
     2
 49
0.5
 62
   256
  6
BYLAYER
 49
-0.5
 62
   256
  6
BYLAYER
  0
VISUALSTYLE
  5
2F
102
{ACAD_REACTORS
330
2A
102
}
330
2A
100
AcDbVisualStyle
  2
2dWireframe
 70
     4
 71
     0
 72
     2
 73
     0
 90
        0
 40
-0.6
 41
-30.0
 62
     5
 63
     7
 74
     1
 91
        4
 64
     7
 65
   257
 75
     1
175
     1
 42
1.0
 92
        0
 66
   257
 43
1.0
 76
     1
 77
     6
 78
     2
 67
     7
 79
     5
170
     0
171
     0
290
     0
174
     0
 93
        1
 44
0.0
173
     0
291
     0
 45
0.0
1001
ACAD
1000
AcDbSavedByObjectVersion
1070
     0
  0
VISUALSTYLE
  5
31
102
{ACAD_REACTORS
330
2A
102
}
330
2A
100
AcDbVisualStyle
  2
3D Hidden
 70
     6
 71
     1
 72
     2
 73
     2
 90
        0
 40
-0.6
 41
-30.0
 62
     5
 63
     7
 74
     2
 91
        2
 64
     7
 65
   257
 75
     2
175
     1
 42
40.0
 92
        0
 66
   257
 43
1.0
 76
     1
 77
     6
 78
     2
 67
     7
 79
     3
170
     0
171
     0
290
     0
174
     0
 93
        1
 44
0.0
173
     0
291
     0
 45
0.0
1001
ACAD
1000
AcDbSavedByObjectVersion
1070
     0
  0
VISUALSTYLE
  5
30
102
{ACAD_REACTORS
330
2A
102
}
330
2A
100
AcDbVisualStyle
  2
3dWireframe
 70
     5
 71
     0
 72
     2
 73
     0
 90
        0
 40
-0.6
 41
-30.0
 62
     5
 63
     7
 74
     1
 91
        4
 64
     7
 65
   257
 75
     1
175
     1
 42
1.0
 92
        0
 66
   257
 43
1.0
 76
     1
 77
     6
 78
     2
 67
     7
 79
     5
170
     0
171
     0
290
     0
174
     0
 93
        1
 44
0.0
173
     0
291
     0
 45
0.0
1001
ACAD
1000
AcDbSavedByObjectVersion
1070
     0
  0
VISUALSTYLE
  5
32
102
{ACAD_REACTORS
330
2A
102
}
330
2A
100
AcDbVisualStyle
  2
Basic
 70
     7
 71
     1
 72
     0
 73
     1
 90
        0
 40
-0.6
 41
-30.0
 62
     5
 63
     7
 74
     0
 91
        4
 64
     7
 65
   257
 75
     1
175
     1
 42
1.0
 92
        8
 66
     7
 43
1.0
 76
     1
 77
     6
 78
     2
 67
     7
 79
     5
170
     0
171
     0
290
     0
174
     0
 93
        1
 44
0.0
173
     0
291
     1
 45
0.0
1001
ACAD
1000
AcDbSavedByObjectVersion
1070
     0
  0
VISUALSTYLE
  5
36
102
{ACAD_REACTORS
330
2A
102
}
330
2A
100
AcDbVisualStyle
  2
Brighten
 70
    12
 71
     2
 72
     2
 73
     0
 90
        0
 40
-0.6
 41
-30.0
 62
     5
 63
     7
 74
     1
 91
        4
 64
     7
 65
   257
 75
     1
175
     1
 42
1.0
 92
        8
 66
     7
 43
1.0
 76
     1
 77
     6
 78
     2
 67
     7
 79
     5
170
     0
171
     0
290
     0
174
     0
 93
        1
 44
50.0
173
     0
291
     1
 45
0.0
1001
ACAD
1000
AcDbSavedByObjectVersion
1070
     0
  0
VISUALSTYLE
  5
3A
102
{ACAD_REACTORS
330
2A
102
}
330
2A
100
AcDbVisualStyle
  2
ColorChange
 70
    16
 71
     2
 72
     2
 73
     3
 90
        0
 40
-0.6
 41
-30.0
 62
     5
 63
     8
 74
     1
 91
        4
 64
     7
 65
   257
 75
     1
175
     1
 42
1.0
 92
        8
 66
     8
 43
1.0
 76
     1
 77
     6
 78
     2
 67
     7
 79
     5
170
     0
171
     0
290
     0
174
     0
 93
        1
 44
0.0
173
     0
291
     1
 45
0.0
1001
ACAD
1000
AcDbSavedByObjectVersion
1070
     0
  0
VISUALSTYLE
  5
34
102
{ACAD_REACTORS
330
2A
102
}
330
2A
100
AcDbVisualStyle
  2
Conceptual
 70
     9
 71
     3
 72
     2
 73
     0
 90
        0
 40
-0.6
 41
-30.0
 62
     5
 63
     7
 74
     2
 91
        2
 64
     7
 65
   257
 75
     1
175
     1
 42
40.0
 92
        8
 66
     7
 43
1.0
 76
     1
 77
     6
 78
     2
 67
     7
 79
     3
170
     0
171
     0
290
     0
174
     0
 93
        1
 44
0.0
173
     0
291
     0
 45
0.0
1001
ACAD
1000
AcDbSavedByObjectVersion
1070
     0
  0
VISUALSTYLE
  5
35
102
{ACAD_REACTORS
330
2A
102
}
330
2A
100
AcDbVisualStyle
  2
Dim
 70
    11
 71
     2
 72
     2
 73
     0
 90
        0
 40
-0.6
 41
-30.0
 62
     5
 63
     7
 74
     1
 91
        4
 64
     7
 65
   257
 75
     1
175
     1
 42
1.0
 92
        8
 66
     7
 43
1.0
 76
     1
 77
     6
 78
     2
 67
     7
 79
     5
170
     0
171
     0
290
     0
174
     0
 93
        1
 44
-50.0
173
     0
291
     1
 45
0.0
1001
ACAD
1000
AcDbSavedByObjectVersion
1070
     0
  0
VISUALSTYLE
  5
39
102
{ACAD_REACTORS
330
2A
102
}
330
2A
100
AcDbVisualStyle
  2
Facepattern
 70
    15
 71
     2
 72
     2
 73
     0
 90
        0
 40
-0.6
 41
-30.0
 62
     5
 63
     7
 74
     1
 91
        4
 64
     7
 65
   257
 75
     1
175
     1
 42
1.0
 92
        8
 66
     7
 43
1.0
 76
     1
 77
     6
 78
     2
 67
     7
 79
     5
170
     0
171
     0
290
     0
174
     0
 93
        1
 44
0.0
173
     0
291
     1
 45
0.0
1001
ACAD
1000
AcDbSavedByObjectVersion
1070
     0
  0
VISUALSTYLE
  5
2B
102
{ACAD_REACTORS
330
2A
102
}
330
2A
100
AcDbVisualStyle
  2
Flat
 70
     0
 71
     2
 72
     1
 73
     1
 90
        2
 40
-0.6
 41
30.0
 62
     5
 63
     7
 74
     0
 91
        4
 64
     7
 65
   257
 75
     1
175
     1
 42
1.0
 92
        8
 66
     7
 43
1.0
 76
     1
 77
     6
 78
     2
 67
     7
 79
     5
170
     0
171
     0
290
     0
174
     0
 93
       13
 44
0.0
173
     0
291
     1
 45
0.0
1001
ACAD
1000
AcDbSavedByObjectVersion
1070
     0
  0
VISUALSTYLE
  5
2C
102
{ACAD_REACTORS
330
2A
102
}
330
2A
100
AcDbVisualStyle
  2
FlatWithEdges
 70
     1
 71
     2
 72
     1
 73
     1
 90
        2
 40
-0.6
 41
30.0
 62
     5
 63
     7
 74
     1
 91
        4
 64
     7
 65
   257
 75
     1
175
     1
 42
1.0
 92
        0
 66
   257
 43
1.0
 76
     1
 77
     6
 78
     2
 67
     7
 79
     5
170
     0
171
     0
290
     0
174
     0
 93
       13
 44
0.0
173
     0
291
     1
 45
0.0
1001
ACAD
1000
AcDbSavedByObjectVersion
1070
     0
  0
VISUALSTYLE
  5
2D
102
{ACAD_REACTORS
330
2A
102
}
330
2A
100
AcDbVisualStyle
  2
Gouraud
 70
     2
 71
     2
 72
     2
 73
     1
 90
        2
 40
-0.6
 41
30.0
 62
     5
 63
     7
 74
     0
 91
        4
 64
     7
 65
   257
 75
     1
175
     1
 42
1.0
 92
        0
 66
     7
 43
1.0
 76
     1
 77
     6
 78
     2
 67
     7
 79
     5
170
     0
171
     0
290
     0
174
     0
 93
       13
 44
0.0
173
     0
291
     1
 45
0.0
1001
ACAD
1000
AcDbSavedByObjectVersion
1070
     0
  0
VISUALSTYLE
  5
2E
102
{ACAD_REACTORS
330
2A
102
}
330
2A
100
AcDbVisualStyle
  2
GouraudWithEdges
 70
     3
 71
     2
 72
     2
 73
     1
 90
        2
 40
-0.6
 41
30.0
 62
     5
 63
     7
 74
     1
 91
        4
 64
     7
 65
   257
 75
     1
175
     1
 42
1.0
 92
        0
 66
   257
 43
1.0
 76
     1
 77
     6
 78
     2
 67
     7
 79
     5
170
     0
171
     0
290
     0
174
     0
 93
       13
 44
0.0
173
     0
291
     1
 45
0.0
1001
ACAD
1000
AcDbSavedByObjectVersion
1070
     0
  0
VISUALSTYLE
  5
38
102
{ACAD_REACTORS
330
2A
102
}
330
2A
100
AcDbVisualStyle
  2
Linepattern
 70
    14
 71
     2
 72
     2
 73
     0
 90
        0
 40
-0.6
 41
-30.0
 62
     5
 63
     7
 74
     1
 91
        4
 64
     7
 65
   257
 75
     7
175
     7
 42
1.0
 92
        8
 66
     7
 43
1.0
 76
     1
 77
     6
 78
     2
 67
     7
 79
     5
170
     0
171
     0
290
     0
174
     0
 93
        1
 44
0.0
173
     0
291
     1
 45
0.0
1001
ACAD
1000
AcDbSavedByObjectVersion
1070
     0
  0
VISUALSTYLE
  5
33
102
{ACAD_REACTORS
330
2A
102
}
330
2A
100
AcDbVisualStyle
  2
Realistic
 70
     8
 71
     2
 72
     2
 73
     0
 90
        0
 40
-0.6
 41
-30.0
 62
     5
 63
     7
 74
     1
 91
        0
 64
     7
 65
   257
 75
     1
175
     1
 42
1.0
 92
        8
 66
     8
 43
1.0
 76
     1
 77
     6
 78
     2
 67
     7
 79
     5
170
     0
171
     0
290
     0
174
     0
 93
       13
 44
0.0
173
     0
291
     0
 45
0.0
1001
ACAD
1000
AcDbSavedByObjectVersion
1070
     0
  0
VISUALSTYLE
  5
37
102
{ACAD_REACTORS
330
2A
102
}
330
2A
100
AcDbVisualStyle
  2
Thicken
 70
    13
 71
     2
 72
     2
 73
     0
 90
        0
 40
-0.6
 41
-30.0
 62
     5
 63
     7
 74
     1
 91
        4
 64
     7
 65
   257
 75
     1
175
     1
 42
1.0
 92
       12
 66
     7
 43
1.0
 76
     1
 77
     6
 78
     2
 67
     7
 79
     5
170
     0
171
     0
290
     0
174
     0
 93
        1
 44
0.0
173
     0
291
     1
 45
0.0
1001
ACAD
1000
AcDbSavedByObjectVersion
1070
     0
  0
ENDSEC
  0
EOF
