<?xml version="1.0" encoding="utf-8"?>
<!-- Generator: Adobe Illustrator 16.0.3, SVG Export Plug-In . SVG Version: 6.00 Build 0)  -->
<!DOCTYPE svg PUBLIC "-//W3C//DTD SVG 1.1//EN" "http://www.w3.org/Graphics/SVG/1.1/DTD/svg11.dtd">
<svg version="1.1" xmlns="http://www.w3.org/2000/svg" xmlns:xlink="http://www.w3.org/1999/xlink" x="0px" y="0px"
	 width="595.28px" height="841.89px" viewBox="0 0 595.28 841.89" enable-background="new 0 0 595.28 841.89" xml:space="preserve">
<g id="CutLine">
	<polygon fill="none" stroke="#040000" stroke-width="2" stroke-linecap="round" stroke-linejoin="round" points="395.259,172.938 
		328.878,211.264 259.244,211.266 192.86,172.938 123.225,172.938 56.845,211.264 22.024,271.572 22.026,348.221 56.844,408.529 
		123.224,446.854 158.041,507.16 158.041,583.81 192.859,644.118 259.242,682.443 328.878,682.443 395.259,644.119 430.077,583.813 
		430.077,507.16 464.895,446.854 531.276,408.529 566.095,348.225 566.095,271.572 531.278,211.266 464.896,172.938 	"/>
</g>
<g id="ValleyLine">
	<g id="LINE_80_">
		<polyline fill="none" stroke="#040000" stroke-linecap="round" stroke-linejoin="round" stroke-dasharray="4" points="
			294.493,542.874 295.141,538.954 296.262,533.135 297.466,528.679 298.941,524.527 300.871,519.695 303.155,514.538 
			305.688,509.37 308.261,503.982 310.672,498.083 312.707,491.934 314.158,485.787 314.719,479.775 314.076,473.663 
			312.498,467.839 310.258,462.714 307.889,458.116 305.938,454.468 304.194,451.284 304.194,451.284 353.563,365.773 
			353.563,365.773 357.192,365.691 361.327,365.56 366.494,365.308 372.055,364.686 377.887,363.142 383.5,360.646 388.426,357.154 
			393.024,352.82 397.329,347.984 401.236,342.947 404.613,338.026 407.824,333.246 411.146,328.691 414.367,324.601 
			417.227,321.249 420.483,317.976 424.961,314.099 428.03,311.579 		"/>
		<polyline fill="none" stroke="#040000" stroke-linecap="round" stroke-linejoin="round" stroke-dasharray="4" points="
			160.09,311.579 163.16,314.099 167.638,317.976 170.895,321.249 173.753,324.601 176.971,328.689 180.298,333.248 
			183.506,338.026 186.884,342.947 190.79,347.984 195.097,352.82 199.696,357.154 204.621,360.646 210.234,363.142 
			216.066,364.686 221.626,365.308 226.793,365.56 230.929,365.693 234.558,365.773 234.558,365.773 283.929,451.284 
			283.929,451.284 282.183,454.468 280.232,458.116 277.863,462.714 275.623,467.839 274.045,473.663 273.399,479.772 
			273.96,485.787 275.415,491.936 277.45,498.083 279.856,503.982 282.431,509.37 284.965,514.538 287.249,519.695 289.181,524.53 
			290.655,528.679 291.861,533.135 292.98,538.954 293.628,542.874 		"/>
		<polyline fill="none" stroke="#040000" stroke-linecap="round" stroke-linejoin="round" stroke-dasharray="4" points="
			427.599,310.828 423.88,312.228 418.282,314.163 413.82,315.349 409.488,316.15 404.338,316.894 398.729,317.494 392.984,317.885 
			387.032,318.349 380.72,319.213 374.379,320.522 368.326,322.337 362.837,324.861 357.871,328.473 353.616,332.75 
			350.298,337.256 347.497,341.607 345.313,345.119 343.431,348.221 343.431,348.221 244.692,348.221 244.692,348.221 
			242.806,345.121 240.624,341.607 237.823,337.256 234.505,332.752 230.249,328.473 225.281,324.861 219.793,322.337 
			213.742,320.522 207.4,319.213 201.088,318.349 195.134,317.885 189.393,317.494 183.782,316.894 178.632,316.15 174.3,315.349 
			169.839,314.163 164.24,312.228 160.521,310.828 		"/>
		
			<line fill="none" stroke="#040000" stroke-linecap="round" stroke-linejoin="round" stroke-dasharray="4" x1="343.429" y1="271.572" x2="343.429" y2="271.572"/>
		<polyline fill="none" stroke="#040000" stroke-linecap="round" stroke-linejoin="round" stroke-dasharray="4" points="
			428.03,308.218 424.961,305.696 420.483,301.815 417.227,298.543 414.367,295.192 411.148,291.104 407.824,286.546 
			404.613,281.77 401.236,276.844 397.329,271.809 393.024,266.973 388.426,262.642 383.5,259.148 377.886,256.651 372.055,255.104 
			366.494,254.485 361.324,254.237 357.192,254.102 353.563,254.019 328.878,211.264 328.878,211.264 353.563,254.019 
			353.563,254.019 		"/>
		<polyline fill="none" stroke="#040000" stroke-linecap="round" stroke-linejoin="round" stroke-dasharray="4" points="
			160.521,308.964 164.24,307.567 169.839,305.627 174.3,304.442 178.632,303.644 183.784,302.899 189.391,302.298 195.134,301.909 
			201.088,301.445 207.4,300.582 213.742,299.271 219.793,297.454 225.281,294.933 230.249,291.323 234.505,287.042 
			237.823,282.539 240.624,278.188 242.806,274.674 244.692,271.572 244.692,271.572 343.429,271.572 345.315,274.674 
			347.497,278.188 350.298,282.537 353.616,287.042 357.871,291.323 362.84,294.933 368.326,297.454 374.379,299.269 
			380.72,300.582 387.032,301.445 392.986,301.909 398.729,302.298 404.338,302.899 409.488,303.644 413.82,304.442 
			418.282,305.627 423.88,307.565 427.599,308.964 		"/>
		<polyline fill="none" stroke="#040000" stroke-linecap="round" stroke-linejoin="round" stroke-dasharray="4" points="
			234.558,254.021 234.558,254.019 234.558,254.019 259.244,211.266 259.244,211.266 234.558,254.019 230.929,254.102 
			226.793,254.237 221.626,254.485 216.066,255.104 210.234,256.651 204.621,259.148 199.694,262.642 195.097,266.973 
			190.79,271.809 186.884,276.844 183.506,281.77 180.298,286.546 176.971,291.104 173.753,295.192 170.895,298.543 
			167.636,301.815 163.16,305.696 160.09,308.218 		"/>
		
			<line fill="none" stroke="#040000" stroke-linecap="round" stroke-linejoin="round" stroke-dasharray="4" x1="147.909" y1="215.696" x2="147.909" y2="215.696"/>
		<polyline fill="none" stroke="#040000" stroke-linecap="round" stroke-linejoin="round" stroke-dasharray="4" points="
			192.86,172.938 192.86,172.938 168.177,215.696 168.177,215.696 		"/>
		<polyline fill="none" stroke="#040000" stroke-linecap="round" stroke-linejoin="round" stroke-dasharray="4" points="
			147.909,215.696 168.177,215.696 169.919,218.879 171.871,222.525 174.239,227.127 176.482,232.25 178.059,238.077 
			178.705,244.184 178.141,250.197 176.689,256.347 174.654,262.495 172.245,268.392 169.671,273.779 167.138,278.95 
			164.854,284.106 162.922,288.939 161.448,293.09 160.244,297.547 159.121,303.366 158.475,307.281 		"/>
		<polyline fill="none" stroke="#040000" stroke-linecap="round" stroke-linejoin="round" stroke-dasharray="4" points="
			123.225,172.938 123.225,172.938 147.909,215.696 146.167,218.879 144.214,222.525 141.847,227.127 139.605,232.25 
			138.027,238.077 137.383,244.184 137.944,250.198 139.397,256.349 141.434,262.495 143.839,268.392 146.416,273.779 
			148.948,278.95 151.232,284.106 153.164,288.939 154.638,293.09 155.841,297.547 156.963,303.366 157.612,307.283 		"/>
		<polyline fill="none" stroke="#040000" stroke-linecap="round" stroke-linejoin="round" stroke-dasharray="4" points="
			155.565,308.964 151.846,307.565 146.247,305.627 141.785,304.442 137.455,303.644 132.303,302.899 126.695,302.298 
			120.951,301.909 114.999,301.445 108.686,300.582 102.346,299.269 96.292,297.454 90.805,294.933 85.837,291.323 81.58,287.042 
			78.264,282.539 75.462,278.188 73.281,274.674 71.396,271.572 22.024,271.572 22.024,271.572 		"/>
		<polyline fill="none" stroke="#040000" stroke-linecap="round" stroke-linejoin="round" stroke-dasharray="4" points="
			56.845,211.264 56.845,211.264 81.529,254.019 85.157,254.102 89.29,254.237 94.459,254.485 100.019,255.104 105.852,256.651 
			111.464,259.148 116.392,262.638 120.99,266.973 125.296,271.809 129.202,276.844 132.578,281.77 135.79,286.546 139.114,291.104 
			142.334,295.192 145.19,298.543 148.448,301.815 152.928,305.696 155.998,308.218 		"/>
		<polyline fill="none" stroke="#040000" stroke-linecap="round" stroke-linejoin="round" stroke-dasharray="4" points="
			71.396,271.572 71.396,271.572 71.396,271.572 81.529,254.019 81.529,254.019 		"/>
		<polyline fill="none" stroke="#040000" stroke-linecap="round" stroke-linejoin="round" stroke-dasharray="4" points="
			155.565,310.828 151.846,312.228 146.247,314.167 141.787,315.349 137.455,316.148 132.303,316.894 126.693,317.494 
			120.951,317.885 114.999,318.349 108.686,319.213 102.346,320.522 96.292,322.337 90.803,324.861 85.837,328.473 81.583,332.75 
			78.264,337.256 75.462,341.607 73.281,345.119 71.396,348.221 22.026,348.221 22.026,348.221 71.396,348.221 71.396,348.221 
			71.396,348.221 		"/>
		<polyline fill="none" stroke="#040000" stroke-linecap="round" stroke-linejoin="round" stroke-dasharray="4" points="
			56.844,408.529 56.844,408.529 81.527,365.775 81.529,365.773 81.529,365.773 81.529,365.773 85.157,365.691 89.29,365.56 
			94.459,365.308 100.021,364.686 105.852,363.143 111.466,360.643 116.392,357.153 120.99,352.82 125.296,347.984 129.202,342.947 
			132.578,338.026 135.79,333.246 139.114,328.691 142.334,324.601 145.192,321.249 148.448,317.976 152.925,314.099 
			155.995,311.579 		"/>
		
			<line fill="none" stroke="#040000" stroke-linecap="round" stroke-linejoin="round" stroke-dasharray="4" x1="168.177" y1="404.099" x2="168.177" y2="404.099"/>
		<polyline fill="none" stroke="#040000" stroke-linecap="round" stroke-linejoin="round" stroke-dasharray="4" points="
			157.612,312.51 156.963,316.429 155.841,322.248 154.638,326.703 153.164,330.852 151.23,335.686 148.948,340.843 
			146.416,346.013 143.842,351.401 141.434,357.301 139.397,363.447 137.944,369.596 137.383,375.609 138.026,381.72 
			139.605,387.542 141.847,392.667 144.214,397.267 146.167,400.914 147.909,404.099 147.909,404.099 147.909,404.099 
			123.224,446.854 123.224,446.854 		"/>
		<polyline fill="none" stroke="#040000" stroke-linecap="round" stroke-linejoin="round" stroke-dasharray="4" points="
			292.015,543.807 288.945,541.283 284.466,537.406 281.207,534.135 278.352,530.783 275.129,526.692 271.808,522.135 
			268.596,517.357 265.219,512.433 261.312,507.397 257.007,502.563 252.408,498.23 247.481,494.736 241.869,492.239 
			236.037,490.694 230.477,490.073 225.307,489.825 221.175,489.69 217.545,489.607 217.545,489.607 217.545,489.607 
			168.177,404.099 169.92,400.914 171.871,397.267 174.239,392.667 176.482,387.542 178.059,381.718 178.705,375.61 
			178.143,369.596 176.689,363.447 174.654,357.301 172.245,351.401 169.671,346.015 167.138,340.843 164.854,335.686 
			162.922,330.852 161.448,326.703 160.244,322.248 159.125,316.429 158.475,312.51 		"/>
		<polyline fill="none" stroke="#040000" stroke-linecap="round" stroke-linejoin="round" stroke-dasharray="4" points="
			158.041,507.16 158.041,507.16 207.413,507.157 207.413,507.16 207.413,507.16 207.413,507.16 209.298,510.263 211.48,513.776 
			214.28,518.125 217.598,522.632 221.852,526.909 226.82,530.521 232.309,533.043 238.362,534.858 244.701,536.17 251.015,537.033 
			256.967,537.498 262.712,537.889 268.32,538.489 273.47,539.232 277.805,540.031 282.265,541.216 287.863,543.156 
			291.582,544.553 		"/>
		<polyline fill="none" stroke="#040000" stroke-linecap="round" stroke-linejoin="round" stroke-dasharray="4" points="
			291.582,546.418 287.863,547.816 282.265,549.756 277.805,550.939 273.47,551.739 268.32,552.482 262.712,553.082 
			256.967,553.474 251.015,553.938 244.701,554.802 238.362,556.113 232.309,557.928 226.82,560.449 221.854,564.062 
			217.596,568.34 214.28,572.847 211.48,577.195 209.298,580.709 207.413,583.812 207.413,583.812 207.413,583.812 207.413,583.81 
			158.041,583.81 158.041,583.81 		"/>
		<polyline fill="none" stroke="#040000" stroke-linecap="round" stroke-linejoin="round" stroke-dasharray="4" points="
			192.859,644.118 192.859,644.118 217.545,601.361 217.545,601.363 217.545,601.363 221.175,601.281 225.31,601.148 
			230.477,600.898 236.037,600.277 241.869,598.731 247.481,596.234 252.41,592.742 257.007,588.407 261.312,583.572 
			265.219,578.537 268.596,573.612 271.808,568.835 275.129,564.279 278.352,560.19 281.208,556.837 284.466,553.566 
			288.945,549.688 292.015,547.165 		"/>
		<polyline fill="none" stroke="#040000" stroke-linecap="round" stroke-linejoin="round" stroke-dasharray="4" points="
			259.242,682.443 259.242,682.443 283.929,639.689 		"/>
		<polyline fill="none" stroke="#040000" stroke-linecap="round" stroke-linejoin="round" stroke-dasharray="4" points="
			304.192,639.687 283.926,639.687 283.926,639.689 282.183,636.504 280.23,632.856 277.863,628.258 275.623,623.131 
			274.042,617.308 273.399,611.198 273.96,605.185 275.415,599.035 277.45,592.889 279.859,586.989 282.431,581.604 
			284.965,576.432 287.249,571.276 289.181,566.442 290.655,562.291 291.861,557.834 292.981,552.018 293.628,548.1 		"/>
		<polyline fill="none" stroke="#040000" stroke-linecap="round" stroke-linejoin="round" stroke-dasharray="4" points="
			328.878,682.443 328.878,682.443 304.192,639.687 304.194,639.687 304.194,639.687 305.938,636.504 307.889,632.856 
			310.255,628.258 312.498,623.131 314.075,617.308 314.721,611.198 314.16,605.185 312.706,599.035 310.67,592.89 308.262,586.989 
			305.688,581.604 303.155,576.432 300.871,571.274 298.941,566.444 297.466,562.291 296.259,557.835 295.141,552.018 
			294.493,548.1 		"/>
		<polyline fill="none" stroke="#040000" stroke-linecap="round" stroke-linejoin="round" stroke-dasharray="4" points="
			395.259,644.119 395.259,644.119 370.578,601.361 370.574,601.361 370.574,601.361 		"/>
		<polyline fill="none" stroke="#040000" stroke-linecap="round" stroke-linejoin="round" stroke-dasharray="4" points="
			380.706,583.813 370.574,601.361 366.945,601.281 362.813,601.146 357.644,600.896 352.083,600.277 346.251,598.731 
			340.638,596.233 335.711,592.742 331.113,588.407 326.808,583.572 322.9,578.537 319.523,573.615 316.315,568.835 
			312.988,564.279 309.77,560.19 306.911,556.839 303.655,553.566 299.176,549.688 296.107,547.165 		"/>
		<polyline fill="none" stroke="#040000" stroke-linecap="round" stroke-linejoin="round" stroke-dasharray="4" points="
			430.077,583.813 430.077,583.813 380.706,583.813 380.708,583.812 380.708,583.812 378.822,580.709 376.641,577.195 
			373.84,572.845 370.522,568.339 366.267,564.061 361.297,560.449 355.811,557.93 349.758,556.113 343.42,554.799 337.104,553.938 
			331.152,553.474 325.41,553.082 319.799,552.482 314.648,551.739 310.316,550.94 305.855,549.754 300.257,547.816 
			296.538,546.418 		"/>
		<polyline fill="none" stroke="#040000" stroke-linecap="round" stroke-linejoin="round" stroke-dasharray="4" points="
			296.538,544.553 300.257,543.156 305.855,541.216 310.316,540.031 314.648,539.232 319.799,538.489 325.408,537.889 
			331.152,537.498 337.104,537.033 343.418,536.17 349.758,534.86 355.811,533.045 361.297,530.521 366.267,526.909 370.523,522.63 
			373.839,518.128 376.641,513.776 378.822,510.263 380.708,507.16 380.708,507.16 380.706,507.162 430.077,507.16 430.077,507.16 
					"/>
		<polyline fill="none" stroke="#040000" stroke-linecap="round" stroke-linejoin="round" stroke-dasharray="4" points="
			429.646,312.51 428.998,316.429 427.876,322.246 426.672,326.703 425.197,330.852 423.266,335.688 420.984,340.843 
			418.448,346.013 415.876,351.401 413.467,357.301 411.432,363.447 409.977,369.596 409.416,375.609 410.063,381.718 
			411.639,387.542 413.883,392.668 416.25,397.267 418.199,400.914 419.946,404.099 419.946,404.099 370.574,489.609 
			370.574,489.609 366.945,489.69 362.81,489.823 357.644,490.073 352.083,490.694 346.251,492.239 340.638,494.738 335.71,498.23 
			331.113,502.562 326.808,507.399 322.9,512.435 319.523,517.357 316.315,522.135 312.991,526.692 309.77,530.78 306.911,534.133 
			303.655,537.404 299.178,541.283 296.107,543.807 		"/>
		<polyline fill="none" stroke="#040000" stroke-linecap="round" stroke-linejoin="round" stroke-dasharray="4" points="
			440.21,404.099 440.21,404.099 440.213,404.099 464.895,446.854 464.895,446.854 440.21,404.099 441.954,400.914 443.906,397.267 
			446.273,392.667 448.516,387.542 450.094,381.718 450.738,375.609 450.177,369.596 448.724,363.447 446.689,357.301 
			444.281,351.401 441.705,346.013 439.173,340.843 436.888,335.686 434.956,330.856 433.481,326.703 432.279,322.246 
			431.158,316.429 430.509,312.51 		"/>
		<polyline fill="none" stroke="#040000" stroke-linecap="round" stroke-linejoin="round" stroke-dasharray="4" points="
			531.276,408.529 531.276,408.529 506.592,365.773 506.592,365.773 		"/>
		<polyline fill="none" stroke="#040000" stroke-linecap="round" stroke-linejoin="round" stroke-dasharray="4" points="
			432.124,311.579 435.194,314.099 439.672,317.976 442.93,321.249 445.787,324.601 449.006,328.689 452.333,333.246 
			455.541,338.026 458.92,342.947 462.824,347.984 467.13,352.82 471.729,357.154 476.654,360.646 482.268,363.142 488.101,364.686 
			493.661,365.308 498.829,365.56 502.963,365.691 506.592,365.773 		"/>
		<polyline fill="none" stroke="#040000" stroke-linecap="round" stroke-linejoin="round" stroke-dasharray="4" points="
			566.095,348.225 566.095,348.225 516.725,348.225 516.725,348.221 516.725,348.221 514.84,345.121 512.658,341.607 
			509.856,337.256 506.54,332.752 502.284,328.473 497.316,324.861 491.828,322.337 485.774,320.522 479.437,319.213 
			473.122,318.349 467.17,317.885 461.427,317.494 455.817,316.894 450.666,316.148 446.334,315.353 441.873,314.163 
			436.273,312.228 432.557,310.828 		"/>
		<polyline fill="none" stroke="#040000" stroke-linecap="round" stroke-linejoin="round" stroke-dasharray="4" points="
			566.095,271.572 566.095,271.572 516.726,271.572 516.726,271.572 		"/>
		<polyline fill="none" stroke="#040000" stroke-linecap="round" stroke-linejoin="round" stroke-dasharray="4" points="
			432.557,308.964 436.273,307.565 441.873,305.627 446.333,304.442 450.666,303.644 455.817,302.899 461.426,302.298 
			467.17,301.909 473.122,301.445 479.436,300.582 485.774,299.269 491.828,297.454 497.316,294.931 502.284,291.323 
			506.541,287.042 509.856,282.537 512.658,278.188 514.84,274.674 516.726,271.572 506.592,254.019 		"/>
		<polyline fill="none" stroke="#040000" stroke-linecap="round" stroke-linejoin="round" stroke-dasharray="4" points="
			531.278,211.266 531.278,211.266 506.592,254.019 506.592,254.019 502.963,254.102 498.829,254.237 493.661,254.485 
			488.1,255.104 482.268,256.651 476.654,259.148 471.729,262.642 467.13,266.973 462.824,271.809 458.92,276.844 455.541,281.77 
			452.333,286.546 449.006,291.104 445.786,295.192 442.93,298.543 439.672,301.815 435.194,305.697 432.124,308.218 		"/>
		<polyline fill="none" stroke="#040000" stroke-linecap="round" stroke-linejoin="round" stroke-dasharray="4" points="
			430.509,307.281 431.158,303.366 432.279,297.547 433.481,293.09 434.956,288.939 436.888,284.106 439.173,278.95 
			441.705,273.779 444.281,268.392 446.689,262.495 448.724,256.347 450.177,250.197 450.738,244.184 450.094,238.074 
			448.516,232.25 446.273,227.127 443.906,222.525 441.954,218.879 440.21,215.696 440.21,215.696 464.896,172.938 464.896,172.938 
					"/>
		<polyline fill="none" stroke="#040000" stroke-linecap="round" stroke-linejoin="round" stroke-dasharray="4" points="
			395.259,172.938 395.259,172.938 419.944,215.696 419.946,215.696 419.946,215.696 418.199,218.879 416.25,222.525 
			413.881,227.127 411.639,232.25 410.063,238.074 409.416,244.184 409.977,250.197 411.432,256.347 413.467,262.495 
			415.876,268.392 418.448,273.779 420.981,278.95 423.266,284.106 425.198,288.939 426.672,293.09 427.876,297.547 
			428.998,303.366 429.646,307.283 		"/>
	</g>
	<g id="LINE_79_">
		<path fill="none" stroke="#040000" stroke-linecap="round" stroke-linejoin="round" stroke-dasharray="4" d="M60.332,329.059"/>
		
			<line fill="none" stroke="#040000" stroke-linecap="round" stroke-linejoin="round" stroke-dasharray="4" x1="125.781" y1="404.099" x2="92.592" y2="384.937"/>
		<polyline fill="none" stroke="#040000" stroke-linecap="round" stroke-linejoin="round" stroke-dasharray="4" points="
			223.492,384.937 223.492,384.937 190.303,404.099 		"/>
		<path fill="none" stroke="#040000" stroke-linecap="round" stroke-linejoin="round" stroke-dasharray="4" d="M255.754,329.059"/>
	</g>
	<g id="LINE_78_">
		<path fill="none" stroke="#040000" stroke-linecap="round" stroke-linejoin="round" stroke-dasharray="4" d="M60.33,290.736"/>
		
			<line fill="none" stroke="#040000" stroke-linecap="round" stroke-linejoin="round" stroke-dasharray="4" x1="125.783" y1="215.696" x2="92.592" y2="234.855"/>
		
			<line fill="none" stroke="#040000" stroke-linecap="round" stroke-linejoin="round" stroke-dasharray="4" x1="223.495" y1="234.857" x2="190.303" y2="215.696"/>
		<polyline fill="none" stroke="#040000" stroke-linecap="round" stroke-linejoin="round" stroke-dasharray="4" points="
			255.754,329.059 255.754,290.736 255.754,290.736 		"/>
	</g>
	<g id="LINE_40_">
		<polyline fill="none" stroke="#040000" stroke-linecap="round" stroke-linejoin="round" stroke-dasharray="4" points="
			60.33,290.736 60.332,329.059 60.332,329.059 		"/>
	</g>
	<g id="LINE_39_">
		<path fill="none" stroke="#040000" stroke-linecap="round" stroke-linejoin="round" stroke-dasharray="4" d="M190.303,404.099"/>
		<path fill="none" stroke="#040000" stroke-linecap="round" stroke-linejoin="round" stroke-dasharray="4" d="M228.608,470.446"/>
		
			<line fill="none" stroke="#040000" stroke-linecap="round" stroke-linejoin="round" stroke-dasharray="4" x1="196.349" y1="564.647" x2="196.349" y2="526.322"/>
		
			<line fill="none" stroke="#040000" stroke-linecap="round" stroke-linejoin="round" stroke-dasharray="4" x1="261.8" y1="639.687" x2="228.608" y2="620.525"/>
		
			<line fill="none" stroke="#040000" stroke-linecap="round" stroke-linejoin="round" stroke-dasharray="4" x1="359.512" y1="620.524" x2="326.32" y2="639.687"/>
		<polyline fill="none" stroke="#040000" stroke-linecap="round" stroke-linejoin="round" stroke-dasharray="4" points="
			391.771,526.324 391.771,526.324 391.771,564.65 		"/>
		<path fill="none" stroke="#040000" stroke-linecap="round" stroke-linejoin="round" stroke-dasharray="4" d="M359.51,470.446"/>
	</g>
	
		<line fill="none" stroke="#040000" stroke-linecap="round" stroke-linejoin="round" stroke-dasharray="4" x1="261.8" y1="451.284" x2="228.608" y2="470.446"/>
	
		<line fill="none" stroke="#040000" stroke-linecap="round" stroke-linejoin="round" stroke-dasharray="4" x1="359.51" y1="470.446" x2="326.32" y2="451.284"/>
	<g id="LINE_38_">
		
			<line fill="none" stroke="#040000" stroke-linecap="round" stroke-linejoin="round" stroke-dasharray="4" x1="495.528" y1="384.937" x2="462.338" y2="404.099"/>
		
			<line fill="none" stroke="#040000" stroke-linecap="round" stroke-linejoin="round" stroke-dasharray="4" x1="527.788" y1="290.736" x2="527.788" y2="329.059"/>
		
			<line fill="none" stroke="#040000" stroke-linecap="round" stroke-linejoin="round" stroke-dasharray="4" x1="462.337" y1="215.696" x2="495.528" y2="234.857"/>
		<polyline fill="none" stroke="#040000" stroke-linecap="round" stroke-linejoin="round" stroke-dasharray="4" points="
			364.626,234.855 364.626,234.855 397.817,215.696 		"/>
		<path fill="none" stroke="#040000" stroke-linecap="round" stroke-linejoin="round" d="M332.365,290.734"/>
	</g>
	
		<line fill="none" stroke="#040000" stroke-linecap="round" stroke-linejoin="round" stroke-dasharray="4" x1="332.365" y1="290.734" x2="332.365" y2="329.059"/>
	
		<line fill="none" stroke="#040000" stroke-linecap="round" stroke-linejoin="round" stroke-dasharray="4" x1="397.817" y1="404.099" x2="364.626" y2="384.937"/>
	
		<line fill="none" stroke="#040000" stroke-linecap="round" stroke-linejoin="round" stroke-dasharray="4" x1="440.21" y1="404.099" x2="419.946" y2="404.099"/>
	
		<line fill="none" stroke="#040000" stroke-linecap="round" stroke-linejoin="round" stroke-dasharray="4" x1="440.21" y1="215.696" x2="419.946" y2="215.696"/>
	
		<line fill="none" stroke="#040000" stroke-linecap="round" stroke-linejoin="round" stroke-dasharray="4" x1="353.563" y1="254.019" x2="343.429" y2="271.572"/>
	
		<line fill="none" stroke="#040000" stroke-linecap="round" stroke-linejoin="round" stroke-dasharray="4" x1="353.563" y1="365.773" x2="343.431" y2="348.221"/>
	
		<line fill="none" stroke="#040000" stroke-linecap="round" stroke-linejoin="round" stroke-dasharray="4" x1="506.592" y1="365.773" x2="516.725" y2="348.221"/>
	
		<line fill="none" stroke="#040000" stroke-linecap="round" stroke-linejoin="round" stroke-dasharray="4" x1="168.177" y1="404.099" x2="147.909" y2="404.099"/>
	
		<line fill="none" stroke="#040000" stroke-linecap="round" stroke-linejoin="round" stroke-dasharray="4" x1="81.527" y1="365.775" x2="71.396" y2="348.221"/>
	
		<line fill="none" stroke="#040000" stroke-linecap="round" stroke-linejoin="round" stroke-dasharray="4" x1="234.558" y1="254.019" x2="244.692" y2="271.572"/>
	
		<line fill="none" stroke="#040000" stroke-linecap="round" stroke-linejoin="round" stroke-dasharray="4" x1="244.692" y1="348.221" x2="234.558" y2="365.773"/>
	
		<line fill="none" stroke="#040000" stroke-linecap="round" stroke-linejoin="round" stroke-dasharray="4" x1="217.545" y1="601.361" x2="207.413" y2="583.81"/>
	
		<line fill="none" stroke="#040000" stroke-linecap="round" stroke-linejoin="round" stroke-dasharray="4" x1="207.413" y1="507.157" x2="217.545" y2="489.607"/>
	
		<line fill="none" stroke="#040000" stroke-linecap="round" stroke-linejoin="round" stroke-dasharray="4" x1="283.929" y1="451.284" x2="304.194" y2="451.284"/>
	
		<line fill="none" stroke="#040000" stroke-linecap="round" stroke-linejoin="round" stroke-dasharray="4" x1="370.574" y1="489.609" x2="380.706" y2="507.162"/>
</g>
<g id="MountainLine">
	
		<line fill="none" stroke="#040000" stroke-linecap="round" stroke-linejoin="round" x1="261.8" y1="451.284" x2="223.492" y2="384.937"/>
	
		<line fill="none" stroke="#040000" stroke-linecap="round" stroke-linejoin="round" x1="364.626" y1="384.937" x2="326.32" y2="451.284"/>
	
		<line fill="none" stroke="#040000" stroke-linecap="round" stroke-linejoin="round" x1="255.753" y1="329.059" x2="332.365" y2="329.059"/>
	<path fill="none" stroke="#040000" stroke-linecap="round" stroke-linejoin="round" d="M332.365,329.059"/>
	
		<line fill="none" stroke="#040000" stroke-linecap="round" stroke-linejoin="round" x1="255.754" y1="290.736" x2="332.365" y2="290.734"/>
	<g id="LINE_77_">
		<polyline fill="none" stroke="#040000" stroke-linecap="round" stroke-linejoin="round" points="125.781,404.099 125.831,400.914 
			125.905,397.267 126.053,392.667 126.41,387.542 127.303,381.718 128.744,375.609 130.758,369.596 133.261,363.447 
			136.053,357.301 138.959,351.401 141.803,346.013 144.563,340.843 147.194,335.688 149.554,330.856 151.488,326.703 
			153.377,322.246 155.618,316.427 157.073,312.51 		"/>
	</g>
	<g id="LINE_76_">
		<polyline fill="none" stroke="#040000" stroke-linecap="round" stroke-linejoin="round" points="92.592,384.937 95.325,383.304 
			98.446,381.415 102.359,378.988 106.618,376.115 111.215,372.429 115.783,368.125 119.982,363.375 124.057,358.134 
			127.986,352.644 131.64,347.174 134.885,342.02 137.981,337.046 141.133,332.19 144.137,327.729 146.766,323.975 149.68,320.111 
			153.6,315.262 156.268,312.042 		"/>
	</g>
	<g id="LINE_75_">
		<polyline fill="none" stroke="#040000" stroke-linecap="round" stroke-linejoin="round" points="159.82,312.041 162.485,315.259 
			166.403,320.11 169.318,323.974 171.948,327.727 174.953,332.185 178.103,337.042 181.199,342.019 184.443,347.174 
			188.099,352.642 192.027,358.131 196.1,363.374 200.301,368.125 204.871,372.427 209.469,376.114 213.727,378.983 
			217.638,381.413 220.758,383.301 223.492,384.937 234.558,365.773 		"/>
	</g>
	<g id="LINE_74_">
		<polyline fill="none" stroke="#040000" stroke-linecap="round" stroke-linejoin="round" points="190.303,404.097 190.255,400.914 
			190.178,397.267 190.035,392.664 189.676,387.54 188.783,381.717 187.338,375.607 185.325,369.596 182.822,363.445 
			180.033,357.298 177.122,351.399 174.282,346.013 171.522,340.843 168.893,335.686 166.53,330.854 164.596,326.701 
			162.708,322.246 160.466,316.425 159.012,312.507 		"/>
	</g>
	<path fill="none" stroke="#040000" stroke-linecap="round" stroke-linejoin="round" d="M364.626,384.937"/>
	
		<line fill="none" stroke="#040000" stroke-linecap="round" stroke-linejoin="round" x1="359.51" y1="470.446" x2="397.817" y2="404.099"/>
	<path fill="none" stroke="#040000" stroke-linecap="round" stroke-linejoin="round" d="M326.32,451.284"/>
	
		<line fill="none" stroke="#040000" stroke-linecap="round" stroke-linejoin="round" x1="481.491" y1="182.52" x2="462.337" y2="215.696"/>
	
		<line fill="none" stroke="#040000" stroke-linecap="round" stroke-linejoin="round" x1="495.528" y1="234.857" x2="514.681" y2="201.684"/>
	
		<line fill="none" stroke="#040000" stroke-linecap="round" stroke-linejoin="round" x1="242.646" y1="672.861" x2="261.8" y2="639.687"/>
	
		<line fill="none" stroke="#040000" stroke-linecap="round" stroke-linejoin="round" x1="228.608" y1="620.525" x2="209.456" y2="653.699"/>
	<polyline fill="none" stroke="#040000" stroke-linecap="round" stroke-linejoin="round" points="106.629,437.272 125.781,404.099 
		147.909,404.099 	"/>
	
		<line fill="none" stroke="#040000" stroke-linecap="round" stroke-linejoin="round" x1="345.474" y1="201.684" x2="364.626" y2="234.855"/>
	
		<line fill="none" stroke="#040000" stroke-linecap="round" stroke-linejoin="round" x1="397.817" y1="215.696" x2="378.663" y2="182.52"/>
	
		<line fill="none" stroke="#040000" stroke-linecap="round" stroke-linejoin="round" x1="73.44" y1="201.684" x2="92.592" y2="234.855"/>
	
		<line fill="none" stroke="#040000" stroke-linecap="round" stroke-linejoin="round" x1="125.783" y1="215.696" x2="106.629" y2="182.52"/>
	
		<line fill="none" stroke="#040000" stroke-linecap="round" stroke-linejoin="round" x1="209.456" y1="182.52" x2="190.303" y2="215.696"/>
	
		<line fill="none" stroke="#040000" stroke-linecap="round" stroke-linejoin="round" x1="223.495" y1="234.857" x2="242.648" y2="201.684"/>
	
		<line fill="none" stroke="#040000" stroke-linecap="round" stroke-linejoin="round" x1="566.095" y1="290.736" x2="527.788" y2="290.736"/>
	
		<line fill="none" stroke="#040000" stroke-linecap="round" stroke-linejoin="round" x1="527.788" y1="329.059" x2="566.095" y2="329.059"/>
	
		<line fill="none" stroke="#040000" stroke-linecap="round" stroke-linejoin="round" x1="514.681" y1="418.11" x2="495.528" y2="384.937"/>
	
		<line fill="none" stroke="#040000" stroke-linecap="round" stroke-linejoin="round" x1="462.337" y1="404.099" x2="481.491" y2="437.272"/>
	
		<line fill="none" stroke="#040000" stroke-linecap="round" stroke-linejoin="round" x1="378.663" y1="653.698" x2="359.512" y2="620.524"/>
	
		<line fill="none" stroke="#040000" stroke-linecap="round" stroke-linejoin="round" x1="326.32" y1="639.687" x2="345.474" y2="672.861"/>
	
		<line fill="none" stroke="#040000" stroke-linecap="round" stroke-linejoin="round" x1="430.077" y1="526.324" x2="391.771" y2="526.324"/>
	
		<line fill="none" stroke="#040000" stroke-linecap="round" stroke-linejoin="round" x1="391.771" y1="564.65" x2="430.077" y2="564.65"/>
	
		<line fill="none" stroke="#040000" stroke-linecap="round" stroke-linejoin="round" x1="22.026" y1="329.059" x2="60.332" y2="329.059"/>
	
		<line fill="none" stroke="#040000" stroke-linecap="round" stroke-linejoin="round" x1="60.33" y1="290.736" x2="22.026" y2="290.736"/>
	
		<line fill="none" stroke="#040000" stroke-linecap="round" stroke-linejoin="round" x1="158.044" y1="564.647" x2="196.349" y2="564.647"/>
	
		<line fill="none" stroke="#040000" stroke-linecap="round" stroke-linejoin="round" x1="196.349" y1="526.322" x2="158.044" y2="526.322"/>
	<g id="LINE_73_">
		<polyline fill="none" stroke="#040000" stroke-linecap="round" stroke-linejoin="round" points="160.789,309.431 164.908,308.731 
			171.068,307.763 175.873,307.171 180.438,306.77 185.801,306.397 191.582,306.098 197.438,305.904 203.526,305.672 
			210.089,305.239 216.807,304.585 223.384,303.676 229.599,302.415 235.61,300.609 241.099,298.469 245.717,296.216 
			249.776,294.044 252.97,292.286 255.754,290.736 244.692,271.572 		"/>
	</g>
	<g id="LINE_72_">
		<polyline fill="none" stroke="#040000" stroke-linecap="round" stroke-linejoin="round" points="244.692,348.221 255.753,329.059 
			252.973,327.509 249.776,325.752 245.717,323.576 241.102,321.324 235.61,319.187 229.599,317.381 223.386,316.12 
			216.807,315.211 210.089,314.556 203.526,314.125 197.44,313.891 191.583,313.698 185.802,313.395 180.437,313.025 
			175.872,312.624 171.07,312.033 164.908,311.063 160.788,310.362 		"/>
	</g>
	<g id="LINE_71_">
		<polyline fill="none" stroke="#040000" stroke-linecap="round" stroke-linejoin="round" points="159.013,307.288 160.468,303.368 
			162.708,297.551 164.598,293.092 166.535,288.939 168.893,284.108 171.524,278.951 174.286,273.783 177.127,268.396 
			180.033,262.495 182.826,256.349 185.328,250.2 187.345,244.188 188.784,238.079 189.676,232.253 190.035,227.127 
			190.182,222.527 190.255,218.882 190.306,215.696 168.177,215.696 		"/>
	</g>
	<g id="LINE_70_">
		<polyline fill="none" stroke="#040000" stroke-linecap="round" stroke-linejoin="round" points="234.558,254.019 223.495,234.857 
			220.763,236.492 217.643,238.381 213.729,240.807 209.469,243.681 204.873,247.367 200.304,251.67 196.104,256.419 
			192.029,261.663 188.102,267.153 184.447,272.621 181.201,277.777 178.107,282.75 174.954,287.606 171.949,292.069 
			169.32,295.821 166.407,299.685 162.486,304.534 159.82,307.755 		"/>
	</g>
	<g id="LINE_69_">
		<polyline fill="none" stroke="#040000" stroke-linecap="round" stroke-linejoin="round" points="156.269,307.752 153.602,304.534 
			149.684,299.683 146.769,295.819 144.14,292.064 141.136,287.607 137.985,282.749 134.89,277.774 131.645,272.619 
			127.987,267.153 124.063,261.662 119.987,256.419 115.789,251.666 111.218,247.365 106.619,243.681 102.36,240.807 98.448,238.38 
			95.329,236.492 92.595,234.857 81.529,254.019 		"/>
	</g>
	<g id="LINE_68_">
		<polyline fill="none" stroke="#040000" stroke-linecap="round" stroke-linejoin="round" points="147.909,215.696 125.783,215.696 
			125.832,218.879 125.91,222.525 126.054,227.127 126.411,232.253 127.305,238.077 128.748,244.184 130.762,250.195 
			133.265,256.347 136.056,262.493 138.964,268.392 141.805,273.781 144.567,278.948 147.194,284.106 149.557,288.939 
			151.492,293.092 153.382,297.547 155.622,303.368 157.075,307.288 		"/>
	</g>
	<g id="LINE_67_">
		<polyline fill="none" stroke="#040000" stroke-linecap="round" stroke-linejoin="round" points="155.296,310.365 151.175,311.063 
			145.017,312.03 140.212,312.622 135.646,313.023 130.284,313.396 124.503,313.695 118.646,313.887 112.559,314.12 
			105.996,314.556 99.277,315.209 92.701,316.116 86.485,317.376 80.475,319.185 74.985,321.324 70.367,323.576 66.308,325.75 
			63.114,327.507 60.33,329.059 71.396,348.221 		"/>
	</g>
	<g id="LINE_66_">
		<polyline fill="none" stroke="#040000" stroke-linecap="round" stroke-linejoin="round" points="155.297,309.431 151.175,308.731 
			145.016,307.76 140.213,307.169 135.649,306.77 130.282,306.397 124.501,306.095 118.645,305.902 112.558,305.668 
			105.996,305.237 99.277,304.582 92.699,303.673 86.485,302.414 80.475,300.609 74.983,298.47 70.367,296.218 66.308,294.041 
			63.111,292.283 60.33,290.736 71.396,271.572 		"/>
	</g>
	<g id="LINE_65_">
		<polyline fill="none" stroke="#040000" stroke-linecap="round" stroke-linejoin="round" points="397.813,404.099 397.861,400.912 
			397.938,397.267 398.084,392.666 398.442,387.542 399.334,381.717 400.774,375.607 402.79,369.594 405.293,363.445 408.084,357.3 
			410.99,351.399 413.833,346.012 416.594,340.843 419.225,335.686 421.585,330.854 423.521,326.703 425.408,322.244 
			427.649,316.425 429.105,312.51 		"/>
	</g>
	<g id="LINE_64_">
		<polyline fill="none" stroke="#040000" stroke-linecap="round" stroke-linejoin="round" points="428.297,312.042 425.632,315.259 
			421.712,320.111 418.798,323.975 416.168,327.727 413.164,332.189 410.012,337.043 406.917,342.02 403.671,347.172 
			400.016,352.642 396.088,358.131 392.014,363.374 387.815,368.125 383.247,372.429 378.648,376.115 374.39,378.986 
			370.477,381.413 367.355,383.302 364.624,384.937 353.563,365.773 		"/>
	</g>
	<g id="LINE_63_">
		<polyline fill="none" stroke="#040000" stroke-linecap="round" stroke-linejoin="round" points="506.592,365.773 495.524,384.936 
			492.789,383.299 489.669,381.411 485.758,378.983 481.5,376.112 476.9,372.427 472.33,368.125 468.131,363.371 464.058,358.131 
			460.131,352.64 456.474,347.172 453.229,342.016 450.134,337.042 446.983,332.185 443.978,327.727 441.349,323.972 
			438.434,320.11 434.516,315.257 431.851,312.041 		"/>
	</g>
	<g id="LINE_62_">
		<polyline fill="none" stroke="#040000" stroke-linecap="round" stroke-linejoin="round" points="462.335,404.095 462.286,400.912 
			462.209,397.266 462.065,392.664 461.708,387.54 460.813,381.714 459.37,375.607 457.355,369.594 454.854,363.444 
			452.063,357.298 449.153,351.399 446.313,346.012 443.553,340.843 440.923,335.685 438.563,330.852 436.627,326.699 
			434.738,322.244 432.497,316.423 431.043,312.505 		"/>
	</g>
	<g id="LINE_61_">
		<polyline fill="none" stroke="#040000" stroke-linecap="round" stroke-linejoin="round" points="432.819,309.428 436.94,308.73 
			443.1,307.763 447.904,307.169 452.467,306.77 457.832,306.396 463.614,306.096 469.469,305.904 475.556,305.671 482.12,305.239 
			488.838,304.584 495.415,303.676 501.63,302.415 507.641,300.609 513.131,298.467 517.748,296.215 521.807,294.042 
			525.002,292.283 527.786,290.734 516.726,271.572 		"/>
	</g>
	<g id="LINE_60_">
		<polyline fill="none" stroke="#040000" stroke-linecap="round" stroke-linejoin="round" points="432.818,310.362 436.94,311.061 
			443.101,312.031 447.904,312.622 452.467,313.023 457.834,313.395 463.614,313.696 469.472,313.891 475.556,314.125 
			482.12,314.554 488.838,315.211 495.417,316.118 501.63,317.379 507.641,319.185 513.132,321.324 517.748,323.575 
			521.807,325.752 525.003,327.509 527.785,329.057 516.725,348.225 		"/>
	</g>
	<g id="LINE_59_">
		<polyline fill="none" stroke="#040000" stroke-linecap="round" stroke-linejoin="round" points="440.21,215.696 462.336,215.696 
			462.286,218.88 462.213,222.525 462.065,227.127 461.708,232.253 460.814,238.077 459.375,244.187 457.359,250.198 
			454.857,256.349 452.065,262.495 449.158,268.396 446.315,273.783 443.556,278.951 440.923,284.106 438.564,288.939 
			436.629,293.092 434.739,297.548 432.499,303.368 431.044,307.286 		"/>
	</g>
	<g id="LINE_58_">
		<polyline fill="none" stroke="#040000" stroke-linecap="round" stroke-linejoin="round" points="431.851,307.752 434.519,304.534 
			438.438,299.683 441.353,295.819 443.98,292.069 446.984,287.604 450.139,282.75 453.233,277.774 456.479,272.621 
			460.133,267.153 464.06,261.663 468.137,256.419 472.335,251.668 476.903,247.365 481.501,243.679 485.759,240.807 
			489.674,238.38 492.792,236.49 495.526,234.857 506.592,254.019 		"/>
	</g>
	<g id="LINE_57_">
		<polyline fill="none" stroke="#040000" stroke-linecap="round" stroke-linejoin="round" points="353.563,254.019 364.626,234.855 
			367.361,236.492 370.479,238.378 374.39,240.807 378.65,243.679 383.248,247.364 387.819,251.666 392.019,256.419 396.094,261.66 
			400.02,267.151 403.675,272.619 406.921,277.772 410.016,282.749 413.166,287.606 416.17,292.064 418.799,295.817 
			421.716,299.681 425.633,304.531 428.298,307.75 		"/>
	</g>
	<g id="LINE_56_">
		<polyline fill="none" stroke="#040000" stroke-linecap="round" stroke-linejoin="round" points="419.944,215.696 397.814,215.694 
			397.862,218.877 397.939,222.524 398.085,227.127 398.442,232.25 399.337,238.074 400.778,244.184 402.793,250.195 
			405.297,256.346 408.087,262.493 410.996,268.39 413.837,273.779 416.598,278.948 419.225,284.105 421.588,288.939 
			423.523,293.092 425.413,297.545 427.651,303.366 429.107,307.286 		"/>
	</g>
	<g id="LINE_55_">
		<polyline fill="none" stroke="#040000" stroke-linecap="round" stroke-linejoin="round" points="343.431,348.221 332.36,329.057 
			335.146,327.507 338.339,325.749 342.397,323.576 347.016,321.324 352.506,319.182 358.517,317.376 364.732,316.115 
			371.309,315.207 378.025,314.554 384.59,314.12 390.677,313.887 396.533,313.693 402.314,313.395 407.679,313.023 
			412.242,312.622 417.048,312.03 423.206,311.061 427.327,310.362 		"/>
	</g>
	<g id="LINE_54_">
		<polyline fill="none" stroke="#040000" stroke-linecap="round" stroke-linejoin="round" points="427.328,309.428 423.206,308.73 
			417.045,307.758 412.243,307.169 407.68,306.768 402.313,306.397 396.532,306.093 390.677,305.902 384.589,305.667 
			378.025,305.235 371.309,304.58 364.729,303.673 358.517,302.412 352.505,300.606 347.015,298.469 342.397,296.216 
			338.339,294.041 335.143,292.283 332.36,290.734 343.429,271.572 		"/>
	</g>
	<g id="LINE_53_">
		<polyline fill="none" stroke="#040000" stroke-linecap="round" stroke-linejoin="round" points="293.089,548.1 291.634,552.018 
			289.393,557.834 287.504,562.293 285.568,566.444 283.208,571.277 280.578,576.434 277.817,581.602 274.974,586.989 
			272.067,592.89 269.275,599.035 266.773,605.185 264.758,611.198 263.318,617.308 262.425,623.132 262.067,628.256 
			261.92,632.857 261.845,636.504 261.797,639.689 283.926,639.689 		"/>
	</g>
	<g id="LINE_52_">
		<polyline fill="none" stroke="#040000" stroke-linecap="round" stroke-linejoin="round" points="217.545,601.363 228.607,620.526 
			231.34,618.893 234.46,617.002 238.374,614.576 242.632,611.705 247.23,608.019 251.798,603.715 255.997,598.965 260.073,593.723 
			264,588.232 267.655,582.763 270.899,577.61 273.997,572.635 277.148,567.778 280.152,563.316 282.78,559.565 285.694,555.702 
			289.614,550.851 292.281,547.632 		"/>
	</g>
	<g id="LINE_51_">
		<polyline fill="none" stroke="#040000" stroke-linecap="round" stroke-linejoin="round" points="295.835,547.631 298.5,550.848 
			302.419,555.699 305.334,559.563 307.963,563.316 310.968,567.775 314.117,572.632 317.214,577.608 320.458,582.763 
			324.114,588.23 328.041,593.723 332.114,598.963 336.315,603.715 340.885,608.018 345.483,611.702 349.741,614.574 
			353.653,617.002 356.773,618.89 359.507,620.525 370.574,601.361 		"/>
	</g>
	<g id="LINE_50_">
		<polyline fill="none" stroke="#040000" stroke-linecap="round" stroke-linejoin="round" points="304.194,639.687 326.317,639.687 
			326.27,636.504 326.193,632.856 326.048,628.254 325.69,623.131 324.797,617.305 323.354,611.197 321.339,605.185 
			318.837,599.035 316.048,592.889 313.136,586.989 310.297,581.602 307.536,576.434 304.907,571.274 302.545,566.442 
			300.611,562.291 298.722,557.834 296.481,552.014 295.027,548.096 		"/>
	</g>
	<g id="LINE_49_">
		<polyline fill="none" stroke="#040000" stroke-linecap="round" stroke-linejoin="round" points="296.803,545.021 300.923,544.319 
			307.083,543.354 311.888,542.761 316.452,542.361 321.815,541.986 327.597,541.688 333.454,541.494 339.54,541.263 
			346.104,540.829 352.822,540.174 359.398,539.267 365.612,538.006 371.626,536.198 377.114,534.059 381.731,531.807 
			385.791,529.633 388.985,527.874 391.769,526.324 380.708,507.16 		"/>
	</g>
	<g id="LINE_48_">
		<polyline fill="none" stroke="#040000" stroke-linecap="round" stroke-linejoin="round" points="380.708,583.812 391.769,564.65 
			388.987,563.1 385.791,561.343 381.731,559.165 377.114,556.914 371.626,554.775 365.612,552.971 359.4,551.709 352.822,550.802 
			346.104,550.144 339.54,549.714 333.455,549.48 327.599,549.287 321.818,548.985 316.449,548.616 311.887,548.213 
			307.084,547.622 300.923,546.652 296.803,545.952 		"/>
	</g>
	<g id="LINE_47_">
		<polyline fill="none" stroke="#040000" stroke-linecap="round" stroke-linejoin="round" points="295.027,542.876 296.483,538.958 
			298.724,533.142 300.612,528.684 302.549,524.53 304.907,519.697 307.539,514.541 310.3,509.373 313.143,503.986 316.049,498.086 
			318.842,491.939 321.343,485.79 323.359,479.777 324.798,473.667 325.69,467.844 326.048,462.719 326.196,458.118 
			326.271,454.473 326.32,451.285 304.194,451.284 		"/>
	</g>
	<g id="LINE_46_">
		<polyline fill="none" stroke="#040000" stroke-linecap="round" stroke-linejoin="round" points="370.574,489.609 359.509,470.448 
			356.777,472.081 353.658,473.97 349.742,476.397 345.484,479.27 340.887,482.956 336.319,487.261 332.12,492.01 328.045,497.253 
			324.116,502.743 320.462,508.212 317.217,513.364 314.123,518.34 310.969,523.193 307.965,527.658 305.335,531.41 
			302.423,535.273 298.501,540.124 295.835,543.344 		"/>
	</g>
	<g id="LINE_45_">
		<polyline fill="none" stroke="#040000" stroke-linecap="round" stroke-linejoin="round" points="228.608,470.446 231.343,472.083 
			234.463,473.969 238.375,476.397 242.633,479.27 247.232,482.956 251.804,487.257 256.002,492.01 260.077,497.25 264.003,502.741 
			267.659,508.21 270.906,513.363 274,518.339 277.15,523.196 280.154,527.654 282.784,531.408 285.699,535.273 289.616,540.122 
			292.283,543.344 		"/>
	</g>
	<g id="LINE_44_">
		<polyline fill="none" stroke="#040000" stroke-linecap="round" stroke-linejoin="round" points="283.929,451.284 261.798,451.284 
			261.846,454.468 261.923,458.114 262.069,462.719 262.427,467.844 263.32,473.665 264.762,479.775 266.777,485.786 
			269.28,491.936 272.071,498.083 274.979,503.98 277.82,509.37 280.582,514.538 283.208,519.695 285.571,524.53 287.506,528.684 
			289.396,533.135 291.636,538.957 293.09,542.876 		"/>
	</g>
	<g id="LINE_43_">
		<polyline fill="none" stroke="#040000" stroke-linecap="round" stroke-linejoin="round" points="291.311,545.952 287.19,546.652 
			281.031,547.619 276.227,548.213 271.661,548.613 266.298,548.985 260.517,549.283 254.661,549.478 248.573,549.711 
			242.01,550.144 235.292,550.798 228.715,551.706 222.5,552.966 216.489,554.775 211,556.914 206.382,559.167 202.323,561.338 
			199.13,563.098 196.344,564.65 207.413,583.81 		"/>
	</g>
	<g id="LINE_42_">
		<polyline fill="none" stroke="#040000" stroke-linecap="round" stroke-linejoin="round" points="207.413,507.16 196.344,526.324 
			199.125,527.874 202.323,529.631 206.382,531.807 210.998,534.059 216.488,536.196 222.5,538.002 228.713,539.264 
			235.292,540.171 242.01,540.828 248.572,541.258 254.659,541.492 260.517,541.684 266.296,541.988 271.663,542.358 
			276.228,542.759 281.03,543.35 287.19,544.319 291.312,545.021 		"/>
	</g>
	<g id="LINE_41_">
		<path fill="none" stroke="#040000" stroke-linecap="round" stroke-linejoin="round" d="M397.817,404.099"/>
		<polyline fill="none" stroke="#040000" stroke-linecap="round" stroke-linejoin="round" points="462.338,404.099 462.338,404.099 
			440.213,404.099 		"/>
	</g>
	
		<line fill="none" stroke="#040000" stroke-linecap="round" stroke-linejoin="round" x1="419.946" y1="404.099" x2="397.817" y2="404.099"/>
	<polyline fill="none" stroke="#040000" stroke-linecap="round" stroke-linejoin="round" points="81.527,365.775 92.592,384.937 
		73.44,418.11 	"/>
	<polyline fill="none" stroke="#040000" stroke-linecap="round" stroke-linejoin="round" points="168.177,404.099 190.303,404.099 
		228.608,470.446 217.545,489.607 	"/>
</g>
<g id="Text">
	<text transform="matrix(1 0 0 1 432.3096 815.2715)" font-family="'ArialMT'" font-size="14">(c) 2016 Jun Mitani</text>
	<text transform="matrix(1 0 0 1 30.7119 42.1099)" font-family="'ArialMT'" font-size="18">Connected Whipped Creams</text>
</g>
</svg>
