<?xml version="1.0" encoding="utf-8"?>
<!-- Generator: Adobe Illustrator 16.0.3, SVG Export Plug-In . SVG Version: 6.00 Build 0)  -->
<!DOCTYPE svg PUBLIC "-//W3C//DTD SVG 1.1//EN" "http://www.w3.org/Graphics/SVG/1.1/DTD/svg11.dtd">
<svg version="1.1" xmlns="http://www.w3.org/2000/svg" xmlns:xlink="http://www.w3.org/1999/xlink" x="0px" y="0px"
	 width="595.28px" height="841.89px" viewBox="0 0 595.28 841.89" enable-background="new 0 0 595.28 841.89" xml:space="preserve">
<g id="CutLine">
	
		<rect x="30.912" y="139.953" fill="none" stroke="#000000" stroke-width="2" stroke-linecap="round" stroke-linejoin="round" width="544.187" height="544.187"/>
</g>
<g id="ValleyLine">
	<g id="LINE_21_">
		<polyline fill="none" stroke="#000000" stroke-linecap="round" stroke-linejoin="round" stroke-dasharray="4" points="
			575.099,614.528 505.489,614.528 500.936,614.518 496.383,614.432 491.837,614.198 487.306,613.749 482.81,613.037 
			478.37,612.022 474.02,610.676 469.796,608.979 465.732,606.929 461.865,604.525 458.231,601.782 454.866,598.714 451.8,595.349 
			449.057,591.716 446.652,587.85 444.603,583.786 442.906,579.559 441.56,575.209 440.544,570.773 439.832,566.275 
			439.386,561.745 439.149,557.197 439.063,552.646 439.052,548.093 443.604,548.084 448.156,547.996 452.706,547.761 
			457.237,547.315 461.731,546.603 466.171,545.587 470.518,544.24 474.744,542.544 478.811,540.493 482.675,538.09 
			486.308,535.347 489.673,532.28 492.74,528.915 495.483,525.282 497.888,521.414 499.938,517.351 501.636,513.123 
			502.983,508.773 503.996,504.338 504.708,499.842 505.156,495.31 505.393,490.764 505.477,486.211 505.487,481.66 
			505.487,412.045 505.487,342.435 505.477,337.882 505.39,333.33 505.154,328.783 504.708,324.252 503.996,319.755 
			502.979,315.316 501.636,310.968 499.938,306.743 497.888,302.678 495.483,298.812 492.74,295.18 489.67,291.814 486.308,288.748 
			482.675,286.003 478.809,283.6 474.744,281.549 470.518,279.853 466.171,278.504 461.731,277.49 457.234,276.779 452.704,276.331 
			448.156,276.096 443.604,276.009 439.052,275.999 439.063,271.446 439.146,266.895 439.383,262.348 439.832,257.817 
			440.541,253.321 441.557,248.882 442.903,244.533 444.6,240.308 446.652,236.243 449.054,232.377 451.8,228.744 454.866,225.379 
			458.229,222.313 461.865,219.567 465.732,217.164 469.796,215.113 474.02,213.418 478.37,212.07 482.807,211.055 487.306,210.344 
			491.837,209.896 496.381,209.661 500.936,209.574 505.487,209.564 575.099,209.564 		"/>
		<polyline fill="none" stroke="#000000" stroke-linecap="round" stroke-linejoin="round" stroke-dasharray="4" points="
			233.394,684.14 233.394,614.528 233.384,609.978 233.298,605.424 233.062,600.879 232.616,596.347 231.904,591.851 
			230.888,587.411 229.542,583.061 227.846,578.838 225.794,574.774 223.391,570.906 220.647,567.273 217.579,563.907 
			214.214,560.842 210.582,558.097 206.716,555.693 202.649,553.641 198.426,551.944 194.076,550.598 189.638,549.586 
			185.143,548.873 180.611,548.427 176.064,548.191 171.512,548.101 166.959,548.093 166.95,552.648 166.863,557.197 
			166.627,561.745 166.178,566.275 165.468,570.773 164.452,575.209 163.107,579.559 161.411,583.786 159.36,587.85 
			156.957,591.716 154.21,595.349 151.144,598.714 147.78,601.782 144.146,604.525 140.28,606.929 136.215,608.979 131.99,610.676 
			127.641,612.022 123.203,613.037 118.706,613.749 114.176,614.198 109.628,614.432 105.076,614.518 100.525,614.528 
			30.912,614.528 		"/>
		<polyline fill="none" stroke="#000000" stroke-linecap="round" stroke-linejoin="round" stroke-dasharray="4" points="
			233.394,139.953 233.394,209.564 233.382,214.117 233.298,218.669 233.062,223.216 232.614,227.747 231.902,232.244 
			230.887,236.683 229.542,241.03 227.843,245.256 225.792,249.32 223.39,253.188 220.645,256.82 217.579,260.185 214.213,263.252 
			210.58,265.996 206.715,268.399 202.649,270.451 198.424,272.146 194.076,273.495 189.637,274.509 185.141,275.22 180.61,275.668 
			176.063,275.903 171.51,275.99 166.958,276 162.406,276.009 157.853,276.096 153.307,276.333 148.776,276.779 144.279,277.49 
			139.84,278.506 135.492,279.853 131.267,281.549 127.202,283.6 123.335,286.003 119.703,288.748 116.338,291.814 113.271,295.18 
			110.526,298.812 108.123,302.678 106.072,306.743 104.376,310.968 103.029,315.317 102.014,319.755 101.302,324.253 
			100.855,328.784 100.619,333.331 100.533,337.882 100.523,342.435 100.523,412.049 100.523,481.66 100.534,486.211 
			100.62,490.764 100.856,495.31 101.302,499.842 102.015,504.338 103.03,508.777 104.376,513.123 106.073,517.351 108.124,521.414 
			110.527,525.282 113.272,528.915 116.339,532.28 119.704,535.347 123.336,538.09 127.203,540.493 131.268,542.544 135.493,544.24 
			139.842,545.587 144.279,546.603 148.776,547.315 153.307,547.763 157.854,547.996 162.406,548.084 166.959,548.093 
			166.968,543.542 167.055,538.987 167.292,534.443 167.739,529.911 168.449,525.415 169.465,520.976 170.812,516.626 
			172.508,512.402 174.561,508.335 176.962,504.469 179.707,500.84 182.774,497.473 186.138,494.406 189.771,491.661 
			193.639,489.256 197.704,487.207 201.928,485.509 206.277,484.164 210.714,483.147 215.212,482.439 219.742,481.99 
			224.29,481.753 228.84,481.667 233.396,481.66 303.007,481.66 372.618,481.66 377.17,481.667 381.722,481.753 386.269,481.99 
			390.8,482.439 395.296,483.147 399.735,484.164 404.082,485.509 408.31,487.207 412.373,489.256 416.24,491.661 419.873,494.406 
			423.238,497.473 426.305,500.836 429.051,504.469 431.452,508.335 433.505,512.402 435.199,516.626 436.546,520.976 
			437.561,525.415 438.273,529.911 438.722,534.441 438.958,538.987 439.043,543.54 439.052,548.093 434.501,548.101 
			429.945,548.188 425.401,548.425 420.87,548.873 416.374,549.582 411.935,550.598 407.585,551.944 403.36,553.641 
			399.297,555.693 395.43,558.097 391.798,560.842 388.434,563.907 385.365,567.273 382.62,570.904 380.218,574.774 
			378.168,578.838 376.469,583.061 375.122,587.411 374.108,591.851 373.397,596.347 372.95,600.879 372.715,605.424 
			372.628,609.978 372.618,614.528 372.618,684.14 		"/>
		<polyline fill="none" stroke="#000000" stroke-linecap="round" stroke-linejoin="round" stroke-dasharray="4" points="
			30.911,209.564 100.522,209.564 105.076,209.574 109.627,209.661 114.175,209.896 118.705,210.344 123.203,211.055 
			127.64,212.071 131.989,213.418 136.215,215.113 140.278,217.164 144.145,219.569 147.779,222.313 151.144,225.379 
			154.21,228.745 156.955,232.377 159.358,236.243 161.408,240.308 163.104,244.534 164.451,248.882 165.467,253.321 
			166.178,257.817 166.627,262.348 166.861,266.895 166.948,271.447 166.958,276 166.968,280.553 167.055,285.104 167.29,289.652 
			167.738,294.182 168.449,298.678 169.465,303.117 170.81,307.467 172.508,311.691 174.558,315.757 176.961,319.623 
			179.706,323.255 182.773,326.621 186.138,329.688 189.771,332.432 193.637,334.835 197.701,336.886 201.926,338.581 
			206.276,339.929 210.714,340.944 215.21,341.655 219.742,342.103 224.289,342.338 228.84,342.425 233.393,342.435 
			303.004,342.435 372.616,342.435 377.17,342.425 381.722,342.338 386.269,342.103 390.8,341.655 395.296,340.944 399.732,339.928 
			404.082,338.581 408.31,336.886 412.373,334.835 416.24,332.431 419.873,329.688 423.238,326.621 426.305,323.254 
			429.048,319.623 431.45,315.757 433.503,311.691 435.199,307.465 436.546,303.117 437.561,298.678 438.273,294.182 
			438.722,289.651 438.955,285.104 439.043,280.552 439.052,275.999 434.498,275.99 429.945,275.902 425.399,275.666 
			420.868,275.22 416.374,274.508 411.935,273.493 407.585,272.146 403.36,270.451 399.294,268.399 395.428,265.996 
			391.795,263.252 388.432,260.185 385.362,256.82 382.62,253.187 380.216,249.32 378.168,245.256 376.469,241.03 375.122,236.682 
			374.106,232.244 373.397,227.746 372.949,223.215 372.712,218.668 372.628,214.117 372.618,209.564 372.618,139.952 		"/>
	</g>
</g>
<g id="MountainLine">
	<g id="LINE">
		
			<line fill="none" stroke="#000000" stroke-linecap="round" stroke-linejoin="round" x1="166.958" y1="276" x2="369.439" y2="276"/>
	</g>
	<g id="LINE_2_">
		
			<line fill="none" stroke="#000000" stroke-linecap="round" stroke-linejoin="round" x1="166.958" y1="276" x2="166.958" y2="478.482"/>
	</g>
	<g id="LINE_4_">
		<line fill="none" stroke="#000000" stroke-linecap="round" stroke-linejoin="round" x1="166.958" y1="276" x2="30.712" y2="276"/>
	</g>
	<g id="LINE_6_">
		
			<line fill="none" stroke="#000000" stroke-linecap="round" stroke-linejoin="round" x1="166.958" y1="276" x2="166.958" y2="139.952"/>
	</g>
	<g id="LINE_215_">
		
			<line fill="none" stroke="#000000" stroke-linecap="round" stroke-linejoin="round" x1="439.052" y1="275.999" x2="575.099" y2="276.009"/>
	</g>
	<g id="LINE_214_">
		
			<line fill="none" stroke="#000000" stroke-linecap="round" stroke-linejoin="round" x1="439.052" y1="275.999" x2="439.052" y2="139.952"/>
	</g>
	<g id="LINE_213_">
		
			<line fill="none" stroke="#000000" stroke-linecap="round" stroke-linejoin="round" x1="439.052" y1="275.999" x2="369.439" y2="276"/>
	</g>
	<g id="LINE_212_">
		
			<line fill="none" stroke="#000000" stroke-linecap="round" stroke-linejoin="round" x1="439.052" y1="275.999" x2="439.052" y2="478.482"/>
	</g>
	<g id="LINE_415_">
		
			<line fill="none" stroke="#000000" stroke-linecap="round" stroke-linejoin="round" x1="439.052" y1="548.093" x2="236.572" y2="548.093"/>
	</g>
	<g id="LINE_414_">
		
			<line fill="none" stroke="#000000" stroke-linecap="round" stroke-linejoin="round" x1="439.052" y1="548.093" x2="439.052" y2="478.482"/>
	</g>
	<g id="LINE_413_">
		
			<line fill="none" stroke="#000000" stroke-linecap="round" stroke-linejoin="round" x1="439.052" y1="548.093" x2="575.099" y2="548.093"/>
	</g>
	<g id="LINE_412_">
		
			<line fill="none" stroke="#000000" stroke-linecap="round" stroke-linejoin="round" x1="439.052" y1="548.093" x2="439.052" y2="684.14"/>
	</g>
	<g id="LINE_311_">
		
			<line fill="none" stroke="#000000" stroke-linecap="round" stroke-linejoin="round" x1="166.959" y1="548.093" x2="30.712" y2="548.093"/>
	</g>
	<g id="LINE_310_">
		
			<line fill="none" stroke="#000000" stroke-linecap="round" stroke-linejoin="round" x1="166.959" y1="548.093" x2="166.959" y2="684.14"/>
	</g>
	<g id="LINE_309_">
		
			<line fill="none" stroke="#000000" stroke-linecap="round" stroke-linejoin="round" x1="166.959" y1="548.093" x2="236.572" y2="548.093"/>
	</g>
	<g id="LINE_308_">
		
			<line fill="none" stroke="#000000" stroke-linecap="round" stroke-linejoin="round" x1="166.959" y1="548.093" x2="166.958" y2="478.482"/>
	</g>
</g>
<g id="Text">
	<text transform="matrix(1 0 0 1 432.3096 815.2715)" font-family="'ArialMT'" font-size="14">(c) 2016 Jun Mitani</text>
	<text transform="matrix(1 0 0 1 30.7119 42.1099)" font-family="'ArialMT'" font-size="18">Vortex</text>
</g>
</svg>
