<?xml version="1.0" encoding="utf-8"?>
<!-- Generator: Adobe Illustrator 22.0.0, SVG Export Plug-In . SVG Version: 6.00 Build 0)  -->
<svg version="1.1" id="Layer_1" xmlns="http://www.w3.org/2000/svg" xmlns:xlink="http://www.w3.org/1999/xlink" x="0px" y="0px"
	 viewBox="0 0 279.7 318.8" style="enable-background:new 0 0 279.7 318.8;" xml:space="preserve">
<style type="text/css">
	.st0{fill:none;stroke:#F90D0D;stroke-linecap:round;stroke-linejoin:round;stroke-miterlimit:500;stroke-dasharray:4,4;}
	.st1{fill:none;stroke:#F90D0D;stroke-linecap:round;stroke-linejoin:round;stroke-miterlimit:500;}
</style>
<line class="st0" x1="-1.1" y1="237.8" x2="278.2" y2="237.8"/>
<line class="st0" x1="-1.1" y1="155.9" x2="278.2" y2="155.9"/>
<line class="st0" x1="-1.1" y1="73.9" x2="278.2" y2="73.9"/>
<polyline class="st1" points="278.2,272.5 263,278.8 253,282.9 243.1,287 233,290.9 222.9,294.6 212.7,298 202.4,301.1 191.9,303.8 
	181.4,306.1 170.8,307.9 160.1,309.3 149.3,310.1 138.6,310.3 127.8,310.1 117.1,309.3 106.4,307.9 95.7,306.1 85.2,303.8 
	74.8,301.1 64.5,298 54.2,294.6 44.1,290.9 34.1,287 24.1,282.9 14.1,278.8 -1.1,272.5 "/>
<polyline class="st1" points="278.2,190.6 263,196.9 253,201 243.1,205 233,208.9 222.9,212.6 212.7,216 202.4,219.2 191.9,221.9 
	181.4,224.2 170.8,226 160.1,227.3 149.3,228.1 138.6,228.4 127.8,228.1 117.1,227.3 106.4,226 95.7,224.2 85.2,221.9 74.8,219.2 
	64.5,216 54.2,212.6 44.1,208.9 34.1,205 24.1,201 14.1,196.9 -1.1,190.6 "/>
<polyline class="st1" points="278.2,108.6 263,114.9 253,119 243.1,123.1 233,127 222.9,130.7 212.7,134.1 202.4,137.2 191.9,139.9 
	181.4,142.2 170.8,144 160.1,145.3 149.3,146.1 138.6,146.4 127.8,146.1 117.1,145.3 106.4,144 95.7,142.2 85.2,139.9 74.8,137.2 
	64.5,134.1 54.2,130.7 44.1,127 34.1,123.1 24.1,119 14.1,114.9 -1.1,108.6 "/>
<polyline class="st1" points="278.2,26.6 263,32.9 253,37 243.1,41.1 233,45 222.9,48.7 212.7,52.1 202.4,55.2 191.9,57.9 
	181.4,60.2 170.8,62.1 160.1,63.4 149.3,64.2 138.6,64.5 127.8,64.2 117.1,63.4 106.4,62.1 95.7,60.2 85.2,57.9 74.8,55.2 
	64.5,52.1 54.2,48.7 44.1,45 34.1,41.1 24.1,37 14.1,32.9 -1.1,26.6 "/>
</svg>
