<?xml version="1.0" encoding="utf-8"?>
<!-- Generator: Adobe Illustrator 22.0.0, SVG Export Plug-In . SVG Version: 6.00 Build 0)  -->
<svg version="1.1" id="Layer_1" xmlns="http://www.w3.org/2000/svg" xmlns:xlink="http://www.w3.org/1999/xlink" x="0px" y="0px"
	 viewBox="0 0 279.7 829.8" style="enable-background:new 0 0 279.7 829.8;" xml:space="preserve">
<style type="text/css">
	.st0{fill:none;stroke:#F90D0D;stroke-linecap:round;stroke-linejoin:round;stroke-miterlimit:500;stroke-dasharray:4,4;}
	.st1{fill:none;stroke:#F90D0D;stroke-linecap:round;stroke-linejoin:round;stroke-miterlimit:500;}
</style>
<line class="st0" x1="-1.1" y1="711.8" x2="278.2" y2="711.8"/>
<line class="st0" x1="-1.1" y1="609.9" x2="278.2" y2="609.9"/>
<line class="st0" x1="-1.1" y1="507.9" x2="278.2" y2="507.9"/>
<line class="st0" x1="-1.1" y1="405.9" x2="278.2" y2="405.9"/>
<line class="st0" x1="-1.1" y1="304" x2="278.2" y2="304"/>
<line class="st0" x1="-1.1" y1="202" x2="278.2" y2="202"/>
<line class="st0" x1="-1.1" y1="100.1" x2="278.2" y2="100.1"/>
<polyline class="st1" points="278.2,756.5 263,762.8 253,766.9 243.1,771 233,774.9 222.9,778.6 212.7,782 202.4,785.1 191.9,787.8 
	181.4,790.1 170.8,791.9 160.1,793.3 149.3,794.1 138.6,794.3 127.8,794.1 117.1,793.3 106.4,791.9 95.7,790.1 85.2,787.8 
	74.8,785.1 64.5,782 54.2,778.6 44.1,774.9 34.1,771 24.1,766.9 14.1,762.8 -1.1,756.5 "/>
<polyline class="st1" points="278.2,654.6 263,660.9 253,665 243.1,669 233,672.9 222.9,676.6 212.7,680 202.4,683.2 191.9,685.9 
	181.4,688.2 170.8,690 160.1,691.3 149.3,692.1 138.6,692.4 127.8,692.1 117.1,691.3 106.4,690 95.7,688.2 85.2,685.9 74.8,683.2 
	64.5,680 54.2,676.6 44.1,672.9 34.1,669 24.1,665 14.1,660.9 -1.1,654.6 "/>
<polyline class="st1" points="278.2,552.6 263,558.9 253,563 243.1,567.1 233,571 222.9,574.7 212.7,578.1 202.4,581.2 191.9,583.9 
	181.4,586.2 170.8,588 160.1,589.3 149.3,590.1 138.6,590.4 127.8,590.1 117.1,589.3 106.4,588 95.7,586.2 85.2,583.9 74.8,581.2 
	64.5,578.1 54.2,574.7 44.1,571 34.1,567.1 24.1,563 14.1,558.9 -1.1,552.6 "/>
<polyline class="st1" points="278.2,450.6 263,456.9 253,461 243.1,465.1 233,469 222.9,472.7 212.7,476.1 202.4,479.2 191.9,481.9 
	181.4,484.2 170.8,486.1 160.1,487.4 149.3,488.2 138.6,488.5 127.8,488.2 117.1,487.4 106.4,486.1 95.7,484.2 85.2,481.9 
	74.8,479.2 64.5,476.1 54.2,472.7 44.1,469 34.1,465.1 24.1,461 14.1,456.9 -1.1,450.6 "/>
<polyline class="st1" points="278.2,348.7 263,355 253,359.1 243.1,363.1 233,367 222.9,370.7 212.7,374.2 202.4,377.3 191.9,380 
	181.4,382.3 170.8,384.1 160.1,385.4 149.3,386.2 138.6,386.5 127.8,386.2 117.1,385.4 106.4,384.1 95.7,382.3 85.2,380 74.8,377.3 
	64.5,374.2 54.2,370.7 44.1,367 34.1,363.1 24.1,359.1 14.1,355 -1.1,348.7 "/>
<polyline class="st1" points="278.2,246.7 263,253 253,257.1 243.1,261.2 233,265.1 222.9,268.8 212.7,272.2 202.4,275.3 191.9,278 
	181.4,280.3 170.8,282.1 160.1,283.4 149.3,284.3 138.6,284.5 127.8,284.3 117.1,283.4 106.4,282.1 95.7,280.3 85.2,278 74.8,275.3 
	64.5,272.2 54.2,268.8 44.1,265.1 34.1,261.2 24.1,257.1 14.1,253 -1.1,246.7 "/>
<polyline class="st1" points="278.2,144.7 263,151 253,155.1 243.1,159.2 233,163.1 222.9,166.8 212.7,170.2 202.4,173.3 191.9,176 
	181.4,178.3 170.8,180.2 160.1,181.5 149.3,182.3 138.6,182.6 127.8,182.3 117.1,181.5 106.4,180.2 95.7,178.3 85.2,176 74.8,173.3 
	64.5,170.2 54.2,166.8 44.1,163.1 34.1,159.2 24.1,155.1 14.1,151 -1.1,144.7 "/>
<polyline class="st1" points="278.2,42.8 263,49.1 253,53.2 243.1,57.2 233,61.1 222.9,64.8 212.7,68.3 202.4,71.4 191.9,74.1 
	181.4,76.4 170.8,78.2 160.1,79.5 149.3,80.3 138.6,80.6 127.8,80.3 117.1,79.5 106.4,78.2 95.7,76.4 85.2,74.1 74.8,71.4 
	64.5,68.3 54.2,64.8 44.1,61.1 34.1,57.2 24.1,53.2 14.1,49.1 -1.1,42.8 "/>
</svg>
