<?xml version="1.0" encoding="utf-8"?>
<!-- Generator: Adobe Illustrator 22.0.0, SVG Export Plug-In . SVG Version: 6.00 Build 0)  -->
<svg version="1.1" id="Layer_1" xmlns="http://www.w3.org/2000/svg" xmlns:xlink="http://www.w3.org/1999/xlink" x="0px" y="0px"
	 viewBox="0 0 279.7 660.8" style="enable-background:new 0 0 279.7 660.8;" xml:space="preserve">
<style type="text/css">
	.st0{fill:none;stroke:#F90D0D;stroke-linecap:round;stroke-linejoin:round;stroke-miterlimit:500;}
	.st1{fill:none;stroke:#F90D0D;stroke-linecap:round;stroke-linejoin:round;stroke-miterlimit:500;stroke-dasharray:4,4;}
</style>
<polyline class="st0" points="278.2,614.5 263,620.8 253,624.9 243.1,629 233,632.9 222.9,636.6 212.7,640 202.4,643.1 191.9,645.8 
	181.4,648.1 170.8,649.9 160.1,651.3 149.3,652.1 138.6,652.3 127.8,652.1 117.1,651.3 106.4,649.9 95.7,648.1 85.2,645.8 
	74.8,643.1 64.5,640 54.2,636.6 44.1,632.9 34.1,629 24.1,624.9 14.1,620.8 -1.1,614.5 "/>
<polyline class="st0" points="278.2,532.6 263,538.9 253,543 243.1,547 233,550.9 222.9,554.6 212.7,558 202.4,561.2 191.9,563.9 
	181.4,566.2 170.8,568 160.1,569.3 149.3,570.1 138.6,570.4 127.8,570.1 117.1,569.3 106.4,568 95.7,566.2 85.2,563.9 74.8,561.2 
	64.5,558 54.2,554.6 44.1,550.9 34.1,547 24.1,543 14.1,538.9 -1.1,532.6 "/>
<polyline class="st0" points="278.2,450.6 263,456.9 253,461 243.1,465.1 233,469 222.9,472.7 212.7,476.1 202.4,479.2 191.9,481.9 
	181.4,484.2 170.8,486 160.1,487.3 149.3,488.1 138.6,488.4 127.8,488.1 117.1,487.3 106.4,486 95.7,484.2 85.2,481.9 74.8,479.2 
	64.5,476.1 54.2,472.7 44.1,469 34.1,465.1 24.1,461 14.1,456.9 -1.1,450.6 "/>
<polyline class="st0" points="278.2,368.6 263,374.9 253,379 243.1,383.1 233,387 222.9,390.7 212.7,394.1 202.4,397.2 191.9,399.9 
	181.4,402.2 170.8,404.1 160.1,405.4 149.3,406.2 138.6,406.5 127.8,406.2 117.1,405.4 106.4,404.1 95.7,402.2 85.2,399.9 
	74.8,397.2 64.5,394.1 54.2,390.7 44.1,387 34.1,383.1 24.1,379 14.1,374.9 -1.1,368.6 "/>
<polyline class="st0" points="278.2,286.7 263,293 253,297.1 243.1,301.1 233,305 222.9,308.7 212.7,312.2 202.4,315.3 191.9,318 
	181.4,320.3 170.8,322.1 160.1,323.4 149.3,324.2 138.6,324.5 127.8,324.2 117.1,323.4 106.4,322.1 95.7,320.3 85.2,318 74.8,315.3 
	64.5,312.2 54.2,308.7 44.1,305 34.1,301.1 24.1,297.1 14.1,293 -1.1,286.7 "/>
<polyline class="st0" points="278.2,204.7 263,211 253,215.1 243.1,219.2 233,223.1 222.9,226.8 212.7,230.2 202.4,233.3 191.9,236 
	181.4,238.3 170.8,240.1 160.1,241.4 149.3,242.3 138.6,242.5 127.8,242.3 117.1,241.4 106.4,240.1 95.7,238.3 85.2,236 74.8,233.3 
	64.5,230.2 54.2,226.8 44.1,223.1 34.1,219.2 24.1,215.1 14.1,211 -1.1,204.7 "/>
<polyline class="st0" points="278.2,122.7 263,129 253,133.1 243.1,137.2 233,141.1 222.9,144.8 212.7,148.2 202.4,151.3 191.9,154 
	181.4,156.3 170.8,158.2 160.1,159.5 149.3,160.3 138.6,160.6 127.8,160.3 117.1,159.5 106.4,158.2 95.7,156.3 85.2,154 74.8,151.3 
	64.5,148.2 54.2,144.8 44.1,141.1 34.1,137.2 24.1,133.1 14.1,129 -1.1,122.7 "/>
<polyline class="st0" points="278.2,40.8 263,47.1 253,51.2 243.1,55.2 233,59.1 222.9,62.8 212.7,66.3 202.4,69.4 191.9,72.1 
	181.4,74.4 170.8,76.2 160.1,77.5 149.3,78.3 138.6,78.6 127.8,78.3 117.1,77.5 106.4,76.2 95.7,74.4 85.2,72.1 74.8,69.4 
	64.5,66.3 54.2,62.8 44.1,59.1 34.1,55.2 24.1,51.2 14.1,47.1 -1.1,40.8 "/>
<path class="st1" d="M0,93.1c38.9,6.6,85.3,11.7,137.5,12c54.2,0.3,102.1-5.5,142.2-12"/>
<path class="st1" d="M0,174.7c38.9,6.6,85.3,11.7,137.5,12c54.2,0.3,102.1-5.5,142.2-12"/>
<path class="st1" d="M-1.3,256.3c38.9,6.6,85.3,11.7,137.5,12c54.2,0.3,102.1-5.5,142.2-12"/>
<path class="st1" d="M0,339.6c38.9,6.6,85.3,11.7,137.5,12c54.2,0.3,102.1-5.5,142.2-12"/>
<path class="st1" d="M-0.5,421.3c38.9,6.6,85.3,11.7,137.5,12c54.2,0.3,102.1-5.5,142.2-12"/>
<path class="st1" d="M1,503c38.9,6.6,85.3,11.7,137.5,12c54.2,0.3,102.1-5.5,142.2-12"/>
<path class="st1" d="M-1.3,579.8c38.9,6.6,85.3,11.7,137.5,12c54.2,0.3,102.1-5.5,142.2-12"/>
<path class="st1" d="M2.8,11.8c38.9,6.6,85.3,11.7,137.5,12c54.2,0.3,102.1-5.5,142.2-12"/>
</svg>
