<?xml version="1.0" encoding="utf-8"?>
<!-- Generator: Adobe Illustrator 22.0.0, SVG Export Plug-In . SVG Version: 6.00 Build 0)  -->
<svg version="1.1" id="Layer_1" xmlns="http://www.w3.org/2000/svg" xmlns:xlink="http://www.w3.org/1999/xlink" x="0px" y="0px"
	 viewBox="0 0 279.7 162.2" style="enable-background:new 0 0 279.7 162.2;" xml:space="preserve">
<style type="text/css">
	.st0{fill:none;stroke:#F90D0D;stroke-linecap:round;stroke-linejoin:round;stroke-miterlimit:500;stroke-dasharray:4,4;}
	.st1{fill:none;stroke:#F90D0D;stroke-linecap:round;stroke-linejoin:round;stroke-miterlimit:500;}
</style>
<line class="st0" x1="-1.1" y1="81.2" x2="281" y2="81.2"/>
<polyline class="st1" points="278.2,116 263,122.2 253,126.4 243.1,130.5 233,134.4 222.9,138 212.7,141.5 202.4,144.5 191.9,147.2 
	181.4,149.5 170.8,151.4 160.1,152.8 149.3,153.5 138.6,153.8 127.8,153.5 117.1,152.8 106.4,151.4 95.7,149.5 85.2,147.2 
	74.8,144.5 64.5,141.5 54.2,138 44.1,134.4 34.1,130.5 24.1,126.4 14.1,122.2 -1.1,116 "/>
<polyline class="st1" points="278.2,34 263,40.4 253,44.5 243.1,48.5 233,52.4 222.9,56 212.7,59.5 202.4,62.7 191.9,65.4 
	181.4,67.7 170.8,69.5 160.1,70.8 149.3,71.5 138.6,71.9 127.8,71.5 117.1,70.8 106.4,69.5 95.7,67.7 85.2,65.4 74.8,62.7 
	64.5,59.5 54.2,56 44.1,52.4 34.1,48.5 24.1,44.5 14.1,40.4 -1.1,34 "/>
</svg>
