<?xml version="1.0" encoding="utf-8"?>
<!-- Generator: Adobe Illustrator 22.0.0, SVG Export Plug-In . SVG Version: 6.00 Build 0)  -->
<svg version="1.1" id="Layer_1" xmlns="http://www.w3.org/2000/svg" xmlns:xlink="http://www.w3.org/1999/xlink" x="0px" y="0px"
	 viewBox="0 0 279.7 655.8" style="enable-background:new 0 0 279.7 655.8;" xml:space="preserve">
<style type="text/css">
	.st0{fill:none;stroke:#F90D0D;stroke-linecap:round;stroke-linejoin:round;stroke-miterlimit:500;}
</style>
<polyline class="st0" points="278.2,609.5 263,615.8 253,619.9 243.1,624 233,627.9 222.9,631.6 212.7,635 202.4,638.1 191.9,640.8 
	181.4,643.1 170.8,644.9 160.1,646.3 149.3,647.1 138.6,647.3 127.8,647.1 117.1,646.3 106.4,644.9 95.7,643.1 85.2,640.8 
	74.8,638.1 64.5,635 54.2,631.6 44.1,627.9 34.1,624 24.1,619.9 14.1,615.8 -1.1,609.5 "/>
<polyline class="st0" points="278.2,527.6 263,533.9 253,538 243.1,542 233,545.9 222.9,549.6 212.7,553 202.4,556.2 191.9,558.9 
	181.4,561.2 170.8,563 160.1,564.3 149.3,565.1 138.6,565.4 127.8,565.1 117.1,564.3 106.4,563 95.7,561.2 85.2,558.9 74.8,556.2 
	64.5,553 54.2,549.6 44.1,545.9 34.1,542 24.1,538 14.1,533.9 -1.1,527.6 "/>
<polyline class="st0" points="278.2,445.6 263,451.9 253,456 243.1,460.1 233,464 222.9,467.7 212.7,471.1 202.4,474.2 191.9,476.9 
	181.4,479.2 170.8,481 160.1,482.3 149.3,483.1 138.6,483.4 127.8,483.1 117.1,482.3 106.4,481 95.7,479.2 85.2,476.9 74.8,474.2 
	64.5,471.1 54.2,467.7 44.1,464 34.1,460.1 24.1,456 14.1,451.9 -1.1,445.6 "/>
<polyline class="st0" points="278.2,363.6 263,369.9 253,374 243.1,378.1 233,382 222.9,385.7 212.7,389.1 202.4,392.2 191.9,394.9 
	181.4,397.2 170.8,399.1 160.1,400.4 149.3,401.2 138.6,401.5 127.8,401.2 117.1,400.4 106.4,399.1 95.7,397.2 85.2,394.9 
	74.8,392.2 64.5,389.1 54.2,385.7 44.1,382 34.1,378.1 24.1,374 14.1,369.9 -1.1,363.6 "/>
<polyline class="st0" points="278.2,281.7 263,288 253,292.1 243.1,296.1 233,300 222.9,303.7 212.7,307.2 202.4,310.3 191.9,313 
	181.4,315.3 170.8,317.1 160.1,318.4 149.3,319.2 138.6,319.5 127.8,319.2 117.1,318.4 106.4,317.1 95.7,315.3 85.2,313 74.8,310.3 
	64.5,307.2 54.2,303.7 44.1,300 34.1,296.1 24.1,292.1 14.1,288 -1.1,281.7 "/>
<polyline class="st0" points="278.2,199.7 263,206 253,210.1 243.1,214.2 233,218.1 222.9,221.8 212.7,225.2 202.4,228.3 191.9,231 
	181.4,233.3 170.8,235.1 160.1,236.4 149.3,237.3 138.6,237.5 127.8,237.3 117.1,236.4 106.4,235.1 95.7,233.3 85.2,231 74.8,228.3 
	64.5,225.2 54.2,221.8 44.1,218.1 34.1,214.2 24.1,210.1 14.1,206 -1.1,199.7 "/>
<polyline class="st0" points="278.2,117.7 263,124 253,128.1 243.1,132.2 233,136.1 222.9,139.8 212.7,143.2 202.4,146.3 191.9,149 
	181.4,151.3 170.8,153.2 160.1,154.5 149.3,155.3 138.6,155.6 127.8,155.3 117.1,154.5 106.4,153.2 95.7,151.3 85.2,149 74.8,146.3 
	64.5,143.2 54.2,139.8 44.1,136.1 34.1,132.2 24.1,128.1 14.1,124 -1.1,117.7 "/>
<polyline class="st0" points="278.2,35.8 263,42.1 253,46.2 243.1,50.2 233,54.1 222.9,57.8 212.7,61.3 202.4,64.4 191.9,67.1 
	181.4,69.4 170.8,71.2 160.1,72.5 149.3,73.3 138.6,73.6 127.8,73.3 117.1,72.5 106.4,71.2 95.7,69.4 85.2,67.1 74.8,64.4 
	64.5,61.3 54.2,57.8 44.1,54.1 34.1,50.2 24.1,46.2 14.1,42.1 -1.1,35.8 "/>
</svg>
