<?xml version="1.0" encoding="utf-8"?>
<!-- Generator: Adobe Illustrator 22.0.0, SVG Export Plug-In . SVG Version: 6.00 Build 0)  -->
<svg version="1.1" id="Layer_1" xmlns="http://www.w3.org/2000/svg" xmlns:xlink="http://www.w3.org/1999/xlink" x="0px" y="0px"
	 viewBox="0 0 279.7 913.8" style="enable-background:new 0 0 279.7 913.8;" xml:space="preserve">
<style type="text/css">
	.st0{fill:none;stroke:#F90D0D;stroke-linecap:round;stroke-linejoin:round;stroke-miterlimit:500;stroke-dasharray:4,4;}
	.st1{fill:none;stroke:#F90D0D;stroke-linecap:round;stroke-linejoin:round;stroke-miterlimit:500;}
</style>
<line class="st0" x1="-1.1" y1="805.8" x2="278.2" y2="805.8"/>
<line class="st0" x1="-1.1" y1="693.9" x2="278.2" y2="693.9"/>
<line class="st0" x1="-1.1" y1="581.9" x2="278.2" y2="581.9"/>
<line class="st0" x1="-1.1" y1="469.9" x2="278.2" y2="469.9"/>
<line class="st0" x1="-1.1" y1="358" x2="278.2" y2="358"/>
<line class="st0" x1="-1.1" y1="246" x2="278.2" y2="246"/>
<line class="st0" x1="-1.1" y1="134.1" x2="278.2" y2="134.1"/>
<polyline class="st1" points="278.2,840.5 263,846.8 253,850.9 243.1,855 233,858.9 222.9,862.6 212.7,866 202.4,869.1 191.9,871.8 
	181.4,874.1 170.8,875.9 160.1,877.3 149.3,878.1 138.6,878.3 127.8,878.1 117.1,877.3 106.4,875.9 95.7,874.1 85.2,871.8 
	74.8,869.1 64.5,866 54.2,862.6 44.1,858.9 34.1,855 24.1,850.9 14.1,846.8 -1.1,840.5 "/>
<polyline class="st1" points="278.2,728.6 263,734.9 253,739 243.1,743 233,746.9 222.9,750.6 212.7,754 202.4,757.2 191.9,759.9 
	181.4,762.2 170.8,764 160.1,765.3 149.3,766.1 138.6,766.4 127.8,766.1 117.1,765.3 106.4,764 95.7,762.2 85.2,759.9 74.8,757.2 
	64.5,754 54.2,750.6 44.1,746.9 34.1,743 24.1,739 14.1,734.9 -1.1,728.6 "/>
<polyline class="st1" points="278.2,616.6 263,622.9 253,627 243.1,631.1 233,635 222.9,638.7 212.7,642.1 202.4,645.2 191.9,647.9 
	181.4,650.2 170.8,652 160.1,653.3 149.3,654.1 138.6,654.4 127.8,654.1 117.1,653.3 106.4,652 95.7,650.2 85.2,647.9 74.8,645.2 
	64.5,642.1 54.2,638.7 44.1,635 34.1,631.1 24.1,627 14.1,622.9 -1.1,616.6 "/>
<polyline class="st1" points="278.2,504.6 263,510.9 253,515 243.1,519.1 233,523 222.9,526.7 212.7,530.1 202.4,533.2 191.9,535.9 
	181.4,538.2 170.8,540.1 160.1,541.4 149.3,542.2 138.6,542.5 127.8,542.2 117.1,541.4 106.4,540.1 95.7,538.2 85.2,535.9 
	74.8,533.2 64.5,530.1 54.2,526.7 44.1,523 34.1,519.1 24.1,515 14.1,510.9 -1.1,504.6 "/>
<polyline class="st1" points="278.2,392.7 263,399 253,403.1 243.1,407.1 233,411 222.9,414.7 212.7,418.2 202.4,421.3 191.9,424 
	181.4,426.3 170.8,428.1 160.1,429.4 149.3,430.2 138.6,430.5 127.8,430.2 117.1,429.4 106.4,428.1 95.7,426.3 85.2,424 74.8,421.3 
	64.5,418.2 54.2,414.7 44.1,411 34.1,407.1 24.1,403.1 14.1,399 -1.1,392.7 "/>
<polyline class="st1" points="278.2,280.7 263,287 253,291.1 243.1,295.2 233,299.1 222.9,302.8 212.7,306.2 202.4,309.3 191.9,312 
	181.4,314.3 170.8,316.1 160.1,317.4 149.3,318.3 138.6,318.5 127.8,318.3 117.1,317.4 106.4,316.1 95.7,314.3 85.2,312 74.8,309.3 
	64.5,306.2 54.2,302.8 44.1,299.1 34.1,295.2 24.1,291.1 14.1,287 -1.1,280.7 "/>
<polyline class="st1" points="278.2,168.7 263,175 253,179.1 243.1,183.2 233,187.1 222.9,190.8 212.7,194.2 202.4,197.3 191.9,200 
	181.4,202.3 170.8,204.2 160.1,205.5 149.3,206.3 138.6,206.6 127.8,206.3 117.1,205.5 106.4,204.2 95.7,202.3 85.2,200 74.8,197.3 
	64.5,194.2 54.2,190.8 44.1,187.1 34.1,183.2 24.1,179.1 14.1,175 -1.1,168.7 "/>
<polyline class="st1" points="278.2,56.8 263,63.1 253,67.2 243.1,71.2 233,75.1 222.9,78.8 212.7,82.3 202.4,85.4 191.9,88.1 
	181.4,90.4 170.8,92.2 160.1,93.5 149.3,94.3 138.6,94.6 127.8,94.3 117.1,93.5 106.4,92.2 95.7,90.4 85.2,88.1 74.8,85.4 
	64.5,82.3 54.2,78.8 44.1,75.1 34.1,71.2 24.1,67.2 14.1,63.1 -1.1,56.8 "/>
</svg>
