<?xml version="1.0" encoding="utf-8"?>
<!-- Generator: Adobe Illustrator 22.0.0, SVG Export Plug-In . SVG Version: 6.00 Build 0)  -->
<svg version="1.1" id="Layer_1" xmlns="http://www.w3.org/2000/svg" xmlns:xlink="http://www.w3.org/1999/xlink" x="0px" y="0px"
	 viewBox="0 0 279.7 756.8" style="enable-background:new 0 0 279.7 756.8;" xml:space="preserve">
<style type="text/css">
	.st0{fill:none;stroke:#F90D0D;stroke-linecap:round;stroke-linejoin:round;stroke-miterlimit:500;stroke-dasharray:4,4;}
	.st1{fill:none;stroke:#F90D0D;stroke-linecap:round;stroke-linejoin:round;stroke-miterlimit:500;}
</style>
<line class="st0" x1="-1.1" y1="648.8" x2="278.2" y2="648.8"/>
<line class="st0" x1="-1.1" y1="556.9" x2="278.2" y2="556.9"/>
<line class="st0" x1="-1.1" y1="464.9" x2="278.2" y2="464.9"/>
<line class="st0" x1="-1.1" y1="372.9" x2="278.2" y2="372.9"/>
<line class="st0" x1="-1.1" y1="281" x2="278.2" y2="281"/>
<line class="st0" x1="-1.1" y1="189" x2="278.2" y2="189"/>
<line class="st0" x1="-1.1" y1="97.1" x2="278.2" y2="97.1"/>
<polyline class="st1" points="278.2,683.5 263,689.8 253,693.9 243.1,698 233,701.9 222.9,705.6 212.7,709 202.4,712.1 191.9,714.8 
	181.4,717.1 170.8,718.9 160.1,720.3 149.3,721.1 138.6,721.3 127.8,721.1 117.1,720.3 106.4,718.9 95.7,717.1 85.2,714.8 
	74.8,712.1 64.5,709 54.2,705.6 44.1,701.9 34.1,698 24.1,693.9 14.1,689.8 -1.1,683.5 "/>
<polyline class="st1" points="278.2,591.6 263,597.9 253,602 243.1,606 233,609.9 222.9,613.6 212.7,617 202.4,620.2 191.9,622.9 
	181.4,625.2 170.8,627 160.1,628.3 149.3,629.1 138.6,629.4 127.8,629.1 117.1,628.3 106.4,627 95.7,625.2 85.2,622.9 74.8,620.2 
	64.5,617 54.2,613.6 44.1,609.9 34.1,606 24.1,602 14.1,597.9 -1.1,591.6 "/>
<polyline class="st1" points="278.2,499.6 263,505.9 253,510 243.1,514.1 233,518 222.9,521.7 212.7,525.1 202.4,528.2 191.9,530.9 
	181.4,533.2 170.8,535 160.1,536.3 149.3,537.1 138.6,537.4 127.8,537.1 117.1,536.3 106.4,535 95.7,533.2 85.2,530.9 74.8,528.2 
	64.5,525.1 54.2,521.7 44.1,518 34.1,514.1 24.1,510 14.1,505.9 -1.1,499.6 "/>
<polyline class="st1" points="278.2,407.6 263,413.9 253,418 243.1,422.1 233,426 222.9,429.7 212.7,433.1 202.4,436.2 191.9,438.9 
	181.4,441.2 170.8,443.1 160.1,444.4 149.3,445.2 138.6,445.5 127.8,445.2 117.1,444.4 106.4,443.1 95.7,441.2 85.2,438.9 
	74.8,436.2 64.5,433.1 54.2,429.7 44.1,426 34.1,422.1 24.1,418 14.1,413.9 -1.1,407.6 "/>
<polyline class="st1" points="278.2,315.7 263,322 253,326.1 243.1,330.1 233,334 222.9,337.7 212.7,341.2 202.4,344.3 191.9,347 
	181.4,349.3 170.8,351.1 160.1,352.4 149.3,353.2 138.6,353.5 127.8,353.2 117.1,352.4 106.4,351.1 95.7,349.3 85.2,347 74.8,344.3 
	64.5,341.2 54.2,337.7 44.1,334 34.1,330.1 24.1,326.1 14.1,322 -1.1,315.7 "/>
<polyline class="st1" points="278.2,223.7 263,230 253,234.1 243.1,238.2 233,242.1 222.9,245.8 212.7,249.2 202.4,252.3 191.9,255 
	181.4,257.3 170.8,259.1 160.1,260.4 149.3,261.3 138.6,261.5 127.8,261.3 117.1,260.4 106.4,259.1 95.7,257.3 85.2,255 74.8,252.3 
	64.5,249.2 54.2,245.8 44.1,242.1 34.1,238.2 24.1,234.1 14.1,230 -1.1,223.7 "/>
<polyline class="st1" points="278.2,131.7 263,138 253,142.1 243.1,146.2 233,150.1 222.9,153.8 212.7,157.2 202.4,160.3 191.9,163 
	181.4,165.3 170.8,167.2 160.1,168.5 149.3,169.3 138.6,169.6 127.8,169.3 117.1,168.5 106.4,167.2 95.7,165.3 85.2,163 74.8,160.3 
	64.5,157.2 54.2,153.8 44.1,150.1 34.1,146.2 24.1,142.1 14.1,138 -1.1,131.7 "/>
<polyline class="st1" points="278.2,39.8 263,46.1 253,50.2 243.1,54.2 233,58.1 222.9,61.8 212.7,65.3 202.4,68.4 191.9,71.1 
	181.4,73.4 170.8,75.2 160.1,76.5 149.3,77.3 138.6,77.6 127.8,77.3 117.1,76.5 106.4,75.2 95.7,73.4 85.2,71.1 74.8,68.4 
	64.5,65.3 54.2,61.8 44.1,58.1 34.1,54.2 24.1,50.2 14.1,46.1 -1.1,39.8 "/>
</svg>
