<?xml version="1.0" encoding="utf-8"?>
<!-- Generator: Adobe Illustrator 22.0.0, SVG Export Plug-In . SVG Version: 6.00 Build 0)  -->
<svg version="1.1" id="Layer_1" xmlns="http://www.w3.org/2000/svg" xmlns:xlink="http://www.w3.org/1999/xlink" x="0px" y="0px"
	 viewBox="0 0 768 768" style="enable-background:new 0 0 768 768;" xml:space="preserve">
<style type="text/css">
	.st0{fill:none;stroke:#000000;stroke-width:2;stroke-miterlimit:10;}
	.st1{fill:none;stroke:#F40808;stroke-linecap:round;stroke-linejoin:round;}
	.st2{fill:none;stroke:#F40B0B;stroke-width:0.7087;stroke-linecap:round;stroke-linejoin:round;stroke-miterlimit:10;}
</style>
<path class="st0" d="M495.9,246.7c1.4-25-5.5-50.6-21.3-72.5c-36.5-50.3-106.9-61.4-157.2-24.9c-32.1,23.3-48.3,60.4-46.2,97.3
	c-23.3-9.1-49.8-10.4-75.5-2.1c-59.1,19.2-91.5,82.7-72.3,141.8c12.3,37.7,42.6,64.6,78.3,74c-15.8,19.4-25.3,44.2-25.3,71.1
	c0,62.2,50.4,112.6,112.6,112.6c39.7,0,74.6-20.5,94.6-51.6c13.5,21.1,34.2,37.7,59.8,46.1c59.1,19.2,122.6-13.1,141.8-72.3
	c12.3-37.7,3.5-77.3-19.8-105.9c24.2-6.4,46.5-20.8,62.3-42.7c36.5-50.3,25.4-120.7-24.9-157.2C570.7,237.3,530.4,233.4,495.9,246.7
	z"/>
<path class="st1" d="M382.5,402.5l-182,57.7"/>
<path class="st1" d="M383.5,402.5l-112-156"/>
<line class="st1" x1="383.5" y1="402.5" x2="383.5" y2="592.5"/>
<line class="st1" x1="565.5" y1="460.5" x2="382.5" y2="402.5"/>
<line class="st1" x1="495.5" y1="246.5" x2="382.5" y2="402.5"/>
<path class="st2" d="M383.4,399.5c7.9-11,33.1-48.9,30.4-102c-2.5-47.3-26.4-99.1-69.3-123c-11-6.2-30.7-12.3-38-14"/>
<path class="st2" d="M381.8,404.7c-12.9,4.3-55.6,20.1-84.5,64.7c-25.8,39.7-36.8,95.7-16.2,140.2c5.3,11.5,17.6,28,22.5,33.6"/>
<path class="st2" d="M381.5,401.9c-8-10.9-36.3-46.6-87.6-60.4c-45.8-12.3-102.4-5.5-138.4,27.9c-9.3,8.6-21.2,25.4-25.1,31.8"/>
<path class="st2" d="M384.8,404.1c0.1,13.6,2,59.1,35.4,100.4c29.8,36.8,79.6,64.6,128.4,58.8c12.5-1.5,32-8.1,39-11"/>
<path class="st2" d="M384.8,401c12.9,4.1,56.6,16.4,106.1-2.5c44.1-16.9,85.7-55.6,95.2-103.8c2.4-12.4,2.2-33,1.5-40.4"/>
</svg>
