<?xml version="1.0" encoding="utf-8"?>
<!-- Generator: Adobe Illustrator 22.0.0, SVG Export Plug-In . SVG Version: 6.00 Build 0)  -->
<svg version="1.1" id="Layer_1" xmlns="http://www.w3.org/2000/svg" xmlns:xlink="http://www.w3.org/1999/xlink" x="0px" y="0px"
	 viewBox="0 0 768 768" style="enable-background:new 0 0 768 768;" xml:space="preserve">
<style type="text/css">
	.st0{fill:none;stroke:#333333;stroke-width:2;stroke-miterlimit:10;}
	.st1{fill:none;stroke:#F70B0B;stroke-linecap:round;stroke-linejoin:round;stroke-dasharray:4.0793,4.0793;}
	.st2{fill:none;stroke:#F70B0B;stroke-linecap:round;stroke-linejoin:round;stroke-dasharray:4.0787,4.0787;}
	.st3{fill:none;stroke:#F70B0B;stroke-linecap:round;stroke-linejoin:round;}
	.st4{fill:none;stroke:#F70B0B;stroke-linecap:round;stroke-linejoin:round;stroke-dasharray:4.0781,4.0781;}
	.st5{fill:none;stroke:#F70B0B;stroke-linecap:round;stroke-linejoin:round;stroke-dasharray:4.0779,4.0779;}
	.st6{fill:none;stroke:#F70B0B;stroke-linecap:round;stroke-linejoin:round;stroke-dasharray:4.0786,4.0786;}
</style>
<g id="CutLine">
	<path class="st0" d="M201.2,394c-35.7-9.5-66-36.3-78.3-74c-19.2-59.1,13.1-122.6,72.3-141.8c25.7-8.3,52.2-7,75.5,2.1"/>
	<path class="st0" d="M201.2,394c-15.8,19.4-25.3,44.2-25.3,71.1c0,62.2,50.4,112.6,112.6,112.6c39.7,0,74.6-20.5,94.6-51.6
		c13.5,21.1,34.2,37.7,59.8,46.1c59.1,19.2,122.6-13.1,141.8-72.3c12.3-37.7,3.5-77.3-19.8-105.9v0c24.2-6.4,46.5-20.8,62.3-42.7
		c36.5-50.3,25.4-120.7-24.9-157.2c-32.1-23.3-72.4-27.2-106.9-13.9h0c1.4-25-5.5-50.6-21.3-72.4c-36.5-50.3-106.9-61.4-157.2-24.9
		c-32.1,23.3-48.3,60.5-46.2,97.3"/>
</g>
<g id="MountainLine">
	<g id="LINE_14_">
		<g>
			<g>
				<g>
					<line class="st1" x1="382.5" y1="334.5" x2="563.5" y2="393.5"/>
				</g>
			</g>
		</g>
	</g>
	<g id="LINE_13_">
		<g>
			<g>
				<g>
					<line class="st2" x1="382.5" y1="334.5" x2="383" y2="526.5"/>
				</g>
			</g>
		</g>
	</g>
	<g id="LINE_12_">
		<g>
			<g>
				<g>
					<line class="st3" x1="381.5" y1="335.5" x2="377.6" y2="336.6"/>
					<line class="st4" x1="373.7" y1="337.9" x2="202.5" y2="393.5"/>
				</g>
			</g>
		</g>
	</g>
	<g id="LINE_11_">
		<g>
			<g>
				<g>
					<line class="st5" x1="382.5" y1="334.5" x2="270.5" y2="180.5"/>
				</g>
			</g>
		</g>
	</g>
	<g id="LINE_10_">
		<g>
			<g>
				<g>
					<line class="st6" x1="382.5" y1="334.5" x2="495.5" y2="180.5"/>
				</g>
			</g>
		</g>
	</g>
</g>
</svg>
