<?xml version="1.0" encoding="utf-8"?>
<!-- Generator: Adobe Illustrator 22.0.0, SVG Export Plug-In . SVG Version: 6.00 Build 0)  -->
<svg version="1.1" id="Layer_1" xmlns="http://www.w3.org/2000/svg" xmlns:xlink="http://www.w3.org/1999/xlink" x="0px" y="0px"
	 viewBox="0 0 800 800" style="enable-background:new 0 0 800 800;" xml:space="preserve">
<style type="text/css">
	.st0{fill:none;stroke:#F90606;stroke-miterlimit:10;}
</style>
<path class="st0" d="M-0.5,799.5c1.4-2.3,3.9-4.9,6.5-8.5c5.6-7.6,11.4-13.4,20-21c13.7-12,25.3-20.1,28-22
	c19.3-13.4,35.3-21.6,40-24c12.1-6.1,27.9-13.9,50-20c11.4-3.1,28.8-7.8,52-8c19.6-0.2,34.5,2.8,45,5c7.3,1.5,22.1,4.9,40,12
	c17.5,6.9,29.7,14,40,20c24.7,14.4,41.5,28.3,47,33c12.9,10.9,23.7,25.8,31.5,34.5"/>
<path class="st0" d="M399.5,401c-1.4,2.3-3.9,4.9-6.5,8.5c-5.6,7.6-11.4,13.4-20,21c-13.7,12-25.3,20.1-28,22
	c-19.3,13.4-35.3,21.6-40,24c-12.1,6.1-27.9,13.9-50,20c-11.4,3.1-28.8,7.8-52,8c-19.6,0.2-34.5-2.8-45-5c-7.3-1.5-22.1-4.9-40-12
	c-17.5-6.9-29.7-14-40-20c-24.7-14.4-41.5-28.3-47-33C18.1,423.6,7.3,408.7-0.5,400"/>
<line class="st0" x1="399.5" y1="800.5" x2="399.5" y2="400.5"/>
<path class="st0" d="M399.5,799.5c1.4-2.3,3.9-4.9,6.5-8.5c5.6-7.6,11.4-13.4,20-21c13.7-12,25.3-20.1,28-22
	c19.3-13.4,35.3-21.6,40-24c12.1-6.1,27.9-13.9,50-20c11.4-3.1,28.8-7.8,52-8c19.6-0.2,34.5,2.8,45,5c7.3,1.5,22.1,4.9,40,12
	c17.5,6.9,29.7,14,40,20c24.7,14.4,41.5,28.3,47,33c12.9,10.9,23.7,25.8,31.5,34.5"/>
<path class="st0" d="M799.5,401c-1.4,2.3-3.9,4.9-6.5,8.5c-5.6,7.6-11.4,13.4-20,21c-13.7,12-25.3,20.1-28,22
	c-19.3,13.4-35.3,21.6-40,24c-12.1,6.1-27.9,13.9-50,20c-11.4,3.1-28.8,7.8-52,8c-19.6,0.2-34.5-2.8-45-5c-7.3-1.5-22.1-4.9-40-12
	c-17.5-6.9-29.7-14-40-20c-24.7-14.4-41.5-28.3-47-33c-12.9-10.9-23.7-25.8-31.5-34.5"/>
<line class="st0" x1="-0.5" y1="399.5" x2="799.5" y2="400.5"/>
<path class="st0" d="M199.5,399.5c1.4-2.3,3.9-4.9,6.5-8.5c5.6-7.6,11.4-13.4,20-21c13.7-12,25.3-20.1,28-22
	c19.3-13.4,35.3-21.6,40-24c12.1-6.1,27.9-13.9,50-20c11.4-3.1,28.8-7.8,52-8c19.6-0.2,34.5,2.8,45,5c7.3,1.5,22.1,4.9,40,12
	c17.5,6.9,29.7,14,40,20c24.7,14.4,41.5,28.3,47,33c12.9,10.9,23.7,25.8,31.5,34.5"/>
<path class="st0" d="M599.5,1c-1.4,2.3-3.9,4.9-6.5,8.5c-5.6,7.6-11.4,13.4-20,21c-13.7,12-25.3,20.1-28,22
	c-19.3,13.4-35.3,21.6-40,24c-12.1,6.1-27.9,13.9-50,20c-11.4,3.1-28.8,7.8-52,8c-19.6,0.2-34.5-2.8-45-5c-7.3-1.5-22.1-4.9-40-12
	c-17.5-6.9-29.7-14-40-20c-24.7-14.4-41.5-28.3-47-33C218.1,23.6,207.3,8.7,199.5,0"/>
<path class="st0" d="M599.5,400.5c1.4-2.3,3.9-4.9,6.5-8.5c5.6-7.6,11.4-13.4,20-21c13.7-12,25.3-20.1,28-22
	c19.3-13.4,35.3-21.6,40-24c12.1-6.1,27.9-13.9,50-20c11.4-3.1,28.8-7.8,52-8c1.4,0,2.8,0,4.1,0"/>
<path class="st0" d="M799.9,105.5c-18.1-0.1-32-2.9-41.9-5c-7.3-1.5-22.1-4.9-40-12c-17.5-6.9-29.7-14-40-20
	c-24.7-14.4-41.5-28.3-47-33C618.1,24.6,607.3,9.7,599.5,1"/>
<line class="st0" x1="599.5" y1="400" x2="599.5" y2="0"/>
<line class="st0" x1="199.5" y1="400" x2="199.5" y2="0"/>
<path class="st0" d="M200.1,399.5c-1.4-2.3-3.9-4.9-6.5-8.5c-5.6-7.6-11.4-13.4-20-21c-13.7-12-25.3-20.1-28-22
	c-19.3-13.4-35.3-21.6-40-24c-12.1-6.1-27.9-13.9-50-20c-11.4-3.1-28.8-7.8-52-8c-1.4,0-2.8,0-4.1,0"/>
<path class="st0" d="M-0.5,105.5c18.1-0.1,32-2.9,41.9-5c7.3-1.5,22.1-4.9,40-12c17.5-6.9,29.7-14,40-20c24.7-14.4,41.5-28.3,47-33
	C181.3,24.6,192,9.7,199.9,1"/>
</svg>
