<?xml version="1.0" encoding="utf-8"?>
<!-- Generator: Adobe Illustrator 22.0.0, SVG Export Plug-In . SVG Version: 6.00 Build 0)  -->
<svg version="1.1" id="Layer_1" xmlns="http://www.w3.org/2000/svg" xmlns:xlink="http://www.w3.org/1999/xlink" x="0px" y="0px"
	 viewBox="0 0 900 900" style="enable-background:new 0 0 900 900;" xml:space="preserve">
<style type="text/css">
	.st0{fill:none;stroke:#FF0000;stroke-miterlimit:10;}
</style>
<path class="st0" d="M159.5,900.5c0.2-7.5,0.6-17.8,2-30c0.6-5.2,4.8-41.2,17-75c25.5-70.2,80.6-116.2,89-123
	c47.1-38.4,93.3-51.6,106-55c9.1-2.4,37.9-9.5,76-9c19.6,0.3,56.8,2.7,100,19c44.5,16.7,73.4,39.8,82,47c12.1,10.1,31,27.5,49,53
	c17.8,25.2,26.9,47.1,33,62c10.6,25.9,15.7,47.3,18,58c4.4,20.4,6.2,38.4,7,53"/>
<path class="st0" d="M739.5-1.5c-0.2,7.5-0.6,17.8-2,30c-0.6,5.2-4.8,41.2-17,75c-25.5,70.2-80.6,116.2-89,123
	c-47.1,38.4-93.3,51.6-106,55c-9.1,2.4-37.9,9.5-76,9c-19.6-0.3-56.8-2.7-100-19c-44.5-16.7-73.4-39.8-82-47
	c-12.1-10.1-31-27.5-49-53c-17.8-25.2-26.9-47.1-33-62c-10.6-25.9-15.7-47.3-18-58c-4.4-20.4-6.2-38.4-7-53"/>
<path class="st0" d="M1,160.5c7.5,0.2,17.8,0.6,30,2c5.2,0.6,41.2,4.8,75,17c70.2,25.5,116.2,80.6,123,89
	c38.4,47.1,51.6,93.3,55,106c2.4,9.1,9.5,37.9,9,76c-0.3,19.6-2.7,56.8-19,100c-16.7,44.5-39.8,73.4-47,82c-10.1,12.1-27.5,31-53,49
	c-25.2,17.8-47.1,26.9-62,33c-25.9,10.6-47.3,15.7-58,18c-20.4,4.4-38.4,6.2-53,7"/>
<path class="st0" d="M899,739.5c-7.5-0.2-17.8-0.6-30-2c-5.2-0.6-41.2-4.8-75-17c-70.2-25.5-116.2-80.6-123-89
	c-38.4-47.1-51.6-93.3-55-106c-2.4-9.1-9.5-37.9-9-76c0.3-19.6,2.7-56.8,19-100c16.7-44.5,39.8-73.4,47-82c10.1-12.1,27.5-31,53-49
	c25.2-17.8,47.1-26.9,62-33c25.9-10.6,47.3-15.7,58-18c20.4-4.4,38.4-6.2,53-7"/>
<path class="st0" d="M247.4,902.7c0.1-5.2,0.4-12.5,1.4-21c0.4-3.6,3.4-28.8,11.9-52.5c17.9-49.1,56.4-81.3,62.3-86.1
	c33-26.9,65.3-36.1,74.2-38.5c6.4-1.7,26.5-6.7,53.2-6.3c13.7,0.2,39.8,1.9,70,13.3c31.2,11.7,51.4,27.9,57.4,32.9
	c8.5,7.1,21.7,19.2,34.3,37.1c12.5,17.6,18.8,33,23.1,43.4c7.4,18.1,11,33.1,12.6,40.6c3.1,14.3,4.3,26.9,4.9,37.1"/>
<path class="st0" d="M652.7,1.3c-0.1,5.2-0.4,12.5-1.4,21c-0.4,3.6-3.4,28.8-11.9,52.5c-17.8,49.1-56.4,81.3-62.3,86.1
	c-33,26.9-65.3,36.1-74.2,38.5c-6.4,1.7-26.5,6.6-53.2,6.3c-13.7-0.2-39.8-1.9-70-13.3c-31.1-11.7-51.4-27.9-57.4-32.9
	c-8.5-7.1-21.7-19.2-34.3-37.1c-12.5-17.6-18.8-33-23.1-43.4c-7.4-18.1-11-33.1-12.6-40.6c-3.1-14.3-4.3-26.9-4.9-37.1"/>
<path class="st0" d="M0.8,235.4c5.2,0.1,12.5,0.4,21,1.4c3.6,0.4,28.8,3.4,52.5,11.9c49.1,17.9,81.3,56.4,86.1,62.3
	c26.9,33,36.1,65.3,38.5,74.2c1.7,6.4,6.7,26.5,6.3,53.2c-0.2,13.7-1.9,39.8-13.3,70c-11.7,31.2-27.9,51.4-32.9,57.4
	c-7.1,8.5-19.2,21.7-37.1,34.3c-17.6,12.5-33,18.8-43.4,23.1c-18.1,7.4-33.1,11-40.6,12.6c-14.3,3.1-26.9,4.3-37.1,4.9"/>
<path class="st0" d="M900.2,652.7c-5.2-0.1-12.5-0.4-21-1.4c-3.6-0.4-28.8-3.4-52.5-11.9c-49.1-17.8-81.3-56.4-86.1-62.3
	c-26.9-33-36.1-65.3-38.5-74.2c-1.7-6.4-6.6-26.5-6.3-53.2c0.2-13.7,1.9-39.8,13.3-70c11.7-31.1,27.9-51.4,32.9-57.4
	c7.1-8.5,19.2-21.7,37.1-34.3c17.6-12.5,33-18.8,43.4-23.1c18.1-7.4,33.1-11,40.6-12.6c14.3-3.1,26.9-4.3,37.1-4.9"/>
<path class="st0" d="M1,195c6.2,0.1,15,0.5,25.2,1.7c4.3,0.5,34.6,4.1,63,14.3c58.9,21.5,97.6,67.7,103.3,74.8
	c32.3,39.6,43.3,78.4,46.2,89c2,7.7,8,31.8,7.6,63.8c-0.2,16.4-2.3,47.8-16,84c-14,37.4-33.5,61.7-39.5,68.9
	c-8.5,10.2-23,26-44.5,41.2c-21.1,15-39.6,22.6-52.1,27.7c-21.7,8.9-39.7,13.2-48.7,15.1c-17.2,3.7-32.3,5.2-44.5,5.9"/>
<path class="st0" d="M195.9,900.9c0.1-6.5,0.5-15.5,1.7-26.1c0.5-4.5,4.2-35.8,14.8-65.3c22.3-61,70.1-101.1,77.5-107.1
	c41-33.4,81.2-44.9,92.3-47.9c8-2.1,32.9-8.3,66.1-7.8c17,0.2,49.5,2.4,87,16.5c38.8,14.5,63.9,34.7,71.4,40.9
	c10.6,8.8,27,23.9,42.6,46.1c15.5,21.9,23.4,41,28.7,54c9.2,22.5,13.7,41.2,15.7,50.5c3.9,17.8,5.3,33.4,6.1,46.1"/>
<path class="st0" d="M700.8,0.7c-0.1,6.5-0.5,15.5-1.7,26.1c-0.5,4.5-4.2,35.8-14.8,65.3c-22.3,61-70.1,101.1-77.5,107.1
	c-41,33.4-81.2,44.9-92.3,47.9c-8,2.1-32.9,8.3-66.1,7.8c-17-0.2-49.5-2.4-87-16.5c-38.8-14.5-63.9-34.7-71.4-40.9
	c-10.6-8.8-27-23.9-42.6-46.1c-15.5-21.9-23.4-41-28.7-54C209.5,74.8,205,56.2,203,46.8c-3.9-17.8-5.3-33.4-6.1-46.1"/>
<path class="st0" d="M900.3,691.4c-6.2-0.1-15-0.5-25.2-1.7c-4.3-0.5-34.6-4.1-63-14.3c-58.9-21.5-97.6-67.7-103.3-74.8
	c-32.3-39.6-43.3-78.4-46.2-89c-2-7.7-8-31.8-7.6-63.8c0.2-16.4,2.3-47.8,16-84c14-37.4,33.5-61.7,39.5-68.9
	c8.5-10.2,23-26,44.5-41.2c21.1-15,39.6-22.6,52.1-27.7c21.7-8.9,39.7-13.2,48.7-15.1c17.2-3.7,32.3-5.2,44.5-5.9"/>
</svg>
