<?xml version="1.0" encoding="utf-8"?>
<!-- Generator: Adobe Illustrator 22.0.0, SVG Export Plug-In . SVG Version: 6.00 Build 0)  -->
<svg version="1.1" id="Layer_1" xmlns="http://www.w3.org/2000/svg" xmlns:xlink="http://www.w3.org/1999/xlink" x="0px" y="0px"
	 viewBox="0 0 900 900" style="enable-background:new 0 0 900 900;" xml:space="preserve">
<style type="text/css">
	.st0{fill:none;stroke:#FF0000;stroke-miterlimit:10;}
</style>
<path class="st0" d="M159.5,900.5c0.2-7.5,0.6-17.8,2-30c0.6-5.2,4.8-41.2,17-75c25.5-70.2,80.6-116.2,89-123
	c47.1-38.4,93.3-51.6,106-55c9.1-2.4,37.9-9.5,76-9c19.6,0.3,56.8,2.7,100,19c44.5,16.7,73.4,39.8,82,47c12.1,10.1,31,27.5,49,53
	c17.8,25.2,26.9,47.1,33,62c10.6,25.9,15.7,47.3,18,58c4.4,20.4,6.2,38.4,7,53"/>
<path class="st0" d="M739.5-1.5c-0.2,7.5-0.6,17.8-2,30c-0.6,5.2-4.8,41.2-17,75c-25.5,70.2-80.6,116.2-89,123
	c-47.1,38.4-93.3,51.6-106,55c-9.1,2.4-37.9,9.5-76,9c-19.6-0.3-56.8-2.7-100-19c-44.5-16.7-73.4-39.8-82-47
	c-12.1-10.1-31-27.5-49-53c-17.8-25.2-26.9-47.1-33-62c-10.6-25.9-15.7-47.3-18-58c-4.4-20.4-6.2-38.4-7-53"/>
<path class="st0" d="M1,160.5c7.5,0.2,17.8,0.6,30,2c5.2,0.6,41.2,4.8,75,17c70.2,25.5,116.2,80.6,123,89
	c38.4,47.1,51.6,93.3,55,106c2.4,9.1,9.5,37.9,9,76c-0.3,19.6-2.7,56.8-19,100c-16.7,44.5-39.8,73.4-47,82c-10.1,12.1-27.5,31-53,49
	c-25.2,17.8-47.1,26.9-62,33c-25.9,10.6-47.3,15.7-58,18c-20.4,4.4-38.4,6.2-53,7"/>
<path class="st0" d="M899,739.5c-7.5-0.2-17.8-0.6-30-2c-5.2-0.6-41.2-4.8-75-17c-70.2-25.5-116.2-80.6-123-89
	c-38.4-47.1-51.6-93.3-55-106c-2.4-9.1-9.5-37.9-9-76c0.3-19.6,2.7-56.8,19-100c16.7-44.5,39.8-73.4,47-82c10.1-12.1,27.5-31,53-49
	c25.2-17.8,47.1-26.9,62-33c25.9-10.6,47.3-15.7,58-18c20.4-4.4,38.4-6.2,53-7"/>
<path class="st0" d="M247.4,902.7c0.1-5.2,0.4-12.5,1.4-21c0.4-3.6,3.4-28.8,11.9-52.5c17.9-49.1,56.4-81.3,62.3-86.1
	c33-26.9,65.3-36.1,74.2-38.5c6.4-1.7,26.5-6.7,53.2-6.3c13.7,0.2,39.8,1.9,70,13.3c31.2,11.7,51.4,27.9,57.4,32.9
	c8.5,7.1,21.7,19.2,34.3,37.1c12.5,17.6,18.8,33,23.1,43.4c7.4,18.1,11,33.1,12.6,40.6c3.1,14.3,4.3,26.9,4.9,37.1"/>
<path class="st0" d="M652.7,1.3c-0.1,5.2-0.4,12.5-1.4,21c-0.4,3.6-3.4,28.8-11.9,52.5c-17.8,49.1-56.4,81.3-62.3,86.1
	c-33,26.9-65.3,36.1-74.2,38.5c-6.4,1.7-26.5,6.6-53.2,6.3c-13.7-0.2-39.8-1.9-70-13.3c-31.1-11.7-51.4-27.9-57.4-32.9
	c-8.5-7.1-21.7-19.2-34.3-37.1c-12.5-17.6-18.8-33-23.1-43.4c-7.4-18.1-11-33.1-12.6-40.6c-3.1-14.3-4.3-26.9-4.9-37.1"/>
<path class="st0" d="M0.8,247.4c5.2,0.1,12.5,0.4,21,1.4c3.6,0.4,28.8,3.4,52.5,11.9c49.1,17.9,81.3,56.4,86.1,62.3
	c26.9,33,36.1,65.3,38.5,74.2c1.7,6.4,6.7,26.5,6.3,53.2c-0.2,13.7-1.9,39.8-13.3,70c-11.7,31.2-27.9,51.4-32.9,57.4
	c-7.1,8.5-19.2,21.7-37.1,34.3c-17.6,12.5-33,18.8-43.4,23.1c-18.1,7.4-33.1,11-40.6,12.6c-14.3,3.1-26.9,4.3-37.1,4.9"/>
<path class="st0" d="M900.2,652.7c-5.2-0.1-12.5-0.4-21-1.4c-3.6-0.4-28.8-3.4-52.5-11.9c-49.1-17.8-81.3-56.4-86.1-62.3
	c-26.9-33-36.1-65.3-38.5-74.2c-1.7-6.4-6.6-26.5-6.3-53.2c0.2-13.7,1.9-39.8,13.3-70c11.7-31.1,27.9-51.4,32.9-57.4
	c7.1-8.5,19.2-21.7,37.1-34.3c17.6-12.5,33-18.8,43.4-23.1c18.1-7.4,33.1-11,40.6-12.6c14.3-3.1,26.9-4.3,37.1-4.9"/>
</svg>
