<?xml version="1.0" encoding="utf-8"?>
<!-- Generator: Adobe Illustrator 22.0.0, SVG Export Plug-In . SVG Version: 6.00 Build 0)  -->
<svg version="1.1" id="Layer_1" xmlns="http://www.w3.org/2000/svg" xmlns:xlink="http://www.w3.org/1999/xlink" x="0px" y="0px"
	 viewBox="0 0 915.8 768" style="enable-background:new 0 0 915.8 768;" xml:space="preserve">
<style type="text/css">
	.st0{fill:#FFFFFF;stroke:#EF1635;stroke-miterlimit:10;}
</style>
<path class="st0" d="M915.8,349.5c-20,91-140.3,145.5-232.3,145.5c-118,0-203.1-44.5-232-142.1c-20-90.9-134-139.4-226-139.4
	c-118,0-196.6,41.8-225.5,139.4"/>
<path class="st0" d="M915.8,529.7c-20,91-140.3,145.5-232.3,145.5c-118,0-203.1-44.5-232-142.1c-20-90.9-134-139.4-226-139.4
	c-118,0-196.6,41.8-225.5,139.4"/>
<path class="st0" d="M915.8,156.5c-20,91-140.3,145.5-232.3,145.5c-118,0-203.1-44.5-232-142.1c-20-90.9-134-139.4-226-139.4
	C107.5,20.5,28.9,62.3,0,159.9"/>
<path class="st0" d="M499.6,768c-21.6-21.2-37.7-48-47.5-80.9c-20-90.9-134-139.4-226-139.4c-118,0-196.6,41.8-225.5,139.4"/>
<path class="st0" d="M914.8,0.3c-20,91-140.3,145.5-232.3,145.5c-118,0-203.1-48.5-232-146.1"/>
</svg>
