<?xml version="1.0" encoding="utf-8"?>
<!-- Generator: Adobe Illustrator 22.0.0, SVG Export Plug-In . SVG Version: 6.00 Build 0)  -->
<svg version="1.1" id="Layer_1" xmlns="http://www.w3.org/2000/svg" xmlns:xlink="http://www.w3.org/1999/xlink" x="0px" y="0px"
	 viewBox="0 0 1366 768" style="enable-background:new 0 0 1366 768;" xml:space="preserve">
<style type="text/css">
	.st0{fill:none;stroke:#F70B0B;stroke-miterlimit:10;}
</style>
<polyline class="st0" points="0,275.1 80.6,243.6 215.6,203.1 428.6,248.1 598.8,303.5 613.1,308.1 881.6,384 1201.1,557.1 
	1255.1,768 "/>
<polyline class="st0" points="339,768 405,551 503,408 596,309 598.8,303.5 607.7,280.3 662.6,131.1 704.6,0 "/>
<polyline class="st0" points="888,768 816,661 775,556 665,417.5 615,340.5 602.2,313.5 598.8,303.5 593.2,288.2 527,132 438.5,106 
	321,55.5 265,21 247.5,0 "/>
</svg>
