<?xml version="1.0" encoding="utf-8"?>
<!-- Generator: Adobe Illustrator 22.0.0, SVG Export Plug-In . SVG Version: 6.00 Build 0)  -->
<svg version="1.1" id="Layer_1" xmlns="http://www.w3.org/2000/svg" xmlns:xlink="http://www.w3.org/1999/xlink" x="0px" y="0px"
	 viewBox="0 0 492 1027.2" style="enable-background:new 0 0 492 1027.2;" xml:space="preserve">
<style type="text/css">
	.st0{fill:none;stroke:#FF0000;stroke-miterlimit:10;}
</style>
<path class="st0" d="M525.9,917.3c0,0-74.4-137.2-286-137.2s-286,137.2-286,137.2"/>
<path class="st0" d="M529.9,847.3c0,0-74.4-137.2-286-137.2s-286,137.2-286,137.2"/>
<path class="st0" d="M526.9,552.3c0,0-74.4-137.2-286-137.2s-286,137.2-286,137.2"/>
<path class="st0" d="M530.9,482.3c0,0-74.4-137.2-286-137.2s-286,137.2-286,137.2"/>
<path class="st0" d="M526.9,312.3c0,0-74.4-137.2-286-137.2s-286,137.2-286,137.2"/>
<path class="st0" d="M530.9,242.3c0,0-74.4-137.2-286-137.2s-286,137.2-286,137.2"/>
</svg>
