<?xml version="1.0" encoding="utf-8"?>
<!-- Generator: Adobe Illustrator 22.0.0, SVG Export Plug-In . SVG Version: 6.00 Build 0)  -->
<svg version="1.1" id="Layer_1" xmlns="http://www.w3.org/2000/svg" xmlns:xlink="http://www.w3.org/1999/xlink" x="0px" y="0px"
	 viewBox="0 0 2603.9 2563.1" style="enable-background:new 0 0 2603.9 2563.1;" xml:space="preserve">
<style type="text/css">
	.st0{fill:none;stroke:#F90B2D;stroke-miterlimit:10;}
</style>
<g>
	<polyline class="st0" points="1207.9,-139 1229.1,-133.7 1254.2,-124.1 1278.6,-114.4 1302.8,-103.3 1326.5,-91.4 1338.2,-84.6 
		1349.7,-78 1360.3,-71.9 1370.3,-64.7 1380.9,-57.6 1391.3,-50.5 1401.3,-42.4 1411.8,-34 1422,-26.1 1431.2,-17.6 1440.3,-9.5 
		1449.2,-0.9 1458.9,8.4 1466.6,16.1 1476,26.7 1485.6,38 1493.9,48.6 1502,59.6 1512.9,72.8 1523.6,88.3 1532.7,101.6 
		1543.4,119.9 1553.1,138.2 1560.9,153.7 1567.5,166.2 1573.2,180.4 1578.5,192.1 1583.7,206.1 1590.6,226.2 1596.5,247 
		1597.8,250.4 1599.2,254.3 1601.9,261.6 1607.8,282.4 1614.7,302.5 1619.9,316.5 1625.2,328.2 1630.9,342.5 1637.5,355 
		1645.3,370.4 1655,388.7 1665.8,407 1674.8,420.4 1685.5,435.8 1696.4,449 1704.5,460 1712.8,470.6 1722.4,481.9 1731.9,492.6 
		1739.5,500.2 1749.2,509.5 1758.1,518.1 1767.2,526.3 1776.5,534.8 1786.6,542.7 1797.2,551 1807.2,559.1 1817.5,566.2 
		1828.2,573.3 1838.1,580.5 1848.8,586.6 1860.2,593.2 1871.9,600 1895.6,611.9 1919.8,623 1944.2,632.7 1969.3,642.3 1990.5,647.6 
		2001.1,649.8 2001,650.1 2022.2,655.4 2047.3,665 2071.7,674.7 2095.9,685.8 2119.6,697.7 2131.3,704.5 2142.8,711.1 2153.4,717.2 
		2163.4,724.4 2174,731.5 2184.4,738.6 2194.4,746.7 2204.9,755.1 2215.1,763 2224.3,771.5 2233.4,779.6 2242.3,788.2 2252,797.5 
		2259.7,805.2 2269.1,815.8 2278.7,827.1 2287,837.7 2295.1,848.7 2306,861.9 2316.7,877.4 2325.8,890.7 2336.5,909 2346.2,927.3 
		2354,942.8 2360.6,955.3 2366.3,969.5 2371.6,981.2 2376.8,995.2 2383.7,1015.3 2389.6,1036.1 2390.9,1039.5 2392.3,1043.4 
		2395,1050.7 2400.9,1071.5 2407.8,1091.6 2413,1105.6 2418.3,1117.3 2424,1131.6 2430.6,1144.1 2438.4,1159.5 2448.1,1177.8 
		2458.9,1196.1 2467.9,1209.5 2478.6,1224.9 2489.5,1238.1 2497.6,1249.1 2505.9,1259.7 2515.5,1271 2525,1281.7 2532.6,1289.3 
		2542.3,1298.6 2551.2,1307.2 2560.3,1315.4 2569.6,1323.9 2579.7,1331.8 2590.3,1340.1 2600.3,1348.2 2610.6,1355.3 2621.3,1362.4 
		2631.2,1369.6 2641.9,1375.7 2653.3,1382.3 2665,1389.1 2688.7,1401 2712.9,1412.1 2737.3,1421.8 2762.4,1431.4 2783.6,1436.7 
		2794.2,1438.9 	"/>
</g>
<g>
	<polyline class="st0" points="2937.5,902.3 2922.3,918 2901.4,934.9 2880.8,951.2 2859.1,966.6 2837,981.2 2825.2,987.9 
		2813.8,994.6 2803.2,1000.7 2791.9,1005.7 2780.5,1011.4 2769.1,1016.8 2757.1,1021.4 2744.6,1026.3 2732.7,1031.2 2720.7,1034.9 
		2709.1,1038.8 2697.2,1042.2 2684.3,1045.9 2673.8,1048.7 2659.9,1051.6 2645.4,1054.3 2632,1056.1 2618.4,1057.7 2601.6,1060.5 
		2582.8,1062 2566.7,1063.2 2545.5,1063.4 2524.8,1062.6 2507.5,1061.6 2493.4,1061.1 2478.2,1058.9 2465.5,1057.7 2450.7,1055.2 
		2429.9,1051.1 2408.9,1045.8 2405.3,1045.2 2401.2,1044.5 2393.6,1043.2 2372.6,1037.9 2351.7,1033.8 2337,1031.3 2324.2,1030 
		2309,1027.8 2294.9,1027.3 2277.6,1026.4 2256.9,1025.6 2235.7,1025.8 2219.6,1026.9 2200.9,1028.5 2184,1031.3 2170.4,1032.8 
		2157.1,1034.7 2142.5,1037.4 2128.5,1040.3 2118.1,1043 2105.2,1046.8 2093.3,1050.2 2081.7,1054 2069.7,1057.8 2057.8,1062.6 
		2045.3,1067.6 2033.3,1072.2 2022,1077.6 2010.5,1083.3 1999.3,1088.3 1988.7,1094.5 1977.2,1101.1 1965.5,1107.8 1943.3,1122.4 
		1921.6,1137.8 1901,1154.1 1880.2,1171 1865,1186.7 1857.8,1194.8 1858.4,1194.4 1843.2,1210.1 1822.3,1227.1 1801.7,1243.4 
		1780,1258.8 1757.8,1273.3 1746.1,1280.1 1734.6,1286.7 1724.1,1292.9 1712.8,1297.9 1701.4,1303.6 1690,1309 1678,1313.6 
		1665.5,1318.5 1653.5,1323.4 1641.6,1327.1 1630,1330.9 1618.1,1334.4 1605.2,1338.1 1594.7,1340.9 1580.8,1343.8 1566.2,1346.4 
		1552.9,1348.3 1539.3,1349.8 1522.4,1352.7 1503.7,1354.2 1487.6,1355.4 1466.4,1355.5 1445.7,1354.8 1428.4,1353.8 1414.2,1353.3 
		1399.1,1351.1 1386.3,1349.8 1371.6,1347.3 1350.7,1343.3 1329.8,1338 1326.2,1337.4 1322.1,1336.7 1314.4,1335.3 1293.5,1330.1 
		1272.6,1326 1257.9,1323.5 1245.1,1322.2 1229.9,1320 1215.7,1319.5 1198.5,1318.5 1177.8,1317.8 1156.6,1318 1140.5,1319.1 
		1121.8,1320.6 1104.9,1323.5 1091.3,1325 1078,1326.9 1063.4,1329.6 1049.4,1332.4 1039,1335.2 1026.1,1339 1014.2,1342.4 
		1002.5,1346.2 990.5,1350 978.6,1354.8 966.2,1359.8 954.1,1364.4 942.8,1369.8 931.3,1375.5 920.2,1380.5 909.5,1386.7 
		898.1,1393.2 886.4,1400 864.2,1414.5 842.5,1430 821.9,1446.2 801,1463.2 785.8,1478.9 778.6,1487 778.6,1486.3 763.4,1502 
		742.5,1519 721.9,1535.3 700.2,1550.7 678,1565.2 666.3,1572 654.8,1578.6 644.3,1584.8 633,1589.8 621.6,1595.5 610.2,1600.9 
		598.2,1605.5 585.7,1610.4 573.7,1615.3 561.8,1619 550.2,1622.8 538.3,1626.3 525.4,1630 514.9,1632.8 501,1635.7 486.4,1638.3 
		473.1,1640.2 459.5,1641.7 442.6,1644.6 423.9,1646.1 407.8,1647.3 386.6,1647.4 365.9,1646.7 348.6,1645.7 334.4,1645.2 
		319.3,1643 306.5,1641.7 291.8,1639.2 270.9,1635.2 250,1629.9 246.4,1629.3 242.3,1628.6 234.6,1627.2 213.7,1622 192.8,1617.9 
		178.1,1615.4 165.3,1614.1 150.1,1611.9 135.9,1611.4 118.7,1610.4 98,1609.7 76.8,1609.9 60.7,1611 42,1612.5 25.1,1615.4 
		11.5,1616.9 -1.8,1618.8 -16.4,1621.5 -30.4,1624.3 -40.8,1627.1 -53.7,1630.9 -65.6,1634.3 -77.3,1638.1 -89.3,1641.9 
		-101.2,1646.7 -113.6,1651.7 -125.7,1656.3 -137,1661.7 -148.5,1667.4 -159.6,1672.4 -170.3,1678.6 -181.7,1685.1 -193.4,1691.9 
		-215.6,1706.4 -237.3,1721.9 -257.9,1738.1 -278.8,1755.1 -294,1770.8 -301.2,1778.9 	"/>
</g>
<g>
	<polyline class="st0" points="-157.9,1234.2 -136.7,1239.5 -111.6,1249.1 -87.2,1258.8 -63,1269.9 -39.3,1281.8 -27.6,1288.6 
		-16.1,1295.2 -5.5,1301.3 4.5,1308.5 15.1,1315.6 25.5,1322.7 35.5,1330.8 46,1339.2 56.2,1347.1 65.4,1355.6 74.5,1363.7 
		83.4,1372.3 93.1,1381.6 100.8,1389.3 110.2,1399.9 119.8,1411.2 128.1,1421.8 136.2,1432.8 147.1,1446 157.8,1461.5 166.9,1474.8 
		177.6,1493.1 187.3,1511.4 195.1,1526.9 201.7,1539.4 207.4,1553.6 212.7,1565.3 217.9,1579.3 224.8,1599.4 230.7,1620.2 
		232,1623.6 233.4,1627.5 236.1,1634.8 242,1655.6 248.9,1675.7 254.1,1689.7 259.4,1701.4 265.1,1715.7 271.7,1728.2 279.5,1743.6 
		289.2,1761.9 300,1780.2 309,1793.6 319.7,1809 330.6,1822.2 338.7,1833.2 347,1843.8 356.6,1855.1 366.1,1865.8 373.7,1873.4 
		383.4,1882.7 392.3,1891.3 401.4,1899.5 410.7,1908 420.8,1915.9 431.4,1924.2 441.4,1932.3 451.7,1939.4 462.4,1946.5 
		472.3,1953.7 483,1959.8 494.4,1966.4 506.1,1973.2 529.8,1985.1 554,1996.2 578.4,2005.9 603.5,2015.5 624.7,2020.8 635.3,2023 
		636.1,2023.6 657.3,2028.9 682.4,2038.5 706.8,2048.2 731,2059.3 754.7,2071.2 766.4,2078 777.9,2084.6 788.5,2090.7 798.5,2097.9 
		809.1,2105 819.5,2112.1 829.5,2120.2 840,2128.6 850.2,2136.5 859.4,2145 868.5,2153.1 877.4,2161.7 887.1,2171 894.8,2178.7 
		904.2,2189.3 913.8,2200.6 922.1,2211.2 930.2,2222.2 941.1,2235.4 951.8,2250.9 960.9,2264.2 971.6,2282.5 981.3,2300.8 
		989.1,2316.3 995.7,2328.8 1001.4,2343 1006.7,2354.7 1011.9,2368.7 1018.8,2388.8 1024.7,2409.6 1026,2413 1027.4,2416.9 
		1030.1,2424.2 1036,2445 1042.9,2465.1 1048.1,2479.1 1053.4,2490.8 1059.1,2505.1 1065.7,2517.6 1073.5,2533 1083.2,2551.3 
		1094,2569.6 1103,2583 1113.7,2598.4 1124.6,2611.6 1132.7,2622.6 1141,2633.2 1150.6,2644.5 1160.1,2655.2 1167.7,2662.8 
		1177.4,2672.1 1186.3,2680.7 1195.4,2688.9 1204.7,2697.4 1214.8,2705.3 1225.4,2713.6 1235.4,2721.7 1245.7,2728.8 1256.4,2735.9 
		1266.3,2743.1 1277,2749.2 1288.4,2755.8 1300.1,2762.6 1323.8,2774.5 1348,2785.6 1372.4,2795.3 1397.5,2804.9 1418.7,2810.2 
		1429.3,2812.4 	"/>
</g>
<g>
	<polyline class="st0" points="882.4,2952.5 876.4,2931.5 872.2,2904.9 868.4,2879 865.9,2852.4 864.4,2826 864.4,2812.4 
		864.4,2799.2 864.3,2787 865.6,2774.7 866.4,2762 867.4,2749.4 869.4,2736.7 871.4,2723.4 873.2,2710.6 875.9,2698.4 878.4,2686.5 
		881.4,2674.5 884.6,2661.4 887.4,2650.9 891.9,2637.5 896.9,2623.5 901.9,2611 907.4,2598.5 913.4,2582.4 921.4,2565.4 
		928.4,2550.9 938.9,2532.5 949.9,2514.9 959.4,2500.4 966.9,2488.5 976.4,2476.4 983.9,2466 993.4,2454.5 1007.4,2438.5 
		1022.4,2422.9 1024.7,2420.1 1027.4,2417 1032.4,2411 1047.4,2395.5 1061.4,2379.4 1070.9,2367.9 1078.4,2357.5 1087.9,2345.4 
		1095.5,2333.4 1104.9,2319 1115.9,2301.4 1126.3,2282.9 1133.4,2268.4 1141.4,2251.5 1147.4,2235.4 1152.9,2222.9 1157.9,2210.4 
		1162.9,2196.5 1167.4,2182.9 1170.2,2172.5 1173.4,2159.5 1176.4,2147.4 1179,2135.5 1181.7,2123.2 1183.5,2110.5 1185.3,2097.1 
		1187.4,2084.4 1188.4,2072 1189.2,2059.1 1190.4,2047 1190.4,2034.6 1190.4,2021.5 1190.4,2007.9 1188.9,1981.5 1186.4,1955 
		1182.6,1929 1178.4,1902.4 1172.3,1881.4 1169,1871.2 1168.2,1871.2 1162.2,1850.2 1158,1823.6 1154.2,1797.7 1151.7,1771.1 
		1150.2,1744.7 1150.2,1731.1 1150.2,1717.9 1150.1,1705.7 1151.4,1693.4 1152.2,1680.7 1153.2,1668.1 1155.2,1655.4 1157.2,1642.1 
		1159,1629.3 1161.7,1617.1 1164.2,1605.2 1167.2,1593.2 1170.4,1580.1 1173.2,1569.6 1177.7,1556.2 1182.7,1542.2 1187.7,1529.7 
		1193.2,1517.2 1199.2,1501.1 1207.2,1484.1 1214.2,1469.6 1224.7,1451.2 1235.7,1433.6 1245.2,1419.1 1252.7,1407.2 1262.2,1395.1 
		1269.7,1384.7 1279.2,1373.2 1293.2,1357.2 1308.2,1341.6 1310.5,1338.8 1313.2,1335.7 1318.2,1329.7 1333.2,1314.2 1347.2,1298.1 
		1356.7,1286.6 1364.2,1276.2 1373.7,1264.1 1381.3,1252.1 1390.7,1237.7 1401.7,1220.1 1412.1,1201.6 1419.2,1187.1 1427.2,1170.2 
		1433.2,1154.1 1438.7,1141.6 1443.7,1129.1 1448.7,1115.2 1453.2,1101.6 1456,1091.2 1459.2,1078.2 1462.2,1066.1 1464.8,1054.2 
		1467.5,1041.9 1469.3,1029.2 1471.1,1015.8 1473.2,1003.1 1474.2,990.7 1475,977.8 1476.2,965.7 1476.2,953.3 1476.2,940.2 
		1476.2,926.6 1474.7,900.2 1472.2,873.7 1468.4,847.7 1464.2,821.1 1458.1,800.1 1454.8,789.9 1454.3,789.9 1448.2,768.9 
		1444,742.4 1440.2,716.4 1437.7,689.9 1436.2,663.4 1436.2,649.9 1436.2,636.6 1436.2,624.4 1437.4,612.1 1438.3,599.4 
		1439.2,586.8 1441.2,574.1 1443.2,560.8 1445,548.1 1447.7,535.8 1450.2,523.9 1453.2,511.9 1456.4,498.8 1459.2,488.3 
		1463.7,474.9 1468.7,460.9 1473.7,448.4 1479.2,435.9 1485.2,419.9 1493.3,402.9 1500.2,388.3 1510.7,369.9 1521.7,352.4 
		1531.2,337.9 1538.8,325.9 1548.2,313.9 1555.7,303.4 1565.2,291.9 1579.2,275.9 1594.2,260.4 1596.5,257.6 1599.2,254.4 
		1604.2,248.4 1619.3,232.9 1633.2,216.9 1642.7,205.4 1650.2,194.9 1659.8,182.8 1667.3,170.9 1676.7,156.4 1687.7,138.9 
		1698.2,120.4 1705.3,105.9 1713.3,88.9 1719.2,72.9 1724.7,60.4 1729.7,47.9 1734.7,33.9 1739.2,20.3 1742,9.9 1745.2,-3.1 
		1748.2,-15.1 1750.8,-27.1 1753.5,-39.4 1755.3,-52.1 1757.2,-65.4 1759.2,-78.1 1760.2,-90.6 1761,-103.4 1762.3,-115.6 
		1762.2,-127.9 1762.2,-141.1 1762.3,-154.6 1760.7,-181.1 1758.2,-207.6 1754.4,-233.6 1750.2,-260.1 1744.2,-281.1 1740.8,-291.4 
			"/>
</g>
<g>
	<polyline class="st0" points="2287.7,-431.2 2308.9,-425.9 2334,-416.3 2358.4,-406.6 2382.6,-395.5 2406.3,-383.6 2418,-376.8 
		2429.5,-370.2 2440.1,-364.1 2450.1,-356.9 2460.7,-349.8 2471.1,-342.7 2481.1,-334.6 2491.6,-326.2 2501.8,-318.3 2511,-309.8 
		2520.1,-301.7 2529,-293.1 2538.7,-283.8 2546.4,-276.1 2555.8,-265.5 2565.4,-254.2 2573.7,-243.6 2581.8,-232.6 2592.7,-219.4 
		2603.4,-203.9 2612.5,-190.6 2623.2,-172.3 2632.9,-154 2640.7,-138.5 2647.3,-126 2653,-111.8 2658.3,-100.1 2663.5,-86.1 
		2670.4,-66 2676.3,-45.2 2677.6,-41.8 2679,-37.9 2681.7,-30.6 2687.6,-9.8 2694.5,10.3 2699.7,24.3 2705,36 2710.7,50.3 
		2717.3,62.8 2725.1,78.2 2734.8,96.5 2745.6,114.8 2754.6,128.2 2765.3,143.6 2776.2,156.8 2784.3,167.8 2792.6,178.4 
		2802.2,189.7 2811.7,200.4 2819.3,208 2829,217.3 2837.9,225.9 2847,234.1 2856.3,242.6 2866.4,250.5 2877,258.8 2887,266.9 
		2897.3,274 2908,281.1 2917.9,288.3 2928.6,294.4 2940,301 2951.7,307.8 2975.4,319.7 2999.6,330.8 3024,340.5 3049.1,350.1 
		3070.3,355.4 3080.9,357.6 	"/>
</g>
<g>
	<polyline class="st0" points="1961.2,2660.3 1955.2,2639.3 1951,2612.7 1947.2,2586.8 1944.7,2560.2 1943.2,2533.8 1943.2,2520.2 
		1943.2,2507 1943.1,2494.8 1944.4,2482.5 1945.2,2469.8 1946.2,2457.2 1948.2,2444.5 1950.2,2431.2 1952,2418.4 1954.7,2406.2 
		1957.2,2394.3 1960.2,2382.3 1963.4,2369.2 1966.2,2358.7 1970.7,2345.3 1975.7,2331.3 1980.7,2318.8 1986.2,2306.3 1992.2,2290.2 
		2000.2,2273.2 2007.2,2258.7 2017.7,2240.3 2028.7,2222.7 2038.2,2208.2 2045.7,2196.3 2055.2,2184.2 2062.7,2173.8 2072.2,2162.3 
		2086.2,2146.3 2101.2,2130.7 2103.5,2127.9 2106.2,2124.8 2111.2,2118.8 2126.2,2103.3 2140.2,2087.2 2149.7,2075.7 2157.2,2065.3 
		2166.7,2053.2 2174.3,2041.2 2183.7,2026.8 2194.7,2009.2 2205.1,1990.7 2212.2,1976.2 2220.2,1959.3 2226.2,1943.2 2231.7,1930.7 
		2236.7,1918.2 2241.7,1904.3 2246.2,1890.7 2249,1880.3 2252.2,1867.3 2255.2,1855.2 2257.8,1843.3 2260.5,1831 2262.3,1818.3 
		2264.1,1804.9 2266.2,1792.2 2267.2,1779.8 2268,1766.9 2269.2,1754.8 2269.2,1742.4 2269.2,1729.3 2269.2,1715.7 2267.7,1689.3 
		2265.2,1662.8 2261.4,1636.8 2257.2,1610.2 2251.1,1589.2 2247.8,1579 2247.4,1579 2241.4,1558 2237.1,1531.5 2233.3,1505.5 
		2230.8,1479 2229.3,1452.5 2229.3,1439 2229.3,1425.7 2229.3,1413.5 2230.5,1401.2 2231.4,1388.5 2232.3,1375.9 2234.3,1363.2 
		2236.3,1349.9 2238.1,1337.1 2240.9,1324.9 2243.3,1313 2246.3,1301 2249.5,1287.9 2252.3,1277.4 2256.8,1264 2261.8,1250 
		2266.8,1237.5 2272.3,1225 2278.3,1209 2286.4,1192 2293.3,1177.4 2303.8,1159 2314.8,1141.5 2324.4,1127 2331.9,1115 
		2341.3,1102.9 2348.8,1092.5 2358.3,1081 2372.3,1065 2387.4,1049.5 2389.6,1046.6 2392.3,1043.5 2397.3,1037.5 2412.4,1022 
		2426.3,1006 2435.8,994.5 2443.3,984 2452.9,971.9 2460.4,960 2469.8,945.5 2480.8,928 2491.3,909.5 2498.4,895 2506.4,878 
		2512.3,862 2517.8,849.4 2522.8,837 2527.8,823 2532.3,809.4 2535.1,799 2538.3,786 2541.3,774 2543.9,762 2546.6,749.7 
		2548.4,737 2550.3,723.7 2552.3,710.9 2553.3,698.5 2554.1,685.7 2555.4,673.5 2555.3,661.2 2555.3,648 2555.4,634.5 2553.8,608 
		2551.3,581.5 2547.5,555.5 2543.3,529 2537.3,508 2533.9,497.7 2534,497.7 2528,476.7 2523.8,450.1 2520,424.2 2517.5,397.6 
		2516,371.2 2516,357.6 2516,344.4 2515.9,332.2 2517.2,319.9 2518,307.2 2519,294.6 2521,281.9 2523,268.6 2524.8,255.8 
		2527.5,243.6 2530,231.7 2533,219.7 2536.2,206.6 2539,196.1 2543.5,182.7 2548.5,168.7 2553.5,156.2 2559,143.7 2565,127.6 
		2573,110.6 2580,96.1 2590.5,77.7 2601.5,60.1 2611,45.6 2618.5,33.7 2628,21.6 2635.5,11.2 2645,-0.3 2659,-16.3 2674,-31.9 
		2676.3,-34.7 2679,-37.8 2684,-43.8 2699,-59.3 2713,-75.4 2722.5,-86.9 2730,-97.3 2739.5,-109.4 2747.1,-121.4 2756.5,-135.8 
		2767.5,-153.4 2777.9,-171.9 2785,-186.4 2793,-203.3 2799,-219.4 2804.5,-231.9 2809.5,-244.4 2814.5,-258.3 2819,-271.9 
		2821.8,-282.3 2825,-295.3 2828,-307.4 2830.6,-319.3 2833.3,-331.6 2835.1,-344.3 2836.9,-357.7 2839,-370.4 2840,-382.8 
		2840.8,-395.7 2842,-407.8 2842,-420.2 2842,-433.3 2842,-446.9 2840.5,-473.3 2838,-499.8 2834.2,-525.8 2830,-552.4 
		2823.9,-573.4 2820.6,-583.6 	"/>
</g>
<g>
	<polyline class="st0" points="3224.2,-179.1 3209,-163.4 3188.1,-146.4 3167.5,-130.1 3145.8,-114.7 3123.6,-100.2 3111.9,-93.4 
		3100.4,-86.8 3089.9,-80.6 3078.6,-75.6 3067.2,-69.9 3055.8,-64.5 3043.8,-59.9 3031.3,-55 3019.3,-50.1 3007.4,-46.4 
		2995.8,-42.6 2983.9,-39.1 2971,-35.4 2960.5,-32.6 2946.6,-29.7 2932,-27.1 2918.7,-25.2 2905.1,-23.7 2888.2,-20.8 2869.5,-19.3 
		2853.4,-18.1 2832.2,-18 2811.5,-18.7 2794.2,-19.7 2780,-20.2 2764.9,-22.4 2752.1,-23.7 2737.4,-26.2 2716.5,-30.2 2695.6,-35.5 
		2692,-36.1 2687.9,-36.8 2680.2,-38.2 2659.3,-43.4 2638.4,-47.5 2623.7,-50 2610.9,-51.3 2595.7,-53.5 2581.5,-54 2564.3,-55 
		2543.6,-55.7 2522.4,-55.5 2506.3,-54.4 2487.6,-52.9 2470.7,-50 2457.1,-48.5 2443.8,-46.6 2429.2,-43.9 2415.2,-41.1 
		2404.8,-38.3 2391.9,-34.5 2380,-31.1 2368.3,-27.3 2356.3,-23.5 2344.4,-18.7 2332,-13.7 2319.9,-9.1 2308.6,-3.7 2297.1,2 
		2286,7 2275.3,13.2 2263.9,19.7 2252.2,26.5 2230,41 2208.3,56.5 2187.7,72.7 2166.8,89.7 2151.6,105.4 2144.4,113.5 2144.4,113.2 
		2129.2,128.9 2108.3,145.8 2087.7,162.1 2066,177.5 2043.9,192.1 2032.1,198.8 2020.7,205.5 2010.1,211.6 1998.8,216.7 
		1987.4,222.3 1976,227.7 1964,232.4 1951.5,237.3 1939.6,242.1 1927.6,245.9 1916,249.7 1904.1,253.1 1891.2,256.8 1880.7,259.7 
		1866.8,262.5 1852.2,265.2 1838.9,267.1 1825.3,268.6 1808.5,271.4 1789.7,272.9 1773.6,274.2 1752.4,274.3 1731.7,273.5 
		1714.4,272.5 1700.3,272 1685.1,269.8 1672.3,268.6 1657.6,266.1 1636.8,262 1615.8,256.7 1612.2,256.1 1608.1,255.4 1600.5,254.1 
		1579.5,248.8 1558.6,244.7 1543.9,242.2 1531.1,241 1515.9,238.7 1501.8,238.2 1484.5,237.3 1463.8,236.5 1442.6,236.7 
		1426.5,237.8 1407.8,239.4 1390.9,242.2 1377.3,243.7 1364,245.6 1349.4,248.3 1335.4,251.2 1325,253.9 1312.1,257.7 1300.2,261.1 
		1288.6,264.9 1276.6,268.7 1264.7,273.5 1252.2,278.5 1240.2,283.1 1228.9,288.5 1217.4,294.2 1206.2,299.2 1195.5,305.4 
		1184.1,312 1172.4,318.7 1150.2,333.3 1128.5,348.7 1107.9,365 1087.1,381.9 1071.9,397.6 1064.7,405.7 1064.7,405 1049.5,420.7 
		1028.6,437.7 1008,454 986.3,469.4 964.1,483.9 952.4,490.7 940.9,497.3 930.4,503.5 919.1,508.5 907.7,514.2 896.3,519.6 
		884.3,524.2 871.8,529.1 859.8,534 847.9,537.7 836.3,541.5 824.4,545 811.5,548.7 801,551.5 787.1,554.4 772.5,557 759.2,558.9 
		745.6,560.4 728.7,563.3 710,564.8 693.9,566 672.7,566.1 652,565.4 634.7,564.4 620.5,563.9 605.4,561.7 592.6,560.4 577.9,557.9 
		557,553.9 536.1,548.6 532.5,548 528.4,547.3 520.7,545.9 499.8,540.7 478.9,536.6 464.2,534.1 451.4,532.8 436.2,530.6 422,530.1 
		404.8,529.1 384.1,528.4 362.9,528.6 346.8,529.7 328.1,531.2 311.2,534.1 297.6,535.6 284.3,537.5 269.7,540.2 255.7,543 
		245.3,545.8 232.4,549.6 220.5,553 208.8,556.8 196.8,560.6 184.9,565.4 172.5,570.4 160.4,575 149.1,580.4 137.6,586.1 
		126.5,591.1 115.8,597.3 104.4,603.8 92.7,610.6 70.5,625.1 48.8,640.6 28.2,656.8 7.3,673.8 -7.9,689.5 -15.1,697.6 	"/>
</g>
<g>
	<polyline class="st0" points="-417.9,293.4 -423.9,272.4 -428.1,245.8 -431.9,219.9 -434.4,193.3 -435.9,166.9 -435.9,153.3 
		-435.9,140.1 -436,127.9 -434.7,115.6 -433.9,102.9 -432.9,90.3 -430.9,77.6 -428.9,64.3 -427.1,51.5 -424.4,39.3 -421.9,27.4 
		-418.9,15.4 -415.7,2.3 -412.9,-8.2 -408.4,-21.6 -403.4,-35.6 -398.4,-48.1 -392.9,-60.6 -386.9,-76.7 -378.9,-93.7 
		-371.9,-108.2 -361.4,-126.6 -350.4,-144.2 -340.9,-158.7 -333.4,-170.6 -323.9,-182.7 -316.4,-193.1 -306.9,-204.6 -292.9,-220.6 
		-277.9,-236.2 -275.6,-239 -272.9,-242.1 -267.9,-248.1 -252.9,-263.6 -238.9,-279.7 -229.4,-291.2 -221.9,-301.6 -212.4,-313.7 
		-204.8,-325.7 -195.4,-340.1 -184.4,-357.7 -174,-376.2 -166.9,-390.7 -158.9,-407.6 -152.9,-423.7 -147.4,-436.2 -142.4,-448.7 
		-137.4,-462.6 -132.9,-476.2 -130.1,-486.6 -126.9,-499.6 -123.9,-511.7 -121.3,-523.6 -118.6,-535.9 -116.8,-548.6 -115,-562 
		-112.9,-574.7 -111.9,-587.1 -111.1,-600 -109.9,-612.1 -109.9,-624.5 -109.9,-637.6 -109.9,-651.2 -111.4,-677.6 -113.9,-704.1 
		-117.7,-730.1 -121.9,-756.7 -128,-777.7 -131.3,-787.9 	"/>
</g>
<g>
	<polyline class="st0" points="272.3,-383.4 257.1,-367.7 236.2,-350.7 215.6,-334.4 193.9,-319 171.7,-304.5 160,-297.7 
		148.5,-291.1 138,-284.9 126.7,-279.9 115.3,-274.2 103.9,-268.8 91.9,-264.2 79.4,-259.3 67.4,-254.4 55.5,-250.7 43.9,-246.9 
		32,-243.4 19.1,-239.7 8.6,-236.9 -5.3,-234 -19.9,-231.4 -33.2,-229.5 -46.8,-228 -63.7,-225.1 -82.4,-223.6 -98.5,-222.4 
		-119.7,-222.3 -140.4,-223 -157.7,-224 -171.9,-224.5 -187,-226.7 -199.8,-228 -214.5,-230.5 -235.4,-234.5 -256.3,-239.8 
		-259.9,-240.4 -264,-241.1 -271.7,-242.5 -292.6,-247.7 -313.5,-251.8 -328.2,-254.3 -341,-255.6 -356.2,-257.8 -370.4,-258.3 
		-387.6,-259.3 -408.3,-260 -429.5,-259.8 -445.6,-258.7 -464.3,-257.2 -481.2,-254.3 -494.8,-252.8 -508.1,-250.9 -522.7,-248.2 
		-536.7,-245.4 -547.1,-242.6 -560,-238.8 -571.9,-235.4 -583.6,-231.6 -595.6,-227.8 -607.5,-223 -619.9,-218 -632,-213.4 
		-643.3,-208 -654.8,-202.3 -665.9,-197.3 -676.6,-191.1 -688,-184.6 -699.7,-177.8 -721.9,-163.3 -743.6,-147.8 -764.2,-131.6 
		-785.1,-114.6 -800.3,-98.9 -807.5,-90.8 	"/>
</g>
<g>
	<polyline class="st0" points="-443.7,2315.5 -422.5,2320.8 -397.4,2330.4 -373,2340.1 -348.8,2351.2 -325.1,2363.1 -313.4,2369.9 
		-301.9,2376.5 -291.3,2382.6 -281.3,2389.8 -270.7,2396.9 -260.3,2404 -250.3,2412.1 -239.8,2420.5 -229.6,2428.4 -220.4,2436.9 
		-211.3,2445 -202.4,2453.6 -192.7,2462.9 -185,2470.6 -175.6,2481.2 -166,2492.5 -157.7,2503.1 -149.6,2514.1 -138.7,2527.3 
		-128,2542.8 -118.9,2556.1 -108.2,2574.4 -98.5,2592.7 -90.7,2608.2 -84.1,2620.7 -78.4,2634.9 -73.1,2646.6 -67.9,2660.6 
		-61,2680.7 -55.1,2701.5 -53.8,2704.9 -52.4,2708.8 -49.7,2716.1 -43.8,2736.9 -36.9,2757 -31.7,2771 -26.4,2782.7 -20.7,2797 
		-14.1,2809.5 -6.3,2824.9 3.4,2843.2 14.2,2861.5 23.2,2874.9 33.9,2890.3 44.8,2903.5 52.9,2914.5 61.2,2925.1 70.8,2936.4 
		80.3,2947.1 87.9,2954.7 97.6,2964 106.5,2972.6 115.6,2980.8 124.9,2989.3 135,2997.2 145.6,3005.5 155.6,3013.6 165.9,3020.7 
		176.6,3027.8 186.5,3035 197.2,3041.1 208.6,3047.7 220.3,3054.5 244,3066.4 268.2,3077.5 292.6,3087.2 317.7,3096.8 338.9,3102.1 
		349.5,3104.3 	"/>
</g>
<g>
	<polyline class="st0" points="-197.4,3244.4 -203.4,3223.4 -207.6,3196.8 -211.4,3170.9 -213.9,3144.3 -215.4,3117.9 
		-215.4,3104.3 -215.4,3091.1 -215.5,3078.9 -214.2,3066.6 -213.4,3053.9 -212.4,3041.3 -210.4,3028.6 -208.4,3015.3 -206.6,3002.5 
		-203.9,2990.3 -201.4,2978.4 -198.4,2966.4 -195.2,2953.3 -192.4,2942.8 -187.9,2929.4 -182.9,2915.4 -177.9,2902.9 -172.4,2890.4 
		-166.4,2874.3 -158.4,2857.3 -151.4,2842.8 -140.9,2824.4 -129.9,2806.8 -120.4,2792.3 -112.9,2780.4 -103.4,2768.3 -95.9,2757.9 
		-86.4,2746.4 -72.4,2730.4 -57.4,2714.8 -55.1,2712 -52.4,2708.9 -47.4,2702.9 -32.4,2687.4 -18.4,2671.3 -8.9,2659.8 -1.4,2649.4 
		8.1,2637.3 15.7,2625.3 25.1,2610.9 36.1,2593.3 46.5,2574.8 53.6,2560.3 61.6,2543.4 67.6,2527.3 73.1,2514.8 78.1,2502.3 
		83.1,2488.4 87.6,2474.8 90.4,2464.4 93.6,2451.4 96.6,2439.3 99.2,2427.4 101.9,2415.1 103.7,2402.4 105.5,2389 107.6,2376.3 
		108.6,2363.9 109.4,2351 110.6,2338.9 110.6,2326.5 110.6,2313.4 110.6,2299.8 109.1,2273.4 106.6,2246.9 102.8,2220.9 
		98.6,2194.3 92.5,2173.3 89.2,2163.1 88.4,2163.1 82.4,2142.1 78.2,2115.5 74.4,2089.6 71.9,2063 70.4,2036.6 70.4,2023 
		70.4,2009.8 70.3,1997.6 71.6,1985.3 72.4,1972.6 73.4,1960 75.4,1947.3 77.4,1934 79.2,1921.2 81.9,1909 84.4,1897.1 87.4,1885.1 
		90.6,1872 93.4,1861.5 97.9,1848.1 102.9,1834.1 107.9,1821.6 113.4,1809.1 119.4,1793 127.4,1776 134.4,1761.5 144.9,1743.1 
		155.9,1725.5 165.4,1711 172.9,1699.1 182.4,1687 189.9,1676.6 199.4,1665.1 213.4,1649.1 228.4,1633.5 230.7,1630.7 233.4,1627.6 
		238.4,1621.6 253.4,1606.1 267.4,1590 276.9,1578.5 284.4,1568.1 293.9,1556 301.5,1544 310.9,1529.6 321.9,1512 332.3,1493.5 
		339.4,1479 347.4,1462.1 353.4,1446 358.9,1433.5 363.9,1421 368.9,1407.1 373.4,1393.5 376.2,1383.1 379.4,1370.1 382.4,1358 
		385,1346.1 387.7,1333.8 389.5,1321.1 391.3,1307.7 393.4,1295 394.4,1282.6 395.2,1269.7 396.4,1257.6 396.4,1245.2 396.4,1232.1 
		396.4,1218.5 394.9,1192.1 392.4,1165.6 388.6,1139.6 384.4,1113 378.3,1092 375,1081.8 374.5,1081.8 368.5,1060.8 364.3,1034.2 
		360.5,1008.3 358,981.7 356.5,955.3 356.5,941.7 356.5,928.5 356.4,916.3 357.7,904 358.5,891.3 359.5,878.7 361.5,866 
		363.5,852.7 365.3,839.9 368,827.7 370.5,815.8 373.5,803.8 376.7,790.7 379.5,780.2 384,766.8 389,752.8 394,740.3 399.5,727.8 
		405.5,711.7 413.5,694.7 420.5,680.2 431,661.8 442,644.2 451.5,629.7 459,617.8 468.5,605.7 476,595.3 485.5,583.8 499.5,567.8 
		514.5,552.2 516.8,549.4 519.5,546.3 524.5,540.3 539.5,524.8 553.5,508.7 563,497.2 570.5,486.8 580,474.7 587.6,462.7 597,448.3 
		608,430.7 618.4,412.2 625.5,397.7 633.5,380.8 639.5,364.7 645,352.2 650,339.7 655,325.8 659.5,312.2 662.3,301.8 665.5,288.8 
		668.5,276.7 671.1,264.8 673.8,252.5 675.6,239.8 677.4,226.4 679.5,213.7 680.5,201.3 681.3,188.4 682.5,176.3 682.5,163.9 
		682.5,150.8 682.5,137.2 681,110.8 678.5,84.3 674.7,58.3 670.5,31.7 664.4,10.7 661.1,0.5 	"/>
</g>
<g>
	<polyline class="st0" points="2651.4,1983.5 2636.2,1999.2 2615.3,2016.2 2594.7,2032.5 2573,2047.9 2550.8,2062.4 2539.1,2069.2 
		2527.6,2075.8 2517.1,2082 2505.8,2087 2494.4,2092.7 2483,2098.1 2471,2102.7 2458.5,2107.6 2446.5,2112.5 2434.6,2116.2 
		2423,2120 2411.1,2123.5 2398.2,2127.2 2387.7,2130 2373.8,2132.9 2359.2,2135.5 2345.9,2137.4 2332.3,2138.9 2315.4,2141.8 
		2296.7,2143.3 2280.6,2144.5 2259.4,2144.6 2238.7,2143.9 2221.4,2142.9 2207.2,2142.4 2192.1,2140.2 2179.3,2138.9 2164.6,2136.4 
		2143.7,2132.4 2122.8,2127.1 2119.2,2126.5 2115.1,2125.8 2107.4,2124.4 2086.5,2119.2 2065.6,2115.1 2050.9,2112.6 2038.1,2111.3 
		2022.9,2109.1 2008.7,2108.6 1991.5,2107.6 1970.8,2106.9 1949.6,2107.1 1933.5,2108.2 1914.8,2109.7 1897.9,2112.6 1884.3,2114.1 
		1871,2116 1856.4,2118.7 1842.4,2121.5 1832,2124.3 1819.1,2128.1 1807.2,2131.5 1795.5,2135.3 1783.5,2139.1 1771.6,2143.9 
		1759.2,2148.9 1747.1,2153.5 1735.8,2158.9 1724.3,2164.6 1713.2,2169.6 1702.5,2175.8 1691.1,2182.3 1679.4,2189.1 1657.2,2203.6 
		1635.5,2219.1 1614.9,2235.3 1594,2252.3 1578.8,2268 1571.6,2276.1 1572.6,2275.7 1557.4,2291.4 1536.5,2308.4 1515.9,2324.7 
		1494.2,2340.1 1472,2354.6 1460.3,2361.4 1448.8,2368 1438.3,2374.2 1427,2379.2 1415.6,2384.9 1404.2,2390.3 1392.2,2394.9 
		1379.7,2399.8 1367.7,2404.7 1355.8,2408.4 1344.2,2412.2 1332.3,2415.7 1319.4,2419.4 1308.9,2422.2 1295,2425.1 1280.4,2427.7 
		1267.1,2429.6 1253.5,2431.1 1236.6,2434 1217.9,2435.5 1201.8,2436.7 1180.6,2436.8 1159.9,2436.1 1142.6,2435.1 1128.4,2434.6 
		1113.3,2432.4 1100.5,2431.1 1085.8,2428.6 1064.9,2424.6 1044,2419.3 1040.4,2418.7 1036.3,2418 1028.6,2416.6 1007.7,2411.4 
		986.8,2407.3 972.1,2404.8 959.3,2403.5 944.1,2401.3 929.9,2400.8 912.7,2399.8 892,2399.1 870.8,2399.3 854.7,2400.4 836,2401.9 
		819.1,2404.8 805.5,2406.3 792.2,2408.2 777.6,2410.9 763.6,2413.7 753.2,2416.5 740.3,2420.3 728.4,2423.7 716.7,2427.5 
		704.7,2431.3 692.8,2436.1 680.4,2441.1 668.3,2445.7 657,2451.1 645.5,2456.8 634.4,2461.8 623.7,2468 612.3,2474.5 600.6,2481.3 
		578.4,2495.8 556.7,2511.3 536.1,2527.5 515.2,2544.5 500,2560.2 492.8,2568.3 492.8,2567.6 477.6,2583.3 456.7,2600.3 
		436.1,2616.6 414.4,2632 392.2,2646.5 380.5,2653.3 369,2659.9 358.5,2666.1 347.2,2671.1 335.8,2676.8 324.4,2682.2 312.4,2686.8 
		299.9,2691.7 287.9,2696.6 276,2700.3 264.4,2704.1 252.5,2707.6 239.6,2711.3 229.1,2714.1 215.2,2717 200.6,2719.6 187.3,2721.5 
		173.7,2723 156.8,2725.9 138.1,2727.4 122,2728.6 100.8,2728.7 80.1,2728 62.8,2727 48.6,2726.5 33.5,2724.3 20.7,2723 6,2720.5 
		-14.9,2716.5 -35.8,2711.2 -39.4,2710.6 -43.5,2709.9 -51.2,2708.5 -72.1,2703.3 -93,2699.2 -107.7,2696.7 -120.5,2695.4 
		-135.7,2693.2 -149.9,2692.7 -167.1,2691.7 -187.8,2691 -209,2691.2 -225.1,2692.3 -243.8,2693.8 -260.7,2696.7 -274.3,2698.2 
		-287.6,2700.1 -302.2,2702.8 -316.2,2705.6 -326.6,2708.4 -339.5,2712.2 -351.4,2715.6 -363.1,2719.4 -375.1,2723.2 -387,2728 
		-399.4,2733 -411.5,2737.6 -422.8,2743 -434.3,2748.7 -445.4,2753.7 -456.1,2759.9 -467.5,2766.4 -479.2,2773.2 -501.4,2787.7 
		-523.1,2803.2 -543.7,2819.4 -564.6,2836.4 -579.8,2852.1 -587,2860.2 	"/>
</g>
<g>
	<polyline class="st0" points="-664.2,-635.5 -643,-630.2 -617.9,-620.6 -593.5,-610.9 -569.3,-599.8 -545.6,-587.9 -533.9,-581.1 
		-522.4,-574.5 -511.8,-568.4 -501.8,-561.2 -491.2,-554.1 -480.8,-547 -470.8,-538.9 -460.3,-530.5 -450.1,-522.6 -440.9,-514.1 
		-431.8,-506 -422.9,-497.4 -413.2,-488.1 -405.5,-480.4 -396.1,-469.8 -386.5,-458.5 -378.2,-447.9 -370.1,-436.9 -359.2,-423.7 
		-348.5,-408.2 -339.4,-394.9 -328.7,-376.6 -319,-358.3 -311.2,-342.8 -304.6,-330.3 -298.9,-316.1 -293.6,-304.4 -288.4,-290.4 
		-281.5,-270.3 -275.6,-249.5 -274.3,-246.1 -272.9,-242.2 -270.2,-234.9 -264.3,-214.1 -257.4,-194 -252.2,-180 -246.9,-168.3 
		-241.2,-154 -234.6,-141.5 -226.8,-126.1 -217.1,-107.8 -206.3,-89.5 -197.3,-76.1 -186.6,-60.7 -175.7,-47.5 -167.6,-36.5 
		-159.3,-25.9 -149.7,-14.6 -140.2,-3.9 -132.6,3.7 -122.9,13 -114,21.6 -104.9,29.8 -95.6,38.3 -85.5,46.2 -74.9,54.5 -64.9,62.6 
		-54.6,69.7 -43.9,76.8 -34,84 -23.3,90.1 -11.9,96.7 -0.2,103.5 23.5,115.4 47.7,126.5 72.1,136.2 97.2,145.8 118.4,151.1 
		129,153.3 128.2,152.9 149.4,158.2 174.5,167.8 198.9,177.5 223.1,188.6 246.8,200.5 258.5,207.3 270,213.9 280.6,220 290.6,227.2 
		301.2,234.3 311.6,241.4 321.6,249.5 332.1,257.9 342.3,265.8 351.5,274.3 360.6,282.4 369.5,291 379.2,300.3 386.9,308 
		396.3,318.6 405.9,329.9 414.2,340.5 422.3,351.5 433.2,364.7 443.9,380.2 453,393.5 463.7,411.8 473.4,430.1 481.2,445.6 
		487.8,458.1 493.5,472.3 498.8,484 504,498 510.9,518.1 516.8,538.9 518.1,542.3 519.5,546.2 522.2,553.5 528.1,574.3 535,594.4 
		540.2,608.4 545.5,620.1 551.2,634.4 557.8,646.9 565.6,662.3 575.3,680.6 586.1,698.9 595.1,712.3 605.8,727.7 616.7,740.9 
		624.8,751.9 633.1,762.5 642.7,773.8 652.2,784.5 659.8,792.1 669.5,801.4 678.4,810 687.5,818.2 696.8,826.7 706.9,834.6 
		717.5,842.9 727.5,851 737.8,858.1 748.5,865.2 758.4,872.4 769.1,878.5 780.5,885.1 792.2,891.9 815.9,903.8 840.1,914.9 
		864.5,924.6 889.6,934.2 910.8,939.5 921.4,941.7 921.9,942.3 943.1,947.6 968.2,957.2 992.6,966.9 1016.8,978 1040.5,989.9 
		1052.2,996.7 1063.7,1003.3 1074.3,1009.4 1084.3,1016.6 1094.9,1023.7 1105.3,1030.8 1115.3,1038.9 1125.8,1047.3 1136,1055.2 
		1145.2,1063.7 1154.3,1071.8 1163.2,1080.4 1172.9,1089.7 1180.6,1097.4 1190,1108 1199.6,1119.3 1207.9,1129.9 1216,1140.9 
		1226.9,1154.1 1237.6,1169.6 1246.7,1182.9 1257.4,1201.2 1267.1,1219.5 1274.9,1235 1281.5,1247.5 1287.2,1261.7 1292.5,1273.4 
		1297.7,1287.4 1304.6,1307.5 1310.5,1328.3 1311.8,1331.7 1313.2,1335.6 1315.9,1342.9 1321.8,1363.7 1328.7,1383.8 1333.9,1397.8 
		1339.2,1409.5 1344.9,1423.8 1351.5,1436.3 1359.3,1451.7 1369,1470 1379.8,1488.3 1388.8,1501.7 1399.5,1517.1 1410.4,1530.3 
		1418.5,1541.3 1426.8,1551.9 1436.4,1563.2 1445.9,1573.9 1453.5,1581.5 1463.2,1590.8 1472.1,1599.4 1481.2,1607.6 1490.5,1616.1 
		1500.6,1624 1511.2,1632.3 1521.2,1640.4 1531.5,1647.5 1542.2,1654.6 1552.1,1661.8 1562.8,1667.9 1574.2,1674.5 1585.9,1681.3 
		1609.6,1693.2 1633.8,1704.3 1658.2,1714 1683.3,1723.6 1704.5,1728.9 1715.1,1731.1 1714.9,1731.4 1736.1,1736.7 1761.2,1746.3 
		1785.6,1756 1809.8,1767.1 1833.5,1779 1845.2,1785.8 1856.7,1792.4 1867.3,1798.5 1877.3,1805.7 1887.9,1812.8 1898.3,1819.9 
		1908.3,1828 1918.8,1836.4 1929,1844.3 1938.2,1852.8 1947.3,1860.9 1956.2,1869.5 1965.9,1878.8 1973.6,1886.5 1983,1897.1 
		1992.6,1908.4 2000.9,1919 2009,1930 2019.9,1943.2 2030.6,1958.7 2039.7,1972 2050.4,1990.3 2060.1,2008.6 2067.9,2024.1 
		2074.5,2036.6 2080.2,2050.8 2085.5,2062.5 2090.7,2076.5 2097.6,2096.6 2103.5,2117.4 2104.8,2120.8 2106.2,2124.7 2108.9,2132 
		2114.8,2152.8 2121.7,2172.9 2126.9,2186.9 2132.2,2198.6 2137.9,2212.9 2144.5,2225.4 2152.3,2240.8 2162,2259.1 2172.8,2277.4 
		2181.8,2290.8 2192.5,2306.2 2203.4,2319.4 2211.5,2330.4 2219.8,2341 2229.4,2352.3 2238.9,2363 2246.5,2370.6 2256.2,2379.9 
		2265.1,2388.5 2274.2,2396.7 2283.5,2405.2 2293.6,2413.1 2304.2,2421.4 2314.2,2429.5 2324.5,2436.6 2335.2,2443.7 2345.1,2450.9 
		2355.8,2457 2367.2,2463.6 2378.9,2470.4 2402.6,2482.3 2426.8,2493.4 2451.2,2503.1 2476.3,2512.7 2497.5,2518 2508.1,2520.2 
		2505.8,2520.2 2527,2525.5 2552.1,2535.1 2576.5,2544.8 2600.7,2555.9 2624.4,2567.8 2636.1,2574.6 2647.6,2581.2 2658.2,2587.3 
		2668.2,2594.5 2678.8,2601.6 2689.2,2608.7 2699.2,2616.8 2709.7,2625.2 2719.9,2633.1 2729.1,2641.6 2738.2,2649.7 2747.1,2658.3 
		2756.8,2667.6 2764.5,2675.3 2773.9,2685.9 2783.5,2697.2 2791.8,2707.8 2799.9,2718.8 2810.8,2732 2821.5,2747.5 2830.6,2760.8 
		2841.3,2779.1 2851,2797.4 2858.8,2812.9 2865.4,2825.4 2871.1,2839.6 2876.4,2851.3 2881.6,2865.3 2888.5,2885.4 2894.4,2906.2 
		2895.7,2909.6 2897.1,2913.5 2899.8,2920.8 2905.7,2941.6 2912.6,2961.7 2917.8,2975.7 2923.1,2987.4 2928.8,3001.7 2935.4,3014.2 
		2943.2,3029.6 2952.9,3047.9 2963.7,3066.2 2972.7,3079.6 2983.4,3095 2994.3,3108.2 3002.4,3119.2 3010.7,3129.8 3020.3,3141.1 
		3029.8,3151.8 3037.4,3159.4 3047.1,3168.7 3056,3177.3 3065.1,3185.5 3074.4,3194 3084.5,3201.9 3095.1,3210.2 3105.1,3218.3 
		3115.4,3225.4 3126.1,3232.5 3136,3239.7 3146.7,3245.8 3158.1,3252.4 3169.8,3259.2 3193.5,3271.1 3217.7,3282.2 3242.1,3291.9 
		3267.2,3301.5 3288.4,3306.8 3299,3309 	"/>
</g>
<g>
	<polyline class="st0" points="2752.1,3449.1 2746.1,3428.1 2741.9,3401.5 2738.1,3375.6 2735.6,3349 2734.1,3322.6 2734.1,3309 
		2734.1,3295.8 2734,3283.6 2735.3,3271.3 2736.1,3258.6 2737.1,3246 2739.1,3233.3 2741.1,3220 2742.9,3207.2 2745.6,3195 
		2748.1,3183.1 2751.1,3171.1 2754.3,3158 2757.1,3147.5 2761.6,3134.1 2766.6,3120.1 2771.6,3107.6 2777.1,3095.1 2783.1,3079 
		2791.1,3062 2798.1,3047.5 2808.6,3029.1 2819.6,3011.5 2829.1,2997 2836.6,2985.1 2846.1,2973 2853.6,2962.6 2863.1,2951.1 
		2877.1,2935.1 2892.1,2919.5 2894.4,2916.7 2897.1,2913.6 2902.1,2907.6 2917.1,2892.1 2931.1,2876 2940.6,2864.5 2948.1,2854.1 
		2957.6,2842 2965.2,2830 2974.6,2815.6 2985.6,2798 2996,2779.5 3003.1,2765 3011.1,2748.1 3017.1,2732 3022.6,2719.5 3027.6,2707 
		3032.6,2693.1 3037.1,2679.5 3039.9,2669.1 3043.1,2656.1 3046.1,2644 3048.7,2632.1 3051.4,2619.8 3053.2,2607.1 3055,2593.7 
		3057.1,2581 3058.1,2568.6 3058.9,2555.7 3060.1,2543.6 3060.1,2531.2 3060.1,2518.1 3060.1,2504.5 3058.6,2478.1 3056.1,2451.6 
		3052.3,2425.6 3048.1,2399 3042,2378 3038.7,2367.8 	"/>
</g>
<g>
	<polyline class="st0" points="3442.3,2772.3 3427.1,2788 3406.2,2805 3385.6,2821.3 3363.9,2836.7 3341.7,2851.2 3330,2858 
		3318.5,2864.6 3308,2870.8 3296.7,2875.8 3285.3,2881.5 3273.9,2886.9 3261.9,2891.5 3249.4,2896.4 3237.4,2901.3 3225.5,2905 
		3213.9,2908.8 3202,2912.3 3189.1,2916 3178.6,2918.8 3164.7,2921.7 3150.1,2924.3 3136.8,2926.2 3123.2,2927.7 3106.3,2930.6 
		3087.6,2932.1 3071.5,2933.3 3050.3,2933.4 3029.6,2932.7 3012.3,2931.7 2998.1,2931.2 2983,2929 2970.2,2927.7 2955.5,2925.2 
		2934.6,2921.2 2913.7,2915.9 2910.1,2915.3 2906,2914.6 2898.3,2913.2 2877.4,2908 2856.5,2903.9 2841.8,2901.4 2829,2900.1 
		2813.8,2897.9 2799.6,2897.4 2782.4,2896.4 2761.7,2895.7 2740.5,2895.9 2724.4,2897 2705.7,2898.5 2688.8,2901.4 2675.2,2902.9 
		2661.9,2904.8 2647.3,2907.5 2633.3,2910.3 2622.9,2913.1 2610,2916.9 2598.1,2920.3 2586.4,2924.1 2574.4,2927.9 2562.5,2932.7 
		2550.1,2937.7 2538,2942.3 2526.7,2947.7 2515.2,2953.4 2504.1,2958.4 2493.4,2964.6 2482,2971.1 2470.3,2977.9 2448.1,2992.4 
		2426.4,3007.9 2405.8,3024.1 2384.9,3041.1 2369.7,3056.8 2362.5,3064.9 	"/>
</g>
</svg>
