<?xml version="1.0" encoding="utf-8"?>
<!-- Generator: Adobe Illustrator 22.0.0, SVG Export Plug-In . SVG Version: 6.00 Build 0)  -->
<svg version="1.1" id="Layer_1" xmlns="http://www.w3.org/2000/svg" xmlns:xlink="http://www.w3.org/1999/xlink" x="0px" y="0px"
	 viewBox="0 0 1434.8 1365.8" style="enable-background:new 0 0 1434.8 1365.8;" xml:space="preserve">
<style type="text/css">
	.st0{fill:none;stroke:#F90B2D;stroke-miterlimit:10;}
</style>
<g>
	<polyline class="st0" points="-162.5,764.1 -141.3,769.4 -116.2,779 -91.8,788.7 -67.6,799.8 -43.9,811.7 -32.2,818.5 -20.7,825.1 
		-10.1,831.2 -0.1,838.4 10.5,845.5 20.9,852.6 30.9,860.7 41.4,869.1 51.6,877 60.8,885.5 69.9,893.6 78.8,902.2 88.5,911.5 
		96.2,919.2 105.6,929.8 115.2,941.1 123.5,951.7 131.6,962.7 142.5,975.9 153.2,991.4 162.3,1004.7 173,1023 182.7,1041.3 
		190.5,1056.8 197.1,1069.3 202.8,1083.5 208.1,1095.2 213.3,1109.2 220.2,1129.3 226.1,1150.1 227.4,1153.5 228.8,1157.4 
		231.5,1164.7 237.4,1185.5 244.3,1205.6 249.5,1219.6 254.8,1231.3 260.5,1245.6 267.1,1258.1 274.9,1273.5 284.6,1291.8 
		295.4,1310.1 304.4,1323.5 315.1,1338.9 326,1352.1 334.1,1363.1 342.4,1373.7 352,1385 361.5,1395.7 369.1,1403.3 378.8,1412.6 
		387.7,1421.2 396.8,1429.4 406.1,1437.9 416.2,1445.8 426.8,1454.1 436.8,1462.2 447.1,1469.3 457.8,1476.4 467.7,1483.6 
		478.4,1489.7 489.8,1496.3 501.5,1503.1 525.2,1515 549.4,1526.1 573.8,1535.8 598.9,1545.4 620.1,1550.7 630.7,1552.9 	"/>
</g>
<g>
	<polyline class="st0" points="1163,1400.8 1157,1379.8 1152.7,1353.3 1148.9,1327.3 1146.4,1300.8 1144.9,1274.3 1144.9,1260.8 
		1144.9,1247.5 1144.9,1235.3 1146.1,1223 1147,1210.3 1147.9,1197.7 1149.9,1185 1151.9,1171.7 1153.7,1158.9 1156.5,1146.7 
		1158.9,1134.8 1161.9,1122.8 1165.1,1109.7 1167.9,1099.2 1172.4,1085.8 1177.4,1071.8 1182.4,1059.3 1187.9,1046.8 1193.9,1030.8 
		1202,1013.8 1208.9,999.2 1219.4,980.8 1230.4,963.3 1240,948.8 1247.5,936.8 1256.9,924.7 1264.4,914.3 1273.9,902.8 
		1287.9,886.8 1303,871.3 1305.2,868.4 1307.9,865.3 1312.9,859.3 1328,843.8 1341.9,827.8 1351.4,816.3 1358.9,805.8 1368.5,793.7 
		1376,781.8 1385.4,767.3 1396.4,749.8 1406.9,731.3 1414,716.8 1422,699.8 1427.9,683.8 1433.4,671.2 1438.4,658.8 1443.4,644.8 
		1447.9,631.2 1450.7,620.8 1453.9,607.8 1456.9,595.8 1459.5,583.8 1462.2,571.5 1464,558.8 1465.9,545.5 1467.9,532.7 
		1468.9,520.3 1469.7,507.5 1471,495.3 1470.9,483 1470.9,469.8 1471,456.3 1469.4,429.8 1466.9,403.3 1463.1,377.3 1458.9,350.8 
		1452.9,329.8 1449.5,319.5 	"/>
</g>
<g>
	<polyline class="st0" points="1853.1,724.1 1837.9,739.8 1817,756.7 1796.4,773 1774.7,788.4 1752.6,803 1740.8,809.7 
		1729.4,816.4 1718.8,822.5 1707.5,827.5 1696.1,833.2 1684.7,838.6 1672.7,843.2 1660.2,848.1 1648.3,853 1636.3,856.7 
		1624.7,860.6 1612.8,864 1599.9,867.7 1589.4,870.5 1575.5,873.4 1561,876.1 1547.6,877.9 1534,879.5 1517.2,882.3 1498.4,883.8 
		1482.3,885 1461.1,885.2 1440.4,884.4 1423.1,883.4 1409,882.9 1393.8,880.7 1381.1,879.5 1366.3,877 1345.5,872.9 1324.5,867.6 
		1320.9,867 1316.8,866.3 1309.2,865 1288.2,859.7 1267.3,855.6 1252.6,853.1 1239.8,851.8 1224.6,849.6 1210.5,849.1 1193.2,848.2 
		1172.5,847.4 1151.3,847.6 1135.2,848.7 1116.5,850.3 1099.6,853.1 1086,854.6 1072.7,856.5 1058.1,859.2 1044.1,862.1 
		1033.7,864.8 1020.8,868.6 1008.9,872 997.3,875.8 985.3,879.6 973.4,884.4 960.9,889.4 948.9,894 937.6,899.4 926.1,905.1 
		914.9,910.1 904.3,916.3 892.8,922.9 881.1,929.6 858.9,944.2 837.2,959.6 816.6,975.9 795.8,992.8 780.6,1008.5 773.4,1016.6 
		774,1016.2 758.8,1031.9 737.9,1048.9 717.3,1065.2 695.6,1080.6 673.4,1095.1 661.7,1101.9 650.2,1108.5 639.7,1114.7 
		628.4,1119.7 617,1125.4 605.6,1130.8 593.6,1135.4 581.1,1140.3 569.1,1145.2 557.2,1148.9 545.6,1152.7 533.7,1156.2 
		520.8,1159.9 510.3,1162.7 496.4,1165.6 481.8,1168.2 468.5,1170.1 454.9,1171.6 438,1174.5 419.3,1176 403.2,1177.2 382,1177.3 
		361.3,1176.6 344,1175.6 329.8,1175.1 314.7,1172.9 301.9,1171.6 287.2,1169.1 266.3,1165.1 245.4,1159.8 241.8,1159.2 
		237.7,1158.5 230,1157.1 209.1,1151.9 188.2,1147.8 173.5,1145.3 160.7,1144 145.5,1141.8 131.3,1141.3 114.1,1140.3 93.4,1139.6 
		72.2,1139.8 56.1,1140.9 37.4,1142.4 20.5,1145.3 6.9,1146.8 -6.4,1148.7 -21,1151.4 -35,1154.2 -45.4,1157 -58.3,1160.8 
		-70.2,1164.2 -81.9,1168 -93.9,1171.8 -105.8,1176.6 -118.2,1181.6 -130.3,1186.2 -141.6,1191.6 -153.1,1197.3 -164.2,1202.3 
		-174.9,1208.5 -186.3,1215 -198,1221.8 -220.2,1236.3 -241.9,1251.8 -262.5,1268 -283.4,1285 -298.6,1300.7 -305.8,1308.8 	"/>
</g>
<g>
	<polyline class="st0" points="123.5,-317.2 144.7,-311.9 169.8,-302.3 194.2,-292.6 218.4,-281.5 242.1,-269.6 253.8,-262.8 
		265.3,-256.2 275.9,-250.1 285.9,-242.9 296.5,-235.8 306.9,-228.7 316.9,-220.6 327.4,-212.2 337.6,-204.3 346.8,-195.8 
		355.9,-187.7 364.8,-179.1 374.5,-169.8 382.2,-162.1 391.6,-151.5 401.2,-140.2 409.5,-129.6 417.6,-118.6 428.5,-105.4 
		439.2,-89.9 448.3,-76.6 459,-58.3 468.7,-40 476.5,-24.5 483.1,-12 488.8,2.2 494.1,13.9 499.3,27.9 506.2,48 512.1,68.8 
		513.4,72.2 514.8,76.1 517.5,83.4 523.4,104.2 530.3,124.3 535.5,138.3 540.8,150 546.5,164.3 553.1,176.8 560.9,192.2 
		570.6,210.5 581.4,228.8 590.4,242.2 601.1,257.6 612,270.8 620.1,281.8 628.4,292.4 638,303.7 647.5,314.4 655.1,322 664.8,331.3 
		673.7,339.9 682.8,348.1 692.1,356.6 702.2,364.5 712.8,372.8 722.8,380.9 733.1,388 743.8,395.1 753.7,402.3 764.4,408.4 
		775.8,415 787.5,421.8 811.2,433.7 835.4,444.8 859.8,454.5 884.9,464.1 906.1,469.4 916.7,471.6 916.6,471.9 937.8,477.2 
		962.9,486.8 987.3,496.5 1011.5,507.6 1035.2,519.5 1046.9,526.3 1058.4,532.9 1069,539 1079,546.2 1089.6,553.3 1100,560.4 
		1110,568.5 1120.5,576.9 1130.7,584.8 1139.9,593.3 1149,601.4 1157.9,610 1167.6,619.3 1175.3,627 1184.7,637.6 1194.3,648.9 
		1202.6,659.5 1210.7,670.5 1221.6,683.7 1232.3,699.2 1241.4,712.5 1252.1,730.8 1261.8,749.1 1269.6,764.6 1276.2,777.1 
		1281.9,791.3 1287.2,803 1292.4,817 1299.3,837.1 1305.2,857.9 1306.5,861.3 1307.9,865.2 1310.6,872.5 1316.5,893.3 1323.4,913.4 
		1328.6,927.4 1333.9,939.1 1339.6,953.4 1346.2,965.9 1354,981.3 1363.7,999.6 1374.5,1017.9 1383.5,1031.3 1394.2,1046.7 
		1405.1,1059.9 1413.2,1070.9 1421.5,1081.5 1431.1,1092.8 1440.6,1103.5 1448.2,1111.1 1457.9,1120.4 1466.8,1129 1475.9,1137.2 
		1485.2,1145.7 1495.3,1153.6 1505.9,1161.9 1515.9,1170 1526.2,1177.1 1536.9,1184.2 1546.8,1191.4 1557.5,1197.5 1568.9,1204.1 
		1580.6,1210.9 1604.3,1222.8 1628.5,1233.9 1652.9,1243.6 1678,1253.2 1699.2,1258.5 1709.8,1260.7 	"/>
</g>
<g>
	<polyline class="st0" points="83.8,1693 77.8,1672 73.6,1645.4 69.8,1619.5 67.3,1592.9 65.8,1566.5 65.8,1552.9 65.8,1539.7 
		65.7,1527.5 67,1515.2 67.8,1502.5 68.8,1489.9 70.8,1477.2 72.8,1463.9 74.6,1451.1 77.3,1438.9 79.8,1427 82.8,1415 86,1401.9 
		88.8,1391.4 93.3,1378 98.3,1364 103.3,1351.5 108.8,1339 114.8,1322.9 122.8,1305.9 129.8,1291.4 140.3,1273 151.3,1255.4 
		160.8,1240.9 168.3,1229 177.8,1216.9 185.3,1206.5 194.8,1195 208.8,1179 223.8,1163.4 226.1,1160.6 228.8,1157.5 233.8,1151.5 
		248.8,1136 262.8,1119.9 272.3,1108.4 279.8,1098 289.3,1085.9 296.9,1073.9 306.3,1059.5 317.3,1041.9 327.7,1023.4 334.8,1008.9 
		342.8,992 348.8,975.9 354.3,963.4 359.3,950.9 364.3,937 368.8,923.4 371.6,913 374.8,900 377.8,887.9 380.4,876 383.1,863.7 
		384.9,851 386.7,837.6 388.8,824.9 389.8,812.5 390.6,799.6 391.8,787.5 391.8,775.1 391.8,762 391.8,748.4 390.3,722 387.8,695.5 
		384,669.5 379.8,642.9 373.7,621.9 370.4,611.7 369.9,611.7 363.8,590.7 359.6,564.2 355.8,538.2 353.3,511.7 351.8,485.2 
		351.8,471.7 351.8,458.4 351.8,446.2 353,433.9 353.9,421.2 354.8,408.6 356.8,395.9 358.8,382.6 360.6,369.9 363.3,357.6 
		365.8,345.7 368.8,333.7 372,320.6 374.8,310.1 379.3,296.7 384.3,282.7 389.3,270.2 394.8,257.7 400.8,241.7 408.9,224.7 
		415.8,210.1 426.3,191.7 437.3,174.2 446.8,159.7 454.4,147.7 463.8,135.7 471.3,125.2 480.8,113.7 494.8,97.7 509.8,82.2 
		512.1,79.4 514.8,76.2 519.8,70.2 534.9,54.7 548.8,38.7 558.3,27.2 565.8,16.7 575.4,4.6 582.9,-7.3 592.3,-21.8 603.3,-39.3 
		613.8,-57.8 620.9,-72.3 628.9,-89.3 634.8,-105.3 640.3,-117.8 645.3,-130.3 650.3,-144.3 654.8,-157.9 657.6,-168.3 
		660.8,-181.3 663.8,-193.3 666.4,-205.3 669.1,-217.6 670.9,-230.3 672.8,-243.6 674.8,-256.3 675.8,-268.8 676.6,-281.6 
		677.9,-293.8 677.8,-306.1 677.8,-319.3 677.9,-332.8 676.3,-359.3 673.8,-385.8 670,-411.8 665.8,-438.3 659.8,-459.3 
		656.4,-469.6 	"/>
</g>
<g>
	<polyline class="st0" points="1060,-65 1044.8,-49.3 1023.9,-32.4 1003.3,-16.1 981.6,-0.7 959.5,13.9 947.7,20.6 936.3,27.3 
		925.7,33.4 914.4,38.5 903,44.1 891.6,49.5 879.6,54.2 867.1,59.1 855.2,63.9 843.2,67.7 831.6,71.5 819.7,74.9 806.8,78.6 
		796.3,81.5 782.4,84.3 767.8,87 754.5,88.9 740.9,90.4 724.1,93.2 705.3,94.7 689.2,96 668,96.1 647.3,95.3 630,94.3 615.9,93.8 
		600.7,91.6 587.9,90.4 573.2,87.9 552.4,83.8 531.4,78.5 527.8,77.9 523.7,77.2 516.1,75.9 495.1,70.6 474.2,66.5 459.5,64 
		446.7,62.8 431.5,60.5 417.4,60 400.1,59.1 379.4,58.3 358.2,58.5 342.1,59.6 323.4,61.2 306.5,64 292.9,65.5 279.6,67.4 265,70.1 
		251,73 240.6,75.7 227.7,79.5 215.8,82.9 204.2,86.7 192.2,90.5 180.3,95.3 167.8,100.3 155.8,104.9 144.5,110.3 133,116 
		121.8,121 111.1,127.2 99.7,133.8 88,140.5 65.8,155.1 44.1,170.5 23.5,186.8 2.7,203.7 -12.5,219.4 -19.7,227.5 	"/>
</g>
</svg>
