<?xml version="1.0" encoding="utf-8"?>
<!-- Generator: Adobe Illustrator 22.0.0, SVG Export Plug-In . SVG Version: 6.00 Build 0)  -->
<svg version="1.1" id="Layer_1" xmlns="http://www.w3.org/2000/svg" xmlns:xlink="http://www.w3.org/1999/xlink" x="0px" y="0px"
	 viewBox="0 0 940.9 789.5" style="enable-background:new 0 0 940.9 789.5;" xml:space="preserve">
<style type="text/css">
	.st0{fill:none;stroke:#F90B2D;stroke-miterlimit:10;}
</style>
<g>
	<polyline class="st0" points="615,-1.9 615,11.4 615,23.6 613.8,35.9 613,48.6 612,61.1 610,73.8 608,87.1 606.2,99.9 603.5,112.1 
		601,124.1 598,136.1 594.8,149.1 592,159.6 587.5,173.1 582.5,187.1 577.5,199.6 572,212.1 566,228.1 558,245.1 551,259.6 
		540.5,278.1 529.5,295.6 520,310.1 512.5,322.1 503,334.1 495.5,344.6 486,356.1 472,372.1 457,387.6 454.7,390.4 452,393.6 
		447,399.6 432,415.1 418,431.1 408.5,442.6 401,453.1 391.5,465.1 384,477.1 374.5,491.6 363.5,509.1 353,527.6 346,542.1 
		338,559.1 332,575.1 326.5,587.6 321.5,600.1 316.5,614.1 312,627.6 309.2,638.1 306,651.1 303,663.1 300.5,675.1 297.8,687.4 
		296,700.1 294,713.4 292,726.1 291,738.6 290.2,751.4 289,763.6 289,775.9 289,789.1 	"/>
</g>
<g>
	<polyline class="st0" points="60.7,0.3 81.9,5.6 107,15.2 131.4,24.9 155.6,36 179.3,47.9 191,54.7 202.5,61.3 213.1,67.4 
		223.1,74.6 233.7,81.7 244.1,88.8 254.1,96.9 264.6,105.3 274.8,113.2 284,121.7 293.1,129.8 302,138.4 311.7,147.7 319.4,155.4 
		328.8,166 338.4,177.3 346.7,187.9 354.8,198.9 365.7,212.1 376.4,227.6 385.5,240.9 396.2,259.2 405.9,277.5 413.7,293 
		420.3,305.5 426,319.7 431.3,331.4 436.5,345.4 443.4,365.5 449.3,386.3 450.6,389.7 452,393.6 454.7,400.9 460.6,421.7 
		467.5,441.8 472.7,455.8 478,467.5 483.7,481.8 490.3,494.3 498.1,509.7 507.8,528 518.6,546.3 527.6,559.7 538.3,575.1 
		549.2,588.3 557.3,599.3 565.6,609.9 575.2,621.2 584.7,631.9 592.3,639.5 602,648.8 610.9,657.4 620,665.6 629.3,674.1 639.4,682 
		650,690.3 660,698.4 670.3,705.5 681,712.6 690.9,719.8 701.6,725.9 713,732.5 724.7,739.3 748.4,751.2 772.6,762.3 797,772 
		822.1,781.6 843.3,786.9 853.9,789.1 	"/>
</g>
<g>
	<polyline class="st0" points="0.2,467.5 16.3,456.9 28,450.2 39.5,443.5 50.1,437.4 61.3,432.3 72.7,426.7 84.1,421.3 96.1,416.7 
		108.6,411.8 120.6,406.9 132.5,403.2 144.1,399.3 156,395.9 168.9,392.2 179.4,389.4 193.3,386.5 207.9,383.8 221.2,381.9 
		234.8,380.4 251.7,377.6 270.4,376.1 286.5,374.9 307.7,374.7 328.4,375.5 345.7,376.5 359.8,377 375,379.2 387.8,380.4 
		402.5,382.9 423.4,387 444.3,392.3 447.9,392.9 452,393.6 459.7,394.9 480.6,400.2 501.5,404.3 516.2,406.8 529,408 544.2,410.3 
		558.3,410.8 575.6,411.7 596.3,412.5 617.6,412.3 633.6,411.2 652.3,409.6 669.2,406.8 682.8,405.3 696.1,403.4 710.7,400.7 
		724.7,397.9 735.1,395 748,391.3 759.9,387.9 771.5,384.1 783.5,380.3 795.4,375.5 808,370.5 820,365.9 831.3,360.5 842.8,354.8 
		853.9,349.8 864.6,343.6 876,337 887.7,330.3 909.9,315.7 931.6,300.3 940.9,292.9 	"/>
</g>
</svg>
