<?xml version="1.0" encoding="utf-8"?>
<!-- Generator: Adobe Illustrator 22.0.0, SVG Export Plug-In . SVG Version: 6.00 Build 0)  -->
<svg version="1.1" id="Layer_1" xmlns="http://www.w3.org/2000/svg" xmlns:xlink="http://www.w3.org/1999/xlink" x="0px" y="0px"
	 viewBox="0 0 940.9 789.5" style="enable-background:new 0 0 940.9 789.5;" xml:space="preserve">
<style type="text/css">
	.st0{fill:none;stroke:#F90B2D;stroke-miterlimit:10;}
</style>
<g>
	<polyline class="st0" points="615,-1.9 615,11.4 615,23.6 613.8,35.9 613,48.6 612,61.1 610,73.8 608,87.1 606.2,99.9 603.5,112.1 
		601,124.1 598,136.1 594.8,149.1 592,159.6 587.5,173.1 582.5,187.1 577.5,199.6 572,212.1 566,228.1 558,245.1 551,259.6 
		540.5,278.1 529.5,295.6 520,310.1 512.5,322.1 503,334.1 495.5,344.6 486,356.1 472,372.1 457,387.6 454.7,390.4 452,393.6 
		447,399.6 432,415.1 418,431.1 408.5,442.6 401,453.1 391.5,465.1 384,477.1 374.5,491.6 363.5,509.1 353,527.6 346,542.1 
		338,559.1 332,575.1 326.5,587.6 321.5,600.1 316.5,614.1 312,627.6 309.2,638.1 306,651.1 303,663.1 300.5,675.1 297.8,687.4 
		296,700.1 294,713.4 292,726.1 291,738.6 290.2,751.4 289,763.6 289,775.9 289,789.1 	"/>
</g>
<g>
	<polyline class="st0" points="61.7,0.3 82.9,5.6 108,15.2 132.4,24.9 156.6,36 180.3,47.9 192,54.7 203.5,61.3 214.1,67.4 
		224.1,74.6 234.7,81.7 245.1,88.8 255.1,96.9 265.6,105.3 275.8,113.2 285,121.7 294.1,129.8 303,138.4 312.7,147.7 320.4,155.4 
		329.8,166 339.4,177.3 347.7,187.9 355.8,198.9 366.7,212.1 377.4,227.6 386.5,240.9 397.2,259.2 406.9,277.5 414.7,293 
		421.3,305.5 427,319.7 432.3,331.4 437.5,345.4 444.4,365.5 450.3,386.3 451.6,389.7 453,393.6 455.7,400.9 461.6,421.7 
		468.5,441.8 473.7,455.8 479,467.5 484.7,481.8 491.3,494.3 499.1,509.7 508.8,528 519.6,546.3 528.6,559.7 539.3,575.1 
		550.2,588.3 558.3,599.3 566.6,609.9 576.2,621.2 585.7,631.9 593.3,639.5 603,648.8 611.9,657.4 621,665.6 630.3,674.1 640.4,682 
		651,690.3 661,698.4 671.3,705.5 682,712.6 691.9,719.8 702.6,725.9 714,732.5 725.7,739.3 749.4,751.2 773.6,762.3 798,772 
		823.1,781.6 844.3,786.9 854.9,789.1 	"/>
</g>
<g>
	<polyline class="st0" points="0.2,467.5 16.3,456.9 28,450.2 39.5,443.5 50.1,437.4 61.3,432.3 72.7,426.7 84.1,421.3 96.1,416.7 
		108.6,411.8 120.6,406.9 132.5,403.2 144.1,399.3 156,395.9 168.9,392.2 179.4,389.4 193.3,386.5 207.9,383.8 221.2,381.9 
		234.8,380.4 251.7,377.6 270.4,376.1 286.5,374.9 307.7,374.7 328.4,375.5 345.7,376.5 359.8,377 375,379.2 387.8,380.4 
		402.5,382.9 423.4,387 444.3,392.3 447.9,392.9 452,393.6 459.7,394.9 480.6,400.2 501.5,404.3 516.2,406.8 529,408 544.2,410.3 
		558.3,409.8 575.6,411.7 596.3,412.5 617.6,412.3 633.6,411.2 652.3,409.6 669.2,406.8 682.8,405.3 696.1,403.4 710.7,400.7 
		724.7,397.9 735.1,395 748,391.3 759.9,387.9 771.5,384.1 783.5,380.3 795.4,375.5 808,370.5 820,365.9 831.3,360.5 842.8,354.8 
		853.9,349.8 864.6,343.6 876,337 887.7,330.3 909.9,315.7 931.6,300.3 940.9,292.9 	"/>
</g>
</svg>
