<?xml version="1.0" encoding="utf-8"?>
<!-- Generator: Adobe Illustrator 22.0.0, SVG Export Plug-In . SVG Version: 6.00 Build 0)  -->
<svg version="1.1" id="Layer_1" xmlns="http://www.w3.org/2000/svg" xmlns:xlink="http://www.w3.org/1999/xlink" x="0px" y="0px"
	 viewBox="0 0 2380.7 1695.9" style="enable-background:new 0 0 2380.7 1695.9;" xml:space="preserve">
<style type="text/css">
	.st0{fill:none;stroke:#F90B2D;stroke-miterlimit:10;}
</style>
<g>
	<polyline class="st0" points="1069.4,-317.2 1090.6,-311.9 1115.7,-302.3 1140.1,-292.6 1164.3,-281.5 1188,-269.6 1199.7,-262.8 
		1211.2,-256.2 1221.8,-250.1 1231.8,-242.9 1242.4,-235.8 1252.8,-228.7 1262.8,-220.6 1273.3,-212.2 1283.5,-204.3 1292.7,-195.8 
		1301.8,-187.7 1310.7,-179.1 1320.4,-169.8 1328.1,-162.1 1337.5,-151.5 1347.1,-140.2 1355.4,-129.6 1363.5,-118.6 1374.4,-105.4 
		1385.1,-89.9 1394.2,-76.6 1404.9,-58.3 1414.6,-40 1422.4,-24.5 1429,-12 1434.7,2.2 1440,13.9 1445.2,27.9 1452.1,48 1458,68.8 
		1459.3,72.2 1460.7,76.1 1463.4,83.4 1469.3,104.2 1476.2,124.3 1481.4,138.3 1486.7,150 1492.4,164.3 1499,176.8 1506.8,192.2 
		1516.5,210.5 1527.3,228.8 1536.3,242.2 1547,257.6 1557.9,270.8 1566,281.8 1574.3,292.4 1583.9,303.7 1593.4,314.4 1601,322 
		1610.7,331.3 1619.6,339.9 1628.7,348.1 1638,356.6 1648.1,364.5 1658.7,372.8 1668.7,380.9 1679,388 1689.7,395.1 1699.6,402.3 
		1710.3,408.4 1721.7,415 1733.4,421.8 1757.1,433.7 1781.3,444.8 1805.7,454.5 1830.8,464.1 1852,469.4 1862.6,471.6 1862.5,471.9 
		1883.7,477.2 1908.8,486.8 1933.2,496.5 1957.4,507.6 1981.1,519.5 1992.8,526.3 2004.3,532.9 2014.9,539 2024.9,546.2 
		2035.5,553.3 2045.9,560.4 2055.9,568.5 2066.4,576.9 2076.6,584.8 2085.8,593.3 2094.9,601.4 2103.8,610 2113.5,619.3 2121.2,627 
		2130.6,637.6 2140.2,648.9 2148.5,659.5 2156.6,670.5 2167.5,683.7 2178.2,699.2 2187.3,712.5 2198,730.8 2207.7,749.1 
		2215.5,764.6 2222.1,777.1 2227.8,791.3 2233.1,803 2238.3,817 2245.2,837.1 2251.1,857.9 2252.4,861.3 2253.8,865.2 2256.5,872.5 
		2262.4,893.3 2269.3,913.4 2274.5,927.4 2279.8,939.1 2285.5,953.4 2292.1,965.9 2299.9,981.3 2309.6,999.6 2320.4,1017.9 
		2329.4,1031.3 2340.1,1046.7 2351,1059.9 2359.1,1070.9 2367.4,1081.5 2377,1092.8 2386.5,1103.5 2394.1,1111.1 2403.8,1120.4 
		2412.7,1129 2421.8,1137.2 2431.1,1145.7 2441.2,1153.6 2451.8,1161.9 2461.8,1170 2472.1,1177.1 2482.8,1184.2 2492.7,1191.4 
		2503.4,1197.5 2514.8,1204.1 2526.5,1210.9 2550.2,1222.8 2574.4,1233.9 2598.8,1243.6 2623.9,1253.2 2645.1,1258.5 2655.7,1260.7 
			"/>
</g>
<g>
	<polyline class="st0" points="1029.7,1693 1023.7,1672 1019.5,1645.4 1015.7,1619.5 1013.2,1592.9 1011.7,1566.5 1011.7,1552.9 
		1011.7,1539.7 1011.6,1527.5 1012.9,1515.2 1013.7,1502.5 1014.7,1489.9 1016.7,1477.2 1018.7,1463.9 1020.5,1451.1 1023.2,1438.9 
		1025.7,1427 1028.7,1415 1031.9,1401.9 1034.7,1391.4 1039.2,1378 1044.2,1364 1049.2,1351.5 1054.7,1339 1060.7,1322.9 
		1068.7,1305.9 1075.7,1291.4 1086.2,1273 1097.2,1255.4 1106.7,1240.9 1114.2,1229 1123.7,1216.9 1131.2,1206.5 1140.7,1195 
		1154.7,1179 1169.7,1163.4 1172,1160.6 1174.7,1157.5 1179.7,1151.5 1194.7,1136 1208.7,1119.9 1218.2,1108.4 1225.7,1098 
		1235.2,1085.9 1242.8,1073.9 1252.2,1059.5 1263.2,1041.9 1273.6,1023.4 1280.7,1008.9 1288.7,992 1294.7,975.9 1300.2,963.4 
		1305.2,950.9 1310.2,937 1314.7,923.4 1317.5,913 1320.7,900 1323.7,887.9 1326.3,876 1329,863.7 1330.8,851 1332.6,837.6 
		1334.7,824.9 1335.7,812.5 1336.5,799.6 1337.7,787.5 1337.7,775.1 1337.7,762 1337.7,748.4 1336.2,722 1333.7,695.5 1329.9,669.5 
		1325.7,642.9 1319.6,621.9 1316.3,611.7 1315.8,611.7 1309.7,590.7 1305.5,564.2 1301.7,538.2 1299.2,511.7 1297.7,485.2 
		1297.7,471.7 1297.7,458.4 1297.7,446.2 1298.9,433.9 1299.8,421.2 1300.7,408.6 1302.7,395.9 1304.7,382.6 1306.5,369.9 
		1309.2,357.6 1311.7,345.7 1314.7,333.7 1317.9,320.6 1320.7,310.1 1325.2,296.7 1330.2,282.7 1335.2,270.2 1340.7,257.7 
		1346.7,241.7 1354.8,224.7 1361.7,210.1 1372.2,191.7 1383.2,174.2 1392.7,159.7 1400.3,147.7 1409.7,135.7 1417.2,125.2 
		1426.7,113.7 1440.7,97.7 1455.7,82.2 1458,79.4 1460.7,76.2 1465.7,70.2 1480.8,54.7 1494.7,38.7 1504.2,27.2 1511.7,16.7 
		1521.3,4.6 1528.8,-7.3 1538.2,-21.8 1549.2,-39.3 1559.7,-57.8 1566.8,-72.3 1574.8,-89.3 1580.7,-105.3 1586.2,-117.8 
		1591.2,-130.3 1596.2,-144.3 1600.7,-157.9 1603.5,-168.3 1606.7,-181.3 1609.7,-193.3 1612.3,-205.3 1615,-217.6 1616.8,-230.3 
		1618.7,-243.6 1620.7,-256.3 1621.7,-268.8 1622.5,-281.6 1623.8,-293.8 1623.7,-306.1 1623.7,-319.3 1623.8,-332.8 1622.2,-359.3 
		1619.7,-385.8 1615.9,-411.8 1611.7,-438.3 1605.7,-459.3 1602.3,-469.6 	"/>
</g>
<g>
	<polyline class="st0" points="2005.9,-65 1990.7,-49.3 1969.8,-32.4 1949.2,-16.1 1927.5,-0.7 1905.4,13.9 1893.6,20.6 
		1882.2,27.3 1871.6,33.4 1860.3,38.5 1848.9,44.1 1837.5,49.5 1825.5,54.2 1813,59.1 1801.1,63.9 1789.1,67.7 1777.5,71.5 
		1765.6,74.9 1752.7,78.6 1742.2,81.5 1728.3,84.3 1713.7,87 1700.4,88.9 1686.8,90.4 1670,93.2 1651.2,94.7 1635.1,96 1613.9,96.1 
		1593.2,95.3 1575.9,94.3 1561.8,93.8 1546.6,91.6 1533.8,90.4 1519.1,87.9 1498.3,83.8 1477.3,78.5 1473.7,77.9 1469.6,77.2 
		1462,75.9 1441,70.6 1420.1,66.5 1405.4,64 1392.6,62.8 1377.4,60.5 1363.3,60 1346,59.1 1325.3,58.3 1304.1,58.5 1288,59.6 
		1269.3,61.2 1252.4,64 1238.8,65.5 1225.5,67.4 1210.9,70.1 1196.9,73 1186.5,75.7 1173.6,79.5 1161.7,82.9 1150.1,86.7 
		1138.1,90.5 1126.2,95.3 1113.7,100.3 1101.7,104.9 1090.4,110.3 1078.9,116 1067.7,121 1057,127.2 1045.6,133.8 1033.9,140.5 
		1011.7,155.1 990,170.5 969.4,186.8 948.6,203.7 933.4,219.4 926.2,227.5 926.2,226.9 911,242.6 890.1,259.6 869.5,275.9 
		847.8,291.3 825.6,305.8 813.9,312.6 802.4,319.2 791.9,325.4 780.6,330.4 769.2,336.1 757.8,341.5 745.8,346.1 733.3,351 
		721.3,355.9 709.4,359.6 697.8,363.4 685.9,366.9 673,370.6 662.5,373.4 648.6,376.3 634,378.9 620.7,380.8 607.1,382.3 
		590.2,385.2 571.5,386.7 555.4,387.9 534.2,388 513.5,387.3 496.2,386.3 482,385.8 466.9,383.6 454.1,382.3 439.4,379.8 
		418.5,375.8 397.6,370.5 394,369.9 389.9,369.2 382.2,367.8 361.3,362.6 340.4,358.5 325.7,356 312.9,354.7 297.7,352.5 283.5,352 
		266.3,351 245.6,350.3 224.4,350.5 208.3,351.6 189.6,353.1 172.7,356 159.1,357.5 145.8,359.4 131.2,362.1 117.2,364.9 
		106.8,367.7 93.9,371.5 82,374.9 70.3,378.7 58.3,382.5 46.4,387.3 34,392.3 21.9,396.9 10.6,402.3 -0.9,408 -12,413 -22.7,419.2 
		-34.1,425.7 -45.8,432.5 -68,447 -89.7,462.5 -110.3,478.7 -131.2,495.7 -146.4,511.4 -153.6,519.5 	"/>
</g>
<g>
	<polyline class="st0" points="-296.4,1056.1 -275.2,1061.4 -250.1,1071 -225.7,1080.7 -201.5,1091.8 -177.8,1103.7 -166.1,1110.5 
		-154.6,1117.1 -144,1123.2 -134,1130.4 -123.4,1137.5 -113,1144.6 -103,1152.7 -92.5,1161.1 -82.3,1169 -73.1,1177.5 -64,1185.6 
		-55.1,1194.2 -45.4,1203.5 -37.7,1211.2 -28.3,1221.8 -18.7,1233.1 -10.4,1243.7 -2.3,1254.7 8.6,1267.9 19.3,1283.4 28.4,1296.7 
		39.1,1315 48.8,1333.3 56.6,1348.8 63.2,1361.3 68.9,1375.5 74.2,1387.2 79.4,1401.2 86.3,1421.3 92.2,1442.1 93.5,1445.5 
		94.9,1449.4 97.6,1456.7 103.5,1477.5 110.4,1497.6 115.6,1511.6 120.9,1523.3 126.6,1537.6 133.2,1550.1 141,1565.5 150.7,1583.8 
		161.5,1602.1 170.5,1615.5 181.2,1630.9 192.1,1644.1 200.2,1655.1 208.5,1665.7 218.1,1677 227.6,1687.7 235.2,1695.3 
		244.9,1704.6 253.8,1713.2 262.9,1721.4 272.2,1729.9 282.3,1737.8 292.9,1746.1 302.9,1754.2 313.2,1761.3 323.9,1768.4 
		333.8,1775.6 344.5,1781.7 355.9,1788.3 367.6,1795.1 391.3,1807 415.5,1818.1 439.9,1827.8 465,1837.4 486.2,1842.7 496.8,1844.9 
			"/>
</g>
<g>
	<polyline class="st0" points="-50.1,1985 -56.1,1964 -60.3,1937.4 -64.1,1911.5 -66.6,1884.9 -68.1,1858.5 -68.1,1844.9 
		-68.1,1831.7 -68.2,1819.5 -66.9,1807.2 -66.1,1794.5 -65.1,1781.9 -63.1,1769.2 -61.1,1755.9 -59.3,1743.1 -56.6,1730.9 
		-54.1,1719 -51.1,1707 -47.9,1693.9 -45.1,1683.4 -40.6,1670 -35.6,1656 -30.6,1643.5 -25.1,1631 -19.1,1614.9 -11.1,1597.9 
		-4.1,1583.4 6.4,1565 17.4,1547.4 26.9,1532.9 34.4,1521 43.9,1508.9 51.4,1498.5 60.9,1487 74.9,1471 89.9,1455.4 92.2,1452.6 
		94.9,1449.5 99.9,1443.5 114.9,1428 128.9,1411.9 138.4,1400.4 145.9,1390 155.4,1377.9 163,1365.9 172.4,1351.5 183.4,1333.9 
		193.8,1315.4 200.9,1300.9 208.9,1284 214.9,1267.9 220.4,1255.4 225.4,1242.9 230.4,1229 234.9,1215.4 237.7,1205 240.9,1192 
		243.9,1179.9 246.5,1168 249.2,1155.7 251,1143 252.8,1129.6 254.9,1116.9 255.9,1104.5 256.7,1091.6 257.9,1079.5 257.9,1067.1 
		257.9,1054 257.9,1040.4 256.4,1014 253.9,987.5 250.1,961.5 245.9,934.9 239.8,913.9 236.5,903.7 236,903.7 230,882.7 
		225.8,856.1 222,830.2 219.5,803.6 218,777.2 218,763.6 218,750.4 217.9,738.2 219.2,725.9 220,713.2 221,700.6 223,687.9 
		225,674.6 226.8,661.8 229.5,649.6 232,637.7 235,625.7 238.2,612.6 241,602.1 245.5,588.7 250.5,574.7 255.5,562.2 261,549.7 
		267,533.6 275,516.6 282,502.1 292.5,483.7 303.5,466.1 313,451.6 320.5,439.7 330,427.6 337.5,417.2 347,405.7 361,389.7 
		376,374.1 378.3,371.3 381,368.2 386,362.2 401,346.7 415,330.6 424.5,319.1 432,308.7 441.5,296.6 449.1,284.6 458.5,270.2 
		469.5,252.6 479.9,234.1 487,219.6 495,202.7 501,186.6 506.5,174.1 511.5,161.6 516.5,147.7 521,134.1 523.8,123.7 527,110.7 
		530,98.6 532.6,86.7 535.3,74.4 537.1,61.7 538.9,48.3 541,35.6 542,23.2 542.8,10.3 544,-1.8 544,-14.2 544,-27.3 544,-40.9 
		542.5,-67.3 540,-93.8 536.2,-119.8 532,-146.4 525.9,-167.4 522.6,-177.6 	"/>
</g>
<g>
	<polyline class="st0" points="2799,724.1 2783.8,739.8 2762.9,756.7 2742.3,773 2720.6,788.4 2698.5,803 2686.7,809.7 
		2675.3,816.4 2664.7,822.5 2653.4,827.5 2642,833.2 2630.6,838.6 2618.6,843.2 2606.1,848.1 2594.2,853 2582.2,856.7 2570.6,860.6 
		2558.7,864 2545.8,867.7 2535.3,870.5 2521.4,873.4 2506.9,876.1 2493.5,877.9 2479.9,879.5 2463.1,882.3 2444.3,883.8 2428.2,885 
		2407,885.2 2386.3,884.4 2369,883.4 2354.9,882.9 2339.7,880.7 2327,879.5 2312.2,877 2291.4,872.9 2270.4,867.6 2266.8,867 
		2262.7,866.3 2255.1,865 2234.1,859.7 2213.2,855.6 2198.5,853.1 2185.7,851.8 2170.5,849.6 2156.4,849.1 2139.1,848.2 
		2118.4,847.4 2097.2,847.6 2081.1,848.7 2062.4,850.3 2045.5,853.1 2031.9,854.6 2018.6,856.5 2004,859.2 1990,862.1 1979.6,864.8 
		1966.7,868.6 1954.8,872 1943.2,875.8 1931.2,879.6 1919.3,884.4 1906.8,889.4 1894.8,894 1883.5,899.4 1872,905.1 1860.8,910.1 
		1850.2,916.3 1838.7,922.9 1827,929.6 1804.8,944.2 1783.1,959.6 1762.5,975.9 1741.7,992.8 1726.5,1008.5 1719.3,1016.6 
		1719.9,1016.2 1704.7,1031.9 1683.8,1048.9 1663.2,1065.2 1641.5,1080.6 1619.3,1095.1 1607.6,1101.9 1596.1,1108.5 1585.6,1114.7 
		1574.3,1119.7 1562.9,1125.4 1551.5,1130.8 1539.5,1135.4 1527,1140.3 1515,1145.2 1503.1,1148.9 1491.5,1152.7 1479.6,1156.2 
		1466.7,1159.9 1456.2,1162.7 1442.3,1165.6 1427.7,1168.2 1414.4,1170.1 1400.8,1171.6 1383.9,1174.5 1365.2,1176 1349.1,1177.2 
		1327.9,1177.3 1307.2,1176.6 1289.9,1175.6 1275.7,1175.1 1260.6,1172.9 1247.8,1171.6 1233.1,1169.1 1212.2,1165.1 1191.3,1159.8 
		1187.7,1159.2 1183.6,1158.5 1175.9,1157.1 1155,1151.9 1134.1,1147.8 1119.4,1145.3 1106.6,1144 1091.4,1141.8 1077.2,1141.3 
		1060,1140.3 1039.3,1139.6 1018.1,1139.8 1002,1140.9 983.3,1142.4 966.4,1145.3 952.8,1146.8 939.5,1148.7 924.9,1151.4 
		910.9,1154.2 900.5,1157 887.6,1160.8 875.7,1164.2 864,1168 852,1171.8 840.1,1176.6 827.7,1181.6 815.6,1186.2 804.3,1191.6 
		792.8,1197.3 781.7,1202.3 771,1208.5 759.6,1215 747.9,1221.8 725.7,1236.3 704,1251.8 683.4,1268 662.5,1285 647.3,1300.7 
		640.1,1308.8 640.1,1308.2 624.9,1323.9 604,1340.9 583.4,1357.2 561.7,1372.6 539.5,1387.1 527.8,1393.9 516.3,1400.5 
		505.8,1406.7 494.5,1411.7 483.1,1417.4 471.7,1422.8 459.7,1427.4 447.2,1432.3 435.2,1437.2 423.3,1440.9 411.7,1444.7 
		399.8,1448.2 386.9,1451.9 376.4,1454.7 362.5,1457.6 347.9,1460.2 334.6,1462.1 321,1463.6 304.1,1466.5 285.4,1468 269.3,1469.2 
		248.1,1469.3 227.4,1468.6 210.1,1467.6 195.9,1467.1 180.8,1464.9 168,1463.6 153.3,1461.1 132.4,1457.1 111.5,1451.8 
		107.9,1451.2 103.8,1450.5 96.1,1449.1 75.2,1443.9 54.3,1439.8 39.6,1437.3 26.8,1436 11.6,1433.8 -2.6,1433.3 -19.8,1432.3 
		-40.5,1431.6 -61.7,1431.8 -77.8,1432.9 -96.5,1434.4 -113.4,1437.3 -127,1438.8 -140.3,1440.7 -154.9,1443.4 -168.9,1446.2 
		-179.3,1449 -192.2,1452.8 -204.1,1456.2 -215.8,1460 -227.8,1463.8 -239.7,1468.6 -252.1,1473.6 -264.2,1478.2 -275.5,1483.6 
		-287,1489.3 -298.1,1494.3 -308.8,1500.5 -320.2,1507 -331.9,1513.8 -354.1,1528.3 -375.8,1543.8 -396.4,1560 -417.3,1577 
		-432.5,1592.7 -439.7,1600.8 	"/>
</g>
<g>
	<polyline class="st0" points="-10.3,-25.2 10.9,-19.9 36,-10.3 60.4,-0.6 84.6,10.5 108.3,22.4 120,29.2 131.5,35.8 142.1,41.9 
		152.1,49.1 162.7,56.2 173.1,63.3 183.1,71.4 193.6,79.8 203.8,87.7 213,96.2 222.1,104.3 231,112.9 240.7,122.2 248.4,129.9 
		257.8,140.5 267.4,151.8 275.7,162.4 283.8,173.4 294.7,186.6 305.4,202.1 314.5,215.4 325.2,233.7 334.9,252 342.7,267.5 
		349.3,280 355,294.2 360.3,305.9 365.5,319.9 372.4,340 378.3,360.8 379.6,364.2 381,368.1 383.7,375.4 389.6,396.2 396.5,416.3 
		401.7,430.3 407,442 412.7,456.3 419.3,468.8 427.1,484.2 436.8,502.5 447.6,520.8 456.6,534.2 467.3,549.6 478.2,562.8 
		486.3,573.8 494.6,584.4 504.2,595.7 513.7,606.4 521.3,614 531,623.3 539.9,631.9 549,640.1 558.3,648.6 568.4,656.5 579,664.8 
		589,672.9 599.3,680 610,687.1 619.9,694.3 630.6,700.4 642,707 653.7,713.8 677.4,725.7 701.6,736.8 726,746.5 751.1,756.1 
		772.3,761.4 782.9,763.6 783.4,764.1 804.6,769.4 829.7,779 854.1,788.7 878.3,799.8 902,811.7 913.7,818.5 925.2,825.1 
		935.8,831.2 945.8,838.4 956.4,845.5 966.8,852.6 976.8,860.7 987.3,869.1 997.5,877 1006.7,885.5 1015.8,893.6 1024.7,902.2 
		1034.4,911.5 1042.1,919.2 1051.5,929.8 1061.1,941.1 1069.4,951.7 1077.5,962.7 1088.4,975.9 1099.1,991.4 1108.2,1004.7 
		1118.9,1023 1128.6,1041.3 1136.4,1056.8 1143,1069.3 1148.7,1083.5 1154,1095.2 1159.2,1109.2 1166.1,1129.3 1172,1150.1 
		1173.3,1153.5 1174.7,1157.4 1177.4,1164.7 1183.3,1185.5 1190.2,1205.6 1195.4,1219.6 1200.7,1231.3 1206.4,1245.6 1213,1258.1 
		1220.8,1273.5 1230.5,1291.8 1241.3,1310.1 1250.3,1323.5 1261,1338.9 1271.9,1352.1 1280,1363.1 1288.3,1373.7 1297.9,1385 
		1307.4,1395.7 1315,1403.3 1324.7,1412.6 1333.6,1421.2 1342.7,1429.4 1352,1437.9 1362.1,1445.8 1372.7,1454.1 1382.7,1462.2 
		1393,1469.3 1403.7,1476.4 1413.6,1483.6 1424.3,1489.7 1435.7,1496.3 1447.4,1503.1 1471.1,1515 1495.3,1526.1 1519.7,1535.8 
		1544.8,1545.4 1566,1550.7 1576.6,1552.9 1576.5,1553.2 1597.7,1558.5 1622.8,1568.1 1647.2,1577.8 1671.4,1588.9 1695.1,1600.8 
		1706.8,1607.6 1718.3,1614.2 1728.9,1620.3 1738.9,1627.5 1749.5,1634.6 1759.9,1641.7 1769.9,1649.8 1780.4,1658.2 1790.6,1666.1 
		1799.8,1674.6 1808.9,1682.7 1817.8,1691.3 1827.5,1700.6 1835.2,1708.3 1844.6,1718.9 1854.2,1730.2 1862.5,1740.8 1870.6,1751.8 
		1881.5,1765 1892.2,1780.5 1901.3,1793.8 1912,1812.1 1921.7,1830.4 1929.5,1845.9 1936.1,1858.4 1941.8,1872.6 1947.1,1884.3 
		1952.3,1898.3 1959.2,1918.4 1965.1,1939.2 1966.4,1942.6 1967.8,1946.5 1970.5,1953.8 1976.4,1974.6 1983.3,1994.7 1988.5,2008.7 
		1993.8,2020.4 1999.5,2034.7 2006.1,2047.2 2013.9,2062.6 2023.6,2080.9 2034.4,2099.2 2043.4,2112.6 2054.1,2128 2065,2141.2 
		2073.1,2152.2 2081.4,2162.8 2091,2174.1 2100.5,2184.8 2108.1,2192.4 2117.8,2201.7 2126.7,2210.3 2135.8,2218.5 2145.1,2227 
		2155.2,2234.9 2165.8,2243.2 2175.8,2251.3 2186.1,2258.4 2196.8,2265.5 2206.7,2272.7 2217.4,2278.8 2228.8,2285.4 2240.5,2292.2 
		2264.2,2304.1 2288.4,2315.2 2312.8,2324.9 2337.9,2334.5 2359.1,2339.8 2369.7,2342 	"/>
</g>
<g>
	<polyline class="st0" points="1822.8,2482.1 1816.8,2461.1 1812.6,2434.5 1808.8,2408.6 1806.3,2382 1804.8,2355.6 1804.8,2342 
		1804.8,2328.8 1804.7,2316.6 1806,2304.3 1806.8,2291.6 1807.8,2279 1809.8,2266.3 1811.8,2253 1813.6,2240.2 1816.3,2228 
		1818.8,2216.1 1821.8,2204.1 1825,2191 1827.8,2180.5 1832.3,2167.1 1837.3,2153.1 1842.3,2140.6 1847.8,2128.1 1853.8,2112 
		1861.8,2095 1868.8,2080.5 1879.3,2062.1 1890.3,2044.5 1899.8,2030 1907.3,2018.1 1916.8,2006 1924.3,1995.6 1933.8,1984.1 
		1947.8,1968.1 1962.8,1952.5 1965.1,1949.7 1967.8,1946.6 1972.8,1940.6 1987.8,1925.1 2001.8,1909 2011.3,1897.5 2018.8,1887.1 
		2028.3,1875 2035.9,1863 2045.3,1848.6 2056.3,1831 2066.7,1812.5 2073.8,1798 2081.8,1781.1 2087.8,1765 2093.3,1752.5 
		2098.3,1740 2103.3,1726.1 2107.8,1712.5 2110.6,1702.1 2113.8,1689.1 2116.8,1677 2119.4,1665.1 2122.1,1652.8 2123.9,1640.1 
		2125.7,1626.7 2127.8,1614 2128.8,1601.6 2129.6,1588.7 2130.8,1576.6 2130.8,1564.2 2130.8,1551.1 2130.8,1537.5 2129.3,1511.1 
		2126.8,1484.6 2123,1458.6 2118.8,1432 2112.7,1411 2109.4,1400.8 2108.9,1400.8 2102.9,1379.8 2098.6,1353.3 2094.8,1327.3 
		2092.3,1300.8 2090.8,1274.3 2090.8,1260.8 2090.8,1247.5 2090.8,1235.3 2092,1223 2092.9,1210.3 2093.8,1197.7 2095.8,1185 
		2097.8,1171.7 2099.6,1158.9 2102.4,1146.7 2104.8,1134.8 2107.8,1122.8 2111,1109.7 2113.8,1099.2 2118.3,1085.8 2123.3,1071.8 
		2128.3,1059.3 2133.8,1046.8 2139.8,1030.8 2147.9,1013.8 2154.8,999.2 2165.3,980.8 2176.3,963.3 2185.9,948.8 2193.4,936.8 
		2202.8,924.7 2210.3,914.3 2219.8,902.8 2233.8,886.8 2248.9,871.3 2251.1,868.4 2253.8,865.3 2258.8,859.3 2273.9,843.8 
		2287.8,827.8 2297.3,816.3 2304.8,805.8 2314.4,793.7 2321.9,781.8 2331.3,767.3 2342.3,749.8 2352.8,731.3 2359.9,716.8 
		2367.9,699.8 2373.8,683.8 2379.3,671.2 2384.3,658.8 2389.3,644.8 2393.8,631.2 2396.6,620.8 2399.8,607.8 2402.8,595.8 
		2405.4,583.8 2408.1,571.5 2409.9,558.8 2411.8,545.5 2413.8,532.7 2414.8,520.3 2415.6,507.5 2416.9,495.3 2416.8,483 
		2416.8,469.8 2416.9,456.3 2415.3,429.8 2412.8,403.3 2409,377.3 2404.8,350.8 2398.8,329.8 2395.4,319.5 	"/>
</g>
<g>
	<polyline class="st0" points="2513,1805.3 2497.8,1821 2476.9,1838 2456.3,1854.3 2434.6,1869.7 2412.4,1884.2 2400.7,1891 
		2389.2,1897.6 2378.7,1903.8 2367.4,1908.8 2356,1914.5 2344.6,1919.9 2332.6,1924.5 2320.1,1929.4 2308.1,1934.3 2296.2,1938 
		2284.6,1941.8 2272.7,1945.3 2259.8,1949 2249.3,1951.8 2235.4,1954.7 2220.8,1957.3 2207.5,1959.2 2193.9,1960.7 2177,1963.6 
		2158.3,1965.1 2142.2,1966.3 2121,1966.4 2100.3,1965.7 2083,1964.7 2068.8,1964.2 2053.7,1962 2040.9,1960.7 2026.2,1958.2 
		2005.3,1954.2 1984.4,1948.9 1980.8,1948.3 1976.7,1947.6 1969,1946.2 1948.1,1941 1927.2,1936.9 1912.5,1934.4 1899.7,1933.1 
		1884.5,1930.9 1870.3,1930.4 1853.1,1929.4 1832.4,1928.7 1811.2,1928.9 1795.1,1930 1776.4,1931.5 1759.5,1934.4 1745.9,1935.9 
		1732.6,1937.8 1718,1940.5 1704,1943.3 1693.6,1946.1 1680.7,1949.9 1668.8,1953.3 1657.1,1957.1 1645.1,1960.9 1633.2,1965.7 
		1620.8,1970.7 1608.7,1975.3 1597.4,1980.7 1585.9,1986.4 1574.8,1991.4 1564.1,1997.6 1552.7,2004.1 1541,2010.9 1518.8,2025.4 
		1497.1,2040.9 1476.5,2057.1 1455.6,2074.1 1440.4,2089.8 1433.2,2097.9 	"/>
</g>
</svg>
