<?xml version="1.0" encoding="utf-8"?>
<!-- Generator: Adobe Illustrator 22.0.0, SVG Export Plug-In . SVG Version: 6.00 Build 0)  -->
<svg version="1.1" id="Layer_1" xmlns="http://www.w3.org/2000/svg" xmlns:xlink="http://www.w3.org/1999/xlink" x="0px" y="0px"
	 viewBox="0 0 768 768" style="enable-background:new 0 0 768 768;" xml:space="preserve">
<style type="text/css">
	.st0{fill:none;stroke:#FF0031;stroke-miterlimit:10;}
	.st1{fill:none;stroke:#000000;stroke-miterlimit:10;}
</style>
<path class="st0" d="M0,262.3c7.5-5,18.6-11.8,33-18c17.8-7.7,32.1-10.9,49.3-14.7c24.3-5.3,36.5-8,52.7-8
	c25-0.1,43.7,5.8,58.7,10.7c30.8,10,51.8,23.7,67.3,34c5.6,3.7,29.7,20,58,48.7c7.2,7.3,20.1,20.9,54,66.7
	c43.9,59.2,40.3,60.7,59.3,82c13.1,14.7,38.4,42.5,79.3,65.3c19.7,11,63.4,34.7,124,34.7c46.8,0,82.1-14.1,95.3-20
	c15.7-7,28.1-14.6,37-20.7"/>
<path class="st1" d="M804.9,637.3L145.7,813.9L-64.2,30.6l659.2-176.6L804.9,637.3z"/>
</svg>
