<?xml version="1.0" encoding="utf-8"?>
<!-- Generator: Adobe Illustrator 22.0.0, SVG Export Plug-In . SVG Version: 6.00 Build 0)  -->
<svg version="1.1" id="Layer_1" xmlns="http://www.w3.org/2000/svg" xmlns:xlink="http://www.w3.org/1999/xlink" x="0px" y="0px"
	 viewBox="0 0 768 669" style="enable-background:new 0 0 768 669;" xml:space="preserve">
<style type="text/css">
	.st0{fill:none;stroke:#FF0031;stroke-miterlimit:10;}
</style>
<path class="st0" d="M0,264.1c7.5-3.3,18.6-7.9,33-12c17.8-5.1,32.1-7.3,49.3-9.8c24.3-3.5,36.5-5.3,52.7-5.3
	c25-0.1,43.7,3.9,58.7,7.1c30.8,6.7,51.8,15.8,67.3,22.6c5.6,2.5,29.7,13.3,58,32.4c7.2,4.9,20.1,13.9,54,44.4
	c43.9,39.4,40.3,40.4,59.3,54.6c13.1,9.8,38.4,28.3,79.3,43.5c19.7,7.3,63.4,23.1,124,23.1c46.8,0,82.1-9.4,95.3-13.3
	c15.7-4.7,28.1-9.7,37-13.8"/>
<path class="st0" d="M0,87.1c7.5-3.3,18.6-7.9,33-12c17.8-5.1,32.1-7.3,49.3-9.8c24.3-3.5,36.5-5.3,52.7-5.3
	c25-0.1,43.7,3.9,58.7,7.1c30.8,6.7,51.8,15.8,67.3,22.6c5.6,2.5,29.7,13.3,58,32.4c7.2,4.9,20.1,13.9,54,44.4
	c43.9,39.4,40.3,40.4,59.3,54.6c13.1,9.8,38.4,28.3,79.3,43.5c19.7,7.3,63.4,23.1,124,23.1c46.8,0,82.1-9.4,95.3-13.3
	c15.7-4.7,28.1-9.7,37-13.8"/>
<path class="st0" d="M0,437.1c7.5-3.3,18.6-7.9,33-12c17.8-5.1,32.1-7.3,49.3-9.8c24.3-3.5,36.5-5.3,52.7-5.3
	c25-0.1,43.7,3.9,58.7,7.1c30.8,6.7,51.8,15.8,67.3,22.6c5.6,2.5,29.7,13.3,58,32.4c7.2,4.9,20.1,13.9,54,44.4
	c43.9,39.4,40.3,40.4,59.3,54.6c13.1,9.8,38.4,28.3,79.3,43.5c19.7,7.3,63.4,23.1,124,23.1c46.8,0,82.1-9.4,95.3-13.3
	c15.7-4.7,28.1-9.7,37-13.8"/>
<path class="st0" d="M0,181.1c7.5-3.3,18.6-7.9,33-12c17.8-5.1,32.1-7.3,49.3-9.8c24.3-3.5,36.5-5.3,52.7-5.3
	c25-0.1,43.7,3.9,58.7,7.1c30.8,6.7,51.8,15.8,67.3,22.6c5.6,2.5,29.7,13.3,58,32.4c7.2,4.9,20.1,13.9,54,44.4
	c43.9,39.4,40.3,40.4,59.3,54.6c13.1,9.8,38.4,28.3,79.3,43.5c19.7,7.3,63.4,23.1,124,23.1c46.8,0,82.1-9.4,95.3-13.3
	c15.7-4.7,28.1-9.7,37-13.8"/>
<path class="st0" d="M0,357.1c7.5-3.3,18.6-7.9,33-12c17.8-5.1,32.1-7.3,49.3-9.8c24.3-3.5,36.5-5.3,52.7-5.3
	c25-0.1,43.7,3.9,58.7,7.1c30.8,6.7,51.8,15.8,67.3,22.6c5.6,2.5,29.7,13.3,58,32.4c7.2,4.9,20.1,13.9,54,44.4
	c43.9,39.4,40.3,40.4,59.3,54.6c13.1,9.8,38.4,28.3,79.3,43.5c19.7,7.3,63.4,23.1,124,23.1c46.8,0,82.1-9.4,95.3-13.3
	c15.7-4.7,28.1-9.7,37-13.8"/>
</svg>
