<?xml version="1.0" encoding="utf-8"?>
<!-- Generator: Adobe Illustrator 22.0.0, SVG Export Plug-In . SVG Version: 6.00 Build 0)  -->
<svg version="1.1" id="Layer_1" xmlns="http://www.w3.org/2000/svg" xmlns:xlink="http://www.w3.org/1999/xlink" x="0px" y="0px"
	 viewBox="0 0 1158 733.5" style="enable-background:new 0 0 1158 733.5;" xml:space="preserve">
<style type="text/css">
	.st0{fill:none;stroke:#F90000;stroke-miterlimit:10;}
	.st1{fill:none;stroke:#EF4545;stroke-miterlimit:10;}
</style>
<path class="st0" d="M942.8,113.4"/>
<path class="st0" d="M1021,0"/>
<path class="st1" d="M77,733.5c6.8-28.3,51.8-203.4,223-294c18.7-9.9,155.6-79.9,302-40c63.1,17.2,71.9,39.5,145,56
	c12.4,2.8,140.7,30.5,228-10c116.2-53.8,179.9-237.3,142-445.5"/>
<path class="st1" d="M944,733.5c-31.6-42.1-83.4-102.1-161-155c-146.1-99.7-249.1-82.5-286-146C464.9,377.3,483.7,262.8,719,0"/>
<line class="st1" x1="-4.1" y1="122.7" x2="485.008" y2="388.021"/>
</svg>