<?xml version="1.0" encoding="utf-8"?>
<!-- Generator: Adobe Illustrator 22.0.0, SVG Export Plug-In . SVG Version: 6.00 Build 0)  -->
<svg version="1.1" id="Layer_1" xmlns="http://www.w3.org/2000/svg" xmlns:xlink="http://www.w3.org/1999/xlink" x="0px" y="0px"
	 viewBox="0 0 1500 1000" style="enable-background:new 0 0 1500 1000;" xml:space="preserve">
<style type="text/css">
	.st0{fill:none;stroke:#000000;stroke-miterlimit:10;}
	.st1{fill:none;stroke:#F90000;stroke-miterlimit:10;}
	.st2{fill:none;stroke:#EF4545;stroke-miterlimit:10;}
</style>
<path class="st0" d="M1319.5,868.5h-1188v-770h1188V868.5z"/>
<path class="st1" d="M1048.8,211.9"/>
<path class="st1" d="M1127,98.5"/>
<path class="st2" d="M131.5,830c3.6-14.4,107.1-282.8,323.5-349c123-37.6,229.6-1.7,267.7,13.3"/>
<path class="st2" d="M1216.2,98.5c3.3,30.2,12.1,168.1-78.2,278.5c-93,113.7-259.3,163.7-415.3,117.3"/>
<path class="st2" d="M131.5,243c124-143.3,335.6-100.5,463.5-18c110,71,141,152.2,127.7,269.3"/>
<path class="st2" d="M1140,868.5c-31-180-475-85.1-519-211.5c-27.7-79.7,78.8-121.5,101.7-162.7"/>
</svg>
