<?xml version="1.0" encoding="utf-8"?>
<!-- Generator: Adobe Illustrator 22.0.0, SVG Export Plug-In . SVG Version: 6.00 Build 0)  -->
<svg version="1.1" id="Layer_1" xmlns="http://www.w3.org/2000/svg" xmlns:xlink="http://www.w3.org/1999/xlink" x="0px" y="0px"
	 viewBox="0 0 1500 1000" style="enable-background:new 0 0 1500 1000;" xml:space="preserve">
<style type="text/css">
	.st0{fill:none;stroke:#000000;stroke-miterlimit:10;}
	.st1{fill:none;stroke:#F90000;stroke-miterlimit:10;}
</style>
<path class="st0" d="M1319.5,868.5h-1188v-770h1188V868.5z"/>
<path class="st1" d="M1127,98.5"/>
<path class="st1" d="M1048.8,211.9 M1319.5,318C998.4,630,835.4,671.4,747,628c-138.5-68.1-97-345.9-242-400
	c-101.2-37.8-267.2,87.1-373.5,187"/>
<path class="st1" d="M402.2,216.5 M1319.5,419.6c-106.3-99.9-272.3-224.8-373.5-187c-145,54.1-97.4,346.3-242,400
	c-100.7,37.4-240.7-1.3-572.5-310"/>
<line class="st1" x1="131.5" y1="647" x2="1319.5" y2="849.3"/>
<path class="st1" d="M131.5,843.3"/>
<line class="st1" x1="131.5" y1="843.3" x2="1319.5" y2="647"/>
<line class="st1" x1="1319.5" y1="98.5" x2="716.6" y2="746.7"/>
<line class="st1" x1="131.5" y1="98.5" x2="716.6" y2="746.7"/>
</svg>
