<?xml version="1.0" encoding="utf-8"?>
<!-- Generator: Adobe Illustrator 22.0.0, SVG Export Plug-In . SVG Version: 6.00 Build 0)  -->
<svg version="1.1" id="Layer_1" xmlns="http://www.w3.org/2000/svg" xmlns:xlink="http://www.w3.org/1999/xlink" x="0px" y="0px"
	 viewBox="0 0 940.9 789.5" style="enable-background:new 0 0 940.9 789.5;" xml:space="preserve">
<style type="text/css">
	.st0{fill:none;stroke:#F90B2D;stroke-miterlimit:10;}
</style>
<g>
	<polyline class="st0" points="60.7,0.3 81.9,5.6 107,15.2 131.4,24.9 155.6,36 179.3,47.9 191,54.7 202.5,61.3 213.1,67.4 
		223.1,74.6 233.7,81.7 244.1,88.8 254.1,96.9 264.6,105.3 274.8,113.2 284,121.7 293.1,129.8 302,138.4 311.7,147.7 319.4,155.4 
		328.8,166 338.4,177.3 346.7,187.9 354.8,198.9 365.7,212.1 376.4,227.6 385.5,240.9 396.2,259.2 405.9,277.5 413.7,293 
		420.3,305.5 426,319.7 431.3,331.4 436.5,345.4 443.4,365.5 449.3,386.3 450.6,389.7 452,393.6 454.7,400.9 460.6,421.7 
		467.5,441.8 472.7,455.8 478,467.5 483.7,481.8 490.3,494.3 498.1,509.7 507.8,528 518.6,546.3 527.6,559.7 538.3,575.1 
		549.2,588.3 557.3,599.3 565.6,609.9 575.2,621.2 584.7,631.9 592.3,639.5 602,648.8 610.9,657.4 620,665.6 629.3,674.1 639.4,682 
		650,690.3 660,698.4 670.3,705.5 681,712.6 690.9,719.8 701.6,725.9 713,732.5 724.7,739.3 748.4,751.2 772.6,762.3 797,772 
		822.1,781.6 843.3,786.9 853.9,789.1 	"/>
</g>
<g>
	<polyline class="st0" points="60.7,789.1 71.3,786.9 92.5,781.6 117.6,772 142,762.3 166.2,751.2 189.9,739.3 201.6,732.5 
		213,725.9 223.7,719.8 233.6,712.6 244.3,705.5 254.6,698.4 264.6,690.3 275.2,682 285.3,674.1 294.6,665.6 303.7,657.4 
		312.6,648.8 322.3,639.5 329.9,631.9 339.4,621.2 349,609.9 357.3,599.3 365.4,588.3 376.3,575.1 387,559.7 396,546.3 406.8,528 
		416.5,509.7 424.3,494.3 430.9,481.8 436.6,467.5 441.9,455.8 447.1,441.8 454,421.7 459.9,400.9 462.6,393.6 464,389.7 
		465.3,386.3 471.2,365.5 478.1,345.4 483.3,331.4 488.6,319.7 494.3,305.5 500.9,293 508.7,277.5 518.4,259.2 529.1,240.9 
		538.2,227.6 548.9,212.1 559.8,198.9 567.9,187.9 576.2,177.3 585.8,166 595.2,155.4 602.9,147.7 612.6,138.4 621.5,129.8 
		630.6,121.7 639.8,113.2 650,105.3 660.5,96.9 670.5,88.8 680.9,81.7 691.5,74.6 701.5,67.4 712.1,61.3 723.6,54.7 735.3,47.9 
		759,36 783.2,24.9 807.6,15.2 832.7,5.6 853.9,0.3 	"/>
</g>
</svg>
