<?xml version="1.0" encoding="utf-8"?>
<!-- Generator: Adobe Illustrator 22.0.0, SVG Export Plug-In . SVG Version: 6.00 Build 0)  -->
<svg version="1.1" id="Layer_1" xmlns="http://www.w3.org/2000/svg" xmlns:xlink="http://www.w3.org/1999/xlink" x="0px" y="0px"
	 viewBox="0 0 543.1 335.4" style="enable-background:new 0 0 543.1 335.4;" xml:space="preserve">
<style type="text/css">
	.st0{fill:none;stroke:#EF4545;stroke-miterlimit:10;}
</style>
<g>
	<path class="st0" d="M433.6,335.4c-17-23.9-111.6-189.1-298.6-191c-54.1-0.5-100.2,9.1-135,23.4"/>
</g>
<g>
	<path class="st0" d="M233.2,335.4c-9.1-12.9-60-101.7-160.6-102.7c-29.1-0.3-53.9,4.9-72.6,12.6"/>
</g>
<g>
	<path class="st0" d="M324.3,335.4c-12.7-17.9-83.5-142.1-223.4-143.6c-40.5-0.4-74.9,6.8-101,17.5"/>
</g>
<g>
	<path class="st0" d="M493,335.4c-19.3-29.5-126.9-233.2-339.5-235.5C92,99.3,39.6,111.1,0,128.7"/>
</g>
<path class="st0" d="M543.1,303.4C521.8,271,403.2,46.6,169.1,44C101.3,43.3,43.6,56.4,0,75.8"/>
</svg>
