<?xml version="1.0" encoding="utf-8"?>
<!-- Generator: Adobe Illustrator 22.0.0, SVG Export Plug-In . SVG Version: 6.00 Build 0)  -->
<svg version="1.1" id="Layer_1" xmlns="http://www.w3.org/2000/svg" xmlns:xlink="http://www.w3.org/1999/xlink" x="0px" y="0px"
	 viewBox="0 0 792.1 487.4" style="enable-background:new 0 0 792.1 487.4;" xml:space="preserve">
<style type="text/css">
	.st0{fill:none;stroke:#EF4545;stroke-miterlimit:10;}
	.st1{fill:none;stroke:#000000;stroke-miterlimit:10;}
</style>
<g>
	<path class="st0" d="M580.6,376.4c-17-23.9-111.6-189.1-298.6-191c-54.1-0.5-100.2,9.1-135,23.4"/>
</g>
<g>
	<path class="st0" d="M471.3,376.4c-12.7-17.9-83.5-142.1-223.4-143.6c-40.5-0.4-74.9,6.8-101,17.5"/>
</g>
<g>
	<path class="st0" d="M640,376.4c-19.3-29.5-126.9-233.2-339.5-235.5c-61.5-0.6-113.9,11.2-153.5,28.8"/>
</g>
<path class="st1" d="M147,286.3c0-56.5,0-113,0-169.5C190.6,97.4,248.3,84.3,316.1,85c234.1,2.6,352.7,227,374,259.4v32H380.2
	c-2.8-7.7-7.3-18.1-14.2-29.4c-5.3-8.7-23.2-35.9-57.5-56.5c-16.5-9.9-68.8-37.4-127-20C166,275.1,154.3,281.7,147,286.3z"/>
</svg>
