<?xml version="1.0" encoding="utf-8"?>
<!-- Generator: Adobe Illustrator 22.0.0, SVG Export Plug-In . SVG Version: 6.00 Build 0)  -->
<svg version="1.1" id="Layer_1" xmlns="http://www.w3.org/2000/svg" xmlns:xlink="http://www.w3.org/1999/xlink" x="0px" y="0px"
	 viewBox="0 0 900 900" style="enable-background:new 0 0 900 900;" xml:space="preserve">
<style type="text/css">
	.st0{fill:none;stroke:#FF0031;stroke-miterlimit:10;}
	.st1{fill:none;stroke:#000000;stroke-miterlimit:10;}
	.st2{fill:none;stroke:#EA0A00;stroke-miterlimit:10;}
</style>
<path class="st0" d="M0.5,631.5c70.4-3.1,209.3-20.1,352.9-119.4C606.8,336.9,643.7,47.8,649,0"/>
<path class="st0" d="M900.5,899.5"/>
<path class="st0" d="M0.5,0.5"/>
<path class="st0" d="M0.5,631.5c182.6,106.8,420.9,85.9,573-59c155-147.7,180.2-383.2,76-572"/>
<path class="st0" d="M900.5,899.5"/>
<path class="st0" d="M0.5,0.5"/>
<path class="st0" d="M-0.5,640.5"/>
<path class="st1" d="M649.5,0.5c-26.4,80.2-100.7,239.4-260,387C242.2,524,81.1,609,0.5,631.5c185.8,246.3,534.7,284.2,728,97
	C923,540.2,893,193.1,649.5,0.5z"/>
<path class="st2" d="M0.5,631.5c171,204.1,481.6,215.8,670,38c189.9-179.2,176.4-487.3-21-669"/>
</svg>
