<?xml version="1.0" encoding="utf-8"?>
<!-- Generator: Adobe Illustrator 22.0.0, SVG Export Plug-In . SVG Version: 6.00 Build 0)  -->
<svg version="1.1" id="Layer_1" xmlns="http://www.w3.org/2000/svg" xmlns:xlink="http://www.w3.org/1999/xlink" x="0px" y="0px"
	 viewBox="0 0 900 900" style="enable-background:new 0 0 900 900;" xml:space="preserve">
<style type="text/css">
	.st0{fill:none;stroke:#000000;stroke-miterlimit:10;}
	.st1{fill:none;stroke:#FC0815;stroke-miterlimit:10;}
</style>
<path class="st0" d="M473.5,189C279.9,189,123,345.9,123,539.5h0.5h136c0-114.4,95.5-208.5,214-219.9v-0.1v-130V189z"/>
<path class="st1" d="M180.5,547.5c-7.7-24-8-40.9-8-67.5c0-137.2,111.3-248.5,248.5-248.5c37.9,0,73.8,8.5,106,23.7"/>
<path class="st1" d="M212.3,547.5c-7-21.8-7.3-37.2-7.3-61.3c0-124.7,101.1-225.7,225.7-225.7c34.4,0,67.1,7.7,96.3,21.5"/>
<path class="st1" d="M241.4,547.5c-6.4-19.8-6.6-33.7-6.6-55.6c0-113.1,91.7-204.9,204.9-204.9c31.2,0,60.9,7,87.4,19.5"/>
<path class="st1" d="M273.1,497.5c-3.9-12.3-4.1-20.9-4.1-34.5c0-70.1,56.8-126.9,126.9-126.9c19.4,0,37.7,4.3,54.1,12.1"/>
</svg>
