<?xml version="1.0" encoding="utf-8"?>
<!-- Generator: Adobe Illustrator 22.0.0, SVG Export Plug-In . SVG Version: 6.00 Build 0)  -->
<svg version="1.1" id="Layer_1" xmlns="http://www.w3.org/2000/svg" xmlns:xlink="http://www.w3.org/1999/xlink" x="0px" y="0px"
	 viewBox="0 0 900 900" style="enable-background:new 0 0 900 900;" xml:space="preserve">
<style type="text/css">
	.st0{fill:none;stroke:#000000;stroke-miterlimit:10;}
	.st1{fill:none;stroke:#FC0815;stroke-miterlimit:10;}
</style>
<path class="st0" d="M438.5,127C244.9,127,88,283.9,88,477.5h0.5h136c0-114.4,95.5-208.5,214-219.9v-0.1v-130V127z"/>
<path class="st1" d="M193.6,495.2c-4.6-17.6-7.1-36.1-7.1-55.2c0-119.6,96.9-216.5,216.5-216.5c21.2,0,41.6,3,60.9,8.7"/>
<path class="st1" d="M463.9,209.2c7.3,2.5,14.4,5.3,21.3,8.5 M170.4,495.2c-6.7-21.6-10.4-44.6-10.4-68.4
	C160,299.9,262.9,197,389.8,197c26,0,50.9,4.3,74.2,12.2 M175.5,510c-1.9-4.9-3.6-9.8-5.2-14.8"/>
<path class="st1" d="M149.4,494.2c-7.7-24-11.9-49.6-11.9-76.2c0-137.2,111.3-248.5,248.5-248.5c37.9,0,73.8,8.5,106,23.7"/>
<path class="st1" d="M217.1,502.6c-4.3-16.5-6.6-33.8-6.6-51.6c0-112.4,91.1-203.5,203.5-203.5c17.2,0,33.9,2.1,49.9,6.2"/>
</svg>
