<?xml version="1.0" encoding="utf-8"?>
<!-- Generator: Adobe Illustrator 22.0.0, SVG Export Plug-In . SVG Version: 6.00 Build 0)  -->
<svg version="1.1" id="Layer_1" xmlns="http://www.w3.org/2000/svg" xmlns:xlink="http://www.w3.org/1999/xlink" x="0px" y="0px"
	 viewBox="0 0 543 375.9" style="enable-background:new 0 0 543 375.9;" xml:space="preserve">
<style type="text/css">
	.st0{fill:none;stroke:#FF0000;stroke-miterlimit:10;}
</style>
<line class="st0" x1="-124.8" y1="117.8" x2="122.2" y2="117.8"/>
<line class="st0" x1="122.2" y1="258.8" x2="122.2" y2="117.8"/>
<line class="st0" x1="-125.3" y1="258.8" x2="121.7" y2="258.8"/>
<line class="st0" x1="649.7" y1="117.8" x2="402.7" y2="117.8"/>
<line class="st0" x1="402.7" y1="258.8" x2="402.7" y2="117.8"/>
<line class="st0" x1="650.2" y1="258.8" x2="403.2" y2="258.8"/>
<path class="st0" d="M121.2,117.6c0-117.5,282-117.5,282,0"/>
<path class="st0" d="M121.2,258.6c0,117.5,282,117.5,282,0"/>
<path class="st0" d="M160.4,322.3c12.3-0.3,34.4-27.7,33.6-48.7v0V102c0.8-21-21.2-48.4-33.6-48.7"/>
<path class="st0" d="M363.8,322.3c-12.3-0.3-34.4-27.7-33.6-48.7v0V102c-0.8-21,21.2-48.4,33.6-48.7"/>
</svg>
