<?xml version="1.0" encoding="utf-8"?>
<!-- Generator: Adobe Illustrator 22.0.0, SVG Export Plug-In . SVG Version: 6.00 Build 0)  -->
<svg version="1.1" id="Layer_1" xmlns="http://www.w3.org/2000/svg" xmlns:xlink="http://www.w3.org/1999/xlink" x="0px" y="0px"
	 viewBox="0 0 775.9 656.8" style="enable-background:new 0 0 775.9 656.8;" xml:space="preserve">
<style type="text/css">
	.st0{fill:none;stroke:#FF0000;stroke-miterlimit:10;stroke-dasharray:6,6;}
	.st1{fill:none;stroke:#FF0000;stroke-miterlimit:10;}
</style>
<polyline class="st0" points="772.9,288.6 526.2,288.6 526.2,429.6 772.9,429.6 "/>
<polyline class="st0" points="-2.5,429.6 244.2,429.6 244.2,288.6 -2.5,288.6 "/>
<path class="st0" d="M244.2,288.6c0-117.5,282-117.5,282,0"/>
<path class="st0" d="M244.2,429.6c0,117.5,282,117.5,282,0"/>
<path class="st1" d="M244.2,288.6c-176.2-188,458.2-188,282,0"/>
<path class="st1" d="M244.2,429.6c-176.2,188,458.2,188,282,0"/>
<line class="st1" x1="285" y1="288.6" x2="285" y2="429.6"/>
<path class="st1" d="M285,288.6c0.7-17.2-17.4-39.7-27.6-40"/>
<path class="st1" d="M285,429.6c0.7,17.2-17.4,39.8-27.6,40"/>
<line class="st1" x1="485.4" y1="288.6" x2="485.4" y2="429.6"/>
<path class="st1" d="M485.4,288.6c-0.7-17.2,17.4-39.7,27.6-40"/>
<path class="st1" d="M485.4,429.6c-0.7,17.2,17.4,39.8,27.6,40"/>
</svg>
