<?xml version="1.0" encoding="utf-8"?>
<!-- Generator: Adobe Illustrator 22.0.0, SVG Export Plug-In . SVG Version: 6.00 Build 0)  -->
<svg version="1.1" id="Layer_1" xmlns="http://www.w3.org/2000/svg" xmlns:xlink="http://www.w3.org/1999/xlink" x="0px" y="0px"
	 viewBox="0 0 275 300" style="enable-background:new 0 0 275 300;" xml:space="preserve">
<style type="text/css">
	.st0{fill:none;stroke:#FF0000;stroke-width:0.708;stroke-linecap:round;stroke-linejoin:round;stroke-miterlimit:500;}
</style>
<path class="st0" d="M-0.2,190.5l23.9,4.8 M23.7,195.2l9.4,1.9 M33,197.1l9.4,1.8 M42.4,198.9l9.4,1.8 M51.8,200.7l9.4,1.7
	 M61.2,202.4l9.4,1.6 M70.7,203.9l9.5,1.4 M80.1,205.3l9.5,1.2 M89.6,206.6l9.5,1 M99.1,207.6l9.5,0.8 M108.6,208.4l9.5,0.6
	 M118.2,209l9.6,0.4 M127.7,209.4l9.6,0.1 M137.3,209.5l9.6-0.1 M146.8,209.4l9.6-0.4 M156.4,209l9.5-0.6 M165.9,208.4l9.5-0.8
	 M175.4,207.6l9.5-1 M184.9,206.6l9.5-1.2 M194.4,205.3l9.5-1.4 M203.9,203.9l9.4-1.6 M213.3,202.4l9.4-1.7 M222.7,200.7l9.4-1.8
	 M232.1,198.9l9.4-1.8 M241.5,197.1l9.4-1.9 M250.9,195.2l23.9-4.8"/>
<path class="st0" d="M274.8,105.4l-23.9-4.8 M250.9,100.7l-9.4-1.9 M241.6,98.8l-9.4-1.8 M232.2,97l-9.4-1.8 M222.8,95.2l-9.4-1.7
	 M213.4,93.5l-9.4-1.6 M203.9,92l-9.5-1.4 M194.5,90.6l-9.5-1.2 M185,89.3l-9.5-1 M175.5,88.3l-9.5-0.8 M166,87.5l-9.5-0.6
	 M156.4,86.9l-9.6-0.4 M146.9,86.5l-9.6-0.1 M137.3,86.4l-9.6,0.1 M127.8,86.5l-9.6,0.4 M118.2,86.9l-9.5,0.6 M108.7,87.5l-9.5,0.8
	 M99.2,88.3l-9.5,1 M89.7,89.3l-9.5,1.2 M80.2,90.6L70.7,92 M70.7,92l-9.4,1.6 M61.3,93.5l-9.4,1.7 M51.9,95.2L42.5,97 M42.5,97
	l-9.4,1.8 M33.1,98.8l-9.4,1.9 M23.7,100.7l-23.9,4.8"/>
</svg>
