<?xml version="1.0" encoding="utf-8"?>
<!-- Generator: Adobe Illustrator 22.0.0, SVG Export Plug-In . SVG Version: 6.00 Build 0)  -->
<svg version="1.1" id="Layer_1" xmlns="http://www.w3.org/2000/svg" xmlns:xlink="http://www.w3.org/1999/xlink" x="0px" y="0px"
	 viewBox="0 0 1366 768" style="enable-background:new 0 0 1366 768;" xml:space="preserve">
<style type="text/css">
	.st0{fill:none;stroke:#000000;stroke-miterlimit:10;}
	.st1{fill:none;stroke:#FF0000;stroke-miterlimit:10;}
	.st2{fill:none;stroke:#FF0000;stroke-miterlimit:10;stroke-dasharray:5.906,5.906;}
</style>
<path class="st0" d="M327.2,480.8V338H683v142.8H327.2z"/>
<path class="st1" d="M753.8,481c0,0-0.9-0.5-2.5-1.6"/>
<path class="st2" d="M746.6,475.8c-9.5-8.2-25.3-26.8-27-60.3"/>
<path class="st1" d="M719.5,412.5c0-1,0-2,0-3"/>
<path class="st1" d="M753.8,338c0,0-0.9,0.5-2.5,1.6"/>
<path class="st2" d="M746.6,343.2c-9.5,8.2-25.3,26.8-27,60.3"/>
<path class="st1" d="M719.5,406.5c0,1,0,2,0,3"/>
<path class="st1" d="M827.4,481c0,0-0.9-0.5-2.5-1.6"/>
<path class="st2" d="M820.3,475.8c-9.5-8.2-25.3-26.8-27-60.3"/>
<path class="st1" d="M793.1,412.5c0-1,0-2,0-3"/>
<path class="st1" d="M827.4,338c0,0-0.9,0.5-2.5,1.6"/>
<path class="st2" d="M820.3,343.2c-9.5,8.2-25.3,26.8-27,60.3"/>
<path class="st1" d="M793.1,406.5c0,1,0,2,0,3"/>
<path class="st1" d="M963.1,481c0,0,0.9-0.5,2.5-1.6"/>
<path class="st2" d="M970.3,475.8c9.5-8.2,25.3-26.8,27-60.3"/>
<path class="st1" d="M997.4,412.5c0-1,0-2,0-3"/>
<path class="st1" d="M963.1,338c0,0,0.9,0.5,2.5,1.6"/>
<path class="st2" d="M970.3,343.2c9.5,8.2,25.3,26.8,27,60.3"/>
<path class="st1" d="M997.4,406.5c0,1,0,2,0,3"/>
<path class="st1" d="M889.5,481c0,0,0.9-0.5,2.5-1.6"/>
<path class="st2" d="M896.6,475.8c9.5-8.2,25.3-26.8,27-60.3"/>
<path class="st1" d="M923.8,412.5c0-1,0-2,0-3"/>
<path class="st1" d="M889.5,338c0,0,0.9,0.5,2.5,1.6"/>
<path class="st2" d="M896.6,343.2c9.5,8.2,25.3,26.8,27,60.3"/>
<path class="st1" d="M923.8,406.5c0,1,0,2,0,3"/>
<path class="st1" d="M385.8,338c0,0-34.3,18.6-34.3,71.5s34.3,71.5,34.3,71.5"/>
<path class="st1" d="M734.9,481c0,0-34.3-18.6-34.3-71.5"/>
<path class="st1" d="M734.9,338c0,0-34.3,18.6-34.3,71.5"/>
<path class="st1" d="M846.4,481c0,0-34.3-18.6-34.3-71.5"/>
<path class="st1" d="M846.4,338c0,0-34.3,18.6-34.3,71.5"/>
<path class="st1" d="M789.4,481c0,0-34.3-18.6-34.3-71.5"/>
<path class="st1" d="M789.4,338c0,0-34.3,18.6-34.3,71.5"/>
<path class="st1" d="M982,481c0,0,34.3-18.6,34.3-71.5"/>
<path class="st1" d="M982,338c0,0,34.3,18.6,34.3,71.5"/>
<path class="st1" d="M870.5,481c0,0,34.3-18.6,34.3-71.5"/>
<path class="st1" d="M870.5,338c0,0,34.3,18.6,34.3,71.5"/>
<path class="st1" d="M927.5,481c0,0,34.3-18.6,34.3-71.5"/>
<path class="st1" d="M927.5,338c0,0,34.3,18.6,34.3,71.5"/>
<path class="st1" d="M404.4,338c0,0-34.3,18.6-34.3,71.5s34.3,71.5,34.3,71.5"/>
</svg>
