<?xml version="1.0" encoding="utf-8"?>
<!-- Generator: Adobe Illustrator 22.0.0, SVG Export Plug-In . SVG Version: 6.00 Build 0)  -->
<svg version="1.1" id="Layer_1" xmlns="http://www.w3.org/2000/svg" xmlns:xlink="http://www.w3.org/1999/xlink" x="0px" y="0px"
	 viewBox="0 0 1366 768" style="enable-background:new 0 0 1366 768;" xml:space="preserve">
<style type="text/css">
	.st0{fill:none;stroke:#FF0000;stroke-miterlimit:10;}
	.st1{fill:none;stroke:#000000;stroke-miterlimit:10;}
</style>
<path class="st0" d="M385.8,338c0,0-34.3,18.6-34.3,71.5s34.3,71.5,34.3,71.5"/>
<path class="st0" d="M404.4,338c0,0-34.3,18.6-34.3,71.5s34.3,71.5,34.3,71.5"/>
<path class="st0" d="M440.4,338c0,0-34.3,18.6-34.3,71.5s34.3,71.5,34.3,71.5"/>
<path class="st0" d="M444.1,565.5c0-1,0-2,0-3"/>
<path class="st0" d="M478.4,491c0,0-0.9,0.5-2.5,1.6l-4.7,3.6c-9.5,8.2-25.3,26.8-27,60.3v12c1.7,33.5,17.5,52.1,27,60.3l4.7,3.6
	c1.6,1.1,2.5,1.6,2.5,1.6"/>
<path class="st0" d="M444.1,559.5c0,1,0,2,0,3"/>
<path class="st0" d="M648.4,565.5c0-1,0-2,0-3"/>
<path class="st0" d="M614.1,491c0,0,0.9,0.5,2.5,1.6l4.6,3.6c9.5,8.2,25.3,26.8,27,60.3v12c-1.7,33.5-17.5,52.1-27,60.3l-4.6,3.6
	c-1.6,1.1-2.5,1.6-2.5,1.6"/>
<path class="st0" d="M648.4,559.5c0,1,0,2,0,3"/>
<path class="st0" d="M574.7,565.5c0-1,0-2,0-3"/>
<path class="st0" d="M540.4,491c0,0,0.9,0.5,2.5,1.6l4.7,3.6c9.5,8.2,25.3,26.8,27,60.3v12c-1.7,33.5-17.5,52.1-27,60.3l-4.7,3.6
	c-1.6,1.1-2.5,1.6-2.5,1.6"/>
<path class="st0" d="M574.7,559.5c0,1,0,2,0,3"/>
<path class="st0" d="M497.3,634c0,0-34.3-18.6-34.3-71.5"/>
<path class="st0" d="M497.3,491c0,0-34.3,18.6-34.3,71.5"/>
<path class="st0" d="M440.4,491c0,0-34.3,18.6-34.3,71.5s34.3,71.5,34.3,71.5"/>
<path class="st0" d="M633,491c0,0,34.3,18.6,34.3,71.5S633,634,633,634"/>
<path class="st0" d="M521.5,491c0,0,34.3,18.6,34.3,71.5S521.5,634,521.5,634"/>
<path class="st0" d="M578.5,491c0,0,34.3,18.6,34.3,71.5S578.5,634,578.5,634"/>
<path class="st0" d="M477.8,338c0,0-34.3,18.6-34.3,71.5s34.3,71.5,34.3,71.5"/>
<path class="st0" d="M497.8,338c0,0-34.3,18.6-34.3,71.5s34.3,71.5,34.3,71.5"/>
<path class="st1" d="M328.3,480.8V338H689v142.8H328.3z"/>
<path class="st0" d="M543.9,337.8c0,0-34.3,18.6-34.3,71.5s34.3,71.5,34.3,71.5"/>
<path class="st0" d="M562.5,337.8c0,0-34.3,18.6-34.3,71.5s34.3,71.5,34.3,71.5"/>
<path class="st0" d="M598.5,337.8c0,0-34.3,18.6-34.3,71.5s34.3,71.5,34.3,71.5"/>
<path class="st0" d="M635.9,337.8c0,0-34.3,18.6-34.3,71.5s34.3,71.5,34.3,71.5"/>
<path class="st0" d="M655.9,337.8c0,0-34.3,18.6-34.3,71.5s34.3,71.5,34.3,71.5"/>
<path class="st0" d="M869.6,337.8c0,0,34.3,18.6,34.3,71.5s-34.3,71.5-34.3,71.5"/>
<path class="st0" d="M888.6,338.2c0,0,34.3,18.6,34.3,71.5s-34.3,71.5-34.3,71.5"/>
<path class="st0" d="M926.6,338.2c0,0,34.3,18.6,34.3,71.5s-34.3,71.5-34.3,71.5"/>
<path class="st0" d="M962.6,337.8c0,0,34.3,18.6,34.3,71.5s-34.3,71.5-34.3,71.5"/>
<path class="st0" d="M980.6,337.8c0,0,34.3,18.6,34.3,71.5s-34.3,71.5-34.3,71.5"/>
</svg>
