<?xml version="1.0" encoding="utf-8"?>
<!-- Generator: Adobe Illustrator 22.0.0, SVG Export Plug-In . SVG Version: 6.00 Build 0)  -->
<svg version="1.1" id="Layer_1" xmlns="http://www.w3.org/2000/svg" xmlns:xlink="http://www.w3.org/1999/xlink" x="0px" y="0px"
	 viewBox="0 0 900 900" style="enable-background:new 0 0 900 900;" xml:space="preserve">
<style type="text/css">
	.st0{fill:none;stroke:#FF0000;stroke-miterlimit:10;}
	.st1{fill:none;stroke:#000000;stroke-miterlimit:10;}
</style>
<path class="st0" d="M152.8,379c0,0-34.3,18.6-34.3,71.5s34.3,71.5,34.3,71.5"/>
<path class="st0" d="M171.4,379c0,0-34.3,18.6-34.3,71.5s34.3,71.5,34.3,71.5"/>
<path class="st0" d="M207.4,379c0,0-34.3,18.6-34.3,71.5s34.3,71.5,34.3,71.5"/>
<path class="st0" d="M244.8,379c0,0-34.3,18.6-34.3,71.5s34.3,71.5,34.3,71.5"/>
<path class="st0" d="M264.8,379c0,0-34.3,18.6-34.3,71.5s34.3,71.5,34.3,71.5"/>
<path class="st0" d="M288.5,379c0,0,34.3,18.6,34.3,71.5S288.5,522,288.5,522"/>
<path class="st0" d="M307.5,379.3c0,0,34.3,18.6,34.3,71.5s-34.3,71.5-34.3,71.5"/>
<path class="st0" d="M345.5,379.3c0,0,34.3,18.6,34.3,71.5s-34.3,71.5-34.3,71.5"/>
<path class="st0" d="M381.5,379c0,0,34.3,18.6,34.3,71.5S381.5,522,381.5,522"/>
<path class="st0" d="M399.5,379c0,0,34.3,18.6,34.3,71.5S399.5,522,399.5,522"/>
<path class="st1" d="M95.3,521.8V379H457v142.8H95.3z"/>
<path class="st0" d="M500.9,378.8c0,0-34.3,18.6-34.3,71.5s34.3,71.5,34.3,71.5"/>
<path class="st0" d="M519.5,378.8c0,0-34.3,18.6-34.3,71.5s34.3,71.5,34.3,71.5"/>
<path class="st0" d="M555.5,378.8c0,0-34.3,18.6-34.3,71.5s34.3,71.5,34.3,71.5"/>
<path class="st0" d="M592.9,378.8c0,0-34.3,18.6-34.3,71.5s34.3,71.5,34.3,71.5"/>
<path class="st0" d="M612.9,378.8c0,0-34.3,18.6-34.3,71.5s34.3,71.5,34.3,71.5"/>
<path class="st0" d="M636.6,378.8c0,0,34.3,18.6,34.3,71.5s-34.3,71.5-34.3,71.5"/>
<path class="st0" d="M655.6,379.2c0,0,34.3,18.6,34.3,71.5s-34.3,71.5-34.3,71.5"/>
<path class="st0" d="M693.6,379.2c0,0,34.3,18.6,34.3,71.5s-34.3,71.5-34.3,71.5"/>
<path class="st0" d="M729.6,378.8c0,0,34.3,18.6,34.3,71.5s-34.3,71.5-34.3,71.5"/>
<path class="st0" d="M747.6,378.8c0,0,34.3,18.6,34.3,71.5s-34.3,71.5-34.3,71.5"/>
</svg>
