<?xml version="1.0" encoding="utf-8"?>
<!-- Generator: Adobe Illustrator 22.0.0, SVG Export Plug-In . SVG Version: 6.00 Build 0)  -->
<svg version="1.1" id="Layer_1" xmlns="http://www.w3.org/2000/svg" xmlns:xlink="http://www.w3.org/1999/xlink" x="0px" y="0px"
	 viewBox="0 0 400 300" style="enable-background:new 0 0 400 300;" xml:space="preserve">
<style type="text/css">
	.st0{fill:none;stroke:#FF0000;stroke-miterlimit:10;}
	.st1{fill:none;stroke:#F20F2B;stroke-miterlimit:10;}
</style>
<path class="st0" d="M0,229c29.8-3.1,64-10.5,99-27c28.3-13.3,33.9-21.6,87-54c46.3-28.3,69.5-42.5,92-49c23.3-6.8,64.3-13.5,122,4"
	/>
<path class="st0" d="M400,221c-29.8-3.1-64-10.5-99-27c-28.3-13.3-33.9-21.6-87-54c-46.3-28.3-69.5-42.5-92-49
	C98.7,84.2,57.7,77.5,0,95"/>
<path class="st1" d="M118,0c6.2,4.2,15.2,10.8,25,20c54.6,51.3,65,119.3,68,141c8.8,63.6-8.7,114.6-19,139"/>
</svg>
