<?xml version="1.0" encoding="utf-8"?>
<!-- Generator: Adobe Illustrator 22.0.0, SVG Export Plug-In . SVG Version: 6.00 Build 0)  -->
<svg version="1.1" id="Layer_1" xmlns="http://www.w3.org/2000/svg" xmlns:xlink="http://www.w3.org/1999/xlink" x="0px" y="0px"
	 viewBox="0 0 3073.6 2989.6" style="enable-background:new 0 0 3073.6 2989.6;" xml:space="preserve">
<style type="text/css">
	.st0{fill:none;stroke:#F90B2D;stroke-miterlimit:10;}
</style>
<g>
	<polyline class="st0" points="3242.8,880.8 3227.6,896.5 3206.7,913.4 3186.1,929.7 3164.4,945.1 3142.3,959.7 3130.5,966.4 
		3119.1,973.1 3108.5,979.2 3097.2,984.2 3085.8,989.9 3074.4,995.3 3062.4,999.9 3049.9,1004.8 3038,1009.7 3026,1013.4 
		3014.4,1017.3 3002.5,1020.7 2989.6,1024.4 2979.1,1027.2 2965.2,1030.1 2950.7,1032.8 2937.3,1034.6 2923.7,1036.2 2906.9,1039 
		2888.1,1040.5 2872,1041.7 2850.8,1041.9 2830.1,1041.1 2812.8,1040.1 2798.7,1039.6 2783.5,1037.4 2770.8,1036.2 2756,1033.7 
		2735.2,1029.6 2714.2,1024.3 2710.6,1023.7 2706.5,1023 2698.9,1021.7 2677.9,1016.4 2657,1012.3 2642.3,1009.8 2629.5,1008.5 
		2614.3,1006.3 2600.2,1005.8 2582.9,1004.9 2562.2,1004.1 2541,1004.3 2524.9,1005.4 2506.2,1007 2489.3,1009.8 2475.7,1011.3 
		2462.4,1013.2 2447.8,1015.9 2433.8,1018.8 2423.4,1021.5 2410.5,1025.3 2398.6,1028.7 2387,1032.5 2375,1036.3 2363.1,1041.1 
		2350.6,1046.1 2338.6,1050.7 2327.3,1056.1 2315.8,1061.8 2304.6,1066.8 2294,1073 2282.5,1079.6 2270.8,1086.3 2248.6,1100.9 
		2226.9,1116.3 2206.3,1132.6 2185.5,1149.5 2170.3,1165.2 2163.1,1173.3 2163.7,1172.9 2148.5,1188.6 2127.6,1205.6 2107,1221.9 
		2085.3,1237.3 2063.1,1251.8 2051.4,1258.6 2039.9,1265.2 2029.4,1271.4 2018.1,1276.4 2006.7,1282.1 1995.3,1287.5 1983.3,1292.1 
		1970.8,1297 1958.8,1301.9 1946.9,1305.6 1935.3,1309.4 1923.4,1312.9 1910.5,1316.6 1900,1319.4 1886.1,1322.3 1871.5,1324.9 
		1858.2,1326.8 1844.6,1328.3 1827.7,1331.2 1809,1332.7 1792.9,1333.9 1771.7,1334 1751,1333.3 1733.7,1332.3 1719.5,1331.8 
		1704.4,1329.6 1691.6,1328.3 1676.9,1325.8 1656,1321.8 1635.1,1316.5 1631.5,1315.9 1627.4,1315.2 1619.7,1313.8 1598.8,1308.6 
		1577.9,1304.5 1563.2,1302 1550.4,1300.7 1535.2,1298.5 1521,1298 1503.8,1297 1483.1,1296.3 1461.9,1296.5 1445.8,1297.6 
		1427.1,1299.1 1410.2,1302 1396.6,1303.5 1383.3,1305.4 1368.7,1308.1 1354.7,1310.9 1344.3,1313.7 1331.4,1317.5 1319.5,1320.9 
		1307.8,1324.7 1295.8,1328.5 1283.9,1333.3 1271.5,1338.3 1259.4,1342.9 1248.1,1348.3 1236.6,1354 1225.5,1359 1214.8,1365.2 
		1203.4,1371.7 1191.7,1378.5 1169.5,1393 1147.8,1408.5 1127.2,1424.7 1106.3,1441.7 1091.1,1457.4 1083.9,1465.5 1083.9,1464.8 
		1068.7,1480.5 1047.8,1497.5 1027.2,1513.8 1005.5,1529.2 983.3,1543.7 971.6,1550.5 960.1,1557.1 949.6,1563.3 938.3,1568.3 
		926.9,1574 915.5,1579.4 903.5,1584 891,1588.9 879,1593.8 867.1,1597.5 855.5,1601.3 843.6,1604.8 830.7,1608.5 820.2,1611.3 
		806.3,1614.2 791.7,1616.8 778.4,1618.7 764.8,1620.2 747.9,1623.1 729.2,1624.6 713.1,1625.8 691.9,1625.9 671.2,1625.2 
		653.9,1624.2 639.7,1623.7 624.6,1621.5 611.8,1620.2 597.1,1617.7 576.2,1613.7 555.3,1608.4 551.7,1607.8 547.6,1607.1 
		539.9,1605.7 519,1600.5 498.1,1596.4 483.4,1593.9 470.6,1592.6 455.4,1590.4 441.2,1589.9 424,1588.9 403.3,1588.2 382.1,1588.4 
		366,1589.5 347.3,1591 330.4,1593.9 316.8,1595.4 303.5,1597.3 288.9,1600 274.9,1602.8 264.5,1605.6 251.6,1609.4 239.7,1612.8 
		228,1616.6 216,1620.4 204.1,1625.2 191.7,1630.2 179.6,1634.8 168.3,1640.2 156.8,1645.9 145.7,1650.9 135,1657.1 123.6,1663.6 
		111.9,1670.4 89.7,1684.9 68,1700.4 47.4,1716.6 26.5,1733.6 11.3,1749.3 4.1,1757.4 	"/>
</g>
<g>
	<polyline class="st0" points="2593,-452.7 2614.2,-447.4 2639.3,-437.8 2663.7,-428.1 2687.9,-417 2711.6,-405.1 2723.3,-398.3 
		2734.8,-391.7 2745.4,-385.6 2755.4,-378.4 2766,-371.3 2776.4,-364.2 2786.4,-356.1 2796.9,-347.7 2807.1,-339.8 2816.3,-331.3 
		2825.4,-323.2 2834.3,-314.6 2844,-305.3 2851.7,-297.6 2861.1,-287 2870.7,-275.7 2879,-265.1 2887.1,-254.1 2898,-240.9 
		2908.7,-225.4 2917.8,-212.1 2928.5,-193.8 2938.2,-175.5 2946,-160 2952.6,-147.5 2958.3,-133.3 2963.6,-121.6 2968.8,-107.6 
		2975.7,-87.5 2981.6,-66.7 2982.9,-63.3 2984.3,-59.4 2987,-52.1 2992.9,-31.3 2999.8,-11.2 3005,2.8 3010.3,14.5 3016,28.8 
		3022.6,41.3 3030.4,56.7 3040.1,75 3050.9,93.3 3059.9,106.7 3070.6,122.1 3081.5,135.3 3089.6,146.3 3097.9,156.9 3107.5,168.2 
		3117,178.9 3124.6,186.5 3134.3,195.8 3143.2,204.4 3152.3,212.6 3161.6,221.1 3171.7,229 3182.3,237.3 3192.3,245.4 3202.6,252.5 
		3213.3,259.6 3223.2,266.8 3233.9,272.9 3245.3,279.5 3257,286.3 3280.7,298.2 3304.9,309.3 3329.3,319 3354.4,328.6 3375.6,333.9 
		3386.2,336.1 	"/>
</g>
<g>
	<polyline class="st0" points="-112.6,271.9 -118.6,250.9 -122.8,224.3 -126.6,198.4 -129.1,171.8 -130.6,145.4 -130.6,131.8 
		-130.6,118.6 -130.7,106.4 -129.4,94.1 -128.6,81.4 -127.6,68.8 -125.6,56.1 -123.6,42.8 -121.8,30 -119.1,17.8 -116.6,5.9 
		-113.6,-6.1 -110.4,-19.2 -107.6,-29.7 -103.1,-43.1 -98.1,-57.1 -93.1,-69.6 -87.6,-82.1 -81.6,-98.2 -73.6,-115.2 -66.6,-129.7 
		-56.1,-148.1 -45.1,-165.7 -35.6,-180.2 -28.1,-192.1 -18.6,-204.2 -11.1,-214.6 -1.6,-226.1 12.4,-242.1 27.4,-257.7 29.7,-260.5 
		32.4,-263.6 37.4,-269.6 52.4,-285.1 66.4,-301.2 75.9,-312.7 83.4,-323.1 92.9,-335.2 100.5,-347.2 109.9,-361.6 120.9,-379.2 
		131.3,-397.7 138.4,-412.2 146.4,-429.1 152.4,-445.2 157.9,-457.7 162.9,-470.2 167.9,-484.1 172.4,-497.7 175.2,-508.1 
		178.4,-521.1 181.4,-533.2 184,-545.1 186.7,-557.4 188.5,-570.1 190.3,-583.5 192.4,-596.2 193.4,-608.6 194.2,-621.5 
		195.4,-633.6 195.4,-646 195.4,-659.1 195.4,-672.7 193.9,-699.1 191.4,-725.6 187.6,-751.6 183.4,-778.2 177.3,-799.2 174,-809.4 
			"/>
</g>
<g>
	<polyline class="st0" points="577.6,-404.9 562.4,-389.2 541.5,-372.2 520.9,-355.9 499.2,-340.5 477,-326 465.3,-319.2 
		453.8,-312.6 443.3,-306.4 432,-301.4 420.6,-295.7 409.2,-290.3 397.2,-285.7 384.7,-280.8 372.7,-275.9 360.8,-272.2 
		349.2,-268.4 337.3,-264.9 324.4,-261.2 313.9,-258.4 300,-255.5 285.4,-252.9 272.1,-251 258.5,-249.5 241.6,-246.6 222.9,-245.1 
		206.8,-243.9 185.6,-243.8 164.9,-244.5 147.6,-245.5 133.4,-246 118.3,-248.2 105.5,-249.5 90.8,-252 69.9,-256 49,-261.3 
		45.4,-261.9 41.3,-262.6 33.6,-264 12.7,-269.2 -8.2,-273.3 -22.9,-275.8 -35.7,-277.1 -50.9,-279.3 -65.1,-279.8 -82.3,-280.8 
		-103,-281.5 -124.2,-281.3 -140.3,-280.2 -159,-278.7 -175.9,-275.8 -189.5,-274.3 -202.8,-272.4 -217.4,-269.7 -231.4,-266.9 
		-241.8,-264.1 -254.7,-260.3 -266.6,-256.9 -278.3,-253.1 -290.3,-249.3 -302.2,-244.5 -314.6,-239.5 -326.7,-234.9 -338,-229.5 
		-349.5,-223.8 -360.6,-218.8 -371.3,-212.6 -382.7,-206.1 -394.4,-199.3 -416.6,-184.8 -438.3,-169.3 -458.9,-153.1 -479.8,-136.1 
		-495,-120.4 -502.2,-112.3 	"/>
</g>
<g>
	<polyline class="st0" points="107.9,3222.9 101.9,3201.9 97.7,3175.3 93.9,3149.4 91.4,3122.8 89.9,3096.4 89.9,3082.8 
		89.9,3069.6 89.8,3057.4 91.1,3045.1 91.9,3032.4 92.9,3019.8 94.9,3007.1 96.9,2993.8 98.7,2981 101.4,2968.8 103.9,2956.9 
		106.9,2944.9 110.1,2931.8 112.9,2921.3 117.4,2907.9 122.4,2893.9 127.4,2881.4 132.9,2868.9 138.9,2852.8 146.9,2835.8 
		153.9,2821.3 164.4,2802.9 175.4,2785.3 184.9,2770.8 192.4,2758.9 201.9,2746.8 209.4,2736.4 218.9,2724.9 232.9,2708.9 
		247.9,2693.3 250.2,2690.5 252.9,2687.4 257.9,2681.4 272.9,2665.9 286.9,2649.8 296.4,2638.3 303.9,2627.9 313.4,2615.8 
		321,2603.8 330.4,2589.4 341.4,2571.8 351.8,2553.3 358.9,2538.8 366.9,2521.9 372.9,2505.8 378.4,2493.3 383.4,2480.8 
		388.4,2466.9 392.9,2453.3 395.7,2442.9 398.9,2429.9 401.9,2417.8 404.5,2405.9 407.2,2393.6 409,2380.9 410.8,2367.5 
		412.9,2354.8 413.9,2342.4 414.7,2329.5 415.9,2317.4 415.9,2305 415.9,2291.9 415.9,2278.3 414.4,2251.9 411.9,2225.4 
		408.1,2199.4 403.9,2172.8 397.8,2151.8 394.5,2141.6 393.7,2141.6 387.7,2120.6 383.5,2094 379.7,2068.1 377.2,2041.5 
		375.7,2015.1 375.7,2001.5 375.7,1988.3 375.6,1976.1 376.9,1963.8 377.7,1951.1 378.7,1938.5 380.7,1925.8 382.7,1912.5 
		384.5,1899.7 387.2,1887.5 389.7,1875.6 392.7,1863.6 395.9,1850.5 398.7,1840 403.2,1826.6 408.2,1812.6 413.2,1800.1 
		418.7,1787.6 424.7,1771.5 432.7,1754.5 439.7,1740 450.2,1721.6 461.2,1704 470.7,1689.5 478.2,1677.6 487.7,1665.5 495.2,1655.1 
		504.7,1643.6 518.7,1627.6 533.7,1612 536,1609.2 538.7,1606.1 543.7,1600.1 558.7,1584.6 572.7,1568.5 582.2,1557 589.7,1546.6 
		599.2,1534.5 606.8,1522.5 616.2,1508.1 627.2,1490.5 637.6,1472 644.7,1457.5 652.7,1440.6 658.7,1424.5 664.2,1412 669.2,1399.5 
		674.2,1385.6 678.7,1372 681.5,1361.6 684.7,1348.6 687.7,1336.5 690.3,1324.6 693,1312.3 694.8,1299.6 696.6,1286.2 698.7,1273.5 
		699.7,1261.1 700.5,1248.2 701.7,1236.1 701.7,1223.7 701.7,1210.6 701.7,1197 700.2,1170.6 697.7,1144.1 693.9,1118.1 
		689.7,1091.5 683.6,1070.5 680.3,1060.3 679.8,1060.3 673.8,1039.3 669.6,1012.7 665.8,986.8 663.3,960.2 661.8,933.8 661.8,920.2 
		661.8,907 661.7,894.8 663,882.5 663.8,869.8 664.8,857.2 666.8,844.5 668.8,831.2 670.6,818.4 673.3,806.2 675.8,794.3 
		678.8,782.3 682,769.2 684.8,758.7 689.3,745.3 694.3,731.3 699.3,718.8 704.8,706.3 710.8,690.2 718.8,673.2 725.8,658.7 
		736.3,640.3 747.3,622.7 756.8,608.2 764.3,596.3 773.8,584.2 781.3,573.8 790.8,562.3 804.8,546.3 819.8,530.7 822.1,527.9 
		824.8,524.8 829.8,518.8 844.8,503.3 858.8,487.2 868.3,475.7 875.8,465.3 885.3,453.2 892.9,441.2 902.3,426.8 913.3,409.2 
		923.7,390.7 930.8,376.2 938.8,359.3 944.8,343.2 950.3,330.7 955.3,318.2 960.3,304.3 964.8,290.7 967.6,280.3 970.8,267.3 
		973.8,255.2 976.4,243.3 979.1,231 980.9,218.3 982.7,204.9 984.8,192.2 985.8,179.8 986.6,166.9 987.8,154.8 987.8,142.4 
		987.8,129.3 987.8,115.7 986.3,89.3 983.8,62.8 980,36.8 975.8,10.2 969.7,-10.8 966.4,-21 	"/>
</g>
<g>
	<polyline class="st0" points="-358.9,-657 -337.7,-651.7 -312.6,-642.1 -288.2,-632.4 -264,-621.3 -240.3,-609.4 -228.6,-602.6 
		-217.1,-596 -206.5,-589.9 -196.5,-582.7 -185.9,-575.6 -175.5,-568.5 -165.5,-560.4 -155,-552 -144.8,-544.1 -135.6,-535.6 
		-126.5,-527.5 -117.6,-518.9 -107.9,-509.6 -100.2,-501.9 -90.8,-491.3 -81.2,-480 -72.9,-469.4 -64.8,-458.4 -53.9,-445.2 
		-43.2,-429.7 -34.1,-416.4 -23.4,-398.1 -13.7,-379.8 -5.9,-364.3 0.7,-351.8 6.4,-337.6 11.7,-325.9 16.9,-311.9 23.8,-291.8 
		29.7,-271 31,-267.6 32.4,-263.7 35.1,-256.4 41,-235.6 47.9,-215.5 53.1,-201.5 58.4,-189.8 64.1,-175.5 70.7,-163 78.5,-147.6 
		88.2,-129.3 99,-111 108,-97.6 118.7,-82.2 129.6,-69 137.7,-58 146,-47.4 155.6,-36.1 165.1,-25.4 172.7,-17.8 182.4,-8.5 
		191.3,0.1 200.4,8.3 209.7,16.8 219.8,24.7 230.4,33 240.4,41.1 250.7,48.2 261.4,55.3 271.3,62.5 282,68.6 293.4,75.2 305.1,82 
		328.8,93.9 353,105 377.4,114.7 402.5,124.3 423.7,129.6 434.3,131.8 433.5,131.4 454.7,136.7 479.8,146.3 504.2,156 528.4,167.1 
		552.1,179 563.8,185.8 575.3,192.4 585.9,198.5 595.9,205.7 606.5,212.8 616.9,219.9 626.9,228 637.4,236.4 647.6,244.3 
		656.8,252.8 665.9,260.9 674.8,269.5 684.5,278.8 692.2,286.5 701.6,297.1 711.2,308.4 719.5,319 727.6,330 738.5,343.2 
		749.2,358.7 758.3,372 769,390.3 778.7,408.6 786.5,424.1 793.1,436.6 798.8,450.8 804.1,462.5 809.3,476.5 816.2,496.6 
		822.1,517.4 823.4,520.8 824.8,524.7 827.5,532 833.4,552.8 840.3,572.9 845.5,586.9 850.8,598.6 856.5,612.9 863.1,625.4 
		870.9,640.8 880.6,659.1 891.4,677.4 900.4,690.8 911.1,706.2 922,719.4 930.1,730.4 938.4,741 948,752.3 957.5,763 965.1,770.6 
		974.8,779.9 983.7,788.5 992.8,796.7 1002.1,805.2 1012.2,813.1 1022.8,821.4 1032.8,829.5 1043.1,836.6 1053.8,843.7 
		1063.7,850.9 1074.4,857 1085.8,863.6 1097.5,870.4 1121.2,882.3 1145.4,893.4 1169.8,903.1 1194.9,912.7 1216.1,918 1226.7,920.2 
		1227.2,920.8 1248.4,926.1 1273.5,935.7 1297.9,945.4 1322.1,956.5 1345.8,968.4 1357.5,975.2 1369,981.8 1379.6,987.9 
		1389.6,995.1 1400.2,1002.2 1410.6,1009.3 1420.6,1017.4 1431.1,1025.8 1441.3,1033.7 1450.5,1042.2 1459.6,1050.3 1468.5,1058.9 
		1478.2,1068.2 1485.9,1075.9 1495.3,1086.5 1504.9,1097.8 1513.2,1108.4 1521.3,1119.4 1532.2,1132.6 1542.9,1148.1 1552,1161.4 
		1562.7,1179.7 1572.4,1198 1580.2,1213.5 1586.8,1226 1592.5,1240.2 1597.8,1251.9 1603,1265.9 1609.9,1286 1615.8,1306.8 
		1617.1,1310.2 1618.5,1314.1 1621.2,1321.4 1627.1,1342.2 1634,1362.3 1639.2,1376.3 1644.5,1388 1650.2,1402.3 1656.8,1414.8 
		1664.6,1430.2 1674.3,1448.5 1685.1,1466.8 1694.1,1480.2 1704.8,1495.6 1715.7,1508.8 1723.8,1519.8 1732.1,1530.4 1741.7,1541.7 
		1751.2,1552.4 1758.8,1560 1768.5,1569.3 1777.4,1577.9 1786.5,1586.1 1795.8,1594.6 1805.9,1602.5 1816.5,1610.8 1826.5,1618.9 
		1836.8,1626 1847.5,1633.1 1857.4,1640.3 1868.1,1646.4 1879.5,1653 1891.2,1659.8 1914.9,1671.7 1939.1,1682.8 1963.5,1692.5 
		1988.6,1702.1 2009.8,1707.4 2020.4,1709.6 2020.2,1709.9 2041.4,1715.2 2066.5,1724.8 2090.9,1734.5 2115.1,1745.6 2138.8,1757.5 
		2150.5,1764.3 2162,1770.9 2172.6,1777 2182.6,1784.2 2193.2,1791.3 2203.6,1798.4 2213.6,1806.5 2224.1,1814.9 2234.3,1822.8 
		2243.5,1831.3 2252.6,1839.4 2261.5,1848 2271.2,1857.3 2278.9,1865 2288.3,1875.6 2297.9,1886.9 2306.2,1897.5 2314.3,1908.5 
		2325.2,1921.7 2335.9,1937.2 2345,1950.5 2355.7,1968.8 2365.4,1987.1 2373.2,2002.6 2379.8,2015.1 2385.5,2029.3 2390.8,2041 
		2396,2055 2402.9,2075.1 2408.8,2095.9 2410.1,2099.3 2411.5,2103.2 2414.2,2110.5 2420.1,2131.3 2427,2151.4 2432.2,2165.4 
		2437.5,2177.1 2443.2,2191.4 2449.8,2203.9 2457.6,2219.3 2467.3,2237.6 2478.1,2255.9 2487.1,2269.3 2497.8,2284.7 2508.7,2297.9 
		2516.8,2308.9 2525.1,2319.5 2534.7,2330.8 2544.2,2341.5 2551.8,2349.1 2561.5,2358.4 2570.4,2367 2579.5,2375.2 2588.8,2383.7 
		2598.9,2391.6 2609.5,2399.9 2619.5,2408 2629.8,2415.1 2640.5,2422.2 2650.4,2429.4 2661.1,2435.5 2672.5,2442.1 2684.2,2448.9 
		2707.9,2460.8 2732.1,2471.9 2756.5,2481.6 2781.6,2491.2 2802.8,2496.5 2813.4,2498.7 2811.1,2498.7 2832.3,2504 2857.4,2513.6 
		2881.8,2523.3 2906,2534.4 2929.7,2546.3 2941.4,2553.1 2952.9,2559.7 2963.5,2565.8 2973.5,2573 2984.1,2580.1 2994.5,2587.2 
		3004.5,2595.3 3015,2603.7 3025.2,2611.6 3034.4,2620.1 3043.5,2628.2 3052.4,2636.8 3062.1,2646.1 3069.8,2653.8 3079.2,2664.4 
		3088.8,2675.7 3097.1,2686.3 3105.2,2697.3 3116.1,2710.5 3126.8,2726 3135.9,2739.3 3146.6,2757.6 3156.3,2775.9 3164.1,2791.4 
		3170.7,2803.9 3176.4,2818.1 3181.7,2829.8 3186.9,2843.8 3193.8,2863.9 3199.7,2884.7 3201,2888.1 3202.4,2892 3205.1,2899.3 
		3211,2920.1 3217.9,2940.2 3223.1,2954.2 3228.4,2965.9 3234.1,2980.2 3240.7,2992.7 3248.5,3008.1 3258.2,3026.4 3269,3044.7 
		3278,3058.1 3288.7,3073.5 3299.6,3086.7 3307.7,3097.7 3316,3108.3 3325.6,3119.6 3335.1,3130.3 3342.7,3137.9 3352.4,3147.2 
		3361.3,3155.8 3370.4,3164 3379.7,3172.5 3389.8,3180.4 3400.4,3188.7 3410.4,3196.8 3420.7,3203.9 3431.4,3211 3441.3,3218.2 
		3452,3224.3 3463.4,3230.9 3475.1,3237.7 3498.8,3249.6 3523,3260.7 3547.4,3270.4 3572.5,3280 3593.7,3285.3 3604.3,3287.5 	"/>
</g>
<g>
	<polyline class="st0" points="3057.4,3427.6 3051.4,3406.6 3047.2,3380 3043.4,3354.1 3040.9,3327.5 3039.4,3301.1 3039.4,3287.5 
		3039.4,3274.3 3039.3,3262.1 3040.6,3249.8 3041.4,3237.1 3042.4,3224.5 3044.4,3211.8 3046.4,3198.5 3048.2,3185.7 3050.9,3173.5 
		3053.4,3161.6 3056.4,3149.6 3059.6,3136.5 3062.4,3126 3066.9,3112.6 3071.9,3098.6 3076.9,3086.1 3082.4,3073.6 3088.4,3057.5 
		3096.4,3040.5 3103.4,3026 3113.9,3007.6 3124.9,2990 3134.4,2975.5 3141.9,2963.6 3151.4,2951.5 3158.9,2941.1 3168.4,2929.6 
		3182.4,2913.6 3197.4,2898 3199.7,2895.2 3202.4,2892.1 3207.4,2886.1 3222.4,2870.6 3236.4,2854.5 3245.9,2843 3253.4,2832.6 
		3262.9,2820.5 3270.5,2808.5 3279.9,2794.1 3290.9,2776.5 3301.3,2758 3308.4,2743.5 3316.4,2726.6 3322.4,2710.5 3327.9,2698 
		3332.9,2685.5 3337.9,2671.6 3342.4,2658 3345.2,2647.6 3348.4,2634.6 3351.4,2622.5 3354,2610.6 3356.7,2598.3 3358.5,2585.6 
		3360.3,2572.2 3362.4,2559.5 3363.4,2547.1 3364.2,2534.2 3365.4,2522.1 3365.4,2509.7 3365.4,2496.6 3365.4,2483 3363.9,2456.6 
		3361.4,2430.1 3357.6,2404.1 3353.4,2377.5 3347.3,2356.5 3344,2346.3 	"/>
</g>
<g>
	<polyline class="st0" points="1977.6,3720.1 1971.6,3699.1 1967.4,3672.5 1963.6,3646.6 1961.1,3620 1959.6,3593.6 1959.6,3580 
		1959.6,3566.8 1959.5,3554.6 1960.8,3542.3 1961.6,3529.6 1962.6,3517 1964.6,3504.3 1966.6,3491 1968.4,3478.2 1971.1,3466 
		1973.6,3454.1 1976.6,3442.1 1979.8,3429 1982.6,3418.5 1987.1,3405.1 1992.1,3391.1 1997.1,3378.6 2002.6,3366.1 2008.6,3350 
		2016.6,3333 2023.6,3318.5 2034.1,3300.1 2045.1,3282.5 2054.6,3268 2062.1,3256.1 2071.6,3244 2079.1,3233.6 2088.6,3222.1 
		2102.6,3206.1 2117.6,3190.5 2119.9,3187.7 2122.6,3184.6 2127.6,3178.6 2142.6,3163.1 2156.6,3147 2166.1,3135.5 2173.6,3125.1 
		2183.1,3113 2190.7,3101 2200.1,3086.6 2211.1,3069 2221.5,3050.5 2228.6,3036 2236.6,3019.1 2242.6,3003 2248.1,2990.5 
		2253.1,2978 2258.1,2964.1 2262.6,2950.5 2265.4,2940.1 2268.6,2927.1 2271.6,2915 2274.2,2903.1 2276.9,2890.8 2278.7,2878.1 
		2280.5,2864.7 2282.6,2852 2283.6,2839.6 2284.4,2826.7 2285.6,2814.6 2285.6,2802.2 2285.6,2789.1 2285.6,2775.5 2284.1,2749.1 
		2281.6,2722.6 2277.8,2696.6 2273.6,2670 2267.5,2649 2264.2,2638.8 2266.5,2638.8 2260.5,2617.8 2256.3,2591.2 2252.5,2565.3 
		2250,2538.7 2248.5,2512.3 2248.5,2498.7 2248.5,2485.5 2248.4,2473.3 2249.7,2461 2250.5,2448.3 2251.5,2435.7 2253.5,2423 
		2255.5,2409.7 2257.3,2396.9 2260,2384.7 2262.5,2372.8 2265.5,2360.8 2268.7,2347.7 2271.5,2337.2 2276,2323.8 2281,2309.8 
		2286,2297.3 2291.5,2284.8 2297.5,2268.7 2305.5,2251.7 2312.5,2237.2 2323,2218.8 2334,2201.2 2343.5,2186.7 2351,2174.8 
		2360.5,2162.7 2368,2152.3 2377.5,2140.8 2391.5,2124.8 2406.5,2109.2 2408.8,2106.4 2411.5,2103.3 2416.5,2097.3 2431.5,2081.8 
		2445.5,2065.7 2455,2054.2 2462.5,2043.8 2472,2031.7 2479.6,2019.7 2489,2005.3 2500,1987.7 2510.4,1969.2 2517.5,1954.7 
		2525.5,1937.8 2531.5,1921.7 2537,1909.2 2542,1896.7 2547,1882.8 2551.5,1869.2 2554.3,1858.8 2557.5,1845.8 2560.5,1833.7 
		2563.1,1821.8 2565.8,1809.5 2567.6,1796.8 2569.4,1783.4 2571.5,1770.7 2572.5,1758.3 2573.3,1745.4 2574.5,1733.3 2574.5,1720.9 
		2574.5,1707.8 2574.5,1694.2 2573,1667.8 2570.5,1641.3 2566.7,1615.3 2562.5,1588.7 2556.4,1567.7 2553.1,1557.5 2552.7,1557.5 
		2546.7,1536.5 2542.4,1510 2538.6,1484 2536.1,1457.5 2534.6,1431 2534.6,1417.5 2534.6,1404.2 2534.6,1392 2535.8,1379.7 
		2536.7,1367 2537.6,1354.4 2539.6,1341.7 2541.6,1328.4 2543.4,1315.6 2546.2,1303.4 2548.6,1291.5 2551.6,1279.5 2554.8,1266.4 
		2557.6,1255.9 2562.1,1242.5 2567.1,1228.5 2572.1,1216 2577.6,1203.5 2583.6,1187.5 2591.7,1170.5 2598.6,1155.9 2609.1,1137.5 
		2620.1,1120 2629.7,1105.5 2637.2,1093.5 2646.6,1081.4 2654.1,1071 2663.6,1059.5 2677.6,1043.5 2692.7,1028 2694.9,1025.1 
		2697.6,1022 2702.6,1016 2717.7,1000.5 2731.6,984.5 2741.1,973 2748.6,962.5 2758.2,950.4 2765.7,938.5 2775.1,924 2786.1,906.5 
		2796.6,888 2803.7,873.5 2811.7,856.5 2817.6,840.5 2823.1,827.9 2828.1,815.5 2833.1,801.5 2837.6,787.9 2840.4,777.5 
		2843.6,764.5 2846.6,752.5 2849.2,740.5 2851.9,728.2 2853.7,715.5 2855.6,702.2 2857.6,689.4 2858.6,677 2859.4,664.2 2860.7,652 
		2860.6,639.7 2860.6,626.5 2860.7,613 2859.1,586.5 2856.6,560 2852.8,534 2848.6,507.5 2842.6,486.5 2839.2,476.2 2839.3,476.2 
		2833.3,455.2 2829.1,428.6 2825.3,402.7 2822.8,376.1 2821.3,349.7 2821.3,336.1 2821.3,322.9 2821.2,310.7 2822.5,298.4 
		2823.3,285.7 2824.3,273.1 2826.3,260.4 2828.3,247.1 2830.1,234.3 2832.8,222.1 2835.3,210.2 2838.3,198.2 2841.5,185.1 
		2844.3,174.6 2848.8,161.2 2853.8,147.2 2858.8,134.7 2864.3,122.2 2870.3,106.1 2878.3,89.1 2885.3,74.6 2895.8,56.2 2906.8,38.6 
		2916.3,24.1 2923.8,12.2 2933.3,0.1 2940.8,-10.3 2950.3,-21.8 2964.3,-37.8 2979.3,-53.4 2981.6,-56.2 2984.3,-59.3 2989.3,-65.3 
		3004.3,-80.8 3018.3,-96.9 3027.8,-108.4 3035.3,-118.8 3044.8,-130.9 3052.4,-142.9 3061.8,-157.3 3072.8,-174.9 3083.2,-193.4 
		3090.3,-207.9 3098.3,-224.8 3104.3,-240.9 3109.8,-253.4 3114.8,-265.9 3119.8,-279.8 3124.3,-293.4 3127.1,-303.8 3130.3,-316.8 
		3133.3,-328.9 3135.9,-340.8 3138.6,-353.1 3140.4,-365.8 3142.2,-379.2 3144.3,-391.9 3145.3,-404.3 3146.1,-417.2 3147.3,-429.3 
		3147.3,-441.7 3147.3,-454.8 3147.3,-468.4 3145.8,-494.8 3143.3,-521.3 3139.5,-547.3 3135.3,-573.9 3129.2,-594.9 3125.9,-605.1 
			"/>
</g>
<g>
	<polyline class="st0" points="-138.4,2294 -117.2,2299.3 -92.1,2308.9 -67.7,2318.6 -43.5,2329.7 -19.8,2341.6 -8.1,2348.4 
		3.4,2355 14,2361.1 24,2368.3 34.6,2375.4 45,2382.5 55,2390.6 65.5,2399 75.7,2406.9 84.9,2415.4 94,2423.5 102.9,2432.1 
		112.6,2441.4 120.3,2449.1 129.7,2459.7 139.3,2471 147.6,2481.6 155.7,2492.6 166.6,2505.8 177.3,2521.3 186.4,2534.6 
		197.1,2552.9 206.8,2571.2 214.6,2586.7 221.2,2599.2 226.9,2613.4 232.2,2625.1 237.4,2639.1 244.3,2659.2 250.2,2680 
		251.5,2683.4 252.9,2687.3 255.6,2694.6 261.5,2715.4 268.4,2735.5 273.6,2749.5 278.9,2761.2 284.6,2775.5 291.2,2788 299,2803.4 
		308.7,2821.7 319.5,2840 328.5,2853.4 339.2,2868.8 350.1,2882 358.2,2893 366.5,2903.6 376.1,2914.9 385.6,2925.6 393.2,2933.2 
		402.9,2942.5 411.8,2951.1 420.9,2959.3 430.2,2967.8 440.3,2975.7 450.9,2984 460.9,2992.1 471.2,2999.2 481.9,3006.3 
		491.8,3013.5 502.5,3019.6 513.9,3026.2 525.6,3033 549.3,3044.9 573.5,3056 597.9,3065.7 623,3075.3 644.2,3080.6 654.8,3082.8 
		654.5,3081.1 675.7,3086.4 700.8,3096 725.2,3105.7 749.4,3116.8 773.1,3128.7 784.8,3135.5 796.3,3142.1 806.9,3148.2 
		816.9,3155.4 827.5,3162.5 837.9,3169.6 847.9,3177.7 858.4,3186.1 868.6,3194 877.8,3202.5 886.9,3210.6 895.8,3219.2 
		905.5,3228.5 913.2,3236.2 922.6,3246.8 932.2,3258.1 940.5,3268.7 948.6,3279.7 959.5,3292.9 970.2,3308.4 979.3,3321.7 990,3340 
		999.7,3358.3 1007.5,3373.8 1014.1,3386.3 1019.8,3400.5 1025.1,3412.2 1030.3,3426.2 1037.2,3446.3 1043.1,3467.1 1044.4,3470.5 
		1045.8,3474.4 1048.5,3481.7 1054.4,3502.5 1061.3,3522.6 1066.5,3536.6 1071.8,3548.3 1077.5,3562.6 1084.1,3575.1 1091.9,3590.5 
		1101.6,3608.8 1112.4,3627.1 1121.4,3640.5 1132.1,3655.9 1143,3669.1 1151.1,3680.1 1159.4,3690.7 1169,3702 1178.5,3712.7 
		1186.1,3720.3 1195.8,3729.6 1204.7,3738.2 1213.8,3746.4 1223.1,3754.9 1233.2,3762.8 1243.8,3771.1 1253.8,3779.2 1264.1,3786.3 
		1274.8,3793.4 1284.7,3800.6 1295.4,3806.7 1306.8,3813.3 1318.5,3820.1 1342.2,3832 1366.4,3843.1 1390.8,3852.8 1415.9,3862.4 
		1437.1,3867.7 1447.7,3869.9 	"/>
</g>
<g>
	<polyline class="st0" points="900.8,4010 894.8,3989 890.6,3962.4 886.8,3936.5 884.3,3909.9 882.8,3883.5 882.8,3869.9 
		882.8,3856.7 882.7,3844.5 884,3832.2 884.8,3819.5 885.8,3806.9 887.8,3794.2 889.8,3780.9 891.6,3768.1 894.3,3755.9 896.8,3744 
		899.8,3732 903,3718.9 905.8,3708.4 910.3,3695 915.3,3681 920.3,3668.5 925.8,3656 931.8,3639.9 939.8,3622.9 946.8,3608.4 
		957.3,3590 968.3,3572.4 977.8,3557.9 985.3,3546 994.8,3533.9 1002.3,3523.5 1011.8,3512 1025.8,3496 1040.8,3480.4 
		1043.1,3477.6 1045.8,3474.5 1050.8,3468.5 1065.8,3453 1079.8,3436.9 1089.3,3425.4 1096.8,3415 1106.3,3402.9 1113.9,3390.9 
		1123.3,3376.5 1134.3,3358.9 1144.7,3340.4 1151.8,3325.9 1159.8,3309 1165.8,3292.9 1171.3,3280.4 1176.3,3267.9 1181.3,3254 
		1185.8,3240.4 1188.6,3230 1191.8,3217 1194.8,3204.9 1197.4,3193 1200.1,3180.7 1201.9,3168 1203.7,3154.6 1205.8,3141.9 
		1206.8,3129.5 1207.6,3116.6 1208.8,3104.5 1208.8,3092.1 1208.8,3079 1208.8,3065.4 1207.3,3039 1204.8,3012.5 1201,2986.5 
		1196.8,2959.9 1190.7,2938.9 1187.4,2928.7 1187.7,2931 1181.7,2910 1177.5,2883.4 1173.7,2857.5 1171.2,2830.9 1169.7,2804.5 
		1169.7,2790.9 1169.7,2777.7 1169.6,2765.5 1170.9,2753.2 1171.7,2740.5 1172.7,2727.9 1174.7,2715.2 1176.7,2701.9 1178.5,2689.1 
		1181.2,2676.9 1183.7,2665 1186.7,2653 1189.9,2639.9 1192.7,2629.4 1197.2,2616 1202.2,2602 1207.2,2589.5 1212.7,2577 
		1218.7,2560.9 1226.7,2543.9 1233.7,2529.4 1244.2,2511 1255.2,2493.4 1264.7,2478.9 1272.2,2467 1281.7,2454.9 1289.2,2444.5 
		1298.7,2433 1312.7,2417 1327.7,2401.4 1330,2398.6 1332.7,2395.5 1337.7,2389.5 1352.7,2374 1366.7,2357.9 1376.2,2346.4 
		1383.7,2336 1393.2,2323.9 1400.8,2311.9 1410.2,2297.5 1421.2,2279.9 1431.6,2261.4 1438.7,2246.9 1446.7,2230 1452.7,2213.9 
		1458.2,2201.4 1463.2,2188.9 1468.2,2175 1472.7,2161.4 1475.5,2151 1478.7,2138 1481.7,2125.9 1484.3,2114 1487,2101.7 
		1488.8,2089 1490.6,2075.6 1492.7,2062.9 1493.7,2050.5 1494.5,2037.6 1495.7,2025.5 1495.7,2013.1 1495.7,2000 1495.7,1986.4 
		1494.2,1960 1491.7,1933.5 1487.9,1907.5 1483.7,1880.9 1477.6,1859.9 1474.3,1849.7 1473.5,1849.7 1467.5,1828.7 1463.3,1802.1 
		1459.5,1776.2 1457,1749.6 1455.5,1723.2 1455.5,1709.6 1455.5,1696.4 1455.4,1684.2 1456.7,1671.9 1457.5,1659.2 1458.5,1646.6 
		1460.5,1633.9 1462.5,1620.6 1464.3,1607.8 1467,1595.6 1469.5,1583.7 1472.5,1571.7 1475.7,1558.6 1478.5,1548.1 1483,1534.7 
		1488,1520.7 1493,1508.2 1498.5,1495.7 1504.5,1479.6 1512.5,1462.6 1519.5,1448.1 1530,1429.7 1541,1412.1 1550.5,1397.6 
		1558,1385.7 1567.5,1373.6 1575,1363.2 1584.5,1351.7 1598.5,1335.7 1613.5,1320.1 1615.8,1317.3 1618.5,1314.2 1623.5,1308.2 
		1638.5,1292.7 1652.5,1276.6 1662,1265.1 1669.5,1254.7 1679,1242.6 1686.6,1230.6 1696,1216.2 1707,1198.6 1717.4,1180.1 
		1724.5,1165.6 1732.5,1148.7 1738.5,1132.6 1744,1120.1 1749,1107.6 1754,1093.7 1758.5,1080.1 1761.3,1069.7 1764.5,1056.7 
		1767.5,1044.6 1770.1,1032.7 1772.8,1020.4 1774.6,1007.7 1776.4,994.3 1778.5,981.6 1779.5,969.2 1780.3,956.3 1781.5,944.2 
		1781.5,931.8 1781.5,918.7 1781.5,905.1 1780,878.7 1777.5,852.2 1773.7,826.2 1769.5,799.6 1763.4,778.6 1760.1,768.4 
		1759.6,768.4 1753.5,747.4 1749.3,720.9 1745.5,694.9 1743,668.4 1741.5,641.9 1741.5,628.4 1741.5,615.1 1741.5,602.9 
		1742.7,590.6 1743.6,577.9 1744.5,565.3 1746.5,552.6 1748.5,539.3 1750.3,526.6 1753,514.3 1755.5,502.4 1758.5,490.4 
		1761.7,477.3 1764.5,466.8 1769,453.4 1774,439.4 1779,426.9 1784.5,414.4 1790.5,398.4 1798.6,381.4 1805.5,366.8 1816,348.4 
		1827,330.9 1836.5,316.4 1844.1,304.4 1853.5,292.4 1861,281.9 1870.5,270.4 1884.5,254.4 1899.5,238.9 1901.8,236.1 1904.5,232.9 
		1909.5,226.9 1924.6,211.4 1938.5,195.4 1948,183.9 1955.5,173.4 1965.1,161.3 1972.6,149.4 1982,134.9 1993,117.4 2003.5,98.9 
		2010.6,84.4 2018.6,67.4 2024.5,51.4 2030,38.9 2035,26.4 2040,12.4 2044.5,-1.2 2047.3,-11.6 2050.5,-24.6 2053.5,-36.6 
		2056.1,-48.6 2058.8,-60.9 2060.6,-73.6 2062.5,-86.9 2064.5,-99.6 2065.5,-112.1 2066.3,-124.9 2067.6,-137.1 2067.5,-149.4 
		2067.5,-162.6 2067.6,-176.1 2066,-202.6 2063.5,-229.1 2059.7,-255.1 2055.5,-281.6 2049.5,-302.6 2046.1,-312.9 	"/>
</g>
<g>
	<polyline class="st0" points="3747.6,2750.8 3732.4,2766.5 3711.5,2783.5 3690.9,2799.8 3669.2,2815.2 3647,2829.7 3635.3,2836.5 
		3623.8,2843.1 3613.3,2849.3 3602,2854.3 3590.6,2860 3579.2,2865.4 3567.2,2870 3554.7,2874.9 3542.7,2879.8 3530.8,2883.5 
		3519.2,2887.3 3507.3,2890.8 3494.4,2894.5 3483.9,2897.3 3470,2900.2 3455.4,2902.8 3442.1,2904.7 3428.5,2906.2 3411.6,2909.1 
		3392.9,2910.6 3376.8,2911.8 3355.6,2911.9 3334.9,2911.2 3317.6,2910.2 3303.4,2909.7 3288.3,2907.5 3275.5,2906.2 3260.8,2903.7 
		3239.9,2899.7 3219,2894.4 3215.4,2893.8 3211.3,2893.1 3203.6,2891.7 3182.7,2886.5 3161.8,2882.4 3147.1,2879.9 3134.3,2878.6 
		3119.1,2876.4 3104.9,2875.9 3087.7,2874.9 3067,2874.2 3045.8,2874.4 3029.7,2875.5 3011,2877 2994.1,2879.9 2980.5,2881.4 
		2967.2,2883.3 2952.6,2886 2938.6,2888.8 2928.2,2891.6 2915.3,2895.4 2903.4,2898.8 2891.7,2902.6 2879.7,2906.4 2867.8,2911.2 
		2855.4,2916.2 2843.3,2920.8 2832,2926.2 2820.5,2931.9 2809.4,2936.9 2798.7,2943.1 2787.3,2949.6 2775.6,2956.4 2753.4,2970.9 
		2731.7,2986.4 2711.1,3002.6 2690.2,3019.6 2675,3035.3 2667.8,3043.4 2667.8,3043.3 2652.6,3059 2631.7,3076 2611.1,3092.3 
		2589.4,3107.7 2567.2,3122.2 2555.5,3129 2544,3135.6 2533.5,3141.8 2522.2,3146.8 2510.8,3152.5 2499.4,3157.9 2487.4,3162.5 
		2474.9,3167.4 2462.9,3172.3 2451,3176 2439.4,3179.8 2427.5,3183.3 2414.6,3187 2404.1,3189.8 2390.2,3192.7 2375.6,3195.3 
		2362.3,3197.2 2348.7,3198.7 2331.8,3201.6 2313.1,3203.1 2297,3204.3 2275.8,3204.4 2255.1,3203.7 2237.8,3202.7 2223.6,3202.2 
		2208.5,3200 2195.7,3198.7 2181,3196.2 2160.1,3192.2 2139.2,3186.9 2135.6,3186.3 2131.5,3185.6 2123.8,3184.2 2102.9,3179 
		2082,3174.9 2067.3,3172.4 2054.5,3171.1 2039.3,3168.9 2025.1,3168.4 2007.9,3167.4 1987.2,3166.7 1966,3166.9 1949.9,3168 
		1931.2,3169.5 1914.3,3172.4 1900.7,3173.9 1887.4,3175.8 1872.8,3178.5 1858.8,3181.3 1848.4,3184.1 1835.5,3187.9 1823.6,3191.3 
		1811.9,3195.1 1799.9,3198.9 1788,3203.7 1775.6,3208.7 1763.5,3213.3 1752.2,3218.7 1740.7,3224.4 1729.6,3229.4 1718.9,3235.6 
		1707.5,3242.1 1695.8,3248.9 1673.6,3263.4 1651.9,3278.9 1631.3,3295.1 1610.4,3312.1 1595.2,3327.8 1588,3335.9 1591,3333.2 
		1575.8,3348.9 1554.9,3365.9 1534.3,3382.2 1512.6,3397.6 1490.4,3412.1 1478.7,3418.9 1467.2,3425.5 1456.7,3431.7 1445.4,3436.7 
		1434,3442.4 1422.6,3447.8 1410.6,3452.4 1398.1,3457.3 1386.1,3462.2 1374.2,3465.9 1362.6,3469.7 1350.7,3473.2 1337.8,3476.9 
		1327.3,3479.7 1313.4,3482.6 1298.8,3485.2 1285.5,3487.1 1271.9,3488.6 1255,3491.5 1236.3,3493 1220.2,3494.2 1199,3494.3 
		1178.3,3493.6 1161,3492.6 1146.8,3492.1 1131.7,3489.9 1118.9,3488.6 1104.2,3486.1 1083.3,3482.1 1062.4,3476.8 1058.8,3476.2 
		1054.7,3475.5 1047,3474.1 1026.1,3468.9 1005.2,3464.8 990.5,3462.3 977.7,3461 962.5,3458.8 948.3,3458.3 931.1,3457.3 
		910.4,3456.6 889.2,3456.8 873.1,3457.9 854.4,3459.4 837.5,3462.3 823.9,3463.8 810.6,3465.7 796,3468.4 782,3471.2 771.6,3474 
		758.7,3477.8 746.8,3481.2 735.1,3485 723.1,3488.8 711.2,3493.6 698.8,3498.6 686.7,3503.2 675.4,3508.6 663.9,3514.3 
		652.8,3519.3 642.1,3525.5 630.7,3532 619,3538.8 596.8,3553.3 575.1,3568.8 554.5,3585 533.6,3602 518.4,3617.7 511.2,3625.8 	"/>
</g>
<g>
	<polyline class="st0" points="-644.3,423.3 -623.1,428.6 -598,438.2 -573.6,447.9 -549.4,459 -525.7,470.9 -514,477.7 
		-502.5,484.3 -491.9,490.4 -481.9,497.6 -471.3,504.7 -460.9,511.8 -450.9,519.9 -440.4,528.3 -430.2,536.2 -421,544.7 
		-411.9,552.8 -403,561.4 -393.3,570.7 -385.6,578.4 -376.2,589 -366.6,600.3 -358.3,610.9 -350.2,621.9 -339.3,635.1 -328.6,650.6 
		-319.5,663.9 -308.8,682.2 -299.1,700.5 -291.3,716 -284.7,728.5 -279,742.7 -273.7,754.4 -268.5,768.4 -261.6,788.5 -255.7,809.3 
		-254.4,812.7 -253,816.6 -250.3,823.9 -244.4,844.7 -237.5,864.8 -232.3,878.8 -227,890.5 -221.3,904.8 -214.7,917.3 -206.9,932.7 
		-197.2,951 -186.4,969.3 -177.4,982.7 -166.7,998.1 -155.8,1011.3 -147.7,1022.3 -139.4,1032.9 -129.8,1044.2 -120.3,1054.9 
		-112.7,1062.5 -103,1071.8 -94.1,1080.4 -85,1088.6 -75.7,1097.1 -65.6,1105 -55,1113.3 -45,1121.4 -34.7,1128.5 -24,1135.6 
		-14.1,1142.8 -3.4,1148.9 8,1155.5 19.7,1162.3 43.4,1174.2 67.6,1185.3 92,1195 117.1,1204.6 138.3,1209.9 148.9,1212.1 
		147.4,1212.7 168.6,1218 193.7,1227.6 218.1,1237.3 242.3,1248.4 266,1260.3 277.7,1267.1 289.2,1273.7 299.8,1279.8 309.8,1287 
		320.4,1294.1 330.8,1301.2 340.8,1309.3 351.3,1317.7 361.5,1325.6 370.7,1334.1 379.8,1342.2 388.7,1350.8 398.4,1360.1 
		406.1,1367.8 415.5,1378.4 425.1,1389.7 433.4,1400.3 441.5,1411.3 452.4,1424.5 463.1,1440 472.2,1453.3 482.9,1471.6 
		492.6,1489.9 500.4,1505.4 507,1517.9 512.7,1532.1 518,1543.8 523.2,1557.8 530.1,1577.9 536,1598.7 537.3,1602.1 538.7,1606 
		541.4,1613.3 547.3,1634.1 554.2,1654.2 559.4,1668.2 564.7,1679.9 570.4,1694.2 577,1706.7 584.8,1722.1 594.5,1740.4 
		605.3,1758.7 614.3,1772.1 625,1787.5 635.9,1800.7 644,1811.7 652.3,1822.3 661.9,1833.6 671.4,1844.3 679,1851.9 688.7,1861.2 
		697.6,1869.8 706.7,1878 716,1886.5 726.1,1894.4 736.7,1902.7 746.7,1910.8 757,1917.9 767.7,1925 777.6,1932.2 788.3,1938.3 
		799.7,1944.9 811.4,1951.7 835.1,1963.6 859.3,1974.7 883.7,1984.4 908.8,1994 930,1999.3 940.6,2001.5 941.4,2002.1 962.6,2007.4 
		987.7,2017 1012.1,2026.7 1036.3,2037.8 1060,2049.7 1071.7,2056.5 1083.2,2063.1 1093.8,2069.2 1103.8,2076.4 1114.4,2083.5 
		1124.8,2090.6 1134.8,2098.7 1145.3,2107.1 1155.5,2115 1164.7,2123.5 1173.8,2131.6 1182.7,2140.2 1192.4,2149.5 1200.1,2157.2 
		1209.5,2167.8 1219.1,2179.1 1227.4,2189.7 1235.5,2200.7 1246.4,2213.9 1257.1,2229.4 1266.2,2242.7 1276.9,2261 1286.6,2279.3 
		1294.4,2294.8 1301,2307.3 1306.7,2321.5 1312,2333.2 1317.2,2347.2 1324.1,2367.3 1330,2388.1 1331.3,2391.5 1332.7,2395.4 
		1335.4,2402.7 1341.3,2423.5 1348.2,2443.6 1353.4,2457.6 1358.7,2469.3 1364.4,2483.6 1371,2496.1 1378.8,2511.5 1388.5,2529.8 
		1399.3,2548.1 1408.3,2561.5 1419,2576.9 1429.9,2590.1 1438,2601.1 1446.3,2611.7 1455.9,2623 1465.4,2633.7 1473,2641.3 
		1482.7,2650.6 1491.6,2659.2 1500.7,2667.4 1510,2675.9 1520.1,2683.8 1530.7,2692.1 1540.7,2700.2 1551,2707.3 1561.7,2714.4 
		1571.6,2721.6 1582.3,2727.7 1593.7,2734.3 1605.4,2741.1 1629.1,2753 1653.3,2764.1 1677.7,2773.8 1702.8,2783.4 1724,2788.7 
		1734.6,2790.9 1731.3,2791.2 1752.5,2796.5 1777.6,2806.1 1802,2815.8 1826.2,2826.9 1849.9,2838.8 1861.6,2845.6 1873.1,2852.2 
		1883.7,2858.3 1893.7,2865.5 1904.3,2872.6 1914.7,2879.7 1924.7,2887.8 1935.2,2896.2 1945.4,2904.1 1954.6,2912.6 1963.7,2920.7 
		1972.6,2929.3 1982.3,2938.6 1990,2946.3 1999.4,2956.9 2009,2968.2 2017.3,2978.8 2025.4,2989.8 2036.3,3003 2047,3018.5 
		2056.1,3031.8 2066.8,3050.1 2076.5,3068.4 2084.3,3083.9 2090.9,3096.4 2096.6,3110.6 2101.9,3122.3 2107.1,3136.3 2114,3156.4 
		2119.9,3177.2 2121.2,3180.6 2122.6,3184.5 2125.3,3191.8 2131.2,3212.6 2138.1,3232.7 2143.3,3246.7 2148.6,3258.4 2154.3,3272.7 
		2160.9,3285.2 2168.7,3300.6 2178.4,3318.9 2189.2,3337.2 2198.2,3350.6 2208.9,3366 2219.8,3379.2 2227.9,3390.2 2236.2,3400.8 
		2245.8,3412.1 2255.3,3422.8 2262.9,3430.4 2272.6,3439.7 2281.5,3448.3 2290.6,3456.5 2299.9,3465 2310,3472.9 2320.6,3481.2 
		2330.6,3489.3 2340.9,3496.4 2351.6,3503.5 2361.5,3510.7 2372.2,3516.8 2383.6,3523.4 2395.3,3530.2 2419,3542.1 2443.2,3553.2 
		2467.6,3562.9 2492.7,3572.5 2513.9,3577.8 2524.5,3580 	"/>
</g>
<g>
	<polyline class="st0" points="-398,1352.2 -404,1331.2 -408.2,1304.6 -412,1278.7 -414.5,1252.1 -416,1225.7 -416,1212.1 
		-416,1198.9 -416.1,1186.7 -414.8,1174.4 -414,1161.7 -413,1149.1 -411,1136.4 -409,1123.1 -407.2,1110.3 -404.5,1098.1 
		-402,1086.2 -399,1074.2 -395.8,1061.1 -393,1050.6 -388.5,1037.2 -383.5,1023.2 -378.5,1010.7 -373,998.2 -367,982.1 -359,965.1 
		-352,950.6 -341.5,932.2 -330.5,914.6 -321,900.1 -313.5,888.2 -304,876.1 -296.5,865.7 -287,854.2 -273,838.2 -258,822.6 
		-255.7,819.8 -253,816.7 -248,810.7 -233,795.2 -219,779.1 -209.5,767.6 -202,757.2 -192.5,745.1 -184.9,733.1 -175.5,718.7 
		-164.5,701.1 -154.1,682.6 -147,668.1 -139,651.2 -133,635.1 -127.5,622.6 -122.5,610.1 -117.5,596.2 -113,582.6 -110.2,572.2 
		-107,559.2 -104,547.1 -101.4,535.2 -98.7,522.9 -96.9,510.2 -95.1,496.8 -93,484.1 -92,471.7 -91.2,458.8 -90,446.7 -90,434.3 
		-90,421.2 -90,407.6 -91.5,381.2 -94,354.7 -97.8,328.7 -102,302.1 -108.1,281.1 -111.4,270.9 	"/>
</g>
<g>
	<polyline class="st0" points="3529.5,-200.6 3514.3,-184.9 3493.4,-167.9 3472.8,-151.6 3451.1,-136.2 3428.9,-121.7 
		3417.2,-114.9 3405.7,-108.3 3395.2,-102.1 3383.9,-97.1 3372.5,-91.4 3361.1,-86 3349.1,-81.4 3336.6,-76.5 3324.6,-71.6 
		3312.7,-67.9 3301.1,-64.1 3289.2,-60.6 3276.3,-56.9 3265.8,-54.1 3251.9,-51.2 3237.3,-48.6 3224,-46.7 3210.4,-45.2 
		3193.5,-42.3 3174.8,-40.8 3158.7,-39.6 3137.5,-39.5 3116.8,-40.2 3099.5,-41.2 3085.3,-41.7 3070.2,-43.9 3057.4,-45.2 
		3042.7,-47.7 3021.8,-51.7 3000.9,-57 2997.3,-57.6 2993.2,-58.3 2985.5,-59.7 2964.6,-64.9 2943.7,-69 2929,-71.5 2916.2,-72.8 
		2901,-75 2886.8,-75.5 2869.6,-76.5 2848.9,-77.2 2827.7,-77 2811.6,-75.9 2792.9,-74.4 2776,-71.5 2762.4,-70 2749.1,-68.1 
		2734.5,-65.4 2720.5,-62.6 2710.1,-59.8 2697.2,-56 2685.3,-52.6 2673.6,-48.8 2661.6,-45 2649.7,-40.2 2637.3,-35.2 2625.2,-30.6 
		2613.9,-25.2 2602.4,-19.5 2591.3,-14.5 2580.6,-8.3 2569.2,-1.8 2557.5,5 2535.3,19.5 2513.6,35 2493,51.2 2472.1,68.2 
		2456.9,83.9 2449.7,92 2449.7,91.7 2434.5,107.4 2413.6,124.3 2393,140.6 2371.3,156 2349.2,170.6 2337.4,177.3 2326,184 
		2315.4,190.1 2304.1,195.2 2292.7,200.8 2281.3,206.2 2269.3,210.9 2256.8,215.8 2244.9,220.6 2232.9,224.4 2221.3,228.2 
		2209.4,231.6 2196.5,235.3 2186,238.2 2172.1,241 2157.5,243.7 2144.2,245.6 2130.6,247.1 2113.8,249.9 2095,251.4 2078.9,252.7 
		2057.7,252.8 2037,252 2019.7,251 2005.6,250.5 1990.4,248.3 1977.6,247.1 1962.9,244.6 1942.1,240.5 1921.1,235.2 1917.5,234.6 
		1913.4,233.9 1905.8,232.6 1884.8,227.3 1863.9,223.2 1849.2,220.7 1836.4,219.5 1821.2,217.2 1807.1,216.7 1789.8,215.8 
		1769.1,215 1747.9,215.2 1731.8,216.3 1713.1,217.9 1696.2,220.7 1682.6,222.2 1669.3,224.1 1654.7,226.8 1640.7,229.7 
		1630.3,232.4 1617.4,236.2 1605.5,239.6 1593.9,243.4 1581.9,247.2 1570,252 1557.5,257 1545.5,261.6 1534.2,267 1522.7,272.7 
		1511.5,277.7 1500.8,283.9 1489.4,290.5 1477.7,297.2 1455.5,311.8 1433.8,327.2 1413.2,343.5 1392.4,360.4 1377.2,376.1 
		1370,384.2 1370,383.5 1354.8,399.2 1333.9,416.2 1313.3,432.5 1291.6,447.9 1269.4,462.4 1257.7,469.2 1246.2,475.8 1235.7,482 
		1224.4,487 1213,492.7 1201.6,498.1 1189.6,502.7 1177.1,507.6 1165.1,512.5 1153.2,516.2 1141.6,520 1129.7,523.5 1116.8,527.2 
		1106.3,530 1092.4,532.9 1077.8,535.5 1064.5,537.4 1050.9,538.9 1034,541.8 1015.3,543.3 999.2,544.5 978,544.6 957.3,543.9 
		940,542.9 925.8,542.4 910.7,540.2 897.9,538.9 883.2,536.4 862.3,532.4 841.4,527.1 837.8,526.5 833.7,525.8 826,524.4 
		805.1,519.2 784.2,515.1 769.5,512.6 756.7,511.3 741.5,509.1 727.3,508.6 710.1,507.6 689.4,506.9 668.2,507.1 652.1,508.2 
		633.4,509.7 616.5,512.6 602.9,514.1 589.6,516 575,518.7 561,521.5 550.6,524.3 537.7,528.1 525.8,531.5 514.1,535.3 502.1,539.1 
		490.2,543.9 477.8,548.9 465.7,553.5 454.4,558.9 442.9,564.6 431.8,569.6 421.1,575.8 409.7,582.3 398,589.1 375.8,603.6 
		354.1,619.1 333.5,635.3 312.6,652.3 297.4,668 290.2,676.1 292.2,675.4 277,691.1 256.1,708.1 235.5,724.4 213.8,739.8 
		191.6,754.3 179.9,761.1 168.4,767.7 157.9,773.9 146.6,778.9 135.2,784.6 123.8,790 111.8,794.6 99.3,799.5 87.3,804.4 
		75.4,808.1 63.8,811.9 51.9,815.4 39,819.1 28.5,821.9 14.6,824.8 0,827.4 -13.3,829.3 -26.9,830.8 -43.8,833.7 -62.5,835.2 
		-78.6,836.4 -99.8,836.5 -120.5,835.8 -137.8,834.8 -152,834.3 -167.1,832.1 -179.9,830.8 -194.6,828.3 -215.5,824.3 -236.4,819 
		-240,818.4 -244.1,817.7 -251.8,816.3 -272.7,811.1 -293.6,807 -308.3,804.5 -321.1,803.2 -336.3,801 -350.5,800.5 -367.7,799.5 
		-388.4,798.8 -409.6,799 -425.7,800.1 -444.4,801.6 -461.3,804.5 -474.9,806 -488.2,807.9 -502.8,810.6 -516.8,813.4 -527.2,816.2 
		-540.1,820 -552,823.4 -563.7,827.2 -575.7,831 -587.6,835.8 -600,840.8 -612.1,845.4 -623.4,850.8 -634.9,856.5 -646,861.5 
		-656.7,867.7 -668.1,874.2 -679.8,881 -702,895.5 -723.7,911 -744.3,927.2 -765.2,944.2 -780.4,959.9 -787.6,968 	"/>
</g>
<g>
	<polyline class="st0" points="1513.2,-160.5 1534.4,-155.2 1559.5,-145.6 1583.9,-135.9 1608.1,-124.8 1631.8,-112.9 
		1643.5,-106.1 1655,-99.5 1665.6,-93.4 1675.6,-86.2 1686.2,-79.1 1696.6,-72 1706.6,-63.9 1717.1,-55.5 1727.3,-47.6 
		1736.5,-39.1 1745.6,-31 1754.5,-22.4 1764.2,-13.1 1771.9,-5.4 1781.3,5.2 1790.9,16.5 1799.2,27.1 1807.3,38.1 1818.2,51.3 
		1828.9,66.8 1838,80.1 1848.7,98.4 1858.4,116.7 1866.2,132.2 1872.8,144.7 1878.5,158.9 1883.8,170.6 1889,184.6 1895.9,204.7 
		1901.8,225.5 1903.1,228.9 1904.5,232.8 1907.2,240.1 1913.1,260.9 1920,281 1925.2,295 1930.5,306.7 1936.2,321 1942.8,333.5 
		1950.6,348.9 1960.3,367.2 1971.1,385.5 1980.1,398.9 1990.8,414.3 2001.7,427.5 2009.8,438.5 2018.1,449.1 2027.7,460.4 
		2037.2,471.1 2044.8,478.7 2054.5,488 2063.4,496.6 2072.5,504.8 2081.8,513.3 2091.9,521.2 2102.5,529.5 2112.5,537.6 
		2122.8,544.7 2133.5,551.8 2143.4,559 2154.1,565.1 2165.5,571.7 2177.2,578.5 2200.9,590.4 2225.1,601.5 2249.5,611.2 
		2274.6,620.8 2295.8,626.1 2306.4,628.3 2306.3,628.6 2327.5,633.9 2352.6,643.5 2377,653.2 2401.2,664.3 2424.9,676.2 2436.6,683 
		2448.1,689.6 2458.7,695.7 2468.7,702.9 2479.3,710 2489.7,717.1 2499.7,725.2 2510.2,733.6 2520.4,741.5 2529.6,750 2538.7,758.1 
		2547.6,766.7 2557.3,776 2565,783.7 2574.4,794.3 2584,805.6 2592.3,816.2 2600.4,827.2 2611.3,840.4 2622,855.9 2631.1,869.2 
		2641.8,887.5 2651.5,905.8 2659.3,921.3 2665.9,933.8 2671.6,948 2676.9,959.7 2682.1,973.7 2689,993.8 2694.9,1014.6 2696.2,1018 
		2697.6,1021.9 2700.3,1029.2 2706.2,1050 2713.1,1070.1 2718.3,1084.1 2723.6,1095.8 2729.3,1110.1 2735.9,1122.6 2743.7,1138 
		2753.4,1156.3 2764.2,1174.6 2773.2,1188 2783.9,1203.4 2794.8,1216.6 2802.9,1227.6 2811.2,1238.2 2820.8,1249.5 2830.3,1260.2 
		2837.9,1267.8 2847.6,1277.1 2856.5,1285.7 2865.6,1293.9 2874.9,1302.4 2885,1310.3 2895.6,1318.6 2905.6,1326.7 2915.9,1333.8 
		2926.6,1340.9 2936.5,1348.1 2947.2,1354.2 2958.6,1360.8 2970.3,1367.6 2994,1379.5 3018.2,1390.6 3042.6,1400.3 3067.7,1409.9 
		3088.9,1415.2 3099.5,1417.4 3098,1417.4 3119.2,1422.7 3144.3,1432.3 3168.7,1442 3192.9,1453.1 3216.6,1465 3228.3,1471.8 
		3239.8,1478.4 3250.4,1484.5 3260.4,1491.7 3271,1498.8 3281.4,1505.9 3291.4,1514 3301.9,1522.4 3312.1,1530.3 3321.3,1538.8 
		3330.4,1546.9 3339.3,1555.5 3349,1564.8 3356.7,1572.5 3366.1,1583.1 3375.7,1594.4 3384,1605 3392.1,1616 3403,1629.2 
		3413.7,1644.7 3422.8,1658 3433.5,1676.3 3443.2,1694.6 3451,1710.1 3457.6,1722.6 3463.3,1736.8 3468.6,1748.5 3473.8,1762.5 
		3480.7,1782.6 3486.6,1803.4 3487.9,1806.8 3489.3,1810.7 3492,1818 3497.9,1838.8 3504.8,1858.9 3510,1872.9 3515.3,1884.6 
		3521,1898.9 3527.6,1911.4 3535.4,1926.8 3545.1,1945.1 3555.9,1963.4 3564.9,1976.8 3575.6,1992.2 3586.5,2005.4 3594.6,2016.4 
		3602.9,2027 3612.5,2038.3 3622,2049 3629.6,2056.6 3639.3,2065.9 3648.2,2074.5 3657.3,2082.7 3666.6,2091.2 3676.7,2099.1 
		3687.3,2107.4 3697.3,2115.5 3707.6,2122.6 3718.3,2129.7 3728.2,2136.9 3738.9,2143 3750.3,2149.6 3762,2156.4 3785.7,2168.3 
		3809.9,2179.4 3834.3,2189.1 3859.4,2198.7 3880.6,2204 3891.2,2206.2 	"/>
</g>
<g>
	<polyline class="st0" points="3344.3,2346.3 3338.3,2325.3 3334.1,2298.7 3330.3,2272.8 3327.8,2246.2 3326.3,2219.8 
		3326.3,2206.2 3326.3,2193 3326.2,2180.8 3327.5,2168.5 3328.3,2155.8 3329.3,2143.2 3331.3,2130.5 3333.3,2117.2 3335.1,2104.4 
		3337.8,2092.2 3340.3,2080.3 3343.3,2068.3 3346.5,2055.2 3349.3,2044.7 3353.8,2031.3 3358.8,2017.3 3363.8,2004.8 3369.3,1992.3 
		3375.3,1976.2 3383.3,1959.2 3390.3,1944.7 3400.8,1926.3 3411.8,1908.7 3421.3,1894.2 3428.8,1882.3 3438.3,1870.2 3445.8,1859.8 
		3455.3,1848.3 3469.3,1832.3 3484.3,1816.7 3486.6,1813.9 3489.3,1810.8 3494.3,1804.8 3509.3,1789.3 3523.3,1773.2 3532.8,1761.7 
		3540.3,1751.3 3549.8,1739.2 3557.4,1727.2 3566.8,1712.8 3577.8,1695.2 3588.2,1676.7 3595.3,1662.2 3603.3,1645.3 3609.3,1629.2 
		3614.8,1616.7 3619.8,1604.2 3624.8,1590.3 3629.3,1576.7 3632.1,1566.3 3635.3,1553.3 3638.3,1541.2 3640.9,1529.3 3643.6,1517 
		3645.4,1504.3 3647.2,1490.9 3649.3,1478.2 3650.3,1465.8 3651.1,1452.9 3652.3,1440.8 3652.3,1428.4 3652.3,1415.3 3652.3,1401.7 
		3650.8,1375.3 3648.3,1348.8 3644.5,1322.8 3640.3,1296.2 3634.2,1275.2 3630.9,1265 	"/>
</g>
<g>
	<polyline class="st0" points="4034.5,1669.5 4019.3,1685.2 3998.4,1702.2 3977.8,1718.5 3956.1,1733.9 3933.9,1748.4 
		3922.2,1755.2 3910.7,1761.8 3900.2,1768 3888.9,1773 3877.5,1778.7 3866.1,1784.1 3854.1,1788.7 3841.6,1793.6 3829.6,1798.5 
		3817.7,1802.2 3806.1,1806 3794.2,1809.5 3781.3,1813.2 3770.8,1816 3756.9,1818.9 3742.3,1821.5 3729,1823.4 3715.4,1824.9 
		3698.5,1827.8 3679.8,1829.3 3663.7,1830.5 3642.5,1830.6 3621.8,1829.9 3604.5,1828.9 3590.3,1828.4 3575.2,1826.2 3562.4,1824.9 
		3547.7,1822.4 3526.8,1818.4 3505.9,1813.1 3502.3,1812.5 3498.2,1811.8 3490.5,1810.4 3469.6,1805.2 3448.7,1801.1 3434,1798.6 
		3421.2,1797.3 3406,1795.1 3391.8,1794.6 3374.6,1793.6 3353.9,1792.9 3332.7,1793.1 3316.6,1794.2 3297.9,1795.7 3281,1798.6 
		3267.4,1800.1 3254.1,1802 3239.5,1804.7 3225.5,1807.5 3215.1,1810.3 3202.2,1814.1 3190.3,1817.5 3178.6,1821.3 3166.6,1825.1 
		3154.7,1829.9 3142.3,1834.9 3130.2,1839.5 3118.9,1844.9 3107.4,1850.6 3096.3,1855.6 3085.6,1861.8 3074.2,1868.3 3062.5,1875.1 
		3040.3,1889.6 3018.6,1905.1 2998,1921.3 2977.1,1938.3 2961.9,1954 2954.7,1962.1 2956.7,1962 2941.5,1977.7 2920.6,1994.7 
		2900,2011 2878.3,2026.4 2856.1,2040.9 2844.4,2047.7 2832.9,2054.3 2822.4,2060.5 2811.1,2065.5 2799.7,2071.2 2788.3,2076.6 
		2776.3,2081.2 2763.8,2086.1 2751.8,2091 2739.9,2094.7 2728.3,2098.5 2716.4,2102 2703.5,2105.7 2693,2108.5 2679.1,2111.4 
		2664.5,2114 2651.2,2115.9 2637.6,2117.4 2620.7,2120.3 2602,2121.8 2585.9,2123 2564.7,2123.1 2544,2122.4 2526.7,2121.4 
		2512.5,2120.9 2497.4,2118.7 2484.6,2117.4 2469.9,2114.9 2449,2110.9 2428.1,2105.6 2424.5,2105 2420.4,2104.3 2412.7,2102.9 
		2391.8,2097.7 2370.9,2093.6 2356.2,2091.1 2343.4,2089.8 2328.2,2087.6 2314,2087.1 2296.8,2086.1 2276.1,2085.4 2254.9,2085.6 
		2238.8,2086.7 2220.1,2088.2 2203.2,2091.1 2189.6,2092.6 2176.3,2094.5 2161.7,2097.2 2147.7,2100 2137.3,2102.8 2124.4,2106.6 
		2112.5,2110 2100.8,2113.8 2088.8,2117.6 2076.9,2122.4 2064.5,2127.4 2052.4,2132 2041.1,2137.4 2029.6,2143.1 2018.5,2148.1 
		2007.8,2154.3 1996.4,2160.8 1984.7,2167.6 1962.5,2182.1 1940.8,2197.6 1920.2,2213.8 1899.3,2230.8 1884.1,2246.5 1876.9,2254.6 
		1877.9,2254.2 1862.7,2269.9 1841.8,2286.9 1821.2,2303.2 1799.5,2318.6 1777.3,2333.1 1765.6,2339.9 1754.1,2346.5 1743.6,2352.7 
		1732.3,2357.7 1720.9,2363.4 1709.5,2368.8 1697.5,2373.4 1685,2378.3 1673,2383.2 1661.1,2386.9 1649.5,2390.7 1637.6,2394.2 
		1624.7,2397.9 1614.2,2400.7 1600.3,2403.6 1585.7,2406.2 1572.4,2408.1 1558.8,2409.6 1541.9,2412.5 1523.2,2414 1507.1,2415.2 
		1485.9,2415.3 1465.2,2414.6 1447.9,2413.6 1433.7,2413.1 1418.6,2410.9 1405.8,2409.6 1391.1,2407.1 1370.2,2403.1 1349.3,2397.8 
		1345.7,2397.2 1341.6,2396.5 1333.9,2395.1 1313,2389.9 1292.1,2385.8 1277.4,2383.3 1264.6,2382 1249.4,2379.8 1235.2,2379.3 
		1218,2378.3 1197.3,2377.6 1176.1,2377.8 1160,2378.9 1141.3,2380.4 1124.4,2383.3 1110.8,2384.8 1097.5,2386.7 1082.9,2389.4 
		1068.9,2392.2 1058.5,2395 1045.6,2398.8 1033.7,2402.2 1022,2406 1010,2409.8 998.1,2414.6 985.7,2419.6 973.6,2424.2 
		962.3,2429.6 950.8,2435.3 939.7,2440.3 929,2446.5 917.6,2453 905.9,2459.8 883.7,2474.3 862,2489.8 841.4,2506 820.5,2523 
		805.3,2538.7 798.1,2546.8 798.1,2546.1 782.9,2561.8 762,2578.8 741.4,2595.1 719.7,2610.5 697.5,2625 685.8,2631.8 674.3,2638.4 
		663.8,2644.6 652.5,2649.6 641.1,2655.3 629.7,2660.7 617.7,2665.3 605.2,2670.2 593.2,2675.1 581.3,2678.8 569.7,2682.6 
		557.8,2686.1 544.9,2689.8 534.4,2692.6 520.5,2695.5 505.9,2698.1 492.6,2700 479,2701.5 462.1,2704.4 443.4,2705.9 427.3,2707.1 
		406.1,2707.2 385.4,2706.5 368.1,2705.5 353.9,2705 338.8,2702.8 326,2701.5 311.3,2699 290.4,2695 269.5,2689.7 265.9,2689.1 
		261.8,2688.4 254.1,2687 233.2,2681.8 212.3,2677.7 197.6,2675.2 184.8,2673.9 169.6,2671.7 155.4,2671.2 138.2,2670.2 
		117.5,2669.5 96.3,2669.7 80.2,2670.8 61.5,2672.3 44.6,2675.2 31,2676.7 17.7,2678.6 3.1,2681.3 -10.9,2684.1 -21.3,2686.9 
		-34.2,2690.7 -46.1,2694.1 -57.8,2697.9 -69.8,2701.7 -81.7,2706.5 -94.1,2711.5 -106.2,2716.1 -117.5,2721.5 -129,2727.2 
		-140.1,2732.2 -150.8,2738.4 -162.2,2744.9 -173.9,2751.7 -196.1,2766.2 -217.8,2781.7 -238.4,2797.9 -259.3,2814.9 -274.5,2830.6 
		-281.7,2838.7 	"/>
</g>
</svg>
