<?xml version="1.0" encoding="utf-8"?>
<!-- Generator: Adobe Illustrator 22.0.0, SVG Export Plug-In . SVG Version: 6.00 Build 0)  -->
<svg version="1.1" id="Layer_1" xmlns="http://www.w3.org/2000/svg" xmlns:xlink="http://www.w3.org/1999/xlink" x="0px" y="0px"
	 viewBox="0 0 900 900" style="enable-background:new 0 0 900 900;" xml:space="preserve">
<style type="text/css">
	.st0{fill:none;stroke:#000000;stroke-width:0.5;stroke-miterlimit:10;}
	.st1{fill:none;stroke:#FF0000;stroke-width:0.5;stroke-miterlimit:10;}
</style>
<path class="st0" d="M389.5,414.9c0.1-0.9,0.1-2.1,0.2-3.6c0.2-3.4,0.3-6.6,0.3-9.4c0-3.6,0-6.4,0-8.1c-0.1-3.7-0.2-9.1-0.9-15.6
	c-0.5-4.7-1.2-8.2-2.2-13.8c-0.7-3.8-1.6-8.8-3.2-15.5c-1.1-4.7-2.2-9.2-4-15c-1.5-4.7-2.9-8.2-3.8-10.5c-1.8-4.6-2.7-6.6-5.8-14
	c-1.1-2.8-2.1-5.1-2.6-6.6c2.6,1,6.3,2.5,10.6,4.3c5.2,2.2,11.7,5,18.9,8.7c6.5,3.4,12.5,6.5,19.5,11.8c7.3,5.6,12.3,10.8,17.6,16.4
	c2.9,3.1,6.4,6.9,10.6,12.4c3.8,5,6.2,9,8.9,13.4c4,6.6,7.7,12.7,11.1,21.3c1.8,4.4,3.1,8.4,3.8,10.5c1.5,4.7,2.6,8.7,3.4,11.9
	l0.6-0.2c0.8-0.4,1.9-0.9,3.2-1.6c3.1-1.5,5.9-3,8.3-4.4c3.1-1.7,5.6-3.2,7-4.1c3.2-1.9,7.8-4.7,13.1-8.6c3.8-2.8,6.5-5.1,10.8-8.8
	c2.9-2.5,6.9-5.8,11.8-10.5c3.5-3.3,6.9-6.5,11-11c3.3-3.6,5.7-6.6,7.2-8.5c3.1-3.9,4.3-5.7,9.2-12c1.9-2.4,3.4-4.3,4.4-5.6
	c0.4,2.8,1,6.6,1.6,11.3c0.7,5.6,1.5,12.6,1.9,20.7c0.3,7.4,0.6,14.1-0.5,22.8c-1.2,9.1-3.2,16-5.4,23.4c-1.2,4.1-2.7,9-5.4,15.4
	c-2.5,5.8-4.7,9.9-7.1,14.4c-3.7,6.7-7.2,13-12.9,20.3c-2.9,3.7-5.7,6.8-7.2,8.5c-3.3,3.6-6.3,6.6-8.6,8.9l-0.5-0.3
	c0.8,0.5,1.8,1.2,3,2c2.9,1.9,5.6,3.5,8,5c3.1,1.8,5.6,3.2,7,4c3.3,1.8,8,4.4,14,7c4.3,1.9,7.7,3.1,13,5c3.6,1.3,8.5,3,15,5
	c4.6,1.4,9,2.7,15,4c4.8,1,8.5,1.6,11,2c4.9,0.8,7.1,0.9,15,2c3,0.4,5.4,0.8,7,1c-2.2,1.8-5.3,4.2-9,7c-4.5,3.4-10.2,7.7-17,12
	c-6.2,4-11.9,7.6-20,11c-8.5,3.6-15.5,5.2-23,7c-4.1,1-9.2,2.2-16,3c-6.3,0.8-10.9,0.9-16,1c-7.7,0.2-14.8,0.3-24-1
	c-4.7-0.7-8.8-1.5-11-2c-4.8-1-8.9-2.1-12-3l-0.1,0.6c-0.1,0.9-0.1,2.1-0.2,3.6c-0.2,3.4-0.3,6.6-0.3,9.4c0,3.6,0,6.4,0,8.1
	c0.1,3.7,0.2,9.1,0.9,15.6c0.5,4.7,1.2,8.2,2.2,13.8c0.7,3.8,1.6,8.8,3.2,15.5c1.1,4.7,2.2,9.2,4,15c1.5,4.7,2.9,8.2,3.8,10.5
	c1.8,4.6,2.7,6.6,5.8,14c1.1,2.8,2.1,5.1,2.6,6.6c-2.6-1-6.3-2.5-10.6-4.3c-5.2-2.2-11.7-5-18.9-8.7c-6.5-3.4-12.5-6.5-19.5-11.8
	c-7.3-5.6-12.3-10.8-17.6-16.4c-2.9-3.1-6.4-6.9-10.6-12.4c-3.8-5-6.2-9-8.9-13.4c-4-6.6-7.7-12.7-11.1-21.3
	c-1.8-4.4-3.1-8.4-3.8-10.5c-1.5-4.7-2.6-8.7-3.4-11.9l-0.5-0.1c-0.8,0.4-1.9,0.9-3.2,1.6c-3.1,1.5-5.9,3-8.3,4.4
	c-3.1,1.7-5.6,3.2-7,4.1c-3.2,1.9-7.8,4.7-13.1,8.6c-3.8,2.8-6.5,5.1-10.8,8.8c-2.9,2.5-6.9,5.8-11.8,10.5c-3.5,3.3-6.9,6.5-11,11
	c-3.3,3.6-5.7,6.6-7.2,8.5c-3.1,3.9-4.3,5.7-9.2,12c-1.9,2.4-3.4,4.3-4.4,5.6c-0.4-2.8-1-6.6-1.6-11.3c-0.7-5.6-1.5-12.6-1.9-20.7
	c-0.3-7.4-0.6-14.1,0.5-22.8c1.2-9.1,3.2-16,5.4-23.4c1.2-4.1,2.7-9,5.4-15.4c2.5-5.8,4.7-9.9,7.1-14.4c3.7-6.7,7.2-13,12.9-20.3
	c2.9-3.7,5.7-6.8,7.2-8.5c3.3-3.6,6.3-6.6,8.6-8.9l-0.5-0.4c-0.8-0.5-1.8-1.2-3-2c-2.9-1.9-5.6-3.5-8-5c-3.1-1.8-5.6-3.2-7-4
	c-3.3-1.8-8-4.4-14-7c-4.3-1.9-7.7-3.1-13-5c-3.6-1.3-8.5-3-15-5c-4.6-1.4-9-2.7-15-4c-4.8-1-8.5-1.6-11-2c-4.9-0.8-7.1-0.9-15-2
	c-3-0.4-5.4-0.8-7-1c2.2-1.8,5.3-4.2,9-7c4.5-3.4,10.2-7.7,17-12c6.2-4,11.9-7.6,20-11c8.5-3.6,15.5-5.2,23-7c4.1-1,9.2-2.2,16-3
	c6.3-0.8,10.9-0.9,16-1c7.7-0.2,14.8-0.3,24,1c4.7,0.7,8.8,1.5,11,2c4.8,1,8.9,2.1,12,3"/>
<path class="st1" d="M560.5,328.5c-11.1,76.3-65.8,134-128.4,153c-62.6,19-117.6,85.7-128.6,162"/>
<path class="st1" d="M231.4,453.5c71.6-28.6,149-10.1,196.7,34.7c47.7,44.7,141.8,54,213.5,25.4"/>
<path class="st1" d="M501.5,672.5C440.9,624.8,410,545,424.8,481.4c14.9-63.7-15.4-144.7-76-192.4"/>
<path class="st1" d="M478.5,279.5c28.6,71.6-3.3,149.1-48,196.8c-2.2,2.4-3.9,4.6-6,7.2c-39.1,49.4-47.1,136-20,204"/>
<path class="st1" d="M585.1,608.1c-76.3-11.1-143-64.6-162-127.2c-19-62.6-76.3-124.3-152.6-135.4"/>
<line class="st1" x1="307.5" y1="484.5" x2="579.5" y2="484.5"/>
</svg>
