<?xml version="1.0" encoding="utf-8"?>
<!-- Generator: Adobe Illustrator 22.0.0, SVG Export Plug-In . SVG Version: 6.00 Build 0)  -->
<svg version="1.1" id="Layer_1" xmlns="http://www.w3.org/2000/svg" xmlns:xlink="http://www.w3.org/1999/xlink" x="0px" y="0px"
	 viewBox="0 0 900 900" style="enable-background:new 0 0 900 900;" xml:space="preserve">
<style type="text/css">
	.st0{fill:none;stroke:#000000;stroke-miterlimit:10;}
	.st1{fill:none;stroke:#F20C0C;stroke-miterlimit:10;}
</style>
<path class="st0" d="M342,598.5c-20.5,11.8-44.2,18.5-69.5,18.5c-77,0-139.5-62.5-139.5-139.5S195.5,338,272.5,338
	c25.3,0,49,6.7,69.5,18.5h0c20.5-11.8,44.2-18.5,69.5-18.5c77,0,139.5,62.5,139.5,139.5c0,4.8-0.2,9.6-0.7,14.3l0.2-0.3
	c-8.5,69.2-66.8,126-138,126c-25.8,0-50-7.1-70.8-19.3L342,598.5z"/>
<g>
	<path class="st1" d="M342,598.5c-41.8-24.1-70-69.2-70-121c0-51.7,28.2-96.9,70-121"/>
	<path class="st1" d="M438,641.1c-7.4,1.8-30.4,6.2-56-5c-23.8-10.4-35.9-31.3-40-38"/>
	<path class="st1" d="M246,314.5c7.4-1.8,30.4-6.2,56,5c23.8,10.4,35.9,31.3,40,38"/>
</g>
<g>
	<path class="st1" d="M438,313.5c-7.4-1.8-30.4-6.2-56,5c-23.8,10.4-35.9,31.3-40,38"/>
	<path class="st1" d="M342,357.5c41.8,24.1,70,69.2,70,121c0,51.7-28.2,96.9-70,121"/>
	<path class="st1" d="M246,642.1c7.4,1.8,30.4,6.2,56-5c23.8-10.4,35.9-31.3,40-38"/>
</g>
</svg>
