<?xml version="1.0" encoding="utf-8"?>
<!-- Generator: Adobe Illustrator 22.0.0, SVG Export Plug-In . SVG Version: 6.00 Build 0)  -->
<svg version="1.1" id="Layer_1" xmlns="http://www.w3.org/2000/svg" xmlns:xlink="http://www.w3.org/1999/xlink" x="0px" y="0px"
	 viewBox="0 0 346.7 143.5" style="enable-background:new 0 0 346.7 143.5;" xml:space="preserve">
<style type="text/css">
	.st0{fill:none;stroke:#F90808;stroke-miterlimit:10;}
</style>
<path class="st0" d="M-0.7,20.1C34,20.1,34,62.9,68.6,62.9S103.2,20,137.9,20s34.7,42.9,69.3,42.9S241.8,20,276.5,20
	s34.7,42.9,69.3,42.9S380.5,20,415.1,20c34.7,0,34.7,42.9,69.3,42.9S519,20,553.7,20s34.7,42.9,69.3,42.9
	c34.7,0,34.7-42.9,69.3-42.9"/>
<path class="st0" d="M-73.7,81.1c34.7,0,34.7,42.8,69.3,42.8S30.2,81,64.9,81s34.7,42.9,69.3,42.9S168.8,81,203.5,81
	s34.7,42.9,69.3,42.9S307.5,81,342.1,81c34.7,0,34.7,42.9,69.3,42.9S446,81,480.7,81s34.7,42.9,69.3,42.9
	c34.7,0,34.7-42.9,69.3-42.9"/>
</svg>
