<?xml version="1.0" encoding="utf-8"?>
<!-- Generator: Adobe Illustrator 22.0.0, SVG Export Plug-In . SVG Version: 6.00 Build 0)  -->
<svg version="1.1" id="Layer_1" xmlns="http://www.w3.org/2000/svg" xmlns:xlink="http://www.w3.org/1999/xlink" x="0px" y="0px"
	 viewBox="0 0 279.7 73.5" style="enable-background:new 0 0 279.7 73.5;" xml:space="preserve">
<style type="text/css">
	.st0{fill:none;stroke:#F90808;stroke-miterlimit:10;}
</style>
<path class="st0" d="M-0.7,17.1C34,17.1,34,59.9,68.6,59.9S103.2,17,137.9,17s34.7,42.9,69.3,42.9S241.8,17,276.5,17
	s34.7,42.9,69.3,42.9S380.5,17,415.1,17c34.7,0,34.7,42.9,69.3,42.9S519,17,553.7,17s34.7,42.9,69.3,42.9
	c34.7,0,34.7-42.9,69.3-42.9"/>
<path class="st0" d="M553.5,59.9c-34.6,0-34.6-42.9-69.3-42.9c-34.6,0-34.6,42.9-69.3,42.9S380.2,17,345.6,17S311,59.9,276.3,59.9
	C241.7,59.9,241.6,17,207,17s-34.6,42.9-69.3,42.9S103,17,68.4,17S33.8,59.9-0.9,59.9S-35.6,17-70.2,17s-34.6,42.8-69.3,42.8"/>
</svg>
