<?xml version="1.0" encoding="utf-8"?>
<!-- Generator: Adobe Illustrator 22.0.0, SVG Export Plug-In . SVG Version: 6.00 Build 0)  -->
<svg version="1.1" id="Layer_1" xmlns="http://www.w3.org/2000/svg" xmlns:xlink="http://www.w3.org/1999/xlink" x="0px" y="0px"
	 viewBox="0 0 346.7 79.5" style="enable-background:new 0 0 346.7 79.5;" xml:space="preserve">
<style type="text/css">
	.st0{fill:none;stroke:#F90808;stroke-miterlimit:10;}
</style>
<path class="st0" d="M-0.7,27.1C34,27.1,34,69.9,68.6,69.9S103.2,27,137.9,27s34.7,42.9,69.3,42.9S241.8,27,276.5,27
	s34.7,42.9,69.3,42.9S380.5,27,415.1,27c34.7,0,34.7,42.9,69.3,42.9S519,27,553.7,27s34.7,42.9,69.3,42.9
	c34.7,0,34.7-42.9,69.3-42.9"/>
<path class="st0" d="M-139.2,14.1c34.7,0,34.7,42.8,69.3,42.8S-35.3,14-0.6,14s34.7,42.9,69.3,42.9S103.3,14,138,14
	s34.7,42.9,69.3,42.9S242,14,276.6,14c34.7,0,34.7,42.9,69.3,42.9S380.5,14,415.2,14s34.7,42.9,69.3,42.9
	c34.7,0,34.7-42.9,69.3-42.9"/>
</svg>
