<?xml version="1.0" encoding="utf-8"?>
<!-- Generator: Adobe Illustrator 16.0.3, SVG Export Plug-In . SVG Version: 6.00 Build 0)  -->
<!DOCTYPE svg PUBLIC "-//W3C//DTD SVG 1.1//EN" "http://www.w3.org/Graphics/SVG/1.1/DTD/svg11.dtd">
<svg version="1.1" xmlns="http://www.w3.org/2000/svg" xmlns:xlink="http://www.w3.org/1999/xlink" x="0px" y="0px"
	 width="595.28px" height="841.89px" viewBox="0 0 595.28 841.89" enable-background="new 0 0 595.28 841.89" xml:space="preserve">
<g id="CutLine">
	
		<rect x="20.255" y="130.977" fill="none" stroke="#333333" stroke-width="2" stroke-miterlimit="10" width="559.159" height="559.159"/>
</g>
<g id="ValleyLine">
	<g id="LINE_125_">
		<g>
			<g>
				
					<line fill="none" stroke="#333333" stroke-linecap="round" stroke-linejoin="round" x1="451.256" y1="130.977" x2="449.21" y2="133.17"/>
				
					<line fill="none" stroke="#333333" stroke-linecap="round" stroke-linejoin="round" stroke-dasharray="5.8135,5.8135" x1="445.245" y1="137.422" x2="344.142" y2="245.84"/>
				
					<line fill="none" stroke="#333333" stroke-linecap="round" stroke-linejoin="round" x1="342.159" y1="247.966" x2="340.113" y2="250.16"/>
			</g>
		</g>
	</g>
	<g id="LINE_120_">
		<g>
			<g>
				
					<line fill="none" stroke="#333333" stroke-linecap="round" stroke-linejoin="round" x1="340.113" y1="250.16" x2="337.244" y2="251.037"/>
				
					<line fill="none" stroke="#333333" stroke-linecap="round" stroke-linejoin="round" stroke-dasharray="6.4232,6.4232" x1="331.102" y1="252.915" x2="260.462" y2="274.512"/>
				
					<line fill="none" stroke="#333333" stroke-linecap="round" stroke-linejoin="round" x1="257.391" y1="275.451" x2="254.522" y2="276.328"/>
			</g>
		</g>
	</g>
	<g id="LINE_118_">
		<g>
			<g>
				
					<line fill="none" stroke="#333333" stroke-linecap="round" stroke-linejoin="round" x1="369.93" y1="252.396" x2="367.884" y2="254.59"/>
				
					<line fill="none" stroke="#333333" stroke-linecap="round" stroke-linejoin="round" stroke-dasharray="5.961,5.961" x1="363.818" y1="258.95" x2="268.281" y2="361.399"/>
				
					<line fill="none" stroke="#333333" stroke-linecap="round" stroke-linejoin="round" x1="266.249" y1="363.58" x2="264.203" y2="365.773"/>
			</g>
		</g>
	</g>
	<g id="LINE_117_">
		<g>
			<g>
				
					<line fill="none" stroke="#333333" stroke-linecap="round" stroke-linejoin="round" x1="264.203" y1="365.773" x2="264.877" y2="362.851"/>
				
					<line fill="none" stroke="#333333" stroke-linecap="round" stroke-linejoin="round" stroke-dasharray="6.4233,6.4233" x1="266.323" y1="356.592" x2="282.94" y2="284.617"/>
				
					<line fill="none" stroke="#333333" stroke-linecap="round" stroke-linejoin="round" x1="283.663" y1="281.487" x2="284.338" y2="278.564"/>
			</g>
		</g>
	</g>
	<g id="LINE_112_">
		<g>
			<g>
				
					<line fill="none" stroke="#333333" stroke-linecap="round" stroke-linejoin="round" x1="202.035" y1="242.227" x2="204.229" y2="244.272"/>
				
					<line fill="none" stroke="#333333" stroke-linecap="round" stroke-linejoin="round" stroke-dasharray="6.4232,6.4232" x1="208.926" y1="248.653" x2="262.949" y2="299.031"/>
				
					<line fill="none" stroke="#333333" stroke-linecap="round" stroke-linejoin="round" x1="265.298" y1="301.221" x2="267.492" y2="303.267"/>
			</g>
		</g>
	</g>
	<g id="LINE_110_">
		<g>
			<g>
				
					<line fill="none" stroke="#333333" stroke-linecap="round" stroke-linejoin="round" x1="579.595" y1="390.806" x2="576.672" y2="390.131"/>
				
					<line fill="none" stroke="#333333" stroke-linecap="round" stroke-linejoin="round" stroke-dasharray="6.1963,6.1963" x1="570.634" y1="388.737" x2="464.978" y2="364.344"/>
				
					<line fill="none" stroke="#333333" stroke-linecap="round" stroke-linejoin="round" x1="461.959" y1="363.647" x2="459.036" y2="362.973"/>
			</g>
		</g>
	</g>
	<g id="LINE_107_">
		<g>
			<g>
				
					<line fill="none" stroke="#333333" stroke-linecap="round" stroke-linejoin="round" x1="459.036" y1="362.973" x2="456.842" y2="360.927"/>
				
					<line fill="none" stroke="#333333" stroke-linecap="round" stroke-linejoin="round" stroke-dasharray="6.4232,6.4232" x1="452.145" y1="356.546" x2="398.123" y2="306.168"/>
				
					<line fill="none" stroke="#333333" stroke-linecap="round" stroke-linejoin="round" x1="395.774" y1="303.978" x2="393.58" y2="301.932"/>
			</g>
		</g>
	</g>
	<g id="LINE_104_">
		<g>
			<g>
				
					<line fill="none" stroke="#333333" stroke-linecap="round" stroke-linejoin="round" x1="396.868" y1="239.426" x2="396.193" y2="242.35"/>
				
					<line fill="none" stroke="#333333" stroke-linecap="round" stroke-linejoin="round" stroke-dasharray="6.4232,6.4232" x1="394.748" y1="248.608" x2="378.132" y2="320.582"/>
				
					<line fill="none" stroke="#333333" stroke-linecap="round" stroke-linejoin="round" x1="377.409" y1="323.711" x2="376.734" y2="326.634"/>
			</g>
		</g>
	</g>
	<g id="LINE_101_">
		<g>
			<g>
				
					<line fill="none" stroke="#333333" stroke-linecap="round" stroke-linejoin="round" x1="472.007" y1="389.91" x2="469.084" y2="389.235"/>
				
					<line fill="none" stroke="#333333" stroke-linecap="round" stroke-linejoin="round" stroke-dasharray="5.9609,5.9609" x1="463.275" y1="387.895" x2="326.785" y2="356.384"/>
				
					<line fill="none" stroke="#333333" stroke-linecap="round" stroke-linejoin="round" x1="323.881" y1="355.714" x2="320.958" y2="355.039"/>
			</g>
		</g>
	</g>
	<g id="LINE_97_">
		<g>
			<g>
				
					<line fill="none" stroke="#333333" stroke-linecap="round" stroke-linejoin="round" x1="320.958" y1="355.039" x2="323.827" y2="354.162"/>
				
					<line fill="none" stroke="#333333" stroke-linecap="round" stroke-linejoin="round" stroke-dasharray="6.4233,6.4233" x1="329.97" y1="352.284" x2="400.609" y2="330.687"/>
				
					<line fill="none" stroke="#333333" stroke-linecap="round" stroke-linejoin="round" x1="403.681" y1="329.748" x2="406.55" y2="328.871"/>
			</g>
		</g>
	</g>
	<g id="LINE_95_">
		<g>
			<g>
				
					<line fill="none" stroke="#333333" stroke-linecap="round" stroke-linejoin="round" x1="199.799" y1="272.042" x2="200.676" y2="274.911"/>
				
					<line fill="none" stroke="#333333" stroke-linecap="round" stroke-linejoin="round" stroke-dasharray="5.9609,5.9609" x1="202.418" y1="280.611" x2="243.374" y2="414.571"/>
				
					<line fill="none" stroke="#333333" stroke-linecap="round" stroke-linejoin="round" x1="244.245" y1="417.421" x2="245.122" y2="420.291"/>
			</g>
		</g>
	</g>
	<g id="LINE_90_">
		<g>
			<g>
				
					<line fill="none" stroke="#333333" stroke-linecap="round" stroke-linejoin="round" x1="245.122" y1="420.291" x2="242.928" y2="418.245"/>
				
					<line fill="none" stroke="#333333" stroke-linecap="round" stroke-linejoin="round" stroke-dasharray="6.4232,6.4232" x1="238.23" y1="413.864" x2="184.208" y2="363.487"/>
				
					<line fill="none" stroke="#333333" stroke-linecap="round" stroke-linejoin="round" x1="181.858" y1="361.296" x2="179.665" y2="359.25"/>
			</g>
		</g>
	</g>
	<g id="LINE_87_">
		<g>
			<g>
				
					<line fill="none" stroke="#333333" stroke-linecap="round" stroke-linejoin="round" x1="182.953" y1="296.745" x2="182.278" y2="299.668"/>
				
					<line fill="none" stroke="#333333" stroke-linecap="round" stroke-linejoin="round" stroke-dasharray="6.4232,6.4232" x1="180.833" y1="305.926" x2="164.217" y2="377.899"/>
				
					<line fill="none" stroke="#333333" stroke-linecap="round" stroke-linejoin="round" x1="163.495" y1="381.028" x2="162.82" y2="383.952"/>
			</g>
		</g>
	</g>
	<g id="LINE_84_">
		<g>
			<g>
				
					<line fill="none" stroke="#333333" stroke-linecap="round" stroke-linejoin="round" x1="132.272" y1="130.977" x2="133.149" y2="133.846"/>
				
					<line fill="none" stroke="#333333" stroke-linecap="round" stroke-linejoin="round" stroke-dasharray="6.1979,6.1979" x1="134.962" y1="139.772" x2="181.17" y2="290.912"/>
				
					<line fill="none" stroke="#333333" stroke-linecap="round" stroke-linejoin="round" x1="182.076" y1="293.875" x2="182.953" y2="296.745"/>
			</g>
		</g>
	</g>
	<g id="LINE_81_">
		<g>
			<g>
				
					<line fill="none" stroke="#333333" stroke-linecap="round" stroke-linejoin="round" x1="107.044" y1="412.357" x2="109.913" y2="411.48"/>
				
					<line fill="none" stroke="#333333" stroke-linecap="round" stroke-linejoin="round" stroke-dasharray="6.4232,6.4232" x1="116.056" y1="409.602" x2="186.695" y2="388.005"/>
				
					<line fill="none" stroke="#333333" stroke-linecap="round" stroke-linejoin="round" x1="189.766" y1="387.066" x2="192.635" y2="386.189"/>
			</g>
		</g>
	</g>
	<g id="LINE_76_">
		<g>
			<g>
				
					<line fill="none" stroke="#333333" stroke-linecap="round" stroke-linejoin="round" x1="472.092" y1="690.136" x2="471.215" y2="687.267"/>
				
					<line fill="none" stroke="#333333" stroke-linecap="round" stroke-linejoin="round" stroke-dasharray="5.8424,5.8424" x1="469.507" y1="681.68" x2="422.532" y2="528.032"/>
				
					<line fill="none" stroke="#333333" stroke-linecap="round" stroke-linejoin="round" x1="421.678" y1="525.239" x2="420.801" y2="522.37"/>
			</g>
		</g>
	</g>
	<g id="LINE_74_">
		<g>
			<g>
				
					<line fill="none" stroke="#333333" stroke-linecap="round" stroke-linejoin="round" x1="420.801" y1="522.37" x2="421.476" y2="519.447"/>
				
					<line fill="none" stroke="#333333" stroke-linecap="round" stroke-linejoin="round" stroke-dasharray="6.4233,6.4233" x1="422.921" y1="513.188" x2="439.537" y2="441.214"/>
				
					<line fill="none" stroke="#333333" stroke-linecap="round" stroke-linejoin="round" x1="440.26" y1="438.084" x2="440.935" y2="435.161"/>
			</g>
		</g>
	</g>
	<g id="LINE_69_">
		<g>
			<g>
				
					<line fill="none" stroke="#333333" stroke-linecap="round" stroke-linejoin="round" x1="496.709" y1="406.755" x2="493.84" y2="407.632"/>
				
					<line fill="none" stroke="#333333" stroke-linecap="round" stroke-linejoin="round" stroke-dasharray="6.4233,6.4233" x1="487.697" y1="409.511" x2="417.058" y2="431.107"/>
				
					<line fill="none" stroke="#333333" stroke-linecap="round" stroke-linejoin="round" x1="413.986" y1="432.047" x2="411.117" y2="432.924"/>
			</g>
		</g>
	</g>
	<g id="LINE_67_">
		<g>
			<g>
				
					<line fill="none" stroke="#333333" stroke-linecap="round" stroke-linejoin="round" x1="403.955" y1="547.071" x2="403.078" y2="544.202"/>
				
					<line fill="none" stroke="#333333" stroke-linecap="round" stroke-linejoin="round" stroke-dasharray="5.9609,5.9609" x1="401.335" y1="538.502" x2="360.379" y2="404.542"/>
				
					<line fill="none" stroke="#333333" stroke-linecap="round" stroke-linejoin="round" x1="359.508" y1="401.691" x2="358.631" y2="398.822"/>
			</g>
		</g>
	</g>
	<g id="LINE_66_">
		<g>
			<g>
				
					<line fill="none" stroke="#333333" stroke-linecap="round" stroke-linejoin="round" x1="358.631" y1="398.822" x2="360.825" y2="400.868"/>
				
					<line fill="none" stroke="#333333" stroke-linecap="round" stroke-linejoin="round" stroke-dasharray="6.4233,6.4233" x1="365.522" y1="405.249" x2="419.546" y2="455.628"/>
				
					<line fill="none" stroke="#333333" stroke-linecap="round" stroke-linejoin="round" x1="421.895" y1="457.818" x2="424.089" y2="459.864"/>
			</g>
		</g>
	</g>
	<g id="LINE_64_">
		<g>
			<g>
				
					<line fill="none" stroke="#333333" stroke-linecap="round" stroke-linejoin="round" x1="401.719" y1="576.888" x2="399.524" y2="574.842"/>
				
					<line fill="none" stroke="#333333" stroke-linecap="round" stroke-linejoin="round" stroke-dasharray="6.4234,6.4234" x1="394.827" y1="570.461" x2="340.803" y2="520.082"/>
				
					<line fill="none" stroke="#333333" stroke-linecap="round" stroke-linejoin="round" x1="338.454" y1="517.892" x2="336.26" y2="515.846"/>
			</g>
		</g>
	</g>
	<g id="LINE_63_">
		<g>
			<g>
				
					<line fill="none" stroke="#333333" stroke-linecap="round" stroke-linejoin="round" x1="339.551" y1="453.34" x2="338.876" y2="456.263"/>
				
					<line fill="none" stroke="#333333" stroke-linecap="round" stroke-linejoin="round" stroke-dasharray="6.4233,6.4233" x1="337.431" y1="462.521" x2="320.814" y2="534.496"/>
				
					<line fill="none" stroke="#333333" stroke-linecap="round" stroke-linejoin="round" x1="320.092" y1="537.626" x2="319.417" y2="540.549"/>
			</g>
		</g>
	</g>
	<g id="LINE_62_">
		<g>
			<g>
				
					<line fill="none" stroke="#333333" stroke-linecap="round" stroke-linejoin="round" x1="233.825" y1="566.718" x2="235.871" y2="564.523"/>
				
					<line fill="none" stroke="#333333" stroke-linecap="round" stroke-linejoin="round" stroke-dasharray="5.961,5.961" x1="239.936" y1="560.164" x2="335.472" y2="457.714"/>
				
					<line fill="none" stroke="#333333" stroke-linecap="round" stroke-linejoin="round" x1="337.505" y1="455.534" x2="339.551" y2="453.34"/>
			</g>
		</g>
	</g>
	<g id="LINE_61_">
		<g>
			<g>
				
					<line fill="none" stroke="#333333" stroke-linecap="round" stroke-linejoin="round" x1="206.885" y1="579.688" x2="207.56" y2="576.765"/>
				
					<line fill="none" stroke="#333333" stroke-linecap="round" stroke-linejoin="round" stroke-dasharray="6.4232,6.4232" x1="209.004" y1="570.506" x2="225.621" y2="498.533"/>
				
					<line fill="none" stroke="#333333" stroke-linecap="round" stroke-linejoin="round" x1="226.344" y1="495.403" x2="227.019" y2="492.48"/>
			</g>
		</g>
	</g>
	<g id="LINE_60_">
		<g>
			<g>
				
					<line fill="none" stroke="#333333" stroke-linecap="round" stroke-linejoin="round" x1="282.794" y1="464.074" x2="279.926" y2="464.951"/>
				
					<line fill="none" stroke="#333333" stroke-linecap="round" stroke-linejoin="round" stroke-dasharray="6.4232,6.4232" x1="273.783" y1="466.829" x2="203.145" y2="488.427"/>
				
					<line fill="none" stroke="#333333" stroke-linecap="round" stroke-linejoin="round" x1="200.073" y1="489.366" x2="197.205" y2="490.243"/>
			</g>
		</g>
	</g>
	<g id="LINE_59_">
		<g>
			<g>
				
					<line fill="none" stroke="#333333" stroke-linecap="round" stroke-linejoin="round" x1="131.746" y1="429.202" x2="134.669" y2="429.877"/>
				
					<line fill="none" stroke="#333333" stroke-linecap="round" stroke-linejoin="round" stroke-dasharray="5.9609,5.9609" x1="140.478" y1="431.218" x2="276.967" y2="462.729"/>
				
					<line fill="none" stroke="#333333" stroke-linecap="round" stroke-linejoin="round" x1="279.871" y1="463.399" x2="282.794" y2="464.074"/>
			</g>
		</g>
	</g>
	<g id="LINE_58_">
		<g>
			<g>
				
					<line fill="none" stroke="#333333" stroke-linecap="round" stroke-linejoin="round" x1="20.253" y1="427.402" x2="23.176" y2="428.077"/>
				
					<line fill="none" stroke="#333333" stroke-linecap="round" stroke-linejoin="round" stroke-dasharray="5.797,5.797" x1="28.825" y1="429.382" x2="138.969" y2="454.813"/>
				
					<line fill="none" stroke="#333333" stroke-linecap="round" stroke-linejoin="round" x1="141.793" y1="455.466" x2="144.716" y2="456.141"/>
			</g>
		</g>
	</g>
	<g id="LINE_57_">
		<g>
			<g>
				
					<line fill="none" stroke="#333333" stroke-linecap="round" stroke-linejoin="round" x1="144.716" y1="456.141" x2="146.91" y2="458.187"/>
				
					<line fill="none" stroke="#333333" stroke-linecap="round" stroke-linejoin="round" stroke-dasharray="6.4233,6.4233" x1="151.608" y1="462.567" x2="205.631" y2="512.945"/>
				
					<line fill="none" stroke="#333333" stroke-linecap="round" stroke-linejoin="round" x1="207.98" y1="515.136" x2="210.174" y2="517.182"/>
			</g>
		</g>
	</g>
	<g id="LINE_56_">
		<g>
			<g>
				
					<line fill="none" stroke="#333333" stroke-linecap="round" stroke-linejoin="round" x1="150.631" y1="690.136" x2="152.677" y2="687.941"/>
				
					<line fill="none" stroke="#333333" stroke-linecap="round" stroke-linejoin="round" stroke-dasharray="5.9148,5.9148" x1="156.711" y1="683.616" x2="259.577" y2="573.31"/>
				
					<line fill="none" stroke="#333333" stroke-linecap="round" stroke-linejoin="round" x1="261.594" y1="571.147" x2="263.64" y2="568.953"/>
			</g>
		</g>
	</g>
	<g id="LINE_55_">
		<g>
			<g>
				
					<line fill="none" stroke="#333333" stroke-linecap="round" stroke-linejoin="round" x1="263.64" y1="568.953" x2="266.509" y2="568.076"/>
				
					<line fill="none" stroke="#333333" stroke-linecap="round" stroke-linejoin="round" stroke-dasharray="6.4232,6.4232" x1="272.651" y1="566.198" x2="343.29" y2="544.603"/>
				
					<line fill="none" stroke="#333333" stroke-linecap="round" stroke-linejoin="round" x1="346.361" y1="543.663" x2="349.23" y2="542.786"/>
			</g>
		</g>
	</g>
	<g id="LINE_54_">
		<g>
			<g>
				
					<line fill="none" stroke="#333333" stroke-linecap="round" stroke-linejoin="round" x1="189.064" y1="215.288" x2="190.366" y2="217.991"/>
				
					<line fill="none" stroke="#333333" stroke-linecap="round" stroke-linejoin="round" stroke-dasharray="4.7797,4.7797" x1="192.439" y1="222.297" x2="199.696" y2="237.37"/>
				
					<line fill="none" stroke="#333333" stroke-linecap="round" stroke-linejoin="round" x1="200.733" y1="239.523" x2="202.035" y2="242.227"/>
			</g>
		</g>
	</g>
	<g id="LINE_53_">
		<g>
			<g>
				
					<line fill="none" stroke="#333333" stroke-linecap="round" stroke-linejoin="round" x1="340.113" y1="250.16" x2="343.104" y2="250.384"/>
				
					<line fill="none" stroke="#333333" stroke-linecap="round" stroke-linejoin="round" stroke-dasharray="4.78,4.78" x1="347.871" y1="250.742" x2="364.555" y2="251.993"/>
				
					<line fill="none" stroke="#333333" stroke-linecap="round" stroke-linejoin="round" x1="366.938" y1="252.172" x2="369.93" y2="252.396"/>
			</g>
		</g>
	</g>
	<g id="LINE_52_">
		<g>
			<g>
				
					<line fill="none" stroke="#333333" stroke-linecap="round" stroke-linejoin="round" x1="369.93" y1="252.396" x2="372.633" y2="251.095"/>
				
					<line fill="none" stroke="#333333" stroke-linecap="round" stroke-linejoin="round" stroke-dasharray="4.7797,4.7797" x1="376.939" y1="249.021" x2="392.012" y2="241.765"/>
				
					<line fill="none" stroke="#333333" stroke-linecap="round" stroke-linejoin="round" x1="394.165" y1="240.728" x2="396.868" y2="239.426"/>
			</g>
		</g>
	</g>
	<g id="LINE_51_">
		<g>
			<g>
				
					<line fill="none" stroke="#333333" stroke-linecap="round" stroke-linejoin="round" x1="202.035" y1="242.227" x2="201.811" y2="245.218"/>
				
					<line fill="none" stroke="#333333" stroke-linecap="round" stroke-linejoin="round" stroke-dasharray="4.7797,4.7797" x1="201.453" y1="249.984" x2="200.202" y2="266.667"/>
				
					<line fill="none" stroke="#333333" stroke-linecap="round" stroke-linejoin="round" x1="200.023" y1="269.05" x2="199.799" y2="272.042"/>
			</g>
		</g>
	</g>
	<g id="LINE_50_">
		<g>
			<g>
				
					<line fill="none" stroke="#333333" stroke-linecap="round" stroke-linejoin="round" x1="459.036" y1="362.973" x2="460.338" y2="365.676"/>
				
					<line fill="none" stroke="#333333" stroke-linecap="round" stroke-linejoin="round" stroke-dasharray="4.7795,4.7795" x1="462.411" y1="369.982" x2="469.669" y2="385.054"/>
				
					<line fill="none" stroke="#333333" stroke-linecap="round" stroke-linejoin="round" x1="470.705" y1="387.207" x2="472.007" y2="389.91"/>
			</g>
		</g>
	</g>
	<g id="LINE_49_">
		<g>
			<g>
				
					<line fill="none" stroke="#333333" stroke-linecap="round" stroke-linejoin="round" x1="413.713" y1="214.724" x2="412.022" y2="217.202"/>
				
					<line fill="none" stroke="#333333" stroke-linecap="round" stroke-linejoin="round" stroke-dasharray="4.7799,4.7799" x1="409.33" y1="221.151" x2="399.904" y2="234.973"/>
				
					<line fill="none" stroke="#333333" stroke-linecap="round" stroke-linejoin="round" x1="398.559" y1="236.948" x2="396.868" y2="239.426"/>
			</g>
		</g>
	</g>
	<g id="LINE_48_">
		<g>
			<g>
				
					<line fill="none" stroke="#333333" stroke-linecap="round" stroke-linejoin="round" x1="472.007" y1="389.91" x2="474.485" y2="391.601"/>
				
					<line fill="none" stroke="#333333" stroke-linecap="round" stroke-linejoin="round" stroke-dasharray="4.7798,4.7798" x1="478.435" y1="394.293" x2="492.256" y2="403.719"/>
				
					<line fill="none" stroke="#333333" stroke-linecap="round" stroke-linejoin="round" x1="494.23" y1="405.065" x2="496.709" y2="406.755"/>
			</g>
		</g>
	</g>
	<g id="LINE_47_">
		<g>
			<g>
				
					<line fill="none" stroke="#333333" stroke-linecap="round" stroke-linejoin="round" x1="199.799" y1="272.042" x2="198.108" y2="274.52"/>
				
					<line fill="none" stroke="#333333" stroke-linecap="round" stroke-linejoin="round" stroke-dasharray="4.78,4.78" x1="195.416" y1="278.469" x2="185.99" y2="292.292"/>
				
					<line fill="none" stroke="#333333" stroke-linecap="round" stroke-linejoin="round" x1="184.644" y1="294.266" x2="182.953" y2="296.745"/>
			</g>
		</g>
	</g>
	<g id="LINE_46_">
		<g>
			<g>
				
					<line fill="none" stroke="#333333" stroke-linecap="round" stroke-linejoin="round" x1="77.229" y1="410.122" x2="80.22" y2="410.346"/>
				
					<line fill="none" stroke="#333333" stroke-linecap="round" stroke-linejoin="round" stroke-dasharray="4.7798,4.7798" x1="84.986" y1="410.703" x2="101.669" y2="411.954"/>
				
					<line fill="none" stroke="#333333" stroke-linecap="round" stroke-linejoin="round" x1="104.052" y1="412.133" x2="107.044" y2="412.357"/>
			</g>
		</g>
	</g>
	<g id="LINE_45_">
		<g>
			<g>
				
					<line fill="none" stroke="#333333" stroke-linecap="round" stroke-linejoin="round" x1="107.044" y1="412.357" x2="109.522" y2="414.047"/>
				
					<line fill="none" stroke="#333333" stroke-linecap="round" stroke-linejoin="round" stroke-dasharray="4.7798,4.7798" x1="113.472" y1="416.74" x2="127.293" y2="426.165"/>
				
					<line fill="none" stroke="#333333" stroke-linecap="round" stroke-linejoin="round" x1="129.268" y1="427.512" x2="131.746" y2="429.202"/>
			</g>
		</g>
	</g>
	<g id="LINE_44_">
		<g>
			<g>
				
					<line fill="none" stroke="#333333" stroke-linecap="round" stroke-linejoin="round" x1="420.801" y1="522.37" x2="419.11" y2="524.849"/>
				
					<line fill="none" stroke="#333333" stroke-linecap="round" stroke-linejoin="round" stroke-dasharray="4.7797,4.7797" x1="416.418" y1="528.798" x2="406.992" y2="542.618"/>
				
					<line fill="none" stroke="#333333" stroke-linecap="round" stroke-linejoin="round" x1="405.646" y1="544.593" x2="403.955" y2="547.071"/>
			</g>
		</g>
	</g>
	<g id="LINE_43_">
		<g>
			<g>
				
					<line fill="none" stroke="#333333" stroke-linecap="round" stroke-linejoin="round" x1="526.525" y1="408.994" x2="523.534" y2="408.769"/>
				
					<line fill="none" stroke="#333333" stroke-linecap="round" stroke-linejoin="round" stroke-dasharray="4.7801,4.7801" x1="518.768" y1="408.411" x2="502.084" y2="407.159"/>
				
					<line fill="none" stroke="#333333" stroke-linecap="round" stroke-linejoin="round" x1="499.7" y1="406.98" x2="496.709" y2="406.755"/>
			</g>
		</g>
	</g>
	<g id="LINE_42_">
		<g>
			<g>
				
					<line fill="none" stroke="#333333" stroke-linecap="round" stroke-linejoin="round" x1="403.955" y1="547.071" x2="403.73" y2="550.063"/>
				
					<line fill="none" stroke="#333333" stroke-linecap="round" stroke-linejoin="round" stroke-dasharray="4.78,4.78" x1="403.373" y1="554.829" x2="402.122" y2="571.513"/>
				
					<line fill="none" stroke="#333333" stroke-linecap="round" stroke-linejoin="round" x1="401.943" y1="573.896" x2="401.719" y2="576.888"/>
			</g>
		</g>
	</g>
	<g id="LINE_41_">
		<g>
			<g>
				
					<line fill="none" stroke="#333333" stroke-linecap="round" stroke-linejoin="round" x1="401.719" y1="576.888" x2="403.021" y2="579.591"/>
				
					<line fill="none" stroke="#333333" stroke-linecap="round" stroke-linejoin="round" stroke-dasharray="4.7796,4.7796" x1="405.094" y1="583.897" x2="412.351" y2="598.97"/>
				
					<line fill="none" stroke="#333333" stroke-linecap="round" stroke-linejoin="round" x1="413.387" y1="601.123" x2="414.688" y2="603.826"/>
			</g>
		</g>
	</g>
	<g id="LINE_40_">
		<g>
			<g>
				
					<line fill="none" stroke="#333333" stroke-linecap="round" stroke-linejoin="round" x1="233.825" y1="566.718" x2="236.816" y2="566.942"/>
				
					<line fill="none" stroke="#333333" stroke-linecap="round" stroke-linejoin="round" stroke-dasharray="4.7798,4.7798" x1="241.583" y1="567.3" x2="258.265" y2="568.55"/>
				
					<line fill="none" stroke="#333333" stroke-linecap="round" stroke-linejoin="round" x1="260.648" y1="568.729" x2="263.64" y2="568.953"/>
			</g>
		</g>
	</g>
	<g id="LINE_39_">
		<g>
			<g>
				
					<line fill="none" stroke="#333333" stroke-linecap="round" stroke-linejoin="round" x1="233.825" y1="566.718" x2="231.122" y2="568.02"/>
				
					<line fill="none" stroke="#333333" stroke-linecap="round" stroke-linejoin="round" stroke-dasharray="4.7799,4.7799" x1="226.815" y1="570.093" x2="211.741" y2="577.35"/>
				
					<line fill="none" stroke="#333333" stroke-linecap="round" stroke-linejoin="round" x1="209.588" y1="578.386" x2="206.885" y2="579.688"/>
			</g>
		</g>
	</g>
	<g id="LINE_38_">
		<g>
			<g>
				
					<line fill="none" stroke="#333333" stroke-linecap="round" stroke-linejoin="round" x1="206.885" y1="579.688" x2="205.195" y2="582.166"/>
				
					<line fill="none" stroke="#333333" stroke-linecap="round" stroke-linejoin="round" stroke-dasharray="4.7798,4.7798" x1="202.502" y1="586.115" x2="193.078" y2="599.938"/>
				
					<line fill="none" stroke="#333333" stroke-linecap="round" stroke-linejoin="round" x1="191.731" y1="601.912" x2="190.041" y2="604.391"/>
			</g>
		</g>
	</g>
	<g id="LINE_37_">
		<g>
			<g>
				
					<line fill="none" stroke="#333333" stroke-linecap="round" stroke-linejoin="round" x1="131.746" y1="429.202" x2="133.047" y2="431.905"/>
				
					<line fill="none" stroke="#333333" stroke-linecap="round" stroke-linejoin="round" stroke-dasharray="4.7797,4.7797" x1="135.121" y1="436.212" x2="142.378" y2="451.284"/>
				
					<line fill="none" stroke="#333333" stroke-linecap="round" stroke-linejoin="round" x1="143.415" y1="453.438" x2="144.716" y2="456.141"/>
			</g>
		</g>
	</g>
	
		<path fill="none" stroke="#333333" stroke-linecap="round" stroke-linejoin="round" stroke-miterlimit="10" stroke-dasharray="6" d="
		M282.794,464.074c14.729,0.884,34.673,0.603,56.756-10.734"/>
	
		<path fill="none" stroke="#333333" stroke-linecap="round" stroke-linejoin="round" stroke-miterlimit="10" stroke-dasharray="6" d="
		M339.551,453.34c8.127-12.313,17.856-29.727,19.08-54.518"/>
	
		<path fill="none" stroke="#333333" stroke-linecap="round" stroke-linejoin="round" stroke-miterlimit="10" stroke-dasharray="6" d="
		M358.631,398.822c-6.599-13.196-16.816-30.328-37.673-43.784"/>
	
		<path fill="none" stroke="#333333" stroke-linecap="round" stroke-linejoin="round" stroke-miterlimit="10" stroke-dasharray="6" d="
		M320.958,355.038c-14.729-0.883-34.673-0.6-56.754,10.735"/>
	
		<path fill="none" stroke="#333333" stroke-linecap="round" stroke-linejoin="round" stroke-miterlimit="10" stroke-dasharray="6" d="
		M264.204,365.773c-8.13,12.313-17.858,29.729-19.082,54.517"/>
	
		<path fill="none" stroke="#333333" stroke-linecap="round" stroke-linejoin="round" stroke-miterlimit="10" stroke-dasharray="6" d="
		M245.122,420.291c6.6,13.198,16.815,30.33,37.672,43.784"/>
	<g>
		<g>
			<path fill="none" stroke="#333333" stroke-linecap="round" stroke-linejoin="round" d="M414.689,603.826
				c-1.002-0.138-1.992-0.273-2.973-0.406"/>
			<path fill="none" stroke="#333333" stroke-linecap="round" stroke-linejoin="round" stroke-dasharray="6.0479,6.0479" d="
				M405.723,602.611c-18.067-2.425-32.314-4.277-44.699-7.571"/>
			<path fill="none" stroke="#333333" stroke-linecap="round" stroke-linejoin="round" d="M358.111,594.228
				c-0.966-0.282-1.92-0.574-2.865-0.878"/>
		</g>
	</g>
	<g>
		<g>
			<path fill="none" stroke="#333333" stroke-linecap="round" stroke-linejoin="round" d="M526.523,408.994
				c-0.62,0.799-1.232,1.589-1.838,2.371"/>
			<path fill="none" stroke="#333333" stroke-linecap="round" stroke-linejoin="round" stroke-dasharray="6.0478,6.0478" d="
				M520.988,416.151c-11.134,14.435-19.859,25.847-28.905,34.927"/>
			<path fill="none" stroke="#333333" stroke-linecap="round" stroke-linejoin="round" d="M489.924,453.194
				c-0.727,0.694-1.457,1.375-2.192,2.042"/>
		</g>
	</g>
	<g>
		<g>
			<path fill="none" stroke="#333333" stroke-linecap="round" stroke-linejoin="round" d="M413.713,214.724
				c0.382,0.937,0.76,1.862,1.134,2.777"/>
			<path fill="none" stroke="#333333" stroke-linecap="round" stroke-linejoin="round" stroke-dasharray="6.0481,6.0481" d="
				M417.144,223.097c6.934,16.859,12.455,30.123,15.796,42.497"/>
			<path fill="none" stroke="#333333" stroke-linecap="round" stroke-linejoin="round" d="M433.692,268.522
				c0.239,0.978,0.463,1.95,0.673,2.92"/>
		</g>
	</g>
	<g>
		<g>
			<path fill="none" stroke="#333333" stroke-linecap="round" stroke-linejoin="round" d="M189.064,215.288
				c1.002,0.138,1.993,0.273,2.973,0.406"/>
			<path fill="none" stroke="#333333" stroke-linecap="round" stroke-linejoin="round" stroke-dasharray="6.048,6.048" d="
				M198.031,216.503c18.067,2.424,32.314,4.274,44.7,7.57"/>
			<path fill="none" stroke="#333333" stroke-linecap="round" stroke-linejoin="round" d="M245.644,224.885
				c0.966,0.282,1.92,0.574,2.865,0.878"/>
		</g>
	</g>
	<g>
		<g>
			<path fill="none" stroke="#333333" stroke-linecap="round" stroke-linejoin="round" d="M77.229,410.119
				c0.62-0.799,1.233-1.589,1.838-2.371"/>
			<path fill="none" stroke="#333333" stroke-linecap="round" stroke-linejoin="round" stroke-dasharray="6.0478,6.0478" d="
				M82.765,402.961c11.133-14.435,19.859-25.846,28.906-34.926"/>
			<path fill="none" stroke="#333333" stroke-linecap="round" stroke-linejoin="round" d="M113.83,365.919
				c0.727-0.695,1.458-1.376,2.193-2.042"/>
		</g>
	</g>
	<g>
		<g>
			<path fill="none" stroke="#333333" stroke-linecap="round" stroke-linejoin="round" d="M190.041,604.389
				c-0.382-0.937-0.76-1.862-1.134-2.777"/>
			<path fill="none" stroke="#333333" stroke-linecap="round" stroke-linejoin="round" stroke-dasharray="6.0479,6.0479" d="
				M186.61,596.016c-6.935-16.858-12.456-30.121-15.795-42.496"/>
			<path fill="none" stroke="#333333" stroke-linecap="round" stroke-linejoin="round" d="M170.062,550.592
				c-0.238-0.977-0.462-1.95-0.672-2.92"/>
		</g>
	</g>
</g>
<g id="MountainLine">
	<g id="LINE_147_">
		
			<line fill="none" stroke="#333333" stroke-linecap="round" stroke-linejoin="round" stroke-miterlimit="10" x1="189.064" y1="215.288" x2="163.289" y2="130.978"/>
	</g>
	<g id="LINE_146_">
		
			<line fill="none" stroke="#333333" stroke-linecap="round" stroke-linejoin="round" stroke-miterlimit="10" x1="413.713" y1="214.723" x2="491.806" y2="130.977"/>
	</g>
	<g id="LINE_145_">
		
			<line fill="none" stroke="#333333" stroke-linecap="round" stroke-linejoin="round" stroke-miterlimit="10" x1="77.229" y1="410.119" x2="20.256" y2="396.966"/>
	</g>
	<g id="LINE_144_">
		
			<line fill="none" stroke="#333333" stroke-linecap="round" stroke-linejoin="round" stroke-miterlimit="10" x1="526.523" y1="408.994" x2="579.599" y2="421.247"/>
	</g>
	<g id="LINE_143_">
		
			<line fill="none" stroke="#333333" stroke-linecap="round" stroke-linejoin="round" stroke-miterlimit="10" x1="190.041" y1="604.391" x2="110.072" y2="690.136"/>
	</g>
	<g id="LINE_142_">
		
			<line fill="none" stroke="#333333" stroke-linecap="round" stroke-linejoin="round" stroke-miterlimit="10" x1="414.688" y1="603.826" x2="441.078" y2="690.144"/>
	</g>
	<g id="LINE_141_">
		
			<line fill="none" stroke="#333333" stroke-linecap="round" stroke-linejoin="round" stroke-miterlimit="10" x1="254.522" y1="276.328" x2="267.492" y2="303.267"/>
	</g>
	<g id="LINE_140_">
		
			<line fill="none" stroke="#333333" stroke-linecap="round" stroke-linejoin="round" stroke-miterlimit="10" x1="189.064" y1="215.288" x2="182.953" y2="296.745"/>
	</g>
	<g id="LINE_139_">
		
			<line fill="none" stroke="#333333" stroke-linecap="round" stroke-linejoin="round" stroke-miterlimit="10" x1="340.113" y1="250.16" x2="413.713" y2="214.724"/>
	</g>
	<g id="LINE_138_">
		
			<line fill="none" stroke="#333333" stroke-linecap="round" stroke-linejoin="round" stroke-miterlimit="10" x1="254.522" y1="276.328" x2="284.338" y2="278.564"/>
	</g>
	<g id="LINE_137_">
		
			<line fill="none" stroke="#333333" stroke-linecap="round" stroke-linejoin="round" stroke-miterlimit="10" x1="264.203" y1="365.773" x2="291.143" y2="352.802"/>
	</g>
	<g id="LINE_136_">
		
			<line fill="none" stroke="#333333" stroke-linecap="round" stroke-linejoin="round" stroke-miterlimit="10" x1="284.338" y1="278.564" x2="267.492" y2="303.267"/>
	</g>
	<g id="LINE_135_">
		
			<line fill="none" stroke="#333333" stroke-linecap="round" stroke-linejoin="round" stroke-miterlimit="10" x1="247.359" y1="390.476" x2="245.122" y2="420.291"/>
	</g>
	<g id="LINE_134_">
		
			<line fill="none" stroke="#333333" stroke-linecap="round" stroke-linejoin="round" stroke-miterlimit="10" x1="459.036" y1="362.973" x2="526.525" y2="408.994"/>
	</g>
	<g id="LINE_133_">
		
			<line fill="none" stroke="#333333" stroke-linecap="round" stroke-linejoin="round" stroke-miterlimit="10" x1="393.58" y1="301.932" x2="406.55" y2="328.871"/>
	</g>
	<g id="LINE_132_">
		
			<line fill="none" stroke="#333333" stroke-linecap="round" stroke-linejoin="round" stroke-miterlimit="10" x1="393.58" y1="301.932" x2="376.734" y2="326.634"/>
	</g>
	<g id="LINE_131_">
		
			<line fill="none" stroke="#333333" stroke-linecap="round" stroke-linejoin="round" stroke-miterlimit="10" x1="376.734" y1="326.634" x2="406.55" y2="328.871"/>
	</g>
	<g id="LINE_130_">
		
			<line fill="none" stroke="#333333" stroke-linecap="round" stroke-linejoin="round" stroke-miterlimit="10" x1="320.958" y1="355.039" x2="345.66" y2="371.883"/>
	</g>
	<g id="LINE_129_">
		
			<line fill="none" stroke="#333333" stroke-linecap="round" stroke-linejoin="round" stroke-miterlimit="10" x1="179.665" y1="359.25" x2="192.635" y2="386.189"/>
	</g>
	<g id="LINE_128_">
		
			<line fill="none" stroke="#333333" stroke-linecap="round" stroke-linejoin="round" stroke-miterlimit="10" x1="179.665" y1="359.25" x2="162.82" y2="383.952"/>
	</g>
	<g id="LINE_126_">
		
			<line fill="none" stroke="#333333" stroke-linecap="round" stroke-linejoin="round" stroke-miterlimit="10" x1="162.82" y1="383.952" x2="192.635" y2="386.189"/>
	</g>
	<g id="LINE_124_">
		
			<line fill="none" stroke="#333333" stroke-linecap="round" stroke-linejoin="round" stroke-miterlimit="10" x1="77.229" y1="410.122" x2="144.716" y2="456.141"/>
	</g>
	<g id="LINE_123_">
		
			<line fill="none" stroke="#333333" stroke-linecap="round" stroke-linejoin="round" stroke-miterlimit="10" x1="258.094" y1="447.229" x2="282.794" y2="464.074"/>
	</g>
	<g id="LINE_122_">
		
			<line fill="none" stroke="#333333" stroke-linecap="round" stroke-linejoin="round" stroke-miterlimit="10" x1="420.801" y1="522.37" x2="414.688" y2="603.826"/>
	</g>
	<g id="LINE_121_">
		
			<line fill="none" stroke="#333333" stroke-linecap="round" stroke-linejoin="round" stroke-miterlimit="10" x1="440.935" y1="435.161" x2="424.089" y2="459.864"/>
	</g>
	<g id="LINE_119_">
		
			<line fill="none" stroke="#333333" stroke-linecap="round" stroke-linejoin="round" stroke-miterlimit="10" x1="440.935" y1="435.161" x2="411.117" y2="432.924"/>
	</g>
	<g id="LINE_116_">
		
			<line fill="none" stroke="#333333" stroke-linecap="round" stroke-linejoin="round" stroke-miterlimit="10" x1="411.117" y1="432.924" x2="424.089" y2="459.864"/>
	</g>
	<g id="LINE_115_">
		
			<line fill="none" stroke="#333333" stroke-linecap="round" stroke-linejoin="round" stroke-miterlimit="10" x1="358.631" y1="398.822" x2="356.394" y2="428.639"/>
	</g>
	<g id="LINE_114_">
		
			<line fill="none" stroke="#333333" stroke-linecap="round" stroke-linejoin="round" stroke-miterlimit="10" x1="336.26" y1="515.846" x2="349.23" y2="542.786"/>
	</g>
	<g id="LINE_113_">
		
			<line fill="none" stroke="#333333" stroke-linecap="round" stroke-linejoin="round" stroke-miterlimit="10" x1="336.26" y1="515.846" x2="319.417" y2="540.549"/>
	</g>
	<g id="LINE_111_">
		
			<line fill="none" stroke="#333333" stroke-linecap="round" stroke-linejoin="round" stroke-miterlimit="10" x1="319.417" y1="540.549" x2="349.23" y2="542.786"/>
	</g>
	<g id="LINE_109_">
		
			<line fill="none" stroke="#333333" stroke-linecap="round" stroke-linejoin="round" stroke-miterlimit="10" x1="339.551" y1="453.34" x2="312.611" y2="466.311"/>
	</g>
	<g id="LINE_108_">
		
			<line fill="none" stroke="#333333" stroke-linecap="round" stroke-linejoin="round" stroke-miterlimit="10" x1="227.019" y1="492.48" x2="210.174" y2="517.182"/>
	</g>
	<g id="LINE_106_">
		
			<line fill="none" stroke="#333333" stroke-linecap="round" stroke-linejoin="round" stroke-miterlimit="10" x1="227.019" y1="492.48" x2="197.205" y2="490.243"/>
	</g>
	<g id="LINE_105_">
		
			<line fill="none" stroke="#333333" stroke-linecap="round" stroke-linejoin="round" stroke-miterlimit="10" x1="197.205" y1="490.243" x2="210.174" y2="517.182"/>
	</g>
	<g id="LINE_103_">
		
			<line fill="none" stroke="#333333" stroke-linecap="round" stroke-linejoin="round" stroke-miterlimit="10" x1="190.041" y1="604.391" x2="263.64" y2="568.953"/>
	</g>
	<path fill="none" stroke="#333333" stroke-linecap="round" stroke-linejoin="round" stroke-miterlimit="10" d="M526.523,408.994
		c-37.671,17.465-57.41,28.24-85.589,26.167"/>
	<path fill="none" stroke="#333333" stroke-linecap="round" stroke-linejoin="round" stroke-miterlimit="10" d="M345.66,371.885
		c33.963,23.89,53.164,35.598,65.457,61.039"/>
	<path fill="none" stroke="#333333" stroke-linecap="round" stroke-linejoin="round" stroke-miterlimit="10" d="M403.956,547.071
		c3.709-41.356,4.249-63.842,20.133-87.207"/>
	<path fill="none" stroke="#333333" stroke-linecap="round" stroke-linejoin="round" stroke-miterlimit="10" d="M356.394,428.639
		c-3.708,41.358-4.248,63.842-20.134,87.207"/>
	<path fill="none" stroke="#333333" stroke-linecap="round" stroke-linejoin="round" stroke-miterlimit="10" d="M233.825,566.718
		c37.671-17.469,57.413-28.242,85.591-26.169"/>
	<path fill="none" stroke="#333333" stroke-linecap="round" stroke-linejoin="round" stroke-miterlimit="10" d="M414.689,603.826
		c-33.962-23.893-53.164-35.601-65.458-61.042"/>
	<path fill="none" stroke="#333333" stroke-linecap="round" stroke-linejoin="round" stroke-miterlimit="10" d="M131.746,429.202
		c33.963,23.89,53.164,35.599,65.459,61.041"/>
	<path fill="none" stroke="#333333" stroke-linecap="round" stroke-linejoin="round" stroke-miterlimit="10" d="M190.041,604.389
		c3.708-41.357,4.249-63.84,20.133-87.207"/>
	<path fill="none" stroke="#333333" stroke-linecap="round" stroke-linejoin="round" stroke-miterlimit="10" d="M312.611,466.311
		c-37.672,17.465-57.414,28.242-85.593,26.17"/>
	<path fill="none" stroke="#333333" stroke-linecap="round" stroke-linejoin="round" stroke-miterlimit="10" d="M77.229,410.122
		c37.671-17.468,57.412-28.243,85.591-26.17"/>
	<path fill="none" stroke="#333333" stroke-linecap="round" stroke-linejoin="round" stroke-miterlimit="10" d="M258.094,447.229
		c-33.962-23.89-53.165-35.599-65.458-61.04"/>
	<path fill="none" stroke="#333333" stroke-linecap="round" stroke-linejoin="round" stroke-miterlimit="10" d="M199.798,272.042
		c-3.709,41.357-4.249,63.841-20.133,87.209"/>
	<path fill="none" stroke="#333333" stroke-linecap="round" stroke-linejoin="round" stroke-miterlimit="10" d="M496.709,406.756
		c-39.836,0.589-126.347-18.029-151.049-34.871"/>
	<path fill="none" stroke="#333333" stroke-linecap="round" stroke-linejoin="round" stroke-miterlimit="10" d="M206.885,579.688
		c19.409-34.792,78.786-100.407,105.727-113.377"/>
	<path fill="none" stroke="#333333" stroke-linecap="round" stroke-linejoin="round" stroke-miterlimit="10" d="M401.718,576.888
		c-20.429-34.206-47.563-118.436-45.324-148.249"/>
	<path fill="none" stroke="#333333" stroke-linecap="round" stroke-linejoin="round" stroke-miterlimit="10" d="M107.044,412.357
		c39.837-0.589,126.346,18.028,151.05,34.872"/>
	<path fill="none" stroke="#333333" stroke-linecap="round" stroke-linejoin="round" stroke-miterlimit="10" d="M396.868,239.425
		c-19.409,34.795-78.787,100.407-105.725,113.376"/>
	<path fill="none" stroke="#333333" stroke-linecap="round" stroke-linejoin="round" stroke-miterlimit="10" d="M202.036,242.227
		c20.428,34.206,47.561,118.433,45.323,148.249"/>
	<path fill="none" stroke="#333333" stroke-linecap="round" stroke-linejoin="round" stroke-miterlimit="10" d="M247.359,390.476
		c3.708-41.358,4.249-63.841,20.133-87.208"/>
	<path fill="none" stroke="#333333" stroke-linecap="round" stroke-linejoin="round" stroke-miterlimit="10" d="M369.93,252.396
		c-37.672,17.467-57.412,28.241-85.592,26.168"/>
	<path fill="none" stroke="#333333" stroke-linecap="round" stroke-linejoin="round" stroke-miterlimit="10" d="M189.064,215.288
		c33.962,23.891,53.163,35.6,65.458,61.04"/>
	<path fill="none" stroke="#333333" stroke-linecap="round" stroke-linejoin="round" stroke-miterlimit="10" d="M472.007,389.912
		c-33.962-23.893-53.163-35.601-65.457-61.041"/>
	<path fill="none" stroke="#333333" stroke-linecap="round" stroke-linejoin="round" stroke-miterlimit="10" d="M413.713,214.724
		c-3.708,41.357-4.249,63.84-20.133,87.208"/>
	<path fill="none" stroke="#333333" stroke-linecap="round" stroke-linejoin="round" stroke-miterlimit="10" d="M291.143,352.803
		c37.67-17.466,57.412-28.241,85.591-26.168"/>
</g>
<g id="Text">
	<text transform="matrix(1 0 0 1 432.3096 815.2715)" font-family="'ArialMT'" font-size="14">(c) 2016 Jun Mitani</text>
	<text transform="matrix(1 0 0 1 31.7119 42.1099)" font-family="'ArialMT'" font-size="18">Six Blade Pinwheel</text>
</g>
</svg>
