  0
SECTION
  2
HEADER
  9
$ACADVER
  1
AC1012
  9
$DWGCODEPAGE
  3
ansi_932
  9
$INSBASE
 10
0.0
 20
0.0
 30
0.0
  9
$EXTMIN
 10
1.000000000000000E+20
 20
1.000000000000000E+20
 30
1.000000000000000E+20
  9
$EXTMAX
 10
-1.000000000000000E+20
 20
-1.000000000000000E+20
 30
-1.000000000000000E+20
  9
$LIMMIN
 10
0.0
 20
0.0
  9
$LIMMAX
 10
12.0
 20
9.0
  9
$ORTHOMODE
 70
     0
  9
$REGENMODE
 70
     1
  9
$FILLMODE
 70
     1
  9
$QTEXTMODE
 70
     0
  9
$MIRRTEXT
 70
     1
  9
$DRAGMODE
 70
     2
  9
$LTSCALE
 40
1.0
  9
$OSMODE
 70
    37
  9
$ATTMODE
 70
     1
  9
$TEXTSIZE
 40
0.2
  9
$TRACEWID
 40
0.05
  9
$TEXTSTYLE
  7
STANDARD
  9
$CLAYER
  8
0
  9
$CELTYPE
  6
BYLAYER
  9
$CECOLOR
 62
   256
  9
$CELTSCALE
 40
1.0
  9
$DELOBJ
 70
     1
  9
$DISPSILH
 70
     0
  9
$DIMSCALE
 40
1.0
  9
$DIMASZ
 40
0.18
  9
$DIMEXO
 40
0.0625
  9
$DIMDLI
 40
0.38
  9
$DIMRND
 40
0.0
  9
$DIMDLE
 40
0.0
  9
$DIMEXE
 40
0.18
  9
$DIMTP
 40
0.0
  9
$DIMTM
 40
0.0
  9
$DIMTXT
 40
0.18
  9
$DIMCEN
 40
0.09
  9
$DIMTSZ
 40
0.0
  9
$DIMTOL
 70
     0
  9
$DIMLIM
 70
     0
  9
$DIMTIH
 70
     1
  9
$DIMTOH
 70
     1
  9
$DIMSE1
 70
     0
  9
$DIMSE2
 70
     0
  9
$DIMTAD
 70
     0
  9
$DIMZIN
 70
     0
  9
$DIMBLK
  1

  9
$DIMASO
 70
     1
  9
$DIMSHO
 70
     1
  9
$DIMPOST
  1

  9
$DIMAPOST
  1

  9
$DIMALT
 70
     0
  9
$DIMALTD
 70
     2
  9
$DIMALTF
 40
25.4
  9
$DIMLFAC
 40
1.0
  9
$DIMTOFL
 70
     0
  9
$DIMTVP
 40
0.0
  9
$DIMTIX
 70
     0
  9
$DIMSOXD
 70
     0
  9
$DIMSAH
 70
     0
  9
$DIMBLK1
  1

  9
$DIMBLK2
  1

  9
$DIMSTYLE
  2
STANDARD
  9
$DIMCLRD
 70
     0
  9
$DIMCLRE
 70
     0
  9
$DIMCLRT
 70
     0
  9
$DIMTFAC
 40
1.0
  9
$DIMGAP
 40
0.09
  9
$DIMJUST
 70
     0
  9
$DIMSD1
 70
     0
  9
$DIMSD2
 70
     0
  9
$DIMTOLJ
 70
     1
  9
$DIMTZIN
 70
     0
  9
$DIMALTZ
 70
     0
  9
$DIMALTTZ
 70
     0
  9
$DIMFIT
 70
     3
  9
$DIMUPT
 70
     0
  9
$DIMUNIT
 70
     2
  9
$DIMDEC
 70
     4
  9
$DIMTDEC
 70
     4
  9
$DIMALTU
 70
     2
  9
$DIMALTTD
 70
     2
  9
$DIMTXSTY
  7
STANDARD
  9
$DIMAUNIT
 70
     0
  9
$LUNITS
 70
     2
  9
$LUPREC
 70
     4
  9
$SKETCHINC
 40
0.1
  9
$FILLETRAD
 40
0.5
  9
$AUNITS
 70
     0
  9
$AUPREC
 70
     0
  9
$MENU
  1
.
  9
$ELEVATION
 40
0.0
  9
$PELEVATION
 40
0.0
  9
$THICKNESS
 40
0.0
  9
$LIMCHECK
 70
     0
  9
$CHAMFERA
 40
0.5
  9
$CHAMFERB
 40
0.5
  9
$CHAMFERC
 40
1.0
  9
$CHAMFERD
 40
0.0
  9
$SKPOLY
 70
     0
  9
$TDCREATE
 40
2457508.878920556
  9
$TDUPDATE
 40
2457508.878920567
  9
$TDINDWG
 40
0.0000000116
  9
$TDUSRTIMER
 40
0.0000000116
  9
$USRTIMER
 70
     1
  9
$ANGBASE
 50
0.0
  9
$ANGDIR
 70
     0
  9
$PDMODE
 70
     0
  9
$PDSIZE
 40
0.0
  9
$PLINEWID
 40
0.0
  9
$COORDS
 70
     1
  9
$SPLFRAME
 70
     0
  9
$SPLINETYPE
 70
     6
  9
$SPLINESEGS
 70
     8
  9
$ATTDIA
 70
     0
  9
$ATTREQ
 70
     1
  9
$HANDLING
 70
     1
  9
$HANDSEED
  5
349
  9
$SURFTAB1
 70
     6
  9
$SURFTAB2
 70
     6
  9
$SURFTYPE
 70
     6
  9
$SURFU
 70
     6
  9
$SURFV
 70
     6
  9
$UCSNAME
  2

  9
$UCSORG
 10
0.0
 20
0.0
 30
0.0
  9
$UCSXDIR
 10
1.0
 20
0.0
 30
0.0
  9
$UCSYDIR
 10
0.0
 20
1.0
 30
0.0
  9
$PUCSNAME
  2

  9
$PUCSORG
 10
0.0
 20
0.0
 30
0.0
  9
$PUCSXDIR
 10
1.0
 20
0.0
 30
0.0
  9
$PUCSYDIR
 10
0.0
 20
1.0
 30
0.0
  9
$USERI1
 70
     0
  9
$USERI2
 70
     0
  9
$USERI3
 70
     0
  9
$USERI4
 70
     0
  9
$USERI5
 70
     0
  9
$USERR1
 40
0.0
  9
$USERR2
 40
0.0
  9
$USERR3
 40
0.0
  9
$USERR4
 40
0.0
  9
$USERR5
 40
0.0
  9
$WORLDVIEW
 70
     1
  9
$SHADEDGE
 70
     3
  9
$SHADEDIF
 70
    70
  9
$TILEMODE
 70
     1
  9
$MAXACTVP
 70
    64
  9
$PINSBASE
 10
0.0
 20
0.0
 30
0.0
  9
$PLIMCHECK
 70
     0
  9
$PEXTMIN
 10
1.000000000000000E+20
 20
1.000000000000000E+20
 30
1.000000000000000E+20
  9
$PEXTMAX
 10
-1.000000000000000E+20
 20
-1.000000000000000E+20
 30
-1.000000000000000E+20
  9
$PLIMMIN
 10
0.0
 20
0.0
  9
$PLIMMAX
 10
12.0
 20
9.0
  9
$UNITMODE
 70
     0
  9
$VISRETAIN
 70
     1
  9
$PLINEGEN
 70
     0
  9
$PSLTSCALE
 70
     1
  9
$TREEDEPTH
 70
  3020
  9
$PICKSTYLE
 70
     1
  9
$CMLSTYLE
  2
STANDARD
  9
$CMLJUST
 70
     0
  9
$CMLSCALE
 40
1.0
  9
$SAVEIMAGES
 70
     1
  0
ENDSEC
  0
SECTION
  2
CLASSES
  0
CLASS
  1
ACDBDICTIONARYWDFLT
  2
AcDbDictionaryWithDefault
  3
ObjectDBX Classes
 90
    32768
280
     0
281
     0
  0
CLASS
  1
VISUALSTYLE
  2
AcDbVisualStyle
  3
ObjectDBX Classes
 90
     4095
280
     0
281
     0
  0
CLASS
  1
XRECORD
  2
AcDbXrecord
  3
AutoCAD 2000
 90
    32768
280
     0
281
     0
  0
CLASS
  1
LWPOLYLINE
  2
AcDbPolyline
  3
AutoCAD 2000
 90
    32768
280
     0
281
     1
  0
CLASS
  1
HATCH
  2
AcDbHatch
  3
AutoCAD 2000
 90
    32768
280
     0
281
     1
  0
CLASS
  1
ACDBPLACEHOLDER
  2
AcDbPlaceHolder
  3
ObjectDBX Classes
 90
        0
280
     0
281
     0
  0
CLASS
  1
LAYOUT
  2
AcDbLayout
  3
ObjectDBX Classes
 90
        0
280
     0
281
     0
  0
ENDSEC
  0
SECTION
  2
TABLES
  0
TABLE
  2
VPORT
  5
8
330
0
100
AcDbSymbolTable
 70
     1
  0
VPORT
  5
29
330
8
100
AcDbSymbolTableRecord
100
AcDbViewportTableRecord
  2
*ACTIVE
 70
     0
 10
0.0
 20
0.0
 11
1.0
 21
1.0
 12
0.0
 22
0.0
 13
0.0
 23
0.0
 14
0.5
 24
0.5
 15
0.5
 25
0.5
 16
0.0
 26
0.0
 36
1.0
 17
105.0008259828644
 27
-148.4999796178229
 37
0.0
 40
296.9999592356459
 41
0.7070763662937379
 42
50.0
 43
0.0
 44
0.0
 50
0.0
 51
0.0
 71
     0
 72
   100
 73
     1
 74
     3
 75
     0
 76
     0
 77
     0
 78
     0
  0
ENDTAB
  0
TABLE
  2
LTYPE
  5
5
330
0
100
AcDbSymbolTable
 70
    61
  0
LTYPE
  5
14
330
5
100
AcDbSymbolTableRecord
100
AcDbLinetypeTableRecord
  2
BYBLOCK
 70
     0
  3

 72
    65
 73
     0
 40
0.0
  0
LTYPE
  5
15
330
5
100
AcDbSymbolTableRecord
100
AcDbLinetypeTableRecord
  2
BYLAYER
 70
     0
  3

 72
    65
 73
     0
 40
0.0
  0
LTYPE
  5
16
330
5
100
AcDbSymbolTableRecord
100
AcDbLinetypeTableRecord
  2
CONTINUOUS
 70
     0
  3
Solid line
 72
    65
 73
     0
 40
0.0
  0
LTYPE
  5
4C
330
5
100
AcDbSymbolTableRecord
100
AcDbLinetypeTableRecord
  2
AI-LINETYPE-1
 70
     0
  3
Adobe Illustrator Linetype No. 1
 72
    65
 73
     2
 40
4.233333332275
 49
2.1166666661375
 74
     0
 49
-2.1166666661375
 74
     0
  0
LTYPE
  5
55
330
5
100
AcDbSymbolTableRecord
100
AcDbLinetypeTableRecord
  2
AI-LINETYPE-2
 70
     0
  3
Adobe Illustrator Linetype No. 2
 72
    65
 73
     2
 40
4.233333332275
 49
2.1166666661375
 74
     0
 49
-2.1166666661375
 74
     0
  0
LTYPE
  5
5E
330
5
100
AcDbSymbolTableRecord
100
AcDbLinetypeTableRecord
  2
AI-LINETYPE-3
 70
     0
  3
Adobe Illustrator Linetype No. 3
 72
    65
 73
     2
 40
4.233333332275
 49
2.1166666661375
 74
     0
 49
-2.1166666661375
 74
     0
  0
LTYPE
  5
67
330
5
100
AcDbSymbolTableRecord
100
AcDbLinetypeTableRecord
  2
AI-LINETYPE-4
 70
     0
  3
Adobe Illustrator Linetype No. 4
 72
    65
 73
     2
 40
4.233333332275
 49
2.1166666661375
 74
     0
 49
-2.1166666661375
 74
     0
  0
LTYPE
  5
70
330
5
100
AcDbSymbolTableRecord
100
AcDbLinetypeTableRecord
  2
AI-LINETYPE-5
 70
     0
  3
Adobe Illustrator Linetype No. 5
 72
    65
 73
     2
 40
4.233333332275
 49
2.1166666661375
 74
     0
 49
-2.1166666661375
 74
     0
  0
LTYPE
  5
79
330
5
100
AcDbSymbolTableRecord
100
AcDbLinetypeTableRecord
  2
AI-LINETYPE-6
 70
     0
  3
Adobe Illustrator Linetype No. 6
 72
    65
 73
     2
 40
4.233333332275
 49
2.1166666661375
 74
     0
 49
-2.1166666661375
 74
     0
  0
LTYPE
  5
82
330
5
100
AcDbSymbolTableRecord
100
AcDbLinetypeTableRecord
  2
AI-LINETYPE-7
 70
     0
  3
Adobe Illustrator Linetype No. 7
 72
    65
 73
     2
 40
4.233333332275
 49
2.1166666661375
 74
     0
 49
-2.1166666661375
 74
     0
  0
LTYPE
  5
8B
330
5
100
AcDbSymbolTableRecord
100
AcDbLinetypeTableRecord
  2
AI-LINETYPE-8
 70
     0
  3
Adobe Illustrator Linetype No. 8
 72
    65
 73
     2
 40
4.233333332275
 49
2.1166666661375
 74
     0
 49
-2.1166666661375
 74
     0
  0
LTYPE
  5
94
330
5
100
AcDbSymbolTableRecord
100
AcDbLinetypeTableRecord
  2
AI-LINETYPE-9
 70
     0
  3
Adobe Illustrator Linetype No. 9
 72
    65
 73
     2
 40
4.233333332275
 49
2.1166666661375
 74
     0
 49
-2.1166666661375
 74
     0
  0
LTYPE
  5
9D
330
5
100
AcDbSymbolTableRecord
100
AcDbLinetypeTableRecord
  2
AI-LINETYPE-10
 70
     0
  3
Adobe Illustrator Linetype No. 10
 72
    65
 73
     2
 40
4.233333332275
 49
2.1166666661375
 74
     0
 49
-2.1166666661375
 74
     0
  0
LTYPE
  5
A6
330
5
100
AcDbSymbolTableRecord
100
AcDbLinetypeTableRecord
  2
AI-LINETYPE-11
 70
     0
  3
Adobe Illustrator Linetype No. 11
 72
    65
 73
     2
 40
4.233333332275
 49
2.1166666661375
 74
     0
 49
-2.1166666661375
 74
     0
  0
LTYPE
  5
AF
330
5
100
AcDbSymbolTableRecord
100
AcDbLinetypeTableRecord
  2
AI-LINETYPE-12
 70
     0
  3
Adobe Illustrator Linetype No. 12
 72
    65
 73
     2
 40
4.233333332275
 49
2.1166666661375
 74
     0
 49
-2.1166666661375
 74
     0
  0
LTYPE
  5
B8
330
5
100
AcDbSymbolTableRecord
100
AcDbLinetypeTableRecord
  2
AI-LINETYPE-13
 70
     0
  3
Adobe Illustrator Linetype No. 13
 72
    65
 73
     2
 40
4.233333332275
 49
2.1166666661375
 74
     0
 49
-2.1166666661375
 74
     0
  0
LTYPE
  5
C1
330
5
100
AcDbSymbolTableRecord
100
AcDbLinetypeTableRecord
  2
AI-LINETYPE-14
 70
     0
  3
Adobe Illustrator Linetype No. 14
 72
    65
 73
     2
 40
4.233333332275
 49
2.1166666661375
 74
     0
 49
-2.1166666661375
 74
     0
  0
LTYPE
  5
CA
330
5
100
AcDbSymbolTableRecord
100
AcDbLinetypeTableRecord
  2
AI-LINETYPE-15
 70
     0
  3
Adobe Illustrator Linetype No. 15
 72
    65
 73
     2
 40
4.233333332275
 49
2.1166666661375
 74
     0
 49
-2.1166666661375
 74
     0
  0
LTYPE
  5
D3
330
5
100
AcDbSymbolTableRecord
100
AcDbLinetypeTableRecord
  2
AI-LINETYPE-16
 70
     0
  3
Adobe Illustrator Linetype No. 16
 72
    65
 73
     2
 40
4.233333332275
 49
2.1166666661375
 74
     0
 49
-2.1166666661375
 74
     0
  0
LTYPE
  5
DC
330
5
100
AcDbSymbolTableRecord
100
AcDbLinetypeTableRecord
  2
AI-LINETYPE-17
 70
     0
  3
Adobe Illustrator Linetype No. 17
 72
    65
 73
     2
 40
4.233333332275
 49
2.1166666661375
 74
     0
 49
-2.1166666661375
 74
     0
  0
LTYPE
  5
E5
330
5
100
AcDbSymbolTableRecord
100
AcDbLinetypeTableRecord
  2
AI-LINETYPE-18
 70
     0
  3
Adobe Illustrator Linetype No. 18
 72
    65
 73
     2
 40
4.233333332275
 49
2.1166666661375
 74
     0
 49
-2.1166666661375
 74
     0
  0
LTYPE
  5
EE
330
5
100
AcDbSymbolTableRecord
100
AcDbLinetypeTableRecord
  2
AI-LINETYPE-19
 70
     0
  3
Adobe Illustrator Linetype No. 19
 72
    65
 73
     2
 40
4.233333332275
 49
2.1166666661375
 74
     0
 49
-2.1166666661375
 74
     0
  0
LTYPE
  5
F7
330
5
100
AcDbSymbolTableRecord
100
AcDbLinetypeTableRecord
  2
AI-LINETYPE-20
 70
     0
  3
Adobe Illustrator Linetype No. 20
 72
    65
 73
     2
 40
4.233333332275
 49
2.1166666661375
 74
     0
 49
-2.1166666661375
 74
     0
  0
LTYPE
  5
100
330
5
100
AcDbSymbolTableRecord
100
AcDbLinetypeTableRecord
  2
AI-LINETYPE-21
 70
     0
  3
Adobe Illustrator Linetype No. 21
 72
    65
 73
     2
 40
4.233333332275
 49
2.1166666661375
 74
     0
 49
-2.1166666661375
 74
     0
  0
LTYPE
  5
109
330
5
100
AcDbSymbolTableRecord
100
AcDbLinetypeTableRecord
  2
AI-LINETYPE-22
 70
     0
  3
Adobe Illustrator Linetype No. 22
 72
    65
 73
     2
 40
4.233333332275
 49
2.1166666661375
 74
     0
 49
-2.1166666661375
 74
     0
  0
LTYPE
  5
112
330
5
100
AcDbSymbolTableRecord
100
AcDbLinetypeTableRecord
  2
AI-LINETYPE-23
 70
     0
  3
Adobe Illustrator Linetype No. 23
 72
    65
 73
     2
 40
4.233333332275
 49
2.1166666661375
 74
     0
 49
-2.1166666661375
 74
     0
  0
LTYPE
  5
11B
330
5
100
AcDbSymbolTableRecord
100
AcDbLinetypeTableRecord
  2
AI-LINETYPE-24
 70
     0
  3
Adobe Illustrator Linetype No. 24
 72
    65
 73
     2
 40
4.233333332275
 49
2.1166666661375
 74
     0
 49
-2.1166666661375
 74
     0
  0
LTYPE
  5
124
330
5
100
AcDbSymbolTableRecord
100
AcDbLinetypeTableRecord
  2
AI-LINETYPE-25
 70
     0
  3
Adobe Illustrator Linetype No. 25
 72
    65
 73
     2
 40
4.233333332275
 49
2.1166666661375
 74
     0
 49
-2.1166666661375
 74
     0
  0
LTYPE
  5
12D
330
5
100
AcDbSymbolTableRecord
100
AcDbLinetypeTableRecord
  2
AI-LINETYPE-26
 70
     0
  3
Adobe Illustrator Linetype No. 26
 72
    65
 73
     2
 40
4.233333332275
 49
2.1166666661375
 74
     0
 49
-2.1166666661375
 74
     0
  0
LTYPE
  5
136
330
5
100
AcDbSymbolTableRecord
100
AcDbLinetypeTableRecord
  2
AI-LINETYPE-27
 70
     0
  3
Adobe Illustrator Linetype No. 27
 72
    65
 73
     2
 40
4.233333332275
 49
2.1166666661375
 74
     0
 49
-2.1166666661375
 74
     0
  0
LTYPE
  5
13F
330
5
100
AcDbSymbolTableRecord
100
AcDbLinetypeTableRecord
  2
AI-LINETYPE-28
 70
     0
  3
Adobe Illustrator Linetype No. 28
 72
    65
 73
     2
 40
4.233333332275
 49
2.1166666661375
 74
     0
 49
-2.1166666661375
 74
     0
  0
LTYPE
  5
148
330
5
100
AcDbSymbolTableRecord
100
AcDbLinetypeTableRecord
  2
AI-LINETYPE-29
 70
     0
  3
Adobe Illustrator Linetype No. 29
 72
    65
 73
     2
 40
4.233333332275
 49
2.1166666661375
 74
     0
 49
-2.1166666661375
 74
     0
  0
LTYPE
  5
151
330
5
100
AcDbSymbolTableRecord
100
AcDbLinetypeTableRecord
  2
AI-LINETYPE-30
 70
     0
  3
Adobe Illustrator Linetype No. 30
 72
    65
 73
     2
 40
4.233333332275
 49
2.1166666661375
 74
     0
 49
-2.1166666661375
 74
     0
  0
LTYPE
  5
15A
330
5
100
AcDbSymbolTableRecord
100
AcDbLinetypeTableRecord
  2
AI-LINETYPE-31
 70
     0
  3
Adobe Illustrator Linetype No. 31
 72
    65
 73
     2
 40
4.233333332275
 49
2.1166666661375
 74
     0
 49
-2.1166666661375
 74
     0
  0
LTYPE
  5
163
330
5
100
AcDbSymbolTableRecord
100
AcDbLinetypeTableRecord
  2
AI-LINETYPE-32
 70
     0
  3
Adobe Illustrator Linetype No. 32
 72
    65
 73
     2
 40
4.233333332275
 49
2.1166666661375
 74
     0
 49
-2.1166666661375
 74
     0
  0
LTYPE
  5
16C
330
5
100
AcDbSymbolTableRecord
100
AcDbLinetypeTableRecord
  2
AI-LINETYPE-33
 70
     0
  3
Adobe Illustrator Linetype No. 33
 72
    65
 73
     2
 40
4.233333332275
 49
2.1166666661375
 74
     0
 49
-2.1166666661375
 74
     0
  0
LTYPE
  5
175
330
5
100
AcDbSymbolTableRecord
100
AcDbLinetypeTableRecord
  2
AI-LINETYPE-34
 70
     0
  3
Adobe Illustrator Linetype No. 34
 72
    65
 73
     2
 40
4.233333332275
 49
2.1166666661375
 74
     0
 49
-2.1166666661375
 74
     0
  0
LTYPE
  5
17E
330
5
100
AcDbSymbolTableRecord
100
AcDbLinetypeTableRecord
  2
AI-LINETYPE-35
 70
     0
  3
Adobe Illustrator Linetype No. 35
 72
    65
 73
     2
 40
4.233333332275
 49
2.1166666661375
 74
     0
 49
-2.1166666661375
 74
     0
  0
LTYPE
  5
187
330
5
100
AcDbSymbolTableRecord
100
AcDbLinetypeTableRecord
  2
AI-LINETYPE-36
 70
     0
  3
Adobe Illustrator Linetype No. 36
 72
    65
 73
     2
 40
4.233333332275
 49
2.1166666661375
 74
     0
 49
-2.1166666661375
 74
     0
  0
LTYPE
  5
190
330
5
100
AcDbSymbolTableRecord
100
AcDbLinetypeTableRecord
  2
AI-LINETYPE-37
 70
     0
  3
Adobe Illustrator Linetype No. 37
 72
    65
 73
     2
 40
4.233333332275
 49
2.1166666661375
 74
     0
 49
-2.1166666661375
 74
     0
  0
LTYPE
  5
199
330
5
100
AcDbSymbolTableRecord
100
AcDbLinetypeTableRecord
  2
AI-LINETYPE-38
 70
     0
  3
Adobe Illustrator Linetype No. 38
 72
    65
 73
     2
 40
4.233333332275
 49
2.1166666661375
 74
     0
 49
-2.1166666661375
 74
     0
  0
LTYPE
  5
1A2
330
5
100
AcDbSymbolTableRecord
100
AcDbLinetypeTableRecord
  2
AI-LINETYPE-39
 70
     0
  3
Adobe Illustrator Linetype No. 39
 72
    65
 73
     2
 40
4.233333332275
 49
2.1166666661375
 74
     0
 49
-2.1166666661375
 74
     0
  0
LTYPE
  5
1AB
330
5
100
AcDbSymbolTableRecord
100
AcDbLinetypeTableRecord
  2
AI-LINETYPE-40
 70
     0
  3
Adobe Illustrator Linetype No. 40
 72
    65
 73
     2
 40
4.233333332275
 49
2.1166666661375
 74
     0
 49
-2.1166666661375
 74
     0
  0
LTYPE
  5
1B4
330
5
100
AcDbSymbolTableRecord
100
AcDbLinetypeTableRecord
  2
AI-LINETYPE-41
 70
     0
  3
Adobe Illustrator Linetype No. 41
 72
    65
 73
     2
 40
4.233333332275
 49
2.1166666661375
 74
     0
 49
-2.1166666661375
 74
     0
  0
LTYPE
  5
1BD
330
5
100
AcDbSymbolTableRecord
100
AcDbLinetypeTableRecord
  2
AI-LINETYPE-42
 70
     0
  3
Adobe Illustrator Linetype No. 42
 72
    65
 73
     2
 40
4.233333332275
 49
2.1166666661375
 74
     0
 49
-2.1166666661375
 74
     0
  0
LTYPE
  5
1C6
330
5
100
AcDbSymbolTableRecord
100
AcDbLinetypeTableRecord
  2
AI-LINETYPE-43
 70
     0
  3
Adobe Illustrator Linetype No. 43
 72
    65
 73
     2
 40
4.233333332275
 49
2.1166666661375
 74
     0
 49
-2.1166666661375
 74
     0
  0
LTYPE
  5
1CF
330
5
100
AcDbSymbolTableRecord
100
AcDbLinetypeTableRecord
  2
AI-LINETYPE-44
 70
     0
  3
Adobe Illustrator Linetype No. 44
 72
    65
 73
     2
 40
4.233333332275
 49
2.1166666661375
 74
     0
 49
-2.1166666661375
 74
     0
  0
LTYPE
  5
1D8
330
5
100
AcDbSymbolTableRecord
100
AcDbLinetypeTableRecord
  2
AI-LINETYPE-45
 70
     0
  3
Adobe Illustrator Linetype No. 45
 72
    65
 73
     2
 40
4.233333332275
 49
2.1166666661375
 74
     0
 49
-2.1166666661375
 74
     0
  0
LTYPE
  5
1E1
330
5
100
AcDbSymbolTableRecord
100
AcDbLinetypeTableRecord
  2
AI-LINETYPE-46
 70
     0
  3
Adobe Illustrator Linetype No. 46
 72
    65
 73
     2
 40
4.233333332275
 49
2.1166666661375
 74
     0
 49
-2.1166666661375
 74
     0
  0
LTYPE
  5
1EA
330
5
100
AcDbSymbolTableRecord
100
AcDbLinetypeTableRecord
  2
AI-LINETYPE-47
 70
     0
  3
Adobe Illustrator Linetype No. 47
 72
    65
 73
     2
 40
4.233333332275
 49
2.1166666661375
 74
     0
 49
-2.1166666661375
 74
     0
  0
LTYPE
  5
1F3
330
5
100
AcDbSymbolTableRecord
100
AcDbLinetypeTableRecord
  2
AI-LINETYPE-48
 70
     0
  3
Adobe Illustrator Linetype No. 48
 72
    65
 73
     2
 40
4.233333332275
 49
2.1166666661375
 74
     0
 49
-2.1166666661375
 74
     0
  0
LTYPE
  5
1F5
330
5
100
AcDbSymbolTableRecord
100
AcDbLinetypeTableRecord
  2
AI-LINETYPE-49
 70
     0
  3
Adobe Illustrator Linetype No. 49
 72
    65
 73
     2
 40
4.233333332275
 49
2.1166666661375
 74
     0
 49
-2.1166666661375
 74
     0
  0
LTYPE
  5
1F7
330
5
100
AcDbSymbolTableRecord
100
AcDbLinetypeTableRecord
  2
AI-LINETYPE-50
 70
     0
  3
Adobe Illustrator Linetype No. 50
 72
    65
 73
     2
 40
4.233333332275
 49
2.1166666661375
 74
     0
 49
-2.1166666661375
 74
     0
  0
LTYPE
  5
1F9
330
5
100
AcDbSymbolTableRecord
100
AcDbLinetypeTableRecord
  2
AI-LINETYPE-51
 70
     0
  3
Adobe Illustrator Linetype No. 51
 72
    65
 73
     2
 40
4.233333332275
 49
2.1166666661375
 74
     0
 49
-2.1166666661375
 74
     0
  0
LTYPE
  5
1FB
330
5
100
AcDbSymbolTableRecord
100
AcDbLinetypeTableRecord
  2
AI-LINETYPE-52
 70
     0
  3
Adobe Illustrator Linetype No. 52
 72
    65
 73
     2
 40
4.233333332275
 49
2.1166666661375
 74
     0
 49
-2.1166666661375
 74
     0
  0
LTYPE
  5
1FD
330
5
100
AcDbSymbolTableRecord
100
AcDbLinetypeTableRecord
  2
AI-LINETYPE-53
 70
     0
  3
Adobe Illustrator Linetype No. 53
 72
    65
 73
     2
 40
4.233333332275
 49
2.1166666661375
 74
     0
 49
-2.1166666661375
 74
     0
  0
LTYPE
  5
1FF
330
5
100
AcDbSymbolTableRecord
100
AcDbLinetypeTableRecord
  2
AI-LINETYPE-54
 70
     0
  3
Adobe Illustrator Linetype No. 54
 72
    65
 73
     2
 40
4.233333332275
 49
2.1166666661375
 74
     0
 49
-2.1166666661375
 74
     0
  0
LTYPE
  5
201
330
5
100
AcDbSymbolTableRecord
100
AcDbLinetypeTableRecord
  2
AI-LINETYPE-55
 70
     0
  3
Adobe Illustrator Linetype No. 55
 72
    65
 73
     2
 40
4.233333332275
 49
2.1166666661375
 74
     0
 49
-2.1166666661375
 74
     0
  0
LTYPE
  5
203
330
5
100
AcDbSymbolTableRecord
100
AcDbLinetypeTableRecord
  2
AI-LINETYPE-56
 70
     0
  3
Adobe Illustrator Linetype No. 56
 72
    65
 73
     2
 40
4.233333332275
 49
2.1166666661375
 74
     0
 49
-2.1166666661375
 74
     0
  0
LTYPE
  5
205
330
5
100
AcDbSymbolTableRecord
100
AcDbLinetypeTableRecord
  2
AI-LINETYPE-57
 70
     0
  3
Adobe Illustrator Linetype No. 57
 72
    65
 73
     2
 40
4.233333332275
 49
2.1166666661375
 74
     0
 49
-2.1166666661375
 74
     0
  0
LTYPE
  5
207
330
5
100
AcDbSymbolTableRecord
100
AcDbLinetypeTableRecord
  2
AI-LINETYPE-58
 70
     0
  3
Adobe Illustrator Linetype No. 58
 72
    65
 73
     2
 40
4.233333332275
 49
2.1166666661375
 74
     0
 49
-2.1166666661375
 74
     0
  0
LTYPE
  5
209
330
5
100
AcDbSymbolTableRecord
100
AcDbLinetypeTableRecord
  2
AI-LINETYPE-59
 70
     0
  3
Adobe Illustrator Linetype No. 59
 72
    65
 73
     2
 40
4.233333332275
 49
2.1166666661375
 74
     0
 49
-2.1166666661375
 74
     0
  0
LTYPE
  5
20B
330
5
100
AcDbSymbolTableRecord
100
AcDbLinetypeTableRecord
  2
AI-LINETYPE-60
 70
     0
  3
Adobe Illustrator Linetype No. 60
 72
    65
 73
     2
 40
4.233333332275
 49
2.1166666661375
 74
     0
 49
-2.1166666661375
 74
     0
  0
ENDTAB
  0
TABLE
  2
LAYER
  5
2
330
0
100
AcDbSymbolTable
 70
     5
  0
LAYER
  5
10
330
2
100
AcDbSymbolTableRecord
100
AcDbLayerTableRecord
  2
0
 70
     0
 62
     7
  6
CONTINUOUS
  0
LAYER
  5
3B
330
2
100
AcDbSymbolTableRecord
100
AcDbLayerTableRecord
  2
CUTLINE
 70
     0
 62
     7
  6
CONTINUOUS
  0
LAYER
  5
43
330
2
100
AcDbSymbolTableRecord
100
AcDbLayerTableRecord
  2
VALLEYLINE
 70
     0
 62
     7
  6
CONTINUOUS
  0
LAYER
  5
20C
330
2
100
AcDbSymbolTableRecord
100
AcDbLayerTableRecord
  2
MOUNTAINLINE
 70
     0
 62
     7
  6
CONTINUOUS
  0
LAYER
  5
345
330
2
100
AcDbSymbolTableRecord
100
AcDbLayerTableRecord
  2
TEXT
 70
     0
 62
     7
  6
CONTINUOUS
  0
ENDTAB
  0
TABLE
  2
STYLE
  5
3
330
0
100
AcDbSymbolTable
 70
     1
  0
STYLE
  5
11
330
3
100
AcDbSymbolTableRecord
100
AcDbTextStyleTableRecord
  2
STANDARD
 70
     0
 40
0.0
 41
1.0
 50
0.0
 71
     0
 42
0.2
  3
txt
  4

  0
ENDTAB
  0
TABLE
  2
VIEW
  5
6
330
0
100
AcDbSymbolTable
 70
     0
  0
ENDTAB
  0
TABLE
  2
UCS
  5
7
330
0
100
AcDbSymbolTable
 70
     0
  0
ENDTAB
  0
TABLE
  2
APPID
  5
9
330
0
100
AcDbSymbolTable
 70
     1
  0
APPID
  5
12
330
9
100
AcDbSymbolTableRecord
100
AcDbRegAppTableRecord
  2
ACAD
 70
     0
  0
ENDTAB
  0
TABLE
  2
DIMSTYLE
  5
A
330
0
100
AcDbSymbolTable
 70
     1
  0
DIMSTYLE
105
27
330
A
100
AcDbSymbolTableRecord
100
AcDbDimStyleTableRecord
  2
STANDARD
 70
     0
  3

  4

  5

  6

  7

 40
1.0
 41
0.18
 42
0.0625
 43
0.38
 44
0.18
 45
0.0
 46
0.0
 47
0.0
 48
0.0
140
0.18
141
0.09
142
0.0
143
25.4
144
1.0
145
0.0
146
1.0
147
0.09
 71
     0
 72
     0
 73
     1
 74
     1
 75
     0
 76
     0
 77
     0
 78
     0
170
     0
171
     2
172
     0
173
     0
174
     0
175
     0
176
     0
177
     0
178
     0
270
     2
271
     4
272
     4
273
     2
274
     2
340
11
275
     0
280
     0
281
     0
282
     0
283
     1
284
     0
285
     0
286
     0
287
     3
288
     0
  0
ENDTAB
  0
TABLE
  2
BLOCK_RECORD
  5
1
330
0
100
AcDbSymbolTable
 70
    85
  0
BLOCK_RECORD
  5
1F
330
1
100
AcDbSymbolTableRecord
100
AcDbBlockTableRecord
  2
*MODEL_SPACE
  0
BLOCK_RECORD
  5
1B
330
1
100
AcDbSymbolTableRecord
100
AcDbBlockTableRecord
  2
*PAPER_SPACE
  0
BLOCK_RECORD
  5
44
330
1
100
AcDbSymbolTableRecord
100
AcDbBlockTableRecord
  2
BLOCK_2
  0
BLOCK_RECORD
  5
4D
330
1
100
AcDbSymbolTableRecord
100
AcDbBlockTableRecord
  2
BLOCK_3
  0
BLOCK_RECORD
  5
56
330
1
100
AcDbSymbolTableRecord
100
AcDbBlockTableRecord
  2
BLOCK_4
  0
BLOCK_RECORD
  5
5F
330
1
100
AcDbSymbolTableRecord
100
AcDbBlockTableRecord
  2
BLOCK_5
  0
BLOCK_RECORD
  5
68
330
1
100
AcDbSymbolTableRecord
100
AcDbBlockTableRecord
  2
BLOCK_6
  0
BLOCK_RECORD
  5
71
330
1
100
AcDbSymbolTableRecord
100
AcDbBlockTableRecord
  2
BLOCK_7
  0
BLOCK_RECORD
  5
7A
330
1
100
AcDbSymbolTableRecord
100
AcDbBlockTableRecord
  2
BLOCK_8
  0
BLOCK_RECORD
  5
83
330
1
100
AcDbSymbolTableRecord
100
AcDbBlockTableRecord
  2
BLOCK_9
  0
BLOCK_RECORD
  5
8C
330
1
100
AcDbSymbolTableRecord
100
AcDbBlockTableRecord
  2
BLOCK_10
  0
BLOCK_RECORD
  5
95
330
1
100
AcDbSymbolTableRecord
100
AcDbBlockTableRecord
  2
BLOCK_11
  0
BLOCK_RECORD
  5
9E
330
1
100
AcDbSymbolTableRecord
100
AcDbBlockTableRecord
  2
BLOCK_12
  0
BLOCK_RECORD
  5
A7
330
1
100
AcDbSymbolTableRecord
100
AcDbBlockTableRecord
  2
BLOCK_13
  0
BLOCK_RECORD
  5
B0
330
1
100
AcDbSymbolTableRecord
100
AcDbBlockTableRecord
  2
BLOCK_14
  0
BLOCK_RECORD
  5
B9
330
1
100
AcDbSymbolTableRecord
100
AcDbBlockTableRecord
  2
BLOCK_15
  0
BLOCK_RECORD
  5
C2
330
1
100
AcDbSymbolTableRecord
100
AcDbBlockTableRecord
  2
BLOCK_16
  0
BLOCK_RECORD
  5
CB
330
1
100
AcDbSymbolTableRecord
100
AcDbBlockTableRecord
  2
BLOCK_17
  0
BLOCK_RECORD
  5
D4
330
1
100
AcDbSymbolTableRecord
100
AcDbBlockTableRecord
  2
BLOCK_18
  0
BLOCK_RECORD
  5
DD
330
1
100
AcDbSymbolTableRecord
100
AcDbBlockTableRecord
  2
BLOCK_19
  0
BLOCK_RECORD
  5
E6
330
1
100
AcDbSymbolTableRecord
100
AcDbBlockTableRecord
  2
BLOCK_20
  0
BLOCK_RECORD
  5
EF
330
1
100
AcDbSymbolTableRecord
100
AcDbBlockTableRecord
  2
BLOCK_21
  0
BLOCK_RECORD
  5
F8
330
1
100
AcDbSymbolTableRecord
100
AcDbBlockTableRecord
  2
BLOCK_22
  0
BLOCK_RECORD
  5
101
330
1
100
AcDbSymbolTableRecord
100
AcDbBlockTableRecord
  2
BLOCK_23
  0
BLOCK_RECORD
  5
10A
330
1
100
AcDbSymbolTableRecord
100
AcDbBlockTableRecord
  2
BLOCK_24
  0
BLOCK_RECORD
  5
113
330
1
100
AcDbSymbolTableRecord
100
AcDbBlockTableRecord
  2
BLOCK_25
  0
BLOCK_RECORD
  5
11C
330
1
100
AcDbSymbolTableRecord
100
AcDbBlockTableRecord
  2
BLOCK_26
  0
BLOCK_RECORD
  5
125
330
1
100
AcDbSymbolTableRecord
100
AcDbBlockTableRecord
  2
BLOCK_27
  0
BLOCK_RECORD
  5
12E
330
1
100
AcDbSymbolTableRecord
100
AcDbBlockTableRecord
  2
BLOCK_28
  0
BLOCK_RECORD
  5
137
330
1
100
AcDbSymbolTableRecord
100
AcDbBlockTableRecord
  2
BLOCK_29
  0
BLOCK_RECORD
  5
140
330
1
100
AcDbSymbolTableRecord
100
AcDbBlockTableRecord
  2
BLOCK_30
  0
BLOCK_RECORD
  5
149
330
1
100
AcDbSymbolTableRecord
100
AcDbBlockTableRecord
  2
BLOCK_31
  0
BLOCK_RECORD
  5
152
330
1
100
AcDbSymbolTableRecord
100
AcDbBlockTableRecord
  2
BLOCK_32
  0
BLOCK_RECORD
  5
15B
330
1
100
AcDbSymbolTableRecord
100
AcDbBlockTableRecord
  2
BLOCK_33
  0
BLOCK_RECORD
  5
164
330
1
100
AcDbSymbolTableRecord
100
AcDbBlockTableRecord
  2
BLOCK_34
  0
BLOCK_RECORD
  5
16D
330
1
100
AcDbSymbolTableRecord
100
AcDbBlockTableRecord
  2
BLOCK_35
  0
BLOCK_RECORD
  5
176
330
1
100
AcDbSymbolTableRecord
100
AcDbBlockTableRecord
  2
BLOCK_36
  0
BLOCK_RECORD
  5
17F
330
1
100
AcDbSymbolTableRecord
100
AcDbBlockTableRecord
  2
BLOCK_37
  0
BLOCK_RECORD
  5
188
330
1
100
AcDbSymbolTableRecord
100
AcDbBlockTableRecord
  2
BLOCK_38
  0
BLOCK_RECORD
  5
191
330
1
100
AcDbSymbolTableRecord
100
AcDbBlockTableRecord
  2
BLOCK_39
  0
BLOCK_RECORD
  5
19A
330
1
100
AcDbSymbolTableRecord
100
AcDbBlockTableRecord
  2
BLOCK_40
  0
BLOCK_RECORD
  5
1A3
330
1
100
AcDbSymbolTableRecord
100
AcDbBlockTableRecord
  2
BLOCK_41
  0
BLOCK_RECORD
  5
1AC
330
1
100
AcDbSymbolTableRecord
100
AcDbBlockTableRecord
  2
BLOCK_42
  0
BLOCK_RECORD
  5
1B5
330
1
100
AcDbSymbolTableRecord
100
AcDbBlockTableRecord
  2
BLOCK_43
  0
BLOCK_RECORD
  5
1BE
330
1
100
AcDbSymbolTableRecord
100
AcDbBlockTableRecord
  2
BLOCK_44
  0
BLOCK_RECORD
  5
1C7
330
1
100
AcDbSymbolTableRecord
100
AcDbBlockTableRecord
  2
BLOCK_45
  0
BLOCK_RECORD
  5
1D0
330
1
100
AcDbSymbolTableRecord
100
AcDbBlockTableRecord
  2
BLOCK_46
  0
BLOCK_RECORD
  5
1D9
330
1
100
AcDbSymbolTableRecord
100
AcDbBlockTableRecord
  2
BLOCK_47
  0
BLOCK_RECORD
  5
1E2
330
1
100
AcDbSymbolTableRecord
100
AcDbBlockTableRecord
  2
BLOCK_48
  0
BLOCK_RECORD
  5
1EB
330
1
100
AcDbSymbolTableRecord
100
AcDbBlockTableRecord
  2
BLOCK_49
  0
BLOCK_RECORD
  5
20D
330
1
100
AcDbSymbolTableRecord
100
AcDbBlockTableRecord
  2
BLOCK_50
  0
BLOCK_RECORD
  5
215
330
1
100
AcDbSymbolTableRecord
100
AcDbBlockTableRecord
  2
BLOCK_51
  0
BLOCK_RECORD
  5
21D
330
1
100
AcDbSymbolTableRecord
100
AcDbBlockTableRecord
  2
BLOCK_52
  0
BLOCK_RECORD
  5
225
330
1
100
AcDbSymbolTableRecord
100
AcDbBlockTableRecord
  2
BLOCK_53
  0
BLOCK_RECORD
  5
22D
330
1
100
AcDbSymbolTableRecord
100
AcDbBlockTableRecord
  2
BLOCK_54
  0
BLOCK_RECORD
  5
235
330
1
100
AcDbSymbolTableRecord
100
AcDbBlockTableRecord
  2
BLOCK_55
  0
BLOCK_RECORD
  5
23D
330
1
100
AcDbSymbolTableRecord
100
AcDbBlockTableRecord
  2
BLOCK_56
  0
BLOCK_RECORD
  5
245
330
1
100
AcDbSymbolTableRecord
100
AcDbBlockTableRecord
  2
BLOCK_57
  0
BLOCK_RECORD
  5
24D
330
1
100
AcDbSymbolTableRecord
100
AcDbBlockTableRecord
  2
BLOCK_58
  0
BLOCK_RECORD
  5
255
330
1
100
AcDbSymbolTableRecord
100
AcDbBlockTableRecord
  2
BLOCK_59
  0
BLOCK_RECORD
  5
25D
330
1
100
AcDbSymbolTableRecord
100
AcDbBlockTableRecord
  2
BLOCK_60
  0
BLOCK_RECORD
  5
265
330
1
100
AcDbSymbolTableRecord
100
AcDbBlockTableRecord
  2
BLOCK_61
  0
BLOCK_RECORD
  5
26D
330
1
100
AcDbSymbolTableRecord
100
AcDbBlockTableRecord
  2
BLOCK_62
  0
BLOCK_RECORD
  5
275
330
1
100
AcDbSymbolTableRecord
100
AcDbBlockTableRecord
  2
BLOCK_63
  0
BLOCK_RECORD
  5
27D
330
1
100
AcDbSymbolTableRecord
100
AcDbBlockTableRecord
  2
BLOCK_64
  0
BLOCK_RECORD
  5
285
330
1
100
AcDbSymbolTableRecord
100
AcDbBlockTableRecord
  2
BLOCK_65
  0
BLOCK_RECORD
  5
28D
330
1
100
AcDbSymbolTableRecord
100
AcDbBlockTableRecord
  2
BLOCK_66
  0
BLOCK_RECORD
  5
295
330
1
100
AcDbSymbolTableRecord
100
AcDbBlockTableRecord
  2
BLOCK_67
  0
BLOCK_RECORD
  5
29D
330
1
100
AcDbSymbolTableRecord
100
AcDbBlockTableRecord
  2
BLOCK_68
  0
BLOCK_RECORD
  5
2A5
330
1
100
AcDbSymbolTableRecord
100
AcDbBlockTableRecord
  2
BLOCK_69
  0
BLOCK_RECORD
  5
2AD
330
1
100
AcDbSymbolTableRecord
100
AcDbBlockTableRecord
  2
BLOCK_70
  0
BLOCK_RECORD
  5
2B5
330
1
100
AcDbSymbolTableRecord
100
AcDbBlockTableRecord
  2
BLOCK_71
  0
BLOCK_RECORD
  5
2BD
330
1
100
AcDbSymbolTableRecord
100
AcDbBlockTableRecord
  2
BLOCK_72
  0
BLOCK_RECORD
  5
2C5
330
1
100
AcDbSymbolTableRecord
100
AcDbBlockTableRecord
  2
BLOCK_73
  0
BLOCK_RECORD
  5
2CD
330
1
100
AcDbSymbolTableRecord
100
AcDbBlockTableRecord
  2
BLOCK_74
  0
BLOCK_RECORD
  5
2D5
330
1
100
AcDbSymbolTableRecord
100
AcDbBlockTableRecord
  2
BLOCK_75
  0
BLOCK_RECORD
  5
2DD
330
1
100
AcDbSymbolTableRecord
100
AcDbBlockTableRecord
  2
BLOCK_76
  0
BLOCK_RECORD
  5
2E5
330
1
100
AcDbSymbolTableRecord
100
AcDbBlockTableRecord
  2
BLOCK_77
  0
BLOCK_RECORD
  5
2ED
330
1
100
AcDbSymbolTableRecord
100
AcDbBlockTableRecord
  2
BLOCK_78
  0
BLOCK_RECORD
  5
2F5
330
1
100
AcDbSymbolTableRecord
100
AcDbBlockTableRecord
  2
BLOCK_79
  0
BLOCK_RECORD
  5
2FD
330
1
100
AcDbSymbolTableRecord
100
AcDbBlockTableRecord
  2
BLOCK_80
  0
BLOCK_RECORD
  5
305
330
1
100
AcDbSymbolTableRecord
100
AcDbBlockTableRecord
  2
BLOCK_81
  0
BLOCK_RECORD
  5
30D
330
1
100
AcDbSymbolTableRecord
100
AcDbBlockTableRecord
  2
BLOCK_82
  0
BLOCK_RECORD
  5
315
330
1
100
AcDbSymbolTableRecord
100
AcDbBlockTableRecord
  2
BLOCK_83
  0
BLOCK_RECORD
  5
31D
330
1
100
AcDbSymbolTableRecord
100
AcDbBlockTableRecord
  2
BLOCK_84
  0
BLOCK_RECORD
  5
325
330
1
100
AcDbSymbolTableRecord
100
AcDbBlockTableRecord
  2
BLOCK_85
  0
ENDTAB
  0
ENDSEC
  0
SECTION
  2
BLOCKS
  0
BLOCK
  5
20
330
1F
100
AcDbEntity
  8
0
100
AcDbBlockBegin
  2
*MODEL_SPACE
 70
     0
 71
     0
 10
0.0
 20
0.0
 30
0.0
  3
*MODEL_SPACE
  1

  0
ENDBLK
  5
21
330
1F
100
AcDbEntity
  8
0
100
AcDbBlockEnd
  0
BLOCK
  5
1C
330
1B
100
AcDbEntity
 67
     1
  8
0
100
AcDbBlockBegin
  2
*PAPER_SPACE
 70
     0
 71
     0
 10
0.0
 20
0.0
 30
0.0
  3
*PAPER_SPACE
  1

  0
ENDBLK
  5
1D
330
1B
100
AcDbEntity
 67
     1
  8
0
100
AcDbBlockEnd
  0
BLOCK
  5
46
330
44
100
AcDbEntity
  8
0
100
AcDbBlockBegin
  2
BLOCK_2
 70
     0
 71
     0
 10
0.0
 20
0.0
 30
0.0
  3
BLOCK_2
  1

  0
POLYLINE
  5
48
330
44
100
AcDbEntity
  8
VALLEYLINE
  6
AI-LINETYPE-1
 62
   250
100
AcDb2dPolyline
 66
     1
 10
0.0
 20
0.0
 30
0.0
  0
VERTEX
  5
49
330
48
100
AcDbEntity
  8
VALLEYLINE
  6
AI-LINETYPE-1
 62
   250
100
AcDbVertex
100
AcDb2dVertex
 10
159.1930392397156
 20
-46.20562064817082
 30
0.0
  0
VERTEX
  5
4A
330
48
100
AcDbEntity
  8
VALLEYLINE
  6
AI-LINETYPE-1
 62
   250
100
AcDbVertex
100
AcDb2dVertex
 10
119.9844075220872
 20
-88.25077173357967
 30
0.0
  0
SEQEND
  5
4B
330
48
100
AcDbEntity
  8
VALLEYLINE
  6
AI-LINETYPE-1
  0
ENDBLK
  5
47
330
44
100
AcDbEntity
  8
0
100
AcDbBlockEnd
  0
BLOCK
  5
4F
330
4D
100
AcDbEntity
  8
0
100
AcDbBlockBegin
  2
BLOCK_3
 70
     0
 71
     0
 10
0.0
 20
0.0
 30
0.0
  3
BLOCK_3
  1

  0
POLYLINE
  5
51
330
4D
100
AcDbEntity
  8
VALLEYLINE
  6
AI-LINETYPE-2
 62
   250
100
AcDb2dPolyline
 66
     1
 10
0.0
 20
0.0
 30
0.0
  0
VERTEX
  5
52
330
51
100
AcDbEntity
  8
VALLEYLINE
  6
AI-LINETYPE-2
 62
   250
100
AcDbVertex
100
AcDb2dVertex
 10
119.9844075220872
 20
-88.25077173357967
 30
0.0
  0
VERTEX
  5
53
330
51
100
AcDbEntity
  8
VALLEYLINE
  6
AI-LINETYPE-2
 62
   250
100
AcDbVertex
100
AcDb2dVertex
 10
89.78969588684078
 20
-97.48224959585514
 30
0.0
  0
SEQEND
  5
54
330
51
100
AcDbEntity
  8
VALLEYLINE
  6
AI-LINETYPE-2
  0
ENDBLK
  5
50
330
4D
100
AcDbEntity
  8
0
100
AcDbBlockEnd
  0
BLOCK
  5
58
330
56
100
AcDbEntity
  8
0
100
AcDbBlockBegin
  2
BLOCK_4
 70
     0
 71
     0
 10
0.0
 20
0.0
 30
0.0
  3
BLOCK_4
  1

  0
POLYLINE
  5
5A
330
56
100
AcDbEntity
  8
VALLEYLINE
  6
AI-LINETYPE-3
 62
   250
100
AcDb2dPolyline
 66
     1
 10
0.0
 20
0.0
 30
0.0
  0
VERTEX
  5
5B
330
5A
100
AcDbEntity
  8
VALLEYLINE
  6
AI-LINETYPE-3
 62
   250
100
AcDbVertex
100
AcDb2dVertex
 10
130.502973057652
 20
-89.03987085447615
 30
0.0
  0
VERTEX
  5
5C
330
5A
100
AcDbEntity
  8
VALLEYLINE
  6
AI-LINETYPE-3
 62
   250
100
AcDbVertex
100
AcDb2dVertex
 10
93.20481904136894
 20
-129.0367404191297
 30
0.0
  0
SEQEND
  5
5D
330
5A
100
AcDbEntity
  8
VALLEYLINE
  6
AI-LINETYPE-3
  0
ENDBLK
  5
59
330
56
100
AcDbEntity
  8
0
100
AcDbBlockEnd
  0
BLOCK
  5
61
330
5F
100
AcDbEntity
  8
0
100
AcDbBlockBegin
  2
BLOCK_5
 70
     0
 71
     0
 10
0.0
 20
0.0
 30
0.0
  3
BLOCK_5
  1

  0
POLYLINE
  5
63
330
5F
100
AcDbEntity
  8
VALLEYLINE
  6
AI-LINETYPE-4
 62
   250
100
AcDb2dPolyline
 66
     1
 10
0.0
 20
0.0
 30
0.0
  0
VERTEX
  5
64
330
63
100
AcDbEntity
  8
VALLEYLINE
  6
AI-LINETYPE-4
 62
   250
100
AcDbVertex
100
AcDb2dVertex
 10
93.20481904136894
 20
-129.0367404191297
 30
0.0
  0
VERTEX
  5
65
330
63
100
AcDbEntity
  8
VALLEYLINE
  6
AI-LINETYPE-4
 62
   250
100
AcDbVertex
100
AcDb2dVertex
 10
100.3080891676313
 20
-98.27134871675162
 30
0.0
  0
SEQEND
  5
66
330
63
100
AcDbEntity
  8
VALLEYLINE
  6
AI-LINETYPE-4
  0
ENDBLK
  5
62
330
5F
100
AcDbEntity
  8
0
100
AcDbBlockEnd
  0
BLOCK
  5
6A
330
68
100
AcDbEntity
  8
0
100
AcDbBlockBegin
  2
BLOCK_6
 70
     0
 71
     0
 10
0.0
 20
0.0
 30
0.0
  3
BLOCK_6
  1

  0
POLYLINE
  5
6C
330
68
100
AcDbEntity
  8
VALLEYLINE
  6
AI-LINETYPE-5
 62
   250
100
AcDb2dPolyline
 66
     1
 10
0.0
 20
0.0
 30
0.0
  0
VERTEX
  5
6D
330
6C
100
AcDbEntity
  8
VALLEYLINE
  6
AI-LINETYPE-5
 62
   250
100
AcDbVertex
100
AcDb2dVertex
 10
71.27334118226847
 20
-85.45214841613696
 30
0.0
  0
VERTEX
  5
6E
330
6C
100
AcDbEntity
  8
VALLEYLINE
  6
AI-LINETYPE-5
 62
   250
100
AcDbVertex
100
AcDb2dVertex
 10
94.36529945557534
 20
-106.9858900014653
 30
0.0
  0
SEQEND
  5
6F
330
6C
100
AcDbEntity
  8
VALLEYLINE
  6
AI-LINETYPE-5
  0
ENDBLK
  5
6B
330
68
100
AcDbEntity
  8
0
100
AcDbBlockEnd
  0
BLOCK
  5
73
330
71
100
AcDbEntity
  8
0
100
AcDbBlockBegin
  2
BLOCK_7
 70
     0
 71
     0
 10
0.0
 20
0.0
 30
0.0
  3
BLOCK_7
  1

  0
POLYLINE
  5
75
330
71
100
AcDbEntity
  8
VALLEYLINE
  6
AI-LINETYPE-6
 62
   250
100
AcDb2dPolyline
 66
     1
 10
0.0
 20
0.0
 30
0.0
  0
VERTEX
  5
76
330
75
100
AcDbEntity
  8
VALLEYLINE
  6
AI-LINETYPE-6
 62
   250
100
AcDbVertex
100
AcDb2dVertex
 10
204.4681395973205
 20
-137.8675536764706
 30
0.0
  0
VERTEX
  5
77
330
75
100
AcDbEntity
  8
VALLEYLINE
  6
AI-LINETYPE-6
 62
   250
100
AcDbVertex
100
AcDb2dVertex
 10
161.9377468128142
 20
-128.0486870339601
 30
0.0
  0
SEQEND
  5
78
330
75
100
AcDbEntity
  8
VALLEYLINE
  6
AI-LINETYPE-6
  0
ENDBLK
  5
74
330
71
100
AcDbEntity
  8
0
100
AcDbBlockEnd
  0
BLOCK
  5
7C
330
7A
100
AcDbEntity
  8
0
100
AcDbBlockBegin
  2
BLOCK_8
 70
     0
 71
     0
 10
0.0
 20
0.0
 30
0.0
  3
BLOCK_8
  1

  0
POLYLINE
  5
7E
330
7A
100
AcDbEntity
  8
VALLEYLINE
  6
AI-LINETYPE-7
 62
   250
100
AcDb2dPolyline
 66
     1
 10
0.0
 20
0.0
 30
0.0
  0
VERTEX
  5
7F
330
7E
100
AcDbEntity
  8
VALLEYLINE
  6
AI-LINETYPE-7
 62
   250
100
AcDbVertex
100
AcDb2dVertex
 10
161.9377468128142
 20
-128.0486870339601
 30
0.0
  0
VERTEX
  5
80
330
7E
100
AcDbEntity
  8
VALLEYLINE
  6
AI-LINETYPE-7
 62
   250
100
AcDbVertex
100
AcDb2dVertex
 10
138.8463053038301
 20
-106.5149454486317
 30
0.0
  0
SEQEND
  5
81
330
7E
100
AcDbEntity
  8
VALLEYLINE
  6
AI-LINETYPE-7
  0
ENDBLK
  5
7D
330
7A
100
AcDbEntity
  8
0
100
AcDbBlockEnd
  0
BLOCK
  5
85
330
83
100
AcDbEntity
  8
0
100
AcDbBlockBegin
  2
BLOCK_9
 70
     0
 71
     0
 10
0.0
 20
0.0
 30
0.0
  3
BLOCK_9
  1

  0
POLYLINE
  5
87
330
83
100
AcDbEntity
  8
VALLEYLINE
  6
AI-LINETYPE-8
 62
   250
100
AcDb2dPolyline
 66
     1
 10
0.0
 20
0.0
 30
0.0
  0
VERTEX
  5
88
330
87
100
AcDbEntity
  8
VALLEYLINE
  6
AI-LINETYPE-8
 62
   250
100
AcDbVertex
100
AcDb2dVertex
 10
140.0062689537137
 20
-84.46426728574157
 30
0.0
  0
VERTEX
  5
89
330
87
100
AcDbEntity
  8
VALLEYLINE
  6
AI-LINETYPE-8
 62
   250
100
AcDbVertex
100
AcDb2dVertex
 10
132.9035155917741
 20
-115.2293144785712
 30
0.0
  0
SEQEND
  5
8A
330
87
100
AcDbEntity
  8
VALLEYLINE
  6
AI-LINETYPE-8
  0
ENDBLK
  5
86
330
83
100
AcDbEntity
  8
0
100
AcDbBlockEnd
  0
BLOCK
  5
8E
330
8C
100
AcDbEntity
  8
0
100
AcDbBlockBegin
  2
BLOCK_10
 70
     0
 71
     0
 10
0.0
 20
0.0
 30
0.0
  3
BLOCK_10
  1

  0
POLYLINE
  5
90
330
8C
100
AcDbEntity
  8
VALLEYLINE
  6
AI-LINETYPE-9
 62
   250
100
AcDb2dPolyline
 66
     1
 10
0.0
 20
0.0
 30
0.0
  0
VERTEX
  5
91
330
90
100
AcDbEntity
  8
VALLEYLINE
  6
AI-LINETYPE-9
 62
   250
100
AcDbVertex
100
AcDb2dVertex
 10
166.513522636323
 20
-137.5516384204732
 30
0.0
  0
VERTEX
  5
92
330
90
100
AcDbEntity
  8
VALLEYLINE
  6
AI-LINETYPE-9
 62
   250
100
AcDbVertex
100
AcDb2dVertex
 10
113.2268527277697
 20
-125.2498914617431
 30
0.0
  0
SEQEND
  5
93
330
90
100
AcDbEntity
  8
VALLEYLINE
  6
AI-LINETYPE-9
  0
ENDBLK
  5
8F
330
8C
100
AcDbEntity
  8
0
100
AcDbBlockEnd
  0
BLOCK
  5
97
330
95
100
AcDbEntity
  8
0
100
AcDbBlockBegin
  2
BLOCK_11
 70
     0
 71
     0
 10
0.0
 20
0.0
 30
0.0
  3
BLOCK_11
  1

  0
POLYLINE
  5
99
330
95
100
AcDbEntity
  8
VALLEYLINE
  6
AI-LINETYPE-10
 62
   250
100
AcDb2dPolyline
 66
     1
 10
0.0
 20
0.0
 30
0.0
  0
VERTEX
  5
9A
330
99
100
AcDbEntity
  8
VALLEYLINE
  6
AI-LINETYPE-10
 62
   250
100
AcDbVertex
100
AcDb2dVertex
 10
113.2268527277697
 20
-125.2498914617431
 30
0.0
  0
VERTEX
  5
9B
330
99
100
AcDbEntity
  8
VALLEYLINE
  6
AI-LINETYPE-10
 62
   250
100
AcDbVertex
100
AcDb2dVertex
 10
143.4217366177904
 20
-116.0184135994676
 30
0.0
  0
SEQEND
  5
9C
330
99
100
AcDbEntity
  8
VALLEYLINE
  6
AI-LINETYPE-10
  0
ENDBLK
  5
98
330
95
100
AcDbEntity
  8
0
100
AcDbBlockEnd
  0
BLOCK
  5
A0
330
9E
100
AcDbEntity
  8
0
100
AcDbBlockBegin
  2
BLOCK_12
 70
     0
 71
     0
 10
0.0
 20
0.0
 30
0.0
  3
BLOCK_12
  1

  0
POLYLINE
  5
A2
330
9E
100
AcDbEntity
  8
VALLEYLINE
  6
AI-LINETYPE-11
 62
   250
100
AcDb2dPolyline
 66
     1
 10
0.0
 20
0.0
 30
0.0
  0
VERTEX
  5
A3
330
A2
100
AcDbEntity
  8
VALLEYLINE
  6
AI-LINETYPE-11
 62
   250
100
AcDbVertex
100
AcDb2dVertex
 10
70.48458657092053
 20
-95.97019718737899
 30
0.0
  0
VERTEX
  5
A4
330
A2
100
AcDbEntity
  8
VALLEYLINE
  6
AI-LINETYPE-11
 62
   250
100
AcDbVertex
100
AcDb2dVertex
 10
86.47361922751354
 20
-148.2691582203112
 30
0.0
  0
SEQEND
  5
A5
330
A2
100
AcDbEntity
  8
VALLEYLINE
  6
AI-LINETYPE-11
  0
ENDBLK
  5
A1
330
9E
100
AcDbEntity
  8
0
100
AcDbBlockEnd
  0
BLOCK
  5
A9
330
A7
100
AcDbEntity
  8
0
100
AcDbBlockBegin
  2
BLOCK_13
 70
     0
 71
     0
 10
0.0
 20
0.0
 30
0.0
  3
BLOCK_13
  1

  0
POLYLINE
  5
AB
330
A7
100
AcDbEntity
  8
VALLEYLINE
  6
AI-LINETYPE-12
 62
   250
100
AcDb2dPolyline
 66
     1
 10
0.0
 20
0.0
 30
0.0
  0
VERTEX
  5
AC
330
AB
100
AcDbEntity
  8
VALLEYLINE
  6
AI-LINETYPE-12
 62
   250
100
AcDbVertex
100
AcDb2dVertex
 10
86.47361922751354
 20
-148.2691582203112
 30
0.0
  0
VERTEX
  5
AD
330
AB
100
AcDbEntity
  8
VALLEYLINE
  6
AI-LINETYPE-12
 62
   250
100
AcDbVertex
100
AcDb2dVertex
 10
63.38166095420667
 20
-126.7355888897571
 30
0.0
  0
SEQEND
  5
AE
330
AB
100
AcDbEntity
  8
VALLEYLINE
  6
AI-LINETYPE-12
  0
ENDBLK
  5
AA
330
A7
100
AcDbEntity
  8
0
100
AcDbBlockEnd
  0
BLOCK
  5
B2
330
B0
100
AcDbEntity
  8
0
100
AcDbBlockBegin
  2
BLOCK_14
 70
     0
 71
     0
 10
0.0
 20
0.0
 30
0.0
  3
BLOCK_14
  1

  0
POLYLINE
  5
B4
330
B0
100
AcDbEntity
  8
VALLEYLINE
  6
AI-LINETYPE-13
 62
   250
100
AcDb2dPolyline
 66
     1
 10
0.0
 20
0.0
 30
0.0
  0
VERTEX
  5
B5
330
B4
100
AcDbEntity
  8
VALLEYLINE
  6
AI-LINETYPE-13
 62
   250
100
AcDbVertex
100
AcDb2dVertex
 10
64.54179685886456
 20
-104.684910726867
 30
0.0
  0
VERTEX
  5
B6
330
B4
100
AcDbEntity
  8
VALLEYLINE
  6
AI-LINETYPE-13
 62
   250
100
AcDbVertex
100
AcDb2dVertex
 10
57.43921575169923
 20
-135.449613410148
 30
0.0
  0
SEQEND
  5
B7
330
B4
100
AcDbEntity
  8
VALLEYLINE
  6
AI-LINETYPE-13
  0
ENDBLK
  5
B3
330
B0
100
AcDbEntity
  8
0
100
AcDbBlockEnd
  0
BLOCK
  5
BB
330
B9
100
AcDbEntity
  8
0
100
AcDbBlockBegin
  2
BLOCK_15
 70
     0
 71
     0
 10
0.0
 20
0.0
 30
0.0
  3
BLOCK_15
  1

  0
POLYLINE
  5
BD
330
B9
100
AcDbEntity
  8
VALLEYLINE
  6
AI-LINETYPE-14
 62
   250
100
AcDb2dPolyline
 66
     1
 10
0.0
 20
0.0
 30
0.0
  0
VERTEX
  5
BE
330
BD
100
AcDbEntity
  8
VALLEYLINE
  6
AI-LINETYPE-14
 62
   250
100
AcDbVertex
100
AcDb2dVertex
 10
46.66278481906348
 20
-46.20562064817082
 30
0.0
  0
VERTEX
  5
BF
330
BD
100
AcDbEntity
  8
VALLEYLINE
  6
AI-LINETYPE-14
 62
   250
100
AcDbVertex
100
AcDb2dVertex
 10
64.54179685886456
 20
-104.684910726867
 30
0.0
  0
SEQEND
  5
C0
330
BD
100
AcDbEntity
  8
VALLEYLINE
  6
AI-LINETYPE-14
  0
ENDBLK
  5
BC
330
B9
100
AcDbEntity
  8
0
100
AcDbBlockEnd
  0
BLOCK
  5
C4
330
C2
100
AcDbEntity
  8
0
100
AcDbBlockBegin
  2
BLOCK_16
 70
     0
 71
     0
 10
0.0
 20
0.0
 30
0.0
  3
BLOCK_16
  1

  0
POLYLINE
  5
C6
330
C2
100
AcDbEntity
  8
VALLEYLINE
  6
AI-LINETYPE-15
 62
   250
100
AcDb2dPolyline
 66
     1
 10
0.0
 20
0.0
 30
0.0
  0
VERTEX
  5
C7
330
C6
100
AcDbEntity
  8
VALLEYLINE
  6
AI-LINETYPE-15
 62
   250
100
AcDbVertex
100
AcDb2dVertex
 10
37.76272514246904
 20
-145.4703626480942
 30
0.0
  0
VERTEX
  5
C8
330
C6
100
AcDbEntity
  8
VALLEYLINE
  6
AI-LINETYPE-15
 62
   250
100
AcDbVertex
100
AcDb2dVertex
 10
67.9574367777155
 20
-136.2388847858188
 30
0.0
  0
SEQEND
  5
C9
330
C6
100
AcDbEntity
  8
VALLEYLINE
  6
AI-LINETYPE-15
  0
ENDBLK
  5
C5
330
C2
100
AcDbEntity
  8
0
100
AcDbBlockEnd
  0
BLOCK
  5
CD
330
CB
100
AcDbEntity
  8
0
100
AcDbBlockBegin
  2
BLOCK_17
 70
     0
 71
     0
 10
0.0
 20
0.0
 30
0.0
  3
BLOCK_17
  1

  0
POLYLINE
  5
CF
330
CB
100
AcDbEntity
  8
VALLEYLINE
  6
AI-LINETYPE-16
 62
   250
100
AcDb2dPolyline
 66
     1
 10
0.0
 20
0.0
 30
0.0
  0
VERTEX
  5
D0
330
CF
100
AcDbEntity
  8
VALLEYLINE
  6
AI-LINETYPE-16
 62
   250
100
AcDbVertex
100
AcDb2dVertex
 10
166.5434949670447
 20
-243.4645534330575
 30
0.0
  0
VERTEX
  5
D1
330
CF
100
AcDbEntity
  8
VALLEYLINE
  6
AI-LINETYPE-16
 62
   250
100
AcDbVertex
100
AcDb2dVertex
 10
148.4491644594155
 20
-184.2805690728535
 30
0.0
  0
SEQEND
  5
D2
330
CF
100
AcDbEntity
  8
VALLEYLINE
  6
AI-LINETYPE-16
  0
ENDBLK
  5
CE
330
CB
100
AcDbEntity
  8
0
100
AcDbBlockEnd
  0
BLOCK
  5
D6
330
D4
100
AcDbEntity
  8
0
100
AcDbBlockBegin
  2
BLOCK_18
 70
     0
 71
     0
 10
0.0
 20
0.0
 30
0.0
  3
BLOCK_18
  1

  0
POLYLINE
  5
D8
330
D4
100
AcDbEntity
  8
VALLEYLINE
  6
AI-LINETYPE-17
 62
   250
100
AcDb2dPolyline
 66
     1
 10
0.0
 20
0.0
 30
0.0
  0
VERTEX
  5
D9
330
D8
100
AcDbEntity
  8
VALLEYLINE
  6
AI-LINETYPE-17
 62
   250
100
AcDbVertex
100
AcDb2dVertex
 10
148.4491644594155
 20
-184.2805690728535
 30
0.0
  0
VERTEX
  5
DA
330
D8
100
AcDbEntity
  8
VALLEYLINE
  6
AI-LINETYPE-17
 62
   250
100
AcDbVertex
100
AcDb2dVertex
 10
155.5519178213551
 20
-153.5151773704754
 30
0.0
  0
SEQEND
  5
DB
330
D8
100
AcDbEntity
  8
VALLEYLINE
  6
AI-LINETYPE-17
  0
ENDBLK
  5
D7
330
D4
100
AcDbEntity
  8
0
100
AcDbBlockEnd
  0
BLOCK
  5
DF
330
DD
100
AcDbEntity
  8
0
100
AcDbBlockBegin
  2
BLOCK_19
 70
     0
 71
     0
 10
0.0
 20
0.0
 30
0.0
  3
BLOCK_19
  1

  0
POLYLINE
  5
E1
330
DD
100
AcDbEntity
  8
VALLEYLINE
  6
AI-LINETYPE-18
 62
   250
100
AcDb2dPolyline
 66
     1
 10
0.0
 20
0.0
 30
0.0
  0
VERTEX
  5
E2
330
E1
100
AcDbEntity
  8
VALLEYLINE
  6
AI-LINETYPE-18
 62
   250
100
AcDbVertex
100
AcDb2dVertex
 10
175.2278916662625
 20
-143.4942558777549
 30
0.0
  0
VERTEX
  5
E3
330
E1
100
AcDbEntity
  8
VALLEYLINE
  6
AI-LINETYPE-18
 62
   250
100
AcDbVertex
100
AcDb2dVertex
 10
145.0330077762418
 20
-152.7259059948046
 30
0.0
  0
SEQEND
  5
E4
330
E1
100
AcDbEntity
  8
VALLEYLINE
  6
AI-LINETYPE-18
  0
ENDBLK
  5
E0
330
DD
100
AcDbEntity
  8
0
100
AcDbBlockEnd
  0
BLOCK
  5
E8
330
E6
100
AcDbEntity
  8
0
100
AcDbBlockBegin
  2
BLOCK_20
 70
     0
 71
     0
 10
0.0
 20
0.0
 30
0.0
  3
BLOCK_20
  1

  0
POLYLINE
  5
EA
330
E6
100
AcDbEntity
  8
VALLEYLINE
  6
AI-LINETYPE-19
 62
   250
100
AcDb2dPolyline
 66
     1
 10
0.0
 20
0.0
 30
0.0
  0
VERTEX
  5
EB
330
EA
100
AcDbEntity
  8
VALLEYLINE
  6
AI-LINETYPE-19
 62
   250
100
AcDbVertex
100
AcDb2dVertex
 10
142.5063747473595
 20
-192.9945935932444
 30
0.0
  0
VERTEX
  5
EC
330
EA
100
AcDbEntity
  8
VALLEYLINE
  6
AI-LINETYPE-19
 62
   250
100
AcDbVertex
100
AcDb2dVertex
 10
126.516997581218
 20
-140.6956325603122
 30
0.0
  0
SEQEND
  5
ED
330
EA
100
AcDbEntity
  8
VALLEYLINE
  6
AI-LINETYPE-19
  0
ENDBLK
  5
E9
330
E6
100
AcDbEntity
  8
0
100
AcDbBlockEnd
  0
BLOCK
  5
F1
330
EF
100
AcDbEntity
  8
0
100
AcDbBlockBegin
  2
BLOCK_21
 70
     0
 71
     0
 10
0.0
 20
0.0
 30
0.0
  3
BLOCK_21
  1

  0
POLYLINE
  5
F3
330
EF
100
AcDbEntity
  8
VALLEYLINE
  6
AI-LINETYPE-20
 62
   250
100
AcDb2dPolyline
 66
     1
 10
0.0
 20
0.0
 30
0.0
  0
VERTEX
  5
F4
330
F3
100
AcDbEntity
  8
VALLEYLINE
  6
AI-LINETYPE-20
 62
   250
100
AcDbVertex
100
AcDb2dVertex
 10
126.516997581218
 20
-140.6956325603122
 30
0.0
  0
VERTEX
  5
F5
330
F3
100
AcDbEntity
  8
VALLEYLINE
  6
AI-LINETYPE-20
 62
   250
100
AcDbVertex
100
AcDb2dVertex
 10
149.6091281092991
 20
-162.2298909099634
 30
0.0
  0
SEQEND
  5
F6
330
F3
100
AcDbEntity
  8
VALLEYLINE
  6
AI-LINETYPE-20
  0
ENDBLK
  5
F2
330
EF
100
AcDbEntity
  8
0
100
AcDbBlockEnd
  0
BLOCK
  5
FA
330
F8
100
AcDbEntity
  8
0
100
AcDbBlockBegin
  2
BLOCK_22
 70
     0
 71
     0
 10
0.0
 20
0.0
 30
0.0
  3
BLOCK_22
  1

  0
POLYLINE
  5
FC
330
F8
100
AcDbEntity
  8
VALLEYLINE
  6
AI-LINETYPE-21
 62
   250
100
AcDb2dPolyline
 66
     1
 10
0.0
 20
0.0
 30
0.0
  0
VERTEX
  5
FD
330
FC
100
AcDbEntity
  8
VALLEYLINE
  6
AI-LINETYPE-21
 62
   250
100
AcDbVertex
100
AcDb2dVertex
 10
141.7174478812373
 20
-203.5131591288092
 30
0.0
  0
VERTEX
  5
FE
330
FC
100
AcDbEntity
  8
VALLEYLINE
  6
AI-LINETYPE-21
 62
   250
100
AcDbVertex
100
AcDb2dVertex
 10
118.6249728436077
 20
-181.9789007791581
 30
0.0
  0
SEQEND
  5
FF
330
FC
100
AcDbEntity
  8
VALLEYLINE
  6
AI-LINETYPE-21
  0
ENDBLK
  5
FB
330
F8
100
AcDbEntity
  8
0
100
AcDbBlockEnd
  0
BLOCK
  5
103
330
101
100
AcDbEntity
  8
0
100
AcDbBlockBegin
  2
BLOCK_23
 70
     0
 71
     0
 10
0.0
 20
0.0
 30
0.0
  3
BLOCK_23
  1

  0
POLYLINE
  5
105
330
101
100
AcDbEntity
  8
VALLEYLINE
  6
AI-LINETYPE-22
 62
   250
100
AcDb2dPolyline
 66
     1
 10
0.0
 20
0.0
 30
0.0
  0
VERTEX
  5
106
330
105
100
AcDbEntity
  8
VALLEYLINE
  6
AI-LINETYPE-22
 62
   250
100
AcDbVertex
100
AcDb2dVertex
 10
119.7859700221369
 20
-159.928222616268
 30
0.0
  0
VERTEX
  5
107
330
105
100
AcDbEntity
  8
VALLEYLINE
  6
AI-LINETYPE-22
 62
   250
100
AcDbVertex
100
AcDb2dVertex
 10
112.6832166601973
 20
-190.693614318646
 30
0.0
  0
SEQEND
  5
108
330
105
100
AcDbEntity
  8
VALLEYLINE
  6
AI-LINETYPE-22
  0
ENDBLK
  5
104
330
101
100
AcDbEntity
  8
0
100
AcDbBlockEnd
  0
BLOCK
  5
10C
330
10A
100
AcDbEntity
  8
0
100
AcDbBlockBegin
  2
BLOCK_24
 70
     0
 71
     0
 10
0.0
 20
0.0
 30
0.0
  3
BLOCK_24
  1

  0
POLYLINE
  5
10E
330
10A
100
AcDbEntity
  8
VALLEYLINE
  6
AI-LINETYPE-23
 62
   250
100
AcDb2dPolyline
 66
     1
 10
0.0
 20
0.0
 30
0.0
  0
VERTEX
  5
10F
330
10E
100
AcDbEntity
  8
VALLEYLINE
  6
AI-LINETYPE-23
 62
   250
100
AcDbVertex
100
AcDb2dVertex
 10
82.48816051540227
 20
-199.92543669047
 30
0.0
  0
VERTEX
  5
110
330
10E
100
AcDbEntity
  8
VALLEYLINE
  6
AI-LINETYPE-23
 62
   250
100
AcDbVertex
100
AcDb2dVertex
 10
119.7859700221369
 20
-159.928222616268
 30
0.0
  0
SEQEND
  5
111
330
10E
100
AcDbEntity
  8
VALLEYLINE
  6
AI-LINETYPE-23
  0
ENDBLK
  5
10D
330
10A
100
AcDbEntity
  8
0
100
AcDbBlockEnd
  0
BLOCK
  5
115
330
113
100
AcDbEntity
  8
0
100
AcDbBlockBegin
  2
BLOCK_25
 70
     0
 71
     0
 10
0.0
 20
0.0
 30
0.0
  3
BLOCK_25
  1

  0
POLYLINE
  5
117
330
113
100
AcDbEntity
  8
VALLEYLINE
  6
AI-LINETYPE-24
 62
   250
100
AcDb2dPolyline
 66
     1
 10
0.0
 20
0.0
 30
0.0
  0
VERTEX
  5
118
330
117
100
AcDbEntity
  8
VALLEYLINE
  6
AI-LINETYPE-24
 62
   250
100
AcDbVertex
100
AcDb2dVertex
 10
72.9843478550178
 20
-204.5008680044303
 30
0.0
  0
VERTEX
  5
119
330
117
100
AcDbEntity
  8
VALLEYLINE
  6
AI-LINETYPE-24
 62
   250
100
AcDbVertex
100
AcDb2dVertex
 10
80.0871012169574
 20
-173.7361653211493
 30
0.0
  0
SEQEND
  5
11A
330
117
100
AcDbEntity
  8
VALLEYLINE
  6
AI-LINETYPE-24
  0
ENDBLK
  5
116
330
113
100
AcDbEntity
  8
0
100
AcDbBlockEnd
  0
BLOCK
  5
11E
330
11C
100
AcDbEntity
  8
0
100
AcDbBlockBegin
  2
BLOCK_26
 70
     0
 71
     0
 10
0.0
 20
0.0
 30
0.0
  3
BLOCK_26
  1

  0
POLYLINE
  5
120
330
11C
100
AcDbEntity
  8
VALLEYLINE
  6
AI-LINETYPE-25
 62
   250
100
AcDb2dPolyline
 66
     1
 10
0.0
 20
0.0
 30
0.0
  0
VERTEX
  5
121
330
120
100
AcDbEntity
  8
VALLEYLINE
  6
AI-LINETYPE-25
 62
   250
100
AcDbVertex
100
AcDb2dVertex
 10
99.76359182618758
 20
-163.7150715736546
 30
0.0
  0
VERTEX
  5
122
330
120
100
AcDbEntity
  8
VALLEYLINE
  6
AI-LINETYPE-25
 62
   250
100
AcDbVertex
100
AcDb2dVertex
 10
69.5693969552639
 20
-172.9468939454786
 30
0.0
  0
SEQEND
  5
123
330
120
100
AcDbEntity
  8
VALLEYLINE
  6
AI-LINETYPE-25
  0
ENDBLK
  5
11F
330
11C
100
AcDbEntity
  8
0
100
AcDbBlockEnd
  0
BLOCK
  5
127
330
125
100
AcDbEntity
  8
0
100
AcDbBlockBegin
  2
BLOCK_27
 70
     0
 71
     0
 10
0.0
 20
0.0
 30
0.0
  3
BLOCK_27
  1

  0
POLYLINE
  5
129
330
125
100
AcDbEntity
  8
VALLEYLINE
  6
AI-LINETYPE-26
 62
   250
100
AcDb2dPolyline
 66
     1
 10
0.0
 20
0.0
 30
0.0
  0
VERTEX
  5
12A
330
129
100
AcDbEntity
  8
VALLEYLINE
  6
AI-LINETYPE-26
 62
   250
100
AcDbVertex
100
AcDb2dVertex
 10
46.47709417240851
 20
-151.4129801053759
 30
0.0
  0
VERTEX
  5
12B
330
129
100
AcDbEntity
  8
VALLEYLINE
  6
AI-LINETYPE-26
 62
   250
100
AcDbVertex
100
AcDb2dVertex
 10
99.76359182618758
 20
-163.7150715736546
 30
0.0
  0
SEQEND
  5
12C
330
129
100
AcDbEntity
  8
VALLEYLINE
  6
AI-LINETYPE-26
  0
ENDBLK
  5
128
330
125
100
AcDbEntity
  8
0
100
AcDbBlockEnd
  0
BLOCK
  5
130
330
12E
100
AcDbEntity
  8
0
100
AcDbBlockBegin
  2
BLOCK_28
 70
     0
 71
     0
 10
0.0
 20
0.0
 30
0.0
  3
BLOCK_28
  1

  0
POLYLINE
  5
132
330
12E
100
AcDbEntity
  8
VALLEYLINE
  6
AI-LINETYPE-27
 62
   250
100
AcDb2dPolyline
 66
     1
 10
0.0
 20
0.0
 30
0.0
  0
VERTEX
  5
133
330
132
100
AcDbEntity
  8
VALLEYLINE
  6
AI-LINETYPE-27
 62
   250
100
AcDbVertex
100
AcDb2dVertex
 10
7.1449557816339
 20
-150.7780490074444
 30
0.0
  0
VERTEX
  5
134
330
132
100
AcDbEntity
  8
VALLEYLINE
  6
AI-LINETYPE-27
 62
   250
100
AcDbVertex
100
AcDb2dVertex
 10
51.05269774114308
 20
-160.9162760014376
 30
0.0
  0
SEQEND
  5
135
330
132
100
AcDbEntity
  8
VALLEYLINE
  6
AI-LINETYPE-27
  0
ENDBLK
  5
131
330
12E
100
AcDbEntity
  8
0
100
AcDbBlockEnd
  0
BLOCK
  5
139
330
137
100
AcDbEntity
  8
0
100
AcDbBlockBegin
  2
BLOCK_29
 70
     0
 71
     0
 10
0.0
 20
0.0
 30
0.0
  3
BLOCK_29
  1

  0
POLYLINE
  5
13B
330
137
100
AcDbEntity
  8
VALLEYLINE
  6
AI-LINETYPE-28
 62
   250
100
AcDb2dPolyline
 66
     1
 10
0.0
 20
0.0
 30
0.0
  0
VERTEX
  5
13C
330
13B
100
AcDbEntity
  8
VALLEYLINE
  6
AI-LINETYPE-28
 62
   250
100
AcDbVertex
100
AcDb2dVertex
 10
51.05269774114308
 20
-160.9162760014376
 30
0.0
  0
VERTEX
  5
13D
330
13B
100
AcDbEntity
  8
VALLEYLINE
  6
AI-LINETYPE-28
 62
   250
100
AcDbVertex
100
AcDb2dVertex
 10
74.1448282692242
 20
-182.4501898415402
 30
0.0
  0
SEQEND
  5
13E
330
13B
100
AcDbEntity
  8
VALLEYLINE
  6
AI-LINETYPE-28
  0
ENDBLK
  5
13A
330
137
100
AcDbEntity
  8
0
100
AcDbBlockEnd
  0
BLOCK
  5
142
330
140
100
AcDbEntity
  8
0
100
AcDbBlockBegin
  2
BLOCK_30
 70
     0
 71
     0
 10
0.0
 20
0.0
 30
0.0
  3
BLOCK_30
  1

  0
POLYLINE
  5
144
330
140
100
AcDbEntity
  8
VALLEYLINE
  6
AI-LINETYPE-29
 62
   250
100
AcDb2dPolyline
 66
     1
 10
0.0
 20
0.0
 30
0.0
  0
VERTEX
  5
145
330
144
100
AcDbEntity
  8
VALLEYLINE
  6
AI-LINETYPE-29
 62
   250
100
AcDbVertex
100
AcDb2dVertex
 10
53.13939207655891
 20
-243.4645534330575
 30
0.0
  0
VERTEX
  5
146
330
144
100
AcDbEntity
  8
VALLEYLINE
  6
AI-LINETYPE-29
 62
   250
100
AcDbVertex
100
AcDb2dVertex
 10
93.00638154141855
 20
-200.7140190470437
 30
0.0
  0
SEQEND
  5
147
330
144
100
AcDbEntity
  8
VALLEYLINE
  6
AI-LINETYPE-29
  0
ENDBLK
  5
143
330
140
100
AcDbEntity
  8
0
100
AcDbBlockEnd
  0
BLOCK
  5
14B
330
149
100
AcDbEntity
  8
0
100
AcDbBlockBegin
  2
BLOCK_31
 70
     0
 71
     0
 10
0.0
 20
0.0
 30
0.0
  3
BLOCK_31
  1

  0
POLYLINE
  5
14D
330
149
100
AcDbEntity
  8
VALLEYLINE
  6
AI-LINETYPE-30
 62
   250
100
AcDb2dPolyline
 66
     1
 10
0.0
 20
0.0
 30
0.0
  0
VERTEX
  5
14E
330
14D
100
AcDbEntity
  8
VALLEYLINE
  6
AI-LINETYPE-30
 62
   250
100
AcDbVertex
100
AcDb2dVertex
 10
93.00638154141855
 20
-200.7140190470437
 30
0.0
  0
VERTEX
  5
14F
330
14D
100
AcDbEntity
  8
VALLEYLINE
  6
AI-LINETYPE-30
 62
   250
100
AcDbVertex
100
AcDb2dVertex
 10
123.2007486671165
 20
-191.4828856943168
 30
0.0
  0
SEQEND
  5
150
330
14D
100
AcDbEntity
  8
VALLEYLINE
  6
AI-LINETYPE-30
  0
ENDBLK
  5
14C
330
149
100
AcDbEntity
  8
0
100
AcDbBlockEnd
  0
BLOCK
  5
154
330
152
100
AcDbEntity
  8
0
100
AcDbBlockBegin
  2
BLOCK_32
 70
     0
 71
     0
 10
0.0
 20
0.0
 30
0.0
  3
BLOCK_32
  1

  0
POLYLINE
  5
156
330
152
100
AcDbEntity
  8
VALLEYLINE
  6
AI-LINETYPE-31
 62
   250
100
AcDb2dPolyline
 66
     1
 10
0.0
 20
0.0
 30
0.0
  0
VERTEX
  5
157
330
156
100
AcDbEntity
  8
VALLEYLINE
  6
AI-LINETYPE-31
 62
   250
100
AcDbVertex
100
AcDb2dVertex
 10
66.6977376135339
 20
-75.94868026530102
 30
0.0
  0
VERTEX
  5
158
330
156
100
AcDbEntity
  8
VALLEYLINE
  6
AI-LINETYPE-31
 62
   250
100
AcDbVertex
100
AcDb2dVertex
 10
71.27334118226847
 20
-85.45214841613696
 30
0.0
  0
SEQEND
  5
159
330
156
100
AcDbEntity
  8
VALLEYLINE
  6
AI-LINETYPE-31
  0
ENDBLK
  5
155
330
152
100
AcDbEntity
  8
0
100
AcDbBlockEnd
  0
BLOCK
  5
15D
330
15B
100
AcDbEntity
  8
0
100
AcDbBlockBegin
  2
BLOCK_33
 70
     0
 71
     0
 10
0.0
 20
0.0
 30
0.0
  3
BLOCK_33
  1

  0
POLYLINE
  5
15F
330
15B
100
AcDbEntity
  8
VALLEYLINE
  6
AI-LINETYPE-32
 62
   250
100
AcDb2dPolyline
 66
     1
 10
0.0
 20
0.0
 30
0.0
  0
VERTEX
  5
160
330
15F
100
AcDbEntity
  8
VALLEYLINE
  6
AI-LINETYPE-32
 62
   250
100
AcDbVertex
100
AcDb2dVertex
 10
119.9844075220872
 20
-88.25077173357967
 30
0.0
  0
VERTEX
  5
161
330
15F
100
AcDbEntity
  8
VALLEYLINE
  6
AI-LINETYPE-32
 62
   250
100
AcDbVertex
100
AcDb2dVertex
 10
130.502973057652
 20
-89.03987085447615
 30
0.0
  0
SEQEND
  5
162
330
15F
100
AcDbEntity
  8
VALLEYLINE
  6
AI-LINETYPE-32
  0
ENDBLK
  5
15E
330
15B
100
AcDbEntity
  8
0
100
AcDbBlockEnd
  0
BLOCK
  5
166
330
164
100
AcDbEntity
  8
0
100
AcDbBlockBegin
  2
BLOCK_34
 70
     0
 71
     0
 10
0.0
 20
0.0
 30
0.0
  3
BLOCK_34
  1

  0
POLYLINE
  5
168
330
164
100
AcDbEntity
  8
VALLEYLINE
  6
AI-LINETYPE-33
 62
   250
100
AcDb2dPolyline
 66
     1
 10
0.0
 20
0.0
 30
0.0
  0
VERTEX
  5
169
330
168
100
AcDbEntity
  8
VALLEYLINE
  6
AI-LINETYPE-33
 62
   250
100
AcDbVertex
100
AcDb2dVertex
 10
130.502973057652
 20
-89.03987085447615
 30
0.0
  0
VERTEX
  5
16A
330
168
100
AcDbEntity
  8
VALLEYLINE
  6
AI-LINETYPE-33
 62
   250
100
AcDbVertex
100
AcDb2dVertex
 10
140.0062689537137
 20
-84.46426728574157
 30
0.0
  0
SEQEND
  5
16B
330
168
100
AcDbEntity
  8
VALLEYLINE
  6
AI-LINETYPE-33
  0
ENDBLK
  5
167
330
164
100
AcDbEntity
  8
0
100
AcDbBlockEnd
  0
BLOCK
  5
16F
330
16D
100
AcDbEntity
  8
0
100
AcDbBlockBegin
  2
BLOCK_35
 70
     0
 71
     0
 10
0.0
 20
0.0
 30
0.0
  3
BLOCK_35
  1

  0
POLYLINE
  5
171
330
16D
100
AcDbEntity
  8
VALLEYLINE
  6
AI-LINETYPE-34
 62
   250
100
AcDb2dPolyline
 66
     1
 10
0.0
 20
0.0
 30
0.0
  0
VERTEX
  5
172
330
171
100
AcDbEntity
  8
VALLEYLINE
  6
AI-LINETYPE-34
 62
   250
100
AcDbVertex
100
AcDb2dVertex
 10
71.27334118226847
 20
-85.45214841613696
 30
0.0
  0
VERTEX
  5
173
330
171
100
AcDbEntity
  8
VALLEYLINE
  6
AI-LINETYPE-34
 62
   250
100
AcDbVertex
100
AcDb2dVertex
 10
70.48458657092053
 20
-95.97019718737899
 30
0.0
  0
SEQEND
  5
174
330
171
100
AcDbEntity
  8
VALLEYLINE
  6
AI-LINETYPE-34
  0
ENDBLK
  5
170
330
16D
100
AcDbEntity
  8
0
100
AcDbBlockEnd
  0
BLOCK
  5
178
330
176
100
AcDbEntity
  8
0
100
AcDbBlockBegin
  2
BLOCK_36
 70
     0
 71
     0
 10
0.0
 20
0.0
 30
0.0
  3
BLOCK_36
  1

  0
POLYLINE
  5
17A
330
176
100
AcDbEntity
  8
VALLEYLINE
  6
AI-LINETYPE-35
 62
   250
100
AcDb2dPolyline
 66
     1
 10
0.0
 20
0.0
 30
0.0
  0
VERTEX
  5
17B
330
17A
100
AcDbEntity
  8
VALLEYLINE
  6
AI-LINETYPE-35
 62
   250
100
AcDbVertex
100
AcDb2dVertex
 10
161.9377468128142
 20
-128.0486870339601
 30
0.0
  0
VERTEX
  5
17C
330
17A
100
AcDbEntity
  8
VALLEYLINE
  6
AI-LINETYPE-35
 62
   250
100
AcDbVertex
100
AcDb2dVertex
 10
166.513522636323
 20
-137.5516384204732
 30
0.0
  0
SEQEND
  5
17D
330
17A
100
AcDbEntity
  8
VALLEYLINE
  6
AI-LINETYPE-35
  0
ENDBLK
  5
179
330
176
100
AcDbEntity
  8
0
100
AcDbBlockEnd
  0
BLOCK
  5
181
330
17F
100
AcDbEntity
  8
0
100
AcDbBlockBegin
  2
BLOCK_37
 70
     0
 71
     0
 10
0.0
 20
0.0
 30
0.0
  3
BLOCK_37
  1

  0
POLYLINE
  5
183
330
17F
100
AcDbEntity
  8
VALLEYLINE
  6
AI-LINETYPE-36
 62
   250
100
AcDb2dPolyline
 66
     1
 10
0.0
 20
0.0
 30
0.0
  0
VERTEX
  5
184
330
183
100
AcDbEntity
  8
VALLEYLINE
  6
AI-LINETYPE-36
 62
   250
100
AcDbVertex
100
AcDb2dVertex
 10
145.9487141562212
 20
-75.74972600102785
 30
0.0
  0
VERTEX
  5
185
330
183
100
AcDbEntity
  8
VALLEYLINE
  6
AI-LINETYPE-36
 62
   250
100
AcDbVertex
100
AcDb2dVertex
 10
140.0062689537137
 20
-84.46426728574157
 30
0.0
  0
SEQEND
  5
186
330
183
100
AcDbEntity
  8
VALLEYLINE
  6
AI-LINETYPE-36
  0
ENDBLK
  5
182
330
17F
100
AcDbEntity
  8
0
100
AcDbBlockEnd
  0
BLOCK
  5
18A
330
188
100
AcDbEntity
  8
0
100
AcDbBlockBegin
  2
BLOCK_38
 70
     0
 71
     0
 10
0.0
 20
0.0
 30
0.0
  3
BLOCK_38
  1

  0
POLYLINE
  5
18C
330
188
100
AcDbEntity
  8
VALLEYLINE
  6
AI-LINETYPE-37
 62
   250
100
AcDb2dPolyline
 66
     1
 10
0.0
 20
0.0
 30
0.0
  0
VERTEX
  5
18D
330
18C
100
AcDbEntity
  8
VALLEYLINE
  6
AI-LINETYPE-37
 62
   250
100
AcDbVertex
100
AcDb2dVertex
 10
166.513522636323
 20
-137.5516384204732
 30
0.0
  0
VERTEX
  5
18E
330
18C
100
AcDbEntity
  8
VALLEYLINE
  6
AI-LINETYPE-37
 62
   250
100
AcDbVertex
100
AcDb2dVertex
 10
175.2278916662625
 20
-143.4942558777549
 30
0.0
  0
SEQEND
  5
18F
330
18C
100
AcDbEntity
  8
VALLEYLINE
  6
AI-LINETYPE-37
  0
ENDBLK
  5
18B
330
188
100
AcDbEntity
  8
0
100
AcDbBlockEnd
  0
BLOCK
  5
193
330
191
100
AcDbEntity
  8
0
100
AcDbBlockBegin
  2
BLOCK_39
 70
     0
 71
     0
 10
0.0
 20
0.0
 30
0.0
  3
BLOCK_39
  1

  0
POLYLINE
  5
195
330
191
100
AcDbEntity
  8
VALLEYLINE
  6
AI-LINETYPE-38
 62
   250
100
AcDb2dPolyline
 66
     1
 10
0.0
 20
0.0
 30
0.0
  0
VERTEX
  5
196
330
195
100
AcDbEntity
  8
VALLEYLINE
  6
AI-LINETYPE-38
 62
   250
100
AcDbVertex
100
AcDb2dVertex
 10
70.48458657092053
 20
-95.97019718737899
 30
0.0
  0
VERTEX
  5
197
330
195
100
AcDbEntity
  8
VALLEYLINE
  6
AI-LINETYPE-38
 62
   250
100
AcDbVertex
100
AcDb2dVertex
 10
64.54179685886456
 20
-104.684910726867
 30
0.0
  0
SEQEND
  5
198
330
195
100
AcDbEntity
  8
VALLEYLINE
  6
AI-LINETYPE-38
  0
ENDBLK
  5
194
330
191
100
AcDbEntity
  8
0
100
AcDbBlockEnd
  0
BLOCK
  5
19C
330
19A
100
AcDbEntity
  8
0
100
AcDbBlockBegin
  2
BLOCK_40
 70
     0
 71
     0
 10
0.0
 20
0.0
 30
0.0
  3
BLOCK_40
  1

  0
POLYLINE
  5
19E
330
19A
100
AcDbEntity
  8
VALLEYLINE
  6
AI-LINETYPE-39
 62
   250
100
AcDb2dPolyline
 66
     1
 10
0.0
 20
0.0
 30
0.0
  0
VERTEX
  5
19F
330
19E
100
AcDbEntity
  8
VALLEYLINE
  6
AI-LINETYPE-39
 62
   250
100
AcDbVertex
100
AcDb2dVertex
 10
27.24450411645276
 20
-144.6817802915205
 30
0.0
  0
VERTEX
  5
1A0
330
19E
100
AcDbEntity
  8
VALLEYLINE
  6
AI-LINETYPE-39
 62
   250
100
AcDbVertex
100
AcDb2dVertex
 10
37.76272514246904
 20
-145.4703626480942
 30
0.0
  0
SEQEND
  5
1A1
330
19E
100
AcDbEntity
  8
VALLEYLINE
  6
AI-LINETYPE-39
  0
ENDBLK
  5
19D
330
19A
100
AcDbEntity
  8
0
100
AcDbBlockEnd
  0
BLOCK
  5
1A5
330
1A3
100
AcDbEntity
  8
0
100
AcDbBlockBegin
  2
BLOCK_41
 70
     0
 71
     0
 10
0.0
 20
0.0
 30
0.0
  3
BLOCK_41
  1

  0
POLYLINE
  5
1A7
330
1A3
100
AcDbEntity
  8
VALLEYLINE
  6
AI-LINETYPE-40
 62
   250
100
AcDb2dPolyline
 66
     1
 10
0.0
 20
0.0
 30
0.0
  0
VERTEX
  5
1A8
330
1A7
100
AcDbEntity
  8
VALLEYLINE
  6
AI-LINETYPE-40
 62
   250
100
AcDbVertex
100
AcDb2dVertex
 10
37.76272514246904
 20
-145.4703626480942
 30
0.0
  0
VERTEX
  5
1A9
330
1A7
100
AcDbEntity
  8
VALLEYLINE
  6
AI-LINETYPE-40
 62
   250
100
AcDbVertex
100
AcDb2dVertex
 10
46.47709417240851
 20
-151.4129801053759
 30
0.0
  0
SEQEND
  5
1AA
330
1A7
100
AcDbEntity
  8
VALLEYLINE
  6
AI-LINETYPE-40
  0
ENDBLK
  5
1A6
330
1A3
100
AcDbEntity
  8
0
100
AcDbBlockEnd
  0
BLOCK
  5
1AE
330
1AC
100
AcDbEntity
  8
0
100
AcDbBlockBegin
  2
BLOCK_42
 70
     0
 71
     0
 10
0.0
 20
0.0
 30
0.0
  3
BLOCK_42
  1

  0
POLYLINE
  5
1B0
330
1AC
100
AcDbEntity
  8
VALLEYLINE
  6
AI-LINETYPE-41
 62
   250
100
AcDb2dPolyline
 66
     1
 10
0.0
 20
0.0
 30
0.0
  0
VERTEX
  5
1B1
330
1B0
100
AcDbEntity
  8
VALLEYLINE
  6
AI-LINETYPE-41
 62
   250
100
AcDbVertex
100
AcDb2dVertex
 10
148.4491644594155
 20
-184.2805690728535
 30
0.0
  0
VERTEX
  5
1B2
330
1B0
100
AcDbEntity
  8
VALLEYLINE
  6
AI-LINETYPE-41
 62
   250
100
AcDbVertex
100
AcDb2dVertex
 10
142.5063747473595
 20
-192.9945935932444
 30
0.0
  0
SEQEND
  5
1B3
330
1B0
100
AcDbEntity
  8
VALLEYLINE
  6
AI-LINETYPE-41
  0
ENDBLK
  5
1AF
330
1AC
100
AcDbEntity
  8
0
100
AcDbBlockEnd
  0
BLOCK
  5
1B7
330
1B5
100
AcDbEntity
  8
0
100
AcDbBlockBegin
  2
BLOCK_43
 70
     0
 71
     0
 10
0.0
 20
0.0
 30
0.0
  3
BLOCK_43
  1

  0
POLYLINE
  5
1B9
330
1B5
100
AcDbEntity
  8
VALLEYLINE
  6
AI-LINETYPE-42
 62
   250
100
AcDb2dPolyline
 66
     1
 10
0.0
 20
0.0
 30
0.0
  0
VERTEX
  5
1BA
330
1B9
100
AcDbEntity
  8
VALLEYLINE
  6
AI-LINETYPE-42
 62
   250
100
AcDbVertex
100
AcDb2dVertex
 10
185.7464572018273
 20
-144.2838717629742
 30
0.0
  0
VERTEX
  5
1BB
330
1B9
100
AcDbEntity
  8
VALLEYLINE
  6
AI-LINETYPE-42
 62
   250
100
AcDbVertex
100
AcDb2dVertex
 10
175.2278916662625
 20
-143.4942558777549
 30
0.0
  0
SEQEND
  5
1BC
330
1B9
100
AcDbEntity
  8
VALLEYLINE
  6
AI-LINETYPE-42
  0
ENDBLK
  5
1B8
330
1B5
100
AcDbEntity
  8
0
100
AcDbBlockEnd
  0
BLOCK
  5
1C0
330
1BE
100
AcDbEntity
  8
0
100
AcDbBlockBegin
  2
BLOCK_44
 70
     0
 71
     0
 10
0.0
 20
0.0
 30
0.0
  3
BLOCK_44
  1

  0
POLYLINE
  5
1C2
330
1BE
100
AcDbEntity
  8
VALLEYLINE
  6
AI-LINETYPE-43
 62
   250
100
AcDb2dPolyline
 66
     1
 10
0.0
 20
0.0
 30
0.0
  0
VERTEX
  5
1C3
330
1C2
100
AcDbEntity
  8
VALLEYLINE
  6
AI-LINETYPE-43
 62
   250
100
AcDbVertex
100
AcDb2dVertex
 10
142.5063747473595
 20
-192.9945935932444
 30
0.0
  0
VERTEX
  5
1C4
330
1C2
100
AcDbEntity
  8
VALLEYLINE
  6
AI-LINETYPE-43
 62
   250
100
AcDbVertex
100
AcDb2dVertex
 10
141.7174478812373
 20
-203.5131591288092
 30
0.0
  0
SEQEND
  5
1C5
330
1C2
100
AcDbEntity
  8
VALLEYLINE
  6
AI-LINETYPE-43
  0
ENDBLK
  5
1C1
330
1BE
100
AcDbEntity
  8
0
100
AcDbBlockEnd
  0
BLOCK
  5
1C9
330
1C7
100
AcDbEntity
  8
0
100
AcDbBlockBegin
  2
BLOCK_45
 70
     0
 71
     0
 10
0.0
 20
0.0
 30
0.0
  3
BLOCK_45
  1

  0
POLYLINE
  5
1CB
330
1C7
100
AcDbEntity
  8
VALLEYLINE
  6
AI-LINETYPE-44
 62
   250
100
AcDb2dPolyline
 66
     1
 10
0.0
 20
0.0
 30
0.0
  0
VERTEX
  5
1CC
330
1CB
100
AcDbEntity
  8
VALLEYLINE
  6
AI-LINETYPE-44
 62
   250
100
AcDbVertex
100
AcDb2dVertex
 10
141.7174478812373
 20
-203.5131591288092
 30
0.0
  0
VERTEX
  5
1CD
330
1CB
100
AcDbEntity
  8
VALLEYLINE
  6
AI-LINETYPE-44
 62
   250
100
AcDbVertex
100
AcDb2dVertex
 10
146.2928791951976
 20
-213.0164550248709
 30
0.0
  0
SEQEND
  5
1CE
330
1CB
100
AcDbEntity
  8
VALLEYLINE
  6
AI-LINETYPE-44
  0
ENDBLK
  5
1CA
330
1C7
100
AcDbEntity
  8
0
100
AcDbBlockEnd
  0
BLOCK
  5
1D2
330
1D0
100
AcDbEntity
  8
0
100
AcDbBlockBegin
  2
BLOCK_46
 70
     0
 71
     0
 10
0.0
 20
0.0
 30
0.0
  3
BLOCK_46
  1

  0
POLYLINE
  5
1D4
330
1D0
100
AcDbEntity
  8
VALLEYLINE
  6
AI-LINETYPE-45
 62
   250
100
AcDb2dPolyline
 66
     1
 10
0.0
 20
0.0
 30
0.0
  0
VERTEX
  5
1D5
330
1D4
100
AcDbEntity
  8
VALLEYLINE
  6
AI-LINETYPE-45
 62
   250
100
AcDbVertex
100
AcDb2dVertex
 10
82.48816051540227
 20
-199.92543669047
 30
0.0
  0
VERTEX
  5
1D6
330
1D4
100
AcDbEntity
  8
VALLEYLINE
  6
AI-LINETYPE-45
 62
   250
100
AcDbVertex
100
AcDb2dVertex
 10
93.00638154141855
 20
-200.7140190470437
 30
0.0
  0
SEQEND
  5
1D7
330
1D4
100
AcDbEntity
  8
VALLEYLINE
  6
AI-LINETYPE-45
  0
ENDBLK
  5
1D3
330
1D0
100
AcDbEntity
  8
0
100
AcDbBlockEnd
  0
BLOCK
  5
1DB
330
1D9
100
AcDbEntity
  8
0
100
AcDbBlockBegin
  2
BLOCK_47
 70
     0
 71
     0
 10
0.0
 20
0.0
 30
0.0
  3
BLOCK_47
  1

  0
POLYLINE
  5
1DD
330
1D9
100
AcDbEntity
  8
VALLEYLINE
  6
AI-LINETYPE-46
 62
   250
100
AcDb2dPolyline
 66
     1
 10
0.0
 20
0.0
 30
0.0
  0
VERTEX
  5
1DE
330
1DD
100
AcDbEntity
  8
VALLEYLINE
  6
AI-LINETYPE-46
 62
   250
100
AcDbVertex
100
AcDb2dVertex
 10
82.48816051540227
 20
-199.92543669047
 30
0.0
  0
VERTEX
  5
1DF
330
1DD
100
AcDbEntity
  8
VALLEYLINE
  6
AI-LINETYPE-46
 62
   250
100
AcDbVertex
100
AcDb2dVertex
 10
72.9843478550178
 20
-204.5008680044303
 30
0.0
  0
SEQEND
  5
1E0
330
1DD
100
AcDbEntity
  8
VALLEYLINE
  6
AI-LINETYPE-46
  0
ENDBLK
  5
1DC
330
1D9
100
AcDbEntity
  8
0
100
AcDbBlockEnd
  0
BLOCK
  5
1E4
330
1E2
100
AcDbEntity
  8
0
100
AcDbBlockBegin
  2
BLOCK_48
 70
     0
 71
     0
 10
0.0
 20
0.0
 30
0.0
  3
BLOCK_48
  1

  0
POLYLINE
  5
1E6
330
1E2
100
AcDbEntity
  8
VALLEYLINE
  6
AI-LINETYPE-47
 62
   250
100
AcDb2dPolyline
 66
     1
 10
0.0
 20
0.0
 30
0.0
  0
VERTEX
  5
1E7
330
1E6
100
AcDbEntity
  8
VALLEYLINE
  6
AI-LINETYPE-47
 62
   250
100
AcDbVertex
100
AcDb2dVertex
 10
72.9843478550178
 20
-204.5008680044303
 30
0.0
  0
VERTEX
  5
1E8
330
1E6
100
AcDbEntity
  8
VALLEYLINE
  6
AI-LINETYPE-47
 62
   250
100
AcDbVertex
100
AcDb2dVertex
 10
67.04224716205889
 20
-213.2155815439183
 30
0.0
  0
SEQEND
  5
1E9
330
1E6
100
AcDbEntity
  8
VALLEYLINE
  6
AI-LINETYPE-47
  0
ENDBLK
  5
1E5
330
1E2
100
AcDbEntity
  8
0
100
AcDbBlockEnd
  0
BLOCK
  5
1ED
330
1EB
100
AcDbEntity
  8
0
100
AcDbBlockBegin
  2
BLOCK_49
 70
     0
 71
     0
 10
0.0
 20
0.0
 30
0.0
  3
BLOCK_49
  1

  0
POLYLINE
  5
1EF
330
1EB
100
AcDbEntity
  8
VALLEYLINE
  6
AI-LINETYPE-48
 62
   250
100
AcDb2dPolyline
 66
     1
 10
0.0
 20
0.0
 30
0.0
  0
VERTEX
  5
1F0
330
1EF
100
AcDbEntity
  8
VALLEYLINE
  6
AI-LINETYPE-48
 62
   250
100
AcDbVertex
100
AcDb2dVertex
 10
46.47709417240851
 20
-151.4129801053759
 30
0.0
  0
VERTEX
  5
1F1
330
1EF
100
AcDbEntity
  8
VALLEYLINE
  6
AI-LINETYPE-48
 62
   250
100
AcDbVertex
100
AcDb2dVertex
 10
51.05269774114308
 20
-160.9162760014376
 30
0.0
  0
SEQEND
  5
1F2
330
1EF
100
AcDbEntity
  8
VALLEYLINE
  6
AI-LINETYPE-48
  0
ENDBLK
  5
1EE
330
1EB
100
AcDbEntity
  8
0
100
AcDbBlockEnd
  0
BLOCK
  5
20F
330
20D
100
AcDbEntity
  8
0
100
AcDbBlockBegin
  2
BLOCK_50
 70
     0
 71
     0
 10
0.0
 20
0.0
 30
0.0
  3
BLOCK_50
  1

  0
POLYLINE
  5
211
330
20D
100
AcDbEntity
  8
MOUNTAINLINE
 62
   250
100
AcDb2dPolyline
 66
     1
 10
0.0
 20
0.0
 30
0.0
  0
VERTEX
  5
212
330
211
100
AcDbEntity
  8
MOUNTAINLINE
 62
   250
100
AcDbVertex
100
AcDb2dVertex
 10
66.6977376135339
 20
-75.94868026530102
 30
0.0
  0
VERTEX
  5
213
330
211
100
AcDbEntity
  8
MOUNTAINLINE
 62
   250
100
AcDbVertex
100
AcDb2dVertex
 10
57.60458033499122
 20
-46.20596515771934
 30
0.0
  0
SEQEND
  5
214
330
211
100
AcDbEntity
  8
MOUNTAINLINE
  0
ENDBLK
  5
210
330
20D
100
AcDbEntity
  8
0
100
AcDbBlockEnd
  0
BLOCK
  5
217
330
215
100
AcDbEntity
  8
0
100
AcDbBlockBegin
  2
BLOCK_51
 70
     0
 71
     0
 10
0.0
 20
0.0
 30
0.0
  3
BLOCK_51
  1

  0
POLYLINE
  5
219
330
215
100
AcDbEntity
  8
MOUNTAINLINE
 62
   250
100
AcDb2dPolyline
 66
     1
 10
0.0
 20
0.0
 30
0.0
  0
VERTEX
  5
21A
330
219
100
AcDbEntity
  8
MOUNTAINLINE
 62
   250
100
AcDbVertex
100
AcDb2dVertex
 10
145.9487141562212
 20
-75.74938149147933
 30
0.0
  0
VERTEX
  5
21B
330
219
100
AcDbEntity
  8
MOUNTAINLINE
 62
   250
100
AcDbVertex
100
AcDb2dVertex
 10
173.4981092231185
 20
-46.20562064817082
 30
0.0
  0
SEQEND
  5
21C
330
219
100
AcDbEntity
  8
MOUNTAINLINE
  0
ENDBLK
  5
218
330
215
100
AcDbEntity
  8
0
100
AcDbBlockEnd
  0
BLOCK
  5
21F
330
21D
100
AcDbEntity
  8
0
100
AcDbBlockBegin
  2
BLOCK_52
 70
     0
 71
     0
 10
0.0
 20
0.0
 30
0.0
  3
BLOCK_52
  1

  0
POLYLINE
  5
221
330
21D
100
AcDbEntity
  8
MOUNTAINLINE
 62
   250
100
AcDb2dPolyline
 66
     1
 10
0.0
 20
0.0
 30
0.0
  0
VERTEX
  5
222
330
221
100
AcDbEntity
  8
MOUNTAINLINE
 62
   250
100
AcDbVertex
100
AcDb2dVertex
 10
27.24484862600129
 20
-144.6809190176492
 30
0.0
  0
VERTEX
  5
223
330
221
100
AcDbEntity
  8
MOUNTAINLINE
 62
   250
100
AcDbVertex
100
AcDb2dVertex
 10
7.145817055505213
 20
-140.0407199085662
 30
0.0
  0
SEQEND
  5
224
330
221
100
AcDbEntity
  8
MOUNTAINLINE
  0
ENDBLK
  5
220
330
21D
100
AcDbEntity
  8
0
100
AcDbBlockEnd
  0
BLOCK
  5
227
330
225
100
AcDbEntity
  8
0
100
AcDbBlockBegin
  2
BLOCK_53
 70
     0
 71
     0
 10
0.0
 20
0.0
 30
0.0
  3
BLOCK_53
  1

  0
POLYLINE
  5
229
330
225
100
AcDbEntity
  8
MOUNTAINLINE
 62
   250
100
AcDb2dPolyline
 66
     1
 10
0.0
 20
0.0
 30
0.0
  0
VERTEX
  5
22A
330
229
100
AcDbEntity
  8
MOUNTAINLINE
 62
   250
100
AcDbVertex
100
AcDb2dVertex
 10
185.7457681827302
 20
-144.2838717629742
 30
0.0
  0
VERTEX
  5
22B
330
229
100
AcDbEntity
  8
MOUNTAINLINE
 62
   250
100
AcDbVertex
100
AcDb2dVertex
 10
204.4695176355146
 20
-148.6064330683172
 30
0.0
  0
SEQEND
  5
22C
330
229
100
AcDbEntity
  8
MOUNTAINLINE
  0
ENDBLK
  5
228
330
225
100
AcDbEntity
  8
0
100
AcDbBlockEnd
  0
BLOCK
  5
22F
330
22D
100
AcDbEntity
  8
0
100
AcDbBlockBegin
  2
BLOCK_54
 70
     0
 71
     0
 10
0.0
 20
0.0
 30
0.0
  3
BLOCK_54
  1

  0
POLYLINE
  5
231
330
22D
100
AcDbEntity
  8
MOUNTAINLINE
 62
   250
100
AcDb2dPolyline
 66
     1
 10
0.0
 20
0.0
 30
0.0
  0
VERTEX
  5
232
330
231
100
AcDbEntity
  8
MOUNTAINLINE
 62
   250
100
AcDbVertex
100
AcDb2dVertex
 10
67.04224716205889
 20
-213.2155815439183
 30
0.0
  0
VERTEX
  5
233
330
231
100
AcDbEntity
  8
MOUNTAINLINE
 62
   250
100
AcDbVertex
100
AcDb2dVertex
 10
38.83087699767076
 20
-243.4645534330575
 30
0.0
  0
SEQEND
  5
234
330
231
100
AcDbEntity
  8
MOUNTAINLINE
  0
ENDBLK
  5
230
330
22D
100
AcDbEntity
  8
0
100
AcDbBlockEnd
  0
BLOCK
  5
237
330
235
100
AcDbEntity
  8
0
100
AcDbBlockBegin
  2
BLOCK_55
 70
     0
 71
     0
 10
0.0
 20
0.0
 30
0.0
  3
BLOCK_55
  1

  0
POLYLINE
  5
239
330
235
100
AcDbEntity
  8
MOUNTAINLINE
 62
   250
100
AcDb2dPolyline
 66
     1
 10
0.0
 20
0.0
 30
0.0
  0
VERTEX
  5
23A
330
239
100
AcDbEntity
  8
MOUNTAINLINE
 62
   250
100
AcDbVertex
100
AcDb2dVertex
 10
146.2928791951976
 20
-213.0164550248709
 30
0.0
  0
VERTEX
  5
23B
330
239
100
AcDbEntity
  8
MOUNTAINLINE
 62
   250
100
AcDbVertex
100
AcDb2dVertex
 10
155.6025607249883
 20
-243.4673095094457
 30
0.0
  0
SEQEND
  5
23C
330
239
100
AcDbEntity
  8
MOUNTAINLINE
  0
ENDBLK
  5
238
330
235
100
AcDbEntity
  8
0
100
AcDbBlockEnd
  0
BLOCK
  5
23F
330
23D
100
AcDbEntity
  8
0
100
AcDbBlockBegin
  2
BLOCK_56
 70
     0
 71
     0
 10
0.0
 20
0.0
 30
0.0
  3
BLOCK_56
  1

  0
POLYLINE
  5
241
330
23D
100
AcDbEntity
  8
MOUNTAINLINE
 62
   250
100
AcDb2dPolyline
 66
     1
 10
0.0
 20
0.0
 30
0.0
  0
VERTEX
  5
242
330
241
100
AcDbEntity
  8
MOUNTAINLINE
 62
   250
100
AcDbVertex
100
AcDb2dVertex
 10
89.78969588684078
 20
-97.48224959585514
 30
0.0
  0
VERTEX
  5
243
330
241
100
AcDbEntity
  8
MOUNTAINLINE
 62
   250
100
AcDbVertex
100
AcDb2dVertex
 10
94.36529945557534
 20
-106.9858900014653
 30
0.0
  0
SEQEND
  5
244
330
241
100
AcDbEntity
  8
MOUNTAINLINE
  0
ENDBLK
  5
240
330
23D
100
AcDbEntity
  8
0
100
AcDbBlockEnd
  0
BLOCK
  5
247
330
245
100
AcDbEntity
  8
0
100
AcDbBlockBegin
  2
BLOCK_57
 70
     0
 71
     0
 10
0.0
 20
0.0
 30
0.0
  3
BLOCK_57
  1

  0
POLYLINE
  5
249
330
245
100
AcDbEntity
  8
MOUNTAINLINE
 62
   250
100
AcDb2dPolyline
 66
     1
 10
0.0
 20
0.0
 30
0.0
  0
VERTEX
  5
24A
330
249
100
AcDbEntity
  8
MOUNTAINLINE
 62
   250
100
AcDbVertex
100
AcDb2dVertex
 10
66.6977376135339
 20
-75.94868026530102
 30
0.0
  0
VERTEX
  5
24B
330
249
100
AcDbEntity
  8
MOUNTAINLINE
 62
   250
100
AcDbVertex
100
AcDb2dVertex
 10
64.54179685886456
 20
-104.684910726867
 30
0.0
  0
SEQEND
  5
24C
330
249
100
AcDbEntity
  8
MOUNTAINLINE
  0
ENDBLK
  5
248
330
245
100
AcDbEntity
  8
0
100
AcDbBlockEnd
  0
BLOCK
  5
24F
330
24D
100
AcDbEntity
  8
0
100
AcDbBlockBegin
  2
BLOCK_58
 70
     0
 71
     0
 10
0.0
 20
0.0
 30
0.0
  3
BLOCK_58
  1

  0
POLYLINE
  5
251
330
24D
100
AcDbEntity
  8
MOUNTAINLINE
 62
   250
100
AcDb2dPolyline
 66
     1
 10
0.0
 20
0.0
 30
0.0
  0
VERTEX
  5
252
330
251
100
AcDbEntity
  8
MOUNTAINLINE
 62
   250
100
AcDbVertex
100
AcDb2dVertex
 10
119.9844075220872
 20
-88.25077173357967
 30
0.0
  0
VERTEX
  5
253
330
251
100
AcDbEntity
  8
MOUNTAINLINE
 62
   250
100
AcDbVertex
100
AcDb2dVertex
 10
145.9487141562212
 20
-75.74972600102785
 30
0.0
  0
SEQEND
  5
254
330
251
100
AcDbEntity
  8
MOUNTAINLINE
  0
ENDBLK
  5
250
330
24D
100
AcDbEntity
  8
0
100
AcDbBlockEnd
  0
BLOCK
  5
257
330
255
100
AcDbEntity
  8
0
100
AcDbBlockBegin
  2
BLOCK_59
 70
     0
 71
     0
 10
0.0
 20
0.0
 30
0.0
  3
BLOCK_59
  1

  0
POLYLINE
  5
259
330
255
100
AcDbEntity
  8
MOUNTAINLINE
 62
   250
100
AcDb2dPolyline
 66
     1
 10
0.0
 20
0.0
 30
0.0
  0
VERTEX
  5
25A
330
259
100
AcDbEntity
  8
MOUNTAINLINE
 62
   250
100
AcDbVertex
100
AcDb2dVertex
 10
89.78969588684078
 20
-97.48224959585514
 30
0.0
  0
VERTEX
  5
25B
330
259
100
AcDbEntity
  8
MOUNTAINLINE
 62
   250
100
AcDbVertex
100
AcDb2dVertex
 10
100.3080891676313
 20
-98.27134871675162
 30
0.0
  0
SEQEND
  5
25C
330
259
100
AcDbEntity
  8
MOUNTAINLINE
  0
ENDBLK
  5
258
330
255
100
AcDbEntity
  8
0
100
AcDbBlockEnd
  0
BLOCK
  5
25F
330
25D
100
AcDbEntity
  8
0
100
AcDbBlockBegin
  2
BLOCK_60
 70
     0
 71
     0
 10
0.0
 20
0.0
 30
0.0
  3
BLOCK_60
  1

  0
POLYLINE
  5
261
330
25D
100
AcDbEntity
  8
MOUNTAINLINE
 62
   250
100
AcDb2dPolyline
 66
     1
 10
0.0
 20
0.0
 30
0.0
  0
VERTEX
  5
262
330
261
100
AcDbEntity
  8
MOUNTAINLINE
 62
   250
100
AcDbVertex
100
AcDb2dVertex
 10
93.20481904136894
 20
-129.0367404191297
 30
0.0
  0
VERTEX
  5
263
330
261
100
AcDbEntity
  8
MOUNTAINLINE
 62
   250
100
AcDbVertex
100
AcDb2dVertex
 10
102.7088039565277
 20
-124.4606200860724
 30
0.0
  0
SEQEND
  5
264
330
261
100
AcDbEntity
  8
MOUNTAINLINE
  0
ENDBLK
  5
260
330
25D
100
AcDbEntity
  8
0
100
AcDbBlockEnd
  0
BLOCK
  5
267
330
265
100
AcDbEntity
  8
0
100
AcDbBlockBegin
  2
BLOCK_61
 70
     0
 71
     0
 10
0.0
 20
0.0
 30
0.0
  3
BLOCK_61
  1

  0
POLYLINE
  5
269
330
265
100
AcDbEntity
  8
MOUNTAINLINE
 62
   250
100
AcDb2dPolyline
 66
     1
 10
0.0
 20
0.0
 30
0.0
  0
VERTEX
  5
26A
330
269
100
AcDbEntity
  8
MOUNTAINLINE
 62
   250
100
AcDbVertex
100
AcDb2dVertex
 10
100.3080891676313
 20
-98.27134871675162
 30
0.0
  0
VERTEX
  5
26B
330
269
100
AcDbEntity
  8
MOUNTAINLINE
 62
   250
100
AcDbVertex
100
AcDb2dVertex
 10
94.36529945557534
 20
-106.9858900014653
 30
0.0
  0
SEQEND
  5
26C
330
269
100
AcDbEntity
  8
MOUNTAINLINE
  0
ENDBLK
  5
268
330
265
100
AcDbEntity
  8
0
100
AcDbBlockEnd
  0
BLOCK
  5
26F
330
26D
100
AcDbEntity
  8
0
100
AcDbBlockBegin
  2
BLOCK_62
 70
     0
 71
     0
 10
0.0
 20
0.0
 30
0.0
  3
BLOCK_62
  1

  0
POLYLINE
  5
271
330
26D
100
AcDbEntity
  8
MOUNTAINLINE
 62
   250
100
AcDb2dPolyline
 66
     1
 10
0.0
 20
0.0
 30
0.0
  0
VERTEX
  5
272
330
271
100
AcDbEntity
  8
MOUNTAINLINE
 62
   250
100
AcDbVertex
100
AcDb2dVertex
 10
87.26289060318427
 20
-137.7511094490692
 30
0.0
  0
VERTEX
  5
273
330
271
100
AcDbEntity
  8
MOUNTAINLINE
 62
   250
100
AcDbVertex
100
AcDb2dVertex
 10
86.47361922751354
 20
-148.2691582203112
 30
0.0
  0
SEQEND
  5
274
330
271
100
AcDbEntity
  8
MOUNTAINLINE
  0
ENDBLK
  5
270
330
26D
100
AcDbEntity
  8
0
100
AcDbBlockEnd
  0
BLOCK
  5
277
330
275
100
AcDbEntity
  8
0
100
AcDbBlockBegin
  2
BLOCK_63
 70
     0
 71
     0
 10
0.0
 20
0.0
 30
0.0
  3
BLOCK_63
  1

  0
POLYLINE
  5
279
330
275
100
AcDbEntity
  8
MOUNTAINLINE
 62
   250
100
AcDb2dPolyline
 66
     1
 10
0.0
 20
0.0
 30
0.0
  0
VERTEX
  5
27A
330
279
100
AcDbEntity
  8
MOUNTAINLINE
 62
   250
100
AcDbVertex
100
AcDb2dVertex
 10
161.9377468128142
 20
-128.0486870339601
 30
0.0
  0
VERTEX
  5
27B
330
279
100
AcDbEntity
  8
MOUNTAINLINE
 62
   250
100
AcDbVertex
100
AcDb2dVertex
 10
185.7464572018273
 20
-144.2838717629742
 30
0.0
  0
SEQEND
  5
27C
330
279
100
AcDbEntity
  8
MOUNTAINLINE
  0
ENDBLK
  5
278
330
275
100
AcDbEntity
  8
0
100
AcDbBlockEnd
  0
BLOCK
  5
27F
330
27D
100
AcDbEntity
  8
0
100
AcDbBlockBegin
  2
BLOCK_64
 70
     0
 71
     0
 10
0.0
 20
0.0
 30
0.0
  3
BLOCK_64
  1

  0
POLYLINE
  5
281
330
27D
100
AcDbEntity
  8
MOUNTAINLINE
 62
   250
100
AcDb2dPolyline
 66
     1
 10
0.0
 20
0.0
 30
0.0
  0
VERTEX
  5
282
330
281
100
AcDbEntity
  8
MOUNTAINLINE
 62
   250
100
AcDbVertex
100
AcDb2dVertex
 10
138.8463053038301
 20
-106.5149454486317
 30
0.0
  0
VERTEX
  5
283
330
281
100
AcDbEntity
  8
MOUNTAINLINE
 62
   250
100
AcDbVertex
100
AcDb2dVertex
 10
143.4217366177904
 20
-116.0184135994676
 30
0.0
  0
SEQEND
  5
284
330
281
100
AcDbEntity
  8
MOUNTAINLINE
  0
ENDBLK
  5
280
330
27D
100
AcDbEntity
  8
0
100
AcDbBlockEnd
  0
BLOCK
  5
287
330
285
100
AcDbEntity
  8
0
100
AcDbBlockBegin
  2
BLOCK_65
 70
     0
 71
     0
 10
0.0
 20
0.0
 30
0.0
  3
BLOCK_65
  1

  0
POLYLINE
  5
289
330
285
100
AcDbEntity
  8
MOUNTAINLINE
 62
   250
100
AcDb2dPolyline
 66
     1
 10
0.0
 20
0.0
 30
0.0
  0
VERTEX
  5
28A
330
289
100
AcDbEntity
  8
MOUNTAINLINE
 62
   250
100
AcDbVertex
100
AcDb2dVertex
 10
138.8463053038301
 20
-106.5149454486317
 30
0.0
  0
VERTEX
  5
28B
330
289
100
AcDbEntity
  8
MOUNTAINLINE
 62
   250
100
AcDbVertex
100
AcDb2dVertex
 10
132.9035155917741
 20
-115.2293144785712
 30
0.0
  0
SEQEND
  5
28C
330
289
100
AcDbEntity
  8
MOUNTAINLINE
  0
ENDBLK
  5
288
330
285
100
AcDbEntity
  8
0
100
AcDbBlockEnd
  0
BLOCK
  5
28F
330
28D
100
AcDbEntity
  8
0
100
AcDbBlockBegin
  2
BLOCK_66
 70
     0
 71
     0
 10
0.0
 20
0.0
 30
0.0
  3
BLOCK_66
  1

  0
POLYLINE
  5
291
330
28D
100
AcDbEntity
  8
MOUNTAINLINE
 62
   250
100
AcDb2dPolyline
 66
     1
 10
0.0
 20
0.0
 30
0.0
  0
VERTEX
  5
292
330
291
100
AcDbEntity
  8
MOUNTAINLINE
 62
   250
100
AcDbVertex
100
AcDb2dVertex
 10
132.9035155917741
 20
-115.2293144785712
 30
0.0
  0
VERTEX
  5
293
330
291
100
AcDbEntity
  8
MOUNTAINLINE
 62
   250
100
AcDbVertex
100
AcDb2dVertex
 10
143.4217366177904
 20
-116.0184135994676
 30
0.0
  0
SEQEND
  5
294
330
291
100
AcDbEntity
  8
MOUNTAINLINE
  0
ENDBLK
  5
290
330
28D
100
AcDbEntity
  8
0
100
AcDbBlockEnd
  0
BLOCK
  5
297
330
295
100
AcDbEntity
  8
0
100
AcDbBlockBegin
  2
BLOCK_67
 70
     0
 71
     0
 10
0.0
 20
0.0
 30
0.0
  3
BLOCK_67
  1

  0
POLYLINE
  5
299
330
295
100
AcDbEntity
  8
MOUNTAINLINE
 62
   250
100
AcDb2dPolyline
 66
     1
 10
0.0
 20
0.0
 30
0.0
  0
VERTEX
  5
29A
330
299
100
AcDbEntity
  8
MOUNTAINLINE
 62
   250
100
AcDbVertex
100
AcDb2dVertex
 10
113.2268527277697
 20
-125.2498914617431
 30
0.0
  0
VERTEX
  5
29B
330
299
100
AcDbEntity
  8
MOUNTAINLINE
 62
   250
100
AcDbVertex
100
AcDb2dVertex
 10
121.9412217577091
 20
-131.1921644094763
 30
0.0
  0
SEQEND
  5
29C
330
299
100
AcDbEntity
  8
MOUNTAINLINE
  0
ENDBLK
  5
298
330
295
100
AcDbEntity
  8
0
100
AcDbBlockEnd
  0
BLOCK
  5
29F
330
29D
100
AcDbEntity
  8
0
100
AcDbBlockBegin
  2
BLOCK_68
 70
     0
 71
     0
 10
0.0
 20
0.0
 30
0.0
  3
BLOCK_68
  1

  0
POLYLINE
  5
2A1
330
29D
100
AcDbEntity
  8
MOUNTAINLINE
 62
   250
100
AcDb2dPolyline
 66
     1
 10
0.0
 20
0.0
 30
0.0
  0
VERTEX
  5
2A2
330
2A1
100
AcDbEntity
  8
MOUNTAINLINE
 62
   250
100
AcDbVertex
100
AcDb2dVertex
 10
63.38166095420667
 20
-126.7355888897571
 30
0.0
  0
VERTEX
  5
2A3
330
2A1
100
AcDbEntity
  8
MOUNTAINLINE
 62
   250
100
AcDbVertex
100
AcDb2dVertex
 10
67.9574367777155
 20
-136.2388847858188
 30
0.0
  0
SEQEND
  5
2A4
330
2A1
100
AcDbEntity
  8
MOUNTAINLINE
  0
ENDBLK
  5
2A0
330
29D
100
AcDbEntity
  8
0
100
AcDbBlockEnd
  0
BLOCK
  5
2A7
330
2A5
100
AcDbEntity
  8
0
100
AcDbBlockBegin
  2
BLOCK_69
 70
     0
 71
     0
 10
0.0
 20
0.0
 30
0.0
  3
BLOCK_69
  1

  0
POLYLINE
  5
2A9
330
2A5
100
AcDbEntity
  8
MOUNTAINLINE
 62
   250
100
AcDb2dPolyline
 66
     1
 10
0.0
 20
0.0
 30
0.0
  0
VERTEX
  5
2AA
330
2A9
100
AcDbEntity
  8
MOUNTAINLINE
 62
   250
100
AcDbVertex
100
AcDb2dVertex
 10
63.38166095420667
 20
-126.7355888897571
 30
0.0
  0
VERTEX
  5
2AB
330
2A9
100
AcDbEntity
  8
MOUNTAINLINE
 62
   250
100
AcDbVertex
100
AcDb2dVertex
 10
57.43921575169923
 20
-135.449613410148
 30
0.0
  0
SEQEND
  5
2AC
330
2A9
100
AcDbEntity
  8
MOUNTAINLINE
  0
ENDBLK
  5
2A8
330
2A5
100
AcDbEntity
  8
0
100
AcDbBlockEnd
  0
BLOCK
  5
2AF
330
2AD
100
AcDbEntity
  8
0
100
AcDbBlockBegin
  2
BLOCK_70
 70
     0
 71
     0
 10
0.0
 20
0.0
 30
0.0
  3
BLOCK_70
  1

  0
POLYLINE
  5
2B1
330
2AD
100
AcDbEntity
  8
MOUNTAINLINE
 62
   250
100
AcDb2dPolyline
 66
     1
 10
0.0
 20
0.0
 30
0.0
  0
VERTEX
  5
2B2
330
2B1
100
AcDbEntity
  8
MOUNTAINLINE
 62
   250
100
AcDbVertex
100
AcDb2dVertex
 10
57.43921575169923
 20
-135.449613410148
 30
0.0
  0
VERTEX
  5
2B3
330
2B1
100
AcDbEntity
  8
MOUNTAINLINE
 62
   250
100
AcDbVertex
100
AcDb2dVertex
 10
67.9574367777155
 20
-136.2388847858188
 30
0.0
  0
SEQEND
  5
2B4
330
2B1
100
AcDbEntity
  8
MOUNTAINLINE
  0
ENDBLK
  5
2B0
330
2AD
100
AcDbEntity
  8
0
100
AcDbBlockEnd
  0
BLOCK
  5
2B7
330
2B5
100
AcDbEntity
  8
0
100
AcDbBlockBegin
  2
BLOCK_71
 70
     0
 71
     0
 10
0.0
 20
0.0
 30
0.0
  3
BLOCK_71
  1

  0
POLYLINE
  5
2B9
330
2B5
100
AcDbEntity
  8
MOUNTAINLINE
 62
   250
100
AcDb2dPolyline
 66
     1
 10
0.0
 20
0.0
 30
0.0
  0
VERTEX
  5
2BA
330
2B9
100
AcDbEntity
  8
MOUNTAINLINE
 62
   250
100
AcDbVertex
100
AcDb2dVertex
 10
27.24450411645276
 20
-144.6817802915205
 30
0.0
  0
VERTEX
  5
2BB
330
2B9
100
AcDbEntity
  8
MOUNTAINLINE
 62
   250
100
AcDbVertex
100
AcDb2dVertex
 10
51.05269774114308
 20
-160.9162760014376
 30
0.0
  0
SEQEND
  5
2BC
330
2B9
100
AcDbEntity
  8
MOUNTAINLINE
  0
ENDBLK
  5
2B8
330
2B5
100
AcDbEntity
  8
0
100
AcDbBlockEnd
  0
BLOCK
  5
2BF
330
2BD
100
AcDbEntity
  8
0
100
AcDbBlockBegin
  2
BLOCK_72
 70
     0
 71
     0
 10
0.0
 20
0.0
 30
0.0
  3
BLOCK_72
  1

  0
POLYLINE
  5
2C1
330
2BD
100
AcDbEntity
  8
MOUNTAINLINE
 62
   250
100
AcDb2dPolyline
 66
     1
 10
0.0
 20
0.0
 30
0.0
  0
VERTEX
  5
2C2
330
2C1
100
AcDbEntity
  8
MOUNTAINLINE
 62
   250
100
AcDbVertex
100
AcDb2dVertex
 10
91.0497395605709
 20
-157.7722818615986
 30
0.0
  0
VERTEX
  5
2C3
330
2C1
100
AcDbEntity
  8
MOUNTAINLINE
 62
   250
100
AcDbVertex
100
AcDb2dVertex
 10
99.76359182618758
 20
-163.7150715736546
 30
0.0
  0
SEQEND
  5
2C4
330
2C1
100
AcDbEntity
  8
MOUNTAINLINE
  0
ENDBLK
  5
2C0
330
2BD
100
AcDbEntity
  8
0
100
AcDbBlockEnd
  0
BLOCK
  5
2C7
330
2C5
100
AcDbEntity
  8
0
100
AcDbBlockBegin
  2
BLOCK_73
 70
     0
 71
     0
 10
0.0
 20
0.0
 30
0.0
  3
BLOCK_73
  1

  0
POLYLINE
  5
2C9
330
2C5
100
AcDbEntity
  8
MOUNTAINLINE
 62
   250
100
AcDb2dPolyline
 66
     1
 10
0.0
 20
0.0
 30
0.0
  0
VERTEX
  5
2CA
330
2C9
100
AcDbEntity
  8
MOUNTAINLINE
 62
   250
100
AcDbVertex
100
AcDb2dVertex
 10
148.4491644594155
 20
-184.2805690728535
 30
0.0
  0
VERTEX
  5
2CB
330
2C9
100
AcDbEntity
  8
MOUNTAINLINE
 62
   250
100
AcDbVertex
100
AcDb2dVertex
 10
146.2928791951976
 20
-213.0164550248709
 30
0.0
  0
SEQEND
  5
2CC
330
2C9
100
AcDbEntity
  8
MOUNTAINLINE
  0
ENDBLK
  5
2C8
330
2C5
100
AcDbEntity
  8
0
100
AcDbBlockEnd
  0
BLOCK
  5
2CF
330
2CD
100
AcDbEntity
  8
0
100
AcDbBlockBegin
  2
BLOCK_74
 70
     0
 71
     0
 10
0.0
 20
0.0
 30
0.0
  3
BLOCK_74
  1

  0
POLYLINE
  5
2D1
330
2CD
100
AcDbEntity
  8
MOUNTAINLINE
 62
   250
100
AcDb2dPolyline
 66
     1
 10
0.0
 20
0.0
 30
0.0
  0
VERTEX
  5
2D2
330
2D1
100
AcDbEntity
  8
MOUNTAINLINE
 62
   250
100
AcDbVertex
100
AcDb2dVertex
 10
155.5519178213551
 20
-153.5151773704754
 30
0.0
  0
VERTEX
  5
2D3
330
2D1
100
AcDbEntity
  8
MOUNTAINLINE
 62
   250
100
AcDbVertex
100
AcDb2dVertex
 10
149.6091281092991
 20
-162.2298909099634
 30
0.0
  0
SEQEND
  5
2D4
330
2D1
100
AcDbEntity
  8
MOUNTAINLINE
  0
ENDBLK
  5
2D0
330
2CD
100
AcDbEntity
  8
0
100
AcDbBlockEnd
  0
BLOCK
  5
2D7
330
2D5
100
AcDbEntity
  8
0
100
AcDbBlockBegin
  2
BLOCK_75
 70
     0
 71
     0
 10
0.0
 20
0.0
 30
0.0
  3
BLOCK_75
  1

  0
POLYLINE
  5
2D9
330
2D5
100
AcDbEntity
  8
MOUNTAINLINE
 62
   250
100
AcDb2dPolyline
 66
     1
 10
0.0
 20
0.0
 30
0.0
  0
VERTEX
  5
2DA
330
2D9
100
AcDbEntity
  8
MOUNTAINLINE
 62
   250
100
AcDbVertex
100
AcDb2dVertex
 10
155.5519178213551
 20
-153.5151773704754
 30
0.0
  0
VERTEX
  5
2DB
330
2D9
100
AcDbEntity
  8
MOUNTAINLINE
 62
   250
100
AcDbVertex
100
AcDb2dVertex
 10
145.0330077762418
 20
-152.7259059948046
 30
0.0
  0
SEQEND
  5
2DC
330
2D9
100
AcDbEntity
  8
MOUNTAINLINE
  0
ENDBLK
  5
2D8
330
2D5
100
AcDbEntity
  8
0
100
AcDbBlockEnd
  0
BLOCK
  5
2DF
330
2DD
100
AcDbEntity
  8
0
100
AcDbBlockBegin
  2
BLOCK_76
 70
     0
 71
     0
 10
0.0
 20
0.0
 30
0.0
  3
BLOCK_76
  1

  0
POLYLINE
  5
2E1
330
2DD
100
AcDbEntity
  8
MOUNTAINLINE
 62
   250
100
AcDb2dPolyline
 66
     1
 10
0.0
 20
0.0
 30
0.0
  0
VERTEX
  5
2E2
330
2E1
100
AcDbEntity
  8
MOUNTAINLINE
 62
   250
100
AcDbVertex
100
AcDb2dVertex
 10
145.0330077762418
 20
-152.7259059948046
 30
0.0
  0
VERTEX
  5
2E3
330
2E1
100
AcDbEntity
  8
MOUNTAINLINE
 62
   250
100
AcDbVertex
100
AcDb2dVertex
 10
149.6091281092991
 20
-162.2298909099634
 30
0.0
  0
SEQEND
  5
2E4
330
2E1
100
AcDbEntity
  8
MOUNTAINLINE
  0
ENDBLK
  5
2E0
330
2DD
100
AcDbEntity
  8
0
100
AcDbBlockEnd
  0
BLOCK
  5
2E7
330
2E5
100
AcDbEntity
  8
0
100
AcDbBlockBegin
  2
BLOCK_77
 70
     0
 71
     0
 10
0.0
 20
0.0
 30
0.0
  3
BLOCK_77
  1

  0
POLYLINE
  5
2E9
330
2E5
100
AcDbEntity
  8
MOUNTAINLINE
 62
   250
100
AcDb2dPolyline
 66
     1
 10
0.0
 20
0.0
 30
0.0
  0
VERTEX
  5
2EA
330
2E9
100
AcDbEntity
  8
MOUNTAINLINE
 62
   250
100
AcDbVertex
100
AcDb2dVertex
 10
126.516997581218
 20
-140.6956325603122
 30
0.0
  0
VERTEX
  5
2EB
330
2E9
100
AcDbEntity
  8
MOUNTAINLINE
 62
   250
100
AcDbVertex
100
AcDb2dVertex
 10
125.7277262055472
 20
-151.214198095877
 30
0.0
  0
SEQEND
  5
2EC
330
2E9
100
AcDbEntity
  8
MOUNTAINLINE
  0
ENDBLK
  5
2E8
330
2E5
100
AcDbEntity
  8
0
100
AcDbBlockEnd
  0
BLOCK
  5
2EF
330
2ED
100
AcDbEntity
  8
0
100
AcDbBlockBegin
  2
BLOCK_78
 70
     0
 71
     0
 10
0.0
 20
0.0
 30
0.0
  3
BLOCK_78
  1

  0
POLYLINE
  5
2F1
330
2ED
100
AcDbEntity
  8
MOUNTAINLINE
 62
   250
100
AcDb2dPolyline
 66
     1
 10
0.0
 20
0.0
 30
0.0
  0
VERTEX
  5
2F2
330
2F1
100
AcDbEntity
  8
MOUNTAINLINE
 62
   250
100
AcDbVertex
100
AcDb2dVertex
 10
118.6249728436077
 20
-181.9789007791581
 30
0.0
  0
VERTEX
  5
2F3
330
2F1
100
AcDbEntity
  8
MOUNTAINLINE
 62
   250
100
AcDbVertex
100
AcDb2dVertex
 10
123.2007486671165
 20
-191.4828856943168
 30
0.0
  0
SEQEND
  5
2F4
330
2F1
100
AcDbEntity
  8
MOUNTAINLINE
  0
ENDBLK
  5
2F0
330
2ED
100
AcDbEntity
  8
0
100
AcDbBlockEnd
  0
BLOCK
  5
2F7
330
2F5
100
AcDbEntity
  8
0
100
AcDbBlockBegin
  2
BLOCK_79
 70
     0
 71
     0
 10
0.0
 20
0.0
 30
0.0
  3
BLOCK_79
  1

  0
POLYLINE
  5
2F9
330
2F5
100
AcDbEntity
  8
MOUNTAINLINE
 62
   250
100
AcDb2dPolyline
 66
     1
 10
0.0
 20
0.0
 30
0.0
  0
VERTEX
  5
2FA
330
2F9
100
AcDbEntity
  8
MOUNTAINLINE
 62
   250
100
AcDbVertex
100
AcDb2dVertex
 10
118.6249728436077
 20
-181.9789007791581
 30
0.0
  0
VERTEX
  5
2FB
330
2F9
100
AcDbEntity
  8
MOUNTAINLINE
 62
   250
100
AcDbVertex
100
AcDb2dVertex
 10
112.6832166601973
 20
-190.693614318646
 30
0.0
  0
SEQEND
  5
2FC
330
2F9
100
AcDbEntity
  8
MOUNTAINLINE
  0
ENDBLK
  5
2F8
330
2F5
100
AcDbEntity
  8
0
100
AcDbBlockEnd
  0
BLOCK
  5
2FF
330
2FD
100
AcDbEntity
  8
0
100
AcDbBlockBegin
  2
BLOCK_80
 70
     0
 71
     0
 10
0.0
 20
0.0
 30
0.0
  3
BLOCK_80
  1

  0
POLYLINE
  5
301
330
2FD
100
AcDbEntity
  8
MOUNTAINLINE
 62
   250
100
AcDb2dPolyline
 66
     1
 10
0.0
 20
0.0
 30
0.0
  0
VERTEX
  5
302
330
301
100
AcDbEntity
  8
MOUNTAINLINE
 62
   250
100
AcDbVertex
100
AcDb2dVertex
 10
112.6832166601973
 20
-190.693614318646
 30
0.0
  0
VERTEX
  5
303
330
301
100
AcDbEntity
  8
MOUNTAINLINE
 62
   250
100
AcDbVertex
100
AcDb2dVertex
 10
123.2007486671165
 20
-191.4828856943168
 30
0.0
  0
SEQEND
  5
304
330
301
100
AcDbEntity
  8
MOUNTAINLINE
  0
ENDBLK
  5
300
330
2FD
100
AcDbEntity
  8
0
100
AcDbBlockEnd
  0
BLOCK
  5
307
330
305
100
AcDbEntity
  8
0
100
AcDbBlockBegin
  2
BLOCK_81
 70
     0
 71
     0
 10
0.0
 20
0.0
 30
0.0
  3
BLOCK_81
  1

  0
POLYLINE
  5
309
330
305
100
AcDbEntity
  8
MOUNTAINLINE
 62
   250
100
AcDb2dPolyline
 66
     1
 10
0.0
 20
0.0
 30
0.0
  0
VERTEX
  5
30A
330
309
100
AcDbEntity
  8
MOUNTAINLINE
 62
   250
100
AcDbVertex
100
AcDb2dVertex
 10
119.7859700221369
 20
-159.928222616268
 30
0.0
  0
VERTEX
  5
30B
330
309
100
AcDbEntity
  8
MOUNTAINLINE
 62
   250
100
AcDbVertex
100
AcDb2dVertex
 10
110.2823296165266
 20
-164.5039984397768
 30
0.0
  0
SEQEND
  5
30C
330
309
100
AcDbEntity
  8
MOUNTAINLINE
  0
ENDBLK
  5
308
330
305
100
AcDbEntity
  8
0
100
AcDbBlockEnd
  0
BLOCK
  5
30F
330
30D
100
AcDbEntity
  8
0
100
AcDbBlockBegin
  2
BLOCK_82
 70
     0
 71
     0
 10
0.0
 20
0.0
 30
0.0
  3
BLOCK_82
  1

  0
POLYLINE
  5
311
330
30D
100
AcDbEntity
  8
MOUNTAINLINE
 62
   250
100
AcDb2dPolyline
 66
     1
 10
0.0
 20
0.0
 30
0.0
  0
VERTEX
  5
312
330
311
100
AcDbEntity
  8
MOUNTAINLINE
 62
   250
100
AcDbVertex
100
AcDb2dVertex
 10
80.0871012169574
 20
-173.7361653211493
 30
0.0
  0
VERTEX
  5
313
330
311
100
AcDbEntity
  8
MOUNTAINLINE
 62
   250
100
AcDbVertex
100
AcDb2dVertex
 10
74.1448282692242
 20
-182.4501898415402
 30
0.0
  0
SEQEND
  5
314
330
311
100
AcDbEntity
  8
MOUNTAINLINE
  0
ENDBLK
  5
310
330
30D
100
AcDbEntity
  8
0
100
AcDbBlockEnd
  0
BLOCK
  5
317
330
315
100
AcDbEntity
  8
0
100
AcDbBlockBegin
  2
BLOCK_83
 70
     0
 71
     0
 10
0.0
 20
0.0
 30
0.0
  3
BLOCK_83
  1

  0
POLYLINE
  5
319
330
315
100
AcDbEntity
  8
MOUNTAINLINE
 62
   250
100
AcDb2dPolyline
 66
     1
 10
0.0
 20
0.0
 30
0.0
  0
VERTEX
  5
31A
330
319
100
AcDbEntity
  8
MOUNTAINLINE
 62
   250
100
AcDbVertex
100
AcDb2dVertex
 10
80.0871012169574
 20
-173.7361653211493
 30
0.0
  0
VERTEX
  5
31B
330
319
100
AcDbEntity
  8
MOUNTAINLINE
 62
   250
100
AcDbVertex
100
AcDb2dVertex
 10
69.5693969552639
 20
-172.9468939454786
 30
0.0
  0
SEQEND
  5
31C
330
319
100
AcDbEntity
  8
MOUNTAINLINE
  0
ENDBLK
  5
318
330
315
100
AcDbEntity
  8
0
100
AcDbBlockEnd
  0
BLOCK
  5
31F
330
31D
100
AcDbEntity
  8
0
100
AcDbBlockBegin
  2
BLOCK_84
 70
     0
 71
     0
 10
0.0
 20
0.0
 30
0.0
  3
BLOCK_84
  1

  0
POLYLINE
  5
321
330
31D
100
AcDbEntity
  8
MOUNTAINLINE
 62
   250
100
AcDb2dPolyline
 66
     1
 10
0.0
 20
0.0
 30
0.0
  0
VERTEX
  5
322
330
321
100
AcDbEntity
  8
MOUNTAINLINE
 62
   250
100
AcDbVertex
100
AcDb2dVertex
 10
69.5693969552639
 20
-172.9468939454786
 30
0.0
  0
VERTEX
  5
323
330
321
100
AcDbEntity
  8
MOUNTAINLINE
 62
   250
100
AcDbVertex
100
AcDb2dVertex
 10
74.1448282692242
 20
-182.4501898415402
 30
0.0
  0
SEQEND
  5
324
330
321
100
AcDbEntity
  8
MOUNTAINLINE
  0
ENDBLK
  5
320
330
31D
100
AcDbEntity
  8
0
100
AcDbBlockEnd
  0
BLOCK
  5
327
330
325
100
AcDbEntity
  8
0
100
AcDbBlockBegin
  2
BLOCK_85
 70
     0
 71
     0
 10
0.0
 20
0.0
 30
0.0
  3
BLOCK_85
  1

  0
POLYLINE
  5
329
330
325
100
AcDbEntity
  8
MOUNTAINLINE
 62
   250
100
AcDb2dPolyline
 66
     1
 10
0.0
 20
0.0
 30
0.0
  0
VERTEX
  5
32A
330
329
100
AcDbEntity
  8
MOUNTAINLINE
 62
   250
100
AcDbVertex
100
AcDb2dVertex
 10
67.04224716205889
 20
-213.2155815439183
 30
0.0
  0
VERTEX
  5
32B
330
329
100
AcDbEntity
  8
MOUNTAINLINE
 62
   250
100
AcDbVertex
100
AcDb2dVertex
 10
93.00638154141855
 20
-200.7140190470437
 30
0.0
  0
SEQEND
  5
32C
330
329
100
AcDbEntity
  8
MOUNTAINLINE
  0
ENDBLK
  5
328
330
325
100
AcDbEntity
  8
0
100
AcDbBlockEnd
  0
ENDSEC
  0
SECTION
  2
ENTITIES
  0
POLYLINE
  5
3C
330
1F
100
AcDbEntity
  8
CUTLINE
 62
   250
100
AcDb2dPolyline
 66
     1
 10
0.0
 20
0.0
 30
0.0
  0
VERTEX
  5
3D
330
3C
100
AcDbEntity
  8
CUTLINE
 62
   250
100
AcDbVertex
100
AcDb2dVertex
 10
204.4044053308434
 20
-243.4645534330575
 30
0.0
  0
VERTEX
  5
3E
330
3C
100
AcDbEntity
  8
CUTLINE
 62
   250
100
AcDbVertex
100
AcDb2dVertex
 10
7.145472545956688
 20
-243.4645534330575
 30
0.0
  0
VERTEX
  5
3F
330
3C
100
AcDbEntity
  8
CUTLINE
 62
   250
100
AcDbVertex
100
AcDb2dVertex
 10
7.145472545956688
 20
-46.20562064817082
 30
0.0
  0
VERTEX
  5
40
330
3C
100
AcDbEntity
  8
CUTLINE
 62
   250
100
AcDbVertex
100
AcDb2dVertex
 10
204.4044053308434
 20
-46.20562064817082
 30
0.0
  0
VERTEX
  5
41
330
3C
100
AcDbEntity
  8
CUTLINE
 62
   250
100
AcDbVertex
100
AcDb2dVertex
 10
204.4044053308434
 20
-243.4645534330575
 30
0.0
  0
SEQEND
  5
42
330
3C
100
AcDbEntity
  8
CUTLINE
  0
INSERT
  5
45
330
1F
100
AcDbEntity
  8
VALLEYLINE
100
AcDbBlockReference
  2
BLOCK_2
 10
0.0
 20
0.0
 30
0.0
  0
INSERT
  5
4E
330
1F
100
AcDbEntity
  8
VALLEYLINE
100
AcDbBlockReference
  2
BLOCK_3
 10
0.0
 20
0.0
 30
0.0
  0
INSERT
  5
57
330
1F
100
AcDbEntity
  8
VALLEYLINE
100
AcDbBlockReference
  2
BLOCK_4
 10
0.0
 20
0.0
 30
0.0
  0
INSERT
  5
60
330
1F
100
AcDbEntity
  8
VALLEYLINE
100
AcDbBlockReference
  2
BLOCK_5
 10
0.0
 20
0.0
 30
0.0
  0
INSERT
  5
69
330
1F
100
AcDbEntity
  8
VALLEYLINE
100
AcDbBlockReference
  2
BLOCK_6
 10
0.0
 20
0.0
 30
0.0
  0
INSERT
  5
72
330
1F
100
AcDbEntity
  8
VALLEYLINE
100
AcDbBlockReference
  2
BLOCK_7
 10
0.0
 20
0.0
 30
0.0
  0
INSERT
  5
7B
330
1F
100
AcDbEntity
  8
VALLEYLINE
100
AcDbBlockReference
  2
BLOCK_8
 10
0.0
 20
0.0
 30
0.0
  0
INSERT
  5
84
330
1F
100
AcDbEntity
  8
VALLEYLINE
100
AcDbBlockReference
  2
BLOCK_9
 10
0.0
 20
0.0
 30
0.0
  0
INSERT
  5
8D
330
1F
100
AcDbEntity
  8
VALLEYLINE
100
AcDbBlockReference
  2
BLOCK_10
 10
0.0
 20
0.0
 30
0.0
  0
INSERT
  5
96
330
1F
100
AcDbEntity
  8
VALLEYLINE
100
AcDbBlockReference
  2
BLOCK_11
 10
0.0
 20
0.0
 30
0.0
  0
INSERT
  5
9F
330
1F
100
AcDbEntity
  8
VALLEYLINE
100
AcDbBlockReference
  2
BLOCK_12
 10
0.0
 20
0.0
 30
0.0
  0
INSERT
  5
A8
330
1F
100
AcDbEntity
  8
VALLEYLINE
100
AcDbBlockReference
  2
BLOCK_13
 10
0.0
 20
0.0
 30
0.0
  0
INSERT
  5
B1
330
1F
100
AcDbEntity
  8
VALLEYLINE
100
AcDbBlockReference
  2
BLOCK_14
 10
0.0
 20
0.0
 30
0.0
  0
INSERT
  5
BA
330
1F
100
AcDbEntity
  8
VALLEYLINE
100
AcDbBlockReference
  2
BLOCK_15
 10
0.0
 20
0.0
 30
0.0
  0
INSERT
  5
C3
330
1F
100
AcDbEntity
  8
VALLEYLINE
100
AcDbBlockReference
  2
BLOCK_16
 10
0.0
 20
0.0
 30
0.0
  0
INSERT
  5
CC
330
1F
100
AcDbEntity
  8
VALLEYLINE
100
AcDbBlockReference
  2
BLOCK_17
 10
0.0
 20
0.0
 30
0.0
  0
INSERT
  5
D5
330
1F
100
AcDbEntity
  8
VALLEYLINE
100
AcDbBlockReference
  2
BLOCK_18
 10
0.0
 20
0.0
 30
0.0
  0
INSERT
  5
DE
330
1F
100
AcDbEntity
  8
VALLEYLINE
100
AcDbBlockReference
  2
BLOCK_19
 10
0.0
 20
0.0
 30
0.0
  0
INSERT
  5
E7
330
1F
100
AcDbEntity
  8
VALLEYLINE
100
AcDbBlockReference
  2
BLOCK_20
 10
0.0
 20
0.0
 30
0.0
  0
INSERT
  5
F0
330
1F
100
AcDbEntity
  8
VALLEYLINE
100
AcDbBlockReference
  2
BLOCK_21
 10
0.0
 20
0.0
 30
0.0
  0
INSERT
  5
F9
330
1F
100
AcDbEntity
  8
VALLEYLINE
100
AcDbBlockReference
  2
BLOCK_22
 10
0.0
 20
0.0
 30
0.0
  0
INSERT
  5
102
330
1F
100
AcDbEntity
  8
VALLEYLINE
100
AcDbBlockReference
  2
BLOCK_23
 10
0.0
 20
0.0
 30
0.0
  0
INSERT
  5
10B
330
1F
100
AcDbEntity
  8
VALLEYLINE
100
AcDbBlockReference
  2
BLOCK_24
 10
0.0
 20
0.0
 30
0.0
  0
INSERT
  5
114
330
1F
100
AcDbEntity
  8
VALLEYLINE
100
AcDbBlockReference
  2
BLOCK_25
 10
0.0
 20
0.0
 30
0.0
  0
INSERT
  5
11D
330
1F
100
AcDbEntity
  8
VALLEYLINE
100
AcDbBlockReference
  2
BLOCK_26
 10
0.0
 20
0.0
 30
0.0
  0
INSERT
  5
126
330
1F
100
AcDbEntity
  8
VALLEYLINE
100
AcDbBlockReference
  2
BLOCK_27
 10
0.0
 20
0.0
 30
0.0
  0
INSERT
  5
12F
330
1F
100
AcDbEntity
  8
VALLEYLINE
100
AcDbBlockReference
  2
BLOCK_28
 10
0.0
 20
0.0
 30
0.0
  0
INSERT
  5
138
330
1F
100
AcDbEntity
  8
VALLEYLINE
100
AcDbBlockReference
  2
BLOCK_29
 10
0.0
 20
0.0
 30
0.0
  0
INSERT
  5
141
330
1F
100
AcDbEntity
  8
VALLEYLINE
100
AcDbBlockReference
  2
BLOCK_30
 10
0.0
 20
0.0
 30
0.0
  0
INSERT
  5
14A
330
1F
100
AcDbEntity
  8
VALLEYLINE
100
AcDbBlockReference
  2
BLOCK_31
 10
0.0
 20
0.0
 30
0.0
  0
INSERT
  5
153
330
1F
100
AcDbEntity
  8
VALLEYLINE
100
AcDbBlockReference
  2
BLOCK_32
 10
0.0
 20
0.0
 30
0.0
  0
INSERT
  5
15C
330
1F
100
AcDbEntity
  8
VALLEYLINE
100
AcDbBlockReference
  2
BLOCK_33
 10
0.0
 20
0.0
 30
0.0
  0
INSERT
  5
165
330
1F
100
AcDbEntity
  8
VALLEYLINE
100
AcDbBlockReference
  2
BLOCK_34
 10
0.0
 20
0.0
 30
0.0
  0
INSERT
  5
16E
330
1F
100
AcDbEntity
  8
VALLEYLINE
100
AcDbBlockReference
  2
BLOCK_35
 10
0.0
 20
0.0
 30
0.0
  0
INSERT
  5
177
330
1F
100
AcDbEntity
  8
VALLEYLINE
100
AcDbBlockReference
  2
BLOCK_36
 10
0.0
 20
0.0
 30
0.0
  0
INSERT
  5
180
330
1F
100
AcDbEntity
  8
VALLEYLINE
100
AcDbBlockReference
  2
BLOCK_37
 10
0.0
 20
0.0
 30
0.0
  0
INSERT
  5
189
330
1F
100
AcDbEntity
  8
VALLEYLINE
100
AcDbBlockReference
  2
BLOCK_38
 10
0.0
 20
0.0
 30
0.0
  0
INSERT
  5
192
330
1F
100
AcDbEntity
  8
VALLEYLINE
100
AcDbBlockReference
  2
BLOCK_39
 10
0.0
 20
0.0
 30
0.0
  0
INSERT
  5
19B
330
1F
100
AcDbEntity
  8
VALLEYLINE
100
AcDbBlockReference
  2
BLOCK_40
 10
0.0
 20
0.0
 30
0.0
  0
INSERT
  5
1A4
330
1F
100
AcDbEntity
  8
VALLEYLINE
100
AcDbBlockReference
  2
BLOCK_41
 10
0.0
 20
0.0
 30
0.0
  0
INSERT
  5
1AD
330
1F
100
AcDbEntity
  8
VALLEYLINE
100
AcDbBlockReference
  2
BLOCK_42
 10
0.0
 20
0.0
 30
0.0
  0
INSERT
  5
1B6
330
1F
100
AcDbEntity
  8
VALLEYLINE
100
AcDbBlockReference
  2
BLOCK_43
 10
0.0
 20
0.0
 30
0.0
  0
INSERT
  5
1BF
330
1F
100
AcDbEntity
  8
VALLEYLINE
100
AcDbBlockReference
  2
BLOCK_44
 10
0.0
 20
0.0
 30
0.0
  0
INSERT
  5
1C8
330
1F
100
AcDbEntity
  8
VALLEYLINE
100
AcDbBlockReference
  2
BLOCK_45
 10
0.0
 20
0.0
 30
0.0
  0
INSERT
  5
1D1
330
1F
100
AcDbEntity
  8
VALLEYLINE
100
AcDbBlockReference
  2
BLOCK_46
 10
0.0
 20
0.0
 30
0.0
  0
INSERT
  5
1DA
330
1F
100
AcDbEntity
  8
VALLEYLINE
100
AcDbBlockReference
  2
BLOCK_47
 10
0.0
 20
0.0
 30
0.0
  0
INSERT
  5
1E3
330
1F
100
AcDbEntity
  8
VALLEYLINE
100
AcDbBlockReference
  2
BLOCK_48
 10
0.0
 20
0.0
 30
0.0
  0
INSERT
  5
1EC
330
1F
100
AcDbEntity
  8
VALLEYLINE
100
AcDbBlockReference
  2
BLOCK_49
 10
0.0
 20
0.0
 30
0.0
  0
SPLINE
  5
1F4
330
1F
100
AcDbEntity
  8
VALLEYLINE
  6
AI-LINETYPE-49
 62
   250
100
AcDbSpline
210
0.0
220
0.0
230
1.0
 70
     8
 71
     3
 72
     8
 73
     4
 74
     0
 42
0.0000000001
 43
0.0000000001
 40
0.0
 40
0.0
 40
0.0
 40
0.0
 40
1.0
 40
1.0
 40
1.0
 40
1.0
 10
99.76359182618758
 20
-163.7150715736546
 30
0.0
 10
104.9596570918156
 20
-164.0268527150697
 30
0.0
 10
111.9955756013414
 20
-163.9276339650945
 30
0.0
 10
119.7859700221369
 20
-159.928222616268
 30
0.0
  0
SPLINE
  5
1F6
330
1F
100
AcDbEntity
  8
VALLEYLINE
  6
AI-LINETYPE-50
 62
   250
100
AcDbSpline
210
0.0
220
0.0
230
1.0
 70
     8
 71
     3
 72
     8
 73
     4
 74
     0
 42
0.0000000001
 43
0.0000000001
 40
0.0
 40
0.0
 40
0.0
 40
0.0
 40
1.0
 40
1.0
 40
1.0
 40
1.0
 10
119.7859700221369
 20
-159.928222616268
 30
0.0
 10
122.6529784849618
 20
-155.5843017189164
 30
0.0
 10
126.0853271169162
 20
-149.4413519591674
 30
0.0
 10
126.516997581218
 20
-140.6956325603122
 30
0.0
  0
SPLINE
  5
1F8
330
1F
100
AcDbEntity
  8
VALLEYLINE
  6
AI-LINETYPE-51
 62
   250
100
AcDbSpline
210
0.0
220
0.0
230
1.0
 70
     8
 71
     3
 72
     8
 73
     4
 74
     0
 42
0.0000000001
 43
0.0000000001
 40
0.0
 40
0.0
 40
0.0
 40
0.0
 40
1.0
 40
1.0
 40
1.0
 40
1.0
 10
126.516997581218
 20
-140.6956325603122
 30
0.0
 10
124.1891465618347
 20
-136.0404472858684
 30
0.0
 10
120.5845431556178
 20
-129.9965440213203
 30
0.0
 10
113.2268527277697
 20
-125.2495469521946
 30
0.0
  0
SPLINE
  5
1FA
330
1F
100
AcDbEntity
  8
VALLEYLINE
  6
AI-LINETYPE-52
 62
   250
100
AcDbSpline
210
0.0
220
0.0
230
1.0
 70
     8
 71
     3
 72
     8
 73
     4
 74
     0
 42
0.0000000001
 43
0.0000000001
 40
0.0
 40
0.0
 40
0.0
 40
0.0
 40
1.0
 40
1.0
 40
1.0
 40
1.0
 10
113.2268527277697
 20
-125.2495469521946
 30
0.0
 10
108.0306152073673
 20
-124.938110320328
 30
0.0
 10
100.9948689526159
 20
-125.037845834626
 30
0.0
 10
93.20533580569173
 20
-129.0367404191297
 30
0.0
  0
SPLINE
  5
1FC
330
1F
100
AcDbEntity
  8
VALLEYLINE
  6
AI-LINETYPE-53
 62
   250
100
AcDbSpline
210
0.0
220
0.0
230
1.0
 70
     8
 71
     3
 72
     8
 73
     4
 74
     0
 42
0.0000000001
 43
0.0000000001
 40
0.0
 40
0.0
 40
0.0
 40
0.0
 40
1.0
 40
1.0
 40
1.0
 40
1.0
 10
93.20533580569173
 20
-129.0367404191297
 30
0.0
 10
90.33729381422124
 20
-133.3806613164812
 30
0.0
 10
86.90528969181536
 20
-139.5243000953273
 30
0.0
 10
86.47361922751354
 20
-148.2691582203112
 30
0.0
  0
SPLINE
  5
1FE
330
1F
100
AcDbEntity
  8
VALLEYLINE
  6
AI-LINETYPE-54
 62
   250
100
AcDbSpline
210
0.0
220
0.0
230
1.0
 70
     8
 71
     3
 72
     8
 73
     4
 74
     0
 42
0.0000000001
 43
0.0000000001
 40
0.0
 40
0.0
 40
0.0
 40
0.0
 40
1.0
 40
1.0
 40
1.0
 40
1.0
 10
86.47361922751354
 20
-148.2691582203112
 30
0.0
 10
88.80181475644538
 20
-152.9250325138521
 30
0.0
 10
92.40572914356524
 20
-158.9687635236259
 30
0.0
 10
99.76359182618758
 20
-163.7150715736546
 30
0.0
  0
SPLINE
  5
200
330
1F
100
AcDbEntity
  8
VALLEYLINE
  6
AI-LINETYPE-55
 62
   250
100
AcDbSpline
210
0.0
220
0.0
230
1.0
 70
     8
 71
     3
 72
     8
 73
     4
 74
     0
 42
0.0000000001
 43
0.0000000001
 40
0.0
 40
0.0
 40
0.0
 40
0.0
 40
1.0
 40
1.0
 40
1.0
 40
1.0
 10
146.2932237047461
 20
-213.0164550248709
 30
0.0
 10
137.2949788068221
 20
-211.7789767265691
 30
0.0
 10
130.8333577146875
 20
-211.0909911581648
 30
0.0
 10
125.3229274860304
 20
-209.3205565882949
 30
0.0
  0
SPLINE
  5
202
330
1F
100
AcDbEntity
  8
VALLEYLINE
  6
AI-LINETYPE-56
 62
   250
100
AcDbSpline
210
0.0
220
0.0
230
1.0
 70
     8
 71
     3
 72
     8
 73
     4
 74
     0
 42
0.0000000001
 43
0.0000000001
 40
0.0
 40
0.0
 40
0.0
 40
0.0
 40
1.0
 40
1.0
 40
1.0
 40
1.0
 10
185.7457681827302
 20
-144.2838717629742
 30
0.0
 10
180.1750487830813
 20
-151.4577663466842
 30
0.0
 10
176.3489257371628
 20
-156.7098144139476
 30
0.0
 10
172.0608153866723
 20
-160.5972601595035
 30
0.0
  0
SPLINE
  5
204
330
1F
100
AcDbEntity
  8
VALLEYLINE
  6
AI-LINETYPE-57
 62
   250
100
AcDbSpline
210
0.0
220
0.0
230
1.0
 70
     8
 71
     3
 72
     8
 73
     4
 74
     0
 42
0.0000000001
 43
0.0000000001
 40
0.0
 40
0.0
 40
0.0
 40
0.0
 40
1.0
 40
1.0
 40
1.0
 40
1.0
 10
145.9487141562212
 20
-75.74989825580211
 30
0.0
 10
149.3758951449477
 20
-84.16144339258811
 30
0.0
 10
152.0117377007124
 20
-90.10078800915883
 30
0.0
 10
153.2344020884275
 20
-95.7588405793589
 30
0.0
  0
SPLINE
  5
206
330
1F
100
AcDbEntity
  8
VALLEYLINE
  6
AI-LINETYPE-58
 62
   250
100
AcDbSpline
210
0.0
220
0.0
230
1.0
 70
     8
 71
     3
 72
     8
 73
     4
 74
     0
 42
0.0000000001
 43
0.0000000001
 40
0.0
 40
0.0
 40
0.0
 40
0.0
 40
1.0
 40
1.0
 40
1.0
 40
1.0
 10
66.6977376135339
 20
-75.94885252007529
 30
0.0
 10
75.69581025668369
 20
-77.18633081837703
 30
0.0
 10
82.15743134881828
 20
-77.87345511291011
 30
0.0
 10
87.66837834179819
 20
-79.64423419232853
 30
0.0
  0
SPLINE
  5
208
330
1F
100
AcDbEntity
  8
VALLEYLINE
  6
AI-LINETYPE-59
 62
   250
100
AcDbSpline
210
0.0
220
0.0
230
1.0
 70
     8
 71
     3
 72
     8
 73
     4
 74
     0
 42
0.0000000001
 43
0.0000000001
 40
0.0
 40
0.0
 40
0.0
 40
0.0
 40
1.0
 40
1.0
 40
1.0
 40
1.0
 10
27.24484862600129
 20
-144.6809190176492
 30
0.0
 10
32.81522351610175
 20
-137.5066799243907
 30
0.0
 10
36.64134656202022
 20
-132.2553208762244
 30
0.0
 10
40.93014593160774
 20
-128.3677028758942
 30
0.0
  0
SPLINE
  5
20A
330
1F
100
AcDbEntity
  8
VALLEYLINE
  6
AI-LINETYPE-60
 62
   250
100
AcDbSpline
210
0.0
220
0.0
230
1.0
 70
     8
 71
     3
 72
     8
 73
     4
 74
     0
 42
0.0000000001
 43
0.0000000001
 40
0.0
 40
0.0
 40
0.0
 40
0.0
 40
1.0
 40
1.0
 40
1.0
 40
1.0
 10
67.04224716205889
 20
-213.2148925248213
 30
0.0
 10
63.61454940900956
 20
-204.8036918975838
 30
0.0
 10
60.97887910801917
 20
-198.8643472810131
 30
0.0
 10
59.75707599417532
 20
-193.2064669655873
 30
0.0
  0
INSERT
  5
20E
330
1F
100
AcDbEntity
  8
MOUNTAINLINE
100
AcDbBlockReference
  2
BLOCK_50
 10
0.0
 20
0.0
 30
0.0
  0
INSERT
  5
216
330
1F
100
AcDbEntity
  8
MOUNTAINLINE
100
AcDbBlockReference
  2
BLOCK_51
 10
0.0
 20
0.0
 30
0.0
  0
INSERT
  5
21E
330
1F
100
AcDbEntity
  8
MOUNTAINLINE
100
AcDbBlockReference
  2
BLOCK_52
 10
0.0
 20
0.0
 30
0.0
  0
INSERT
  5
226
330
1F
100
AcDbEntity
  8
MOUNTAINLINE
100
AcDbBlockReference
  2
BLOCK_53
 10
0.0
 20
0.0
 30
0.0
  0
INSERT
  5
22E
330
1F
100
AcDbEntity
  8
MOUNTAINLINE
100
AcDbBlockReference
  2
BLOCK_54
 10
0.0
 20
0.0
 30
0.0
  0
INSERT
  5
236
330
1F
100
AcDbEntity
  8
MOUNTAINLINE
100
AcDbBlockReference
  2
BLOCK_55
 10
0.0
 20
0.0
 30
0.0
  0
INSERT
  5
23E
330
1F
100
AcDbEntity
  8
MOUNTAINLINE
100
AcDbBlockReference
  2
BLOCK_56
 10
0.0
 20
0.0
 30
0.0
  0
INSERT
  5
246
330
1F
100
AcDbEntity
  8
MOUNTAINLINE
100
AcDbBlockReference
  2
BLOCK_57
 10
0.0
 20
0.0
 30
0.0
  0
INSERT
  5
24E
330
1F
100
AcDbEntity
  8
MOUNTAINLINE
100
AcDbBlockReference
  2
BLOCK_58
 10
0.0
 20
0.0
 30
0.0
  0
INSERT
  5
256
330
1F
100
AcDbEntity
  8
MOUNTAINLINE
100
AcDbBlockReference
  2
BLOCK_59
 10
0.0
 20
0.0
 30
0.0
  0
INSERT
  5
25E
330
1F
100
AcDbEntity
  8
MOUNTAINLINE
100
AcDbBlockReference
  2
BLOCK_60
 10
0.0
 20
0.0
 30
0.0
  0
INSERT
  5
266
330
1F
100
AcDbEntity
  8
MOUNTAINLINE
100
AcDbBlockReference
  2
BLOCK_61
 10
0.0
 20
0.0
 30
0.0
  0
INSERT
  5
26E
330
1F
100
AcDbEntity
  8
MOUNTAINLINE
100
AcDbBlockReference
  2
BLOCK_62
 10
0.0
 20
0.0
 30
0.0
  0
INSERT
  5
276
330
1F
100
AcDbEntity
  8
MOUNTAINLINE
100
AcDbBlockReference
  2
BLOCK_63
 10
0.0
 20
0.0
 30
0.0
  0
INSERT
  5
27E
330
1F
100
AcDbEntity
  8
MOUNTAINLINE
100
AcDbBlockReference
  2
BLOCK_64
 10
0.0
 20
0.0
 30
0.0
  0
INSERT
  5
286
330
1F
100
AcDbEntity
  8
MOUNTAINLINE
100
AcDbBlockReference
  2
BLOCK_65
 10
0.0
 20
0.0
 30
0.0
  0
INSERT
  5
28E
330
1F
100
AcDbEntity
  8
MOUNTAINLINE
100
AcDbBlockReference
  2
BLOCK_66
 10
0.0
 20
0.0
 30
0.0
  0
INSERT
  5
296
330
1F
100
AcDbEntity
  8
MOUNTAINLINE
100
AcDbBlockReference
  2
BLOCK_67
 10
0.0
 20
0.0
 30
0.0
  0
INSERT
  5
29E
330
1F
100
AcDbEntity
  8
MOUNTAINLINE
100
AcDbBlockReference
  2
BLOCK_68
 10
0.0
 20
0.0
 30
0.0
  0
INSERT
  5
2A6
330
1F
100
AcDbEntity
  8
MOUNTAINLINE
100
AcDbBlockReference
  2
BLOCK_69
 10
0.0
 20
0.0
 30
0.0
  0
INSERT
  5
2AE
330
1F
100
AcDbEntity
  8
MOUNTAINLINE
100
AcDbBlockReference
  2
BLOCK_70
 10
0.0
 20
0.0
 30
0.0
  0
INSERT
  5
2B6
330
1F
100
AcDbEntity
  8
MOUNTAINLINE
100
AcDbBlockReference
  2
BLOCK_71
 10
0.0
 20
0.0
 30
0.0
  0
INSERT
  5
2BE
330
1F
100
AcDbEntity
  8
MOUNTAINLINE
100
AcDbBlockReference
  2
BLOCK_72
 10
0.0
 20
0.0
 30
0.0
  0
INSERT
  5
2C6
330
1F
100
AcDbEntity
  8
MOUNTAINLINE
100
AcDbBlockReference
  2
BLOCK_73
 10
0.0
 20
0.0
 30
0.0
  0
INSERT
  5
2CE
330
1F
100
AcDbEntity
  8
MOUNTAINLINE
100
AcDbBlockReference
  2
BLOCK_74
 10
0.0
 20
0.0
 30
0.0
  0
INSERT
  5
2D6
330
1F
100
AcDbEntity
  8
MOUNTAINLINE
100
AcDbBlockReference
  2
BLOCK_75
 10
0.0
 20
0.0
 30
0.0
  0
INSERT
  5
2DE
330
1F
100
AcDbEntity
  8
MOUNTAINLINE
100
AcDbBlockReference
  2
BLOCK_76
 10
0.0
 20
0.0
 30
0.0
  0
INSERT
  5
2E6
330
1F
100
AcDbEntity
  8
MOUNTAINLINE
100
AcDbBlockReference
  2
BLOCK_77
 10
0.0
 20
0.0
 30
0.0
  0
INSERT
  5
2EE
330
1F
100
AcDbEntity
  8
MOUNTAINLINE
100
AcDbBlockReference
  2
BLOCK_78
 10
0.0
 20
0.0
 30
0.0
  0
INSERT
  5
2F6
330
1F
100
AcDbEntity
  8
MOUNTAINLINE
100
AcDbBlockReference
  2
BLOCK_79
 10
0.0
 20
0.0
 30
0.0
  0
INSERT
  5
2FE
330
1F
100
AcDbEntity
  8
MOUNTAINLINE
100
AcDbBlockReference
  2
BLOCK_80
 10
0.0
 20
0.0
 30
0.0
  0
INSERT
  5
306
330
1F
100
AcDbEntity
  8
MOUNTAINLINE
100
AcDbBlockReference
  2
BLOCK_81
 10
0.0
 20
0.0
 30
0.0
  0
INSERT
  5
30E
330
1F
100
AcDbEntity
  8
MOUNTAINLINE
100
AcDbBlockReference
  2
BLOCK_82
 10
0.0
 20
0.0
 30
0.0
  0
INSERT
  5
316
330
1F
100
AcDbEntity
  8
MOUNTAINLINE
100
AcDbBlockReference
  2
BLOCK_83
 10
0.0
 20
0.0
 30
0.0
  0
INSERT
  5
31E
330
1F
100
AcDbEntity
  8
MOUNTAINLINE
100
AcDbBlockReference
  2
BLOCK_84
 10
0.0
 20
0.0
 30
0.0
  0
INSERT
  5
326
330
1F
100
AcDbEntity
  8
MOUNTAINLINE
100
AcDbBlockReference
  2
BLOCK_85
 10
0.0
 20
0.0
 30
0.0
  0
SPLINE
  5
32D
330
1F
100
AcDbEntity
  8
MOUNTAINLINE
 62
   250
100
AcDbSpline
210
0.0
220
0.0
230
1.0
 70
     8
 71
     3
 72
     8
 73
     4
 74
     0
 42
0.0000000001
 43
0.0000000001
 40
0.0
 40
0.0
 40
0.0
 40
0.0
 40
1.0
 40
1.0
 40
1.0
 40
1.0
 10
185.7457681827302
 20
-144.2838717629742
 30
0.0
 10
172.456312348379
 20
-150.4452527835693
 30
0.0
 10
165.4927408440435
 20
-154.2462266324454
 30
0.0
 10
155.5519178213551
 20
-153.5151773704754
 30
0.0
  0
SPLINE
  5
32E
330
1F
100
AcDbEntity
  8
MOUNTAINLINE
 62
   250
100
AcDbSpline
210
0.0
220
0.0
230
1.0
 70
     8
 71
     3
 72
     8
 73
     4
 74
     0
 42
0.0000000001
 43
0.0000000001
 40
0.0
 40
0.0
 40
0.0
 40
0.0
 40
1.0
 40
1.0
 40
1.0
 40
1.0
 10
121.9412217577091
 20
-131.1928534285733
 30
0.0
 10
133.922574836311
 20
-139.62059051414
 30
0.0
 10
140.6963215794093
 20
-143.7510877461803
 30
0.0
 10
145.0330077762418
 20
-152.7259059948046
 30
0.0
  0
SPLINE
  5
32F
330
1F
100
AcDbEntity
  8
MOUNTAINLINE
 62
   250
100
AcDbSpline
210
0.0
220
0.0
230
1.0
 70
     8
 71
     3
 72
     8
 73
     4
 74
     0
 42
0.0000000001
 43
0.0000000001
 40
0.0
 40
0.0
 40
0.0
 40
0.0
 40
1.0
 40
1.0
 40
1.0
 40
1.0
 10
142.506719256908
 20
-192.9945935932444
 30
0.0
 10
143.8151665222059
 20
-178.4049587227599
 30
0.0
 10
144.0056803025402
 20
-170.4726263679721
 30
0.0
 10
149.6091281092991
 20
-162.2298909099634
 30
0.0
  0
SPLINE
  5
330
330
1F
100
AcDbEntity
  8
MOUNTAINLINE
 62
   250
100
AcDbSpline
210
0.0
220
0.0
230
1.0
 70
     8
 71
     3
 72
     8
 73
     4
 74
     0
 42
0.0000000001
 43
0.0000000001
 40
0.0
 40
0.0
 40
0.0
 40
0.0
 40
1.0
 40
1.0
 40
1.0
 40
1.0
 10
125.7277262055472
 20
-151.214198095877
 30
0.0
 10
124.4196234497979
 20
-165.8045219854586
 30
0.0
 10
124.2291096694636
 20
-173.7361653211493
 30
0.0
 10
118.6249728436077
 20
-181.9789007791581
 30
0.0
  0
SPLINE
  5
331
330
1F
100
AcDbEntity
  8
MOUNTAINLINE
 62
   250
100
AcDbSpline
210
0.0
220
0.0
230
1.0
 70
     8
 71
     3
 72
     8
 73
     4
 74
     0
 42
0.0000000001
 43
0.0000000001
 40
0.0
 40
0.0
 40
0.0
 40
0.0
 40
1.0
 40
1.0
 40
1.0
 40
1.0
 10
82.48816051540227
 20
-199.92543669047
 30
0.0
 10
95.77761634975352
 20
-193.7628498864551
 30
0.0
 10
102.7420491279603
 20
-189.9622205471275
 30
0.0
 10
112.6828721506487
 20
-190.693614318646
 30
0.0
  0
SPLINE
  5
332
330
1F
100
AcDbEntity
  8
MOUNTAINLINE
 62
   250
100
AcDbSpline
210
0.0
220
0.0
230
1.0
 70
     8
 71
     3
 72
     8
 73
     4
 74
     0
 42
0.0000000001
 43
0.0000000001
 40
0.0
 40
0.0
 40
0.0
 40
0.0
 40
1.0
 40
1.0
 40
1.0
 40
1.0
 10
146.2932237047461
 20
-213.0164550248709
 30
0.0
 10
134.3122151356928
 20
-204.5876844106587
 30
0.0
 10
127.538123883046
 20
-200.4573594333926
 30
0.0
 10
123.201093176665
 20
-191.4821966752197
 30
0.0
  0
SPLINE
  5
333
330
1F
100
AcDbEntity
  8
MOUNTAINLINE
 62
   250
100
AcDbSpline
210
0.0
220
0.0
230
1.0
 70
     8
 71
     3
 72
     8
 73
     4
 74
     0
 42
0.0000000001
 43
0.0000000001
 40
0.0
 40
0.0
 40
0.0
 40
0.0
 40
1.0
 40
1.0
 40
1.0
 40
1.0
 10
46.47692191763424
 20
-151.4129801053759
 30
0.0
 10
58.45827499623613
 20
-159.8407171909426
 30
0.0
 10
65.2318494845601
 20
-163.9713866777572
 30
0.0
 10
69.5693969552639
 20
-172.9468939454786
 30
0.0
  0
SPLINE
  5
334
330
1F
100
AcDbEntity
  8
MOUNTAINLINE
 62
   250
100
AcDbSpline
210
0.0
220
0.0
230
1.0
 70
     8
 71
     3
 72
     8
 73
     4
 74
     0
 42
0.0000000001
 43
0.0000000001
 40
0.0
 40
0.0
 40
0.0
 40
0.0
 40
1.0
 40
1.0
 40
1.0
 40
1.0
 10
67.04224716205889
 20
-213.2148925248213
 30
0.0
 10
68.35052217258252
 20
-198.6249131447882
 30
0.0
 10
68.54120820769108
 20
-190.693614318646
 30
0.0
 10
74.1448282692242
 20
-182.4501898415402
 30
0.0
  0
SPLINE
  5
335
330
1F
100
AcDbEntity
  8
MOUNTAINLINE
 62
   250
100
AcDbSpline
210
0.0
220
0.0
230
1.0
 70
     8
 71
     3
 72
     8
 73
     4
 74
     0
 42
0.0000000001
 43
0.0000000001
 40
0.0
 40
0.0
 40
0.0
 40
0.0
 40
1.0
 40
1.0
 40
1.0
 40
1.0
 10
110.2823296165266
 20
-164.5039984397768
 30
0.0
 10
96.99235701785261
 20
-170.6652072055976
 30
0.0
 10
90.0279242396458
 20
-174.4672145831193
 30
0.0
 10
80.08692896218314
 20
-173.7361653211493
 30
0.0
  0
SPLINE
  5
336
330
1F
100
AcDbEntity
  8
MOUNTAINLINE
 62
   250
100
AcDbSpline
210
0.0
220
0.0
230
1.0
 70
     8
 71
     3
 72
     8
 73
     4
 74
     0
 42
0.0000000001
 43
0.0000000001
 40
0.0
 40
0.0
 40
0.0
 40
0.0
 40
1.0
 40
1.0
 40
1.0
 40
1.0
 10
27.24450411645276
 20
-144.6817802915205
 30
0.0
 10
40.53413220557827
 20
-138.5193657422799
 30
0.0
 10
47.4980482194623
 20
-134.7183918934037
 30
0.0
 10
57.43921575169923
 20
-135.449613410148
 30
0.0
  0
SPLINE
  5
337
330
1F
100
AcDbEntity
  8
MOUNTAINLINE
 62
   250
100
AcDbSpline
210
0.0
220
0.0
230
1.0
 70
     8
 71
     3
 72
     8
 73
     4
 74
     0
 42
0.0000000001
 43
0.0000000001
 40
0.0
 40
0.0
 40
0.0
 40
0.0
 40
1.0
 40
1.0
 40
1.0
 40
1.0
 10
91.0497395605709
 20
-157.7722818615986
 30
0.0
 10
79.06855873674328
 20
-149.3445447760319
 30
0.0
 10
72.29446748409653
 20
-145.2137030344431
 30
0.0
 10
67.9574367777155
 20
-136.2388847858188
 30
0.0
  0
SPLINE
  5
338
330
1F
100
AcDbEntity
  8
MOUNTAINLINE
 62
   250
100
AcDbSpline
210
0.0
220
0.0
230
1.0
 70
     8
 71
     3
 72
     8
 73
     4
 74
     0
 42
0.0000000001
 43
0.0000000001
 40
0.0
 40
0.0
 40
0.0
 40
0.0
 40
1.0
 40
1.0
 40
1.0
 40
1.0
 10
70.484242061372
 20
-95.97019718737899
 30
0.0
 10
69.17562254129984
 20
-110.560176567412
 30
0.0
 10
68.98545327051406
 20
-118.4918199031028
 30
0.0
 10
63.38166095420667
 20
-126.7355888897571
 30
0.0
  0
SPLINE
  5
339
330
1F
100
AcDbEntity
  8
MOUNTAINLINE
 62
   250
100
AcDbSpline
210
0.0
220
0.0
230
1.0
 70
     8
 71
     3
 72
     8
 73
     4
 74
     0
 42
0.0000000001
 43
0.0000000001
 40
0.0
 40
0.0
 40
0.0
 40
0.0
 40
1.0
 40
1.0
 40
1.0
 40
1.0
 10
175.2278916662625
 20
-143.4946003873034
 30
0.0
 10
161.1746581628313
 20
-143.702339645064
 30
0.0
 10
130.6555907876486
 20
-137.1344373572095
 30
0.0
 10
121.9412217577091
 20
-131.1928534285733
 30
0.0
  0
SPLINE
  5
33A
330
1F
100
AcDbEntity
  8
MOUNTAINLINE
 62
   250
100
AcDbSpline
210
0.0
220
0.0
230
1.0
 70
     8
 71
     3
 72
     8
 73
     4
 74
     0
 42
0.0000000001
 43
0.0000000001
 40
0.0
 40
0.0
 40
0.0
 40
0.0
 40
1.0
 40
1.0
 40
1.0
 40
1.0
 10
72.9843478550178
 20
-204.5008680044303
 30
0.0
 10
79.83130287717759
 20
-192.2270263191307
 30
0.0
 10
100.7783447013679
 20
-169.0794297537371
 30
0.0
 10
110.2823296165266
 20
-164.5039984397768
 30
0.0
  0
SPLINE
  5
33B
330
1F
100
AcDbEntity
  8
MOUNTAINLINE
 62
   250
100
AcDbSpline
210
0.0
220
0.0
230
1.0
 70
     8
 71
     3
 72
     8
 73
     4
 74
     0
 42
0.0000000001
 43
0.0000000001
 40
0.0
 40
0.0
 40
0.0
 40
0.0
 40
1.0
 40
1.0
 40
1.0
 40
1.0
 10
141.7171033716888
 20
-203.5131591288092
 30
0.0
 10
134.5103081260947
 20
-191.4460231726246
 30
0.0
 10
124.938110320328
 20
-161.7317301027962
 30
0.0
 10
125.7277262055472
 20
-151.214198095877
 30
0.0
  0
SPLINE
  5
33C
330
1F
100
AcDbEntity
  8
MOUNTAINLINE
 62
   250
100
AcDbSpline
210
0.0
220
0.0
230
1.0
 70
     8
 71
     3
 72
     8
 73
     4
 74
     0
 42
0.0000000001
 43
0.0000000001
 40
0.0
 40
0.0
 40
0.0
 40
0.0
 40
1.0
 40
1.0
 40
1.0
 40
1.0
 10
37.76272514246904
 20
-145.4703626480942
 30
0.0
 10
51.81630315544871
 20
-145.2626233903337
 30
0.0
 10
82.33468151153438
 20
-151.8301811686397
 30
0.0
 10
91.0497395605709
 20
-157.7722818615986
 30
0.0
  0
SPLINE
  5
33D
330
1F
100
AcDbEntity
  8
MOUNTAINLINE
 62
   250
100
AcDbSpline
210
0.0
220
0.0
230
1.0
 70
     8
 71
     3
 72
     8
 73
     4
 74
     0
 42
0.0000000001
 43
0.0000000001
 40
0.0
 40
0.0
 40
0.0
 40
0.0
 40
1.0
 40
1.0
 40
1.0
 40
1.0
 10
140.0062689537137
 20
-84.46392277619304
 30
0.0
 10
133.1591416767797
 20
-96.73897024491248
 30
0.0
 10
112.2119275978151
 20
-119.885188772112
 30
0.0
 10
102.7088039565277
 20
-124.4606200860724
 30
0.0
  0
SPLINE
  5
33E
330
1F
100
AcDbEntity
  8
MOUNTAINLINE
 62
   250
100
AcDbSpline
210
0.0
220
0.0
230
1.0
 70
     8
 71
     3
 72
     8
 73
     4
 74
     0
 42
0.0000000001
 43
0.0000000001
 40
0.0
 40
0.0
 40
0.0
 40
0.0
 40
1.0
 40
1.0
 40
1.0
 40
1.0
 10
71.27385794659126
 20
-85.45214841613696
 30
0.0
 10
78.48030868263687
 20
-97.51928437232158
 30
0.0
 10
88.05216197885503
 20
-127.2327161682786
 30
0.0
 10
87.26289060318427
 20
-137.7511094490692
 30
0.0
  0
SPLINE
  5
33F
330
1F
100
AcDbEntity
  8
MOUNTAINLINE
 62
   250
100
AcDbSpline
210
0.0
220
0.0
230
1.0
 70
     8
 71
     3
 72
     8
 73
     4
 74
     0
 42
0.0000000001
 43
0.0000000001
 40
0.0
 40
0.0
 40
0.0
 40
0.0
 40
1.0
 40
1.0
 40
1.0
 40
1.0
 10
87.26289060318427
 20
-137.7511094490692
 30
0.0
 10
88.5711656137079
 20
-123.1607855594876
 30
0.0
 10
88.76167939404222
 20
-115.2293144785712
 30
0.0
 10
94.36529945557534
 20
-106.9858900014653
 30
0.0
  0
SPLINE
  5
340
330
1F
100
AcDbEntity
  8
MOUNTAINLINE
 62
   250
100
AcDbSpline
210
0.0
220
0.0
230
1.0
 70
     8
 71
     3
 72
     8
 73
     4
 74
     0
 42
0.0000000001
 43
0.0000000001
 40
0.0
 40
0.0
 40
0.0
 40
0.0
 40
1.0
 40
1.0
 40
1.0
 40
1.0
 10
130.502973057652
 20
-89.03987085447615
 30
0.0
 10
117.2131727137523
 20
-95.201768639394
 30
0.0
 10
110.2492566998682
 20
-99.00274248827016
 30
0.0
 10
100.3080891676313
 20
-98.27134871675162
 30
0.0
  0
SPLINE
  5
341
330
1F
100
AcDbEntity
  8
MOUNTAINLINE
 62
   250
100
AcDbSpline
210
0.0
220
0.0
230
1.0
 70
     8
 71
     3
 72
     8
 73
     4
 74
     0
 42
0.0000000001
 43
0.0000000001
 40
0.0
 40
0.0
 40
0.0
 40
0.0
 40
1.0
 40
1.0
 40
1.0
 40
1.0
 10
66.6977376135339
 20
-75.94885252007529
 30
0.0
 10
78.67874618258726
 20
-84.3769341151905
 30
0.0
 10
85.45249292568549
 20
-88.50760360200505
 30
0.0
 10
89.78969588684078
 20
-97.48224959585514
 30
0.0
  0
SPLINE
  5
342
330
1F
100
AcDbEntity
  8
MOUNTAINLINE
 62
   250
100
AcDbSpline
210
0.0
220
0.0
230
1.0
 70
     8
 71
     3
 72
     8
 73
     4
 74
     0
 42
0.0000000001
 43
0.0000000001
 40
0.0
 40
0.0
 40
0.0
 40
0.0
 40
1.0
 40
1.0
 40
1.0
 40
1.0
 10
166.513522636323
 20
-137.5523274395703
 30
0.0
 10
154.5325140672697
 20
-129.123556825358
 30
0.0
 10
147.7587673241714
 20
-124.993231848092
 30
0.0
 10
143.4217366177904
 20
-116.0184135994676
 30
0.0
  0
SPLINE
  5
343
330
1F
100
AcDbEntity
  8
MOUNTAINLINE
 62
   250
100
AcDbSpline
210
0.0
220
0.0
230
1.0
 70
     8
 71
     3
 72
     8
 73
     4
 74
     0
 42
0.0000000001
 43
0.0000000001
 40
0.0
 40
0.0
 40
0.0
 40
0.0
 40
1.0
 40
1.0
 40
1.0
 40
1.0
 10
145.9487141562212
 20
-75.74989825580211
 30
0.0
 10
144.6406114004718
 20
-90.33970538106091
 30
0.0
 10
144.4497531105889
 20
-98.27134871675162
 30
0.0
 10
138.8463053038301
 20
-106.5149454486317
 30
0.0
  0
SPLINE
  5
344
330
1F
100
AcDbEntity
  8
MOUNTAINLINE
 62
   250
100
AcDbSpline
210
0.0
220
0.0
230
1.0
 70
     8
 71
     3
 72
     8
 73
     4
 74
     0
 42
0.0000000001
 43
0.0000000001
 40
0.0
 40
0.0
 40
0.0
 40
0.0
 40
1.0
 40
1.0
 40
1.0
 40
1.0
 10
102.7088039565277
 20
-124.4609645956209
 30
0.0
 10
115.9980875361046
 20
-118.2994113202515
 30
0.0
 10
122.9623480595372
 20
-114.4982652166011
 30
0.0
 10
132.9035155917741
 20
-115.2294867333454
 30
0.0
  0
MTEXT
  5
346
330
1F
100
AcDbEntity
  8
TEXT
 62
     7
100
AcDbMText
 10
152.5092094887824
 20
-287.6096624715004
 30
0.0
 40
3.358444443604833
 41
0.0
 71
     7
 72
     1
  1
\fArial|b0|i0|c0|p34;\W1;(c) 2016 Jun Mitani
  0
MTEXT
  5
347
330
1F
100
AcDbEntity
  8
TEXT
 62
     7
100
AcDbMText
 10
11.1872585692518
 20
-14.85542398717156
 30
0.0
 40
4.3179999989205
 41
0.0
 71
     7
 72
     1
  1
\fArial|b0|i0|c0|p34;\W1;Six Blade Pinwheel
  0
ENDSEC
  0
SECTION
  2
OBJECTS
  0
DICTIONARY
  5
C
330
0
100
AcDbDictionary
  3
ACAD_GROUP
350
D
  3
ACAD_LAYOUT
350
1A
  3
ACAD_MLINESTYLE
350
17
  3
ACAD_PLOTSETTINGS
350
19
  3
ACAD_TABLESTYLE
350
348
  3
ACAD_VISUALSTYLE
350
2A
1001
ACAD
1000
TREAT_AS_HARD
1070
     0
  0
DICTIONARY
  5
D
102
{ACAD_REACTORS
330
C
102
}
330
C
100
AcDbDictionary
1001
ACAD
1000
TREAT_AS_HARD
1070
     0
  0
DICTIONARY
  5
1A
102
{ACAD_REACTORS
330
C
102
}
330
C
100
AcDbDictionary
1001
ACAD
1000
TREAT_AS_HARD
1070
     0
  0
DICTIONARY
  5
17
102
{ACAD_REACTORS
330
C
102
}
330
C
100
AcDbDictionary
  3
STANDARD
350
18
1001
ACAD
1000
TREAT_AS_HARD
1070
     0
  0
DICTIONARY
  5
19
102
{ACAD_REACTORS
330
C
102
}
330
C
100
AcDbDictionary
1001
ACAD
1000
TREAT_AS_HARD
1070
     0
  0
DICTIONARY
  5
348
102
{ACAD_REACTORS
330
C
102
}
330
C
100
AcDbDictionary
1001
ACAD
1000
TREAT_AS_HARD
1070
     0
  0
DICTIONARY
  5
2A
102
{ACAD_REACTORS
330
C
102
}
330
C
100
AcDbDictionary
  3
2DWIREFRAME
350
2F
  3
3D_HIDDEN
350
31
  3
3DWIREFRAME
350
30
  3
BASIC
350
32
  3
BRIGHTEN
350
36
  3
COLORCHANGE
350
3A
  3
CONCEPTUAL
350
34
  3
DIM
350
35
  3
FACEPATTERN
350
39
  3
FLAT
350
2B
  3
FLATWITHEDGES
350
2C
  3
GOURAUD
350
2D
  3
GOURAUDWITHEDGES
350
2E
  3
LINEPATTERN
350
38
  3
REALISTIC
350
33
  3
THICKEN
350
37
1001
ACAD
1000
TREAT_AS_HARD
1070
     0
  0
MLINESTYLE
  5
18
102
{ACAD_REACTORS
330
17
102
}
330
17
100
AcDbMlineStyle
  2
Standard
 70
     0
  3

 62
   256
 51
90.0
 52
90.0
 71
     2
 49
0.5
 62
   256
  6
BYLAYER
 49
-0.5
 62
   256
  6
BYLAYER
  0
VISUALSTYLE
  5
2F
102
{ACAD_REACTORS
330
2A
102
}
330
2A
100
AcDbVisualStyle
  2
2dWireframe
 70
     4
 71
     0
 72
     2
 73
     0
 90
        0
 40
-0.6
 41
-30.0
 62
     5
 63
     7
 74
     1
 91
        4
 64
     7
 65
   257
 75
     1
175
     1
 42
1.0
 92
        0
 66
   257
 43
1.0
 76
     1
 77
     6
 78
     2
 67
     7
 79
     5
170
     0
171
     0
290
     0
174
     0
 93
        1
 44
0.0
173
     0
291
     0
 45
0.0
1001
ACAD
1000
AcDbSavedByObjectVersion
1070
     0
  0
VISUALSTYLE
  5
31
102
{ACAD_REACTORS
330
2A
102
}
330
2A
100
AcDbVisualStyle
  2
3D Hidden
 70
     6
 71
     1
 72
     2
 73
     2
 90
        0
 40
-0.6
 41
-30.0
 62
     5
 63
     7
 74
     2
 91
        2
 64
     7
 65
   257
 75
     2
175
     1
 42
40.0
 92
        0
 66
   257
 43
1.0
 76
     1
 77
     6
 78
     2
 67
     7
 79
     3
170
     0
171
     0
290
     0
174
     0
 93
        1
 44
0.0
173
     0
291
     0
 45
0.0
1001
ACAD
1000
AcDbSavedByObjectVersion
1070
     0
  0
VISUALSTYLE
  5
30
102
{ACAD_REACTORS
330
2A
102
}
330
2A
100
AcDbVisualStyle
  2
3dWireframe
 70
     5
 71
     0
 72
     2
 73
     0
 90
        0
 40
-0.6
 41
-30.0
 62
     5
 63
     7
 74
     1
 91
        4
 64
     7
 65
   257
 75
     1
175
     1
 42
1.0
 92
        0
 66
   257
 43
1.0
 76
     1
 77
     6
 78
     2
 67
     7
 79
     5
170
     0
171
     0
290
     0
174
     0
 93
        1
 44
0.0
173
     0
291
     0
 45
0.0
1001
ACAD
1000
AcDbSavedByObjectVersion
1070
     0
  0
VISUALSTYLE
  5
32
102
{ACAD_REACTORS
330
2A
102
}
330
2A
100
AcDbVisualStyle
  2
Basic
 70
     7
 71
     1
 72
     0
 73
     1
 90
        0
 40
-0.6
 41
-30.0
 62
     5
 63
     7
 74
     0
 91
        4
 64
     7
 65
   257
 75
     1
175
     1
 42
1.0
 92
        8
 66
     7
 43
1.0
 76
     1
 77
     6
 78
     2
 67
     7
 79
     5
170
     0
171
     0
290
     0
174
     0
 93
        1
 44
0.0
173
     0
291
     1
 45
0.0
1001
ACAD
1000
AcDbSavedByObjectVersion
1070
     0
  0
VISUALSTYLE
  5
36
102
{ACAD_REACTORS
330
2A
102
}
330
2A
100
AcDbVisualStyle
  2
Brighten
 70
    12
 71
     2
 72
     2
 73
     0
 90
        0
 40
-0.6
 41
-30.0
 62
     5
 63
     7
 74
     1
 91
        4
 64
     7
 65
   257
 75
     1
175
     1
 42
1.0
 92
        8
 66
     7
 43
1.0
 76
     1
 77
     6
 78
     2
 67
     7
 79
     5
170
     0
171
     0
290
     0
174
     0
 93
        1
 44
50.0
173
     0
291
     1
 45
0.0
1001
ACAD
1000
AcDbSavedByObjectVersion
1070
     0
  0
VISUALSTYLE
  5
3A
102
{ACAD_REACTORS
330
2A
102
}
330
2A
100
AcDbVisualStyle
  2
ColorChange
 70
    16
 71
     2
 72
     2
 73
     3
 90
        0
 40
-0.6
 41
-30.0
 62
     5
 63
     8
 74
     1
 91
        4
 64
     7
 65
   257
 75
     1
175
     1
 42
1.0
 92
        8
 66
     8
 43
1.0
 76
     1
 77
     6
 78
     2
 67
     7
 79
     5
170
     0
171
     0
290
     0
174
     0
 93
        1
 44
0.0
173
     0
291
     1
 45
0.0
1001
ACAD
1000
AcDbSavedByObjectVersion
1070
     0
  0
VISUALSTYLE
  5
34
102
{ACAD_REACTORS
330
2A
102
}
330
2A
100
AcDbVisualStyle
  2
Conceptual
 70
     9
 71
     3
 72
     2
 73
     0
 90
        0
 40
-0.6
 41
-30.0
 62
     5
 63
     7
 74
     2
 91
        2
 64
     7
 65
   257
 75
     1
175
     1
 42
40.0
 92
        8
 66
     7
 43
1.0
 76
     1
 77
     6
 78
     2
 67
     7
 79
     3
170
     0
171
     0
290
     0
174
     0
 93
        1
 44
0.0
173
     0
291
     0
 45
0.0
1001
ACAD
1000
AcDbSavedByObjectVersion
1070
     0
  0
VISUALSTYLE
  5
35
102
{ACAD_REACTORS
330
2A
102
}
330
2A
100
AcDbVisualStyle
  2
Dim
 70
    11
 71
     2
 72
     2
 73
     0
 90
        0
 40
-0.6
 41
-30.0
 62
     5
 63
     7
 74
     1
 91
        4
 64
     7
 65
   257
 75
     1
175
     1
 42
1.0
 92
        8
 66
     7
 43
1.0
 76
     1
 77
     6
 78
     2
 67
     7
 79
     5
170
     0
171
     0
290
     0
174
     0
 93
        1
 44
-50.0
173
     0
291
     1
 45
0.0
1001
ACAD
1000
AcDbSavedByObjectVersion
1070
     0
  0
VISUALSTYLE
  5
39
102
{ACAD_REACTORS
330
2A
102
}
330
2A
100
AcDbVisualStyle
  2
Facepattern
 70
    15
 71
     2
 72
     2
 73
     0
 90
        0
 40
-0.6
 41
-30.0
 62
     5
 63
     7
 74
     1
 91
        4
 64
     7
 65
   257
 75
     1
175
     1
 42
1.0
 92
        8
 66
     7
 43
1.0
 76
     1
 77
     6
 78
     2
 67
     7
 79
     5
170
     0
171
     0
290
     0
174
     0
 93
        1
 44
0.0
173
     0
291
     1
 45
0.0
1001
ACAD
1000
AcDbSavedByObjectVersion
1070
     0
  0
VISUALSTYLE
  5
2B
102
{ACAD_REACTORS
330
2A
102
}
330
2A
100
AcDbVisualStyle
  2
Flat
 70
     0
 71
     2
 72
     1
 73
     1
 90
        2
 40
-0.6
 41
30.0
 62
     5
 63
     7
 74
     0
 91
        4
 64
     7
 65
   257
 75
     1
175
     1
 42
1.0
 92
        8
 66
     7
 43
1.0
 76
     1
 77
     6
 78
     2
 67
     7
 79
     5
170
     0
171
     0
290
     0
174
     0
 93
       13
 44
0.0
173
     0
291
     1
 45
0.0
1001
ACAD
1000
AcDbSavedByObjectVersion
1070
     0
  0
VISUALSTYLE
  5
2C
102
{ACAD_REACTORS
330
2A
102
}
330
2A
100
AcDbVisualStyle
  2
FlatWithEdges
 70
     1
 71
     2
 72
     1
 73
     1
 90
        2
 40
-0.6
 41
30.0
 62
     5
 63
     7
 74
     1
 91
        4
 64
     7
 65
   257
 75
     1
175
     1
 42
1.0
 92
        0
 66
   257
 43
1.0
 76
     1
 77
     6
 78
     2
 67
     7
 79
     5
170
     0
171
     0
290
     0
174
     0
 93
       13
 44
0.0
173
     0
291
     1
 45
0.0
1001
ACAD
1000
AcDbSavedByObjectVersion
1070
     0
  0
VISUALSTYLE
  5
2D
102
{ACAD_REACTORS
330
2A
102
}
330
2A
100
AcDbVisualStyle
  2
Gouraud
 70
     2
 71
     2
 72
     2
 73
     1
 90
        2
 40
-0.6
 41
30.0
 62
     5
 63
     7
 74
     0
 91
        4
 64
     7
 65
   257
 75
     1
175
     1
 42
1.0
 92
        0
 66
     7
 43
1.0
 76
     1
 77
     6
 78
     2
 67
     7
 79
     5
170
     0
171
     0
290
     0
174
     0
 93
       13
 44
0.0
173
     0
291
     1
 45
0.0
1001
ACAD
1000
AcDbSavedByObjectVersion
1070
     0
  0
VISUALSTYLE
  5
2E
102
{ACAD_REACTORS
330
2A
102
}
330
2A
100
AcDbVisualStyle
  2
GouraudWithEdges
 70
     3
 71
     2
 72
     2
 73
     1
 90
        2
 40
-0.6
 41
30.0
 62
     5
 63
     7
 74
     1
 91
        4
 64
     7
 65
   257
 75
     1
175
     1
 42
1.0
 92
        0
 66
   257
 43
1.0
 76
     1
 77
     6
 78
     2
 67
     7
 79
     5
170
     0
171
     0
290
     0
174
     0
 93
       13
 44
0.0
173
     0
291
     1
 45
0.0
1001
ACAD
1000
AcDbSavedByObjectVersion
1070
     0
  0
VISUALSTYLE
  5
38
102
{ACAD_REACTORS
330
2A
102
}
330
2A
100
AcDbVisualStyle
  2
Linepattern
 70
    14
 71
     2
 72
     2
 73
     0
 90
        0
 40
-0.6
 41
-30.0
 62
     5
 63
     7
 74
     1
 91
        4
 64
     7
 65
   257
 75
     7
175
     7
 42
1.0
 92
        8
 66
     7
 43
1.0
 76
     1
 77
     6
 78
     2
 67
     7
 79
     5
170
     0
171
     0
290
     0
174
     0
 93
        1
 44
0.0
173
     0
291
     1
 45
0.0
1001
ACAD
1000
AcDbSavedByObjectVersion
1070
     0
  0
VISUALSTYLE
  5
33
102
{ACAD_REACTORS
330
2A
102
}
330
2A
100
AcDbVisualStyle
  2
Realistic
 70
     8
 71
     2
 72
     2
 73
     0
 90
        0
 40
-0.6
 41
-30.0
 62
     5
 63
     7
 74
     1
 91
        0
 64
     7
 65
   257
 75
     1
175
     1
 42
1.0
 92
        8
 66
     8
 43
1.0
 76
     1
 77
     6
 78
     2
 67
     7
 79
     5
170
     0
171
     0
290
     0
174
     0
 93
       13
 44
0.0
173
     0
291
     0
 45
0.0
1001
ACAD
1000
AcDbSavedByObjectVersion
1070
     0
  0
VISUALSTYLE
  5
37
102
{ACAD_REACTORS
330
2A
102
}
330
2A
100
AcDbVisualStyle
  2
Thicken
 70
    13
 71
     2
 72
     2
 73
     0
 90
        0
 40
-0.6
 41
-30.0
 62
     5
 63
     7
 74
     1
 91
        4
 64
     7
 65
   257
 75
     1
175
     1
 42
1.0
 92
       12
 66
     7
 43
1.0
 76
     1
 77
     6
 78
     2
 67
     7
 79
     5
170
     0
171
     0
290
     0
174
     0
 93
        1
 44
0.0
173
     0
291
     1
 45
0.0
1001
ACAD
1000
AcDbSavedByObjectVersion
1070
     0
  0
ENDSEC
  0
EOF
