  0
SECTION
  2
HEADER
  9
$ACADVER
  1
AC1012
  9
$DWGCODEPAGE
  3
ansi_932
  9
$INSBASE
 10
0.0
 20
0.0
 30
0.0
  9
$EXTMIN
 10
1.000000000000000E+20
 20
1.000000000000000E+20
 30
1.000000000000000E+20
  9
$EXTMAX
 10
-1.000000000000000E+20
 20
-1.000000000000000E+20
 30
-1.000000000000000E+20
  9
$LIMMIN
 10
0.0
 20
0.0
  9
$LIMMAX
 10
12.0
 20
9.0
  9
$ORTHOMODE
 70
     0
  9
$REGENMODE
 70
     1
  9
$FILLMODE
 70
     1
  9
$QTEXTMODE
 70
     0
  9
$MIRRTEXT
 70
     1
  9
$DRAGMODE
 70
     2
  9
$LTSCALE
 40
1.0
  9
$OSMODE
 70
    37
  9
$ATTMODE
 70
     1
  9
$TEXTSIZE
 40
0.2
  9
$TRACEWID
 40
0.05
  9
$TEXTSTYLE
  7
STANDARD
  9
$CLAYER
  8
0
  9
$CELTYPE
  6
BYLAYER
  9
$CECOLOR
 62
   256
  9
$CELTSCALE
 40
1.0
  9
$DELOBJ
 70
     1
  9
$DISPSILH
 70
     0
  9
$DIMSCALE
 40
1.0
  9
$DIMASZ
 40
0.18
  9
$DIMEXO
 40
0.0625
  9
$DIMDLI
 40
0.38
  9
$DIMRND
 40
0.0
  9
$DIMDLE
 40
0.0
  9
$DIMEXE
 40
0.18
  9
$DIMTP
 40
0.0
  9
$DIMTM
 40
0.0
  9
$DIMTXT
 40
0.18
  9
$DIMCEN
 40
0.09
  9
$DIMTSZ
 40
0.0
  9
$DIMTOL
 70
     0
  9
$DIMLIM
 70
     0
  9
$DIMTIH
 70
     1
  9
$DIMTOH
 70
     1
  9
$DIMSE1
 70
     0
  9
$DIMSE2
 70
     0
  9
$DIMTAD
 70
     0
  9
$DIMZIN
 70
     0
  9
$DIMBLK
  1

  9
$DIMASO
 70
     1
  9
$DIMSHO
 70
     1
  9
$DIMPOST
  1

  9
$DIMAPOST
  1

  9
$DIMALT
 70
     0
  9
$DIMALTD
 70
     2
  9
$DIMALTF
 40
25.4
  9
$DIMLFAC
 40
1.0
  9
$DIMTOFL
 70
     0
  9
$DIMTVP
 40
0.0
  9
$DIMTIX
 70
     0
  9
$DIMSOXD
 70
     0
  9
$DIMSAH
 70
     0
  9
$DIMBLK1
  1

  9
$DIMBLK2
  1

  9
$DIMSTYLE
  2
STANDARD
  9
$DIMCLRD
 70
     0
  9
$DIMCLRE
 70
     0
  9
$DIMCLRT
 70
     0
  9
$DIMTFAC
 40
1.0
  9
$DIMGAP
 40
0.09
  9
$DIMJUST
 70
     0
  9
$DIMSD1
 70
     0
  9
$DIMSD2
 70
     0
  9
$DIMTOLJ
 70
     1
  9
$DIMTZIN
 70
     0
  9
$DIMALTZ
 70
     0
  9
$DIMALTTZ
 70
     0
  9
$DIMFIT
 70
     3
  9
$DIMUPT
 70
     0
  9
$DIMUNIT
 70
     2
  9
$DIMDEC
 70
     4
  9
$DIMTDEC
 70
     4
  9
$DIMALTU
 70
     2
  9
$DIMALTTD
 70
     2
  9
$DIMTXSTY
  7
STANDARD
  9
$DIMAUNIT
 70
     0
  9
$LUNITS
 70
     2
  9
$LUPREC
 70
     4
  9
$SKETCHINC
 40
0.1
  9
$FILLETRAD
 40
0.5
  9
$AUNITS
 70
     0
  9
$AUPREC
 70
     0
  9
$MENU
  1
.
  9
$ELEVATION
 40
0.0
  9
$PELEVATION
 40
0.0
  9
$THICKNESS
 40
0.0
  9
$LIMCHECK
 70
     0
  9
$CHAMFERA
 40
0.5
  9
$CHAMFERB
 40
0.5
  9
$CHAMFERC
 40
1.0
  9
$CHAMFERD
 40
0.0
  9
$SKPOLY
 70
     0
  9
$TDCREATE
 40
2457508.841337083
  9
$TDUPDATE
 40
2457508.841337095
  9
$TDINDWG
 40
0.0000000116
  9
$TDUSRTIMER
 40
0.0000000116
  9
$USRTIMER
 70
     1
  9
$ANGBASE
 50
0.0
  9
$ANGDIR
 70
     0
  9
$PDMODE
 70
     0
  9
$PDSIZE
 40
0.0
  9
$PLINEWID
 40
0.0
  9
$COORDS
 70
     1
  9
$SPLFRAME
 70
     0
  9
$SPLINETYPE
 70
     6
  9
$SPLINESEGS
 70
     8
  9
$ATTDIA
 70
     0
  9
$ATTREQ
 70
     1
  9
$HANDLING
 70
     1
  9
$HANDSEED
  5
4A6
  9
$SURFTAB1
 70
     6
  9
$SURFTAB2
 70
     6
  9
$SURFTYPE
 70
     6
  9
$SURFU
 70
     6
  9
$SURFV
 70
     6
  9
$UCSNAME
  2

  9
$UCSORG
 10
0.0
 20
0.0
 30
0.0
  9
$UCSXDIR
 10
1.0
 20
0.0
 30
0.0
  9
$UCSYDIR
 10
0.0
 20
1.0
 30
0.0
  9
$PUCSNAME
  2

  9
$PUCSORG
 10
0.0
 20
0.0
 30
0.0
  9
$PUCSXDIR
 10
1.0
 20
0.0
 30
0.0
  9
$PUCSYDIR
 10
0.0
 20
1.0
 30
0.0
  9
$USERI1
 70
     0
  9
$USERI2
 70
     0
  9
$USERI3
 70
     0
  9
$USERI4
 70
     0
  9
$USERI5
 70
     0
  9
$USERR1
 40
0.0
  9
$USERR2
 40
0.0
  9
$USERR3
 40
0.0
  9
$USERR4
 40
0.0
  9
$USERR5
 40
0.0
  9
$WORLDVIEW
 70
     1
  9
$SHADEDGE
 70
     3
  9
$SHADEDIF
 70
    70
  9
$TILEMODE
 70
     1
  9
$MAXACTVP
 70
    64
  9
$PINSBASE
 10
0.0
 20
0.0
 30
0.0
  9
$PLIMCHECK
 70
     0
  9
$PEXTMIN
 10
1.000000000000000E+20
 20
1.000000000000000E+20
 30
1.000000000000000E+20
  9
$PEXTMAX
 10
-1.000000000000000E+20
 20
-1.000000000000000E+20
 30
-1.000000000000000E+20
  9
$PLIMMIN
 10
0.0
 20
0.0
  9
$PLIMMAX
 10
12.0
 20
9.0
  9
$UNITMODE
 70
     0
  9
$VISRETAIN
 70
     1
  9
$PLINEGEN
 70
     0
  9
$PSLTSCALE
 70
     1
  9
$TREEDEPTH
 70
  3020
  9
$PICKSTYLE
 70
     1
  9
$CMLSTYLE
  2
STANDARD
  9
$CMLJUST
 70
     0
  9
$CMLSCALE
 40
1.0
  9
$SAVEIMAGES
 70
     1
  0
ENDSEC
  0
SECTION
  2
CLASSES
  0
CLASS
  1
ACDBDICTIONARYWDFLT
  2
AcDbDictionaryWithDefault
  3
ObjectDBX Classes
 90
    32768
280
     0
281
     0
  0
CLASS
  1
VISUALSTYLE
  2
AcDbVisualStyle
  3
ObjectDBX Classes
 90
     4095
280
     0
281
     0
  0
CLASS
  1
XRECORD
  2
AcDbXrecord
  3
AutoCAD 2000
 90
    32768
280
     0
281
     0
  0
CLASS
  1
LWPOLYLINE
  2
AcDbPolyline
  3
AutoCAD 2000
 90
    32768
280
     0
281
     1
  0
CLASS
  1
HATCH
  2
AcDbHatch
  3
AutoCAD 2000
 90
    32768
280
     0
281
     1
  0
CLASS
  1
ACDBPLACEHOLDER
  2
AcDbPlaceHolder
  3
ObjectDBX Classes
 90
        0
280
     0
281
     0
  0
CLASS
  1
LAYOUT
  2
AcDbLayout
  3
ObjectDBX Classes
 90
        0
280
     0
281
     0
  0
ENDSEC
  0
SECTION
  2
TABLES
  0
TABLE
  2
VPORT
  5
8
330
0
100
AcDbSymbolTable
 70
     1
  0
VPORT
  5
29
330
8
100
AcDbSymbolTableRecord
100
AcDbViewportTableRecord
  2
*ACTIVE
 70
     0
 10
0.0
 20
0.0
 11
1.0
 21
1.0
 12
0.0
 22
0.0
 13
0.0
 23
0.0
 14
0.5
 24
0.5
 15
0.5
 25
0.5
 16
0.0
 26
0.0
 36
1.0
 17
105.0008259828644
 27
-148.4999796178229
 37
0.0
 40
296.9999592356459
 41
0.7070763662937379
 42
50.0
 43
0.0
 44
0.0
 50
0.0
 51
0.0
 71
     0
 72
   100
 73
     1
 74
     3
 75
     0
 76
     0
 77
     0
 78
     0
  0
ENDTAB
  0
TABLE
  2
LTYPE
  5
5
330
0
100
AcDbSymbolTable
 70
    25
  0
LTYPE
  5
14
330
5
100
AcDbSymbolTableRecord
100
AcDbLinetypeTableRecord
  2
BYBLOCK
 70
     0
  3

 72
    65
 73
     0
 40
0.0
  0
LTYPE
  5
15
330
5
100
AcDbSymbolTableRecord
100
AcDbLinetypeTableRecord
  2
BYLAYER
 70
     0
  3

 72
    65
 73
     0
 40
0.0
  0
LTYPE
  5
16
330
5
100
AcDbSymbolTableRecord
100
AcDbLinetypeTableRecord
  2
CONTINUOUS
 70
     0
  3
Solid line
 72
    65
 73
     0
 40
0.0
  0
LTYPE
  5
59
330
5
100
AcDbSymbolTableRecord
100
AcDbLinetypeTableRecord
  2
AI-LINETYPE-1
 70
     0
  3
Adobe Illustrator Linetype No. 1
 72
    65
 73
     2
 40
2.822222221516667
 49
1.411111110758333
 74
     0
 49
-1.411111110758333
 74
     0
  0
LTYPE
  5
5E
330
5
100
AcDbSymbolTableRecord
100
AcDbLinetypeTableRecord
  2
AI-LINETYPE-2
 70
     0
  3
Adobe Illustrator Linetype No. 2
 72
    65
 73
     2
 40
2.822222221516667
 49
1.411111110758333
 74
     0
 49
-1.411111110758333
 74
     0
  0
LTYPE
  5
63
330
5
100
AcDbSymbolTableRecord
100
AcDbLinetypeTableRecord
  2
AI-LINETYPE-3
 70
     0
  3
Adobe Illustrator Linetype No. 3
 72
    65
 73
     2
 40
2.822222221516667
 49
1.411111110758333
 74
     0
 49
-1.411111110758333
 74
     0
  0
LTYPE
  5
68
330
5
100
AcDbSymbolTableRecord
100
AcDbLinetypeTableRecord
  2
AI-LINETYPE-4
 70
     0
  3
Adobe Illustrator Linetype No. 4
 72
    65
 73
     2
 40
2.822222221516667
 49
1.411111110758333
 74
     0
 49
-1.411111110758333
 74
     0
  0
LTYPE
  5
6D
330
5
100
AcDbSymbolTableRecord
100
AcDbLinetypeTableRecord
  2
AI-LINETYPE-5
 70
     0
  3
Adobe Illustrator Linetype No. 5
 72
    65
 73
     2
 40
2.822222221516667
 49
1.411111110758333
 74
     0
 49
-1.411111110758333
 74
     0
  0
LTYPE
  5
72
330
5
100
AcDbSymbolTableRecord
100
AcDbLinetypeTableRecord
  2
AI-LINETYPE-6
 70
     0
  3
Adobe Illustrator Linetype No. 6
 72
    65
 73
     2
 40
2.822222221516667
 49
1.411111110758333
 74
     0
 49
-1.411111110758333
 74
     0
  0
LTYPE
  5
77
330
5
100
AcDbSymbolTableRecord
100
AcDbLinetypeTableRecord
  2
AI-LINETYPE-7
 70
     0
  3
Adobe Illustrator Linetype No. 7
 72
    65
 73
     2
 40
2.822222221516667
 49
1.411111110758333
 74
     0
 49
-1.411111110758333
 74
     0
  0
LTYPE
  5
7C
330
5
100
AcDbSymbolTableRecord
100
AcDbLinetypeTableRecord
  2
AI-LINETYPE-8
 70
     0
  3
Adobe Illustrator Linetype No. 8
 72
    65
 73
     2
 40
2.822222221516667
 49
1.411111110758333
 74
     0
 49
-1.411111110758333
 74
     0
  0
LTYPE
  5
81
330
5
100
AcDbSymbolTableRecord
100
AcDbLinetypeTableRecord
  2
AI-LINETYPE-9
 70
     0
  3
Adobe Illustrator Linetype No. 9
 72
    65
 73
     2
 40
2.822222221516667
 49
1.411111110758333
 74
     0
 49
-1.411111110758333
 74
     0
  0
LTYPE
  5
86
330
5
100
AcDbSymbolTableRecord
100
AcDbLinetypeTableRecord
  2
AI-LINETYPE-10
 70
     0
  3
Adobe Illustrator Linetype No. 10
 72
    65
 73
     2
 40
2.822222221516667
 49
1.411111110758333
 74
     0
 49
-1.411111110758333
 74
     0
  0
LTYPE
  5
8B
330
5
100
AcDbSymbolTableRecord
100
AcDbLinetypeTableRecord
  2
AI-LINETYPE-11
 70
     0
  3
Adobe Illustrator Linetype No. 11
 72
    65
 73
     2
 40
2.822222221516667
 49
1.411111110758333
 74
     0
 49
-1.411111110758333
 74
     0
  0
LTYPE
  5
90
330
5
100
AcDbSymbolTableRecord
100
AcDbLinetypeTableRecord
  2
AI-LINETYPE-12
 70
     0
  3
Adobe Illustrator Linetype No. 12
 72
    65
 73
     2
 40
2.822222221516667
 49
1.411111110758333
 74
     0
 49
-1.411111110758333
 74
     0
  0
LTYPE
  5
95
330
5
100
AcDbSymbolTableRecord
100
AcDbLinetypeTableRecord
  2
AI-LINETYPE-13
 70
     0
  3
Adobe Illustrator Linetype No. 13
 72
    65
 73
     2
 40
2.822222221516667
 49
1.411111110758333
 74
     0
 49
-1.411111110758333
 74
     0
  0
LTYPE
  5
9A
330
5
100
AcDbSymbolTableRecord
100
AcDbLinetypeTableRecord
  2
AI-LINETYPE-14
 70
     0
  3
Adobe Illustrator Linetype No. 14
 72
    65
 73
     2
 40
2.822222221516667
 49
1.411111110758333
 74
     0
 49
-1.411111110758333
 74
     0
  0
LTYPE
  5
9F
330
5
100
AcDbSymbolTableRecord
100
AcDbLinetypeTableRecord
  2
AI-LINETYPE-15
 70
     0
  3
Adobe Illustrator Linetype No. 15
 72
    65
 73
     2
 40
2.822222221516667
 49
1.411111110758333
 74
     0
 49
-1.411111110758333
 74
     0
  0
LTYPE
  5
A4
330
5
100
AcDbSymbolTableRecord
100
AcDbLinetypeTableRecord
  2
AI-LINETYPE-16
 70
     0
  3
Adobe Illustrator Linetype No. 16
 72
    65
 73
     2
 40
2.822222221516667
 49
1.411111110758333
 74
     0
 49
-1.411111110758333
 74
     0
  0
LTYPE
  5
A9
330
5
100
AcDbSymbolTableRecord
100
AcDbLinetypeTableRecord
  2
AI-LINETYPE-17
 70
     0
  3
Adobe Illustrator Linetype No. 17
 72
    65
 73
     2
 40
2.822222221516667
 49
1.411111110758333
 74
     0
 49
-1.411111110758333
 74
     0
  0
LTYPE
  5
AE
330
5
100
AcDbSymbolTableRecord
100
AcDbLinetypeTableRecord
  2
AI-LINETYPE-18
 70
     0
  3
Adobe Illustrator Linetype No. 18
 72
    65
 73
     2
 40
2.822222221516667
 49
1.411111110758333
 74
     0
 49
-1.411111110758333
 74
     0
  0
LTYPE
  5
B3
330
5
100
AcDbSymbolTableRecord
100
AcDbLinetypeTableRecord
  2
AI-LINETYPE-19
 70
     0
  3
Adobe Illustrator Linetype No. 19
 72
    65
 73
     2
 40
2.822222221516667
 49
1.411111110758333
 74
     0
 49
-1.411111110758333
 74
     0
  0
LTYPE
  5
B8
330
5
100
AcDbSymbolTableRecord
100
AcDbLinetypeTableRecord
  2
AI-LINETYPE-20
 70
     0
  3
Adobe Illustrator Linetype No. 20
 72
    65
 73
     2
 40
2.822222221516667
 49
1.411111110758333
 74
     0
 49
-1.411111110758333
 74
     0
  0
LTYPE
  5
BD
330
5
100
AcDbSymbolTableRecord
100
AcDbLinetypeTableRecord
  2
AI-LINETYPE-21
 70
     0
  3
Adobe Illustrator Linetype No. 21
 72
    65
 73
     2
 40
2.822222221516667
 49
1.411111110758333
 74
     0
 49
-1.411111110758333
 74
     0
  0
LTYPE
  5
C2
330
5
100
AcDbSymbolTableRecord
100
AcDbLinetypeTableRecord
  2
AI-LINETYPE-22
 70
     0
  3
Adobe Illustrator Linetype No. 22
 72
    65
 73
     2
 40
2.822222221516667
 49
1.411111110758333
 74
     0
 49
-1.411111110758333
 74
     0
  0
LTYPE
  5
C7
330
5
100
AcDbSymbolTableRecord
100
AcDbLinetypeTableRecord
  2
AI-LINETYPE-23
 70
     0
  3
Adobe Illustrator Linetype No. 23
 72
    65
 73
     2
 40
2.822222221516667
 49
1.411111110758333
 74
     0
 49
-1.411111110758333
 74
     0
  0
LTYPE
  5
CC
330
5
100
AcDbSymbolTableRecord
100
AcDbLinetypeTableRecord
  2
AI-LINETYPE-24
 70
     0
  3
Adobe Illustrator Linetype No. 24
 72
    65
 73
     2
 40
2.822222221516667
 49
1.411111110758333
 74
     0
 49
-1.411111110758333
 74
     0
  0
ENDTAB
  0
TABLE
  2
LAYER
  5
2
330
0
100
AcDbSymbolTable
 70
     5
  0
LAYER
  5
10
330
2
100
AcDbSymbolTableRecord
100
AcDbLayerTableRecord
  2
0
 70
     0
 62
     7
  6
CONTINUOUS
  0
LAYER
  5
3B
330
2
100
AcDbSymbolTableRecord
100
AcDbLayerTableRecord
  2
CUTLINE
 70
     0
 62
     7
  6
CONTINUOUS
  0
LAYER
  5
54
330
2
100
AcDbSymbolTableRecord
100
AcDbLayerTableRecord
  2
VALLEYLINE
 70
     0
 62
     7
  6
CONTINUOUS
  0
LAYER
  5
CD
330
2
100
AcDbSymbolTableRecord
100
AcDbLayerTableRecord
  2
MOUNTAINLINE
 70
     0
 62
     7
  6
CONTINUOUS
  0
LAYER
  5
4A2
330
2
100
AcDbSymbolTableRecord
100
AcDbLayerTableRecord
  2
TEXT
 70
     0
 62
     7
  6
CONTINUOUS
  0
ENDTAB
  0
TABLE
  2
STYLE
  5
3
330
0
100
AcDbSymbolTable
 70
     1
  0
STYLE
  5
11
330
3
100
AcDbSymbolTableRecord
100
AcDbTextStyleTableRecord
  2
STANDARD
 70
     0
 40
0.0
 41
1.0
 50
0.0
 71
     0
 42
0.2
  3
txt
  4

  0
ENDTAB
  0
TABLE
  2
VIEW
  5
6
330
0
100
AcDbSymbolTable
 70
     0
  0
ENDTAB
  0
TABLE
  2
UCS
  5
7
330
0
100
AcDbSymbolTable
 70
     0
  0
ENDTAB
  0
TABLE
  2
APPID
  5
9
330
0
100
AcDbSymbolTable
 70
     1
  0
APPID
  5
12
330
9
100
AcDbSymbolTableRecord
100
AcDbRegAppTableRecord
  2
ACAD
 70
     0
  0
ENDTAB
  0
TABLE
  2
DIMSTYLE
  5
A
330
0
100
AcDbSymbolTable
 70
     1
  0
DIMSTYLE
105
27
330
A
100
AcDbSymbolTableRecord
100
AcDbDimStyleTableRecord
  2
STANDARD
 70
     0
  3

  4

  5

  6

  7

 40
1.0
 41
0.18
 42
0.0625
 43
0.38
 44
0.18
 45
0.0
 46
0.0
 47
0.0
 48
0.0
140
0.18
141
0.09
142
0.0
143
25.4
144
1.0
145
0.0
146
1.0
147
0.09
 71
     0
 72
     0
 73
     1
 74
     1
 75
     0
 76
     0
 77
     0
 78
     0
170
     0
171
     2
172
     0
173
     0
174
     0
175
     0
176
     0
177
     0
178
     0
270
     2
271
     4
272
     4
273
     2
274
     2
340
11
275
     0
280
     0
281
     0
282
     0
283
     1
284
     0
285
     0
286
     0
287
     3
288
     0
  0
ENDTAB
  0
TABLE
  2
BLOCK_RECORD
  5
1
330
0
100
AcDbSymbolTable
 70
    95
  0
BLOCK_RECORD
  5
1F
330
1
100
AcDbSymbolTableRecord
100
AcDbBlockTableRecord
  2
*MODEL_SPACE
  0
BLOCK_RECORD
  5
1B
330
1
100
AcDbSymbolTableRecord
100
AcDbBlockTableRecord
  2
*PAPER_SPACE
  0
BLOCK_RECORD
  5
CE
330
1
100
AcDbSymbolTableRecord
100
AcDbBlockTableRecord
  2
BLOCK_2
  0
BLOCK_RECORD
  5
D6
330
1
100
AcDbSymbolTableRecord
100
AcDbBlockTableRecord
  2
BLOCK_3
  0
BLOCK_RECORD
  5
DE
330
1
100
AcDbSymbolTableRecord
100
AcDbBlockTableRecord
  2
BLOCK_4
  0
BLOCK_RECORD
  5
E6
330
1
100
AcDbSymbolTableRecord
100
AcDbBlockTableRecord
  2
BLOCK_5
  0
BLOCK_RECORD
  5
FD
330
1
100
AcDbSymbolTableRecord
100
AcDbBlockTableRecord
  2
BLOCK_6
  0
BLOCK_RECORD
  5
105
330
1
100
AcDbSymbolTableRecord
100
AcDbBlockTableRecord
  2
BLOCK_7
  0
BLOCK_RECORD
  5
10D
330
1
100
AcDbSymbolTableRecord
100
AcDbBlockTableRecord
  2
BLOCK_8
  0
BLOCK_RECORD
  5
115
330
1
100
AcDbSymbolTableRecord
100
AcDbBlockTableRecord
  2
BLOCK_9
  0
BLOCK_RECORD
  5
11D
330
1
100
AcDbSymbolTableRecord
100
AcDbBlockTableRecord
  2
BLOCK_10
  0
BLOCK_RECORD
  5
125
330
1
100
AcDbSymbolTableRecord
100
AcDbBlockTableRecord
  2
BLOCK_11
  0
BLOCK_RECORD
  5
12D
330
1
100
AcDbSymbolTableRecord
100
AcDbBlockTableRecord
  2
BLOCK_12
  0
BLOCK_RECORD
  5
144
330
1
100
AcDbSymbolTableRecord
100
AcDbBlockTableRecord
  2
BLOCK_13
  0
BLOCK_RECORD
  5
14C
330
1
100
AcDbSymbolTableRecord
100
AcDbBlockTableRecord
  2
BLOCK_14
  0
BLOCK_RECORD
  5
154
330
1
100
AcDbSymbolTableRecord
100
AcDbBlockTableRecord
  2
BLOCK_15
  0
BLOCK_RECORD
  5
15C
330
1
100
AcDbSymbolTableRecord
100
AcDbBlockTableRecord
  2
BLOCK_16
  0
BLOCK_RECORD
  5
164
330
1
100
AcDbSymbolTableRecord
100
AcDbBlockTableRecord
  2
BLOCK_17
  0
BLOCK_RECORD
  5
16C
330
1
100
AcDbSymbolTableRecord
100
AcDbBlockTableRecord
  2
BLOCK_18
  0
BLOCK_RECORD
  5
174
330
1
100
AcDbSymbolTableRecord
100
AcDbBlockTableRecord
  2
BLOCK_19
  0
BLOCK_RECORD
  5
17C
330
1
100
AcDbSymbolTableRecord
100
AcDbBlockTableRecord
  2
BLOCK_20
  0
BLOCK_RECORD
  5
193
330
1
100
AcDbSymbolTableRecord
100
AcDbBlockTableRecord
  2
BLOCK_21
  0
BLOCK_RECORD
  5
19B
330
1
100
AcDbSymbolTableRecord
100
AcDbBlockTableRecord
  2
BLOCK_22
  0
BLOCK_RECORD
  5
1A3
330
1
100
AcDbSymbolTableRecord
100
AcDbBlockTableRecord
  2
BLOCK_23
  0
BLOCK_RECORD
  5
1AB
330
1
100
AcDbSymbolTableRecord
100
AcDbBlockTableRecord
  2
BLOCK_24
  0
BLOCK_RECORD
  5
1B3
330
1
100
AcDbSymbolTableRecord
100
AcDbBlockTableRecord
  2
BLOCK_25
  0
BLOCK_RECORD
  5
1BB
330
1
100
AcDbSymbolTableRecord
100
AcDbBlockTableRecord
  2
BLOCK_26
  0
BLOCK_RECORD
  5
1C3
330
1
100
AcDbSymbolTableRecord
100
AcDbBlockTableRecord
  2
BLOCK_27
  0
BLOCK_RECORD
  5
1CB
330
1
100
AcDbSymbolTableRecord
100
AcDbBlockTableRecord
  2
BLOCK_28
  0
BLOCK_RECORD
  5
1D3
330
1
100
AcDbSymbolTableRecord
100
AcDbBlockTableRecord
  2
BLOCK_29
  0
BLOCK_RECORD
  5
1EA
330
1
100
AcDbSymbolTableRecord
100
AcDbBlockTableRecord
  2
BLOCK_30
  0
BLOCK_RECORD
  5
1F2
330
1
100
AcDbSymbolTableRecord
100
AcDbBlockTableRecord
  2
BLOCK_31
  0
BLOCK_RECORD
  5
1FA
330
1
100
AcDbSymbolTableRecord
100
AcDbBlockTableRecord
  2
BLOCK_32
  0
BLOCK_RECORD
  5
202
330
1
100
AcDbSymbolTableRecord
100
AcDbBlockTableRecord
  2
BLOCK_33
  0
BLOCK_RECORD
  5
20A
330
1
100
AcDbSymbolTableRecord
100
AcDbBlockTableRecord
  2
BLOCK_34
  0
BLOCK_RECORD
  5
212
330
1
100
AcDbSymbolTableRecord
100
AcDbBlockTableRecord
  2
BLOCK_35
  0
BLOCK_RECORD
  5
21A
330
1
100
AcDbSymbolTableRecord
100
AcDbBlockTableRecord
  2
BLOCK_36
  0
BLOCK_RECORD
  5
222
330
1
100
AcDbSymbolTableRecord
100
AcDbBlockTableRecord
  2
BLOCK_37
  0
BLOCK_RECORD
  5
239
330
1
100
AcDbSymbolTableRecord
100
AcDbBlockTableRecord
  2
BLOCK_38
  0
BLOCK_RECORD
  5
241
330
1
100
AcDbSymbolTableRecord
100
AcDbBlockTableRecord
  2
BLOCK_39
  0
BLOCK_RECORD
  5
249
330
1
100
AcDbSymbolTableRecord
100
AcDbBlockTableRecord
  2
BLOCK_40
  0
BLOCK_RECORD
  5
251
330
1
100
AcDbSymbolTableRecord
100
AcDbBlockTableRecord
  2
BLOCK_41
  0
BLOCK_RECORD
  5
259
330
1
100
AcDbSymbolTableRecord
100
AcDbBlockTableRecord
  2
BLOCK_42
  0
BLOCK_RECORD
  5
261
330
1
100
AcDbSymbolTableRecord
100
AcDbBlockTableRecord
  2
BLOCK_43
  0
BLOCK_RECORD
  5
269
330
1
100
AcDbSymbolTableRecord
100
AcDbBlockTableRecord
  2
BLOCK_44
  0
BLOCK_RECORD
  5
280
330
1
100
AcDbSymbolTableRecord
100
AcDbBlockTableRecord
  2
BLOCK_45
  0
BLOCK_RECORD
  5
288
330
1
100
AcDbSymbolTableRecord
100
AcDbBlockTableRecord
  2
BLOCK_46
  0
BLOCK_RECORD
  5
290
330
1
100
AcDbSymbolTableRecord
100
AcDbBlockTableRecord
  2
BLOCK_47
  0
BLOCK_RECORD
  5
2B0
330
1
100
AcDbSymbolTableRecord
100
AcDbBlockTableRecord
  2
BLOCK_48
  0
BLOCK_RECORD
  5
2B8
330
1
100
AcDbSymbolTableRecord
100
AcDbBlockTableRecord
  2
BLOCK_49
  0
BLOCK_RECORD
  5
2C0
330
1
100
AcDbSymbolTableRecord
100
AcDbBlockTableRecord
  2
BLOCK_50
  0
BLOCK_RECORD
  5
2C8
330
1
100
AcDbSymbolTableRecord
100
AcDbBlockTableRecord
  2
BLOCK_51
  0
BLOCK_RECORD
  5
2DF
330
1
100
AcDbSymbolTableRecord
100
AcDbBlockTableRecord
  2
BLOCK_52
  0
BLOCK_RECORD
  5
2E7
330
1
100
AcDbSymbolTableRecord
100
AcDbBlockTableRecord
  2
BLOCK_53
  0
BLOCK_RECORD
  5
2EF
330
1
100
AcDbSymbolTableRecord
100
AcDbBlockTableRecord
  2
BLOCK_54
  0
BLOCK_RECORD
  5
2F7
330
1
100
AcDbSymbolTableRecord
100
AcDbBlockTableRecord
  2
BLOCK_55
  0
BLOCK_RECORD
  5
2FF
330
1
100
AcDbSymbolTableRecord
100
AcDbBlockTableRecord
  2
BLOCK_56
  0
BLOCK_RECORD
  5
307
330
1
100
AcDbSymbolTableRecord
100
AcDbBlockTableRecord
  2
BLOCK_57
  0
BLOCK_RECORD
  5
30F
330
1
100
AcDbSymbolTableRecord
100
AcDbBlockTableRecord
  2
BLOCK_58
  0
BLOCK_RECORD
  5
326
330
1
100
AcDbSymbolTableRecord
100
AcDbBlockTableRecord
  2
BLOCK_59
  0
BLOCK_RECORD
  5
32E
330
1
100
AcDbSymbolTableRecord
100
AcDbBlockTableRecord
  2
BLOCK_60
  0
BLOCK_RECORD
  5
336
330
1
100
AcDbSymbolTableRecord
100
AcDbBlockTableRecord
  2
BLOCK_61
  0
BLOCK_RECORD
  5
33E
330
1
100
AcDbSymbolTableRecord
100
AcDbBlockTableRecord
  2
BLOCK_62
  0
BLOCK_RECORD
  5
346
330
1
100
AcDbSymbolTableRecord
100
AcDbBlockTableRecord
  2
BLOCK_63
  0
BLOCK_RECORD
  5
34E
330
1
100
AcDbSymbolTableRecord
100
AcDbBlockTableRecord
  2
BLOCK_64
  0
BLOCK_RECORD
  5
356
330
1
100
AcDbSymbolTableRecord
100
AcDbBlockTableRecord
  2
BLOCK_65
  0
BLOCK_RECORD
  5
35E
330
1
100
AcDbSymbolTableRecord
100
AcDbBlockTableRecord
  2
BLOCK_66
  0
BLOCK_RECORD
  5
375
330
1
100
AcDbSymbolTableRecord
100
AcDbBlockTableRecord
  2
BLOCK_67
  0
BLOCK_RECORD
  5
37D
330
1
100
AcDbSymbolTableRecord
100
AcDbBlockTableRecord
  2
BLOCK_68
  0
BLOCK_RECORD
  5
385
330
1
100
AcDbSymbolTableRecord
100
AcDbBlockTableRecord
  2
BLOCK_69
  0
BLOCK_RECORD
  5
38D
330
1
100
AcDbSymbolTableRecord
100
AcDbBlockTableRecord
  2
BLOCK_70
  0
BLOCK_RECORD
  5
395
330
1
100
AcDbSymbolTableRecord
100
AcDbBlockTableRecord
  2
BLOCK_71
  0
BLOCK_RECORD
  5
39D
330
1
100
AcDbSymbolTableRecord
100
AcDbBlockTableRecord
  2
BLOCK_72
  0
BLOCK_RECORD
  5
3A5
330
1
100
AcDbSymbolTableRecord
100
AcDbBlockTableRecord
  2
BLOCK_73
  0
BLOCK_RECORD
  5
3AD
330
1
100
AcDbSymbolTableRecord
100
AcDbBlockTableRecord
  2
BLOCK_74
  0
BLOCK_RECORD
  5
3B5
330
1
100
AcDbSymbolTableRecord
100
AcDbBlockTableRecord
  2
BLOCK_75
  0
BLOCK_RECORD
  5
3CC
330
1
100
AcDbSymbolTableRecord
100
AcDbBlockTableRecord
  2
BLOCK_76
  0
BLOCK_RECORD
  5
3D4
330
1
100
AcDbSymbolTableRecord
100
AcDbBlockTableRecord
  2
BLOCK_77
  0
BLOCK_RECORD
  5
3DC
330
1
100
AcDbSymbolTableRecord
100
AcDbBlockTableRecord
  2
BLOCK_78
  0
BLOCK_RECORD
  5
3E4
330
1
100
AcDbSymbolTableRecord
100
AcDbBlockTableRecord
  2
BLOCK_79
  0
BLOCK_RECORD
  5
3EC
330
1
100
AcDbSymbolTableRecord
100
AcDbBlockTableRecord
  2
BLOCK_80
  0
BLOCK_RECORD
  5
3F4
330
1
100
AcDbSymbolTableRecord
100
AcDbBlockTableRecord
  2
BLOCK_81
  0
BLOCK_RECORD
  5
3FC
330
1
100
AcDbSymbolTableRecord
100
AcDbBlockTableRecord
  2
BLOCK_82
  0
BLOCK_RECORD
  5
404
330
1
100
AcDbSymbolTableRecord
100
AcDbBlockTableRecord
  2
BLOCK_83
  0
BLOCK_RECORD
  5
41B
330
1
100
AcDbSymbolTableRecord
100
AcDbBlockTableRecord
  2
BLOCK_84
  0
BLOCK_RECORD
  5
423
330
1
100
AcDbSymbolTableRecord
100
AcDbBlockTableRecord
  2
BLOCK_85
  0
BLOCK_RECORD
  5
42B
330
1
100
AcDbSymbolTableRecord
100
AcDbBlockTableRecord
  2
BLOCK_86
  0
BLOCK_RECORD
  5
433
330
1
100
AcDbSymbolTableRecord
100
AcDbBlockTableRecord
  2
BLOCK_87
  0
BLOCK_RECORD
  5
43B
330
1
100
AcDbSymbolTableRecord
100
AcDbBlockTableRecord
  2
BLOCK_88
  0
BLOCK_RECORD
  5
443
330
1
100
AcDbSymbolTableRecord
100
AcDbBlockTableRecord
  2
BLOCK_89
  0
BLOCK_RECORD
  5
44B
330
1
100
AcDbSymbolTableRecord
100
AcDbBlockTableRecord
  2
BLOCK_90
  0
BLOCK_RECORD
  5
462
330
1
100
AcDbSymbolTableRecord
100
AcDbBlockTableRecord
  2
BLOCK_91
  0
BLOCK_RECORD
  5
46A
330
1
100
AcDbSymbolTableRecord
100
AcDbBlockTableRecord
  2
BLOCK_92
  0
BLOCK_RECORD
  5
472
330
1
100
AcDbSymbolTableRecord
100
AcDbBlockTableRecord
  2
BLOCK_93
  0
BLOCK_RECORD
  5
492
330
1
100
AcDbSymbolTableRecord
100
AcDbBlockTableRecord
  2
BLOCK_94
  0
BLOCK_RECORD
  5
49A
330
1
100
AcDbSymbolTableRecord
100
AcDbBlockTableRecord
  2
BLOCK_95
  0
ENDTAB
  0
ENDSEC
  0
SECTION
  2
BLOCKS
  0
BLOCK
  5
20
330
1F
100
AcDbEntity
  8
0
100
AcDbBlockBegin
  2
*MODEL_SPACE
 70
     0
 71
     0
 10
0.0
 20
0.0
 30
0.0
  3
*MODEL_SPACE
  1

  0
ENDBLK
  5
21
330
1F
100
AcDbEntity
  8
0
100
AcDbBlockEnd
  0
BLOCK
  5
1C
330
1B
100
AcDbEntity
 67
     1
  8
0
100
AcDbBlockBegin
  2
*PAPER_SPACE
 70
     0
 71
     0
 10
0.0
 20
0.0
 30
0.0
  3
*PAPER_SPACE
  1

  0
ENDBLK
  5
1D
330
1B
100
AcDbEntity
 67
     1
  8
0
100
AcDbBlockEnd
  0
BLOCK
  5
D0
330
CE
100
AcDbEntity
  8
0
100
AcDbBlockBegin
  2
BLOCK_2
 70
     0
 71
     0
 10
0.0
 20
0.0
 30
0.0
  3
BLOCK_2
  1

  0
POLYLINE
  5
D2
330
CE
100
AcDbEntity
  8
MOUNTAINLINE
 62
     7
100
AcDb2dPolyline
 66
     1
 10
0.0
 20
0.0
 30
0.0
  0
VERTEX
  5
D3
330
D2
100
AcDbEntity
  8
MOUNTAINLINE
 62
     7
100
AcDbVertex
100
AcDb2dVertex
 10
84.352990701568
 20
-134.6145222645235
 30
0.0
  0
VERTEX
  5
D4
330
D2
100
AcDbEntity
  8
MOUNTAINLINE
 62
     7
100
AcDbVertex
100
AcDb2dVertex
 10
79.07837725887624
 20
-154.2906683642051
 30
0.0
  0
SEQEND
  5
D5
330
D2
100
AcDbEntity
  8
MOUNTAINLINE
  0
ENDBLK
  5
D1
330
CE
100
AcDbEntity
  8
0
100
AcDbBlockEnd
  0
BLOCK
  5
D8
330
D6
100
AcDbEntity
  8
0
100
AcDbBlockBegin
  2
BLOCK_3
 70
     0
 71
     0
 10
0.0
 20
0.0
 30
0.0
  3
BLOCK_3
  1

  0
POLYLINE
  5
DA
330
D6
100
AcDbEntity
  8
MOUNTAINLINE
 62
     7
100
AcDb2dPolyline
 66
     1
 10
0.0
 20
0.0
 30
0.0
  0
VERTEX
  5
DB
330
DA
100
AcDbEntity
  8
MOUNTAINLINE
 62
     7
100
AcDbVertex
100
AcDb2dVertex
 10
79.07837725887624
 20
-154.2906683642051
 30
0.0
  0
VERTEX
  5
DC
330
DA
100
AcDbEntity
  8
MOUNTAINLINE
 62
     7
100
AcDbVertex
100
AcDb2dVertex
 10
55.81657577814655
 20
-144.450442129686
 30
0.0
  0
SEQEND
  5
DD
330
DA
100
AcDbEntity
  8
MOUNTAINLINE
  0
ENDBLK
  5
D9
330
D6
100
AcDbEntity
  8
0
100
AcDbBlockEnd
  0
BLOCK
  5
E0
330
DE
100
AcDbEntity
  8
0
100
AcDbBlockBegin
  2
BLOCK_4
 70
     0
 71
     0
 10
0.0
 20
0.0
 30
0.0
  3
BLOCK_4
  1

  0
POLYLINE
  5
E2
330
DE
100
AcDbEntity
  8
MOUNTAINLINE
 62
     7
100
AcDb2dPolyline
 66
     1
 10
0.0
 20
0.0
 30
0.0
  0
VERTEX
  5
E3
330
E2
100
AcDbEntity
  8
MOUNTAINLINE
 62
     7
100
AcDbVertex
100
AcDb2dVertex
 10
55.81709254246934
 20
-144.4509588940088
 30
0.0
  0
VERTEX
  5
E4
330
E2
100
AcDbEntity
  8
MOUNTAINLINE
 62
     7
100
AcDbVertex
100
AcDb2dVertex
 10
47.67495387262988
 20
-154.289290326011
 30
0.0
  0
SEQEND
  5
E5
330
E2
100
AcDbEntity
  8
MOUNTAINLINE
  0
ENDBLK
  5
E1
330
DE
100
AcDbEntity
  8
0
100
AcDbBlockEnd
  0
BLOCK
  5
E8
330
E6
100
AcDbEntity
  8
0
100
AcDbBlockBegin
  2
BLOCK_5
 70
     0
 71
     0
 10
0.0
 20
0.0
 30
0.0
  3
BLOCK_5
  1

  0
POLYLINE
  5
EA
330
E6
100
AcDbEntity
  8
MOUNTAINLINE
 62
     7
100
AcDb2dPolyline
 66
     1
 10
0.0
 20
0.0
 30
0.0
  0
VERTEX
  5
EB
330
EA
100
AcDbEntity
  8
MOUNTAINLINE
 62
     7
100
AcDbVertex
100
AcDb2dVertex
 10
118.5436685901558
 20
-134.6145222645235
 30
0.0
  0
VERTEX
  5
EC
330
EA
100
AcDbEntity
  8
MOUNTAINLINE
 62
     7
100
AcDbVertex
100
AcDb2dVertex
 10
117.884966333376
 20
-137.0739759314433
 30
0.0
  0
VERTEX
  5
ED
330
EA
100
AcDbEntity
  8
MOUNTAINLINE
 62
     7
100
AcDbVertex
100
AcDb2dVertex
 10
117.1825113639335
 20
-139.5334295983632
 30
0.0
  0
VERTEX
  5
EE
330
EA
100
AcDbEntity
  8
MOUNTAINLINE
 62
     7
100
AcDbVertex
100
AcDb2dVertex
 10
116.2047932652196
 20
-141.9937445391543
 30
0.0
  0
VERTEX
  5
EF
330
EA
100
AcDbEntity
  8
MOUNTAINLINE
 62
     7
100
AcDbVertex
100
AcDb2dVertex
 10
114.6166042465195
 20
-144.453714970397
 30
0.0
  0
VERTEX
  5
F0
330
EA
100
AcDbEntity
  8
MOUNTAINLINE
 62
     7
100
AcDbVertex
100
AcDb2dVertex
 10
112.121321586553
 20
-146.9126518729941
 30
0.0
  0
VERTEX
  5
F1
330
EA
100
AcDbEntity
  8
MOUNTAINLINE
 62
     7
100
AcDbVertex
100
AcDb2dVertex
 10
108.9387423772792
 20
-149.0648030226296
 30
0.0
  0
VERTEX
  5
F2
330
EA
100
AcDbEntity
  8
MOUNTAINLINE
 62
     7
100
AcDbVertex
100
AcDb2dVertex
 10
105.3043388951149
 20
-150.6023491376966
 30
0.0
  0
VERTEX
  5
F3
330
EA
100
AcDbEntity
  8
MOUNTAINLINE
 62
     7
100
AcDbVertex
100
AcDb2dVertex
 10
101.4489325375718
 20
-151.2179877009108
 30
0.0
  0
VERTEX
  5
F4
330
EA
100
AcDbEntity
  8
MOUNTAINLINE
 62
     7
100
AcDbVertex
100
AcDb2dVertex
 10
97.59214814183461
 20
-150.6023491376966
 30
0.0
  0
VERTEX
  5
F5
330
EA
100
AcDbEntity
  8
MOUNTAINLINE
 62
     7
100
AcDbVertex
100
AcDb2dVertex
 10
93.9577446596703
 20
-149.0648030226296
 30
0.0
  0
VERTEX
  5
F6
330
EA
100
AcDbEntity
  8
MOUNTAINLINE
 62
     7
100
AcDbVertex
100
AcDb2dVertex
 10
90.77550995994501
 20
-146.9126518729941
 30
0.0
  0
VERTEX
  5
F7
330
EA
100
AcDbEntity
  8
MOUNTAINLINE
 62
     7
100
AcDbVertex
100
AcDb2dVertex
 10
88.27936602610724
 20
-144.453714970397
 30
0.0
  0
VERTEX
  5
F8
330
EA
100
AcDbEntity
  8
MOUNTAINLINE
 62
     7
100
AcDbVertex
100
AcDb2dVertex
 10
86.69134926218133
 20
-141.9937445391543
 30
0.0
  0
VERTEX
  5
F9
330
EA
100
AcDbEntity
  8
MOUNTAINLINE
 62
     7
100
AcDbVertex
100
AcDb2dVertex
 10
85.71414792779022
 20
-139.5334295983632
 30
0.0
  0
VERTEX
  5
FA
330
EA
100
AcDbEntity
  8
MOUNTAINLINE
 62
     7
100
AcDbVertex
100
AcDb2dVertex
 10
85.01220972267056
 20
-137.0739759314433
 30
0.0
  0
VERTEX
  5
FB
330
EA
100
AcDbEntity
  8
MOUNTAINLINE
 62
     7
100
AcDbVertex
100
AcDb2dVertex
 10
84.352990701568
 20
-134.6145222645235
 30
0.0
  0
SEQEND
  5
FC
330
EA
100
AcDbEntity
  8
MOUNTAINLINE
  0
ENDBLK
  5
E9
330
E6
100
AcDbEntity
  8
0
100
AcDbBlockEnd
  0
BLOCK
  5
FF
330
FD
100
AcDbEntity
  8
0
100
AcDbBlockBegin
  2
BLOCK_6
 70
     0
 71
     0
 10
0.0
 20
0.0
 30
0.0
  3
BLOCK_6
  1

  0
POLYLINE
  5
101
330
FD
100
AcDbEntity
  8
MOUNTAINLINE
 62
     7
100
AcDb2dPolyline
 66
     1
 10
0.0
 20
0.0
 30
0.0
  0
VERTEX
  5
102
330
101
100
AcDbEntity
  8
MOUNTAINLINE
 62
     7
100
AcDbVertex
100
AcDb2dVertex
 10
118.5436685901558
 20
-134.6145222645235
 30
0.0
  0
VERTEX
  5
103
330
101
100
AcDbEntity
  8
MOUNTAINLINE
 62
     7
100
AcDbVertex
100
AcDb2dVertex
 10
123.8181097780733
 20
-154.2906683642051
 30
0.0
  0
SEQEND
  5
104
330
101
100
AcDbEntity
  8
MOUNTAINLINE
  0
ENDBLK
  5
100
330
FD
100
AcDbEntity
  8
0
100
AcDbBlockEnd
  0
BLOCK
  5
107
330
105
100
AcDbEntity
  8
0
100
AcDbBlockBegin
  2
BLOCK_7
 70
     0
 71
     0
 10
0.0
 20
0.0
 30
0.0
  3
BLOCK_7
  1

  0
POLYLINE
  5
109
330
105
100
AcDbEntity
  8
MOUNTAINLINE
 62
     7
100
AcDb2dPolyline
 66
     1
 10
0.0
 20
0.0
 30
0.0
  0
VERTEX
  5
10A
330
109
100
AcDbEntity
  8
MOUNTAINLINE
 62
     7
100
AcDbVertex
100
AcDb2dVertex
 10
123.8181097780733
 20
-154.2906683642051
 30
0.0
  0
VERTEX
  5
10B
330
109
100
AcDbEntity
  8
MOUNTAINLINE
 62
     7
100
AcDbVertex
100
AcDb2dVertex
 10
147.0793944944802
 20
-144.450442129686
 30
0.0
  0
SEQEND
  5
10C
330
109
100
AcDbEntity
  8
MOUNTAINLINE
  0
ENDBLK
  5
108
330
105
100
AcDbEntity
  8
0
100
AcDbBlockEnd
  0
BLOCK
  5
10F
330
10D
100
AcDbEntity
  8
0
100
AcDbBlockBegin
  2
BLOCK_8
 70
     0
 71
     0
 10
0.0
 20
0.0
 30
0.0
  3
BLOCK_8
  1

  0
POLYLINE
  5
111
330
10D
100
AcDbEntity
  8
MOUNTAINLINE
 62
     7
100
AcDb2dPolyline
 66
     1
 10
0.0
 20
0.0
 30
0.0
  0
VERTEX
  5
112
330
111
100
AcDbEntity
  8
MOUNTAINLINE
 62
     7
100
AcDbVertex
100
AcDb2dVertex
 10
147.0793944944802
 20
-144.4509588940088
 30
0.0
  0
VERTEX
  5
113
330
111
100
AcDbEntity
  8
MOUNTAINLINE
 62
     7
100
AcDbVertex
100
AcDb2dVertex
 10
155.2218776738681
 20
-154.289290326011
 30
0.0
  0
SEQEND
  5
114
330
111
100
AcDbEntity
  8
MOUNTAINLINE
  0
ENDBLK
  5
110
330
10D
100
AcDbEntity
  8
0
100
AcDbBlockEnd
  0
BLOCK
  5
117
330
115
100
AcDbEntity
  8
0
100
AcDbBlockBegin
  2
BLOCK_9
 70
     0
 71
     0
 10
0.0
 20
0.0
 30
0.0
  3
BLOCK_9
  1

  0
POLYLINE
  5
119
330
115
100
AcDbEntity
  8
MOUNTAINLINE
 62
     7
100
AcDb2dPolyline
 66
     1
 10
0.0
 20
0.0
 30
0.0
  0
VERTEX
  5
11A
330
119
100
AcDbEntity
  8
MOUNTAINLINE
 62
     7
100
AcDbVertex
100
AcDb2dVertex
 10
84.352990701568
 20
-134.6145222645235
 30
0.0
  0
VERTEX
  5
11B
330
119
100
AcDbEntity
  8
MOUNTAINLINE
 62
     7
100
AcDbVertex
100
AcDb2dVertex
 10
79.07837725887624
 20
-114.9387206743903
 30
0.0
  0
SEQEND
  5
11C
330
119
100
AcDbEntity
  8
MOUNTAINLINE
  0
ENDBLK
  5
118
330
115
100
AcDbEntity
  8
0
100
AcDbBlockEnd
  0
BLOCK
  5
11F
330
11D
100
AcDbEntity
  8
0
100
AcDbBlockBegin
  2
BLOCK_10
 70
     0
 71
     0
 10
0.0
 20
0.0
 30
0.0
  3
BLOCK_10
  1

  0
POLYLINE
  5
121
330
11D
100
AcDbEntity
  8
MOUNTAINLINE
 62
     7
100
AcDb2dPolyline
 66
     1
 10
0.0
 20
0.0
 30
0.0
  0
VERTEX
  5
122
330
121
100
AcDbEntity
  8
MOUNTAINLINE
 62
     7
100
AcDbVertex
100
AcDb2dVertex
 10
79.07837725887624
 20
-114.9387206743903
 30
0.0
  0
VERTEX
  5
123
330
121
100
AcDbEntity
  8
MOUNTAINLINE
 62
     7
100
AcDbVertex
100
AcDb2dVertex
 10
55.81657577814655
 20
-124.7784301445867
 30
0.0
  0
SEQEND
  5
124
330
121
100
AcDbEntity
  8
MOUNTAINLINE
  0
ENDBLK
  5
120
330
11D
100
AcDbEntity
  8
0
100
AcDbBlockEnd
  0
BLOCK
  5
127
330
125
100
AcDbEntity
  8
0
100
AcDbBlockBegin
  2
BLOCK_11
 70
     0
 71
     0
 10
0.0
 20
0.0
 30
0.0
  3
BLOCK_11
  1

  0
POLYLINE
  5
129
330
125
100
AcDbEntity
  8
MOUNTAINLINE
 62
     7
100
AcDb2dPolyline
 66
     1
 10
0.0
 20
0.0
 30
0.0
  0
VERTEX
  5
12A
330
129
100
AcDbEntity
  8
MOUNTAINLINE
 62
     7
100
AcDbVertex
100
AcDb2dVertex
 10
55.81709254246934
 20
-124.7784301445867
 30
0.0
  0
VERTEX
  5
12B
330
129
100
AcDbEntity
  8
MOUNTAINLINE
 62
     7
100
AcDbVertex
100
AcDb2dVertex
 10
47.67495387262988
 20
-114.9397542030359
 30
0.0
  0
SEQEND
  5
12C
330
129
100
AcDbEntity
  8
MOUNTAINLINE
  0
ENDBLK
  5
128
330
125
100
AcDbEntity
  8
0
100
AcDbBlockEnd
  0
BLOCK
  5
12F
330
12D
100
AcDbEntity
  8
0
100
AcDbBlockBegin
  2
BLOCK_12
 70
     0
 71
     0
 10
0.0
 20
0.0
 30
0.0
  3
BLOCK_12
  1

  0
POLYLINE
  5
131
330
12D
100
AcDbEntity
  8
MOUNTAINLINE
 62
     7
100
AcDb2dPolyline
 66
     1
 10
0.0
 20
0.0
 30
0.0
  0
VERTEX
  5
132
330
131
100
AcDbEntity
  8
MOUNTAINLINE
 62
     7
100
AcDbVertex
100
AcDb2dVertex
 10
118.5436685901558
 20
-134.6145222645235
 30
0.0
  0
VERTEX
  5
133
330
131
100
AcDbEntity
  8
MOUNTAINLINE
 62
     7
100
AcDbVertex
100
AcDb2dVertex
 10
117.884966333376
 20
-132.1550685976036
 30
0.0
  0
VERTEX
  5
134
330
131
100
AcDbEntity
  8
MOUNTAINLINE
 62
     7
100
AcDbVertex
100
AcDb2dVertex
 10
117.1825113639335
 20
-129.6956149306837
 30
0.0
  0
VERTEX
  5
135
330
131
100
AcDbEntity
  8
MOUNTAINLINE
 62
     7
100
AcDbVertex
100
AcDb2dVertex
 10
116.2047932652196
 20
-127.2361612637639
 30
0.0
  0
VERTEX
  5
136
330
131
100
AcDbEntity
  8
MOUNTAINLINE
 62
     7
100
AcDbVertex
100
AcDb2dVertex
 10
114.6166042465195
 20
-124.7756740681985
 30
0.0
  0
VERTEX
  5
137
330
131
100
AcDbEntity
  8
MOUNTAINLINE
 62
     7
100
AcDbVertex
100
AcDb2dVertex
 10
112.121321586553
 20
-122.3167371656014
 30
0.0
  0
VERTEX
  5
138
330
131
100
AcDbEntity
  8
MOUNTAINLINE
 62
     7
100
AcDbVertex
100
AcDb2dVertex
 10
108.9387423772792
 20
-120.164069251643
 30
0.0
  0
VERTEX
  5
139
330
131
100
AcDbEntity
  8
MOUNTAINLINE
 62
     7
100
AcDbVertex
100
AcDb2dVertex
 10
105.3043388951149
 20
-118.626523136576
 30
0.0
  0
VERTEX
  5
13A
330
131
100
AcDbEntity
  8
MOUNTAINLINE
 62
     7
100
AcDbVertex
100
AcDb2dVertex
 10
101.4489325375718
 20
-118.0110568281361
 30
0.0
  0
VERTEX
  5
13B
330
131
100
AcDbEntity
  8
MOUNTAINLINE
 62
     7
100
AcDbVertex
100
AcDb2dVertex
 10
97.59214814183461
 20
-118.626523136576
 30
0.0
  0
VERTEX
  5
13C
330
131
100
AcDbEntity
  8
MOUNTAINLINE
 62
     7
100
AcDbVertex
100
AcDb2dVertex
 10
93.9577446596703
 20
-120.164069251643
 30
0.0
  0
VERTEX
  5
13D
330
131
100
AcDbEntity
  8
MOUNTAINLINE
 62
     7
100
AcDbVertex
100
AcDb2dVertex
 10
90.77550995994501
 20
-122.3167371656014
 30
0.0
  0
VERTEX
  5
13E
330
131
100
AcDbEntity
  8
MOUNTAINLINE
 62
     7
100
AcDbVertex
100
AcDb2dVertex
 10
88.27936602610724
 20
-124.7756740681985
 30
0.0
  0
VERTEX
  5
13F
330
131
100
AcDbEntity
  8
MOUNTAINLINE
 62
     7
100
AcDbVertex
100
AcDb2dVertex
 10
86.69134926218133
 20
-127.2361612637639
 30
0.0
  0
VERTEX
  5
140
330
131
100
AcDbEntity
  8
MOUNTAINLINE
 62
     7
100
AcDbVertex
100
AcDb2dVertex
 10
85.71414792779022
 20
-129.6956149306837
 30
0.0
  0
VERTEX
  5
141
330
131
100
AcDbEntity
  8
MOUNTAINLINE
 62
     7
100
AcDbVertex
100
AcDb2dVertex
 10
85.01220972267056
 20
-132.1550685976036
 30
0.0
  0
VERTEX
  5
142
330
131
100
AcDbEntity
  8
MOUNTAINLINE
 62
     7
100
AcDbVertex
100
AcDb2dVertex
 10
84.352990701568
 20
-134.6145222645235
 30
0.0
  0
SEQEND
  5
143
330
131
100
AcDbEntity
  8
MOUNTAINLINE
  0
ENDBLK
  5
130
330
12D
100
AcDbEntity
  8
0
100
AcDbBlockEnd
  0
BLOCK
  5
146
330
144
100
AcDbEntity
  8
0
100
AcDbBlockBegin
  2
BLOCK_13
 70
     0
 71
     0
 10
0.0
 20
0.0
 30
0.0
  3
BLOCK_13
  1

  0
POLYLINE
  5
148
330
144
100
AcDbEntity
  8
MOUNTAINLINE
 62
     7
100
AcDb2dPolyline
 66
     1
 10
0.0
 20
0.0
 30
0.0
  0
VERTEX
  5
149
330
148
100
AcDbEntity
  8
MOUNTAINLINE
 62
     7
100
AcDbVertex
100
AcDb2dVertex
 10
118.5436685901558
 20
-134.6145222645235
 30
0.0
  0
VERTEX
  5
14A
330
148
100
AcDbEntity
  8
MOUNTAINLINE
 62
     7
100
AcDbVertex
100
AcDb2dVertex
 10
123.8181097780733
 20
-114.9387206743903
 30
0.0
  0
SEQEND
  5
14B
330
148
100
AcDbEntity
  8
MOUNTAINLINE
  0
ENDBLK
  5
147
330
144
100
AcDbEntity
  8
0
100
AcDbBlockEnd
  0
BLOCK
  5
14E
330
14C
100
AcDbEntity
  8
0
100
AcDbBlockBegin
  2
BLOCK_14
 70
     0
 71
     0
 10
0.0
 20
0.0
 30
0.0
  3
BLOCK_14
  1

  0
POLYLINE
  5
150
330
14C
100
AcDbEntity
  8
MOUNTAINLINE
 62
     7
100
AcDb2dPolyline
 66
     1
 10
0.0
 20
0.0
 30
0.0
  0
VERTEX
  5
151
330
150
100
AcDbEntity
  8
MOUNTAINLINE
 62
     7
100
AcDbVertex
100
AcDb2dVertex
 10
123.8181097780733
 20
-114.9387206743903
 30
0.0
  0
VERTEX
  5
152
330
150
100
AcDbEntity
  8
MOUNTAINLINE
 62
     7
100
AcDbVertex
100
AcDb2dVertex
 10
147.0793944944802
 20
-124.7784301445867
 30
0.0
  0
SEQEND
  5
153
330
150
100
AcDbEntity
  8
MOUNTAINLINE
  0
ENDBLK
  5
14F
330
14C
100
AcDbEntity
  8
0
100
AcDbBlockEnd
  0
BLOCK
  5
156
330
154
100
AcDbEntity
  8
0
100
AcDbBlockBegin
  2
BLOCK_15
 70
     0
 71
     0
 10
0.0
 20
0.0
 30
0.0
  3
BLOCK_15
  1

  0
POLYLINE
  5
158
330
154
100
AcDbEntity
  8
MOUNTAINLINE
 62
     7
100
AcDb2dPolyline
 66
     1
 10
0.0
 20
0.0
 30
0.0
  0
VERTEX
  5
159
330
158
100
AcDbEntity
  8
MOUNTAINLINE
 62
     7
100
AcDbVertex
100
AcDb2dVertex
 10
147.0793944944802
 20
-124.7784301445867
 30
0.0
  0
VERTEX
  5
15A
330
158
100
AcDbEntity
  8
MOUNTAINLINE
 62
     7
100
AcDbVertex
100
AcDb2dVertex
 10
155.2218776738681
 20
-114.9397542030359
 30
0.0
  0
SEQEND
  5
15B
330
158
100
AcDbEntity
  8
MOUNTAINLINE
  0
ENDBLK
  5
157
330
154
100
AcDbEntity
  8
0
100
AcDbBlockEnd
  0
BLOCK
  5
15E
330
15C
100
AcDbEntity
  8
0
100
AcDbBlockBegin
  2
BLOCK_16
 70
     0
 71
     0
 10
0.0
 20
0.0
 30
0.0
  3
BLOCK_16
  1

  0
POLYLINE
  5
160
330
15C
100
AcDbEntity
  8
MOUNTAINLINE
 62
     7
100
AcDb2dPolyline
 66
     1
 10
0.0
 20
0.0
 30
0.0
  0
VERTEX
  5
161
330
160
100
AcDbEntity
  8
MOUNTAINLINE
 62
     7
100
AcDbVertex
100
AcDb2dVertex
 10
84.352990701568
 20
-95.26533065109686
 30
0.0
  0
VERTEX
  5
162
330
160
100
AcDbEntity
  8
MOUNTAINLINE
 62
     7
100
AcDbVertex
100
AcDb2dVertex
 10
79.07837725887624
 20
-114.9414767507785
 30
0.0
  0
SEQEND
  5
163
330
160
100
AcDbEntity
  8
MOUNTAINLINE
  0
ENDBLK
  5
15F
330
15C
100
AcDbEntity
  8
0
100
AcDbBlockEnd
  0
BLOCK
  5
166
330
164
100
AcDbEntity
  8
0
100
AcDbBlockBegin
  2
BLOCK_17
 70
     0
 71
     0
 10
0.0
 20
0.0
 30
0.0
  3
BLOCK_17
  1

  0
POLYLINE
  5
168
330
164
100
AcDbEntity
  8
MOUNTAINLINE
 62
     7
100
AcDb2dPolyline
 66
     1
 10
0.0
 20
0.0
 30
0.0
  0
VERTEX
  5
169
330
168
100
AcDbEntity
  8
MOUNTAINLINE
 62
     7
100
AcDbVertex
100
AcDb2dVertex
 10
79.07837725887624
 20
-114.9414767507785
 30
0.0
  0
VERTEX
  5
16A
330
168
100
AcDbEntity
  8
MOUNTAINLINE
 62
     7
100
AcDbVertex
100
AcDb2dVertex
 10
55.81657577814655
 20
-105.1014227710337
 30
0.0
  0
SEQEND
  5
16B
330
168
100
AcDbEntity
  8
MOUNTAINLINE
  0
ENDBLK
  5
167
330
164
100
AcDbEntity
  8
0
100
AcDbBlockEnd
  0
BLOCK
  5
16E
330
16C
100
AcDbEntity
  8
0
100
AcDbBlockBegin
  2
BLOCK_18
 70
     0
 71
     0
 10
0.0
 20
0.0
 30
0.0
  3
BLOCK_18
  1

  0
POLYLINE
  5
170
330
16C
100
AcDbEntity
  8
MOUNTAINLINE
 62
     7
100
AcDb2dPolyline
 66
     1
 10
0.0
 20
0.0
 30
0.0
  0
VERTEX
  5
171
330
170
100
AcDbEntity
  8
MOUNTAINLINE
 62
     7
100
AcDbVertex
100
AcDb2dVertex
 10
55.81709254246934
 20
-105.1017672805822
 30
0.0
  0
VERTEX
  5
172
330
170
100
AcDbEntity
  8
MOUNTAINLINE
 62
     7
100
AcDbVertex
100
AcDb2dVertex
 10
47.67495387262988
 20
-114.9397542030359
 30
0.0
  0
SEQEND
  5
173
330
170
100
AcDbEntity
  8
MOUNTAINLINE
  0
ENDBLK
  5
16F
330
16C
100
AcDbEntity
  8
0
100
AcDbBlockEnd
  0
BLOCK
  5
176
330
174
100
AcDbEntity
  8
0
100
AcDbBlockBegin
  2
BLOCK_19
 70
     0
 71
     0
 10
0.0
 20
0.0
 30
0.0
  3
BLOCK_19
  1

  0
POLYLINE
  5
178
330
174
100
AcDbEntity
  8
MOUNTAINLINE
 62
     7
100
AcDb2dPolyline
 66
     1
 10
0.0
 20
0.0
 30
0.0
  0
VERTEX
  5
179
330
178
100
AcDbEntity
  8
MOUNTAINLINE
 62
     7
100
AcDbVertex
100
AcDb2dVertex
 10
47.67495387262988
 20
-114.9397542030359
 30
0.0
  0
VERTEX
  5
17A
330
178
100
AcDbEntity
  8
MOUNTAINLINE
 62
     7
100
AcDbVertex
100
AcDb2dVertex
 10
39.97154811283698
 20
-114.9397542030359
 30
0.0
  0
SEQEND
  5
17B
330
178
100
AcDbEntity
  8
MOUNTAINLINE
  0
ENDBLK
  5
177
330
174
100
AcDbEntity
  8
0
100
AcDbBlockEnd
  0
BLOCK
  5
17E
330
17C
100
AcDbEntity
  8
0
100
AcDbBlockBegin
  2
BLOCK_20
 70
     0
 71
     0
 10
0.0
 20
0.0
 30
0.0
  3
BLOCK_20
  1

  0
POLYLINE
  5
180
330
17C
100
AcDbEntity
  8
MOUNTAINLINE
 62
     7
100
AcDb2dPolyline
 66
     1
 10
0.0
 20
0.0
 30
0.0
  0
VERTEX
  5
181
330
180
100
AcDbEntity
  8
MOUNTAINLINE
 62
     7
100
AcDbVertex
100
AcDb2dVertex
 10
118.5436685901558
 20
-95.26533065109686
 30
0.0
  0
VERTEX
  5
182
330
180
100
AcDbEntity
  8
MOUNTAINLINE
 62
     7
100
AcDbVertex
100
AcDb2dVertex
 10
117.884966333376
 20
-97.72478431801673
 30
0.0
  0
VERTEX
  5
183
330
180
100
AcDbEntity
  8
MOUNTAINLINE
 62
     7
100
AcDbVertex
100
AcDb2dVertex
 10
117.1825113639335
 20
-100.1842379849366
 30
0.0
  0
VERTEX
  5
184
330
180
100
AcDbEntity
  8
MOUNTAINLINE
 62
     7
100
AcDbVertex
100
AcDb2dVertex
 10
116.2047932652196
 20
-102.6442084161792
 30
0.0
  0
VERTEX
  5
185
330
180
100
AcDbEntity
  8
MOUNTAINLINE
 62
     7
100
AcDbVertex
100
AcDb2dVertex
 10
114.6166042465195
 20
-105.1036620830991
 30
0.0
  0
VERTEX
  5
186
330
180
100
AcDbEntity
  8
MOUNTAINLINE
 62
     7
100
AcDbVertex
100
AcDb2dVertex
 10
112.121321586553
 20
-107.5636325143417
 30
0.0
  0
VERTEX
  5
187
330
180
100
AcDbEntity
  8
MOUNTAINLINE
 62
     7
100
AcDbVertex
100
AcDb2dVertex
 10
108.9387423772792
 20
-109.7163004283001
 30
0.0
  0
VERTEX
  5
188
330
180
100
AcDbEntity
  8
MOUNTAINLINE
 62
     7
100
AcDbVertex
100
AcDb2dVertex
 10
105.3043388951149
 20
-111.2536742885928
 30
0.0
  0
VERTEX
  5
189
330
180
100
AcDbEntity
  8
MOUNTAINLINE
 62
     7
100
AcDbVertex
100
AcDb2dVertex
 10
101.4489325375718
 20
-111.8684515779357
 30
0.0
  0
VERTEX
  5
18A
330
180
100
AcDbEntity
  8
MOUNTAINLINE
 62
     7
100
AcDbVertex
100
AcDb2dVertex
 10
97.59214814183461
 20
-111.2536742885928
 30
0.0
  0
VERTEX
  5
18B
330
180
100
AcDbEntity
  8
MOUNTAINLINE
 62
     7
100
AcDbVertex
100
AcDb2dVertex
 10
93.9577446596703
 20
-109.7163004283001
 30
0.0
  0
VERTEX
  5
18C
330
180
100
AcDbEntity
  8
MOUNTAINLINE
 62
     7
100
AcDbVertex
100
AcDb2dVertex
 10
90.77550995994501
 20
-107.5636325143417
 30
0.0
  0
VERTEX
  5
18D
330
180
100
AcDbEntity
  8
MOUNTAINLINE
 62
     7
100
AcDbVertex
100
AcDb2dVertex
 10
88.27936602610724
 20
-105.1036620830991
 30
0.0
  0
VERTEX
  5
18E
330
180
100
AcDbEntity
  8
MOUNTAINLINE
 62
     7
100
AcDbVertex
100
AcDb2dVertex
 10
86.69134926218133
 20
-102.6442084161792
 30
0.0
  0
VERTEX
  5
18F
330
180
100
AcDbEntity
  8
MOUNTAINLINE
 62
     7
100
AcDbVertex
100
AcDb2dVertex
 10
85.71414792779022
 20
-100.1842379849366
 30
0.0
  0
VERTEX
  5
190
330
180
100
AcDbEntity
  8
MOUNTAINLINE
 62
     7
100
AcDbVertex
100
AcDb2dVertex
 10
85.01220972267056
 20
-97.72478431801673
 30
0.0
  0
VERTEX
  5
191
330
180
100
AcDbEntity
  8
MOUNTAINLINE
 62
     7
100
AcDbVertex
100
AcDb2dVertex
 10
84.352990701568
 20
-95.26533065109686
 30
0.0
  0
SEQEND
  5
192
330
180
100
AcDbEntity
  8
MOUNTAINLINE
  0
ENDBLK
  5
17F
330
17C
100
AcDbEntity
  8
0
100
AcDbBlockEnd
  0
BLOCK
  5
195
330
193
100
AcDbEntity
  8
0
100
AcDbBlockBegin
  2
BLOCK_21
 70
     0
 71
     0
 10
0.0
 20
0.0
 30
0.0
  3
BLOCK_21
  1

  0
POLYLINE
  5
197
330
193
100
AcDbEntity
  8
MOUNTAINLINE
 62
     7
100
AcDb2dPolyline
 66
     1
 10
0.0
 20
0.0
 30
0.0
  0
VERTEX
  5
198
330
197
100
AcDbEntity
  8
MOUNTAINLINE
 62
     7
100
AcDbVertex
100
AcDb2dVertex
 10
118.5436685901558
 20
-95.26533065109686
 30
0.0
  0
VERTEX
  5
199
330
197
100
AcDbEntity
  8
MOUNTAINLINE
 62
     7
100
AcDbVertex
100
AcDb2dVertex
 10
123.8181097780733
 20
-114.9414767507785
 30
0.0
  0
SEQEND
  5
19A
330
197
100
AcDbEntity
  8
MOUNTAINLINE
  0
ENDBLK
  5
196
330
193
100
AcDbEntity
  8
0
100
AcDbBlockEnd
  0
BLOCK
  5
19D
330
19B
100
AcDbEntity
  8
0
100
AcDbBlockBegin
  2
BLOCK_22
 70
     0
 71
     0
 10
0.0
 20
0.0
 30
0.0
  3
BLOCK_22
  1

  0
POLYLINE
  5
19F
330
19B
100
AcDbEntity
  8
MOUNTAINLINE
 62
     7
100
AcDb2dPolyline
 66
     1
 10
0.0
 20
0.0
 30
0.0
  0
VERTEX
  5
1A0
330
19F
100
AcDbEntity
  8
MOUNTAINLINE
 62
     7
100
AcDbVertex
100
AcDb2dVertex
 10
123.8181097780733
 20
-114.9414767507785
 30
0.0
  0
VERTEX
  5
1A1
330
19F
100
AcDbEntity
  8
MOUNTAINLINE
 62
     7
100
AcDbVertex
100
AcDb2dVertex
 10
147.0793944944802
 20
-105.1014227710337
 30
0.0
  0
SEQEND
  5
1A2
330
19F
100
AcDbEntity
  8
MOUNTAINLINE
  0
ENDBLK
  5
19E
330
19B
100
AcDbEntity
  8
0
100
AcDbBlockEnd
  0
BLOCK
  5
1A5
330
1A3
100
AcDbEntity
  8
0
100
AcDbBlockBegin
  2
BLOCK_23
 70
     0
 71
     0
 10
0.0
 20
0.0
 30
0.0
  3
BLOCK_23
  1

  0
POLYLINE
  5
1A7
330
1A3
100
AcDbEntity
  8
MOUNTAINLINE
 62
     7
100
AcDb2dPolyline
 66
     1
 10
0.0
 20
0.0
 30
0.0
  0
VERTEX
  5
1A8
330
1A7
100
AcDbEntity
  8
MOUNTAINLINE
 62
     7
100
AcDbVertex
100
AcDb2dVertex
 10
147.0793944944802
 20
-105.1017672805822
 30
0.0
  0
VERTEX
  5
1A9
330
1A7
100
AcDbEntity
  8
MOUNTAINLINE
 62
     7
100
AcDbVertex
100
AcDb2dVertex
 10
155.2218776738681
 20
-114.9397542030359
 30
0.0
  0
SEQEND
  5
1AA
330
1A7
100
AcDbEntity
  8
MOUNTAINLINE
  0
ENDBLK
  5
1A6
330
1A3
100
AcDbEntity
  8
0
100
AcDbBlockEnd
  0
BLOCK
  5
1AD
330
1AB
100
AcDbEntity
  8
0
100
AcDbBlockBegin
  2
BLOCK_24
 70
     0
 71
     0
 10
0.0
 20
0.0
 30
0.0
  3
BLOCK_24
  1

  0
POLYLINE
  5
1AF
330
1AB
100
AcDbEntity
  8
MOUNTAINLINE
 62
     7
100
AcDb2dPolyline
 66
     1
 10
0.0
 20
0.0
 30
0.0
  0
VERTEX
  5
1B0
330
1AF
100
AcDbEntity
  8
MOUNTAINLINE
 62
     7
100
AcDbVertex
100
AcDb2dVertex
 10
155.2218776738681
 20
-114.9397542030359
 30
0.0
  0
VERTEX
  5
1B1
330
1AF
100
AcDbEntity
  8
MOUNTAINLINE
 62
     7
100
AcDbVertex
100
AcDb2dVertex
 10
162.9251111788868
 20
-114.9397542030359
 30
0.0
  0
SEQEND
  5
1B2
330
1AF
100
AcDbEntity
  8
MOUNTAINLINE
  0
ENDBLK
  5
1AE
330
1AB
100
AcDbEntity
  8
0
100
AcDbBlockEnd
  0
BLOCK
  5
1B5
330
1B3
100
AcDbEntity
  8
0
100
AcDbBlockBegin
  2
BLOCK_25
 70
     0
 71
     0
 10
0.0
 20
0.0
 30
0.0
  3
BLOCK_25
  1

  0
POLYLINE
  5
1B7
330
1B3
100
AcDbEntity
  8
MOUNTAINLINE
 62
     7
100
AcDb2dPolyline
 66
     1
 10
0.0
 20
0.0
 30
0.0
  0
VERTEX
  5
1B8
330
1B7
100
AcDbEntity
  8
MOUNTAINLINE
 62
     7
100
AcDbVertex
100
AcDb2dVertex
 10
84.352990701568
 20
-95.26533065109686
 30
0.0
  0
VERTEX
  5
1B9
330
1B7
100
AcDbEntity
  8
MOUNTAINLINE
 62
     7
100
AcDbVertex
100
AcDb2dVertex
 10
79.07837725887624
 20
-75.5891845514152
 30
0.0
  0
SEQEND
  5
1BA
330
1B7
100
AcDbEntity
  8
MOUNTAINLINE
  0
ENDBLK
  5
1B6
330
1B3
100
AcDbEntity
  8
0
100
AcDbBlockEnd
  0
BLOCK
  5
1BD
330
1BB
100
AcDbEntity
  8
0
100
AcDbBlockBegin
  2
BLOCK_26
 70
     0
 71
     0
 10
0.0
 20
0.0
 30
0.0
  3
BLOCK_26
  1

  0
POLYLINE
  5
1BF
330
1BB
100
AcDbEntity
  8
MOUNTAINLINE
 62
     7
100
AcDb2dPolyline
 66
     1
 10
0.0
 20
0.0
 30
0.0
  0
VERTEX
  5
1C0
330
1BF
100
AcDbEntity
  8
MOUNTAINLINE
 62
     7
100
AcDbVertex
100
AcDb2dVertex
 10
79.07837725887624
 20
-75.5891845514152
 30
0.0
  0
VERTEX
  5
1C1
330
1BF
100
AcDbEntity
  8
MOUNTAINLINE
 62
     7
100
AcDbVertex
100
AcDb2dVertex
 10
55.81657577814655
 20
-85.42923853116005
 30
0.0
  0
SEQEND
  5
1C2
330
1BF
100
AcDbEntity
  8
MOUNTAINLINE
  0
ENDBLK
  5
1BE
330
1BB
100
AcDbEntity
  8
0
100
AcDbBlockEnd
  0
BLOCK
  5
1C5
330
1C3
100
AcDbEntity
  8
0
100
AcDbBlockBegin
  2
BLOCK_27
 70
     0
 71
     0
 10
0.0
 20
0.0
 30
0.0
  3
BLOCK_27
  1

  0
POLYLINE
  5
1C7
330
1C3
100
AcDbEntity
  8
MOUNTAINLINE
 62
     7
100
AcDb2dPolyline
 66
     1
 10
0.0
 20
0.0
 30
0.0
  0
VERTEX
  5
1C8
330
1C7
100
AcDbEntity
  8
MOUNTAINLINE
 62
     7
100
AcDbVertex
100
AcDb2dVertex
 10
55.81709254246934
 20
-85.42889402161153
 30
0.0
  0
VERTEX
  5
1C9
330
1C7
100
AcDbEntity
  8
MOUNTAINLINE
 62
     7
100
AcDbVertex
100
AcDb2dVertex
 10
47.67495387262988
 20
-75.59073484438358
 30
0.0
  0
SEQEND
  5
1CA
330
1C7
100
AcDbEntity
  8
MOUNTAINLINE
  0
ENDBLK
  5
1C6
330
1C3
100
AcDbEntity
  8
0
100
AcDbBlockEnd
  0
BLOCK
  5
1CD
330
1CB
100
AcDbEntity
  8
0
100
AcDbBlockBegin
  2
BLOCK_28
 70
     0
 71
     0
 10
0.0
 20
0.0
 30
0.0
  3
BLOCK_28
  1

  0
POLYLINE
  5
1CF
330
1CB
100
AcDbEntity
  8
MOUNTAINLINE
 62
     7
100
AcDb2dPolyline
 66
     1
 10
0.0
 20
0.0
 30
0.0
  0
VERTEX
  5
1D0
330
1CF
100
AcDbEntity
  8
MOUNTAINLINE
 62
     7
100
AcDbVertex
100
AcDb2dVertex
 10
47.67495387262988
 20
-75.59073484438358
 30
0.0
  0
VERTEX
  5
1D1
330
1CF
100
AcDbEntity
  8
MOUNTAINLINE
 62
     7
100
AcDbVertex
100
AcDb2dVertex
 10
39.97154811283698
 20
-75.59073484438358
 30
0.0
  0
SEQEND
  5
1D2
330
1CF
100
AcDbEntity
  8
MOUNTAINLINE
  0
ENDBLK
  5
1CE
330
1CB
100
AcDbEntity
  8
0
100
AcDbBlockEnd
  0
BLOCK
  5
1D5
330
1D3
100
AcDbEntity
  8
0
100
AcDbBlockBegin
  2
BLOCK_29
 70
     0
 71
     0
 10
0.0
 20
0.0
 30
0.0
  3
BLOCK_29
  1

  0
POLYLINE
  5
1D7
330
1D3
100
AcDbEntity
  8
MOUNTAINLINE
 62
     7
100
AcDb2dPolyline
 66
     1
 10
0.0
 20
0.0
 30
0.0
  0
VERTEX
  5
1D8
330
1D7
100
AcDbEntity
  8
MOUNTAINLINE
 62
     7
100
AcDbVertex
100
AcDb2dVertex
 10
118.5436685901558
 20
-95.26533065109686
 30
0.0
  0
VERTEX
  5
1D9
330
1D7
100
AcDbEntity
  8
MOUNTAINLINE
 62
     7
100
AcDbVertex
100
AcDb2dVertex
 10
117.884966333376
 20
-92.805876984177
 30
0.0
  0
VERTEX
  5
1DA
330
1D7
100
AcDbEntity
  8
MOUNTAINLINE
 62
     7
100
AcDbVertex
100
AcDb2dVertex
 10
117.1825113639335
 20
-90.34642331725715
 30
0.0
  0
VERTEX
  5
1DB
330
1D7
100
AcDbEntity
  8
MOUNTAINLINE
 62
     7
100
AcDbVertex
100
AcDb2dVertex
 10
116.2047932652196
 20
-87.8864528860145
 30
0.0
  0
VERTEX
  5
1DC
330
1D7
100
AcDbEntity
  8
MOUNTAINLINE
 62
     7
100
AcDbVertex
100
AcDb2dVertex
 10
114.6166042465195
 20
-85.42648245477186
 30
0.0
  0
VERTEX
  5
1DD
330
1D7
100
AcDbEntity
  8
MOUNTAINLINE
 62
     7
100
AcDbVertex
100
AcDb2dVertex
 10
112.121321586553
 20
-82.967028787852
 30
0.0
  0
VERTEX
  5
1DE
330
1D7
100
AcDbEntity
  8
MOUNTAINLINE
 62
     7
100
AcDbVertex
100
AcDb2dVertex
 10
108.9387423772792
 20
-80.81470538344216
 30
0.0
  0
VERTEX
  5
1DF
330
1D7
100
AcDbEntity
  8
MOUNTAINLINE
 62
     7
100
AcDbVertex
100
AcDb2dVertex
 10
105.3043388951149
 20
-79.27715926837516
 30
0.0
  0
VERTEX
  5
1E0
330
1D7
100
AcDbEntity
  8
MOUNTAINLINE
 62
     7
100
AcDbVertex
100
AcDb2dVertex
 10
101.4489325375718
 20
-78.66186521470954
 30
0.0
  0
VERTEX
  5
1E1
330
1D7
100
AcDbEntity
  8
MOUNTAINLINE
 62
     7
100
AcDbVertex
100
AcDb2dVertex
 10
97.59214814183461
 20
-79.27715926837516
 30
0.0
  0
VERTEX
  5
1E2
330
1D7
100
AcDbEntity
  8
MOUNTAINLINE
 62
     7
100
AcDbVertex
100
AcDb2dVertex
 10
93.9577446596703
 20
-80.81470538344216
 30
0.0
  0
VERTEX
  5
1E3
330
1D7
100
AcDbEntity
  8
MOUNTAINLINE
 62
     7
100
AcDbVertex
100
AcDb2dVertex
 10
90.77550995994501
 20
-82.967028787852
 30
0.0
  0
VERTEX
  5
1E4
330
1D7
100
AcDbEntity
  8
MOUNTAINLINE
 62
     7
100
AcDbVertex
100
AcDb2dVertex
 10
88.27936602610724
 20
-85.42648245477186
 30
0.0
  0
VERTEX
  5
1E5
330
1D7
100
AcDbEntity
  8
MOUNTAINLINE
 62
     7
100
AcDbVertex
100
AcDb2dVertex
 10
86.69134926218133
 20
-87.8864528860145
 30
0.0
  0
VERTEX
  5
1E6
330
1D7
100
AcDbEntity
  8
MOUNTAINLINE
 62
     7
100
AcDbVertex
100
AcDb2dVertex
 10
85.71414792779022
 20
-90.34642331725715
 30
0.0
  0
VERTEX
  5
1E7
330
1D7
100
AcDbEntity
  8
MOUNTAINLINE
 62
     7
100
AcDbVertex
100
AcDb2dVertex
 10
85.01220972267056
 20
-92.805876984177
 30
0.0
  0
VERTEX
  5
1E8
330
1D7
100
AcDbEntity
  8
MOUNTAINLINE
 62
     7
100
AcDbVertex
100
AcDb2dVertex
 10
84.352990701568
 20
-95.26533065109686
 30
0.0
  0
SEQEND
  5
1E9
330
1D7
100
AcDbEntity
  8
MOUNTAINLINE
  0
ENDBLK
  5
1D6
330
1D3
100
AcDbEntity
  8
0
100
AcDbBlockEnd
  0
BLOCK
  5
1EC
330
1EA
100
AcDbEntity
  8
0
100
AcDbBlockBegin
  2
BLOCK_30
 70
     0
 71
     0
 10
0.0
 20
0.0
 30
0.0
  3
BLOCK_30
  1

  0
POLYLINE
  5
1EE
330
1EA
100
AcDbEntity
  8
MOUNTAINLINE
 62
     7
100
AcDb2dPolyline
 66
     1
 10
0.0
 20
0.0
 30
0.0
  0
VERTEX
  5
1EF
330
1EE
100
AcDbEntity
  8
MOUNTAINLINE
 62
     7
100
AcDbVertex
100
AcDb2dVertex
 10
118.5436685901558
 20
-95.26533065109686
 30
0.0
  0
VERTEX
  5
1F0
330
1EE
100
AcDbEntity
  8
MOUNTAINLINE
 62
     7
100
AcDbVertex
100
AcDb2dVertex
 10
123.8181097780733
 20
-75.5891845514152
 30
0.0
  0
SEQEND
  5
1F1
330
1EE
100
AcDbEntity
  8
MOUNTAINLINE
  0
ENDBLK
  5
1ED
330
1EA
100
AcDbEntity
  8
0
100
AcDbBlockEnd
  0
BLOCK
  5
1F4
330
1F2
100
AcDbEntity
  8
0
100
AcDbBlockBegin
  2
BLOCK_31
 70
     0
 71
     0
 10
0.0
 20
0.0
 30
0.0
  3
BLOCK_31
  1

  0
POLYLINE
  5
1F6
330
1F2
100
AcDbEntity
  8
MOUNTAINLINE
 62
     7
100
AcDb2dPolyline
 66
     1
 10
0.0
 20
0.0
 30
0.0
  0
VERTEX
  5
1F7
330
1F6
100
AcDbEntity
  8
MOUNTAINLINE
 62
     7
100
AcDbVertex
100
AcDb2dVertex
 10
123.8181097780733
 20
-75.5891845514152
 30
0.0
  0
VERTEX
  5
1F8
330
1F6
100
AcDbEntity
  8
MOUNTAINLINE
 62
     7
100
AcDbVertex
100
AcDb2dVertex
 10
147.0793944944802
 20
-85.42923853116005
 30
0.0
  0
SEQEND
  5
1F9
330
1F6
100
AcDbEntity
  8
MOUNTAINLINE
  0
ENDBLK
  5
1F5
330
1F2
100
AcDbEntity
  8
0
100
AcDbBlockEnd
  0
BLOCK
  5
1FC
330
1FA
100
AcDbEntity
  8
0
100
AcDbBlockBegin
  2
BLOCK_32
 70
     0
 71
     0
 10
0.0
 20
0.0
 30
0.0
  3
BLOCK_32
  1

  0
POLYLINE
  5
1FE
330
1FA
100
AcDbEntity
  8
MOUNTAINLINE
 62
     7
100
AcDb2dPolyline
 66
     1
 10
0.0
 20
0.0
 30
0.0
  0
VERTEX
  5
1FF
330
1FE
100
AcDbEntity
  8
MOUNTAINLINE
 62
     7
100
AcDbVertex
100
AcDb2dVertex
 10
147.0793944944802
 20
-85.42889402161153
 30
0.0
  0
VERTEX
  5
200
330
1FE
100
AcDbEntity
  8
MOUNTAINLINE
 62
     7
100
AcDbVertex
100
AcDb2dVertex
 10
155.2218776738681
 20
-75.59073484438358
 30
0.0
  0
SEQEND
  5
201
330
1FE
100
AcDbEntity
  8
MOUNTAINLINE
  0
ENDBLK
  5
1FD
330
1FA
100
AcDbEntity
  8
0
100
AcDbBlockEnd
  0
BLOCK
  5
204
330
202
100
AcDbEntity
  8
0
100
AcDbBlockBegin
  2
BLOCK_33
 70
     0
 71
     0
 10
0.0
 20
0.0
 30
0.0
  3
BLOCK_33
  1

  0
POLYLINE
  5
206
330
202
100
AcDbEntity
  8
MOUNTAINLINE
 62
     7
100
AcDb2dPolyline
 66
     1
 10
0.0
 20
0.0
 30
0.0
  0
VERTEX
  5
207
330
206
100
AcDbEntity
  8
MOUNTAINLINE
 62
     7
100
AcDbVertex
100
AcDb2dVertex
 10
155.2218776738681
 20
-75.59073484438358
 30
0.0
  0
VERTEX
  5
208
330
206
100
AcDbEntity
  8
MOUNTAINLINE
 62
     7
100
AcDbVertex
100
AcDb2dVertex
 10
162.9251111788868
 20
-75.59073484438358
 30
0.0
  0
SEQEND
  5
209
330
206
100
AcDbEntity
  8
MOUNTAINLINE
  0
ENDBLK
  5
205
330
202
100
AcDbEntity
  8
0
100
AcDbBlockEnd
  0
BLOCK
  5
20C
330
20A
100
AcDbEntity
  8
0
100
AcDbBlockBegin
  2
BLOCK_34
 70
     0
 71
     0
 10
0.0
 20
0.0
 30
0.0
  3
BLOCK_34
  1

  0
POLYLINE
  5
20E
330
20A
100
AcDbEntity
  8
MOUNTAINLINE
 62
     7
100
AcDb2dPolyline
 66
     1
 10
0.0
 20
0.0
 30
0.0
  0
VERTEX
  5
20F
330
20E
100
AcDbEntity
  8
MOUNTAINLINE
 62
     7
100
AcDbVertex
100
AcDb2dVertex
 10
84.352990701568
 20
-55.91269394218502
 30
0.0
  0
VERTEX
  5
210
330
20E
100
AcDbEntity
  8
MOUNTAINLINE
 62
     7
100
AcDbVertex
100
AcDb2dVertex
 10
79.07837725887624
 20
-75.5891845514152
 30
0.0
  0
SEQEND
  5
211
330
20E
100
AcDbEntity
  8
MOUNTAINLINE
  0
ENDBLK
  5
20D
330
20A
100
AcDbEntity
  8
0
100
AcDbBlockEnd
  0
BLOCK
  5
214
330
212
100
AcDbEntity
  8
0
100
AcDbBlockBegin
  2
BLOCK_35
 70
     0
 71
     0
 10
0.0
 20
0.0
 30
0.0
  3
BLOCK_35
  1

  0
POLYLINE
  5
216
330
212
100
AcDbEntity
  8
MOUNTAINLINE
 62
     7
100
AcDb2dPolyline
 66
     1
 10
0.0
 20
0.0
 30
0.0
  0
VERTEX
  5
217
330
216
100
AcDbEntity
  8
MOUNTAINLINE
 62
     7
100
AcDbVertex
100
AcDb2dVertex
 10
79.07837725887624
 20
-75.5891845514152
 30
0.0
  0
VERTEX
  5
218
330
216
100
AcDbEntity
  8
MOUNTAINLINE
 62
     7
100
AcDbVertex
100
AcDb2dVertex
 10
55.81657577814655
 20
-65.74878606212184
 30
0.0
  0
SEQEND
  5
219
330
216
100
AcDbEntity
  8
MOUNTAINLINE
  0
ENDBLK
  5
215
330
212
100
AcDbEntity
  8
0
100
AcDbBlockEnd
  0
BLOCK
  5
21C
330
21A
100
AcDbEntity
  8
0
100
AcDbBlockBegin
  2
BLOCK_36
 70
     0
 71
     0
 10
0.0
 20
0.0
 30
0.0
  3
BLOCK_36
  1

  0
POLYLINE
  5
21E
330
21A
100
AcDbEntity
  8
MOUNTAINLINE
 62
     7
100
AcDb2dPolyline
 66
     1
 10
0.0
 20
0.0
 30
0.0
  0
VERTEX
  5
21F
330
21E
100
AcDbEntity
  8
MOUNTAINLINE
 62
     7
100
AcDbVertex
100
AcDb2dVertex
 10
55.81709254246934
 20
-65.74913057167036
 30
0.0
  0
VERTEX
  5
220
330
21E
100
AcDbEntity
  8
MOUNTAINLINE
 62
     7
100
AcDbVertex
100
AcDb2dVertex
 10
47.67495387262988
 20
-75.58746200367258
 30
0.0
  0
SEQEND
  5
221
330
21E
100
AcDbEntity
  8
MOUNTAINLINE
  0
ENDBLK
  5
21D
330
21A
100
AcDbEntity
  8
0
100
AcDbBlockEnd
  0
BLOCK
  5
224
330
222
100
AcDbEntity
  8
0
100
AcDbBlockBegin
  2
BLOCK_37
 70
     0
 71
     0
 10
0.0
 20
0.0
 30
0.0
  3
BLOCK_37
  1

  0
POLYLINE
  5
226
330
222
100
AcDbEntity
  8
MOUNTAINLINE
 62
     7
100
AcDb2dPolyline
 66
     1
 10
0.0
 20
0.0
 30
0.0
  0
VERTEX
  5
227
330
226
100
AcDbEntity
  8
MOUNTAINLINE
 62
     7
100
AcDbVertex
100
AcDb2dVertex
 10
118.5436685901558
 20
-55.91269394218502
 30
0.0
  0
VERTEX
  5
228
330
226
100
AcDbEntity
  8
MOUNTAINLINE
 62
     7
100
AcDbVertex
100
AcDb2dVertex
 10
117.884966333376
 20
-58.37231986387914
 30
0.0
  0
VERTEX
  5
229
330
226
100
AcDbEntity
  8
MOUNTAINLINE
 62
     7
100
AcDbVertex
100
AcDb2dVertex
 10
117.1825113639335
 20
-60.83194578557327
 30
0.0
  0
VERTEX
  5
22A
330
226
100
AcDbEntity
  8
MOUNTAINLINE
 62
     7
100
AcDbVertex
100
AcDb2dVertex
 10
116.2047932652196
 20
-63.29157170726739
 30
0.0
  0
VERTEX
  5
22B
330
226
100
AcDbEntity
  8
MOUNTAINLINE
 62
     7
100
AcDbVertex
100
AcDb2dVertex
 10
114.6166042465195
 20
-65.7517143932843
 30
0.0
  0
VERTEX
  5
22C
330
226
100
AcDbEntity
  8
MOUNTAINLINE
 62
     7
100
AcDbVertex
100
AcDb2dVertex
 10
112.121321586553
 20
-68.21099580542989
 30
0.0
  0
VERTEX
  5
22D
330
226
100
AcDbEntity
  8
MOUNTAINLINE
 62
     7
100
AcDbVertex
100
AcDb2dVertex
 10
108.9387423772792
 20
-70.36331920983973
 30
0.0
  0
VERTEX
  5
22E
330
226
100
AcDbEntity
  8
MOUNTAINLINE
 62
     7
100
AcDbVertex
100
AcDb2dVertex
 10
105.3043388951149
 20
-71.90103757968099
 30
0.0
  0
VERTEX
  5
22F
330
226
100
AcDbEntity
  8
MOUNTAINLINE
 62
     7
100
AcDbVertex
100
AcDb2dVertex
 10
101.4489325375718
 20
-72.51650388812088
 30
0.0
  0
VERTEX
  5
230
330
226
100
AcDbEntity
  8
MOUNTAINLINE
 62
     7
100
AcDbVertex
100
AcDb2dVertex
 10
97.59214814183461
 20
-71.90103757968099
 30
0.0
  0
VERTEX
  5
231
330
226
100
AcDbEntity
  8
MOUNTAINLINE
 62
     7
100
AcDbVertex
100
AcDb2dVertex
 10
93.9577446596703
 20
-70.36331920983973
 30
0.0
  0
VERTEX
  5
232
330
226
100
AcDbEntity
  8
MOUNTAINLINE
 62
     7
100
AcDbVertex
100
AcDb2dVertex
 10
90.77550995994501
 20
-68.21099580542989
 30
0.0
  0
VERTEX
  5
233
330
226
100
AcDbEntity
  8
MOUNTAINLINE
 62
     7
100
AcDbVertex
100
AcDb2dVertex
 10
88.27936602610724
 20
-65.7517143932843
 30
0.0
  0
VERTEX
  5
234
330
226
100
AcDbEntity
  8
MOUNTAINLINE
 62
     7
100
AcDbVertex
100
AcDb2dVertex
 10
86.69134926218133
 20
-63.29157170726739
 30
0.0
  0
VERTEX
  5
235
330
226
100
AcDbEntity
  8
MOUNTAINLINE
 62
     7
100
AcDbVertex
100
AcDb2dVertex
 10
85.71414792779022
 20
-60.83194578557327
 30
0.0
  0
VERTEX
  5
236
330
226
100
AcDbEntity
  8
MOUNTAINLINE
 62
     7
100
AcDbVertex
100
AcDb2dVertex
 10
85.01220972267056
 20
-58.37231986387914
 30
0.0
  0
VERTEX
  5
237
330
226
100
AcDbEntity
  8
MOUNTAINLINE
 62
     7
100
AcDbVertex
100
AcDb2dVertex
 10
84.352990701568
 20
-55.91269394218502
 30
0.0
  0
SEQEND
  5
238
330
226
100
AcDbEntity
  8
MOUNTAINLINE
  0
ENDBLK
  5
225
330
222
100
AcDbEntity
  8
0
100
AcDbBlockEnd
  0
BLOCK
  5
23B
330
239
100
AcDbEntity
  8
0
100
AcDbBlockBegin
  2
BLOCK_38
 70
     0
 71
     0
 10
0.0
 20
0.0
 30
0.0
  3
BLOCK_38
  1

  0
POLYLINE
  5
23D
330
239
100
AcDbEntity
  8
MOUNTAINLINE
 62
     7
100
AcDb2dPolyline
 66
     1
 10
0.0
 20
0.0
 30
0.0
  0
VERTEX
  5
23E
330
23D
100
AcDbEntity
  8
MOUNTAINLINE
 62
     7
100
AcDbVertex
100
AcDb2dVertex
 10
118.5436685901558
 20
-55.91269394218502
 30
0.0
  0
VERTEX
  5
23F
330
23D
100
AcDbEntity
  8
MOUNTAINLINE
 62
     7
100
AcDbVertex
100
AcDb2dVertex
 10
123.8181097780733
 20
-75.5891845514152
 30
0.0
  0
SEQEND
  5
240
330
23D
100
AcDbEntity
  8
MOUNTAINLINE
  0
ENDBLK
  5
23C
330
239
100
AcDbEntity
  8
0
100
AcDbBlockEnd
  0
BLOCK
  5
243
330
241
100
AcDbEntity
  8
0
100
AcDbBlockBegin
  2
BLOCK_39
 70
     0
 71
     0
 10
0.0
 20
0.0
 30
0.0
  3
BLOCK_39
  1

  0
POLYLINE
  5
245
330
241
100
AcDbEntity
  8
MOUNTAINLINE
 62
     7
100
AcDb2dPolyline
 66
     1
 10
0.0
 20
0.0
 30
0.0
  0
VERTEX
  5
246
330
245
100
AcDbEntity
  8
MOUNTAINLINE
 62
     7
100
AcDbVertex
100
AcDb2dVertex
 10
123.8181097780733
 20
-75.5891845514152
 30
0.0
  0
VERTEX
  5
247
330
245
100
AcDbEntity
  8
MOUNTAINLINE
 62
     7
100
AcDbVertex
100
AcDb2dVertex
 10
147.0793944944802
 20
-65.74878606212184
 30
0.0
  0
SEQEND
  5
248
330
245
100
AcDbEntity
  8
MOUNTAINLINE
  0
ENDBLK
  5
244
330
241
100
AcDbEntity
  8
0
100
AcDbBlockEnd
  0
BLOCK
  5
24B
330
249
100
AcDbEntity
  8
0
100
AcDbBlockBegin
  2
BLOCK_40
 70
     0
 71
     0
 10
0.0
 20
0.0
 30
0.0
  3
BLOCK_40
  1

  0
POLYLINE
  5
24D
330
249
100
AcDbEntity
  8
MOUNTAINLINE
 62
     7
100
AcDb2dPolyline
 66
     1
 10
0.0
 20
0.0
 30
0.0
  0
VERTEX
  5
24E
330
24D
100
AcDbEntity
  8
MOUNTAINLINE
 62
     7
100
AcDbVertex
100
AcDb2dVertex
 10
147.0793944944802
 20
-65.74913057167036
 30
0.0
  0
VERTEX
  5
24F
330
24D
100
AcDbEntity
  8
MOUNTAINLINE
 62
     7
100
AcDbVertex
100
AcDb2dVertex
 10
155.2218776738681
 20
-75.58746200367258
 30
0.0
  0
SEQEND
  5
250
330
24D
100
AcDbEntity
  8
MOUNTAINLINE
  0
ENDBLK
  5
24C
330
249
100
AcDbEntity
  8
0
100
AcDbBlockEnd
  0
BLOCK
  5
253
330
251
100
AcDbEntity
  8
0
100
AcDbBlockBegin
  2
BLOCK_41
 70
     0
 71
     0
 10
0.0
 20
0.0
 30
0.0
  3
BLOCK_41
  1

  0
POLYLINE
  5
255
330
251
100
AcDbEntity
  8
MOUNTAINLINE
 62
     7
100
AcDb2dPolyline
 66
     1
 10
0.0
 20
0.0
 30
0.0
  0
VERTEX
  5
256
330
255
100
AcDbEntity
  8
MOUNTAINLINE
 62
     7
100
AcDbVertex
100
AcDb2dVertex
 10
84.352990701568
 20
-55.91269394218502
 30
0.0
  0
VERTEX
  5
257
330
255
100
AcDbEntity
  8
MOUNTAINLINE
 62
     7
100
AcDbVertex
100
AcDb2dVertex
 10
79.07837725887624
 20
-36.23672009727763
 30
0.0
  0
SEQEND
  5
258
330
255
100
AcDbEntity
  8
MOUNTAINLINE
  0
ENDBLK
  5
254
330
251
100
AcDbEntity
  8
0
100
AcDbBlockEnd
  0
BLOCK
  5
25B
330
259
100
AcDbEntity
  8
0
100
AcDbBlockBegin
  2
BLOCK_42
 70
     0
 71
     0
 10
0.0
 20
0.0
 30
0.0
  3
BLOCK_42
  1

  0
POLYLINE
  5
25D
330
259
100
AcDbEntity
  8
MOUNTAINLINE
 62
     7
100
AcDb2dPolyline
 66
     1
 10
0.0
 20
0.0
 30
0.0
  0
VERTEX
  5
25E
330
25D
100
AcDbEntity
  8
MOUNTAINLINE
 62
     7
100
AcDbVertex
100
AcDb2dVertex
 10
79.07837725887624
 20
-36.23672009727763
 30
0.0
  0
VERTEX
  5
25F
330
25D
100
AcDbEntity
  8
MOUNTAINLINE
 62
     7
100
AcDbVertex
100
AcDb2dVertex
 10
55.81657577814655
 20
-46.07694633179674
 30
0.0
  0
SEQEND
  5
260
330
25D
100
AcDbEntity
  8
MOUNTAINLINE
  0
ENDBLK
  5
25C
330
259
100
AcDbEntity
  8
0
100
AcDbBlockEnd
  0
BLOCK
  5
263
330
261
100
AcDbEntity
  8
0
100
AcDbBlockBegin
  2
BLOCK_43
 70
     0
 71
     0
 10
0.0
 20
0.0
 30
0.0
  3
BLOCK_43
  1

  0
POLYLINE
  5
265
330
261
100
AcDbEntity
  8
MOUNTAINLINE
 62
     7
100
AcDb2dPolyline
 66
     1
 10
0.0
 20
0.0
 30
0.0
  0
VERTEX
  5
266
330
265
100
AcDbEntity
  8
MOUNTAINLINE
 62
     7
100
AcDbVertex
100
AcDb2dVertex
 10
55.81709254246934
 20
-46.07642956747395
 30
0.0
  0
VERTEX
  5
267
330
265
100
AcDbEntity
  8
MOUNTAINLINE
 62
     7
100
AcDbVertex
100
AcDb2dVertex
 10
47.67495387262988
 20
-36.23809813547173
 30
0.0
  0
SEQEND
  5
268
330
265
100
AcDbEntity
  8
MOUNTAINLINE
  0
ENDBLK
  5
264
330
261
100
AcDbEntity
  8
0
100
AcDbBlockEnd
  0
BLOCK
  5
26B
330
269
100
AcDbEntity
  8
0
100
AcDbBlockBegin
  2
BLOCK_44
 70
     0
 71
     0
 10
0.0
 20
0.0
 30
0.0
  3
BLOCK_44
  1

  0
POLYLINE
  5
26D
330
269
100
AcDbEntity
  8
MOUNTAINLINE
 62
     7
100
AcDb2dPolyline
 66
     1
 10
0.0
 20
0.0
 30
0.0
  0
VERTEX
  5
26E
330
26D
100
AcDbEntity
  8
MOUNTAINLINE
 62
     7
100
AcDbVertex
100
AcDb2dVertex
 10
118.5436685901558
 20
-55.91269394218502
 30
0.0
  0
VERTEX
  5
26F
330
26D
100
AcDbEntity
  8
MOUNTAINLINE
 62
     7
100
AcDbVertex
100
AcDb2dVertex
 10
117.884966333376
 20
-53.45324027526517
 30
0.0
  0
VERTEX
  5
270
330
26D
100
AcDbEntity
  8
MOUNTAINLINE
 62
     7
100
AcDbVertex
100
AcDb2dVertex
 10
117.1825113639335
 20
-50.9937866083453
 30
0.0
  0
VERTEX
  5
271
330
26D
100
AcDbEntity
  8
MOUNTAINLINE
 62
     7
100
AcDbVertex
100
AcDb2dVertex
 10
116.2047932652196
 20
-48.53398843187692
 30
0.0
  0
VERTEX
  5
272
330
26D
100
AcDbEntity
  8
MOUNTAINLINE
 62
     7
100
AcDbVertex
100
AcDb2dVertex
 10
114.6166042465195
 20
-46.07419025540854
 30
0.0
  0
VERTEX
  5
273
330
26D
100
AcDbEntity
  8
MOUNTAINLINE
 62
     7
100
AcDbVertex
100
AcDb2dVertex
 10
112.121321586553
 20
-43.61473658848868
 30
0.0
  0
VERTEX
  5
274
330
26D
100
AcDbEntity
  8
MOUNTAINLINE
 62
     7
100
AcDbVertex
100
AcDb2dVertex
 10
108.9387423772792
 20
-41.46224092930458
 30
0.0
  0
VERTEX
  5
275
330
26D
100
AcDbEntity
  8
MOUNTAINLINE
 62
     7
100
AcDbVertex
100
AcDb2dVertex
 10
105.3043388951149
 20
-39.92469481423758
 30
0.0
  0
VERTEX
  5
276
330
26D
100
AcDbEntity
  8
MOUNTAINLINE
 62
     7
100
AcDbVertex
100
AcDb2dVertex
 10
101.4489325375718
 20
-39.30940076057195
 30
0.0
  0
VERTEX
  5
277
330
26D
100
AcDbEntity
  8
MOUNTAINLINE
 62
     7
100
AcDbVertex
100
AcDb2dVertex
 10
97.59214814183461
 20
-39.92469481423758
 30
0.0
  0
VERTEX
  5
278
330
26D
100
AcDbEntity
  8
MOUNTAINLINE
 62
     7
100
AcDbVertex
100
AcDb2dVertex
 10
93.9577446596703
 20
-41.46224092930458
 30
0.0
  0
VERTEX
  5
279
330
26D
100
AcDbEntity
  8
MOUNTAINLINE
 62
     7
100
AcDbVertex
100
AcDb2dVertex
 10
90.77550995994501
 20
-43.61473658848868
 30
0.0
  0
VERTEX
  5
27A
330
26D
100
AcDbEntity
  8
MOUNTAINLINE
 62
     7
100
AcDbVertex
100
AcDb2dVertex
 10
88.27936602610724
 20
-46.07419025540854
 30
0.0
  0
VERTEX
  5
27B
330
26D
100
AcDbEntity
  8
MOUNTAINLINE
 62
     7
100
AcDbVertex
100
AcDb2dVertex
 10
86.69134926218133
 20
-48.53398843187692
 30
0.0
  0
VERTEX
  5
27C
330
26D
100
AcDbEntity
  8
MOUNTAINLINE
 62
     7
100
AcDbVertex
100
AcDb2dVertex
 10
85.71414792779022
 20
-50.9937866083453
 30
0.0
  0
VERTEX
  5
27D
330
26D
100
AcDbEntity
  8
MOUNTAINLINE
 62
     7
100
AcDbVertex
100
AcDb2dVertex
 10
85.01220972267056
 20
-53.45324027526517
 30
0.0
  0
VERTEX
  5
27E
330
26D
100
AcDbEntity
  8
MOUNTAINLINE
 62
     7
100
AcDbVertex
100
AcDb2dVertex
 10
84.352990701568
 20
-55.91269394218502
 30
0.0
  0
SEQEND
  5
27F
330
26D
100
AcDbEntity
  8
MOUNTAINLINE
  0
ENDBLK
  5
26C
330
269
100
AcDbEntity
  8
0
100
AcDbBlockEnd
  0
BLOCK
  5
282
330
280
100
AcDbEntity
  8
0
100
AcDbBlockBegin
  2
BLOCK_45
 70
     0
 71
     0
 10
0.0
 20
0.0
 30
0.0
  3
BLOCK_45
  1

  0
POLYLINE
  5
284
330
280
100
AcDbEntity
  8
MOUNTAINLINE
 62
     7
100
AcDb2dPolyline
 66
     1
 10
0.0
 20
0.0
 30
0.0
  0
VERTEX
  5
285
330
284
100
AcDbEntity
  8
MOUNTAINLINE
 62
     7
100
AcDbVertex
100
AcDb2dVertex
 10
118.5436685901558
 20
-55.91269394218502
 30
0.0
  0
VERTEX
  5
286
330
284
100
AcDbEntity
  8
MOUNTAINLINE
 62
     7
100
AcDbVertex
100
AcDb2dVertex
 10
123.8181097780733
 20
-36.23672009727763
 30
0.0
  0
SEQEND
  5
287
330
284
100
AcDbEntity
  8
MOUNTAINLINE
  0
ENDBLK
  5
283
330
280
100
AcDbEntity
  8
0
100
AcDbBlockEnd
  0
BLOCK
  5
28A
330
288
100
AcDbEntity
  8
0
100
AcDbBlockBegin
  2
BLOCK_46
 70
     0
 71
     0
 10
0.0
 20
0.0
 30
0.0
  3
BLOCK_46
  1

  0
POLYLINE
  5
28C
330
288
100
AcDbEntity
  8
MOUNTAINLINE
 62
     7
100
AcDb2dPolyline
 66
     1
 10
0.0
 20
0.0
 30
0.0
  0
VERTEX
  5
28D
330
28C
100
AcDbEntity
  8
MOUNTAINLINE
 62
     7
100
AcDbVertex
100
AcDb2dVertex
 10
123.8181097780733
 20
-36.23672009727763
 30
0.0
  0
VERTEX
  5
28E
330
28C
100
AcDbEntity
  8
MOUNTAINLINE
 62
     7
100
AcDbVertex
100
AcDb2dVertex
 10
147.0793944944802
 20
-46.07694633179674
 30
0.0
  0
SEQEND
  5
28F
330
28C
100
AcDbEntity
  8
MOUNTAINLINE
  0
ENDBLK
  5
28B
330
288
100
AcDbEntity
  8
0
100
AcDbBlockEnd
  0
BLOCK
  5
292
330
290
100
AcDbEntity
  8
0
100
AcDbBlockBegin
  2
BLOCK_47
 70
     0
 71
     0
 10
0.0
 20
0.0
 30
0.0
  3
BLOCK_47
  1

  0
POLYLINE
  5
294
330
290
100
AcDbEntity
  8
MOUNTAINLINE
 62
     7
100
AcDb2dPolyline
 66
     1
 10
0.0
 20
0.0
 30
0.0
  0
VERTEX
  5
295
330
294
100
AcDbEntity
  8
MOUNTAINLINE
 62
     7
100
AcDbVertex
100
AcDb2dVertex
 10
147.0793944944802
 20
-46.07642956747395
 30
0.0
  0
VERTEX
  5
296
330
294
100
AcDbEntity
  8
MOUNTAINLINE
 62
     7
100
AcDbVertex
100
AcDb2dVertex
 10
155.2218776738681
 20
-36.23809813547173
 30
0.0
  0
SEQEND
  5
297
330
294
100
AcDbEntity
  8
MOUNTAINLINE
  0
ENDBLK
  5
293
330
290
100
AcDbEntity
  8
0
100
AcDbBlockEnd
  0
BLOCK
  5
2B2
330
2B0
100
AcDbEntity
  8
0
100
AcDbBlockBegin
  2
BLOCK_48
 70
     0
 71
     0
 10
0.0
 20
0.0
 30
0.0
  3
BLOCK_48
  1

  0
POLYLINE
  5
2B4
330
2B0
100
AcDbEntity
  8
MOUNTAINLINE
 62
     7
100
AcDb2dPolyline
 66
     1
 10
0.0
 20
0.0
 30
0.0
  0
VERTEX
  5
2B5
330
2B4
100
AcDbEntity
  8
MOUNTAINLINE
 62
     7
100
AcDbVertex
100
AcDb2dVertex
 10
84.352990701568
 20
-173.9656086804669
 30
0.0
  0
VERTEX
  5
2B6
330
2B4
100
AcDbEntity
  8
MOUNTAINLINE
 62
     7
100
AcDbVertex
100
AcDb2dVertex
 10
79.07837725887624
 20
-154.289290326011
 30
0.0
  0
SEQEND
  5
2B7
330
2B4
100
AcDbEntity
  8
MOUNTAINLINE
  0
ENDBLK
  5
2B3
330
2B0
100
AcDbEntity
  8
0
100
AcDbBlockEnd
  0
BLOCK
  5
2BA
330
2B8
100
AcDbEntity
  8
0
100
AcDbBlockBegin
  2
BLOCK_49
 70
     0
 71
     0
 10
0.0
 20
0.0
 30
0.0
  3
BLOCK_49
  1

  0
POLYLINE
  5
2BC
330
2B8
100
AcDbEntity
  8
MOUNTAINLINE
 62
     7
100
AcDb2dPolyline
 66
     1
 10
0.0
 20
0.0
 30
0.0
  0
VERTEX
  5
2BD
330
2BC
100
AcDbEntity
  8
MOUNTAINLINE
 62
     7
100
AcDbVertex
100
AcDb2dVertex
 10
79.07837725887624
 20
-154.289290326011
 30
0.0
  0
VERTEX
  5
2BE
330
2BC
100
AcDbEntity
  8
MOUNTAINLINE
 62
     7
100
AcDbVertex
100
AcDb2dVertex
 10
55.81657577814655
 20
-164.1295165605301
 30
0.0
  0
SEQEND
  5
2BF
330
2BC
100
AcDbEntity
  8
MOUNTAINLINE
  0
ENDBLK
  5
2BB
330
2B8
100
AcDbEntity
  8
0
100
AcDbBlockEnd
  0
BLOCK
  5
2C2
330
2C0
100
AcDbEntity
  8
0
100
AcDbBlockBegin
  2
BLOCK_50
 70
     0
 71
     0
 10
0.0
 20
0.0
 30
0.0
  3
BLOCK_50
  1

  0
POLYLINE
  5
2C4
330
2C0
100
AcDbEntity
  8
MOUNTAINLINE
 62
     7
100
AcDb2dPolyline
 66
     1
 10
0.0
 20
0.0
 30
0.0
  0
VERTEX
  5
2C5
330
2C4
100
AcDbEntity
  8
MOUNTAINLINE
 62
     7
100
AcDbVertex
100
AcDb2dVertex
 10
55.81709254246934
 20
-164.1291720509816
 30
0.0
  0
VERTEX
  5
2C6
330
2C4
100
AcDbEntity
  8
MOUNTAINLINE
 62
     7
100
AcDbVertex
100
AcDb2dVertex
 10
47.67495387262988
 20
-154.2906683642051
 30
0.0
  0
SEQEND
  5
2C7
330
2C4
100
AcDbEntity
  8
MOUNTAINLINE
  0
ENDBLK
  5
2C3
330
2C0
100
AcDbEntity
  8
0
100
AcDbBlockEnd
  0
BLOCK
  5
2CA
330
2C8
100
AcDbEntity
  8
0
100
AcDbBlockBegin
  2
BLOCK_51
 70
     0
 71
     0
 10
0.0
 20
0.0
 30
0.0
  3
BLOCK_51
  1

  0
POLYLINE
  5
2CC
330
2C8
100
AcDbEntity
  8
MOUNTAINLINE
 62
     7
100
AcDb2dPolyline
 66
     1
 10
0.0
 20
0.0
 30
0.0
  0
VERTEX
  5
2CD
330
2CC
100
AcDbEntity
  8
MOUNTAINLINE
 62
     7
100
AcDbVertex
100
AcDb2dVertex
 10
118.5436685901558
 20
-173.9656086804669
 30
0.0
  0
VERTEX
  5
2CE
330
2CC
100
AcDbEntity
  8
MOUNTAINLINE
 62
     7
100
AcDbVertex
100
AcDb2dVertex
 10
117.884966333376
 20
-171.5061550135471
 30
0.0
  0
VERTEX
  5
2CF
330
2CC
100
AcDbEntity
  8
MOUNTAINLINE
 62
     7
100
AcDbVertex
100
AcDb2dVertex
 10
117.1825113639335
 20
-169.0467013466272
 30
0.0
  0
VERTEX
  5
2D0
330
2CC
100
AcDbEntity
  8
MOUNTAINLINE
 62
     7
100
AcDbVertex
100
AcDb2dVertex
 10
116.2047932652196
 20
-166.5865586606103
 30
0.0
  0
VERTEX
  5
2D1
330
2CC
100
AcDbEntity
  8
MOUNTAINLINE
 62
     7
100
AcDbVertex
100
AcDb2dVertex
 10
114.6166042465195
 20
-164.1267604841419
 30
0.0
  0
VERTEX
  5
2D2
330
2CC
100
AcDbEntity
  8
MOUNTAINLINE
 62
     7
100
AcDbVertex
100
AcDb2dVertex
 10
112.121321586553
 20
-161.6676513267706
 30
0.0
  0
VERTEX
  5
2D3
330
2CC
100
AcDbEntity
  8
MOUNTAINLINE
 62
     7
100
AcDbVertex
100
AcDb2dVertex
 10
108.9387423772792
 20
-159.5151556675865
 30
0.0
  0
VERTEX
  5
2D4
330
2CC
100
AcDbEntity
  8
MOUNTAINLINE
 62
     7
100
AcDbVertex
100
AcDb2dVertex
 10
105.3043388951149
 20
-157.9776095525195
 30
0.0
  0
VERTEX
  5
2D5
330
2CC
100
AcDbEntity
  8
MOUNTAINLINE
 62
     7
100
AcDbVertex
100
AcDb2dVertex
 10
101.4489325375718
 20
-157.3619709893053
 30
0.0
  0
VERTEX
  5
2D6
330
2CC
100
AcDbEntity
  8
MOUNTAINLINE
 62
     7
100
AcDbVertex
100
AcDb2dVertex
 10
97.59214814183461
 20
-157.9776095525195
 30
0.0
  0
VERTEX
  5
2D7
330
2CC
100
AcDbEntity
  8
MOUNTAINLINE
 62
     7
100
AcDbVertex
100
AcDb2dVertex
 10
93.9577446596703
 20
-159.5151556675865
 30
0.0
  0
VERTEX
  5
2D8
330
2CC
100
AcDbEntity
  8
MOUNTAINLINE
 62
     7
100
AcDbVertex
100
AcDb2dVertex
 10
90.77550995994501
 20
-161.6676513267706
 30
0.0
  0
VERTEX
  5
2D9
330
2CC
100
AcDbEntity
  8
MOUNTAINLINE
 62
     7
100
AcDbVertex
100
AcDb2dVertex
 10
88.27936602610724
 20
-164.1267604841419
 30
0.0
  0
VERTEX
  5
2DA
330
2CC
100
AcDbEntity
  8
MOUNTAINLINE
 62
     7
100
AcDbVertex
100
AcDb2dVertex
 10
86.69134926218133
 20
-166.5865586606103
 30
0.0
  0
VERTEX
  5
2DB
330
2CC
100
AcDbEntity
  8
MOUNTAINLINE
 62
     7
100
AcDbVertex
100
AcDb2dVertex
 10
85.71414792779022
 20
-169.0467013466272
 30
0.0
  0
VERTEX
  5
2DC
330
2CC
100
AcDbEntity
  8
MOUNTAINLINE
 62
     7
100
AcDbVertex
100
AcDb2dVertex
 10
85.01220972267056
 20
-171.5061550135471
 30
0.0
  0
VERTEX
  5
2DD
330
2CC
100
AcDbEntity
  8
MOUNTAINLINE
 62
     7
100
AcDbVertex
100
AcDb2dVertex
 10
84.352990701568
 20
-173.9656086804669
 30
0.0
  0
SEQEND
  5
2DE
330
2CC
100
AcDbEntity
  8
MOUNTAINLINE
  0
ENDBLK
  5
2CB
330
2C8
100
AcDbEntity
  8
0
100
AcDbBlockEnd
  0
BLOCK
  5
2E1
330
2DF
100
AcDbEntity
  8
0
100
AcDbBlockBegin
  2
BLOCK_52
 70
     0
 71
     0
 10
0.0
 20
0.0
 30
0.0
  3
BLOCK_52
  1

  0
POLYLINE
  5
2E3
330
2DF
100
AcDbEntity
  8
MOUNTAINLINE
 62
     7
100
AcDb2dPolyline
 66
     1
 10
0.0
 20
0.0
 30
0.0
  0
VERTEX
  5
2E4
330
2E3
100
AcDbEntity
  8
MOUNTAINLINE
 62
     7
100
AcDbVertex
100
AcDb2dVertex
 10
118.5436685901558
 20
-173.9656086804669
 30
0.0
  0
VERTEX
  5
2E5
330
2E3
100
AcDbEntity
  8
MOUNTAINLINE
 62
     7
100
AcDbVertex
100
AcDb2dVertex
 10
123.8181097780733
 20
-154.289290326011
 30
0.0
  0
SEQEND
  5
2E6
330
2E3
100
AcDbEntity
  8
MOUNTAINLINE
  0
ENDBLK
  5
2E2
330
2DF
100
AcDbEntity
  8
0
100
AcDbBlockEnd
  0
BLOCK
  5
2E9
330
2E7
100
AcDbEntity
  8
0
100
AcDbBlockBegin
  2
BLOCK_53
 70
     0
 71
     0
 10
0.0
 20
0.0
 30
0.0
  3
BLOCK_53
  1

  0
POLYLINE
  5
2EB
330
2E7
100
AcDbEntity
  8
MOUNTAINLINE
 62
     7
100
AcDb2dPolyline
 66
     1
 10
0.0
 20
0.0
 30
0.0
  0
VERTEX
  5
2EC
330
2EB
100
AcDbEntity
  8
MOUNTAINLINE
 62
     7
100
AcDbVertex
100
AcDb2dVertex
 10
123.8181097780733
 20
-154.289290326011
 30
0.0
  0
VERTEX
  5
2ED
330
2EB
100
AcDbEntity
  8
MOUNTAINLINE
 62
     7
100
AcDbVertex
100
AcDb2dVertex
 10
147.0793944944802
 20
-164.1295165605301
 30
0.0
  0
SEQEND
  5
2EE
330
2EB
100
AcDbEntity
  8
MOUNTAINLINE
  0
ENDBLK
  5
2EA
330
2E7
100
AcDbEntity
  8
0
100
AcDbBlockEnd
  0
BLOCK
  5
2F1
330
2EF
100
AcDbEntity
  8
0
100
AcDbBlockBegin
  2
BLOCK_54
 70
     0
 71
     0
 10
0.0
 20
0.0
 30
0.0
  3
BLOCK_54
  1

  0
POLYLINE
  5
2F3
330
2EF
100
AcDbEntity
  8
MOUNTAINLINE
 62
     7
100
AcDb2dPolyline
 66
     1
 10
0.0
 20
0.0
 30
0.0
  0
VERTEX
  5
2F4
330
2F3
100
AcDbEntity
  8
MOUNTAINLINE
 62
     7
100
AcDbVertex
100
AcDb2dVertex
 10
147.0793944944802
 20
-164.1291720509816
 30
0.0
  0
VERTEX
  5
2F5
330
2F3
100
AcDbEntity
  8
MOUNTAINLINE
 62
     7
100
AcDbVertex
100
AcDb2dVertex
 10
155.2218776738681
 20
-154.2906683642051
 30
0.0
  0
SEQEND
  5
2F6
330
2F3
100
AcDbEntity
  8
MOUNTAINLINE
  0
ENDBLK
  5
2F2
330
2EF
100
AcDbEntity
  8
0
100
AcDbBlockEnd
  0
BLOCK
  5
2F9
330
2F7
100
AcDbEntity
  8
0
100
AcDbBlockBegin
  2
BLOCK_55
 70
     0
 71
     0
 10
0.0
 20
0.0
 30
0.0
  3
BLOCK_55
  1

  0
POLYLINE
  5
2FB
330
2F7
100
AcDbEntity
  8
MOUNTAINLINE
 62
     7
100
AcDb2dPolyline
 66
     1
 10
0.0
 20
0.0
 30
0.0
  0
VERTEX
  5
2FC
330
2FB
100
AcDbEntity
  8
MOUNTAINLINE
 62
     7
100
AcDbVertex
100
AcDb2dVertex
 10
84.352990701568
 20
-173.9656086804669
 30
0.0
  0
VERTEX
  5
2FD
330
2FB
100
AcDbEntity
  8
MOUNTAINLINE
 62
     7
100
AcDbVertex
100
AcDb2dVertex
 10
79.07837725887624
 20
-193.6419270349229
 30
0.0
  0
SEQEND
  5
2FE
330
2FB
100
AcDbEntity
  8
MOUNTAINLINE
  0
ENDBLK
  5
2FA
330
2F7
100
AcDbEntity
  8
0
100
AcDbBlockEnd
  0
BLOCK
  5
301
330
2FF
100
AcDbEntity
  8
0
100
AcDbBlockBegin
  2
BLOCK_56
 70
     0
 71
     0
 10
0.0
 20
0.0
 30
0.0
  3
BLOCK_56
  1

  0
POLYLINE
  5
303
330
2FF
100
AcDbEntity
  8
MOUNTAINLINE
 62
     7
100
AcDb2dPolyline
 66
     1
 10
0.0
 20
0.0
 30
0.0
  0
VERTEX
  5
304
330
303
100
AcDbEntity
  8
MOUNTAINLINE
 62
     7
100
AcDbVertex
100
AcDb2dVertex
 10
79.07837725887624
 20
-193.6419270349229
 30
0.0
  0
VERTEX
  5
305
330
303
100
AcDbEntity
  8
MOUNTAINLINE
 62
     7
100
AcDbVertex
100
AcDb2dVertex
 10
55.81657577814655
 20
-183.8013562908552
 30
0.0
  0
SEQEND
  5
306
330
303
100
AcDbEntity
  8
MOUNTAINLINE
  0
ENDBLK
  5
302
330
2FF
100
AcDbEntity
  8
0
100
AcDbBlockEnd
  0
BLOCK
  5
309
330
307
100
AcDbEntity
  8
0
100
AcDbBlockBegin
  2
BLOCK_57
 70
     0
 71
     0
 10
0.0
 20
0.0
 30
0.0
  3
BLOCK_57
  1

  0
POLYLINE
  5
30B
330
307
100
AcDbEntity
  8
MOUNTAINLINE
 62
     7
100
AcDb2dPolyline
 66
     1
 10
0.0
 20
0.0
 30
0.0
  0
VERTEX
  5
30C
330
30B
100
AcDbEntity
  8
MOUNTAINLINE
 62
     7
100
AcDbVertex
100
AcDb2dVertex
 10
55.81709254246934
 20
-183.8013562908552
 30
0.0
  0
VERTEX
  5
30D
330
30B
100
AcDbEntity
  8
MOUNTAINLINE
 62
     7
100
AcDbVertex
100
AcDb2dVertex
 10
47.67495387262988
 20
-193.6402044871802
 30
0.0
  0
SEQEND
  5
30E
330
30B
100
AcDbEntity
  8
MOUNTAINLINE
  0
ENDBLK
  5
30A
330
307
100
AcDbEntity
  8
0
100
AcDbBlockEnd
  0
BLOCK
  5
311
330
30F
100
AcDbEntity
  8
0
100
AcDbBlockBegin
  2
BLOCK_58
 70
     0
 71
     0
 10
0.0
 20
0.0
 30
0.0
  3
BLOCK_58
  1

  0
POLYLINE
  5
313
330
30F
100
AcDbEntity
  8
MOUNTAINLINE
 62
     7
100
AcDb2dPolyline
 66
     1
 10
0.0
 20
0.0
 30
0.0
  0
VERTEX
  5
314
330
313
100
AcDbEntity
  8
MOUNTAINLINE
 62
     7
100
AcDbVertex
100
AcDb2dVertex
 10
118.5436685901558
 20
-173.9656086804669
 30
0.0
  0
VERTEX
  5
315
330
313
100
AcDbEntity
  8
MOUNTAINLINE
 62
     7
100
AcDbVertex
100
AcDb2dVertex
 10
117.884966333376
 20
-176.4250623473868
 30
0.0
  0
VERTEX
  5
316
330
313
100
AcDbEntity
  8
MOUNTAINLINE
 62
     7
100
AcDbVertex
100
AcDb2dVertex
 10
117.1825113639335
 20
-178.8845160143067
 30
0.0
  0
VERTEX
  5
317
330
313
100
AcDbEntity
  8
MOUNTAINLINE
 62
     7
100
AcDbVertex
100
AcDb2dVertex
 10
116.2047932652196
 20
-181.344314190775
 30
0.0
  0
VERTEX
  5
318
330
313
100
AcDbEntity
  8
MOUNTAINLINE
 62
     7
100
AcDbVertex
100
AcDb2dVertex
 10
114.6166042465195
 20
-183.8041123672434
 30
0.0
  0
VERTEX
  5
319
330
313
100
AcDbEntity
  8
MOUNTAINLINE
 62
     7
100
AcDbVertex
100
AcDb2dVertex
 10
112.121321586553
 20
-186.2635660341633
 30
0.0
  0
VERTEX
  5
31A
330
313
100
AcDbEntity
  8
MOUNTAINLINE
 62
     7
100
AcDbVertex
100
AcDb2dVertex
 10
108.9387423772792
 20
-188.4167507124444
 30
0.0
  0
VERTEX
  5
31B
330
313
100
AcDbEntity
  8
MOUNTAINLINE
 62
     7
100
AcDbVertex
100
AcDb2dVertex
 10
105.3043388951149
 20
-189.9542968275114
 30
0.0
  0
VERTEX
  5
31C
330
313
100
AcDbEntity
  8
MOUNTAINLINE
 62
     7
100
AcDbVertex
100
AcDb2dVertex
 10
101.4489325375718
 20
-190.56890186208
 30
0.0
  0
VERTEX
  5
31D
330
313
100
AcDbEntity
  8
MOUNTAINLINE
 62
     7
100
AcDbVertex
100
AcDb2dVertex
 10
97.59214814183461
 20
-189.9542968275114
 30
0.0
  0
VERTEX
  5
31E
330
313
100
AcDbEntity
  8
MOUNTAINLINE
 62
     7
100
AcDbVertex
100
AcDb2dVertex
 10
93.9577446596703
 20
-188.4167507124444
 30
0.0
  0
VERTEX
  5
31F
330
313
100
AcDbEntity
  8
MOUNTAINLINE
 62
     7
100
AcDbVertex
100
AcDb2dVertex
 10
90.77550995994501
 20
-186.2635660341633
 30
0.0
  0
VERTEX
  5
320
330
313
100
AcDbEntity
  8
MOUNTAINLINE
 62
     7
100
AcDbVertex
100
AcDb2dVertex
 10
88.27936602610724
 20
-183.8041123672434
 30
0.0
  0
VERTEX
  5
321
330
313
100
AcDbEntity
  8
MOUNTAINLINE
 62
     7
100
AcDbVertex
100
AcDb2dVertex
 10
86.69134926218133
 20
-181.344314190775
 30
0.0
  0
VERTEX
  5
322
330
313
100
AcDbEntity
  8
MOUNTAINLINE
 62
     7
100
AcDbVertex
100
AcDb2dVertex
 10
85.71414792779022
 20
-178.8845160143067
 30
0.0
  0
VERTEX
  5
323
330
313
100
AcDbEntity
  8
MOUNTAINLINE
 62
     7
100
AcDbVertex
100
AcDb2dVertex
 10
85.01220972267056
 20
-176.4250623473868
 30
0.0
  0
VERTEX
  5
324
330
313
100
AcDbEntity
  8
MOUNTAINLINE
 62
     7
100
AcDbVertex
100
AcDb2dVertex
 10
84.352990701568
 20
-173.9656086804669
 30
0.0
  0
SEQEND
  5
325
330
313
100
AcDbEntity
  8
MOUNTAINLINE
  0
ENDBLK
  5
312
330
30F
100
AcDbEntity
  8
0
100
AcDbBlockEnd
  0
BLOCK
  5
328
330
326
100
AcDbEntity
  8
0
100
AcDbBlockBegin
  2
BLOCK_59
 70
     0
 71
     0
 10
0.0
 20
0.0
 30
0.0
  3
BLOCK_59
  1

  0
POLYLINE
  5
32A
330
326
100
AcDbEntity
  8
MOUNTAINLINE
 62
     7
100
AcDb2dPolyline
 66
     1
 10
0.0
 20
0.0
 30
0.0
  0
VERTEX
  5
32B
330
32A
100
AcDbEntity
  8
MOUNTAINLINE
 62
     7
100
AcDbVertex
100
AcDb2dVertex
 10
118.5436685901558
 20
-173.9656086804669
 30
0.0
  0
VERTEX
  5
32C
330
32A
100
AcDbEntity
  8
MOUNTAINLINE
 62
     7
100
AcDbVertex
100
AcDb2dVertex
 10
123.8181097780733
 20
-193.6419270349229
 30
0.0
  0
SEQEND
  5
32D
330
32A
100
AcDbEntity
  8
MOUNTAINLINE
  0
ENDBLK
  5
329
330
326
100
AcDbEntity
  8
0
100
AcDbBlockEnd
  0
BLOCK
  5
330
330
32E
100
AcDbEntity
  8
0
100
AcDbBlockBegin
  2
BLOCK_60
 70
     0
 71
     0
 10
0.0
 20
0.0
 30
0.0
  3
BLOCK_60
  1

  0
POLYLINE
  5
332
330
32E
100
AcDbEntity
  8
MOUNTAINLINE
 62
     7
100
AcDb2dPolyline
 66
     1
 10
0.0
 20
0.0
 30
0.0
  0
VERTEX
  5
333
330
332
100
AcDbEntity
  8
MOUNTAINLINE
 62
     7
100
AcDbVertex
100
AcDb2dVertex
 10
123.8181097780733
 20
-193.6419270349229
 30
0.0
  0
VERTEX
  5
334
330
332
100
AcDbEntity
  8
MOUNTAINLINE
 62
     7
100
AcDbVertex
100
AcDb2dVertex
 10
147.0793944944802
 20
-183.8013562908552
 30
0.0
  0
SEQEND
  5
335
330
332
100
AcDbEntity
  8
MOUNTAINLINE
  0
ENDBLK
  5
331
330
32E
100
AcDbEntity
  8
0
100
AcDbBlockEnd
  0
BLOCK
  5
338
330
336
100
AcDbEntity
  8
0
100
AcDbBlockBegin
  2
BLOCK_61
 70
     0
 71
     0
 10
0.0
 20
0.0
 30
0.0
  3
BLOCK_61
  1

  0
POLYLINE
  5
33A
330
336
100
AcDbEntity
  8
MOUNTAINLINE
 62
     7
100
AcDb2dPolyline
 66
     1
 10
0.0
 20
0.0
 30
0.0
  0
VERTEX
  5
33B
330
33A
100
AcDbEntity
  8
MOUNTAINLINE
 62
     7
100
AcDbVertex
100
AcDb2dVertex
 10
147.0793944944802
 20
-183.8013562908552
 30
0.0
  0
VERTEX
  5
33C
330
33A
100
AcDbEntity
  8
MOUNTAINLINE
 62
     7
100
AcDbVertex
100
AcDb2dVertex
 10
155.2218776738681
 20
-193.6402044871802
 30
0.0
  0
SEQEND
  5
33D
330
33A
100
AcDbEntity
  8
MOUNTAINLINE
  0
ENDBLK
  5
339
330
336
100
AcDbEntity
  8
0
100
AcDbBlockEnd
  0
BLOCK
  5
340
330
33E
100
AcDbEntity
  8
0
100
AcDbBlockBegin
  2
BLOCK_62
 70
     0
 71
     0
 10
0.0
 20
0.0
 30
0.0
  3
BLOCK_62
  1

  0
POLYLINE
  5
342
330
33E
100
AcDbEntity
  8
MOUNTAINLINE
 62
     7
100
AcDb2dPolyline
 66
     1
 10
0.0
 20
0.0
 30
0.0
  0
VERTEX
  5
343
330
342
100
AcDbEntity
  8
MOUNTAINLINE
 62
     7
100
AcDbVertex
100
AcDb2dVertex
 10
84.352990701568
 20
-213.3148002938935
 30
0.0
  0
VERTEX
  5
344
330
342
100
AcDbEntity
  8
MOUNTAINLINE
 62
     7
100
AcDbVertex
100
AcDb2dVertex
 10
79.07837725887624
 20
-193.6381374298891
 30
0.0
  0
SEQEND
  5
345
330
342
100
AcDbEntity
  8
MOUNTAINLINE
  0
ENDBLK
  5
341
330
33E
100
AcDbEntity
  8
0
100
AcDbBlockEnd
  0
BLOCK
  5
348
330
346
100
AcDbEntity
  8
0
100
AcDbBlockBegin
  2
BLOCK_63
 70
     0
 71
     0
 10
0.0
 20
0.0
 30
0.0
  3
BLOCK_63
  1

  0
POLYLINE
  5
34A
330
346
100
AcDbEntity
  8
MOUNTAINLINE
 62
     7
100
AcDb2dPolyline
 66
     1
 10
0.0
 20
0.0
 30
0.0
  0
VERTEX
  5
34B
330
34A
100
AcDbEntity
  8
MOUNTAINLINE
 62
     7
100
AcDbVertex
100
AcDb2dVertex
 10
79.07837725887624
 20
-193.6381374298891
 30
0.0
  0
VERTEX
  5
34C
330
34A
100
AcDbEntity
  8
MOUNTAINLINE
 62
     7
100
AcDbVertex
100
AcDb2dVertex
 10
55.81657577814655
 20
-203.4790526835052
 30
0.0
  0
SEQEND
  5
34D
330
34A
100
AcDbEntity
  8
MOUNTAINLINE
  0
ENDBLK
  5
349
330
346
100
AcDbEntity
  8
0
100
AcDbBlockEnd
  0
BLOCK
  5
350
330
34E
100
AcDbEntity
  8
0
100
AcDbBlockBegin
  2
BLOCK_64
 70
     0
 71
     0
 10
0.0
 20
0.0
 30
0.0
  3
BLOCK_64
  1

  0
POLYLINE
  5
352
330
34E
100
AcDbEntity
  8
MOUNTAINLINE
 62
     7
100
AcDb2dPolyline
 66
     1
 10
0.0
 20
0.0
 30
0.0
  0
VERTEX
  5
353
330
352
100
AcDbEntity
  8
MOUNTAINLINE
 62
     7
100
AcDbVertex
100
AcDb2dVertex
 10
55.81709254246934
 20
-203.4790526835052
 30
0.0
  0
VERTEX
  5
354
330
352
100
AcDbEntity
  8
MOUNTAINLINE
 62
     7
100
AcDbVertex
100
AcDb2dVertex
 10
47.67495387262988
 20
-193.6402044871802
 30
0.0
  0
SEQEND
  5
355
330
352
100
AcDbEntity
  8
MOUNTAINLINE
  0
ENDBLK
  5
351
330
34E
100
AcDbEntity
  8
0
100
AcDbBlockEnd
  0
BLOCK
  5
358
330
356
100
AcDbEntity
  8
0
100
AcDbBlockBegin
  2
BLOCK_65
 70
     0
 71
     0
 10
0.0
 20
0.0
 30
0.0
  3
BLOCK_65
  1

  0
POLYLINE
  5
35A
330
356
100
AcDbEntity
  8
MOUNTAINLINE
 62
     7
100
AcDb2dPolyline
 66
     1
 10
0.0
 20
0.0
 30
0.0
  0
VERTEX
  5
35B
330
35A
100
AcDbEntity
  8
MOUNTAINLINE
 62
     7
100
AcDbVertex
100
AcDb2dVertex
 10
47.67495387262988
 20
-193.6402044871802
 30
0.0
  0
VERTEX
  5
35C
330
35A
100
AcDbEntity
  8
MOUNTAINLINE
 62
     7
100
AcDbVertex
100
AcDb2dVertex
 10
39.97154811283698
 20
-193.6402044871802
 30
0.0
  0
SEQEND
  5
35D
330
35A
100
AcDbEntity
  8
MOUNTAINLINE
  0
ENDBLK
  5
359
330
356
100
AcDbEntity
  8
0
100
AcDbBlockEnd
  0
BLOCK
  5
360
330
35E
100
AcDbEntity
  8
0
100
AcDbBlockBegin
  2
BLOCK_66
 70
     0
 71
     0
 10
0.0
 20
0.0
 30
0.0
  3
BLOCK_66
  1

  0
POLYLINE
  5
362
330
35E
100
AcDbEntity
  8
MOUNTAINLINE
 62
     7
100
AcDb2dPolyline
 66
     1
 10
0.0
 20
0.0
 30
0.0
  0
VERTEX
  5
363
330
362
100
AcDbEntity
  8
MOUNTAINLINE
 62
     7
100
AcDbVertex
100
AcDb2dVertex
 10
118.5436685901558
 20
-213.3148002938935
 30
0.0
  0
VERTEX
  5
364
330
362
100
AcDbEntity
  8
MOUNTAINLINE
 62
     7
100
AcDbVertex
100
AcDb2dVertex
 10
117.884966333376
 20
-210.8553466269737
 30
0.0
  0
VERTEX
  5
365
330
362
100
AcDbEntity
  8
MOUNTAINLINE
 62
     7
100
AcDbVertex
100
AcDb2dVertex
 10
117.1825113639335
 20
-208.3958929600538
 30
0.0
  0
VERTEX
  5
366
330
362
100
AcDbEntity
  8
MOUNTAINLINE
 62
     7
100
AcDbVertex
100
AcDb2dVertex
 10
116.2047932652196
 20
-205.936439293134
 30
0.0
  0
VERTEX
  5
367
330
362
100
AcDbEntity
  8
MOUNTAINLINE
 62
     7
100
AcDbVertex
100
AcDb2dVertex
 10
114.6166042465195
 20
-203.4759520975685
 30
0.0
  0
VERTEX
  5
368
330
362
100
AcDbEntity
  8
MOUNTAINLINE
 62
     7
100
AcDbVertex
100
AcDb2dVertex
 10
112.121321586553
 20
-201.0164984306487
 30
0.0
  0
VERTEX
  5
369
330
362
100
AcDbEntity
  8
MOUNTAINLINE
 62
     7
100
AcDbVertex
100
AcDb2dVertex
 10
108.9387423772792
 20
-198.8643472810131
 30
0.0
  0
VERTEX
  5
36A
330
362
100
AcDbEntity
  8
MOUNTAINLINE
 62
     7
100
AcDbVertex
100
AcDb2dVertex
 10
105.3043388951149
 20
-197.3268011659461
 30
0.0
  0
VERTEX
  5
36B
330
362
100
AcDbEntity
  8
MOUNTAINLINE
 62
     7
100
AcDbVertex
100
AcDb2dVertex
 10
101.4489325375718
 20
-196.7115071122805
 30
0.0
  0
VERTEX
  5
36C
330
362
100
AcDbEntity
  8
MOUNTAINLINE
 62
     7
100
AcDbVertex
100
AcDb2dVertex
 10
97.59214814183461
 20
-197.3268011659461
 30
0.0
  0
VERTEX
  5
36D
330
362
100
AcDbEntity
  8
MOUNTAINLINE
 62
     7
100
AcDbVertex
100
AcDb2dVertex
 10
93.9577446596703
 20
-198.8643472810131
 30
0.0
  0
VERTEX
  5
36E
330
362
100
AcDbEntity
  8
MOUNTAINLINE
 62
     7
100
AcDbVertex
100
AcDb2dVertex
 10
90.77550995994501
 20
-201.0164984306487
 30
0.0
  0
VERTEX
  5
36F
330
362
100
AcDbEntity
  8
MOUNTAINLINE
 62
     7
100
AcDbVertex
100
AcDb2dVertex
 10
88.27936602610724
 20
-203.4759520975685
 30
0.0
  0
VERTEX
  5
370
330
362
100
AcDbEntity
  8
MOUNTAINLINE
 62
     7
100
AcDbVertex
100
AcDb2dVertex
 10
86.69134926218133
 20
-205.936439293134
 30
0.0
  0
VERTEX
  5
371
330
362
100
AcDbEntity
  8
MOUNTAINLINE
 62
     7
100
AcDbVertex
100
AcDb2dVertex
 10
85.71414792779022
 20
-208.3958929600538
 30
0.0
  0
VERTEX
  5
372
330
362
100
AcDbEntity
  8
MOUNTAINLINE
 62
     7
100
AcDbVertex
100
AcDb2dVertex
 10
85.01220972267056
 20
-210.8553466269737
 30
0.0
  0
VERTEX
  5
373
330
362
100
AcDbEntity
  8
MOUNTAINLINE
 62
     7
100
AcDbVertex
100
AcDb2dVertex
 10
84.352990701568
 20
-213.3148002938935
 30
0.0
  0
SEQEND
  5
374
330
362
100
AcDbEntity
  8
MOUNTAINLINE
  0
ENDBLK
  5
361
330
35E
100
AcDbEntity
  8
0
100
AcDbBlockEnd
  0
BLOCK
  5
377
330
375
100
AcDbEntity
  8
0
100
AcDbBlockBegin
  2
BLOCK_67
 70
     0
 71
     0
 10
0.0
 20
0.0
 30
0.0
  3
BLOCK_67
  1

  0
POLYLINE
  5
379
330
375
100
AcDbEntity
  8
MOUNTAINLINE
 62
     7
100
AcDb2dPolyline
 66
     1
 10
0.0
 20
0.0
 30
0.0
  0
VERTEX
  5
37A
330
379
100
AcDbEntity
  8
MOUNTAINLINE
 62
     7
100
AcDbVertex
100
AcDb2dVertex
 10
118.5436685901558
 20
-213.3148002938935
 30
0.0
  0
VERTEX
  5
37B
330
379
100
AcDbEntity
  8
MOUNTAINLINE
 62
     7
100
AcDbVertex
100
AcDb2dVertex
 10
123.8181097780733
 20
-193.6381374298891
 30
0.0
  0
SEQEND
  5
37C
330
379
100
AcDbEntity
  8
MOUNTAINLINE
  0
ENDBLK
  5
378
330
375
100
AcDbEntity
  8
0
100
AcDbBlockEnd
  0
BLOCK
  5
37F
330
37D
100
AcDbEntity
  8
0
100
AcDbBlockBegin
  2
BLOCK_68
 70
     0
 71
     0
 10
0.0
 20
0.0
 30
0.0
  3
BLOCK_68
  1

  0
POLYLINE
  5
381
330
37D
100
AcDbEntity
  8
MOUNTAINLINE
 62
     7
100
AcDb2dPolyline
 66
     1
 10
0.0
 20
0.0
 30
0.0
  0
VERTEX
  5
382
330
381
100
AcDbEntity
  8
MOUNTAINLINE
 62
     7
100
AcDbVertex
100
AcDb2dVertex
 10
123.8181097780733
 20
-193.6381374298891
 30
0.0
  0
VERTEX
  5
383
330
381
100
AcDbEntity
  8
MOUNTAINLINE
 62
     7
100
AcDbVertex
100
AcDb2dVertex
 10
147.0793944944802
 20
-203.4790526835052
 30
0.0
  0
SEQEND
  5
384
330
381
100
AcDbEntity
  8
MOUNTAINLINE
  0
ENDBLK
  5
380
330
37D
100
AcDbEntity
  8
0
100
AcDbBlockEnd
  0
BLOCK
  5
387
330
385
100
AcDbEntity
  8
0
100
AcDbBlockBegin
  2
BLOCK_69
 70
     0
 71
     0
 10
0.0
 20
0.0
 30
0.0
  3
BLOCK_69
  1

  0
POLYLINE
  5
389
330
385
100
AcDbEntity
  8
MOUNTAINLINE
 62
     7
100
AcDb2dPolyline
 66
     1
 10
0.0
 20
0.0
 30
0.0
  0
VERTEX
  5
38A
330
389
100
AcDbEntity
  8
MOUNTAINLINE
 62
     7
100
AcDbVertex
100
AcDb2dVertex
 10
147.0793944944802
 20
-203.4790526835052
 30
0.0
  0
VERTEX
  5
38B
330
389
100
AcDbEntity
  8
MOUNTAINLINE
 62
     7
100
AcDbVertex
100
AcDb2dVertex
 10
155.2218776738681
 20
-193.6402044871802
 30
0.0
  0
SEQEND
  5
38C
330
389
100
AcDbEntity
  8
MOUNTAINLINE
  0
ENDBLK
  5
388
330
385
100
AcDbEntity
  8
0
100
AcDbBlockEnd
  0
BLOCK
  5
38F
330
38D
100
AcDbEntity
  8
0
100
AcDbBlockBegin
  2
BLOCK_70
 70
     0
 71
     0
 10
0.0
 20
0.0
 30
0.0
  3
BLOCK_70
  1

  0
POLYLINE
  5
391
330
38D
100
AcDbEntity
  8
MOUNTAINLINE
 62
     7
100
AcDb2dPolyline
 66
     1
 10
0.0
 20
0.0
 30
0.0
  0
VERTEX
  5
392
330
391
100
AcDbEntity
  8
MOUNTAINLINE
 62
     7
100
AcDbVertex
100
AcDb2dVertex
 10
155.2218776738681
 20
-193.6402044871802
 30
0.0
  0
VERTEX
  5
393
330
391
100
AcDbEntity
  8
MOUNTAINLINE
 62
     7
100
AcDbVertex
100
AcDb2dVertex
 10
162.9251111788868
 20
-193.6402044871802
 30
0.0
  0
SEQEND
  5
394
330
391
100
AcDbEntity
  8
MOUNTAINLINE
  0
ENDBLK
  5
390
330
38D
100
AcDbEntity
  8
0
100
AcDbBlockEnd
  0
BLOCK
  5
397
330
395
100
AcDbEntity
  8
0
100
AcDbBlockBegin
  2
BLOCK_71
 70
     0
 71
     0
 10
0.0
 20
0.0
 30
0.0
  3
BLOCK_71
  1

  0
POLYLINE
  5
399
330
395
100
AcDbEntity
  8
MOUNTAINLINE
 62
     7
100
AcDb2dPolyline
 66
     1
 10
0.0
 20
0.0
 30
0.0
  0
VERTEX
  5
39A
330
399
100
AcDbEntity
  8
MOUNTAINLINE
 62
     7
100
AcDbVertex
100
AcDb2dVertex
 10
84.352990701568
 20
-213.3148002938935
 30
0.0
  0
VERTEX
  5
39B
330
399
100
AcDbEntity
  8
MOUNTAINLINE
 62
     7
100
AcDbVertex
100
AcDb2dVertex
 10
79.07837725887624
 20
-232.991463157898
 30
0.0
  0
SEQEND
  5
39C
330
399
100
AcDbEntity
  8
MOUNTAINLINE
  0
ENDBLK
  5
398
330
395
100
AcDbEntity
  8
0
100
AcDbBlockEnd
  0
BLOCK
  5
39F
330
39D
100
AcDbEntity
  8
0
100
AcDbBlockBegin
  2
BLOCK_72
 70
     0
 71
     0
 10
0.0
 20
0.0
 30
0.0
  3
BLOCK_72
  1

  0
POLYLINE
  5
3A1
330
39D
100
AcDbEntity
  8
MOUNTAINLINE
 62
     7
100
AcDb2dPolyline
 66
     1
 10
0.0
 20
0.0
 30
0.0
  0
VERTEX
  5
3A2
330
3A1
100
AcDbEntity
  8
MOUNTAINLINE
 62
     7
100
AcDbVertex
100
AcDb2dVertex
 10
79.07837725887624
 20
-232.991463157898
 30
0.0
  0
VERTEX
  5
3A3
330
3A1
100
AcDbEntity
  8
MOUNTAINLINE
 62
     7
100
AcDbVertex
100
AcDb2dVertex
 10
55.81657577814655
 20
-223.1508924138303
 30
0.0
  0
SEQEND
  5
3A4
330
3A1
100
AcDbEntity
  8
MOUNTAINLINE
  0
ENDBLK
  5
3A0
330
39D
100
AcDbEntity
  8
0
100
AcDbBlockEnd
  0
BLOCK
  5
3A7
330
3A5
100
AcDbEntity
  8
0
100
AcDbBlockBegin
  2
BLOCK_73
 70
     0
 71
     0
 10
0.0
 20
0.0
 30
0.0
  3
BLOCK_73
  1

  0
POLYLINE
  5
3A9
330
3A5
100
AcDbEntity
  8
MOUNTAINLINE
 62
     7
100
AcDb2dPolyline
 66
     1
 10
0.0
 20
0.0
 30
0.0
  0
VERTEX
  5
3AA
330
3A9
100
AcDbEntity
  8
MOUNTAINLINE
 62
     7
100
AcDbVertex
100
AcDb2dVertex
 10
55.81709254246934
 20
-223.1508924138303
 30
0.0
  0
VERTEX
  5
3AB
330
3A9
100
AcDbEntity
  8
MOUNTAINLINE
 62
     7
100
AcDbVertex
100
AcDb2dVertex
 10
47.67495387262988
 20
-232.9897406101554
 30
0.0
  0
SEQEND
  5
3AC
330
3A9
100
AcDbEntity
  8
MOUNTAINLINE
  0
ENDBLK
  5
3A8
330
3A5
100
AcDbEntity
  8
0
100
AcDbBlockEnd
  0
BLOCK
  5
3AF
330
3AD
100
AcDbEntity
  8
0
100
AcDbBlockBegin
  2
BLOCK_74
 70
     0
 71
     0
 10
0.0
 20
0.0
 30
0.0
  3
BLOCK_74
  1

  0
POLYLINE
  5
3B1
330
3AD
100
AcDbEntity
  8
MOUNTAINLINE
 62
     7
100
AcDb2dPolyline
 66
     1
 10
0.0
 20
0.0
 30
0.0
  0
VERTEX
  5
3B2
330
3B1
100
AcDbEntity
  8
MOUNTAINLINE
 62
     7
100
AcDbVertex
100
AcDb2dVertex
 10
47.67495387262988
 20
-232.9897406101554
 30
0.0
  0
VERTEX
  5
3B3
330
3B1
100
AcDbEntity
  8
MOUNTAINLINE
 62
     7
100
AcDbVertex
100
AcDb2dVertex
 10
39.97154811283698
 20
-232.9897406101554
 30
0.0
  0
SEQEND
  5
3B4
330
3B1
100
AcDbEntity
  8
MOUNTAINLINE
  0
ENDBLK
  5
3B0
330
3AD
100
AcDbEntity
  8
0
100
AcDbBlockEnd
  0
BLOCK
  5
3B7
330
3B5
100
AcDbEntity
  8
0
100
AcDbBlockBegin
  2
BLOCK_75
 70
     0
 71
     0
 10
0.0
 20
0.0
 30
0.0
  3
BLOCK_75
  1

  0
POLYLINE
  5
3B9
330
3B5
100
AcDbEntity
  8
MOUNTAINLINE
 62
     7
100
AcDb2dPolyline
 66
     1
 10
0.0
 20
0.0
 30
0.0
  0
VERTEX
  5
3BA
330
3B9
100
AcDbEntity
  8
MOUNTAINLINE
 62
     7
100
AcDbVertex
100
AcDb2dVertex
 10
118.5436685901558
 20
-213.3148002938935
 30
0.0
  0
VERTEX
  5
3BB
330
3B9
100
AcDbEntity
  8
MOUNTAINLINE
 62
     7
100
AcDbVertex
100
AcDb2dVertex
 10
117.884966333376
 20
-215.7742539608134
 30
0.0
  0
VERTEX
  5
3BC
330
3B9
100
AcDbEntity
  8
MOUNTAINLINE
 62
     7
100
AcDbVertex
100
AcDb2dVertex
 10
117.1825113639335
 20
-218.2337076277333
 30
0.0
  0
VERTEX
  5
3BD
330
3B9
100
AcDbEntity
  8
MOUNTAINLINE
 62
     7
100
AcDbVertex
100
AcDb2dVertex
 10
116.2047932652196
 20
-220.6931612946531
 30
0.0
  0
VERTEX
  5
3BE
330
3B9
100
AcDbEntity
  8
MOUNTAINLINE
 62
     7
100
AcDbVertex
100
AcDb2dVertex
 10
114.6166042465195
 20
-223.1536484902185
 30
0.0
  0
VERTEX
  5
3BF
330
3B9
100
AcDbEntity
  8
MOUNTAINLINE
 62
     7
100
AcDbVertex
100
AcDb2dVertex
 10
112.121321586553
 20
-225.6131021571384
 30
0.0
  0
VERTEX
  5
3C0
330
3B9
100
AcDbEntity
  8
MOUNTAINLINE
 62
     7
100
AcDbVertex
100
AcDb2dVertex
 10
108.9387423772792
 20
-227.765253306774
 30
0.0
  0
VERTEX
  5
3C1
330
3B9
100
AcDbEntity
  8
MOUNTAINLINE
 62
     7
100
AcDbVertex
100
AcDb2dVertex
 10
105.3043388951149
 20
-229.302799421841
 30
0.0
  0
VERTEX
  5
3C2
330
3B9
100
AcDbEntity
  8
MOUNTAINLINE
 62
     7
100
AcDbVertex
100
AcDb2dVertex
 10
101.4489325375718
 20
-229.9184379850551
 30
0.0
  0
VERTEX
  5
3C3
330
3B9
100
AcDbEntity
  8
MOUNTAINLINE
 62
     7
100
AcDbVertex
100
AcDb2dVertex
 10
97.59214814183461
 20
-229.302799421841
 30
0.0
  0
VERTEX
  5
3C4
330
3B9
100
AcDbEntity
  8
MOUNTAINLINE
 62
     7
100
AcDbVertex
100
AcDb2dVertex
 10
93.9577446596703
 20
-227.765253306774
 30
0.0
  0
VERTEX
  5
3C5
330
3B9
100
AcDbEntity
  8
MOUNTAINLINE
 62
     7
100
AcDbVertex
100
AcDb2dVertex
 10
90.77550995994501
 20
-225.6131021571384
 30
0.0
  0
VERTEX
  5
3C6
330
3B9
100
AcDbEntity
  8
MOUNTAINLINE
 62
     7
100
AcDbVertex
100
AcDb2dVertex
 10
88.27936602610724
 20
-223.1536484902185
 30
0.0
  0
VERTEX
  5
3C7
330
3B9
100
AcDbEntity
  8
MOUNTAINLINE
 62
     7
100
AcDbVertex
100
AcDb2dVertex
 10
86.69134926218133
 20
-220.6931612946531
 30
0.0
  0
VERTEX
  5
3C8
330
3B9
100
AcDbEntity
  8
MOUNTAINLINE
 62
     7
100
AcDbVertex
100
AcDb2dVertex
 10
85.71414792779022
 20
-218.2337076277333
 30
0.0
  0
VERTEX
  5
3C9
330
3B9
100
AcDbEntity
  8
MOUNTAINLINE
 62
     7
100
AcDbVertex
100
AcDb2dVertex
 10
85.01220972267056
 20
-215.7742539608134
 30
0.0
  0
VERTEX
  5
3CA
330
3B9
100
AcDbEntity
  8
MOUNTAINLINE
 62
     7
100
AcDbVertex
100
AcDb2dVertex
 10
84.352990701568
 20
-213.3148002938935
 30
0.0
  0
SEQEND
  5
3CB
330
3B9
100
AcDbEntity
  8
MOUNTAINLINE
  0
ENDBLK
  5
3B8
330
3B5
100
AcDbEntity
  8
0
100
AcDbBlockEnd
  0
BLOCK
  5
3CE
330
3CC
100
AcDbEntity
  8
0
100
AcDbBlockBegin
  2
BLOCK_76
 70
     0
 71
     0
 10
0.0
 20
0.0
 30
0.0
  3
BLOCK_76
  1

  0
POLYLINE
  5
3D0
330
3CC
100
AcDbEntity
  8
MOUNTAINLINE
 62
     7
100
AcDb2dPolyline
 66
     1
 10
0.0
 20
0.0
 30
0.0
  0
VERTEX
  5
3D1
330
3D0
100
AcDbEntity
  8
MOUNTAINLINE
 62
     7
100
AcDbVertex
100
AcDb2dVertex
 10
118.5436685901558
 20
-213.3148002938935
 30
0.0
  0
VERTEX
  5
3D2
330
3D0
100
AcDbEntity
  8
MOUNTAINLINE
 62
     7
100
AcDbVertex
100
AcDb2dVertex
 10
123.8181097780733
 20
-232.991463157898
 30
0.0
  0
SEQEND
  5
3D3
330
3D0
100
AcDbEntity
  8
MOUNTAINLINE
  0
ENDBLK
  5
3CF
330
3CC
100
AcDbEntity
  8
0
100
AcDbBlockEnd
  0
BLOCK
  5
3D6
330
3D4
100
AcDbEntity
  8
0
100
AcDbBlockBegin
  2
BLOCK_77
 70
     0
 71
     0
 10
0.0
 20
0.0
 30
0.0
  3
BLOCK_77
  1

  0
POLYLINE
  5
3D8
330
3D4
100
AcDbEntity
  8
MOUNTAINLINE
 62
     7
100
AcDb2dPolyline
 66
     1
 10
0.0
 20
0.0
 30
0.0
  0
VERTEX
  5
3D9
330
3D8
100
AcDbEntity
  8
MOUNTAINLINE
 62
     7
100
AcDbVertex
100
AcDb2dVertex
 10
123.8181097780733
 20
-232.991463157898
 30
0.0
  0
VERTEX
  5
3DA
330
3D8
100
AcDbEntity
  8
MOUNTAINLINE
 62
     7
100
AcDbVertex
100
AcDb2dVertex
 10
147.0793944944802
 20
-223.1508924138303
 30
0.0
  0
SEQEND
  5
3DB
330
3D8
100
AcDbEntity
  8
MOUNTAINLINE
  0
ENDBLK
  5
3D7
330
3D4
100
AcDbEntity
  8
0
100
AcDbBlockEnd
  0
BLOCK
  5
3DE
330
3DC
100
AcDbEntity
  8
0
100
AcDbBlockBegin
  2
BLOCK_78
 70
     0
 71
     0
 10
0.0
 20
0.0
 30
0.0
  3
BLOCK_78
  1

  0
POLYLINE
  5
3E0
330
3DC
100
AcDbEntity
  8
MOUNTAINLINE
 62
     7
100
AcDb2dPolyline
 66
     1
 10
0.0
 20
0.0
 30
0.0
  0
VERTEX
  5
3E1
330
3E0
100
AcDbEntity
  8
MOUNTAINLINE
 62
     7
100
AcDbVertex
100
AcDb2dVertex
 10
147.0793944944802
 20
-223.1508924138303
 30
0.0
  0
VERTEX
  5
3E2
330
3E0
100
AcDbEntity
  8
MOUNTAINLINE
 62
     7
100
AcDbVertex
100
AcDb2dVertex
 10
155.2218776738681
 20
-232.9897406101554
 30
0.0
  0
SEQEND
  5
3E3
330
3E0
100
AcDbEntity
  8
MOUNTAINLINE
  0
ENDBLK
  5
3DF
330
3DC
100
AcDbEntity
  8
0
100
AcDbBlockEnd
  0
BLOCK
  5
3E6
330
3E4
100
AcDbEntity
  8
0
100
AcDbBlockBegin
  2
BLOCK_79
 70
     0
 71
     0
 10
0.0
 20
0.0
 30
0.0
  3
BLOCK_79
  1

  0
POLYLINE
  5
3E8
330
3E4
100
AcDbEntity
  8
MOUNTAINLINE
 62
     7
100
AcDb2dPolyline
 66
     1
 10
0.0
 20
0.0
 30
0.0
  0
VERTEX
  5
3E9
330
3E8
100
AcDbEntity
  8
MOUNTAINLINE
 62
     7
100
AcDbVertex
100
AcDb2dVertex
 10
155.2218776738681
 20
-232.9897406101554
 30
0.0
  0
VERTEX
  5
3EA
330
3E8
100
AcDbEntity
  8
MOUNTAINLINE
 62
     7
100
AcDbVertex
100
AcDb2dVertex
 10
162.9251111788868
 20
-232.9897406101554
 30
0.0
  0
SEQEND
  5
3EB
330
3E8
100
AcDbEntity
  8
MOUNTAINLINE
  0
ENDBLK
  5
3E7
330
3E4
100
AcDbEntity
  8
0
100
AcDbBlockEnd
  0
BLOCK
  5
3EE
330
3EC
100
AcDbEntity
  8
0
100
AcDbBlockBegin
  2
BLOCK_80
 70
     0
 71
     0
 10
0.0
 20
0.0
 30
0.0
  3
BLOCK_80
  1

  0
POLYLINE
  5
3F0
330
3EC
100
AcDbEntity
  8
MOUNTAINLINE
 62
     7
100
AcDb2dPolyline
 66
     1
 10
0.0
 20
0.0
 30
0.0
  0
VERTEX
  5
3F1
330
3F0
100
AcDbEntity
  8
MOUNTAINLINE
 62
     7
100
AcDbVertex
100
AcDb2dVertex
 10
84.352990701568
 20
-252.6674370028054
 30
0.0
  0
VERTEX
  5
3F2
330
3F0
100
AcDbEntity
  8
MOUNTAINLINE
 62
     7
100
AcDbVertex
100
AcDb2dVertex
 10
79.07837725887624
 20
-232.991463157898
 30
0.0
  0
SEQEND
  5
3F3
330
3F0
100
AcDbEntity
  8
MOUNTAINLINE
  0
ENDBLK
  5
3EF
330
3EC
100
AcDbEntity
  8
0
100
AcDbBlockEnd
  0
BLOCK
  5
3F6
330
3F4
100
AcDbEntity
  8
0
100
AcDbBlockBegin
  2
BLOCK_81
 70
     0
 71
     0
 10
0.0
 20
0.0
 30
0.0
  3
BLOCK_81
  1

  0
POLYLINE
  5
3F8
330
3F4
100
AcDbEntity
  8
MOUNTAINLINE
 62
     7
100
AcDb2dPolyline
 66
     1
 10
0.0
 20
0.0
 30
0.0
  0
VERTEX
  5
3F9
330
3F8
100
AcDbEntity
  8
MOUNTAINLINE
 62
     7
100
AcDbVertex
100
AcDb2dVertex
 10
79.07837725887624
 20
-232.991463157898
 30
0.0
  0
VERTEX
  5
3FA
330
3F8
100
AcDbEntity
  8
MOUNTAINLINE
 62
     7
100
AcDbVertex
100
AcDb2dVertex
 10
55.81657577814655
 20
-242.8313448828686
 30
0.0
  0
SEQEND
  5
3FB
330
3F8
100
AcDbEntity
  8
MOUNTAINLINE
  0
ENDBLK
  5
3F7
330
3F4
100
AcDbEntity
  8
0
100
AcDbBlockEnd
  0
BLOCK
  5
3FE
330
3FC
100
AcDbEntity
  8
0
100
AcDbBlockBegin
  2
BLOCK_82
 70
     0
 71
     0
 10
0.0
 20
0.0
 30
0.0
  3
BLOCK_82
  1

  0
POLYLINE
  5
400
330
3FC
100
AcDbEntity
  8
MOUNTAINLINE
 62
     7
100
AcDb2dPolyline
 66
     1
 10
0.0
 20
0.0
 30
0.0
  0
VERTEX
  5
401
330
400
100
AcDbEntity
  8
MOUNTAINLINE
 62
     7
100
AcDbVertex
100
AcDb2dVertex
 10
55.81709254246934
 20
-242.8313448828686
 30
0.0
  0
VERTEX
  5
402
330
400
100
AcDbEntity
  8
MOUNTAINLINE
 62
     7
100
AcDbVertex
100
AcDb2dVertex
 10
47.67495387262988
 20
-232.9924966865435
 30
0.0
  0
SEQEND
  5
403
330
400
100
AcDbEntity
  8
MOUNTAINLINE
  0
ENDBLK
  5
3FF
330
3FC
100
AcDbEntity
  8
0
100
AcDbBlockEnd
  0
BLOCK
  5
406
330
404
100
AcDbEntity
  8
0
100
AcDbBlockBegin
  2
BLOCK_83
 70
     0
 71
     0
 10
0.0
 20
0.0
 30
0.0
  3
BLOCK_83
  1

  0
POLYLINE
  5
408
330
404
100
AcDbEntity
  8
MOUNTAINLINE
 62
     7
100
AcDb2dPolyline
 66
     1
 10
0.0
 20
0.0
 30
0.0
  0
VERTEX
  5
409
330
408
100
AcDbEntity
  8
MOUNTAINLINE
 62
     7
100
AcDbVertex
100
AcDb2dVertex
 10
118.5436685901558
 20
-252.6674370028054
 30
0.0
  0
VERTEX
  5
40A
330
408
100
AcDbEntity
  8
MOUNTAINLINE
 62
     7
100
AcDbVertex
100
AcDb2dVertex
 10
117.884966333376
 20
-250.2079833358855
 30
0.0
  0
VERTEX
  5
40B
330
408
100
AcDbEntity
  8
MOUNTAINLINE
 62
     7
100
AcDbVertex
100
AcDb2dVertex
 10
117.1825113639335
 20
-247.7485296689657
 30
0.0
  0
VERTEX
  5
40C
330
408
100
AcDbEntity
  8
MOUNTAINLINE
 62
     7
100
AcDbVertex
100
AcDb2dVertex
 10
116.2047932652196
 20
-245.2887314924973
 30
0.0
  0
VERTEX
  5
40D
330
408
100
AcDbEntity
  8
MOUNTAINLINE
 62
     7
100
AcDbVertex
100
AcDb2dVertex
 10
114.6166042465195
 20
-242.8285888064804
 30
0.0
  0
VERTEX
  5
40E
330
408
100
AcDbEntity
  8
MOUNTAINLINE
 62
     7
100
AcDbVertex
100
AcDb2dVertex
 10
112.121321586553
 20
-240.3691351395605
 30
0.0
  0
VERTEX
  5
40F
330
408
100
AcDbEntity
  8
MOUNTAINLINE
 62
     7
100
AcDbVertex
100
AcDb2dVertex
 10
108.9387423772792
 20
-238.2169839899249
 30
0.0
  0
VERTEX
  5
410
330
408
100
AcDbEntity
  8
MOUNTAINLINE
 62
     7
100
AcDbVertex
100
AcDb2dVertex
 10
105.3043388951149
 20
-236.6794378748579
 30
0.0
  0
VERTEX
  5
411
330
408
100
AcDbEntity
  8
MOUNTAINLINE
 62
     7
100
AcDbVertex
100
AcDb2dVertex
 10
101.4489325375718
 20
-236.0637993116438
 30
0.0
  0
VERTEX
  5
412
330
408
100
AcDbEntity
  8
MOUNTAINLINE
 62
     7
100
AcDbVertex
100
AcDb2dVertex
 10
97.59214814183461
 20
-236.6794378748579
 30
0.0
  0
VERTEX
  5
413
330
408
100
AcDbEntity
  8
MOUNTAINLINE
 62
     7
100
AcDbVertex
100
AcDb2dVertex
 10
93.9577446596703
 20
-238.2169839899249
 30
0.0
  0
VERTEX
  5
414
330
408
100
AcDbEntity
  8
MOUNTAINLINE
 62
     7
100
AcDbVertex
100
AcDb2dVertex
 10
90.77550995994501
 20
-240.3691351395605
 30
0.0
  0
VERTEX
  5
415
330
408
100
AcDbEntity
  8
MOUNTAINLINE
 62
     7
100
AcDbVertex
100
AcDb2dVertex
 10
88.27936602610724
 20
-242.8285888064804
 30
0.0
  0
VERTEX
  5
416
330
408
100
AcDbEntity
  8
MOUNTAINLINE
 62
     7
100
AcDbVertex
100
AcDb2dVertex
 10
86.69134926218133
 20
-245.2887314924973
 30
0.0
  0
VERTEX
  5
417
330
408
100
AcDbEntity
  8
MOUNTAINLINE
 62
     7
100
AcDbVertex
100
AcDb2dVertex
 10
85.71414792779022
 20
-247.7485296689657
 30
0.0
  0
VERTEX
  5
418
330
408
100
AcDbEntity
  8
MOUNTAINLINE
 62
     7
100
AcDbVertex
100
AcDb2dVertex
 10
85.01220972267056
 20
-250.2079833358855
 30
0.0
  0
VERTEX
  5
419
330
408
100
AcDbEntity
  8
MOUNTAINLINE
 62
     7
100
AcDbVertex
100
AcDb2dVertex
 10
84.352990701568
 20
-252.6674370028054
 30
0.0
  0
SEQEND
  5
41A
330
408
100
AcDbEntity
  8
MOUNTAINLINE
  0
ENDBLK
  5
407
330
404
100
AcDbEntity
  8
0
100
AcDbBlockEnd
  0
BLOCK
  5
41D
330
41B
100
AcDbEntity
  8
0
100
AcDbBlockBegin
  2
BLOCK_84
 70
     0
 71
     0
 10
0.0
 20
0.0
 30
0.0
  3
BLOCK_84
  1

  0
POLYLINE
  5
41F
330
41B
100
AcDbEntity
  8
MOUNTAINLINE
 62
     7
100
AcDb2dPolyline
 66
     1
 10
0.0
 20
0.0
 30
0.0
  0
VERTEX
  5
420
330
41F
100
AcDbEntity
  8
MOUNTAINLINE
 62
     7
100
AcDbVertex
100
AcDb2dVertex
 10
118.5436685901558
 20
-252.6674370028054
 30
0.0
  0
VERTEX
  5
421
330
41F
100
AcDbEntity
  8
MOUNTAINLINE
 62
     7
100
AcDbVertex
100
AcDb2dVertex
 10
123.8181097780733
 20
-232.991463157898
 30
0.0
  0
SEQEND
  5
422
330
41F
100
AcDbEntity
  8
MOUNTAINLINE
  0
ENDBLK
  5
41E
330
41B
100
AcDbEntity
  8
0
100
AcDbBlockEnd
  0
BLOCK
  5
425
330
423
100
AcDbEntity
  8
0
100
AcDbBlockBegin
  2
BLOCK_85
 70
     0
 71
     0
 10
0.0
 20
0.0
 30
0.0
  3
BLOCK_85
  1

  0
POLYLINE
  5
427
330
423
100
AcDbEntity
  8
MOUNTAINLINE
 62
     7
100
AcDb2dPolyline
 66
     1
 10
0.0
 20
0.0
 30
0.0
  0
VERTEX
  5
428
330
427
100
AcDbEntity
  8
MOUNTAINLINE
 62
     7
100
AcDbVertex
100
AcDb2dVertex
 10
123.8181097780733
 20
-232.991463157898
 30
0.0
  0
VERTEX
  5
429
330
427
100
AcDbEntity
  8
MOUNTAINLINE
 62
     7
100
AcDbVertex
100
AcDb2dVertex
 10
147.0793944944802
 20
-242.8313448828686
 30
0.0
  0
SEQEND
  5
42A
330
427
100
AcDbEntity
  8
MOUNTAINLINE
  0
ENDBLK
  5
426
330
423
100
AcDbEntity
  8
0
100
AcDbBlockEnd
  0
BLOCK
  5
42D
330
42B
100
AcDbEntity
  8
0
100
AcDbBlockBegin
  2
BLOCK_86
 70
     0
 71
     0
 10
0.0
 20
0.0
 30
0.0
  3
BLOCK_86
  1

  0
POLYLINE
  5
42F
330
42B
100
AcDbEntity
  8
MOUNTAINLINE
 62
     7
100
AcDb2dPolyline
 66
     1
 10
0.0
 20
0.0
 30
0.0
  0
VERTEX
  5
430
330
42F
100
AcDbEntity
  8
MOUNTAINLINE
 62
     7
100
AcDbVertex
100
AcDb2dVertex
 10
147.0793944944802
 20
-242.8313448828686
 30
0.0
  0
VERTEX
  5
431
330
42F
100
AcDbEntity
  8
MOUNTAINLINE
 62
     7
100
AcDbVertex
100
AcDb2dVertex
 10
155.2218776738681
 20
-232.9924966865435
 30
0.0
  0
SEQEND
  5
432
330
42F
100
AcDbEntity
  8
MOUNTAINLINE
  0
ENDBLK
  5
42E
330
42B
100
AcDbEntity
  8
0
100
AcDbBlockEnd
  0
BLOCK
  5
435
330
433
100
AcDbEntity
  8
0
100
AcDbBlockBegin
  2
BLOCK_87
 70
     0
 71
     0
 10
0.0
 20
0.0
 30
0.0
  3
BLOCK_87
  1

  0
POLYLINE
  5
437
330
433
100
AcDbEntity
  8
MOUNTAINLINE
 62
     7
100
AcDb2dPolyline
 66
     1
 10
0.0
 20
0.0
 30
0.0
  0
VERTEX
  5
438
330
437
100
AcDbEntity
  8
MOUNTAINLINE
 62
     7
100
AcDbVertex
100
AcDb2dVertex
 10
84.352990701568
 20
-252.6674370028054
 30
0.0
  0
VERTEX
  5
439
330
437
100
AcDbEntity
  8
MOUNTAINLINE
 62
     7
100
AcDbVertex
100
AcDb2dVertex
 10
79.07837725887624
 20
-272.3430663381642
 30
0.0
  0
SEQEND
  5
43A
330
437
100
AcDbEntity
  8
MOUNTAINLINE
  0
ENDBLK
  5
436
330
433
100
AcDbEntity
  8
0
100
AcDbBlockEnd
  0
BLOCK
  5
43D
330
43B
100
AcDbEntity
  8
0
100
AcDbBlockBegin
  2
BLOCK_88
 70
     0
 71
     0
 10
0.0
 20
0.0
 30
0.0
  3
BLOCK_88
  1

  0
POLYLINE
  5
43F
330
43B
100
AcDbEntity
  8
MOUNTAINLINE
 62
     7
100
AcDb2dPolyline
 66
     1
 10
0.0
 20
0.0
 30
0.0
  0
VERTEX
  5
440
330
43F
100
AcDbEntity
  8
MOUNTAINLINE
 62
     7
100
AcDbVertex
100
AcDb2dVertex
 10
79.07837725887624
 20
-272.3430663381642
 30
0.0
  0
VERTEX
  5
441
330
43F
100
AcDbEntity
  8
MOUNTAINLINE
 62
     7
100
AcDbVertex
100
AcDb2dVertex
 10
55.81657577814655
 20
-262.5031846131936
 30
0.0
  0
SEQEND
  5
442
330
43F
100
AcDbEntity
  8
MOUNTAINLINE
  0
ENDBLK
  5
43E
330
43B
100
AcDbEntity
  8
0
100
AcDbBlockEnd
  0
BLOCK
  5
445
330
443
100
AcDbEntity
  8
0
100
AcDbBlockBegin
  2
BLOCK_89
 70
     0
 71
     0
 10
0.0
 20
0.0
 30
0.0
  3
BLOCK_89
  1

  0
POLYLINE
  5
447
330
443
100
AcDbEntity
  8
MOUNTAINLINE
 62
     7
100
AcDb2dPolyline
 66
     1
 10
0.0
 20
0.0
 30
0.0
  0
VERTEX
  5
448
330
447
100
AcDbEntity
  8
MOUNTAINLINE
 62
     7
100
AcDbVertex
100
AcDb2dVertex
 10
55.81709254246934
 20
-262.5031846131936
 30
0.0
  0
VERTEX
  5
449
330
447
100
AcDbEntity
  8
MOUNTAINLINE
 62
     7
100
AcDbVertex
100
AcDb2dVertex
 10
47.67495387262988
 20
-272.3420328095187
 30
0.0
  0
SEQEND
  5
44A
330
447
100
AcDbEntity
  8
MOUNTAINLINE
  0
ENDBLK
  5
446
330
443
100
AcDbEntity
  8
0
100
AcDbBlockEnd
  0
BLOCK
  5
44D
330
44B
100
AcDbEntity
  8
0
100
AcDbBlockBegin
  2
BLOCK_90
 70
     0
 71
     0
 10
0.0
 20
0.0
 30
0.0
  3
BLOCK_90
  1

  0
POLYLINE
  5
44F
330
44B
100
AcDbEntity
  8
MOUNTAINLINE
 62
     7
100
AcDb2dPolyline
 66
     1
 10
0.0
 20
0.0
 30
0.0
  0
VERTEX
  5
450
330
44F
100
AcDbEntity
  8
MOUNTAINLINE
 62
     7
100
AcDbVertex
100
AcDb2dVertex
 10
118.5436685901558
 20
-252.6674370028054
 30
0.0
  0
VERTEX
  5
451
330
44F
100
AcDbEntity
  8
MOUNTAINLINE
 62
     7
100
AcDbVertex
100
AcDb2dVertex
 10
117.884966333376
 20
-255.1268906697252
 30
0.0
  0
VERTEX
  5
452
330
44F
100
AcDbEntity
  8
MOUNTAINLINE
 62
     7
100
AcDbVertex
100
AcDb2dVertex
 10
117.1825113639335
 20
-257.5863443366451
 30
0.0
  0
VERTEX
  5
453
330
44F
100
AcDbEntity
  8
MOUNTAINLINE
 62
     7
100
AcDbVertex
100
AcDb2dVertex
 10
116.2047932652196
 20
-260.0457980035649
 30
0.0
  0
VERTEX
  5
454
330
44F
100
AcDbEntity
  8
MOUNTAINLINE
 62
     7
100
AcDbVertex
100
AcDb2dVertex
 10
114.6166042465195
 20
-262.5059406895818
 30
0.0
  0
VERTEX
  5
455
330
44F
100
AcDbEntity
  8
MOUNTAINLINE
 62
     7
100
AcDbVertex
100
AcDb2dVertex
 10
112.121321586553
 20
-264.9657388660502
 30
0.0
  0
VERTEX
  5
456
330
44F
100
AcDbEntity
  8
MOUNTAINLINE
 62
     7
100
AcDbVertex
100
AcDb2dVertex
 10
108.9387423772792
 20
-267.1175455061373
 30
0.0
  0
VERTEX
  5
457
330
44F
100
AcDbEntity
  8
MOUNTAINLINE
 62
     7
100
AcDbVertex
100
AcDb2dVertex
 10
105.3043388951149
 20
-268.6550916212043
 30
0.0
  0
VERTEX
  5
458
330
44F
100
AcDbEntity
  8
MOUNTAINLINE
 62
     7
100
AcDbVertex
100
AcDb2dVertex
 10
101.4489325375718
 20
-269.2707301844184
 30
0.0
  0
VERTEX
  5
459
330
44F
100
AcDbEntity
  8
MOUNTAINLINE
 62
     7
100
AcDbVertex
100
AcDb2dVertex
 10
97.59214814183461
 20
-268.6550916212043
 30
0.0
  0
VERTEX
  5
45A
330
44F
100
AcDbEntity
  8
MOUNTAINLINE
 62
     7
100
AcDbVertex
100
AcDb2dVertex
 10
93.9577446596703
 20
-267.1175455061373
 30
0.0
  0
VERTEX
  5
45B
330
44F
100
AcDbEntity
  8
MOUNTAINLINE
 62
     7
100
AcDbVertex
100
AcDb2dVertex
 10
90.77550995994501
 20
-264.9657388660502
 30
0.0
  0
VERTEX
  5
45C
330
44F
100
AcDbEntity
  8
MOUNTAINLINE
 62
     7
100
AcDbVertex
100
AcDb2dVertex
 10
88.27936602610724
 20
-262.5059406895818
 30
0.0
  0
VERTEX
  5
45D
330
44F
100
AcDbEntity
  8
MOUNTAINLINE
 62
     7
100
AcDbVertex
100
AcDb2dVertex
 10
86.69134926218133
 20
-260.0457980035649
 30
0.0
  0
VERTEX
  5
45E
330
44F
100
AcDbEntity
  8
MOUNTAINLINE
 62
     7
100
AcDbVertex
100
AcDb2dVertex
 10
85.71414792779022
 20
-257.5863443366451
 30
0.0
  0
VERTEX
  5
45F
330
44F
100
AcDbEntity
  8
MOUNTAINLINE
 62
     7
100
AcDbVertex
100
AcDb2dVertex
 10
85.01220972267056
 20
-255.1268906697252
 30
0.0
  0
VERTEX
  5
460
330
44F
100
AcDbEntity
  8
MOUNTAINLINE
 62
     7
100
AcDbVertex
100
AcDb2dVertex
 10
84.352990701568
 20
-252.6674370028054
 30
0.0
  0
SEQEND
  5
461
330
44F
100
AcDbEntity
  8
MOUNTAINLINE
  0
ENDBLK
  5
44E
330
44B
100
AcDbEntity
  8
0
100
AcDbBlockEnd
  0
BLOCK
  5
464
330
462
100
AcDbEntity
  8
0
100
AcDbBlockBegin
  2
BLOCK_91
 70
     0
 71
     0
 10
0.0
 20
0.0
 30
0.0
  3
BLOCK_91
  1

  0
POLYLINE
  5
466
330
462
100
AcDbEntity
  8
MOUNTAINLINE
 62
     7
100
AcDb2dPolyline
 66
     1
 10
0.0
 20
0.0
 30
0.0
  0
VERTEX
  5
467
330
466
100
AcDbEntity
  8
MOUNTAINLINE
 62
     7
100
AcDbVertex
100
AcDb2dVertex
 10
118.5436685901558
 20
-252.6674370028054
 30
0.0
  0
VERTEX
  5
468
330
466
100
AcDbEntity
  8
MOUNTAINLINE
 62
     7
100
AcDbVertex
100
AcDb2dVertex
 10
123.8181097780733
 20
-272.3430663381642
 30
0.0
  0
SEQEND
  5
469
330
466
100
AcDbEntity
  8
MOUNTAINLINE
  0
ENDBLK
  5
465
330
462
100
AcDbEntity
  8
0
100
AcDbBlockEnd
  0
BLOCK
  5
46C
330
46A
100
AcDbEntity
  8
0
100
AcDbBlockBegin
  2
BLOCK_92
 70
     0
 71
     0
 10
0.0
 20
0.0
 30
0.0
  3
BLOCK_92
  1

  0
POLYLINE
  5
46E
330
46A
100
AcDbEntity
  8
MOUNTAINLINE
 62
     7
100
AcDb2dPolyline
 66
     1
 10
0.0
 20
0.0
 30
0.0
  0
VERTEX
  5
46F
330
46E
100
AcDbEntity
  8
MOUNTAINLINE
 62
     7
100
AcDbVertex
100
AcDb2dVertex
 10
123.8181097780733
 20
-272.3430663381642
 30
0.0
  0
VERTEX
  5
470
330
46E
100
AcDbEntity
  8
MOUNTAINLINE
 62
     7
100
AcDbVertex
100
AcDb2dVertex
 10
147.0793944944802
 20
-262.5031846131936
 30
0.0
  0
SEQEND
  5
471
330
46E
100
AcDbEntity
  8
MOUNTAINLINE
  0
ENDBLK
  5
46D
330
46A
100
AcDbEntity
  8
0
100
AcDbBlockEnd
  0
BLOCK
  5
474
330
472
100
AcDbEntity
  8
0
100
AcDbBlockBegin
  2
BLOCK_93
 70
     0
 71
     0
 10
0.0
 20
0.0
 30
0.0
  3
BLOCK_93
  1

  0
POLYLINE
  5
476
330
472
100
AcDbEntity
  8
MOUNTAINLINE
 62
     7
100
AcDb2dPolyline
 66
     1
 10
0.0
 20
0.0
 30
0.0
  0
VERTEX
  5
477
330
476
100
AcDbEntity
  8
MOUNTAINLINE
 62
     7
100
AcDbVertex
100
AcDb2dVertex
 10
147.0793944944802
 20
-262.5031846131936
 30
0.0
  0
VERTEX
  5
478
330
476
100
AcDbEntity
  8
MOUNTAINLINE
 62
     7
100
AcDbVertex
100
AcDb2dVertex
 10
155.2218776738681
 20
-272.3420328095187
 30
0.0
  0
SEQEND
  5
479
330
476
100
AcDbEntity
  8
MOUNTAINLINE
  0
ENDBLK
  5
475
330
472
100
AcDbEntity
  8
0
100
AcDbBlockEnd
  0
BLOCK
  5
494
330
492
100
AcDbEntity
  8
0
100
AcDbBlockBegin
  2
BLOCK_94
 70
     0
 71
     0
 10
0.0
 20
0.0
 30
0.0
  3
BLOCK_94
  1

  0
POLYLINE
  5
496
330
492
100
AcDbEntity
  8
MOUNTAINLINE
 62
     7
100
AcDb2dPolyline
 66
     1
 10
0.0
 20
0.0
 30
0.0
  0
VERTEX
  5
497
330
496
100
AcDbEntity
  8
MOUNTAINLINE
 62
     7
100
AcDbVertex
100
AcDb2dVertex
 10
155.2218776738681
 20
-154.2906683642051
 30
0.0
  0
VERTEX
  5
498
330
496
100
AcDbEntity
  8
MOUNTAINLINE
 62
     7
100
AcDbVertex
100
AcDb2dVertex
 10
162.9251111788868
 20
-154.2906683642051
 30
0.0
  0
SEQEND
  5
499
330
496
100
AcDbEntity
  8
MOUNTAINLINE
  0
ENDBLK
  5
495
330
492
100
AcDbEntity
  8
0
100
AcDbBlockEnd
  0
BLOCK
  5
49C
330
49A
100
AcDbEntity
  8
0
100
AcDbBlockBegin
  2
BLOCK_95
 70
     0
 71
     0
 10
0.0
 20
0.0
 30
0.0
  3
BLOCK_95
  1

  0
POLYLINE
  5
49E
330
49A
100
AcDbEntity
  8
MOUNTAINLINE
 62
     7
100
AcDb2dPolyline
 66
     1
 10
0.0
 20
0.0
 30
0.0
  0
VERTEX
  5
49F
330
49E
100
AcDbEntity
  8
MOUNTAINLINE
 62
     7
100
AcDbVertex
100
AcDb2dVertex
 10
39.97154811283698
 20
-154.2868787591713
 30
0.0
  0
VERTEX
  5
4A0
330
49E
100
AcDbEntity
  8
MOUNTAINLINE
 62
     7
100
AcDbVertex
100
AcDb2dVertex
 10
47.67495387262988
 20
-154.2868787591713
 30
0.0
  0
SEQEND
  5
4A1
330
49E
100
AcDbEntity
  8
MOUNTAINLINE
  0
ENDBLK
  5
49D
330
49A
100
AcDbEntity
  8
0
100
AcDbBlockEnd
  0
ENDSEC
  0
SECTION
  2
ENTITIES
  0
POLYLINE
  5
3C
330
1F
100
AcDbEntity
  8
CUTLINE
 62
     7
100
AcDb2dPolyline
 66
     1
 10
0.0
 20
0.0
 30
0.0
  0
VERTEX
  5
3D
330
3C
100
AcDbEntity
  8
CUTLINE
 62
     7
100
AcDbVertex
100
AcDb2dVertex
 10
162.9251111788868
 20
-36.23723686160042
 30
0.0
  0
VERTEX
  5
3E
330
3C
100
AcDbEntity
  8
CUTLINE
 62
     7
100
AcDbVertex
100
AcDb2dVertex
 10
39.97154811283698
 20
-36.23878715456878
 30
0.0
  0
SEQEND
  5
3F
330
3C
100
AcDbEntity
  8
CUTLINE
  0
POLYLINE
  5
40
330
1F
100
AcDbEntity
  8
CUTLINE
 62
     7
100
AcDb2dPolyline
 66
     1
 10
0.0
 20
0.0
 30
0.0
  0
VERTEX
  5
41
330
40
100
AcDbEntity
  8
CUTLINE
 62
     7
100
AcDbVertex
100
AcDb2dVertex
 10
39.97154811283698
 20
-36.23895940934304
 30
0.0
  0
VERTEX
  5
42
330
40
100
AcDbEntity
  8
CUTLINE
 62
     7
100
AcDbVertex
100
AcDb2dVertex
 10
39.97154811283698
 20
-154.2930799310448
 30
0.0
  0
SEQEND
  5
43
330
40
100
AcDbEntity
  8
CUTLINE
  0
POLYLINE
  5
44
330
1F
100
AcDbEntity
  8
CUTLINE
 62
     7
100
AcDb2dPolyline
 66
     1
 10
0.0
 20
0.0
 30
0.0
  0
VERTEX
  5
45
330
44
100
AcDbEntity
  8
CUTLINE
 62
     7
100
AcDbVertex
100
AcDb2dVertex
 10
162.9251111788868
 20
-154.2930799310448
 30
0.0
  0
VERTEX
  5
46
330
44
100
AcDbEntity
  8
CUTLINE
 62
     7
100
AcDbVertex
100
AcDb2dVertex
 10
162.9251111788868
 20
-36.23723686160042
 30
0.0
  0
SEQEND
  5
47
330
44
100
AcDbEntity
  8
CUTLINE
  0
POLYLINE
  5
48
330
1F
100
AcDbEntity
  8
CUTLINE
 62
     7
100
AcDb2dPolyline
 66
     1
 10
0.0
 20
0.0
 30
0.0
  0
VERTEX
  5
49
330
48
100
AcDbEntity
  8
CUTLINE
 62
     7
100
AcDbVertex
100
AcDb2dVertex
 10
162.9251111788868
 20
-272.3430663381642
 30
0.0
  0
VERTEX
  5
4A
330
48
100
AcDbEntity
  8
CUTLINE
 62
     7
100
AcDbVertex
100
AcDb2dVertex
 10
39.97154811283698
 20
-272.3413437904216
 30
0.0
  0
SEQEND
  5
4B
330
48
100
AcDbEntity
  8
CUTLINE
  0
POLYLINE
  5
4C
330
1F
100
AcDbEntity
  8
CUTLINE
 62
     7
100
AcDb2dPolyline
 66
     1
 10
0.0
 20
0.0
 30
0.0
  0
VERTEX
  5
4D
330
4C
100
AcDbEntity
  8
CUTLINE
 62
     7
100
AcDbVertex
100
AcDb2dVertex
 10
39.97154811283698
 20
-272.3413437904216
 30
0.0
  0
VERTEX
  5
4E
330
4C
100
AcDbEntity
  8
CUTLINE
 62
     7
100
AcDbVertex
100
AcDb2dVertex
 10
39.97154811283698
 20
-154.2868787591713
 30
0.0
  0
SEQEND
  5
4F
330
4C
100
AcDbEntity
  8
CUTLINE
  0
POLYLINE
  5
50
330
1F
100
AcDbEntity
  8
CUTLINE
 62
     7
100
AcDb2dPolyline
 66
     1
 10
0.0
 20
0.0
 30
0.0
  0
VERTEX
  5
51
330
50
100
AcDbEntity
  8
CUTLINE
 62
     7
100
AcDbVertex
100
AcDb2dVertex
 10
162.9251111788868
 20
-154.2868787591713
 30
0.0
  0
VERTEX
  5
52
330
50
100
AcDbEntity
  8
CUTLINE
 62
     7
100
AcDbVertex
100
AcDb2dVertex
 10
162.9251111788868
 20
-272.3430663381642
 30
0.0
  0
SEQEND
  5
53
330
50
100
AcDbEntity
  8
CUTLINE
  0
POLYLINE
  5
55
330
1F
100
AcDbEntity
  8
VALLEYLINE
  6
AI-LINETYPE-1
 62
     7
100
AcDb2dPolyline
 66
     1
 10
0.0
 20
0.0
 30
0.0
  0
VERTEX
  5
56
330
55
100
AcDbEntity
  8
VALLEYLINE
  6
AI-LINETYPE-1
 62
     7
100
AcDbVertex
100
AcDb2dVertex
 10
47.67495387262988
 20
-154.2917018928507
 30
0.0
  0
VERTEX
  5
57
330
55
100
AcDbEntity
  8
VALLEYLINE
  6
AI-LINETYPE-1
 62
     7
100
AcDbVertex
100
AcDb2dVertex
 10
47.67495387262988
 20
-36.23827039024599
 30
0.0
  0
SEQEND
  5
58
330
55
100
AcDbEntity
  8
VALLEYLINE
  6
AI-LINETYPE-1
  0
POLYLINE
  5
5A
330
1F
100
AcDbEntity
  8
VALLEYLINE
  6
AI-LINETYPE-2
 62
     7
100
AcDb2dPolyline
 66
     1
 10
0.0
 20
0.0
 30
0.0
  0
VERTEX
  5
5B
330
5A
100
AcDbEntity
  8
VALLEYLINE
  6
AI-LINETYPE-2
 62
     7
100
AcDbVertex
100
AcDb2dVertex
 10
84.352990701568
 20
-272.3413437904216
 30
0.0
  0
VERTEX
  5
5C
330
5A
100
AcDbEntity
  8
VALLEYLINE
  6
AI-LINETYPE-2
 62
     7
100
AcDbVertex
100
AcDb2dVertex
 10
84.352990701568
 20
-36.23551431385779
 30
0.0
  0
SEQEND
  5
5D
330
5A
100
AcDbEntity
  8
VALLEYLINE
  6
AI-LINETYPE-2
  0
POLYLINE
  5
5F
330
1F
100
AcDbEntity
  8
VALLEYLINE
  6
AI-LINETYPE-3
 62
     7
100
AcDb2dPolyline
 66
     1
 10
0.0
 20
0.0
 30
0.0
  0
VERTEX
  5
60
330
5F
100
AcDbEntity
  8
VALLEYLINE
  6
AI-LINETYPE-3
 62
     7
100
AcDbVertex
100
AcDb2dVertex
 10
155.2218776738681
 20
-154.289290326011
 30
0.0
  0
VERTEX
  5
61
330
5F
100
AcDbEntity
  8
VALLEYLINE
  6
AI-LINETYPE-3
 62
     7
100
AcDbVertex
100
AcDb2dVertex
 10
155.2218776738681
 20
-36.23516980430927
 30
0.0
  0
SEQEND
  5
62
330
5F
100
AcDbEntity
  8
VALLEYLINE
  6
AI-LINETYPE-3
  0
POLYLINE
  5
64
330
1F
100
AcDbEntity
  8
VALLEYLINE
  6
AI-LINETYPE-4
 62
     7
100
AcDb2dPolyline
 66
     1
 10
0.0
 20
0.0
 30
0.0
  0
VERTEX
  5
65
330
64
100
AcDbEntity
  8
VALLEYLINE
  6
AI-LINETYPE-4
 62
     7
100
AcDbVertex
100
AcDb2dVertex
 10
123.821899383107
 20
-154.2906683642051
 30
0.0
  0
VERTEX
  5
66
330
64
100
AcDbEntity
  8
VALLEYLINE
  6
AI-LINETYPE-4
 62
     7
100
AcDbVertex
100
AcDb2dVertex
 10
123.821899383107
 20
-36.23689235205189
 30
0.0
  0
SEQEND
  5
67
330
64
100
AcDbEntity
  8
VALLEYLINE
  6
AI-LINETYPE-4
  0
POLYLINE
  5
69
330
1F
100
AcDbEntity
  8
VALLEYLINE
  6
AI-LINETYPE-5
 62
     7
100
AcDb2dPolyline
 66
     1
 10
0.0
 20
0.0
 30
0.0
  0
VERTEX
  5
6A
330
69
100
AcDbEntity
  8
VALLEYLINE
  6
AI-LINETYPE-5
 62
     7
100
AcDbVertex
100
AcDb2dVertex
 10
118.5436685901558
 20
-272.3413437904216
 30
0.0
  0
VERTEX
  5
6B
330
69
100
AcDbEntity
  8
VALLEYLINE
  6
AI-LINETYPE-5
 62
     7
100
AcDbVertex
100
AcDb2dVertex
 10
118.5436685901558
 20
-36.23534205908353
 30
0.0
  0
SEQEND
  5
6C
330
69
100
AcDbEntity
  8
VALLEYLINE
  6
AI-LINETYPE-5
  0
POLYLINE
  5
6E
330
1F
100
AcDbEntity
  8
VALLEYLINE
  6
AI-LINETYPE-6
 62
     7
100
AcDb2dPolyline
 66
     1
 10
0.0
 20
0.0
 30
0.0
  0
VERTEX
  5
6F
330
6E
100
AcDbEntity
  8
VALLEYLINE
  6
AI-LINETYPE-6
 62
     7
100
AcDbVertex
100
AcDb2dVertex
 10
147.0793944944802
 20
-164.1298610700786
 30
0.0
  0
VERTEX
  5
70
330
6E
100
AcDbEntity
  8
VALLEYLINE
  6
AI-LINETYPE-6
 62
     7
100
AcDbVertex
100
AcDb2dVertex
 10
147.0793944944802
 20
-144.4482028176206
 30
0.0
  0
SEQEND
  5
71
330
6E
100
AcDbEntity
  8
VALLEYLINE
  6
AI-LINETYPE-6
  0
POLYLINE
  5
73
330
1F
100
AcDbEntity
  8
VALLEYLINE
  6
AI-LINETYPE-7
 62
     7
100
AcDb2dPolyline
 66
     1
 10
0.0
 20
0.0
 30
0.0
  0
VERTEX
  5
74
330
73
100
AcDbEntity
  8
VALLEYLINE
  6
AI-LINETYPE-7
 62
     7
100
AcDbVertex
100
AcDb2dVertex
 10
147.0783609658346
 20
-124.7756740681985
 30
0.0
  0
VERTEX
  5
75
330
73
100
AcDbEntity
  8
VALLEYLINE
  6
AI-LINETYPE-7
 62
     7
100
AcDbVertex
100
AcDb2dVertex
 10
147.0783609658346
 20
-105.095738363483
 30
0.0
  0
SEQEND
  5
76
330
73
100
AcDbEntity
  8
VALLEYLINE
  6
AI-LINETYPE-7
  0
POLYLINE
  5
78
330
1F
100
AcDbEntity
  8
VALLEYLINE
  6
AI-LINETYPE-8
 62
     7
100
AcDb2dPolyline
 66
     1
 10
0.0
 20
0.0
 30
0.0
  0
VERTEX
  5
79
330
78
100
AcDbEntity
  8
VALLEYLINE
  6
AI-LINETYPE-8
 62
     7
100
AcDbVertex
100
AcDb2dVertex
 10
147.0783609658346
 20
-85.42355412360939
 30
0.0
  0
VERTEX
  5
7A
330
78
100
AcDbEntity
  8
VALLEYLINE
  6
AI-LINETYPE-8
 62
     7
100
AcDbVertex
100
AcDb2dVertex
 10
147.0783609658346
 20
-65.7434461641197
 30
0.0
  0
SEQEND
  5
7B
330
78
100
AcDbEntity
  8
VALLEYLINE
  6
AI-LINETYPE-8
  0
POLYLINE
  5
7D
330
1F
100
AcDbEntity
  8
VALLEYLINE
  6
AI-LINETYPE-9
 62
     7
100
AcDb2dPolyline
 66
     1
 10
0.0
 20
0.0
 30
0.0
  0
VERTEX
  5
7E
330
7D
100
AcDbEntity
  8
VALLEYLINE
  6
AI-LINETYPE-9
 62
     7
100
AcDbVertex
100
AcDb2dVertex
 10
147.077327437189
 20
-46.07126192424607
 30
0.0
  0
VERTEX
  5
7F
330
7D
100
AcDbEntity
  8
VALLEYLINE
  6
AI-LINETYPE-9
 62
     7
100
AcDbVertex
100
AcDb2dVertex
 10
147.077327437189
 20
-36.23120794450123
 30
0.0
  0
SEQEND
  5
80
330
7D
100
AcDbEntity
  8
VALLEYLINE
  6
AI-LINETYPE-9
  0
POLYLINE
  5
82
330
1F
100
AcDbEntity
  8
VALLEYLINE
  6
AI-LINETYPE-10
 62
     7
100
AcDb2dPolyline
 66
     1
 10
0.0
 20
0.0
 30
0.0
  0
VERTEX
  5
83
330
82
100
AcDbEntity
  8
VALLEYLINE
  6
AI-LINETYPE-10
 62
     7
100
AcDbVertex
100
AcDb2dVertex
 10
55.81519773995245
 20
-124.7756740681985
 30
0.0
  0
VERTEX
  5
84
330
82
100
AcDbEntity
  8
VALLEYLINE
  6
AI-LINETYPE-10
 62
     7
100
AcDbVertex
100
AcDb2dVertex
 10
55.81519773995245
 20
-105.095738363483
 30
0.0
  0
SEQEND
  5
85
330
82
100
AcDbEntity
  8
VALLEYLINE
  6
AI-LINETYPE-10
  0
POLYLINE
  5
87
330
1F
100
AcDbEntity
  8
VALLEYLINE
  6
AI-LINETYPE-11
 62
     7
100
AcDb2dPolyline
 66
     1
 10
0.0
 20
0.0
 30
0.0
  0
VERTEX
  5
88
330
87
100
AcDbEntity
  8
VALLEYLINE
  6
AI-LINETYPE-11
 62
     7
100
AcDbVertex
100
AcDb2dVertex
 10
55.81468097562966
 20
-85.42355412360939
 30
0.0
  0
VERTEX
  5
89
330
87
100
AcDbEntity
  8
VALLEYLINE
  6
AI-LINETYPE-11
 62
     7
100
AcDbVertex
100
AcDb2dVertex
 10
55.81468097562966
 20
-65.7434461641197
 30
0.0
  0
SEQEND
  5
8A
330
87
100
AcDbEntity
  8
VALLEYLINE
  6
AI-LINETYPE-11
  0
POLYLINE
  5
8C
330
1F
100
AcDbEntity
  8
VALLEYLINE
  6
AI-LINETYPE-12
 62
     7
100
AcDb2dPolyline
 66
     1
 10
0.0
 20
0.0
 30
0.0
  0
VERTEX
  5
8D
330
8C
100
AcDbEntity
  8
VALLEYLINE
  6
AI-LINETYPE-12
 62
     7
100
AcDbVertex
100
AcDb2dVertex
 10
55.81416421130688
 20
-46.07126192424607
 30
0.0
  0
VERTEX
  5
8E
330
8C
100
AcDbEntity
  8
VALLEYLINE
  6
AI-LINETYPE-12
 62
     7
100
AcDbVertex
100
AcDb2dVertex
 10
55.81416421130688
 20
-36.23120794450123
 30
0.0
  0
SEQEND
  5
8F
330
8C
100
AcDbEntity
  8
VALLEYLINE
  6
AI-LINETYPE-12
  0
POLYLINE
  5
91
330
1F
100
AcDbEntity
  8
VALLEYLINE
  6
AI-LINETYPE-13
 62
     7
100
AcDb2dPolyline
 66
     1
 10
0.0
 20
0.0
 30
0.0
  0
VERTEX
  5
92
330
91
100
AcDbEntity
  8
VALLEYLINE
  6
AI-LINETYPE-13
 62
     7
100
AcDbVertex
100
AcDb2dVertex
 10
47.67495387262988
 20
-154.2889458164625
 30
0.0
  0
VERTEX
  5
93
330
91
100
AcDbEntity
  8
VALLEYLINE
  6
AI-LINETYPE-13
 62
     7
100
AcDbVertex
100
AcDb2dVertex
 10
47.67495387262988
 20
-272.3420328095187
 30
0.0
  0
SEQEND
  5
94
330
91
100
AcDbEntity
  8
VALLEYLINE
  6
AI-LINETYPE-13
  0
POLYLINE
  5
96
330
1F
100
AcDbEntity
  8
VALLEYLINE
  6
AI-LINETYPE-14
 62
     7
100
AcDb2dPolyline
 66
     1
 10
0.0
 20
0.0
 30
0.0
  0
VERTEX
  5
97
330
96
100
AcDbEntity
  8
VALLEYLINE
  6
AI-LINETYPE-14
 62
     7
100
AcDbVertex
100
AcDb2dVertex
 10
155.2218776738681
 20
-154.2906683642051
 30
0.0
  0
VERTEX
  5
98
330
96
100
AcDbEntity
  8
VALLEYLINE
  6
AI-LINETYPE-14
 62
     7
100
AcDbVertex
100
AcDb2dVertex
 10
155.2218776738681
 20
-272.3447888859069
 30
0.0
  0
SEQEND
  5
99
330
96
100
AcDbEntity
  8
VALLEYLINE
  6
AI-LINETYPE-14
  0
POLYLINE
  5
9B
330
1F
100
AcDbEntity
  8
VALLEYLINE
  6
AI-LINETYPE-15
 62
     7
100
AcDb2dPolyline
 66
     1
 10
0.0
 20
0.0
 30
0.0
  0
VERTEX
  5
9C
330
9B
100
AcDbEntity
  8
VALLEYLINE
  6
AI-LINETYPE-15
 62
     7
100
AcDbVertex
100
AcDb2dVertex
 10
123.821899383107
 20
-154.289290326011
 30
0.0
  0
VERTEX
  5
9D
330
9B
100
AcDbEntity
  8
VALLEYLINE
  6
AI-LINETYPE-15
 62
     7
100
AcDbVertex
100
AcDb2dVertex
 10
123.821899383107
 20
-272.3430663381642
 30
0.0
  0
SEQEND
  5
9E
330
9B
100
AcDbEntity
  8
VALLEYLINE
  6
AI-LINETYPE-15
  0
POLYLINE
  5
A0
330
1F
100
AcDbEntity
  8
VALLEYLINE
  6
AI-LINETYPE-16
 62
     7
100
AcDb2dPolyline
 66
     1
 10
0.0
 20
0.0
 30
0.0
  0
VERTEX
  5
A1
330
A0
100
AcDbEntity
  8
VALLEYLINE
  6
AI-LINETYPE-16
 62
     7
100
AcDbVertex
100
AcDb2dVertex
 10
147.0783609658346
 20
-183.8041123672434
 30
0.0
  0
VERTEX
  5
A2
330
A0
100
AcDbEntity
  8
VALLEYLINE
  6
AI-LINETYPE-16
 62
     7
100
AcDbVertex
100
AcDb2dVertex
 10
147.0783609658346
 20
-203.4845648362816
 30
0.0
  0
SEQEND
  5
A3
330
A0
100
AcDbEntity
  8
VALLEYLINE
  6
AI-LINETYPE-16
  0
POLYLINE
  5
A5
330
1F
100
AcDbEntity
  8
VALLEYLINE
  6
AI-LINETYPE-17
 62
     7
100
AcDb2dPolyline
 66
     1
 10
0.0
 20
0.0
 30
0.0
  0
VERTEX
  5
A6
330
A5
100
AcDbEntity
  8
VALLEYLINE
  6
AI-LINETYPE-17
 62
     7
100
AcDbVertex
100
AcDb2dVertex
 10
147.0783609658346
 20
-223.1564045666067
 30
0.0
  0
VERTEX
  5
A7
330
A5
100
AcDbEntity
  8
VALLEYLINE
  6
AI-LINETYPE-17
 62
     7
100
AcDbVertex
100
AcDb2dVertex
 10
147.0783609658346
 20
-242.836857035645
 30
0.0
  0
SEQEND
  5
A8
330
A5
100
AcDbEntity
  8
VALLEYLINE
  6
AI-LINETYPE-17
  0
POLYLINE
  5
AA
330
1F
100
AcDbEntity
  8
VALLEYLINE
  6
AI-LINETYPE-18
 62
     7
100
AcDb2dPolyline
 66
     1
 10
0.0
 20
0.0
 30
0.0
  0
VERTEX
  5
AB
330
AA
100
AcDbEntity
  8
VALLEYLINE
  6
AI-LINETYPE-18
 62
     7
100
AcDbVertex
100
AcDb2dVertex
 10
147.077327437189
 20
-262.5090412755186
 30
0.0
  0
VERTEX
  5
AC
330
AA
100
AcDbEntity
  8
VALLEYLINE
  6
AI-LINETYPE-18
 62
     7
100
AcDbVertex
100
AcDb2dVertex
 10
147.077327437189
 20
-272.3485784909407
 30
0.0
  0
SEQEND
  5
AD
330
AA
100
AcDbEntity
  8
VALLEYLINE
  6
AI-LINETYPE-18
  0
POLYLINE
  5
AF
330
1F
100
AcDbEntity
  8
VALLEYLINE
  6
AI-LINETYPE-19
 62
     7
100
AcDb2dPolyline
 66
     1
 10
0.0
 20
0.0
 30
0.0
  0
VERTEX
  5
B0
330
AF
100
AcDbEntity
  8
VALLEYLINE
  6
AI-LINETYPE-19
 62
     7
100
AcDbVertex
100
AcDb2dVertex
 10
55.81554224950098
 20
-144.4509588940088
 30
0.0
  0
VERTEX
  5
B1
330
AF
100
AcDbEntity
  8
VALLEYLINE
  6
AI-LINETYPE-19
 62
     7
100
AcDbVertex
100
AcDb2dVertex
 10
55.81554224950098
 20
-164.1326171464669
 30
0.0
  0
SEQEND
  5
B2
330
AF
100
AcDbEntity
  8
VALLEYLINE
  6
AI-LINETYPE-19
  0
POLYLINE
  5
B4
330
1F
100
AcDbEntity
  8
VALLEYLINE
  6
AI-LINETYPE-20
 62
     7
100
AcDb2dPolyline
 66
     1
 10
0.0
 20
0.0
 30
0.0
  0
VERTEX
  5
B5
330
B4
100
AcDbEntity
  8
VALLEYLINE
  6
AI-LINETYPE-20
 62
     7
100
AcDbVertex
100
AcDb2dVertex
 10
55.81519773995245
 20
-183.8041123672434
 30
0.0
  0
VERTEX
  5
B6
330
B4
100
AcDbEntity
  8
VALLEYLINE
  6
AI-LINETYPE-20
 62
     7
100
AcDbVertex
100
AcDb2dVertex
 10
55.81519773995245
 20
-203.4845648362816
 30
0.0
  0
SEQEND
  5
B7
330
B4
100
AcDbEntity
  8
VALLEYLINE
  6
AI-LINETYPE-20
  0
POLYLINE
  5
B9
330
1F
100
AcDbEntity
  8
VALLEYLINE
  6
AI-LINETYPE-21
 62
     7
100
AcDb2dPolyline
 66
     1
 10
0.0
 20
0.0
 30
0.0
  0
VERTEX
  5
BA
330
B9
100
AcDbEntity
  8
VALLEYLINE
  6
AI-LINETYPE-21
 62
     7
100
AcDbVertex
100
AcDb2dVertex
 10
55.81468097562966
 20
-223.1564045666067
 30
0.0
  0
VERTEX
  5
BB
330
B9
100
AcDbEntity
  8
VALLEYLINE
  6
AI-LINETYPE-21
 62
     7
100
AcDbVertex
100
AcDb2dVertex
 10
55.81468097562966
 20
-242.836857035645
 30
0.0
  0
SEQEND
  5
BC
330
B9
100
AcDbEntity
  8
VALLEYLINE
  6
AI-LINETYPE-21
  0
POLYLINE
  5
BE
330
1F
100
AcDbEntity
  8
VALLEYLINE
  6
AI-LINETYPE-22
 62
     7
100
AcDb2dPolyline
 66
     1
 10
0.0
 20
0.0
 30
0.0
  0
VERTEX
  5
BF
330
BE
100
AcDbEntity
  8
VALLEYLINE
  6
AI-LINETYPE-22
 62
     7
100
AcDbVertex
100
AcDb2dVertex
 10
55.81416421130688
 20
-262.5090412755186
 30
0.0
  0
VERTEX
  5
C0
330
BE
100
AcDbEntity
  8
VALLEYLINE
  6
AI-LINETYPE-22
 62
     7
100
AcDbVertex
100
AcDb2dVertex
 10
55.81416421130688
 20
-272.3485784909407
 30
0.0
  0
SEQEND
  5
C1
330
BE
100
AcDbEntity
  8
VALLEYLINE
  6
AI-LINETYPE-22
  0
POLYLINE
  5
C3
330
1F
100
AcDbEntity
  8
VALLEYLINE
  6
AI-LINETYPE-23
 62
     7
100
AcDb2dPolyline
 66
     1
 10
0.0
 20
0.0
 30
0.0
  0
VERTEX
  5
C4
330
C3
100
AcDbEntity
  8
VALLEYLINE
  6
AI-LINETYPE-23
 62
     7
100
AcDbVertex
100
AcDb2dVertex
 10
79.07837725887624
 20
-154.2910128737536
 30
0.0
  0
VERTEX
  5
C5
330
C3
100
AcDbEntity
  8
VALLEYLINE
  6
AI-LINETYPE-23
 62
     7
100
AcDbVertex
100
AcDb2dVertex
 10
79.07837725887624
 20
-36.23723686160042
 30
0.0
  0
SEQEND
  5
C6
330
C3
100
AcDbEntity
  8
VALLEYLINE
  6
AI-LINETYPE-23
  0
POLYLINE
  5
C8
330
1F
100
AcDbEntity
  8
VALLEYLINE
  6
AI-LINETYPE-24
 62
     7
100
AcDb2dPolyline
 66
     1
 10
0.0
 20
0.0
 30
0.0
  0
VERTEX
  5
C9
330
C8
100
AcDbEntity
  8
VALLEYLINE
  6
AI-LINETYPE-24
 62
     7
100
AcDbVertex
100
AcDb2dVertex
 10
79.07837725887624
 20
-154.2896348355596
 30
0.0
  0
VERTEX
  5
CA
330
C8
100
AcDbEntity
  8
VALLEYLINE
  6
AI-LINETYPE-24
 62
     7
100
AcDbVertex
100
AcDb2dVertex
 10
79.07837725887624
 20
-272.3430663381642
 30
0.0
  0
SEQEND
  5
CB
330
C8
100
AcDbEntity
  8
VALLEYLINE
  6
AI-LINETYPE-24
  0
INSERT
  5
CF
330
1F
100
AcDbEntity
  8
MOUNTAINLINE
100
AcDbBlockReference
  2
BLOCK_2
 10
0.0
 20
0.0
 30
0.0
  0
INSERT
  5
D7
330
1F
100
AcDbEntity
  8
MOUNTAINLINE
100
AcDbBlockReference
  2
BLOCK_3
 10
0.0
 20
0.0
 30
0.0
  0
INSERT
  5
DF
330
1F
100
AcDbEntity
  8
MOUNTAINLINE
100
AcDbBlockReference
  2
BLOCK_4
 10
0.0
 20
0.0
 30
0.0
  0
INSERT
  5
E7
330
1F
100
AcDbEntity
  8
MOUNTAINLINE
100
AcDbBlockReference
  2
BLOCK_5
 10
0.0
 20
0.0
 30
0.0
  0
INSERT
  5
FE
330
1F
100
AcDbEntity
  8
MOUNTAINLINE
100
AcDbBlockReference
  2
BLOCK_6
 10
0.0
 20
0.0
 30
0.0
  0
INSERT
  5
106
330
1F
100
AcDbEntity
  8
MOUNTAINLINE
100
AcDbBlockReference
  2
BLOCK_7
 10
0.0
 20
0.0
 30
0.0
  0
INSERT
  5
10E
330
1F
100
AcDbEntity
  8
MOUNTAINLINE
100
AcDbBlockReference
  2
BLOCK_8
 10
0.0
 20
0.0
 30
0.0
  0
INSERT
  5
116
330
1F
100
AcDbEntity
  8
MOUNTAINLINE
100
AcDbBlockReference
  2
BLOCK_9
 10
0.0
 20
0.0
 30
0.0
  0
INSERT
  5
11E
330
1F
100
AcDbEntity
  8
MOUNTAINLINE
100
AcDbBlockReference
  2
BLOCK_10
 10
0.0
 20
0.0
 30
0.0
  0
INSERT
  5
126
330
1F
100
AcDbEntity
  8
MOUNTAINLINE
100
AcDbBlockReference
  2
BLOCK_11
 10
0.0
 20
0.0
 30
0.0
  0
INSERT
  5
12E
330
1F
100
AcDbEntity
  8
MOUNTAINLINE
100
AcDbBlockReference
  2
BLOCK_12
 10
0.0
 20
0.0
 30
0.0
  0
INSERT
  5
145
330
1F
100
AcDbEntity
  8
MOUNTAINLINE
100
AcDbBlockReference
  2
BLOCK_13
 10
0.0
 20
0.0
 30
0.0
  0
INSERT
  5
14D
330
1F
100
AcDbEntity
  8
MOUNTAINLINE
100
AcDbBlockReference
  2
BLOCK_14
 10
0.0
 20
0.0
 30
0.0
  0
INSERT
  5
155
330
1F
100
AcDbEntity
  8
MOUNTAINLINE
100
AcDbBlockReference
  2
BLOCK_15
 10
0.0
 20
0.0
 30
0.0
  0
INSERT
  5
15D
330
1F
100
AcDbEntity
  8
MOUNTAINLINE
100
AcDbBlockReference
  2
BLOCK_16
 10
0.0
 20
0.0
 30
0.0
  0
INSERT
  5
165
330
1F
100
AcDbEntity
  8
MOUNTAINLINE
100
AcDbBlockReference
  2
BLOCK_17
 10
0.0
 20
0.0
 30
0.0
  0
INSERT
  5
16D
330
1F
100
AcDbEntity
  8
MOUNTAINLINE
100
AcDbBlockReference
  2
BLOCK_18
 10
0.0
 20
0.0
 30
0.0
  0
INSERT
  5
175
330
1F
100
AcDbEntity
  8
MOUNTAINLINE
100
AcDbBlockReference
  2
BLOCK_19
 10
0.0
 20
0.0
 30
0.0
  0
INSERT
  5
17D
330
1F
100
AcDbEntity
  8
MOUNTAINLINE
100
AcDbBlockReference
  2
BLOCK_20
 10
0.0
 20
0.0
 30
0.0
  0
INSERT
  5
194
330
1F
100
AcDbEntity
  8
MOUNTAINLINE
100
AcDbBlockReference
  2
BLOCK_21
 10
0.0
 20
0.0
 30
0.0
  0
INSERT
  5
19C
330
1F
100
AcDbEntity
  8
MOUNTAINLINE
100
AcDbBlockReference
  2
BLOCK_22
 10
0.0
 20
0.0
 30
0.0
  0
INSERT
  5
1A4
330
1F
100
AcDbEntity
  8
MOUNTAINLINE
100
AcDbBlockReference
  2
BLOCK_23
 10
0.0
 20
0.0
 30
0.0
  0
INSERT
  5
1AC
330
1F
100
AcDbEntity
  8
MOUNTAINLINE
100
AcDbBlockReference
  2
BLOCK_24
 10
0.0
 20
0.0
 30
0.0
  0
INSERT
  5
1B4
330
1F
100
AcDbEntity
  8
MOUNTAINLINE
100
AcDbBlockReference
  2
BLOCK_25
 10
0.0
 20
0.0
 30
0.0
  0
INSERT
  5
1BC
330
1F
100
AcDbEntity
  8
MOUNTAINLINE
100
AcDbBlockReference
  2
BLOCK_26
 10
0.0
 20
0.0
 30
0.0
  0
INSERT
  5
1C4
330
1F
100
AcDbEntity
  8
MOUNTAINLINE
100
AcDbBlockReference
  2
BLOCK_27
 10
0.0
 20
0.0
 30
0.0
  0
INSERT
  5
1CC
330
1F
100
AcDbEntity
  8
MOUNTAINLINE
100
AcDbBlockReference
  2
BLOCK_28
 10
0.0
 20
0.0
 30
0.0
  0
INSERT
  5
1D4
330
1F
100
AcDbEntity
  8
MOUNTAINLINE
100
AcDbBlockReference
  2
BLOCK_29
 10
0.0
 20
0.0
 30
0.0
  0
INSERT
  5
1EB
330
1F
100
AcDbEntity
  8
MOUNTAINLINE
100
AcDbBlockReference
  2
BLOCK_30
 10
0.0
 20
0.0
 30
0.0
  0
INSERT
  5
1F3
330
1F
100
AcDbEntity
  8
MOUNTAINLINE
100
AcDbBlockReference
  2
BLOCK_31
 10
0.0
 20
0.0
 30
0.0
  0
INSERT
  5
1FB
330
1F
100
AcDbEntity
  8
MOUNTAINLINE
100
AcDbBlockReference
  2
BLOCK_32
 10
0.0
 20
0.0
 30
0.0
  0
INSERT
  5
203
330
1F
100
AcDbEntity
  8
MOUNTAINLINE
100
AcDbBlockReference
  2
BLOCK_33
 10
0.0
 20
0.0
 30
0.0
  0
INSERT
  5
20B
330
1F
100
AcDbEntity
  8
MOUNTAINLINE
100
AcDbBlockReference
  2
BLOCK_34
 10
0.0
 20
0.0
 30
0.0
  0
INSERT
  5
213
330
1F
100
AcDbEntity
  8
MOUNTAINLINE
100
AcDbBlockReference
  2
BLOCK_35
 10
0.0
 20
0.0
 30
0.0
  0
INSERT
  5
21B
330
1F
100
AcDbEntity
  8
MOUNTAINLINE
100
AcDbBlockReference
  2
BLOCK_36
 10
0.0
 20
0.0
 30
0.0
  0
INSERT
  5
223
330
1F
100
AcDbEntity
  8
MOUNTAINLINE
100
AcDbBlockReference
  2
BLOCK_37
 10
0.0
 20
0.0
 30
0.0
  0
INSERT
  5
23A
330
1F
100
AcDbEntity
  8
MOUNTAINLINE
100
AcDbBlockReference
  2
BLOCK_38
 10
0.0
 20
0.0
 30
0.0
  0
INSERT
  5
242
330
1F
100
AcDbEntity
  8
MOUNTAINLINE
100
AcDbBlockReference
  2
BLOCK_39
 10
0.0
 20
0.0
 30
0.0
  0
INSERT
  5
24A
330
1F
100
AcDbEntity
  8
MOUNTAINLINE
100
AcDbBlockReference
  2
BLOCK_40
 10
0.0
 20
0.0
 30
0.0
  0
INSERT
  5
252
330
1F
100
AcDbEntity
  8
MOUNTAINLINE
100
AcDbBlockReference
  2
BLOCK_41
 10
0.0
 20
0.0
 30
0.0
  0
INSERT
  5
25A
330
1F
100
AcDbEntity
  8
MOUNTAINLINE
100
AcDbBlockReference
  2
BLOCK_42
 10
0.0
 20
0.0
 30
0.0
  0
INSERT
  5
262
330
1F
100
AcDbEntity
  8
MOUNTAINLINE
100
AcDbBlockReference
  2
BLOCK_43
 10
0.0
 20
0.0
 30
0.0
  0
INSERT
  5
26A
330
1F
100
AcDbEntity
  8
MOUNTAINLINE
100
AcDbBlockReference
  2
BLOCK_44
 10
0.0
 20
0.0
 30
0.0
  0
INSERT
  5
281
330
1F
100
AcDbEntity
  8
MOUNTAINLINE
100
AcDbBlockReference
  2
BLOCK_45
 10
0.0
 20
0.0
 30
0.0
  0
INSERT
  5
289
330
1F
100
AcDbEntity
  8
MOUNTAINLINE
100
AcDbBlockReference
  2
BLOCK_46
 10
0.0
 20
0.0
 30
0.0
  0
INSERT
  5
291
330
1F
100
AcDbEntity
  8
MOUNTAINLINE
100
AcDbBlockReference
  2
BLOCK_47
 10
0.0
 20
0.0
 30
0.0
  0
POLYLINE
  5
298
330
1F
100
AcDbEntity
  8
MOUNTAINLINE
 62
     7
100
AcDb2dPolyline
 66
     1
 10
0.0
 20
0.0
 30
0.0
  0
VERTEX
  5
299
330
298
100
AcDbEntity
  8
MOUNTAINLINE
 62
     7
100
AcDbVertex
100
AcDb2dVertex
 10
147.0783609658346
 20
-124.7756740681985
 30
0.0
  0
VERTEX
  5
29A
330
298
100
AcDbEntity
  8
MOUNTAINLINE
 62
     7
100
AcDbVertex
100
AcDb2dVertex
 10
147.0793944944802
 20
-144.4476860532978
 30
0.0
  0
SEQEND
  5
29B
330
298
100
AcDbEntity
  8
MOUNTAINLINE
  0
POLYLINE
  5
29C
330
1F
100
AcDbEntity
  8
MOUNTAINLINE
 62
     7
100
AcDb2dPolyline
 66
     1
 10
0.0
 20
0.0
 30
0.0
  0
VERTEX
  5
29D
330
29C
100
AcDbEntity
  8
MOUNTAINLINE
 62
     7
100
AcDbVertex
100
AcDb2dVertex
 10
147.0783609658346
 20
-85.42355412360939
 30
0.0
  0
VERTEX
  5
29E
330
29C
100
AcDbEntity
  8
MOUNTAINLINE
 62
     7
100
AcDbVertex
100
AcDb2dVertex
 10
147.0783609658346
 20
-105.095738363483
 30
0.0
  0
SEQEND
  5
29F
330
29C
100
AcDbEntity
  8
MOUNTAINLINE
  0
POLYLINE
  5
2A0
330
1F
100
AcDbEntity
  8
MOUNTAINLINE
 62
     7
100
AcDb2dPolyline
 66
     1
 10
0.0
 20
0.0
 30
0.0
  0
VERTEX
  5
2A1
330
2A0
100
AcDbEntity
  8
MOUNTAINLINE
 62
     7
100
AcDbVertex
100
AcDb2dVertex
 10
147.077327437189
 20
-46.07126192424607
 30
0.0
  0
VERTEX
  5
2A2
330
2A0
100
AcDbEntity
  8
MOUNTAINLINE
 62
     7
100
AcDbVertex
100
AcDb2dVertex
 10
147.0783609658346
 20
-65.7434461641197
 30
0.0
  0
SEQEND
  5
2A3
330
2A0
100
AcDbEntity
  8
MOUNTAINLINE
  0
POLYLINE
  5
2A4
330
1F
100
AcDbEntity
  8
MOUNTAINLINE
 62
     7
100
AcDb2dPolyline
 66
     1
 10
0.0
 20
0.0
 30
0.0
  0
VERTEX
  5
2A5
330
2A4
100
AcDbEntity
  8
MOUNTAINLINE
 62
     7
100
AcDbVertex
100
AcDb2dVertex
 10
55.81519773995245
 20
-124.7756740681985
 30
0.0
  0
VERTEX
  5
2A6
330
2A4
100
AcDbEntity
  8
MOUNTAINLINE
 62
     7
100
AcDbVertex
100
AcDb2dVertex
 10
55.81554224950098
 20
-144.4476860532978
 30
0.0
  0
SEQEND
  5
2A7
330
2A4
100
AcDbEntity
  8
MOUNTAINLINE
  0
POLYLINE
  5
2A8
330
1F
100
AcDbEntity
  8
MOUNTAINLINE
 62
     7
100
AcDb2dPolyline
 66
     1
 10
0.0
 20
0.0
 30
0.0
  0
VERTEX
  5
2A9
330
2A8
100
AcDbEntity
  8
MOUNTAINLINE
 62
     7
100
AcDbVertex
100
AcDb2dVertex
 10
55.81468097562966
 20
-85.42355412360939
 30
0.0
  0
VERTEX
  5
2AA
330
2A8
100
AcDbEntity
  8
MOUNTAINLINE
 62
     7
100
AcDbVertex
100
AcDb2dVertex
 10
55.81519773995245
 20
-105.095738363483
 30
0.0
  0
SEQEND
  5
2AB
330
2A8
100
AcDbEntity
  8
MOUNTAINLINE
  0
POLYLINE
  5
2AC
330
1F
100
AcDbEntity
  8
MOUNTAINLINE
 62
     7
100
AcDb2dPolyline
 66
     1
 10
0.0
 20
0.0
 30
0.0
  0
VERTEX
  5
2AD
330
2AC
100
AcDbEntity
  8
MOUNTAINLINE
 62
     7
100
AcDbVertex
100
AcDb2dVertex
 10
55.81416421130688
 20
-46.07126192424607
 30
0.0
  0
VERTEX
  5
2AE
330
2AC
100
AcDbEntity
  8
MOUNTAINLINE
 62
     7
100
AcDbVertex
100
AcDb2dVertex
 10
55.81468097562966
 20
-65.7434461641197
 30
0.0
  0
SEQEND
  5
2AF
330
2AC
100
AcDbEntity
  8
MOUNTAINLINE
  0
INSERT
  5
2B1
330
1F
100
AcDbEntity
  8
MOUNTAINLINE
100
AcDbBlockReference
  2
BLOCK_48
 10
0.0
 20
0.0
 30
0.0
  0
INSERT
  5
2B9
330
1F
100
AcDbEntity
  8
MOUNTAINLINE
100
AcDbBlockReference
  2
BLOCK_49
 10
0.0
 20
0.0
 30
0.0
  0
INSERT
  5
2C1
330
1F
100
AcDbEntity
  8
MOUNTAINLINE
100
AcDbBlockReference
  2
BLOCK_50
 10
0.0
 20
0.0
 30
0.0
  0
INSERT
  5
2C9
330
1F
100
AcDbEntity
  8
MOUNTAINLINE
100
AcDbBlockReference
  2
BLOCK_51
 10
0.0
 20
0.0
 30
0.0
  0
INSERT
  5
2E0
330
1F
100
AcDbEntity
  8
MOUNTAINLINE
100
AcDbBlockReference
  2
BLOCK_52
 10
0.0
 20
0.0
 30
0.0
  0
INSERT
  5
2E8
330
1F
100
AcDbEntity
  8
MOUNTAINLINE
100
AcDbBlockReference
  2
BLOCK_53
 10
0.0
 20
0.0
 30
0.0
  0
INSERT
  5
2F0
330
1F
100
AcDbEntity
  8
MOUNTAINLINE
100
AcDbBlockReference
  2
BLOCK_54
 10
0.0
 20
0.0
 30
0.0
  0
INSERT
  5
2F8
330
1F
100
AcDbEntity
  8
MOUNTAINLINE
100
AcDbBlockReference
  2
BLOCK_55
 10
0.0
 20
0.0
 30
0.0
  0
INSERT
  5
300
330
1F
100
AcDbEntity
  8
MOUNTAINLINE
100
AcDbBlockReference
  2
BLOCK_56
 10
0.0
 20
0.0
 30
0.0
  0
INSERT
  5
308
330
1F
100
AcDbEntity
  8
MOUNTAINLINE
100
AcDbBlockReference
  2
BLOCK_57
 10
0.0
 20
0.0
 30
0.0
  0
INSERT
  5
310
330
1F
100
AcDbEntity
  8
MOUNTAINLINE
100
AcDbBlockReference
  2
BLOCK_58
 10
0.0
 20
0.0
 30
0.0
  0
INSERT
  5
327
330
1F
100
AcDbEntity
  8
MOUNTAINLINE
100
AcDbBlockReference
  2
BLOCK_59
 10
0.0
 20
0.0
 30
0.0
  0
INSERT
  5
32F
330
1F
100
AcDbEntity
  8
MOUNTAINLINE
100
AcDbBlockReference
  2
BLOCK_60
 10
0.0
 20
0.0
 30
0.0
  0
INSERT
  5
337
330
1F
100
AcDbEntity
  8
MOUNTAINLINE
100
AcDbBlockReference
  2
BLOCK_61
 10
0.0
 20
0.0
 30
0.0
  0
INSERT
  5
33F
330
1F
100
AcDbEntity
  8
MOUNTAINLINE
100
AcDbBlockReference
  2
BLOCK_62
 10
0.0
 20
0.0
 30
0.0
  0
INSERT
  5
347
330
1F
100
AcDbEntity
  8
MOUNTAINLINE
100
AcDbBlockReference
  2
BLOCK_63
 10
0.0
 20
0.0
 30
0.0
  0
INSERT
  5
34F
330
1F
100
AcDbEntity
  8
MOUNTAINLINE
100
AcDbBlockReference
  2
BLOCK_64
 10
0.0
 20
0.0
 30
0.0
  0
INSERT
  5
357
330
1F
100
AcDbEntity
  8
MOUNTAINLINE
100
AcDbBlockReference
  2
BLOCK_65
 10
0.0
 20
0.0
 30
0.0
  0
INSERT
  5
35F
330
1F
100
AcDbEntity
  8
MOUNTAINLINE
100
AcDbBlockReference
  2
BLOCK_66
 10
0.0
 20
0.0
 30
0.0
  0
INSERT
  5
376
330
1F
100
AcDbEntity
  8
MOUNTAINLINE
100
AcDbBlockReference
  2
BLOCK_67
 10
0.0
 20
0.0
 30
0.0
  0
INSERT
  5
37E
330
1F
100
AcDbEntity
  8
MOUNTAINLINE
100
AcDbBlockReference
  2
BLOCK_68
 10
0.0
 20
0.0
 30
0.0
  0
INSERT
  5
386
330
1F
100
AcDbEntity
  8
MOUNTAINLINE
100
AcDbBlockReference
  2
BLOCK_69
 10
0.0
 20
0.0
 30
0.0
  0
INSERT
  5
38E
330
1F
100
AcDbEntity
  8
MOUNTAINLINE
100
AcDbBlockReference
  2
BLOCK_70
 10
0.0
 20
0.0
 30
0.0
  0
INSERT
  5
396
330
1F
100
AcDbEntity
  8
MOUNTAINLINE
100
AcDbBlockReference
  2
BLOCK_71
 10
0.0
 20
0.0
 30
0.0
  0
INSERT
  5
39E
330
1F
100
AcDbEntity
  8
MOUNTAINLINE
100
AcDbBlockReference
  2
BLOCK_72
 10
0.0
 20
0.0
 30
0.0
  0
INSERT
  5
3A6
330
1F
100
AcDbEntity
  8
MOUNTAINLINE
100
AcDbBlockReference
  2
BLOCK_73
 10
0.0
 20
0.0
 30
0.0
  0
INSERT
  5
3AE
330
1F
100
AcDbEntity
  8
MOUNTAINLINE
100
AcDbBlockReference
  2
BLOCK_74
 10
0.0
 20
0.0
 30
0.0
  0
INSERT
  5
3B6
330
1F
100
AcDbEntity
  8
MOUNTAINLINE
100
AcDbBlockReference
  2
BLOCK_75
 10
0.0
 20
0.0
 30
0.0
  0
INSERT
  5
3CD
330
1F
100
AcDbEntity
  8
MOUNTAINLINE
100
AcDbBlockReference
  2
BLOCK_76
 10
0.0
 20
0.0
 30
0.0
  0
INSERT
  5
3D5
330
1F
100
AcDbEntity
  8
MOUNTAINLINE
100
AcDbBlockReference
  2
BLOCK_77
 10
0.0
 20
0.0
 30
0.0
  0
INSERT
  5
3DD
330
1F
100
AcDbEntity
  8
MOUNTAINLINE
100
AcDbBlockReference
  2
BLOCK_78
 10
0.0
 20
0.0
 30
0.0
  0
INSERT
  5
3E5
330
1F
100
AcDbEntity
  8
MOUNTAINLINE
100
AcDbBlockReference
  2
BLOCK_79
 10
0.0
 20
0.0
 30
0.0
  0
INSERT
  5
3ED
330
1F
100
AcDbEntity
  8
MOUNTAINLINE
100
AcDbBlockReference
  2
BLOCK_80
 10
0.0
 20
0.0
 30
0.0
  0
INSERT
  5
3F5
330
1F
100
AcDbEntity
  8
MOUNTAINLINE
100
AcDbBlockReference
  2
BLOCK_81
 10
0.0
 20
0.0
 30
0.0
  0
INSERT
  5
3FD
330
1F
100
AcDbEntity
  8
MOUNTAINLINE
100
AcDbBlockReference
  2
BLOCK_82
 10
0.0
 20
0.0
 30
0.0
  0
INSERT
  5
405
330
1F
100
AcDbEntity
  8
MOUNTAINLINE
100
AcDbBlockReference
  2
BLOCK_83
 10
0.0
 20
0.0
 30
0.0
  0
INSERT
  5
41C
330
1F
100
AcDbEntity
  8
MOUNTAINLINE
100
AcDbBlockReference
  2
BLOCK_84
 10
0.0
 20
0.0
 30
0.0
  0
INSERT
  5
424
330
1F
100
AcDbEntity
  8
MOUNTAINLINE
100
AcDbBlockReference
  2
BLOCK_85
 10
0.0
 20
0.0
 30
0.0
  0
INSERT
  5
42C
330
1F
100
AcDbEntity
  8
MOUNTAINLINE
100
AcDbBlockReference
  2
BLOCK_86
 10
0.0
 20
0.0
 30
0.0
  0
INSERT
  5
434
330
1F
100
AcDbEntity
  8
MOUNTAINLINE
100
AcDbBlockReference
  2
BLOCK_87
 10
0.0
 20
0.0
 30
0.0
  0
INSERT
  5
43C
330
1F
100
AcDbEntity
  8
MOUNTAINLINE
100
AcDbBlockReference
  2
BLOCK_88
 10
0.0
 20
0.0
 30
0.0
  0
INSERT
  5
444
330
1F
100
AcDbEntity
  8
MOUNTAINLINE
100
AcDbBlockReference
  2
BLOCK_89
 10
0.0
 20
0.0
 30
0.0
  0
INSERT
  5
44C
330
1F
100
AcDbEntity
  8
MOUNTAINLINE
100
AcDbBlockReference
  2
BLOCK_90
 10
0.0
 20
0.0
 30
0.0
  0
INSERT
  5
463
330
1F
100
AcDbEntity
  8
MOUNTAINLINE
100
AcDbBlockReference
  2
BLOCK_91
 10
0.0
 20
0.0
 30
0.0
  0
INSERT
  5
46B
330
1F
100
AcDbEntity
  8
MOUNTAINLINE
100
AcDbBlockReference
  2
BLOCK_92
 10
0.0
 20
0.0
 30
0.0
  0
INSERT
  5
473
330
1F
100
AcDbEntity
  8
MOUNTAINLINE
100
AcDbBlockReference
  2
BLOCK_93
 10
0.0
 20
0.0
 30
0.0
  0
POLYLINE
  5
47A
330
1F
100
AcDbEntity
  8
MOUNTAINLINE
 62
     7
100
AcDb2dPolyline
 66
     1
 10
0.0
 20
0.0
 30
0.0
  0
VERTEX
  5
47B
330
47A
100
AcDbEntity
  8
MOUNTAINLINE
 62
     7
100
AcDbVertex
100
AcDb2dVertex
 10
147.0783609658346
 20
-183.8041123672434
 30
0.0
  0
VERTEX
  5
47C
330
47A
100
AcDbEntity
  8
MOUNTAINLINE
 62
     7
100
AcDbVertex
100
AcDb2dVertex
 10
147.0793944944802
 20
-164.1322726369183
 30
0.0
  0
SEQEND
  5
47D
330
47A
100
AcDbEntity
  8
MOUNTAINLINE
  0
POLYLINE
  5
47E
330
1F
100
AcDbEntity
  8
MOUNTAINLINE
 62
     7
100
AcDb2dPolyline
 66
     1
 10
0.0
 20
0.0
 30
0.0
  0
VERTEX
  5
47F
330
47E
100
AcDbEntity
  8
MOUNTAINLINE
 62
     7
100
AcDbVertex
100
AcDb2dVertex
 10
147.0783609658346
 20
-223.1564045666067
 30
0.0
  0
VERTEX
  5
480
330
47E
100
AcDbEntity
  8
MOUNTAINLINE
 62
     7
100
AcDbVertex
100
AcDb2dVertex
 10
147.0783609658346
 20
-203.4845648362816
 30
0.0
  0
SEQEND
  5
481
330
47E
100
AcDbEntity
  8
MOUNTAINLINE
  0
POLYLINE
  5
482
330
1F
100
AcDbEntity
  8
MOUNTAINLINE
 62
     7
100
AcDb2dPolyline
 66
     1
 10
0.0
 20
0.0
 30
0.0
  0
VERTEX
  5
483
330
482
100
AcDbEntity
  8
MOUNTAINLINE
 62
     7
100
AcDbVertex
100
AcDb2dVertex
 10
147.077327437189
 20
-262.5090412755186
 30
0.0
  0
VERTEX
  5
484
330
482
100
AcDbEntity
  8
MOUNTAINLINE
 62
     7
100
AcDbVertex
100
AcDb2dVertex
 10
147.0783609658346
 20
-242.836857035645
 30
0.0
  0
SEQEND
  5
485
330
482
100
AcDbEntity
  8
MOUNTAINLINE
  0
POLYLINE
  5
486
330
1F
100
AcDbEntity
  8
MOUNTAINLINE
 62
     7
100
AcDb2dPolyline
 66
     1
 10
0.0
 20
0.0
 30
0.0
  0
VERTEX
  5
487
330
486
100
AcDbEntity
  8
MOUNTAINLINE
 62
     7
100
AcDbVertex
100
AcDb2dVertex
 10
55.81519773995245
 20
-183.8041123672434
 30
0.0
  0
VERTEX
  5
488
330
486
100
AcDbEntity
  8
MOUNTAINLINE
 62
     7
100
AcDbVertex
100
AcDb2dVertex
 10
55.81554224950098
 20
-164.1322726369183
 30
0.0
  0
SEQEND
  5
489
330
486
100
AcDbEntity
  8
MOUNTAINLINE
  0
POLYLINE
  5
48A
330
1F
100
AcDbEntity
  8
MOUNTAINLINE
 62
     7
100
AcDb2dPolyline
 66
     1
 10
0.0
 20
0.0
 30
0.0
  0
VERTEX
  5
48B
330
48A
100
AcDbEntity
  8
MOUNTAINLINE
 62
     7
100
AcDbVertex
100
AcDb2dVertex
 10
55.81468097562966
 20
-223.1564045666067
 30
0.0
  0
VERTEX
  5
48C
330
48A
100
AcDbEntity
  8
MOUNTAINLINE
 62
     7
100
AcDbVertex
100
AcDb2dVertex
 10
55.81519773995245
 20
-203.4845648362816
 30
0.0
  0
SEQEND
  5
48D
330
48A
100
AcDbEntity
  8
MOUNTAINLINE
  0
POLYLINE
  5
48E
330
1F
100
AcDbEntity
  8
MOUNTAINLINE
 62
     7
100
AcDb2dPolyline
 66
     1
 10
0.0
 20
0.0
 30
0.0
  0
VERTEX
  5
48F
330
48E
100
AcDbEntity
  8
MOUNTAINLINE
 62
     7
100
AcDbVertex
100
AcDb2dVertex
 10
55.81416421130688
 20
-262.5090412755186
 30
0.0
  0
VERTEX
  5
490
330
48E
100
AcDbEntity
  8
MOUNTAINLINE
 62
     7
100
AcDbVertex
100
AcDb2dVertex
 10
55.81468097562966
 20
-242.836857035645
 30
0.0
  0
SEQEND
  5
491
330
48E
100
AcDbEntity
  8
MOUNTAINLINE
  0
INSERT
  5
493
330
1F
100
AcDbEntity
  8
MOUNTAINLINE
100
AcDbBlockReference
  2
BLOCK_94
 10
0.0
 20
0.0
 30
0.0
  0
INSERT
  5
49B
330
1F
100
AcDbEntity
  8
MOUNTAINLINE
100
AcDbBlockReference
  2
BLOCK_95
 10
0.0
 20
0.0
 30
0.0
  0
MTEXT
  5
4A3
330
1F
100
AcDbEntity
  8
TEXT
 62
     7
100
AcDbMText
 10
152.5092094887824
 20
-287.6096624715004
 30
0.0
 40
3.358444443604833
 41
0.0
 71
     7
 72
     1
  1
\fArial|b0|i0|c0|p34;\W1;(c) 2016 Jun Mitani
  0
MTEXT
  5
4A4
330
1F
100
AcDbEntity
  8
TEXT
 62
     7
100
AcDbMText
 10
10.83448079156221
 20
-14.85542398717156
 30
0.0
 40
4.3179999989205
 41
0.0
 71
     7
 72
     1
  1
\fArial|b0|i0|c0|p34;\W1;Hexagonal Column Sculpture
  0
ENDSEC
  0
SECTION
  2
OBJECTS
  0
DICTIONARY
  5
C
330
0
100
AcDbDictionary
  3
ACAD_GROUP
350
D
  3
ACAD_LAYOUT
350
1A
  3
ACAD_MLINESTYLE
350
17
  3
ACAD_PLOTSETTINGS
350
19
  3
ACAD_TABLESTYLE
350
4A5
  3
ACAD_VISUALSTYLE
350
2A
1001
ACAD
1000
TREAT_AS_HARD
1070
     0
  0
DICTIONARY
  5
D
102
{ACAD_REACTORS
330
C
102
}
330
C
100
AcDbDictionary
1001
ACAD
1000
TREAT_AS_HARD
1070
     0
  0
DICTIONARY
  5
1A
102
{ACAD_REACTORS
330
C
102
}
330
C
100
AcDbDictionary
1001
ACAD
1000
TREAT_AS_HARD
1070
     0
  0
DICTIONARY
  5
17
102
{ACAD_REACTORS
330
C
102
}
330
C
100
AcDbDictionary
  3
STANDARD
350
18
1001
ACAD
1000
TREAT_AS_HARD
1070
     0
  0
DICTIONARY
  5
19
102
{ACAD_REACTORS
330
C
102
}
330
C
100
AcDbDictionary
1001
ACAD
1000
TREAT_AS_HARD
1070
     0
  0
DICTIONARY
  5
4A5
102
{ACAD_REACTORS
330
C
102
}
330
C
100
AcDbDictionary
1001
ACAD
1000
TREAT_AS_HARD
1070
     0
  0
DICTIONARY
  5
2A
102
{ACAD_REACTORS
330
C
102
}
330
C
100
AcDbDictionary
  3
2DWIREFRAME
350
2F
  3
3D_HIDDEN
350
31
  3
3DWIREFRAME
350
30
  3
BASIC
350
32
  3
BRIGHTEN
350
36
  3
COLORCHANGE
350
3A
  3
CONCEPTUAL
350
34
  3
DIM
350
35
  3
FACEPATTERN
350
39
  3
FLAT
350
2B
  3
FLATWITHEDGES
350
2C
  3
GOURAUD
350
2D
  3
GOURAUDWITHEDGES
350
2E
  3
LINEPATTERN
350
38
  3
REALISTIC
350
33
  3
THICKEN
350
37
1001
ACAD
1000
TREAT_AS_HARD
1070
     0
  0
MLINESTYLE
  5
18
102
{ACAD_REACTORS
330
17
102
}
330
17
100
AcDbMlineStyle
  2
Standard
 70
     0
  3

 62
   256
 51
90.0
 52
90.0
 71
     2
 49
0.5
 62
   256
  6
BYLAYER
 49
-0.5
 62
   256
  6
BYLAYER
  0
VISUALSTYLE
  5
2F
102
{ACAD_REACTORS
330
2A
102
}
330
2A
100
AcDbVisualStyle
  2
2dWireframe
 70
     4
 71
     0
 72
     2
 73
     0
 90
        0
 40
-0.6
 41
-30.0
 62
     5
 63
     7
 74
     1
 91
        4
 64
     7
 65
   257
 75
     1
175
     1
 42
1.0
 92
        0
 66
   257
 43
1.0
 76
     1
 77
     6
 78
     2
 67
     7
 79
     5
170
     0
171
     0
290
     0
174
     0
 93
        1
 44
0.0
173
     0
291
     0
 45
0.0
1001
ACAD
1000
AcDbSavedByObjectVersion
1070
     0
  0
VISUALSTYLE
  5
31
102
{ACAD_REACTORS
330
2A
102
}
330
2A
100
AcDbVisualStyle
  2
3D Hidden
 70
     6
 71
     1
 72
     2
 73
     2
 90
        0
 40
-0.6
 41
-30.0
 62
     5
 63
     7
 74
     2
 91
        2
 64
     7
 65
   257
 75
     2
175
     1
 42
40.0
 92
        0
 66
   257
 43
1.0
 76
     1
 77
     6
 78
     2
 67
     7
 79
     3
170
     0
171
     0
290
     0
174
     0
 93
        1
 44
0.0
173
     0
291
     0
 45
0.0
1001
ACAD
1000
AcDbSavedByObjectVersion
1070
     0
  0
VISUALSTYLE
  5
30
102
{ACAD_REACTORS
330
2A
102
}
330
2A
100
AcDbVisualStyle
  2
3dWireframe
 70
     5
 71
     0
 72
     2
 73
     0
 90
        0
 40
-0.6
 41
-30.0
 62
     5
 63
     7
 74
     1
 91
        4
 64
     7
 65
   257
 75
     1
175
     1
 42
1.0
 92
        0
 66
   257
 43
1.0
 76
     1
 77
     6
 78
     2
 67
     7
 79
     5
170
     0
171
     0
290
     0
174
     0
 93
        1
 44
0.0
173
     0
291
     0
 45
0.0
1001
ACAD
1000
AcDbSavedByObjectVersion
1070
     0
  0
VISUALSTYLE
  5
32
102
{ACAD_REACTORS
330
2A
102
}
330
2A
100
AcDbVisualStyle
  2
Basic
 70
     7
 71
     1
 72
     0
 73
     1
 90
        0
 40
-0.6
 41
-30.0
 62
     5
 63
     7
 74
     0
 91
        4
 64
     7
 65
   257
 75
     1
175
     1
 42
1.0
 92
        8
 66
     7
 43
1.0
 76
     1
 77
     6
 78
     2
 67
     7
 79
     5
170
     0
171
     0
290
     0
174
     0
 93
        1
 44
0.0
173
     0
291
     1
 45
0.0
1001
ACAD
1000
AcDbSavedByObjectVersion
1070
     0
  0
VISUALSTYLE
  5
36
102
{ACAD_REACTORS
330
2A
102
}
330
2A
100
AcDbVisualStyle
  2
Brighten
 70
    12
 71
     2
 72
     2
 73
     0
 90
        0
 40
-0.6
 41
-30.0
 62
     5
 63
     7
 74
     1
 91
        4
 64
     7
 65
   257
 75
     1
175
     1
 42
1.0
 92
        8
 66
     7
 43
1.0
 76
     1
 77
     6
 78
     2
 67
     7
 79
     5
170
     0
171
     0
290
     0
174
     0
 93
        1
 44
50.0
173
     0
291
     1
 45
0.0
1001
ACAD
1000
AcDbSavedByObjectVersion
1070
     0
  0
VISUALSTYLE
  5
3A
102
{ACAD_REACTORS
330
2A
102
}
330
2A
100
AcDbVisualStyle
  2
ColorChange
 70
    16
 71
     2
 72
     2
 73
     3
 90
        0
 40
-0.6
 41
-30.0
 62
     5
 63
     8
 74
     1
 91
        4
 64
     7
 65
   257
 75
     1
175
     1
 42
1.0
 92
        8
 66
     8
 43
1.0
 76
     1
 77
     6
 78
     2
 67
     7
 79
     5
170
     0
171
     0
290
     0
174
     0
 93
        1
 44
0.0
173
     0
291
     1
 45
0.0
1001
ACAD
1000
AcDbSavedByObjectVersion
1070
     0
  0
VISUALSTYLE
  5
34
102
{ACAD_REACTORS
330
2A
102
}
330
2A
100
AcDbVisualStyle
  2
Conceptual
 70
     9
 71
     3
 72
     2
 73
     0
 90
        0
 40
-0.6
 41
-30.0
 62
     5
 63
     7
 74
     2
 91
        2
 64
     7
 65
   257
 75
     1
175
     1
 42
40.0
 92
        8
 66
     7
 43
1.0
 76
     1
 77
     6
 78
     2
 67
     7
 79
     3
170
     0
171
     0
290
     0
174
     0
 93
        1
 44
0.0
173
     0
291
     0
 45
0.0
1001
ACAD
1000
AcDbSavedByObjectVersion
1070
     0
  0
VISUALSTYLE
  5
35
102
{ACAD_REACTORS
330
2A
102
}
330
2A
100
AcDbVisualStyle
  2
Dim
 70
    11
 71
     2
 72
     2
 73
     0
 90
        0
 40
-0.6
 41
-30.0
 62
     5
 63
     7
 74
     1
 91
        4
 64
     7
 65
   257
 75
     1
175
     1
 42
1.0
 92
        8
 66
     7
 43
1.0
 76
     1
 77
     6
 78
     2
 67
     7
 79
     5
170
     0
171
     0
290
     0
174
     0
 93
        1
 44
-50.0
173
     0
291
     1
 45
0.0
1001
ACAD
1000
AcDbSavedByObjectVersion
1070
     0
  0
VISUALSTYLE
  5
39
102
{ACAD_REACTORS
330
2A
102
}
330
2A
100
AcDbVisualStyle
  2
Facepattern
 70
    15
 71
     2
 72
     2
 73
     0
 90
        0
 40
-0.6
 41
-30.0
 62
     5
 63
     7
 74
     1
 91
        4
 64
     7
 65
   257
 75
     1
175
     1
 42
1.0
 92
        8
 66
     7
 43
1.0
 76
     1
 77
     6
 78
     2
 67
     7
 79
     5
170
     0
171
     0
290
     0
174
     0
 93
        1
 44
0.0
173
     0
291
     1
 45
0.0
1001
ACAD
1000
AcDbSavedByObjectVersion
1070
     0
  0
VISUALSTYLE
  5
2B
102
{ACAD_REACTORS
330
2A
102
}
330
2A
100
AcDbVisualStyle
  2
Flat
 70
     0
 71
     2
 72
     1
 73
     1
 90
        2
 40
-0.6
 41
30.0
 62
     5
 63
     7
 74
     0
 91
        4
 64
     7
 65
   257
 75
     1
175
     1
 42
1.0
 92
        8
 66
     7
 43
1.0
 76
     1
 77
     6
 78
     2
 67
     7
 79
     5
170
     0
171
     0
290
     0
174
     0
 93
       13
 44
0.0
173
     0
291
     1
 45
0.0
1001
ACAD
1000
AcDbSavedByObjectVersion
1070
     0
  0
VISUALSTYLE
  5
2C
102
{ACAD_REACTORS
330
2A
102
}
330
2A
100
AcDbVisualStyle
  2
FlatWithEdges
 70
     1
 71
     2
 72
     1
 73
     1
 90
        2
 40
-0.6
 41
30.0
 62
     5
 63
     7
 74
     1
 91
        4
 64
     7
 65
   257
 75
     1
175
     1
 42
1.0
 92
        0
 66
   257
 43
1.0
 76
     1
 77
     6
 78
     2
 67
     7
 79
     5
170
     0
171
     0
290
     0
174
     0
 93
       13
 44
0.0
173
     0
291
     1
 45
0.0
1001
ACAD
1000
AcDbSavedByObjectVersion
1070
     0
  0
VISUALSTYLE
  5
2D
102
{ACAD_REACTORS
330
2A
102
}
330
2A
100
AcDbVisualStyle
  2
Gouraud
 70
     2
 71
     2
 72
     2
 73
     1
 90
        2
 40
-0.6
 41
30.0
 62
     5
 63
     7
 74
     0
 91
        4
 64
     7
 65
   257
 75
     1
175
     1
 42
1.0
 92
        0
 66
     7
 43
1.0
 76
     1
 77
     6
 78
     2
 67
     7
 79
     5
170
     0
171
     0
290
     0
174
     0
 93
       13
 44
0.0
173
     0
291
     1
 45
0.0
1001
ACAD
1000
AcDbSavedByObjectVersion
1070
     0
  0
VISUALSTYLE
  5
2E
102
{ACAD_REACTORS
330
2A
102
}
330
2A
100
AcDbVisualStyle
  2
GouraudWithEdges
 70
     3
 71
     2
 72
     2
 73
     1
 90
        2
 40
-0.6
 41
30.0
 62
     5
 63
     7
 74
     1
 91
        4
 64
     7
 65
   257
 75
     1
175
     1
 42
1.0
 92
        0
 66
   257
 43
1.0
 76
     1
 77
     6
 78
     2
 67
     7
 79
     5
170
     0
171
     0
290
     0
174
     0
 93
       13
 44
0.0
173
     0
291
     1
 45
0.0
1001
ACAD
1000
AcDbSavedByObjectVersion
1070
     0
  0
VISUALSTYLE
  5
38
102
{ACAD_REACTORS
330
2A
102
}
330
2A
100
AcDbVisualStyle
  2
Linepattern
 70
    14
 71
     2
 72
     2
 73
     0
 90
        0
 40
-0.6
 41
-30.0
 62
     5
 63
     7
 74
     1
 91
        4
 64
     7
 65
   257
 75
     7
175
     7
 42
1.0
 92
        8
 66
     7
 43
1.0
 76
     1
 77
     6
 78
     2
 67
     7
 79
     5
170
     0
171
     0
290
     0
174
     0
 93
        1
 44
0.0
173
     0
291
     1
 45
0.0
1001
ACAD
1000
AcDbSavedByObjectVersion
1070
     0
  0
VISUALSTYLE
  5
33
102
{ACAD_REACTORS
330
2A
102
}
330
2A
100
AcDbVisualStyle
  2
Realistic
 70
     8
 71
     2
 72
     2
 73
     0
 90
        0
 40
-0.6
 41
-30.0
 62
     5
 63
     7
 74
     1
 91
        0
 64
     7
 65
   257
 75
     1
175
     1
 42
1.0
 92
        8
 66
     8
 43
1.0
 76
     1
 77
     6
 78
     2
 67
     7
 79
     5
170
     0
171
     0
290
     0
174
     0
 93
       13
 44
0.0
173
     0
291
     0
 45
0.0
1001
ACAD
1000
AcDbSavedByObjectVersion
1070
     0
  0
VISUALSTYLE
  5
37
102
{ACAD_REACTORS
330
2A
102
}
330
2A
100
AcDbVisualStyle
  2
Thicken
 70
    13
 71
     2
 72
     2
 73
     0
 90
        0
 40
-0.6
 41
-30.0
 62
     5
 63
     7
 74
     1
 91
        4
 64
     7
 65
   257
 75
     1
175
     1
 42
1.0
 92
       12
 66
     7
 43
1.0
 76
     1
 77
     6
 78
     2
 67
     7
 79
     5
170
     0
171
     0
290
     0
174
     0
 93
        1
 44
0.0
173
     0
291
     1
 45
0.0
1001
ACAD
1000
AcDbSavedByObjectVersion
1070
     0
  0
ENDSEC
  0
EOF
