<?xml version="1.0" encoding="utf-8"?>
<!-- Generator: Adobe Illustrator 16.0.3, SVG Export Plug-In . SVG Version: 6.00 Build 0)  -->
<!DOCTYPE svg PUBLIC "-//W3C//DTD SVG 1.1//EN" "http://www.w3.org/Graphics/SVG/1.1/DTD/svg11.dtd">
<svg version="1.1" xmlns="http://www.w3.org/2000/svg" xmlns:xlink="http://www.w3.org/1999/xlink" x="0px" y="0px"
	 width="595.28px" height="841.89px" viewBox="0 0 595.28 841.89" enable-background="new 0 0 595.28 841.89" xml:space="preserve">
<g id="CutLine">
	
		<line fill="none" stroke="#000000" stroke-width="2" stroke-linecap="round" stroke-linejoin="round" x1="461.835" y1="102.72" x2="113.305" y2="102.724"/>
	
		<line fill="none" stroke="#000000" stroke-width="2" stroke-linecap="round" stroke-linejoin="round" x1="113.305" y1="102.725" x2="113.305" y2="437.366"/>
	
		<line fill="none" stroke="#000000" stroke-width="2" stroke-linecap="round" stroke-linejoin="round" x1="461.835" y1="437.366" x2="461.835" y2="102.72"/>
	
		<line fill="none" stroke="#000000" stroke-width="2" stroke-linecap="round" stroke-linejoin="round" x1="461.835" y1="771.996" x2="113.305" y2="771.991"/>
	
		<line fill="none" stroke="#000000" stroke-width="2" stroke-linecap="round" stroke-linejoin="round" x1="113.305" y1="771.991" x2="113.305" y2="437.349"/>
	
		<line fill="none" stroke="#000000" stroke-width="2" stroke-linecap="round" stroke-linejoin="round" x1="461.835" y1="437.349" x2="461.835" y2="771.996"/>
</g>
<g id="ValleyLine">
	
		<line fill="none" stroke="#000000" stroke-linecap="round" stroke-linejoin="round" stroke-dasharray="4" x1="135.142" y1="437.362" x2="135.142" y2="102.723"/>
	
		<line fill="none" stroke="#000000" stroke-linecap="round" stroke-linejoin="round" stroke-dasharray="4" x1="239.111" y1="771.991" x2="239.111" y2="102.715"/>
	
		<line fill="none" stroke="#000000" stroke-linecap="round" stroke-linejoin="round" stroke-dasharray="4" x1="439.999" y1="437.355" x2="439.999" y2="102.714"/>
	
		<line fill="none" stroke="#000000" stroke-linecap="round" stroke-linejoin="round" stroke-dasharray="4" x1="350.991" y1="437.359" x2="350.991" y2="102.719"/>
	
		<line fill="none" stroke="#000000" stroke-linecap="round" stroke-linejoin="round" stroke-dasharray="4" x1="336.029" y1="771.991" x2="336.029" y2="102.714"/>
	
		<line fill="none" stroke="#000000" stroke-linecap="round" stroke-linejoin="round" stroke-dasharray="4" x1="416.918" y1="465.25" x2="416.918" y2="409.459"/>
	
		<line fill="none" stroke="#000000" stroke-linecap="round" stroke-linejoin="round" stroke-dasharray="4" x1="416.915" y1="353.695" x2="416.915" y2="297.909"/>
	
		<line fill="none" stroke="#000000" stroke-linecap="round" stroke-linejoin="round" stroke-dasharray="4" x1="416.915" y1="242.146" x2="416.915" y2="186.359"/>
	
		<line fill="none" stroke="#000000" stroke-linecap="round" stroke-linejoin="round" stroke-dasharray="4" x1="416.912" y1="130.596" x2="416.912" y2="102.703"/>
	
		<line fill="none" stroke="#000000" stroke-linecap="round" stroke-linejoin="round" stroke-dasharray="4" x1="158.216" y1="353.695" x2="158.216" y2="297.909"/>
	
		<line fill="none" stroke="#000000" stroke-linecap="round" stroke-linejoin="round" stroke-dasharray="4" x1="158.215" y1="242.146" x2="158.215" y2="186.359"/>
	
		<line fill="none" stroke="#000000" stroke-linecap="round" stroke-linejoin="round" stroke-dasharray="4" x1="158.213" y1="130.596" x2="158.213" y2="102.703"/>
	
		<line fill="none" stroke="#000000" stroke-linecap="round" stroke-linejoin="round" stroke-dasharray="4" x1="135.142" y1="437.354" x2="135.142" y2="771.993"/>
	
		<line fill="none" stroke="#000000" stroke-linecap="round" stroke-linejoin="round" stroke-dasharray="4" x1="439.999" y1="437.359" x2="439.999" y2="772.001"/>
	
		<line fill="none" stroke="#000000" stroke-linecap="round" stroke-linejoin="round" stroke-dasharray="4" x1="350.991" y1="437.355" x2="350.991" y2="771.996"/>
	
		<line fill="none" stroke="#000000" stroke-linecap="round" stroke-linejoin="round" stroke-dasharray="4" x1="416.915" y1="521.02" x2="416.915" y2="576.807"/>
	
		<line fill="none" stroke="#000000" stroke-linecap="round" stroke-linejoin="round" stroke-dasharray="4" x1="416.915" y1="632.569" x2="416.915" y2="688.356"/>
	
		<line fill="none" stroke="#000000" stroke-linecap="round" stroke-linejoin="round" stroke-dasharray="4" x1="416.912" y1="744.12" x2="416.912" y2="772.012"/>
	
		<line fill="none" stroke="#000000" stroke-linecap="round" stroke-linejoin="round" stroke-dasharray="4" x1="158.217" y1="409.467" x2="158.217" y2="465.258"/>
	
		<line fill="none" stroke="#000000" stroke-linecap="round" stroke-linejoin="round" stroke-dasharray="4" x1="158.216" y1="521.02" x2="158.216" y2="576.807"/>
	
		<line fill="none" stroke="#000000" stroke-linecap="round" stroke-linejoin="round" stroke-dasharray="4" x1="158.215" y1="632.569" x2="158.215" y2="688.356"/>
	
		<line fill="none" stroke="#000000" stroke-linecap="round" stroke-linejoin="round" stroke-dasharray="4" x1="158.213" y1="744.12" x2="158.213" y2="772.012"/>
	
		<line fill="none" stroke="#000000" stroke-linecap="round" stroke-linejoin="round" stroke-dasharray="4" x1="224.159" y1="437.36" x2="224.159" y2="102.72"/>
	
		<line fill="none" stroke="#000000" stroke-linecap="round" stroke-linejoin="round" stroke-dasharray="4" x1="224.159" y1="437.356" x2="224.159" y2="771.996"/>
</g>
<g id="MountainLine">
	<g id="LINE_50_">
		
			<line fill="none" stroke="#000000" stroke-linecap="round" stroke-linejoin="round" x1="239.111" y1="381.584" x2="224.159" y2="437.359"/>
	</g>
	<g id="LINE_49_">
		
			<line fill="none" stroke="#000000" stroke-linecap="round" stroke-linejoin="round" x1="224.159" y1="437.359" x2="158.22" y2="409.466"/>
	</g>
	<g id="LINE_48_">
		
			<line fill="none" stroke="#000000" stroke-linecap="round" stroke-linejoin="round" x1="158.222" y1="409.467" x2="135.142" y2="437.355"/>
	</g>
	<g id="LINE_47_">
		<polyline fill="none" stroke="#000000" stroke-linecap="round" stroke-linejoin="round" points="336.029,381.584 334.162,388.556 
			332.171,395.528 329.399,402.502 324.897,409.475 317.824,416.445 308.803,422.546 298.5,426.904 287.572,428.649 
			276.639,426.904 266.337,422.546 257.316,416.445 250.241,409.475 245.739,402.502 242.969,395.528 240.979,388.556 
			239.111,381.584 		"/>
	</g>
	<g id="LINE_46_">
		
			<line fill="none" stroke="#000000" stroke-linecap="round" stroke-linejoin="round" x1="336.029" y1="381.584" x2="350.98" y2="437.359"/>
	</g>
	<g id="LINE_45_">
		
			<line fill="none" stroke="#000000" stroke-linecap="round" stroke-linejoin="round" x1="350.98" y1="437.359" x2="416.918" y2="409.466"/>
	</g>
	<g id="LINE_44_">
		
			<line fill="none" stroke="#000000" stroke-linecap="round" stroke-linejoin="round" x1="416.918" y1="409.467" x2="439.999" y2="437.355"/>
	</g>
	<g id="LINE_43_">
		
			<line fill="none" stroke="#000000" stroke-linecap="round" stroke-linejoin="round" x1="239.111" y1="381.584" x2="224.159" y2="325.811"/>
	</g>
	<g id="LINE_42_">
		
			<line fill="none" stroke="#000000" stroke-linecap="round" stroke-linejoin="round" x1="224.159" y1="325.811" x2="158.22" y2="353.703"/>
	</g>
	<g id="LINE_41_">
		
			<line fill="none" stroke="#000000" stroke-linecap="round" stroke-linejoin="round" x1="158.222" y1="353.703" x2="135.142" y2="325.813"/>
	</g>
	<g id="LINE_40_">
		<polyline fill="none" stroke="#000000" stroke-linecap="round" stroke-linejoin="round" points="336.029,381.584 334.162,374.613 
			332.171,367.641 329.399,360.669 324.897,353.695 317.824,346.725 308.803,340.623 298.5,336.264 287.572,334.52 276.639,336.264 
			266.337,340.623 257.316,346.725 250.241,353.695 245.739,360.669 242.969,367.641 240.979,374.613 239.111,381.584 		"/>
	</g>
	<g id="LINE_39_">
		
			<line fill="none" stroke="#000000" stroke-linecap="round" stroke-linejoin="round" x1="336.029" y1="381.584" x2="350.98" y2="325.811"/>
	</g>
	<g id="LINE_38_">
		
			<line fill="none" stroke="#000000" stroke-linecap="round" stroke-linejoin="round" x1="350.98" y1="325.811" x2="416.918" y2="353.703"/>
	</g>
	<g id="LINE_37_">
		
			<line fill="none" stroke="#000000" stroke-linecap="round" stroke-linejoin="round" x1="416.918" y1="353.703" x2="439.999" y2="325.813"/>
	</g>
	<g id="LINE_36_">
		
			<line fill="none" stroke="#000000" stroke-linecap="round" stroke-linejoin="round" x1="239.111" y1="270.043" x2="224.159" y2="325.818"/>
	</g>
	<g id="LINE_35_">
		
			<line fill="none" stroke="#000000" stroke-linecap="round" stroke-linejoin="round" x1="224.159" y1="325.818" x2="158.22" y2="297.925"/>
	</g>
	<g id="LINE_34_">
		
			<line fill="none" stroke="#000000" stroke-linecap="round" stroke-linejoin="round" x1="158.222" y1="297.926" x2="135.142" y2="325.813"/>
	</g>
	<g id="LINE_33_">
		
			<line fill="none" stroke="#000000" stroke-linecap="round" stroke-linejoin="round" x1="135.142" y1="325.813" x2="113.305" y2="325.813"/>
	</g>
	<g id="LINE_32_">
		<polyline fill="none" stroke="#000000" stroke-linecap="round" stroke-linejoin="round" points="336.029,270.043 334.162,277.015 
			332.171,283.987 329.399,290.96 324.897,297.932 317.824,304.905 308.803,311.007 298.5,315.365 287.572,317.107 276.639,315.365 
			266.337,311.007 257.316,304.905 250.241,297.932 245.739,290.96 242.969,283.987 240.979,277.015 239.111,270.043 		"/>
	</g>
	<g id="LINE_31_">
		
			<line fill="none" stroke="#000000" stroke-linecap="round" stroke-linejoin="round" x1="336.029" y1="270.043" x2="350.98" y2="325.818"/>
	</g>
	<g id="LINE_30_">
		
			<line fill="none" stroke="#000000" stroke-linecap="round" stroke-linejoin="round" x1="350.98" y1="325.818" x2="416.918" y2="297.925"/>
	</g>
	<g id="LINE_29_">
		
			<line fill="none" stroke="#000000" stroke-linecap="round" stroke-linejoin="round" x1="416.918" y1="297.926" x2="439.999" y2="325.813"/>
	</g>
	<g id="LINE_28_">
		
			<line fill="none" stroke="#000000" stroke-linecap="round" stroke-linejoin="round" x1="439.999" y1="325.813" x2="461.835" y2="325.813"/>
	</g>
	<g id="LINE_27_">
		
			<line fill="none" stroke="#000000" stroke-linecap="round" stroke-linejoin="round" x1="239.111" y1="270.043" x2="224.159" y2="214.269"/>
	</g>
	<g id="LINE_26_">
		
			<line fill="none" stroke="#000000" stroke-linecap="round" stroke-linejoin="round" x1="224.159" y1="214.269" x2="158.22" y2="242.162"/>
	</g>
	<g id="LINE_25_">
		
			<line fill="none" stroke="#000000" stroke-linecap="round" stroke-linejoin="round" x1="158.222" y1="242.161" x2="135.142" y2="214.273"/>
	</g>
	<g id="LINE_24_">
		
			<line fill="none" stroke="#000000" stroke-linecap="round" stroke-linejoin="round" x1="135.142" y1="214.273" x2="113.305" y2="214.273"/>
	</g>
	<g id="LINE_23_">
		<polyline fill="none" stroke="#000000" stroke-linecap="round" stroke-linejoin="round" points="336.029,270.043 334.162,263.072 
			332.171,256.1 329.399,249.127 324.897,242.154 317.824,235.182 308.803,229.081 298.5,224.723 287.572,222.979 276.639,224.723 
			266.337,229.081 257.316,235.182 250.241,242.154 245.739,249.127 242.969,256.1 240.979,263.072 239.111,270.043 		"/>
	</g>
	<g id="LINE_22_">
		
			<line fill="none" stroke="#000000" stroke-linecap="round" stroke-linejoin="round" x1="336.029" y1="270.043" x2="350.98" y2="214.269"/>
	</g>
	<g id="LINE_21_">
		
			<line fill="none" stroke="#000000" stroke-linecap="round" stroke-linejoin="round" x1="350.98" y1="214.269" x2="416.918" y2="242.162"/>
	</g>
	<g id="LINE_20_">
		
			<line fill="none" stroke="#000000" stroke-linecap="round" stroke-linejoin="round" x1="416.918" y1="242.161" x2="439.999" y2="214.273"/>
	</g>
	<g id="LINE_19_">
		
			<line fill="none" stroke="#000000" stroke-linecap="round" stroke-linejoin="round" x1="439.999" y1="214.273" x2="461.835" y2="214.273"/>
	</g>
	<g id="LINE_18_">
		
			<line fill="none" stroke="#000000" stroke-linecap="round" stroke-linejoin="round" x1="239.111" y1="158.493" x2="224.159" y2="214.269"/>
	</g>
	<g id="LINE_17_">
		
			<line fill="none" stroke="#000000" stroke-linecap="round" stroke-linejoin="round" x1="224.159" y1="214.269" x2="158.22" y2="186.375"/>
	</g>
	<g id="LINE_16_">
		
			<line fill="none" stroke="#000000" stroke-linecap="round" stroke-linejoin="round" x1="158.222" y1="186.375" x2="135.142" y2="214.264"/>
	</g>
	<g id="LINE_15_">
		<polyline fill="none" stroke="#000000" stroke-linecap="round" stroke-linejoin="round" points="336.029,158.493 334.162,165.465 
			332.171,172.437 329.399,179.409 324.897,186.383 317.824,193.354 308.803,199.455 298.5,203.814 287.572,205.559 
			276.639,203.814 266.337,199.455 257.316,193.354 250.241,186.383 245.739,179.409 242.969,172.437 240.979,165.465 
			239.111,158.493 		"/>
	</g>
	<g id="LINE_14_">
		
			<line fill="none" stroke="#000000" stroke-linecap="round" stroke-linejoin="round" x1="336.029" y1="158.493" x2="350.98" y2="214.269"/>
	</g>
	<g id="LINE_13_">
		
			<line fill="none" stroke="#000000" stroke-linecap="round" stroke-linejoin="round" x1="350.98" y1="214.269" x2="416.918" y2="186.375"/>
	</g>
	<g id="LINE_11_">
		
			<line fill="none" stroke="#000000" stroke-linecap="round" stroke-linejoin="round" x1="416.918" y1="186.375" x2="439.999" y2="214.264"/>
	</g>
	<g id="LINE_10_">
		
			<line fill="none" stroke="#000000" stroke-linecap="round" stroke-linejoin="round" x1="239.111" y1="158.493" x2="224.159" y2="102.718"/>
	</g>
	<g id="LINE_9_">
		
			<line fill="none" stroke="#000000" stroke-linecap="round" stroke-linejoin="round" x1="224.159" y1="102.718" x2="158.22" y2="130.612"/>
	</g>
	<g id="LINE_8_">
		
			<line fill="none" stroke="#000000" stroke-linecap="round" stroke-linejoin="round" x1="158.222" y1="130.61" x2="135.142" y2="102.722"/>
	</g>
	<g id="LINE_7_">
		<polyline fill="none" stroke="#000000" stroke-linecap="round" stroke-linejoin="round" points="336.029,158.493 334.162,151.521 
			332.171,144.549 329.399,137.577 324.897,130.604 317.824,123.632 308.803,117.531 298.5,113.172 287.572,111.428 
			276.639,113.172 266.337,117.531 257.316,123.632 250.241,130.604 245.739,137.577 242.969,144.549 240.979,151.521 
			239.111,158.493 		"/>
	</g>
	<g id="LINE_6_">
		
			<line fill="none" stroke="#000000" stroke-linecap="round" stroke-linejoin="round" x1="336.029" y1="158.493" x2="350.98" y2="102.718"/>
	</g>
	<g id="LINE_5_">
		
			<line fill="none" stroke="#000000" stroke-linecap="round" stroke-linejoin="round" x1="350.98" y1="102.718" x2="416.918" y2="130.612"/>
	</g>
	<g id="LINE_2_">
		
			<line fill="none" stroke="#000000" stroke-linecap="round" stroke-linejoin="round" x1="416.918" y1="130.61" x2="439.999" y2="102.722"/>
	</g>
	
		<line fill="none" stroke="#000000" stroke-linecap="round" stroke-linejoin="round" x1="416.915" y1="353.695" x2="416.918" y2="409.458"/>
	
		<line fill="none" stroke="#000000" stroke-linecap="round" stroke-linejoin="round" x1="416.915" y1="242.146" x2="416.915" y2="297.909"/>
	
		<line fill="none" stroke="#000000" stroke-linecap="round" stroke-linejoin="round" x1="416.912" y1="130.596" x2="416.915" y2="186.359"/>
	
		<line fill="none" stroke="#000000" stroke-linecap="round" stroke-linejoin="round" x1="158.216" y1="353.695" x2="158.217" y2="409.458"/>
	
		<line fill="none" stroke="#000000" stroke-linecap="round" stroke-linejoin="round" x1="158.215" y1="242.146" x2="158.216" y2="297.909"/>
	
		<line fill="none" stroke="#000000" stroke-linecap="round" stroke-linejoin="round" x1="158.213" y1="130.596" x2="158.215" y2="186.359"/>
	<g id="LINE_138_">
		
			<line fill="none" stroke="#000000" stroke-linecap="round" stroke-linejoin="round" x1="239.111" y1="493.131" x2="224.159" y2="437.355"/>
	</g>
	<g id="LINE_137_">
		
			<line fill="none" stroke="#000000" stroke-linecap="round" stroke-linejoin="round" x1="224.159" y1="437.355" x2="158.22" y2="465.249"/>
	</g>
	<g id="LINE_136_">
		
			<line fill="none" stroke="#000000" stroke-linecap="round" stroke-linejoin="round" x1="158.222" y1="465.248" x2="135.142" y2="437.359"/>
	</g>
	<g id="LINE_135_">
		<polyline fill="none" stroke="#000000" stroke-linecap="round" stroke-linejoin="round" points="336.029,493.131 334.162,486.159 
			332.171,479.188 329.399,472.214 324.897,465.241 317.824,458.271 308.803,452.169 298.5,447.811 287.572,446.065 
			276.639,447.811 266.337,452.169 257.316,458.271 250.241,465.241 245.739,472.214 242.969,479.188 240.979,486.159 
			239.111,493.131 		"/>
	</g>
	<g id="LINE_134_">
		
			<line fill="none" stroke="#000000" stroke-linecap="round" stroke-linejoin="round" x1="336.029" y1="493.131" x2="350.98" y2="437.355"/>
	</g>
	<g id="LINE_133_">
		
			<line fill="none" stroke="#000000" stroke-linecap="round" stroke-linejoin="round" x1="350.98" y1="437.355" x2="416.918" y2="465.249"/>
	</g>
	<g id="LINE_132_">
		
			<line fill="none" stroke="#000000" stroke-linecap="round" stroke-linejoin="round" x1="416.918" y1="465.248" x2="439.999" y2="437.359"/>
	</g>
	<g id="LINE_131_">
		
			<line fill="none" stroke="#000000" stroke-linecap="round" stroke-linejoin="round" x1="239.111" y1="493.131" x2="224.159" y2="548.906"/>
	</g>
	<g id="LINE_130_">
		
			<line fill="none" stroke="#000000" stroke-linecap="round" stroke-linejoin="round" x1="224.159" y1="548.906" x2="158.22" y2="521.012"/>
	</g>
	<g id="LINE_129_">
		
			<line fill="none" stroke="#000000" stroke-linecap="round" stroke-linejoin="round" x1="158.222" y1="521.012" x2="135.142" y2="548.901"/>
	</g>
	<g id="LINE_128_">
		<polyline fill="none" stroke="#000000" stroke-linecap="round" stroke-linejoin="round" points="336.029,493.131 334.162,500.103 
			332.171,507.074 329.399,514.047 324.897,521.02 317.824,527.991 308.803,534.095 298.5,538.453 287.572,540.195 276.639,538.453 
			266.337,534.095 257.316,527.991 250.241,521.02 245.739,514.047 242.969,507.074 240.979,500.103 239.111,493.131 		"/>
	</g>
	<g id="LINE_127_">
		
			<line fill="none" stroke="#000000" stroke-linecap="round" stroke-linejoin="round" x1="336.029" y1="493.131" x2="350.98" y2="548.906"/>
	</g>
	<g id="LINE_126_">
		
			<line fill="none" stroke="#000000" stroke-linecap="round" stroke-linejoin="round" x1="350.98" y1="548.906" x2="416.918" y2="521.012"/>
	</g>
	<g id="LINE_125_">
		
			<line fill="none" stroke="#000000" stroke-linecap="round" stroke-linejoin="round" x1="416.918" y1="521.012" x2="439.999" y2="548.901"/>
	</g>
	<g id="LINE_124_">
		
			<line fill="none" stroke="#000000" stroke-linecap="round" stroke-linejoin="round" x1="239.111" y1="604.672" x2="224.159" y2="548.896"/>
	</g>
	<g id="LINE_123_">
		
			<line fill="none" stroke="#000000" stroke-linecap="round" stroke-linejoin="round" x1="224.159" y1="548.896" x2="158.22" y2="576.791"/>
	</g>
	<g id="LINE_122_">
		
			<line fill="none" stroke="#000000" stroke-linecap="round" stroke-linejoin="round" x1="158.222" y1="576.791" x2="135.142" y2="548.901"/>
	</g>
	<g id="LINE_121_">
		
			<line fill="none" stroke="#000000" stroke-linecap="round" stroke-linejoin="round" x1="135.142" y1="548.901" x2="113.305" y2="548.901"/>
	</g>
	<g id="LINE_120_">
		<polyline fill="none" stroke="#000000" stroke-linecap="round" stroke-linejoin="round" points="336.029,604.672 334.162,597.7 
			332.171,590.729 329.399,583.757 324.897,576.782 317.824,569.811 308.803,563.71 298.5,559.352 287.572,557.607 276.639,559.352 
			266.337,563.71 257.316,569.811 250.241,576.782 245.739,583.757 242.969,590.729 240.979,597.7 239.111,604.672 		"/>
	</g>
	<g id="LINE_119_">
		
			<line fill="none" stroke="#000000" stroke-linecap="round" stroke-linejoin="round" x1="336.029" y1="604.672" x2="350.98" y2="548.896"/>
	</g>
	<g id="LINE_118_">
		
			<line fill="none" stroke="#000000" stroke-linecap="round" stroke-linejoin="round" x1="350.98" y1="548.896" x2="416.918" y2="576.791"/>
	</g>
	<g id="LINE_117_">
		
			<line fill="none" stroke="#000000" stroke-linecap="round" stroke-linejoin="round" x1="416.918" y1="576.791" x2="439.999" y2="548.901"/>
	</g>
	<g id="LINE_116_">
		
			<line fill="none" stroke="#000000" stroke-linecap="round" stroke-linejoin="round" x1="439.999" y1="548.901" x2="461.835" y2="548.901"/>
	</g>
	<g id="LINE_115_">
		
			<line fill="none" stroke="#000000" stroke-linecap="round" stroke-linejoin="round" x1="239.111" y1="604.672" x2="224.159" y2="660.448"/>
	</g>
	<g id="LINE_114_">
		
			<line fill="none" stroke="#000000" stroke-linecap="round" stroke-linejoin="round" x1="224.159" y1="660.448" x2="158.22" y2="632.554"/>
	</g>
	<g id="LINE_113_">
		
			<line fill="none" stroke="#000000" stroke-linecap="round" stroke-linejoin="round" x1="158.222" y1="632.554" x2="135.142" y2="660.443"/>
	</g>
	<g id="LINE_112_">
		
			<line fill="none" stroke="#000000" stroke-linecap="round" stroke-linejoin="round" x1="135.142" y1="660.443" x2="113.305" y2="660.443"/>
	</g>
	<g id="LINE_111_">
		<polyline fill="none" stroke="#000000" stroke-linecap="round" stroke-linejoin="round" points="336.029,604.672 334.162,611.644 
			332.171,618.615 329.399,625.587 324.897,632.562 317.824,639.533 308.803,645.634 298.5,649.992 287.572,651.737 
			276.639,649.992 266.337,645.634 257.316,639.533 250.241,632.562 245.739,625.587 242.969,618.615 240.979,611.644 
			239.111,604.672 		"/>
	</g>
	<g id="LINE_110_">
		
			<line fill="none" stroke="#000000" stroke-linecap="round" stroke-linejoin="round" x1="336.029" y1="604.672" x2="350.98" y2="660.448"/>
	</g>
	<g id="LINE_109_">
		
			<line fill="none" stroke="#000000" stroke-linecap="round" stroke-linejoin="round" x1="350.98" y1="660.448" x2="416.918" y2="632.554"/>
	</g>
	<g id="LINE_108_">
		
			<line fill="none" stroke="#000000" stroke-linecap="round" stroke-linejoin="round" x1="416.918" y1="632.554" x2="439.999" y2="660.443"/>
	</g>
	<g id="LINE_107_">
		
			<line fill="none" stroke="#000000" stroke-linecap="round" stroke-linejoin="round" x1="439.999" y1="660.443" x2="461.835" y2="660.443"/>
	</g>
	<g id="LINE_106_">
		
			<line fill="none" stroke="#000000" stroke-linecap="round" stroke-linejoin="round" x1="239.111" y1="716.223" x2="224.159" y2="660.448"/>
	</g>
	<g id="LINE_105_">
		
			<line fill="none" stroke="#000000" stroke-linecap="round" stroke-linejoin="round" x1="224.159" y1="660.448" x2="158.22" y2="688.341"/>
	</g>
	<g id="LINE_104_">
		
			<line fill="none" stroke="#000000" stroke-linecap="round" stroke-linejoin="round" x1="158.222" y1="688.341" x2="135.142" y2="660.451"/>
	</g>
	<g id="LINE_103_">
		<polyline fill="none" stroke="#000000" stroke-linecap="round" stroke-linejoin="round" points="336.029,716.223 334.162,709.251 
			332.171,702.279 329.399,695.307 324.897,688.333 317.824,681.361 308.803,675.261 298.5,670.902 287.572,669.157 
			276.639,670.902 266.337,675.261 257.316,681.361 250.241,688.333 245.739,695.307 242.969,702.279 240.979,709.251 
			239.111,716.223 		"/>
	</g>
	<g id="LINE_102_">
		
			<line fill="none" stroke="#000000" stroke-linecap="round" stroke-linejoin="round" x1="336.029" y1="716.223" x2="350.98" y2="660.448"/>
	</g>
	<g id="LINE_101_">
		
			<line fill="none" stroke="#000000" stroke-linecap="round" stroke-linejoin="round" x1="350.98" y1="660.448" x2="416.918" y2="688.341"/>
	</g>
	<g id="LINE_100_">
		
			<line fill="none" stroke="#000000" stroke-linecap="round" stroke-linejoin="round" x1="416.918" y1="688.341" x2="439.999" y2="660.451"/>
	</g>
	<g id="LINE_99_">
		
			<line fill="none" stroke="#000000" stroke-linecap="round" stroke-linejoin="round" x1="239.111" y1="716.223" x2="224.159" y2="771.996"/>
	</g>
	<g id="LINE_98_">
		
			<line fill="none" stroke="#000000" stroke-linecap="round" stroke-linejoin="round" x1="224.159" y1="771.996" x2="158.22" y2="744.104"/>
	</g>
	<g id="LINE_97_">
		
			<line fill="none" stroke="#000000" stroke-linecap="round" stroke-linejoin="round" x1="158.222" y1="744.104" x2="135.142" y2="771.993"/>
	</g>
	<g id="LINE_96_">
		<polyline fill="none" stroke="#000000" stroke-linecap="round" stroke-linejoin="round" points="336.029,716.223 334.162,723.194 
			332.171,730.166 329.399,737.138 324.897,744.111 317.824,751.084 308.803,757.184 298.5,761.542 287.572,763.287 
			276.639,761.542 266.337,757.184 257.316,751.084 250.241,744.111 245.739,737.138 242.969,730.166 240.979,723.194 
			239.111,716.223 		"/>
	</g>
	<g id="LINE_95_">
		
			<line fill="none" stroke="#000000" stroke-linecap="round" stroke-linejoin="round" x1="336.029" y1="716.223" x2="350.98" y2="771.996"/>
	</g>
	<g id="LINE_94_">
		
			<line fill="none" stroke="#000000" stroke-linecap="round" stroke-linejoin="round" x1="350.98" y1="771.996" x2="416.918" y2="744.104"/>
	</g>
	<g id="LINE_93_">
		
			<line fill="none" stroke="#000000" stroke-linecap="round" stroke-linejoin="round" x1="416.918" y1="744.104" x2="439.999" y2="771.993"/>
	</g>
	
		<line fill="none" stroke="#000000" stroke-linecap="round" stroke-linejoin="round" x1="416.915" y1="521.02" x2="416.918" y2="465.257"/>
	
		<line fill="none" stroke="#000000" stroke-linecap="round" stroke-linejoin="round" x1="416.915" y1="632.569" x2="416.915" y2="576.807"/>
	
		<line fill="none" stroke="#000000" stroke-linecap="round" stroke-linejoin="round" x1="416.912" y1="744.12" x2="416.915" y2="688.356"/>
	
		<line fill="none" stroke="#000000" stroke-linecap="round" stroke-linejoin="round" x1="158.216" y1="521.02" x2="158.217" y2="465.257"/>
	
		<line fill="none" stroke="#000000" stroke-linecap="round" stroke-linejoin="round" x1="158.215" y1="632.569" x2="158.216" y2="576.807"/>
	
		<line fill="none" stroke="#000000" stroke-linecap="round" stroke-linejoin="round" x1="158.213" y1="744.12" x2="158.215" y2="688.356"/>
	<g id="LINE_1_">
		
			<line fill="none" stroke="#000000" stroke-linecap="round" stroke-linejoin="round" x1="439.999" y1="437.359" x2="461.835" y2="437.359"/>
	</g>
	<g id="LINE_3_">
		
			<line fill="none" stroke="#000000" stroke-linecap="round" stroke-linejoin="round" x1="113.305" y1="437.349" x2="135.142" y2="437.349"/>
	</g>
</g>
<g id="Text">
	<text transform="matrix(1 0 0 1 432.3096 815.2715)" font-family="'ArialMT'" font-size="14">(c) 2016 Jun Mitani</text>
	<text transform="matrix(1 0 0 1 30.7119 42.1099)" font-family="'ArialMT'" font-size="18">Hexagonal Column Sculpture</text>
</g>
</svg>
