<?xml version="1.0" encoding="utf-8"?>
<!-- Generator: Adobe Illustrator 16.0.3, SVG Export Plug-In . SVG Version: 6.00 Build 0)  -->
<!DOCTYPE svg PUBLIC "-//W3C//DTD SVG 1.1//EN" "http://www.w3.org/Graphics/SVG/1.1/DTD/svg11.dtd">
<svg version="1.1" xmlns="http://www.w3.org/2000/svg" xmlns:xlink="http://www.w3.org/1999/xlink" x="0px" y="0px"
	 width="595.28px" height="841.89px" viewBox="0 0 595.28 841.89" enable-background="new 0 0 595.28 841.89" xml:space="preserve">
<g id="CutLine">
	<g id="LINE_513_">
		
			<line fill="none" stroke="#000000" stroke-width="2" stroke-linecap="round" stroke-linejoin="round" x1="452.279" y1="101.85" x2="452.279" y2="443.426"/>
	</g>
	
		<line fill="none" stroke="#000000" stroke-width="2" stroke-linecap="round" stroke-linejoin="round" x1="452.279" y1="101.85" x2="134.778" y2="101.85"/>
	<g id="LINE_69_">
		
			<line fill="none" stroke="#000000" stroke-width="2" stroke-linecap="round" stroke-linejoin="round" x1="452.279" y1="785" x2="452.279" y2="443.426"/>
	</g>
	
		<line fill="none" stroke="#000000" stroke-width="2" stroke-linecap="round" stroke-linejoin="round" x1="452.279" y1="785" x2="134.778" y2="785"/>
	<g id="LINE_68_">
		
			<line fill="none" stroke="#000000" stroke-width="2" stroke-linecap="round" stroke-linejoin="round" x1="134.778" y1="785" x2="134.778" y2="443.426"/>
	</g>
	<g id="LINE_262_">
		
			<line fill="none" stroke="#000000" stroke-width="2" stroke-linecap="round" stroke-linejoin="round" x1="134.778" y1="101.85" x2="134.778" y2="443.426"/>
	</g>
</g>
<g id="ValleyLine">
	<g id="LINE_254_">
		
			<line fill="none" stroke="#000000" stroke-linecap="round" stroke-linejoin="round" stroke-dasharray="4" x1="404.702" y1="248.239" x2="404.702" y2="297.035"/>
	</g>
	<g id="LINE_253_">
		
			<line fill="none" stroke="#000000" stroke-linecap="round" stroke-linejoin="round" stroke-dasharray="4" x1="404.702" y1="175.043" x2="404.702" y2="199.443"/>
	</g>
	<g id="LINE_250_">
		
			<line fill="none" stroke="#000000" stroke-linecap="round" stroke-linejoin="round" stroke-dasharray="4" x1="404.702" y1="345.83" x2="404.702" y2="370.23"/>
	</g>
	<g id="LINE_249_">
		
			<line fill="none" stroke="#000000" stroke-linecap="round" stroke-linejoin="round" stroke-dasharray="4" x1="404.702" y1="419.026" x2="404.702" y2="443.426"/>
	</g>
	<g id="LINE_246_">
		
			<line fill="none" stroke="#000000" stroke-linecap="round" stroke-linejoin="round" stroke-dasharray="4" x1="404.702" y1="101.849" x2="404.702" y2="126.249"/>
	</g>
	<g id="LINE_245_">
		
			<line fill="none" stroke="#000000" stroke-linecap="round" stroke-linejoin="round" stroke-dasharray="4" x1="427.882" y1="248.24" x2="427.882" y2="297.037"/>
	</g>
	<g id="LINE_244_">
		
			<line fill="none" stroke="#000000" stroke-linecap="round" stroke-linejoin="round" stroke-dasharray="4" x1="427.882" y1="175.045" x2="427.882" y2="199.444"/>
	</g>
	<g id="LINE_242_">
		
			<line fill="none" stroke="#000000" stroke-linecap="round" stroke-linejoin="round" stroke-dasharray="4" x1="427.882" y1="345.832" x2="427.882" y2="370.231"/>
	</g>
	<g id="LINE_241_">
		
			<line fill="none" stroke="#000000" stroke-linecap="round" stroke-linejoin="round" stroke-dasharray="4" x1="427.882" y1="419.029" x2="427.882" y2="443.427"/>
	</g>
	<g id="LINE_239_">
		
			<line fill="none" stroke="#000000" stroke-linecap="round" stroke-linejoin="round" stroke-dasharray="4" x1="427.882" y1="101.85" x2="427.882" y2="126.249"/>
	</g>
	<polyline fill="none" stroke="#000000" stroke-linecap="round" stroke-linejoin="round" stroke-dasharray="4" points="
		404.702,394.629 398.748,399.204 392.919,403.612 387.34,407.685 382.114,411.26 377.32,414.166 372.981,416.239 369.021,417.31 
		365.208,417.215 361.138,415.786 356.628,413.379 351.761,410.353 346.727,407.066 341.753,403.872 337.059,401.132 
		332.786,399.204 328.897,398.441 325.012,399.204 320.749,401.109 316.096,403.776 311.214,406.828 306.332,409.877 
		301.678,412.546 297.416,414.452 293.527,415.214 289.641,414.452 285.378,412.546 280.724,409.877 275.842,406.828 
		270.962,403.776 266.308,401.109 262.045,399.204 258.157,398.441 254.271,399.204 249.996,401.132 245.303,403.872 
		240.33,407.066 235.296,410.353 230.428,413.379 225.92,415.786 221.848,417.215 218.035,417.31 214.074,416.239 209.736,414.166 
		204.941,411.26 199.716,407.685 194.137,403.612 188.308,399.204 182.354,394.629 	"/>
	<g id="LINE_238_">
		
			<line fill="none" stroke="#000000" stroke-linecap="round" stroke-linejoin="round" stroke-dasharray="4" x1="428.857" y1="149.67" x2="451.304" y2="127.225"/>
	</g>
	<g id="LINE_235_">
		
			<line fill="none" stroke="#000000" stroke-linecap="round" stroke-linejoin="round" stroke-dasharray="4" x1="428.857" y1="151.623" x2="451.304" y2="174.068"/>
	</g>
	<g id="LINE_234_">
		
			<line fill="none" stroke="#000000" stroke-linecap="round" stroke-linejoin="round" stroke-dasharray="4" x1="427.882" y1="199.443" x2="452.279" y2="223.841"/>
	</g>
	<g id="LINE_232_">
		
			<line fill="none" stroke="#000000" stroke-linecap="round" stroke-linejoin="round" stroke-dasharray="4" x1="427.882" y1="248.24" x2="452.279" y2="223.841"/>
	</g>
	<g id="LINE_231_">
		
			<line fill="none" stroke="#000000" stroke-linecap="round" stroke-linejoin="round" stroke-dasharray="4" x1="427.882" y1="297.037" x2="452.279" y2="321.433"/>
	</g>
	<g id="LINE_228_">
		
			<line fill="none" stroke="#000000" stroke-linecap="round" stroke-linejoin="round" stroke-dasharray="4" x1="427.882" y1="345.832" x2="452.279" y2="321.433"/>
	</g>
	<g id="LINE_227_">
		
			<line fill="none" stroke="#000000" stroke-linecap="round" stroke-linejoin="round" stroke-dasharray="4" x1="428.857" y1="393.651" x2="451.304" y2="371.207"/>
	</g>
	<g id="LINE_225_">
		
			<line fill="none" stroke="#000000" stroke-linecap="round" stroke-linejoin="round" stroke-dasharray="4" x1="428.857" y1="395.604" x2="451.304" y2="418.05"/>
	</g>
	<g id="LINE_224_">
		
			<line fill="none" stroke="#000000" stroke-linecap="round" stroke-linejoin="round" stroke-dasharray="4" x1="158.201" y1="149.67" x2="135.755" y2="127.225"/>
	</g>
	<g id="LINE_221_">
		
			<line fill="none" stroke="#000000" stroke-linecap="round" stroke-linejoin="round" stroke-dasharray="4" x1="158.201" y1="151.623" x2="135.755" y2="174.068"/>
	</g>
	<g id="LINE_220_">
		
			<line fill="none" stroke="#000000" stroke-linecap="round" stroke-linejoin="round" stroke-dasharray="4" x1="159.176" y1="199.443" x2="134.778" y2="223.841"/>
	</g>
	<g id="LINE_218_">
		
			<line fill="none" stroke="#000000" stroke-linecap="round" stroke-linejoin="round" stroke-dasharray="4" x1="159.176" y1="248.24" x2="134.778" y2="223.841"/>
	</g>
	<g id="LINE_217_">
		
			<line fill="none" stroke="#000000" stroke-linecap="round" stroke-linejoin="round" stroke-dasharray="4" x1="159.176" y1="297.037" x2="134.778" y2="321.433"/>
	</g>
	<g id="LINE_213_">
		
			<line fill="none" stroke="#000000" stroke-linecap="round" stroke-linejoin="round" stroke-dasharray="4" x1="159.176" y1="345.832" x2="134.778" y2="321.433"/>
	</g>
	<g id="LINE_212_">
		
			<line fill="none" stroke="#000000" stroke-linecap="round" stroke-linejoin="round" stroke-dasharray="4" x1="158.201" y1="393.651" x2="135.755" y2="371.207"/>
	</g>
	<g id="LINE_209_">
		
			<line fill="none" stroke="#000000" stroke-linecap="round" stroke-linejoin="round" stroke-dasharray="4" x1="158.201" y1="395.604" x2="135.755" y2="418.05"/>
	</g>
	<polyline fill="none" stroke="#000000" stroke-linecap="round" stroke-linejoin="round" stroke-dasharray="4" points="
		404.702,394.629 398.748,390.054 392.919,385.646 387.34,381.571 382.114,377.998 377.32,375.09 372.981,373.018 369.021,371.946 
		365.208,372.041 361.138,373.47 356.628,375.877 351.761,378.902 346.727,382.191 341.753,385.383 337.059,388.124 
		332.786,390.054 328.897,390.815 325.012,390.054 320.749,388.148 316.096,385.48 311.214,382.429 306.332,379.381 
		301.678,376.711 297.416,374.805 293.527,374.042 289.641,374.805 285.378,376.711 280.724,379.381 275.842,382.429 
		270.962,385.48 266.308,388.148 262.045,390.054 258.157,390.815 254.271,390.054 249.996,388.124 245.303,385.383 240.33,382.191 
		235.296,378.902 230.428,375.877 225.92,373.47 221.848,372.041 218.035,371.946 214.074,373.018 209.736,375.09 204.941,377.998 
		199.716,381.571 194.137,385.646 188.308,390.054 182.354,394.629 	"/>
	<polyline fill="none" stroke="#000000" stroke-linecap="round" stroke-linejoin="round" stroke-dasharray="4" points="
		404.702,345.83 398.748,341.256 392.919,336.847 387.34,332.774 382.114,329.2 377.32,326.292 372.981,324.22 369.021,323.148 
		365.208,323.244 361.138,324.674 356.628,327.08 351.761,330.107 346.727,333.394 341.753,336.586 337.059,339.326 
		332.786,341.256 328.897,342.018 325.012,341.256 320.749,339.35 316.096,336.683 311.214,333.631 306.332,330.582 
		301.678,327.913 297.416,326.008 293.527,325.245 289.641,326.008 285.378,327.913 280.724,330.582 275.842,333.631 
		270.962,336.683 266.308,339.35 262.045,341.256 258.157,342.018 254.271,341.256 249.996,339.326 245.303,336.586 240.33,333.394 
		235.296,330.107 230.428,327.08 225.92,324.674 221.848,323.244 218.035,323.148 214.074,324.22 209.736,326.292 204.941,329.2 
		199.716,332.774 194.137,336.847 188.308,341.256 182.354,345.83 	"/>
	<polyline fill="none" stroke="#000000" stroke-linecap="round" stroke-linejoin="round" stroke-dasharray="4" points="
		404.702,297.037 398.748,301.611 392.919,306.02 387.34,310.093 382.114,313.667 377.32,316.574 372.981,318.646 369.021,319.718 
		365.208,319.622 361.138,318.193 356.628,315.788 351.761,312.761 346.727,309.473 341.753,306.28 337.059,303.541 
		332.786,301.611 328.897,300.849 325.012,301.611 320.749,303.517 316.096,306.185 311.214,309.235 306.332,312.285 
		301.678,314.954 297.416,316.859 293.527,317.623 289.641,316.859 285.378,314.954 280.724,312.285 275.842,309.235 
		270.962,306.185 266.308,303.517 262.045,301.611 258.157,300.849 254.271,301.611 249.996,303.541 245.303,306.28 240.33,309.473 
		235.296,312.761 230.428,315.788 225.92,318.193 221.848,319.622 218.035,319.718 214.074,318.646 209.736,316.574 
		204.941,313.667 199.716,310.093 194.137,306.02 188.308,301.611 182.354,297.037 	"/>
	<polyline fill="none" stroke="#000000" stroke-linecap="round" stroke-linejoin="round" stroke-dasharray="4" points="
		404.702,248.239 398.748,243.664 392.919,239.256 387.34,235.183 382.114,231.608 377.32,228.701 372.981,226.628 369.021,225.557 
		365.208,225.651 361.138,227.081 356.628,229.487 351.761,232.514 346.727,235.801 341.753,238.995 337.059,241.734 
		332.786,243.664 328.897,244.426 325.012,243.664 320.749,241.758 316.096,239.089 311.214,236.039 306.332,232.99 
		301.678,230.321 297.416,228.415 293.527,227.653 289.641,228.415 285.378,230.321 280.724,232.99 275.842,236.039 
		270.962,239.089 266.308,241.758 262.045,243.664 258.157,244.426 254.271,243.664 249.996,241.734 245.303,238.995 
		240.33,235.801 235.296,232.514 230.428,229.487 225.92,227.081 221.848,225.651 218.035,225.557 214.074,226.628 209.736,228.701 
		204.941,231.608 199.716,235.183 194.137,239.256 188.308,243.664 182.354,248.239 	"/>
	<polyline fill="none" stroke="#000000" stroke-linecap="round" stroke-linejoin="round" stroke-dasharray="4" points="
		404.702,199.443 398.748,204.018 392.919,208.425 387.34,212.5 382.114,216.074 377.32,218.98 372.981,221.053 369.021,222.125 
		365.208,222.029 361.138,220.6 356.628,218.194 351.761,215.167 346.727,211.88 341.753,208.687 337.059,205.947 332.786,204.018 
		328.897,203.255 325.012,204.018 320.749,205.924 316.096,208.591 311.214,211.642 306.332,214.691 301.678,217.36 
		297.416,219.266 293.527,220.029 289.641,219.266 285.378,217.36 280.724,214.691 275.842,211.642 270.962,208.591 
		266.308,205.924 262.045,204.018 258.157,203.255 254.271,204.018 249.996,205.947 245.303,208.687 240.33,211.88 235.296,215.167 
		230.428,218.194 225.92,220.6 221.848,222.029 218.035,222.125 214.074,221.053 209.736,218.98 204.941,216.074 199.716,212.5 
		194.137,208.425 188.308,204.018 182.354,199.443 	"/>
	<polyline fill="none" stroke="#000000" stroke-linecap="round" stroke-linejoin="round" stroke-dasharray="4" points="
		404.702,150.647 398.748,155.222 392.919,159.63 387.34,163.703 382.114,167.277 377.32,170.184 372.981,172.257 369.021,173.329 
		365.208,173.233 361.138,171.804 356.628,169.398 351.761,166.371 346.727,163.084 341.753,159.891 337.059,157.151 
		332.786,155.222 328.897,154.459 325.012,155.222 320.749,157.127 316.096,159.795 311.214,162.846 306.332,165.896 
		301.678,168.565 297.416,170.47 293.527,171.232 289.641,170.47 285.378,168.565 280.724,165.896 275.842,162.846 270.962,159.795 
		266.308,157.127 262.045,155.222 258.157,154.459 254.271,155.222 249.996,157.151 245.303,159.891 240.33,163.084 
		235.296,166.371 230.428,169.398 225.92,171.804 221.848,173.233 218.035,173.329 214.074,172.257 209.736,170.184 
		204.941,167.277 199.716,163.703 194.137,159.63 188.308,155.222 182.354,150.647 	"/>
	<polyline fill="none" stroke="#000000" stroke-linecap="round" stroke-linejoin="round" stroke-dasharray="4" points="
		404.702,150.647 398.748,146.071 392.919,141.664 387.34,137.59 382.114,134.016 377.32,131.109 372.981,129.036 369.021,127.964 
		365.208,128.06 361.138,129.489 356.628,131.895 351.761,134.921 346.727,138.209 341.753,141.403 337.059,144.142 
		332.786,146.071 328.897,146.833 325.012,146.071 320.749,144.166 316.096,141.498 311.214,138.447 306.332,135.398 
		301.678,132.729 297.416,130.823 293.527,130.061 289.641,130.823 285.378,132.729 280.724,135.398 275.842,138.447 
		270.962,141.498 266.308,144.166 262.045,146.071 258.157,146.833 254.271,146.071 249.996,144.142 245.303,141.403 
		240.33,138.209 235.296,134.921 230.428,131.895 225.92,129.489 221.848,128.06 218.035,127.964 214.074,129.036 209.736,131.109 
		204.941,134.016 199.716,137.59 194.137,141.664 188.308,146.071 182.354,150.647 	"/>
	
		<line fill="none" stroke="#000000" stroke-linecap="round" stroke-linejoin="round" stroke-dasharray="4" x1="404.702" y1="297.035" x2="427.882" y2="297.035"/>
	
		<line fill="none" stroke="#000000" stroke-linecap="round" stroke-linejoin="round" stroke-dasharray="4" x1="404.702" y1="248.239" x2="427.882" y2="248.239"/>
	
		<line fill="none" stroke="#000000" stroke-linecap="round" stroke-linejoin="round" stroke-dasharray="4" x1="404.702" y1="199.443" x2="427.882" y2="199.443"/>
	
		<line fill="none" stroke="#000000" stroke-linecap="round" stroke-linejoin="round" stroke-dasharray="4" x1="404.702" y1="345.83" x2="427.882" y2="345.83"/>
	
		<line fill="none" stroke="#000000" stroke-linecap="round" stroke-linejoin="round" stroke-dasharray="4" x1="182.354" y1="297.035" x2="159.176" y2="297.035"/>
	
		<line fill="none" stroke="#000000" stroke-linecap="round" stroke-linejoin="round" stroke-dasharray="4" x1="182.354" y1="248.239" x2="159.176" y2="248.239"/>
	
		<line fill="none" stroke="#000000" stroke-linecap="round" stroke-linejoin="round" stroke-dasharray="4" x1="182.354" y1="199.443" x2="159.176" y2="199.443"/>
	
		<line fill="none" stroke="#000000" stroke-linecap="round" stroke-linejoin="round" stroke-dasharray="4" x1="182.354" y1="345.83" x2="159.176" y2="345.83"/>
	<g id="LINE_208_">
		
			<line fill="none" stroke="#000000" stroke-linecap="round" stroke-linejoin="round" stroke-dasharray="4" x1="182.354" y1="248.239" x2="182.354" y2="297.035"/>
	</g>
	<g id="LINE_207_">
		
			<line fill="none" stroke="#000000" stroke-linecap="round" stroke-linejoin="round" stroke-dasharray="4" x1="182.354" y1="175.043" x2="182.354" y2="199.443"/>
	</g>
	<g id="LINE_204_">
		
			<line fill="none" stroke="#000000" stroke-linecap="round" stroke-linejoin="round" stroke-dasharray="4" x1="182.354" y1="345.83" x2="182.354" y2="370.23"/>
	</g>
	<g id="LINE_203_">
		
			<line fill="none" stroke="#000000" stroke-linecap="round" stroke-linejoin="round" stroke-dasharray="4" x1="182.354" y1="419.026" x2="182.354" y2="443.426"/>
	</g>
	<g id="LINE_200_">
		
			<line fill="none" stroke="#000000" stroke-linecap="round" stroke-linejoin="round" stroke-dasharray="4" x1="182.354" y1="101.849" x2="182.354" y2="126.249"/>
	</g>
	<g id="LINE_199_">
		
			<line fill="none" stroke="#000000" stroke-linecap="round" stroke-linejoin="round" stroke-dasharray="4" x1="159.176" y1="248.24" x2="159.176" y2="297.037"/>
	</g>
	<g id="LINE_198_">
		
			<line fill="none" stroke="#000000" stroke-linecap="round" stroke-linejoin="round" stroke-dasharray="4" x1="159.176" y1="175.045" x2="159.176" y2="199.444"/>
	</g>
	<g id="LINE_125_">
		
			<line fill="none" stroke="#000000" stroke-linecap="round" stroke-linejoin="round" stroke-dasharray="4" x1="159.176" y1="345.832" x2="159.176" y2="370.231"/>
	</g>
	<g id="LINE_124_">
		
			<line fill="none" stroke="#000000" stroke-linecap="round" stroke-linejoin="round" stroke-dasharray="4" x1="159.176" y1="419.027" x2="159.176" y2="443.428"/>
	</g>
	<g id="LINE_123_">
		
			<line fill="none" stroke="#000000" stroke-linecap="round" stroke-linejoin="round" stroke-dasharray="4" x1="159.176" y1="101.851" x2="159.176" y2="126.25"/>
	</g>
	<g id="LINE_122_">
		
			<line fill="none" stroke="#000000" stroke-linecap="round" stroke-linejoin="round" stroke-dasharray="4" x1="404.702" y1="638.611" x2="404.702" y2="589.815"/>
	</g>
	<g id="LINE_121_">
		
			<line fill="none" stroke="#000000" stroke-linecap="round" stroke-linejoin="round" stroke-dasharray="4" x1="404.702" y1="711.807" x2="404.702" y2="687.406"/>
	</g>
	<g id="LINE_120_">
		
			<line fill="none" stroke="#000000" stroke-linecap="round" stroke-linejoin="round" stroke-dasharray="4" x1="404.702" y1="541.021" x2="404.702" y2="516.62"/>
	</g>
	<g id="LINE_119_">
		
			<line fill="none" stroke="#000000" stroke-linecap="round" stroke-linejoin="round" stroke-dasharray="4" x1="404.702" y1="467.822" x2="404.702" y2="443.424"/>
	</g>
	<g id="LINE_118_">
		
			<line fill="none" stroke="#000000" stroke-linecap="round" stroke-linejoin="round" stroke-dasharray="4" x1="404.702" y1="785" x2="404.702" y2="760.603"/>
	</g>
	<g id="LINE_117_">
		
			<line fill="none" stroke="#000000" stroke-linecap="round" stroke-linejoin="round" stroke-dasharray="4" x1="427.882" y1="638.609" x2="427.882" y2="589.813"/>
	</g>
	<g id="LINE_116_">
		
			<line fill="none" stroke="#000000" stroke-linecap="round" stroke-linejoin="round" stroke-dasharray="4" x1="427.882" y1="711.805" x2="427.882" y2="687.406"/>
	</g>
	<g id="LINE_115_">
		
			<line fill="none" stroke="#000000" stroke-linecap="round" stroke-linejoin="round" stroke-dasharray="4" x1="427.882" y1="541.018" x2="427.882" y2="516.618"/>
	</g>
	<g id="LINE_114_">
		
			<line fill="none" stroke="#000000" stroke-linecap="round" stroke-linejoin="round" stroke-dasharray="4" x1="427.882" y1="467.82" x2="427.882" y2="443.423"/>
	</g>
	<g id="LINE_113_">
		
			<line fill="none" stroke="#000000" stroke-linecap="round" stroke-linejoin="round" stroke-dasharray="4" x1="427.882" y1="785" x2="427.882" y2="760.6"/>
	</g>
	<polyline fill="none" stroke="#000000" stroke-linecap="round" stroke-linejoin="round" stroke-dasharray="4" points="
		404.702,492.221 398.748,487.646 392.919,483.237 387.34,479.165 382.114,475.591 377.32,472.683 372.981,470.611 369.021,469.54 
		365.208,469.634 361.138,471.063 356.628,473.471 351.761,476.497 346.727,479.784 341.753,482.977 337.059,485.718 
		332.786,487.646 328.897,488.408 325.012,487.646 320.749,485.74 316.096,483.072 311.214,480.021 306.332,476.973 
		301.678,474.305 297.416,472.397 293.527,471.635 289.641,472.397 285.378,474.305 280.724,476.973 275.842,480.021 
		270.962,483.072 266.308,485.74 262.045,487.646 258.157,488.408 254.271,487.646 249.996,485.718 245.303,482.977 240.33,479.784 
		235.296,476.497 230.428,473.471 225.92,471.063 221.848,469.634 218.035,469.54 214.074,470.611 209.736,472.683 204.941,475.591 
		199.716,479.165 194.137,483.237 188.308,487.646 182.354,492.221 	"/>
	<g id="LINE_112_">
		
			<line fill="none" stroke="#000000" stroke-linecap="round" stroke-linejoin="round" stroke-dasharray="4" x1="428.857" y1="737.18" x2="451.304" y2="759.625"/>
	</g>
	<g id="LINE_111_">
		
			<line fill="none" stroke="#000000" stroke-linecap="round" stroke-linejoin="round" stroke-dasharray="4" x1="428.857" y1="735.227" x2="451.304" y2="712.782"/>
	</g>
	<g id="LINE_110_">
		
			<line fill="none" stroke="#000000" stroke-linecap="round" stroke-linejoin="round" stroke-dasharray="4" x1="427.882" y1="687.406" x2="452.279" y2="663.009"/>
	</g>
	<g id="LINE_109_">
		
			<line fill="none" stroke="#000000" stroke-linecap="round" stroke-linejoin="round" stroke-dasharray="4" x1="427.882" y1="638.609" x2="452.279" y2="663.009"/>
	</g>
	<g id="LINE_108_">
		
			<line fill="none" stroke="#000000" stroke-linecap="round" stroke-linejoin="round" stroke-dasharray="4" x1="427.882" y1="589.813" x2="452.279" y2="565.416"/>
	</g>
	<g id="LINE_107_">
		
			<line fill="none" stroke="#000000" stroke-linecap="round" stroke-linejoin="round" stroke-dasharray="4" x1="427.882" y1="541.018" x2="452.279" y2="565.416"/>
	</g>
	<g id="LINE_106_">
		
			<line fill="none" stroke="#000000" stroke-linecap="round" stroke-linejoin="round" stroke-dasharray="4" x1="428.857" y1="493.198" x2="451.304" y2="515.643"/>
	</g>
	<g id="LINE_105_">
		
			<line fill="none" stroke="#000000" stroke-linecap="round" stroke-linejoin="round" stroke-dasharray="4" x1="428.857" y1="491.245" x2="451.304" y2="468.8"/>
	</g>
	<g id="LINE_104_">
		
			<line fill="none" stroke="#000000" stroke-linecap="round" stroke-linejoin="round" stroke-dasharray="4" x1="158.201" y1="737.18" x2="135.755" y2="759.625"/>
	</g>
	<g id="LINE_103_">
		
			<line fill="none" stroke="#000000" stroke-linecap="round" stroke-linejoin="round" stroke-dasharray="4" x1="158.201" y1="735.227" x2="135.755" y2="712.782"/>
	</g>
	<g id="LINE_102_">
		
			<line fill="none" stroke="#000000" stroke-linecap="round" stroke-linejoin="round" stroke-dasharray="4" x1="159.176" y1="687.406" x2="134.778" y2="663.009"/>
	</g>
	<g id="LINE_101_">
		
			<line fill="none" stroke="#000000" stroke-linecap="round" stroke-linejoin="round" stroke-dasharray="4" x1="159.176" y1="638.609" x2="134.778" y2="663.009"/>
	</g>
	<g id="LINE_100_">
		
			<line fill="none" stroke="#000000" stroke-linecap="round" stroke-linejoin="round" stroke-dasharray="4" x1="159.176" y1="589.813" x2="134.778" y2="565.416"/>
	</g>
	<g id="LINE_99_">
		
			<line fill="none" stroke="#000000" stroke-linecap="round" stroke-linejoin="round" stroke-dasharray="4" x1="159.176" y1="541.018" x2="134.778" y2="565.416"/>
	</g>
	<g id="LINE_98_">
		
			<line fill="none" stroke="#000000" stroke-linecap="round" stroke-linejoin="round" stroke-dasharray="4" x1="158.201" y1="493.198" x2="135.755" y2="515.643"/>
	</g>
	<g id="LINE_97_">
		
			<line fill="none" stroke="#000000" stroke-linecap="round" stroke-linejoin="round" stroke-dasharray="4" x1="158.201" y1="491.245" x2="135.755" y2="468.8"/>
	</g>
	<polyline fill="none" stroke="#000000" stroke-linecap="round" stroke-linejoin="round" stroke-dasharray="4" points="
		404.702,492.221 398.748,496.795 392.919,501.205 387.34,505.28 382.114,508.853 377.32,511.76 372.981,513.832 369.021,514.902 
		365.208,514.809 361.138,513.379 356.628,510.972 351.761,507.948 346.727,504.659 341.753,501.466 337.059,498.726 
		332.786,496.795 328.897,496.034 325.012,496.795 320.749,498.702 316.096,501.37 311.214,504.421 306.332,507.469 
		301.678,510.139 297.416,512.045 293.527,512.809 289.641,512.045 285.378,510.139 280.724,507.469 275.842,504.421 
		270.962,501.37 266.308,498.702 262.045,496.795 258.157,496.034 254.271,496.795 249.996,498.726 245.303,501.466 240.33,504.659 
		235.296,507.948 230.428,510.972 225.92,513.379 221.848,514.809 218.035,514.902 214.074,513.832 209.736,511.76 204.941,508.853 
		199.716,505.28 194.137,501.205 188.308,496.795 182.354,492.221 	"/>
	<polyline fill="none" stroke="#000000" stroke-linecap="round" stroke-linejoin="round" stroke-dasharray="4" points="
		404.702,541.021 398.748,545.595 392.919,550.003 387.34,554.075 382.114,557.65 377.32,560.558 372.981,562.629 369.021,563.7 
		365.208,563.606 361.138,562.175 356.628,559.77 351.761,556.743 346.727,553.457 341.753,550.264 337.059,547.522 
		332.786,545.595 328.897,544.832 325.012,545.595 320.749,547.5 316.096,550.168 311.214,553.219 306.332,556.269 301.678,558.936 
		297.416,560.843 293.527,561.604 289.641,560.843 285.378,558.936 280.724,556.269 275.842,553.219 270.962,550.168 266.308,547.5 
		262.045,545.595 258.157,544.832 254.271,545.595 249.996,547.522 245.303,550.264 240.33,553.457 235.296,556.743 230.428,559.77 
		225.92,562.175 221.848,563.606 218.035,563.7 214.074,562.629 209.736,560.558 204.941,557.65 199.716,554.075 194.137,550.003 
		188.308,545.595 182.354,541.021 	"/>
	<polyline fill="none" stroke="#000000" stroke-linecap="round" stroke-linejoin="round" stroke-dasharray="4" points="
		404.702,589.813 398.748,585.238 392.919,580.83 387.34,576.756 382.114,573.184 377.32,570.276 372.981,568.202 369.021,567.131 
		365.208,567.227 361.138,568.656 356.628,571.062 351.761,574.088 346.727,577.377 341.753,580.57 337.059,583.309 
		332.786,585.238 328.897,586.002 325.012,585.238 320.749,583.334 316.096,580.664 311.214,577.614 306.332,574.565 
		301.678,571.896 297.416,569.99 293.527,569.228 289.641,569.99 285.378,571.896 280.724,574.565 275.842,577.614 270.962,580.664 
		266.308,583.334 262.045,585.238 258.157,586.002 254.271,585.238 249.996,583.309 245.303,580.57 240.33,577.377 235.296,574.088 
		230.428,571.062 225.92,568.656 221.848,567.227 218.035,567.131 214.074,568.202 209.736,570.276 204.941,573.184 
		199.716,576.756 194.137,580.83 188.308,585.238 182.354,589.813 	"/>
	<polyline fill="none" stroke="#000000" stroke-linecap="round" stroke-linejoin="round" stroke-dasharray="4" points="
		404.702,638.611 398.748,643.186 392.919,647.594 387.34,651.667 382.114,655.243 377.32,658.148 372.981,660.223 369.021,661.294 
		365.208,661.197 361.138,659.768 356.628,657.363 351.761,654.337 346.727,651.048 341.753,647.854 337.059,645.116 
		332.786,643.186 328.897,642.423 325.012,643.186 320.749,645.091 316.096,647.761 311.214,650.811 306.332,653.859 
		301.678,656.529 297.416,658.435 293.527,659.197 289.641,658.435 285.378,656.529 280.724,653.859 275.842,650.811 
		270.962,647.761 266.308,645.091 262.045,643.186 258.157,642.423 254.271,643.186 249.996,645.116 245.303,647.854 
		240.33,651.048 235.296,654.337 230.428,657.363 225.92,659.768 221.848,661.197 218.035,661.294 214.074,660.223 209.736,658.148 
		204.941,655.243 199.716,651.667 194.137,647.594 188.308,643.186 182.354,638.611 	"/>
	<polyline fill="none" stroke="#000000" stroke-linecap="round" stroke-linejoin="round" stroke-dasharray="4" points="
		404.702,687.406 398.748,682.832 392.919,678.424 387.34,674.35 382.114,670.776 377.32,667.869 372.981,665.796 369.021,664.725 
		365.208,664.82 361.138,666.25 356.628,668.655 351.761,671.682 346.727,674.971 341.753,678.163 337.059,680.902 332.786,682.832 
		328.897,683.595 325.012,682.832 320.749,680.927 316.096,678.259 311.214,675.208 306.332,672.158 301.678,669.488 
		297.416,667.584 293.527,666.821 289.641,667.584 285.378,669.488 280.724,672.158 275.842,675.208 270.962,678.259 
		266.308,680.927 262.045,682.832 258.157,683.595 254.271,682.832 249.996,680.902 245.303,678.163 240.33,674.971 
		235.296,671.682 230.428,668.655 225.92,666.25 221.848,664.82 218.035,664.725 214.074,665.796 209.736,667.869 204.941,670.776 
		199.716,674.35 194.137,678.424 188.308,682.832 182.354,687.406 	"/>
	<polyline fill="none" stroke="#000000" stroke-linecap="round" stroke-linejoin="round" stroke-dasharray="4" points="
		404.702,736.202 398.748,731.627 392.919,727.22 387.34,723.146 382.114,719.572 377.32,716.665 372.981,714.593 369.021,713.52 
		365.208,713.615 361.138,715.046 356.628,717.45 351.761,720.479 346.727,723.766 341.753,726.959 337.059,729.699 
		332.786,731.627 328.897,732.391 325.012,731.627 320.749,729.723 316.096,727.055 311.214,724.004 306.332,720.954 
		301.678,718.284 297.416,716.379 293.527,715.616 289.641,716.379 285.378,718.284 280.724,720.954 275.842,724.004 
		270.962,727.055 266.308,729.723 262.045,731.627 258.157,732.391 254.271,731.627 249.996,729.699 245.303,726.959 
		240.33,723.766 235.296,720.479 230.428,717.45 225.92,715.046 221.848,713.615 218.035,713.52 214.074,714.593 209.736,716.665 
		204.941,719.572 199.716,723.146 194.137,727.22 188.308,731.627 182.354,736.202 	"/>
	<polyline fill="none" stroke="#000000" stroke-linecap="round" stroke-linejoin="round" stroke-dasharray="4" points="
		404.702,736.202 398.748,740.777 392.919,745.186 387.34,749.26 382.114,752.834 377.32,755.742 372.981,757.813 369.021,758.885 
		365.208,758.789 361.138,757.361 356.628,754.956 351.761,751.928 346.727,748.641 341.753,745.448 337.059,742.707 
		332.786,740.777 328.897,740.017 325.012,740.777 320.749,742.685 316.096,745.352 311.214,748.403 306.332,751.45 301.678,754.12 
		297.416,756.027 293.527,756.79 289.641,756.027 285.378,754.12 280.724,751.45 275.842,748.403 270.962,745.352 266.308,742.685 
		262.045,740.777 258.157,740.017 254.271,740.777 249.996,742.707 245.303,745.448 240.33,748.641 235.296,751.928 
		230.428,754.956 225.92,757.361 221.848,758.789 218.035,758.885 214.074,757.813 209.736,755.742 204.941,752.834 199.716,749.26 
		194.137,745.186 188.308,740.777 182.354,736.202 	"/>
	
		<line fill="none" stroke="#000000" stroke-linecap="round" stroke-linejoin="round" stroke-dasharray="4" x1="404.702" y1="589.815" x2="427.882" y2="589.815"/>
	
		<line fill="none" stroke="#000000" stroke-linecap="round" stroke-linejoin="round" stroke-dasharray="4" x1="404.702" y1="638.611" x2="427.882" y2="638.611"/>
	
		<line fill="none" stroke="#000000" stroke-linecap="round" stroke-linejoin="round" stroke-dasharray="4" x1="404.702" y1="687.406" x2="427.882" y2="687.406"/>
	
		<line fill="none" stroke="#000000" stroke-linecap="round" stroke-linejoin="round" stroke-dasharray="4" x1="404.702" y1="541.021" x2="427.882" y2="541.021"/>
	
		<line fill="none" stroke="#000000" stroke-linecap="round" stroke-linejoin="round" stroke-dasharray="4" x1="182.354" y1="589.815" x2="159.176" y2="589.815"/>
	
		<line fill="none" stroke="#000000" stroke-linecap="round" stroke-linejoin="round" stroke-dasharray="4" x1="182.354" y1="638.611" x2="159.176" y2="638.611"/>
	
		<line fill="none" stroke="#000000" stroke-linecap="round" stroke-linejoin="round" stroke-dasharray="4" x1="182.354" y1="687.406" x2="159.176" y2="687.406"/>
	
		<line fill="none" stroke="#000000" stroke-linecap="round" stroke-linejoin="round" stroke-dasharray="4" x1="182.354" y1="541.021" x2="159.176" y2="541.021"/>
	<g id="LINE_96_">
		
			<line fill="none" stroke="#000000" stroke-linecap="round" stroke-linejoin="round" stroke-dasharray="4" x1="182.354" y1="638.611" x2="182.354" y2="589.815"/>
	</g>
	<g id="LINE_95_">
		
			<line fill="none" stroke="#000000" stroke-linecap="round" stroke-linejoin="round" stroke-dasharray="4" x1="182.354" y1="711.807" x2="182.354" y2="687.406"/>
	</g>
	<g id="LINE_94_">
		
			<line fill="none" stroke="#000000" stroke-linecap="round" stroke-linejoin="round" stroke-dasharray="4" x1="182.354" y1="541.021" x2="182.354" y2="516.62"/>
	</g>
	<g id="LINE_93_">
		
			<line fill="none" stroke="#000000" stroke-linecap="round" stroke-linejoin="round" stroke-dasharray="4" x1="182.354" y1="467.822" x2="182.354" y2="443.424"/>
	</g>
	<g id="LINE_92_">
		
			<line fill="none" stroke="#000000" stroke-linecap="round" stroke-linejoin="round" stroke-dasharray="4" x1="182.354" y1="785" x2="182.354" y2="760.603"/>
	</g>
	<g id="LINE_91_">
		
			<line fill="none" stroke="#000000" stroke-linecap="round" stroke-linejoin="round" stroke-dasharray="4" x1="159.176" y1="638.609" x2="159.176" y2="589.813"/>
	</g>
	<g id="LINE_90_">
		
			<line fill="none" stroke="#000000" stroke-linecap="round" stroke-linejoin="round" stroke-dasharray="4" x1="159.176" y1="711.805" x2="159.176" y2="687.406"/>
	</g>
	<g id="LINE_89_">
		
			<line fill="none" stroke="#000000" stroke-linecap="round" stroke-linejoin="round" stroke-dasharray="4" x1="159.176" y1="541.018" x2="159.176" y2="516.618"/>
	</g>
	<g id="LINE_88_">
		
			<line fill="none" stroke="#000000" stroke-linecap="round" stroke-linejoin="round" stroke-dasharray="4" x1="159.176" y1="467.822" x2="159.176" y2="443.423"/>
	</g>
	<g id="LINE_87_">
		
			<line fill="none" stroke="#000000" stroke-linecap="round" stroke-linejoin="round" stroke-dasharray="4" x1="159.176" y1="785" x2="159.176" y2="760.6"/>
	</g>
	
		<line fill="none" stroke="#000000" stroke-linecap="round" stroke-linejoin="round" stroke-dasharray="4" x1="182.354" y1="736.202" x2="159.176" y2="736.202"/>
	
		<line fill="none" stroke="#000000" stroke-linecap="round" stroke-linejoin="round" stroke-dasharray="4" x1="182.354" y1="394.629" x2="159.176" y2="394.629"/>
	
		<line fill="none" stroke="#000000" stroke-linecap="round" stroke-linejoin="round" stroke-dasharray="4" x1="182.354" y1="492.221" x2="159.176" y2="492.221"/>
	
		<line fill="none" stroke="#000000" stroke-linecap="round" stroke-linejoin="round" stroke-dasharray="4" x1="404.702" y1="736.202" x2="427.882" y2="736.202"/>
	
		<line fill="none" stroke="#000000" stroke-linecap="round" stroke-linejoin="round" stroke-dasharray="4" x1="404.702" y1="394.629" x2="427.882" y2="394.629"/>
	
		<line fill="none" stroke="#000000" stroke-linecap="round" stroke-linejoin="round" stroke-dasharray="4" x1="404.702" y1="492.221" x2="427.882" y2="492.221"/>
	
		<line fill="none" stroke="#000000" stroke-linecap="round" stroke-linejoin="round" stroke-dasharray="4" x1="404.702" y1="150.647" x2="427.882" y2="150.647"/>
	
		<line fill="none" stroke="#000000" stroke-linecap="round" stroke-linejoin="round" stroke-dasharray="4" x1="182.354" y1="150.647" x2="159.176" y2="150.647"/>
</g>
<g id="MountainLine">
	<polyline fill="none" stroke="#000000" stroke-linecap="round" stroke-linejoin="round" points="404.702,419.026 398.748,423.602 
		392.919,428.011 387.34,432.084 382.114,435.656 377.32,438.564 372.981,440.637 369.021,441.709 365.208,441.614 361.138,440.185 
		356.628,437.779 351.761,434.752 346.727,431.463 341.753,428.271 337.059,425.531 332.786,423.602 328.897,422.841 
		325.012,423.602 320.749,425.508 316.096,428.175 311.214,431.227 306.332,434.274 301.678,436.944 297.416,438.851 
		293.527,439.612 289.641,438.851 285.378,436.944 280.724,434.274 275.842,431.227 270.962,428.175 266.308,425.508 
		262.045,423.602 258.157,422.841 254.271,423.602 249.996,425.531 245.303,428.271 240.33,431.463 235.296,434.752 
		230.428,437.779 225.92,440.185 221.848,441.614 218.035,441.709 214.074,440.637 209.736,438.564 204.941,435.656 
		199.716,432.084 194.137,428.011 188.308,423.602 182.354,419.026 	"/>
	<polyline fill="none" stroke="#000000" stroke-linecap="round" stroke-linejoin="round" points="404.702,370.23 398.748,365.655 
		392.919,361.247 387.34,357.172 382.114,353.599 377.32,350.691 372.981,348.619 369.021,347.547 365.208,347.642 361.138,349.073 
		356.628,351.479 351.761,354.505 346.727,357.792 341.753,360.985 337.059,363.725 332.786,365.655 328.897,366.417 
		325.012,365.655 320.749,363.75 316.096,361.08 311.214,358.03 306.332,354.982 301.678,352.312 297.416,350.407 293.527,349.643 
		289.641,350.407 285.378,352.312 280.724,354.982 275.842,358.03 270.962,361.08 266.308,363.75 262.045,365.655 258.157,366.417 
		254.271,365.655 249.996,363.725 245.303,360.985 240.33,357.792 235.296,354.505 230.428,351.479 225.92,349.073 221.848,347.642 
		218.035,347.547 214.074,348.619 209.736,350.691 204.941,353.599 199.716,357.172 194.137,361.247 188.308,365.655 
		182.354,370.23 	"/>
	<polyline fill="none" stroke="#000000" stroke-linecap="round" stroke-linejoin="round" points="404.702,272.638 398.748,277.212 
		392.919,281.621 387.34,285.694 382.114,289.268 377.32,292.174 372.981,294.248 369.021,295.319 365.208,295.225 361.138,293.795 
		356.628,291.39 351.761,288.362 346.727,285.074 341.753,281.882 337.059,279.142 332.786,277.212 328.897,276.45 325.012,277.212 
		320.749,279.118 316.096,281.787 311.214,284.836 306.332,287.886 301.678,290.556 297.416,292.461 293.527,293.224 
		289.641,292.461 285.378,290.556 280.724,287.886 275.842,284.836 270.962,281.787 266.308,279.118 262.045,277.212 
		258.157,276.45 254.271,277.212 249.996,279.142 245.303,281.882 240.33,285.074 235.296,288.362 230.428,291.39 225.92,293.795 
		221.848,295.225 218.035,295.319 214.074,294.248 209.736,292.174 204.941,289.268 199.716,285.694 194.137,281.621 
		188.308,277.212 182.354,272.638 	"/>
	<polyline fill="none" stroke="#000000" stroke-linecap="round" stroke-linejoin="round" points="404.702,272.638 398.748,268.062 
		392.919,263.655 387.34,259.58 382.114,256.007 377.32,253.099 372.981,251.026 369.021,249.955 365.208,250.05 361.138,251.48 
		356.628,253.886 351.761,256.913 346.727,260.2 341.753,263.393 337.059,266.133 332.786,268.062 328.897,268.825 325.012,268.062 
		320.749,266.156 316.096,263.489 311.214,260.438 306.332,257.389 301.678,254.72 297.416,252.814 293.527,252.051 
		289.641,252.814 285.378,254.72 280.724,257.389 275.842,260.438 270.962,263.489 266.308,266.156 262.045,268.062 
		258.157,268.825 254.271,268.062 249.996,266.133 245.303,263.393 240.33,260.2 235.296,256.913 230.428,253.886 225.92,251.48 
		221.848,250.05 218.035,249.955 214.074,251.026 209.736,253.099 204.941,256.007 199.716,259.58 194.137,263.655 188.308,268.062 
		182.354,272.638 	"/>
	<polyline fill="none" stroke="#000000" stroke-linecap="round" stroke-linejoin="round" points="404.702,175.043 398.748,179.619 
		392.919,184.027 387.34,188.101 382.114,191.674 377.32,194.582 372.981,196.655 369.021,197.726 365.208,197.631 361.138,196.202 
		356.628,193.796 351.761,190.77 346.727,187.481 341.753,184.289 337.059,181.548 332.786,179.619 328.897,178.857 
		325.012,179.619 320.749,181.524 316.096,184.193 311.214,187.244 306.332,190.292 301.678,192.962 297.416,194.868 
		293.527,195.63 289.641,194.868 285.378,192.962 280.724,190.292 275.842,187.244 270.962,184.193 266.308,181.524 
		262.045,179.619 258.157,178.857 254.271,179.619 249.996,181.548 245.303,184.289 240.33,187.481 235.296,190.77 230.428,193.796 
		225.92,196.202 221.848,197.631 218.035,197.726 214.074,196.655 209.736,194.582 204.941,191.674 199.716,188.101 
		194.137,184.027 188.308,179.619 182.354,175.043 	"/>
	<polyline fill="none" stroke="#000000" stroke-linecap="round" stroke-linejoin="round" points="404.702,126.249 398.748,121.673 
		392.919,117.265 387.34,113.191 382.114,109.617 377.32,106.71 372.981,104.637 369.021,103.566 365.208,103.661 361.138,105.09 
		356.628,107.496 351.761,110.523 346.727,113.811 341.753,117.004 337.059,119.744 332.786,121.673 328.897,122.436 
		325.012,121.673 320.749,119.767 316.096,117.099 311.214,114.049 306.332,111 301.678,108.33 297.416,106.424 293.527,105.662 
		289.641,106.424 285.378,108.33 280.724,111 275.842,114.049 270.962,117.099 266.308,119.767 262.045,121.673 258.157,122.436 
		254.271,121.673 249.996,119.744 245.303,117.004 240.33,113.811 235.296,110.523 230.428,107.496 225.92,105.09 221.848,103.661 
		218.035,103.566 214.074,104.637 209.736,106.71 204.941,109.617 199.716,113.191 194.137,117.265 188.308,121.673 
		182.354,126.249 	"/>
	<polyline fill="none" stroke="#000000" stroke-linecap="round" stroke-linejoin="round" points="404.702,467.822 398.748,463.248 
		392.919,458.84 387.34,454.765 382.114,451.192 377.32,448.285 372.981,446.214 369.021,445.14 365.208,445.236 361.138,446.666 
		356.628,449.071 351.761,452.098 346.727,455.386 341.753,458.579 337.059,461.317 332.786,463.248 328.897,464.011 
		325.012,463.248 320.749,461.343 316.096,458.675 311.214,455.624 306.332,452.574 301.678,449.904 297.416,448 293.527,447.237 
		289.641,448 285.378,449.904 280.724,452.574 275.842,455.624 270.962,458.675 266.308,461.343 262.045,463.248 258.157,464.011 
		254.271,463.248 249.996,461.317 245.303,458.579 240.33,455.386 235.296,452.098 230.428,449.071 225.92,446.666 221.848,445.236 
		218.035,445.14 214.074,446.214 209.736,448.285 204.941,451.192 199.716,454.765 194.137,458.84 188.308,463.248 182.354,467.822 
			"/>
	<polyline fill="none" stroke="#000000" stroke-linecap="round" stroke-linejoin="round" points="404.702,516.62 398.748,521.195 
		392.919,525.604 387.34,529.678 382.114,533.25 377.32,536.157 372.981,538.231 369.021,539.303 365.208,539.207 361.138,537.777 
		356.628,535.372 351.761,532.344 346.727,529.057 341.753,525.863 337.059,523.125 332.786,521.195 328.897,520.433 
		325.012,521.195 320.749,523.1 316.096,525.77 311.214,528.819 306.332,531.868 301.678,534.538 297.416,536.443 293.527,537.206 
		289.641,536.443 285.378,534.538 280.724,531.868 275.842,528.819 270.962,525.77 266.308,523.1 262.045,521.195 258.157,520.433 
		254.271,521.195 249.996,523.125 245.303,525.863 240.33,529.057 235.296,532.344 230.428,535.372 225.92,537.777 221.848,539.207 
		218.035,539.303 214.074,538.231 209.736,536.157 204.941,533.25 199.716,529.678 194.137,525.604 188.308,521.195 182.354,516.62 
			"/>
	<polyline fill="none" stroke="#000000" stroke-linecap="round" stroke-linejoin="round" points="404.702,614.213 398.748,609.637 
		392.919,605.229 387.34,601.156 382.114,597.581 377.32,594.676 372.981,592.603 369.021,591.531 365.208,591.625 361.138,593.055 
		356.628,595.46 351.761,598.488 346.727,601.774 341.753,604.968 337.059,607.709 332.786,609.637 328.897,610.399 
		325.012,609.637 320.749,607.731 316.096,605.063 311.214,602.013 306.332,598.963 301.678,596.293 297.416,594.389 
		293.527,593.626 289.641,594.389 285.378,596.293 280.724,598.963 275.842,602.013 270.962,605.063 266.308,607.731 
		262.045,609.637 258.157,610.399 254.271,609.637 249.996,607.709 245.303,604.968 240.33,601.774 235.296,598.488 230.428,595.46 
		225.92,593.055 221.848,591.625 218.035,591.531 214.074,592.603 209.736,594.676 204.941,597.581 199.716,601.156 
		194.137,605.229 188.308,609.637 182.354,614.213 	"/>
	<polyline fill="none" stroke="#000000" stroke-linecap="round" stroke-linejoin="round" points="404.702,614.213 398.748,618.788 
		392.919,623.196 387.34,627.269 382.114,630.844 377.32,633.751 372.981,635.822 369.021,636.896 365.208,636.8 361.138,635.37 
		356.628,632.965 351.761,629.937 346.727,626.65 341.753,623.457 337.059,620.716 332.786,618.788 328.897,618.025 
		325.012,618.788 320.749,620.693 316.096,623.361 311.214,626.412 306.332,629.462 301.678,632.131 297.416,634.036 
		293.527,634.797 289.641,634.036 285.378,632.131 280.724,629.462 275.842,626.412 270.962,623.361 266.308,620.693 
		262.045,618.788 258.157,618.025 254.271,618.788 249.996,620.716 245.303,623.457 240.33,626.65 235.296,629.937 230.428,632.965 
		225.92,635.37 221.848,636.8 218.035,636.896 214.074,635.822 209.736,633.751 204.941,630.844 199.716,627.269 194.137,623.196 
		188.308,618.788 182.354,614.213 	"/>
	<polyline fill="none" stroke="#000000" stroke-linecap="round" stroke-linejoin="round" points="404.702,711.807 398.748,707.231 
		392.919,702.821 387.34,698.749 382.114,695.175 377.32,692.268 372.981,690.195 369.021,689.124 365.208,689.218 361.138,690.647 
		356.628,693.055 351.761,696.081 346.727,699.368 341.753,702.561 337.059,705.302 332.786,707.231 328.897,707.992 
		325.012,707.231 320.749,705.324 316.096,702.657 311.214,699.605 306.332,696.557 301.678,693.889 297.416,691.981 
		293.527,691.221 289.641,691.981 285.378,693.889 280.724,696.557 275.842,699.605 270.962,702.657 266.308,705.324 
		262.045,707.231 258.157,707.992 254.271,707.231 249.996,705.302 245.303,702.561 240.33,699.368 235.296,696.081 
		230.428,693.055 225.92,690.647 221.848,689.218 218.035,689.124 214.074,690.195 209.736,692.268 204.941,695.175 
		199.716,698.749 194.137,702.821 188.308,707.231 182.354,711.807 	"/>
	<g id="LINE_261_">
		
			<line fill="none" stroke="#000000" stroke-linecap="round" stroke-linejoin="round" x1="404.702" y1="199.443" x2="404.702" y2="248.239"/>
	</g>
	<g id="LINE_257_">
		
			<line fill="none" stroke="#000000" stroke-linecap="round" stroke-linejoin="round" x1="404.702" y1="297.035" x2="404.702" y2="345.83"/>
	</g>
	<g id="LINE_252_">
		
			<line fill="none" stroke="#000000" stroke-linecap="round" stroke-linejoin="round" x1="427.882" y1="199.444" x2="427.882" y2="248.24"/>
	</g>
	<g id="LINE_248_">
		
			<line fill="none" stroke="#000000" stroke-linecap="round" stroke-linejoin="round" x1="427.882" y1="297.037" x2="427.882" y2="345.832"/>
	</g>
	<g id="LINE_215_">
		
			<line fill="none" stroke="#000000" stroke-linecap="round" stroke-linejoin="round" x1="182.354" y1="199.443" x2="182.354" y2="248.239"/>
	</g>
	<g id="LINE_211_">
		
			<line fill="none" stroke="#000000" stroke-linecap="round" stroke-linejoin="round" x1="182.354" y1="297.035" x2="182.354" y2="345.83"/>
	</g>
	<g id="LINE_206_">
		
			<line fill="none" stroke="#000000" stroke-linecap="round" stroke-linejoin="round" x1="159.176" y1="199.444" x2="159.176" y2="248.24"/>
	</g>
	<g id="LINE_202_">
		
			<line fill="none" stroke="#000000" stroke-linecap="round" stroke-linejoin="round" x1="159.176" y1="297.037" x2="159.176" y2="345.832"/>
	</g>
	<g id="LINE_67_">
		
			<line fill="none" stroke="#000000" stroke-linecap="round" stroke-linejoin="round" x1="404.702" y1="687.406" x2="404.702" y2="638.611"/>
	</g>
	<g id="LINE_63_">
		
			<line fill="none" stroke="#000000" stroke-linecap="round" stroke-linejoin="round" x1="404.702" y1="589.815" x2="404.702" y2="541.021"/>
	</g>
	<g id="LINE_58_">
		
			<line fill="none" stroke="#000000" stroke-linecap="round" stroke-linejoin="round" x1="427.882" y1="687.406" x2="427.882" y2="638.609"/>
	</g>
	<g id="LINE_54_">
		
			<line fill="none" stroke="#000000" stroke-linecap="round" stroke-linejoin="round" x1="427.882" y1="589.813" x2="427.882" y2="541.018"/>
	</g>
	<g id="LINE_18_">
		
			<line fill="none" stroke="#000000" stroke-linecap="round" stroke-linejoin="round" x1="182.354" y1="687.406" x2="182.354" y2="638.611"/>
	</g>
	<g id="LINE_14_">
		
			<line fill="none" stroke="#000000" stroke-linecap="round" stroke-linejoin="round" x1="182.354" y1="589.815" x2="182.354" y2="541.021"/>
	</g>
	<g id="LINE_9_">
		
			<line fill="none" stroke="#000000" stroke-linecap="round" stroke-linejoin="round" x1="159.176" y1="687.406" x2="159.176" y2="638.609"/>
	</g>
	<g id="LINE_5_">
		
			<line fill="none" stroke="#000000" stroke-linecap="round" stroke-linejoin="round" x1="159.176" y1="589.813" x2="159.176" y2="541.018"/>
	</g>
	<polyline fill="none" stroke="#000000" stroke-linecap="round" stroke-linejoin="round" points="404.702,760.603 398.748,765.177 
		392.919,769.585 387.34,773.657 382.114,777.232 377.32,780.14 372.981,782.211 369.021,783.284 365.208,783.188 361.138,781.759 
		356.628,779.354 351.761,776.327 346.727,773.039 341.753,769.846 337.059,767.107 332.786,765.177 328.897,764.414 
		325.012,765.177 320.749,767.082 316.096,769.75 311.214,772.801 306.332,775.851 301.678,778.521 297.416,780.425 
		293.527,781.188 289.641,780.425 285.378,778.521 280.724,775.851 275.842,772.801 270.962,769.75 266.308,767.082 
		262.045,765.177 258.157,764.414 254.271,765.177 249.996,767.107 245.303,769.846 240.33,773.039 235.296,776.327 
		230.428,779.354 225.92,781.759 221.848,783.188 218.035,783.284 214.074,782.211 209.736,780.14 204.941,777.232 199.716,773.657 
		194.137,769.585 188.308,765.177 182.354,760.603 	"/>
	<g id="LINE_35_">
		
			<line fill="none" stroke="#000000" stroke-linecap="round" stroke-linejoin="round" x1="159.176" y1="760.6" x2="134.778" y2="785"/>
	</g>
	<g id="LINE_32_">
		
			<line fill="none" stroke="#000000" stroke-linecap="round" stroke-linejoin="round" x1="159.176" y1="711.805" x2="134.778" y2="687.406"/>
	</g>
	<g id="LINE_29_">
		
			<line fill="none" stroke="#000000" stroke-linecap="round" stroke-linejoin="round" x1="158.201" y1="615.188" x2="135.755" y2="637.636"/>
	</g>
	<g id="LINE_28_">
		
			<line fill="none" stroke="#000000" stroke-linecap="round" stroke-linejoin="round" x1="158.201" y1="613.236" x2="135.755" y2="590.791"/>
	</g>
	
		<line fill="none" stroke="#000000" stroke-linecap="round" stroke-linejoin="round" x1="182.354" y1="711.807" x2="159.176" y2="711.807"/>
	
		<line fill="none" stroke="#000000" stroke-linecap="round" stroke-linejoin="round" x1="182.354" y1="760.603" x2="159.176" y2="760.603"/>
	<g id="LINE_219_">
		
			<line fill="none" stroke="#000000" stroke-linecap="round" stroke-linejoin="round" x1="159.176" y1="370.231" x2="134.778" y2="345.832"/>
	</g>
	<g id="LINE_216_">
		
			<line fill="none" stroke="#000000" stroke-linecap="round" stroke-linejoin="round" x1="159.176" y1="419.026" x2="134.778" y2="443.426"/>
	</g>
	
		<line fill="none" stroke="#000000" stroke-linecap="round" stroke-linejoin="round" x1="182.354" y1="370.23" x2="159.176" y2="370.23"/>
	<g id="LINE_201_">
		
			<line fill="none" stroke="#000000" stroke-linecap="round" stroke-linejoin="round" x1="159.176" y1="370.232" x2="159.176" y2="419.027"/>
	</g>
	<g id="LINE_25_">
		
			<line fill="none" stroke="#000000" stroke-linecap="round" stroke-linejoin="round" x1="159.176" y1="516.618" x2="134.778" y2="541.018"/>
	</g>
	<g id="LINE_22_">
		
			<line fill="none" stroke="#000000" stroke-linecap="round" stroke-linejoin="round" x1="159.176" y1="467.822" x2="134.778" y2="443.426"/>
	</g>
	
		<line fill="none" stroke="#000000" stroke-linecap="round" stroke-linejoin="round" x1="182.354" y1="614.213" x2="159.176" y2="614.213"/>
	
		<line fill="none" stroke="#000000" stroke-linecap="round" stroke-linejoin="round" x1="182.354" y1="467.824" x2="159.176" y2="467.824"/>
	
		<line fill="none" stroke="#000000" stroke-linecap="round" stroke-linejoin="round" x1="182.354" y1="516.62" x2="159.176" y2="516.62"/>
	<g id="LINE_17_">
		
			<line fill="none" stroke="#000000" stroke-linecap="round" stroke-linejoin="round" x1="182.354" y1="760.603" x2="182.354" y2="711.807"/>
	</g>
	<g id="LINE_8_">
		
			<line fill="none" stroke="#000000" stroke-linecap="round" stroke-linejoin="round" x1="159.176" y1="760.6" x2="159.176" y2="711.805"/>
	</g>
	
		<line fill="none" stroke="#000000" stroke-linecap="round" stroke-linejoin="round" x1="182.354" y1="419.025" x2="159.176" y2="419.025"/>
	<g id="LINE_210_">
		
			<line fill="none" stroke="#000000" stroke-linecap="round" stroke-linejoin="round" x1="182.354" y1="370.231" x2="182.354" y2="419.026"/>
	</g>
	<g id="LINE_13_">
		
			<line fill="none" stroke="#000000" stroke-linecap="round" stroke-linejoin="round" x1="182.354" y1="516.618" x2="182.354" y2="467.822"/>
	</g>
	<g id="LINE_4_">
		
			<line fill="none" stroke="#000000" stroke-linecap="round" stroke-linejoin="round" x1="159.176" y1="516.618" x2="159.176" y2="467.822"/>
	</g>
	<g id="LINE_57_">
		
			<line fill="none" stroke="#000000" stroke-linecap="round" stroke-linejoin="round" x1="427.882" y1="760.6" x2="427.882" y2="711.805"/>
	</g>
	<g id="LINE_49_">
		
			<line fill="none" stroke="#000000" stroke-linecap="round" stroke-linejoin="round" x1="427.882" y1="760.6" x2="452.279" y2="785"/>
	</g>
	<g id="LINE_46_">
		
			<line fill="none" stroke="#000000" stroke-linecap="round" stroke-linejoin="round" x1="427.882" y1="711.805" x2="452.279" y2="687.406"/>
	</g>
	<g id="LINE_43_">
		
			<line fill="none" stroke="#000000" stroke-linecap="round" stroke-linejoin="round" x1="428.857" y1="615.188" x2="451.304" y2="637.636"/>
	</g>
	<g id="LINE_42_">
		
			<line fill="none" stroke="#000000" stroke-linecap="round" stroke-linejoin="round" x1="428.857" y1="613.236" x2="451.304" y2="590.791"/>
	</g>
	
		<line fill="none" stroke="#000000" stroke-linecap="round" stroke-linejoin="round" x1="404.702" y1="711.807" x2="427.882" y2="711.807"/>
	
		<line fill="none" stroke="#000000" stroke-linecap="round" stroke-linejoin="round" x1="404.702" y1="760.603" x2="427.882" y2="760.603"/>
	
		<line fill="none" stroke="#000000" stroke-linecap="round" stroke-linejoin="round" x1="404.702" y1="614.213" x2="427.882" y2="614.213"/>
	<g id="LINE_247_">
		
			<line fill="none" stroke="#000000" stroke-linecap="round" stroke-linejoin="round" x1="427.882" y1="370.232" x2="427.882" y2="419.029"/>
	</g>
	<g id="LINE_233_">
		
			<line fill="none" stroke="#000000" stroke-linecap="round" stroke-linejoin="round" x1="427.882" y1="370.231" x2="452.279" y2="345.832"/>
	</g>
	<g id="LINE_230_">
		
			<line fill="none" stroke="#000000" stroke-linecap="round" stroke-linejoin="round" x1="427.882" y1="419.026" x2="452.279" y2="443.426"/>
	</g>
	<g id="LINE_53_">
		
			<line fill="none" stroke="#000000" stroke-linecap="round" stroke-linejoin="round" x1="427.882" y1="516.618" x2="427.882" y2="467.82"/>
	</g>
	<g id="LINE_39_">
		
			<line fill="none" stroke="#000000" stroke-linecap="round" stroke-linejoin="round" x1="427.882" y1="516.618" x2="452.279" y2="541.018"/>
	</g>
	<g id="LINE_36_">
		
			<line fill="none" stroke="#000000" stroke-linecap="round" stroke-linejoin="round" x1="427.882" y1="467.822" x2="452.279" y2="443.426"/>
	</g>
	
		<line fill="none" stroke="#000000" stroke-linecap="round" stroke-linejoin="round" x1="404.702" y1="467.824" x2="427.882" y2="467.824"/>
	
		<line fill="none" stroke="#000000" stroke-linecap="round" stroke-linejoin="round" x1="404.702" y1="516.62" x2="427.882" y2="516.62"/>
	<g id="LINE_256_">
		
			<line fill="none" stroke="#000000" stroke-linecap="round" stroke-linejoin="round" x1="404.702" y1="370.231" x2="404.702" y2="419.026"/>
	</g>
	
		<line fill="none" stroke="#000000" stroke-linecap="round" stroke-linejoin="round" x1="404.702" y1="419.025" x2="427.882" y2="419.025"/>
	
		<line fill="none" stroke="#000000" stroke-linecap="round" stroke-linejoin="round" x1="404.702" y1="370.23" x2="427.882" y2="370.23"/>
	<g id="LINE_251_">
		
			<line fill="none" stroke="#000000" stroke-linecap="round" stroke-linejoin="round" x1="427.882" y1="126.249" x2="427.882" y2="175.045"/>
	</g>
	<g id="LINE_240_">
		
			<line fill="none" stroke="#000000" stroke-linecap="round" stroke-linejoin="round" x1="427.882" y1="175.045" x2="452.279" y2="199.443"/>
	</g>
	<g id="LINE_237_">
		
			<line fill="none" stroke="#000000" stroke-linecap="round" stroke-linejoin="round" x1="428.857" y1="271.66" x2="451.304" y2="249.215"/>
	</g>
	<g id="LINE_236_">
		
			<line fill="none" stroke="#000000" stroke-linecap="round" stroke-linejoin="round" x1="428.857" y1="273.614" x2="451.304" y2="296.059"/>
	</g>
	
		<line fill="none" stroke="#000000" stroke-linecap="round" stroke-linejoin="round" x1="404.702" y1="272.638" x2="427.882" y2="272.638"/>
	<g id="LINE_243_">
		
			<line fill="none" stroke="#000000" stroke-linecap="round" stroke-linejoin="round" x1="427.882" y1="126.249" x2="452.279" y2="101.85"/>
	</g>
	<g id="LINE_229_">
		
			<line fill="none" stroke="#000000" stroke-linecap="round" stroke-linejoin="round" x1="159.176" y1="126.249" x2="134.778" y2="101.85"/>
	</g>
	<g id="LINE_226_">
		
			<line fill="none" stroke="#000000" stroke-linecap="round" stroke-linejoin="round" x1="159.176" y1="175.045" x2="134.778" y2="199.443"/>
	</g>
	<g id="LINE_223_">
		
			<line fill="none" stroke="#000000" stroke-linecap="round" stroke-linejoin="round" x1="158.201" y1="271.66" x2="135.755" y2="249.215"/>
	</g>
	<g id="LINE_222_">
		
			<line fill="none" stroke="#000000" stroke-linecap="round" stroke-linejoin="round" x1="158.201" y1="273.614" x2="135.755" y2="296.059"/>
	</g>
	
		<line fill="none" stroke="#000000" stroke-linecap="round" stroke-linejoin="round" x1="404.702" y1="175.043" x2="427.882" y2="175.043"/>
	
		<line fill="none" stroke="#000000" stroke-linecap="round" stroke-linejoin="round" x1="404.702" y1="126.249" x2="427.882" y2="126.249"/>
	
		<line fill="none" stroke="#000000" stroke-linecap="round" stroke-linejoin="round" x1="182.354" y1="175.043" x2="159.176" y2="175.043"/>
	
		<line fill="none" stroke="#000000" stroke-linecap="round" stroke-linejoin="round" x1="182.354" y1="126.249" x2="159.176" y2="126.249"/>
	
		<line fill="none" stroke="#000000" stroke-linecap="round" stroke-linejoin="round" x1="182.354" y1="272.638" x2="159.176" y2="272.638"/>
	<g id="LINE_214_">
		
			<line fill="none" stroke="#000000" stroke-linecap="round" stroke-linejoin="round" x1="182.354" y1="126.249" x2="182.354" y2="175.043"/>
	</g>
	<g id="LINE_205_">
		
			<line fill="none" stroke="#000000" stroke-linecap="round" stroke-linejoin="round" x1="159.176" y1="126.25" x2="159.176" y2="175.045"/>
	</g>
	<g id="LINE_260_">
		
			<line fill="none" stroke="#000000" stroke-linecap="round" stroke-linejoin="round" x1="404.702" y1="126.249" x2="404.702" y2="175.043"/>
	</g>
	<g id="LINE_66_">
		
			<line fill="none" stroke="#000000" stroke-linecap="round" stroke-linejoin="round" x1="404.702" y1="760.603" x2="404.702" y2="711.807"/>
	</g>
	<g id="LINE_62_">
		
			<line fill="none" stroke="#000000" stroke-linecap="round" stroke-linejoin="round" x1="404.702" y1="516.618" x2="404.702" y2="467.822"/>
	</g>
</g>
<g id="Text">
	<text transform="matrix(1 0 0 1 432.3096 815.2715)" font-family="'ArialMT'" font-size="14">(c) 2016 Jun Mitani</text>
	<text transform="matrix(1 0 0 1 30.7119 42.1099)" font-family="'ArialMT'" font-size="18">Corrugated Column</text>
</g>
</svg>
