<?xml version="1.0" encoding="utf-8"?>
<!-- Generator: Adobe Illustrator 16.0.3, SVG Export Plug-In . SVG Version: 6.00 Build 0)  -->
<!DOCTYPE svg PUBLIC "-//W3C//DTD SVG 1.1//EN" "http://www.w3.org/Graphics/SVG/1.1/DTD/svg11.dtd">
<svg version="1.1" xmlns="http://www.w3.org/2000/svg" xmlns:xlink="http://www.w3.org/1999/xlink" x="0px" y="0px"
	 width="595.28px" height="841.89px" viewBox="0 0 595.28 841.89" enable-background="new 0 0 595.28 841.89" xml:space="preserve">
<g id="CutLine">
	<polyline fill="none" stroke="#000000" stroke-width="2" stroke-linecap="round" stroke-linejoin="round" points="45.319,745.746 
		45.319,132.975 153.351,132.975 	"/>
	<polyline fill="none" stroke="#000000" stroke-width="2" stroke-linecap="round" stroke-linejoin="round" points="439.97,132.975 
		426.774,126.636 413.899,120.51 401.668,114.813 390.367,109.761 380.254,105.568 371.498,102.449 364.065,100.616 
		357.522,100.286 350.787,101.672 343.152,104.33 334.699,107.813 325.859,111.676 317.182,115.475 309.215,118.76 302.38,121.088 
		296.661,122.014 290.941,121.088 284.106,118.76 276.139,115.475 267.461,111.676 258.623,107.813 250.169,104.33 242.534,101.672 
		235.8,100.286 229.255,100.616 221.824,102.449 213.066,105.568 202.956,109.761 191.655,114.815 179.421,120.51 166.548,126.636 
		153.351,132.975 	"/>
	<polyline fill="none" stroke="#000000" stroke-width="2" stroke-linecap="round" stroke-linejoin="round" points="548,744.643 
		548,132.975 439.97,132.975 	"/>
	
		<line fill="none" stroke="#000000" stroke-width="2" stroke-linecap="round" stroke-linejoin="round" x1="153.351" y1="745.076" x2="45.319" y2="745.076"/>
	
		<line fill="none" stroke="#000000" stroke-width="2" stroke-linecap="round" stroke-linejoin="round" x1="548" y1="745.076" x2="439.97" y2="745.076"/>
	<polyline fill="none" stroke="#000000" stroke-width="2" stroke-linecap="round" stroke-linejoin="round" points="439.97,745.313 
		426.774,738.972 413.899,732.846 401.668,727.151 390.367,722.098 380.254,717.906 371.498,714.784 364.065,712.951 
		357.522,712.622 350.787,714.008 343.152,716.667 334.699,720.15 325.859,724.012 317.182,727.811 309.215,731.096 302.38,733.424 
		296.661,734.348 290.941,733.424 284.106,731.096 276.139,727.811 267.461,724.014 258.623,720.15 250.169,716.667 
		242.534,714.008 235.8,712.622 229.255,712.951 221.824,714.784 213.066,717.906 202.956,722.098 191.655,727.151 179.421,732.846 
		166.548,738.972 153.351,745.313 	"/>
</g>
<g id="ValleyLine">
	
		<line fill="none" stroke="#000000" stroke-linecap="round" stroke-linejoin="round" stroke-dasharray="4" x1="153.351" y1="643.179" x2="153.351" y2="643.408"/>
	
		<line fill="none" stroke="#000000" stroke-linecap="round" stroke-linejoin="round" stroke-dasharray="4" x1="439.97" y1="643.408" x2="439.97" y2="643.179"/>
	
		<line fill="none" stroke="#000000" stroke-linecap="round" stroke-linejoin="round" stroke-dasharray="4" x1="153.351" y1="745.076" x2="153.351" y2="745.313"/>
	<polyline fill="none" stroke="#000000" stroke-linecap="round" stroke-linejoin="round" stroke-dasharray="4" points="
		439.97,745.076 426.774,726.058 413.899,707.686 401.668,690.597 390.367,675.439 380.254,662.859 371.498,653.498 
		364.065,648.002 357.522,647.011 350.787,651.171 343.152,659.146 334.699,669.595 325.859,681.188 317.182,692.578 
		309.215,702.434 302.38,709.416 296.661,712.191 290.941,709.416 284.106,702.434 276.139,692.578 267.461,681.188 
		258.623,669.595 250.169,659.146 242.534,651.171 235.8,647.011 229.255,648.002 221.824,653.498 213.066,662.859 202.956,675.439 
		191.655,690.597 179.421,707.686 166.548,726.058 153.351,745.076 	"/>
	
		<line fill="none" stroke="#000000" stroke-linecap="round" stroke-linejoin="round" stroke-dasharray="4" x1="439.97" y1="745.313" x2="439.97" y2="745.076"/>
	
		<line fill="none" stroke="#000000" stroke-linecap="round" stroke-linejoin="round" stroke-dasharray="4" x1="153.351" y1="541.043" x2="153.351" y2="541.276"/>
	
		<line fill="none" stroke="#000000" stroke-linecap="round" stroke-linejoin="round" stroke-dasharray="4" x1="439.97" y1="541.276" x2="439.97" y2="541.043"/>
	
		<line fill="none" stroke="#000000" stroke-linecap="round" stroke-linejoin="round" stroke-dasharray="4" x1="153.351" y1="642.945" x2="153.351" y2="643.179"/>
	<polyline fill="none" stroke="#000000" stroke-linecap="round" stroke-linejoin="round" stroke-dasharray="4" points="
		439.97,642.945 426.774,623.924 413.899,605.55 401.668,588.463 390.367,573.306 380.254,560.728 371.498,551.364 364.065,545.869 
		357.522,544.877 350.787,549.039 343.152,557.013 334.699,567.461 325.859,579.052 317.182,590.442 309.215,600.3 302.38,607.284 
		296.661,610.059 290.941,607.284 284.106,600.3 276.139,590.442 267.461,579.052 258.623,567.461 250.169,557.013 242.534,549.039 
		235.8,544.877 229.255,545.869 221.824,551.364 213.066,560.728 202.956,573.306 191.655,588.463 179.421,605.55 166.548,623.924 
		153.351,642.945 	"/>
	
		<line fill="none" stroke="#000000" stroke-linecap="round" stroke-linejoin="round" stroke-dasharray="4" x1="439.97" y1="643.179" x2="439.97" y2="642.945"/>
	
		<line fill="none" stroke="#000000" stroke-linecap="round" stroke-linejoin="round" stroke-dasharray="4" x1="153.351" y1="439.143" x2="153.351" y2="439.375"/>
	
		<line fill="none" stroke="#000000" stroke-linecap="round" stroke-linejoin="round" stroke-dasharray="4" x1="439.97" y1="439.375" x2="439.97" y2="439.143"/>
	
		<line fill="none" stroke="#000000" stroke-linecap="round" stroke-linejoin="round" stroke-dasharray="4" x1="153.351" y1="541.043" x2="153.351" y2="541.276"/>
	<polyline fill="none" stroke="#000000" stroke-linecap="round" stroke-linejoin="round" stroke-dasharray="4" points="
		439.97,541.043 426.774,522.023 413.899,503.649 401.668,486.562 390.367,471.406 380.254,458.826 371.498,449.465 
		364.065,443.969 357.522,442.976 350.787,447.136 343.152,455.11 334.699,465.562 325.859,477.152 317.182,488.544 309.215,498.4 
		302.38,505.382 296.661,508.154 290.941,505.382 284.106,498.4 276.139,488.544 267.461,477.152 258.623,465.562 250.169,455.11 
		242.534,447.136 235.8,442.976 229.255,443.969 221.824,449.465 213.066,458.826 202.956,471.406 191.655,486.562 179.421,503.649 
		166.548,522.023 153.351,541.043 	"/>
	
		<line fill="none" stroke="#000000" stroke-linecap="round" stroke-linejoin="round" stroke-dasharray="4" x1="439.97" y1="541.276" x2="439.97" y2="541.043"/>
	
		<line fill="none" stroke="#000000" stroke-linecap="round" stroke-linejoin="round" stroke-dasharray="4" x1="153.351" y1="337.01" x2="153.351" y2="337.242"/>
	
		<line fill="none" stroke="#000000" stroke-linecap="round" stroke-linejoin="round" stroke-dasharray="4" x1="439.97" y1="337.242" x2="439.97" y2="337.01"/>
	
		<line fill="none" stroke="#000000" stroke-linecap="round" stroke-linejoin="round" stroke-dasharray="4" x1="153.351" y1="438.911" x2="153.351" y2="439.143"/>
	<polyline fill="none" stroke="#000000" stroke-linecap="round" stroke-linejoin="round" stroke-dasharray="4" points="
		439.97,438.911 426.774,419.891 413.899,401.517 401.668,384.429 390.367,369.271 380.254,356.693 371.498,347.332 
		364.065,341.835 357.522,340.842 350.787,345.004 343.152,352.979 334.699,363.428 325.859,375.018 317.182,386.409 
		309.215,396.266 302.38,403.249 296.661,406.023 290.941,403.249 284.106,396.266 276.139,386.409 267.461,375.018 
		258.623,363.428 250.169,352.979 242.534,345.004 235.8,340.842 229.255,341.835 221.824,347.332 213.066,356.693 202.956,369.271 
		191.655,384.429 179.421,401.517 166.548,419.891 153.351,438.911 	"/>
	
		<line fill="none" stroke="#000000" stroke-linecap="round" stroke-linejoin="round" stroke-dasharray="4" x1="439.97" y1="439.143" x2="439.97" y2="438.911"/>
	<path fill="none" stroke="#000000" stroke-linecap="round" stroke-linejoin="round" stroke-dasharray="4" d="M439.97,745.195"/>
	
		<line fill="none" stroke="#000000" stroke-linecap="round" stroke-linejoin="round" stroke-dasharray="4" x1="153.351" y1="234.875" x2="153.351" y2="235.107"/>
	
		<line fill="none" stroke="#000000" stroke-linecap="round" stroke-linejoin="round" stroke-dasharray="4" x1="439.97" y1="235.107" x2="439.97" y2="234.875"/>
	<polyline fill="none" stroke="#000000" stroke-linecap="round" stroke-linejoin="round" stroke-dasharray="4" points="
		439.97,336.776 426.774,317.757 413.899,299.383 401.668,282.294 390.367,267.138 380.254,254.558 371.498,245.197 364.065,239.7 
		357.522,238.709 350.787,242.868 343.152,250.843 334.699,261.294 325.859,272.884 317.182,284.276 309.215,294.131 
		302.38,301.115 296.661,303.889 290.941,301.115 284.106,294.131 276.139,284.276 267.461,272.884 258.623,261.294 
		250.169,250.843 242.534,242.868 235.8,238.709 229.255,239.7 221.824,245.197 213.066,254.558 202.956,267.138 191.655,282.294 
		179.421,299.383 166.548,317.757 153.351,336.776 	"/>
	
		<line fill="none" stroke="#000000" stroke-linecap="round" stroke-linejoin="round" stroke-dasharray="4" x1="153.351" y1="132.742" x2="153.351" y2="132.975"/>
	
		<line fill="none" stroke="#000000" stroke-linecap="round" stroke-linejoin="round" stroke-dasharray="4" x1="439.97" y1="132.975" x2="439.97" y2="132.742"/>
	
		<line fill="none" stroke="#000000" stroke-linecap="round" stroke-linejoin="round" stroke-dasharray="4" x1="153.351" y1="234.644" x2="153.351" y2="234.875"/>
	<polyline fill="none" stroke="#000000" stroke-linecap="round" stroke-linejoin="round" stroke-dasharray="4" points="
		439.97,234.644 426.774,215.623 413.899,197.249 401.668,180.162 390.367,165.004 380.254,152.425 371.498,143.063 
		364.065,137.568 357.522,136.575 350.787,140.736 343.152,148.71 334.699,159.162 325.859,170.751 317.182,182.142 
		309.215,191.999 302.38,198.981 296.661,201.755 290.941,198.981 284.106,191.999 276.139,182.142 267.461,170.751 
		258.623,159.162 250.169,148.71 242.534,140.736 235.8,136.575 229.255,137.568 221.824,143.063 213.066,152.425 202.956,165.004 
		191.655,180.162 179.421,197.249 166.548,215.623 153.351,234.644 	"/>
	
		<line fill="none" stroke="#000000" stroke-linecap="round" stroke-linejoin="round" stroke-dasharray="4" x1="439.97" y1="234.875" x2="439.97" y2="234.644"/>
</g>
<g id="MountainLine">
	<polyline fill="none" stroke="#000000" stroke-linecap="round" stroke-linejoin="round" points="439.97,643.179 426.774,636.838 
		413.899,630.714 401.668,625.018 390.367,619.964 380.254,615.771 371.498,612.65 364.065,610.82 357.522,610.49 350.787,611.876 
		343.152,614.533 334.699,618.017 325.859,621.881 317.182,625.677 309.215,628.963 302.38,631.292 296.661,632.215 
		290.941,631.292 284.106,628.963 276.139,625.677 267.461,621.881 258.623,618.017 250.169,614.533 242.534,611.876 235.8,610.49 
		229.255,610.82 221.824,612.65 213.066,615.771 202.956,619.964 191.655,625.018 179.421,630.714 166.548,636.838 153.351,643.179 
			"/>
	<polyline fill="none" stroke="#000000" stroke-linecap="round" stroke-linejoin="round" points="439.97,541.276 426.774,534.936 
		413.899,528.812 401.668,523.115 390.367,518.063 380.254,513.869 371.498,510.751 364.065,508.918 357.522,508.588 
		350.787,509.975 343.152,512.631 334.699,516.115 325.859,519.979 317.182,523.775 309.215,527.063 302.38,529.39 296.661,530.314 
		290.941,529.39 284.106,527.063 276.139,523.775 267.461,519.979 258.623,516.115 250.169,512.631 242.534,509.975 235.8,508.588 
		229.255,508.918 221.824,510.751 213.066,513.869 202.956,518.063 191.655,523.115 179.421,528.812 166.548,534.936 
		153.351,541.276 	"/>
	<polyline fill="none" stroke="#000000" stroke-linecap="round" stroke-linejoin="round" points="439.97,439.143 426.774,432.803 
		413.899,426.679 401.668,420.982 390.367,415.931 380.254,411.737 371.498,408.615 364.065,406.785 357.522,406.455 
		350.787,407.841 343.152,410.498 334.699,413.983 325.859,417.846 317.182,421.642 309.215,424.928 302.38,427.256 296.661,428.18 
		290.941,427.256 284.106,424.928 276.139,421.642 267.461,417.846 258.623,413.983 250.169,410.498 242.534,407.841 235.8,406.455 
		229.255,406.785 221.824,408.615 213.066,411.737 202.956,415.931 191.655,420.982 179.421,426.679 166.548,432.803 
		153.351,439.143 	"/>
	
		<line fill="none" stroke="#000000" stroke-linecap="round" stroke-linejoin="round" x1="153.351" y1="642.945" x2="45.319" y2="642.945"/>
	
		<line fill="none" stroke="#000000" stroke-linecap="round" stroke-linejoin="round" x1="548" y1="642.945" x2="439.97" y2="642.945"/>
	
		<line fill="none" stroke="#000000" stroke-linecap="round" stroke-linejoin="round" x1="153.351" y1="541.043" x2="45.319" y2="541.043"/>
	
		<line fill="none" stroke="#000000" stroke-linecap="round" stroke-linejoin="round" x1="548" y1="541.043" x2="439.97" y2="541.043"/>
	
		<line fill="none" stroke="#000000" stroke-linecap="round" stroke-linejoin="round" x1="153.351" y1="439.143" x2="45.319" y2="439.143"/>
	
		<line fill="none" stroke="#000000" stroke-linecap="round" stroke-linejoin="round" x1="548" y1="439.143" x2="439.97" y2="439.143"/>
	
		<line fill="none" stroke="#000000" stroke-linecap="round" stroke-linejoin="round" x1="153.351" y1="337.242" x2="45.319" y2="337.242"/>
	
		<line fill="none" stroke="#000000" stroke-linecap="round" stroke-linejoin="round" x1="548" y1="337.242" x2="439.97" y2="337.242"/>
	<polyline fill="none" stroke="#000000" stroke-linecap="round" stroke-linejoin="round" points="439.97,337.01 426.774,330.669 
		413.899,324.544 401.668,318.847 390.367,313.795 380.254,309.602 371.498,306.481 364.065,304.65 357.522,304.319 
		350.787,305.707 343.152,308.364 334.699,311.848 325.859,315.71 317.182,319.508 309.215,322.796 302.38,325.122 296.661,326.046 
		290.941,325.122 284.106,322.796 276.139,319.508 267.461,315.71 258.623,311.848 250.169,308.364 242.534,305.707 235.8,304.319 
		229.255,304.65 221.824,306.481 213.066,309.602 202.956,313.795 191.655,318.849 179.421,324.544 166.548,330.669 153.351,337.01 
			"/>
	<polyline fill="none" stroke="#000000" stroke-linecap="round" stroke-linejoin="round" points="439.97,234.875 426.774,228.536 
		413.899,222.412 401.668,216.715 390.367,211.663 380.254,207.47 371.498,204.349 364.065,202.518 357.522,202.188 
		350.787,203.573 343.152,206.231 334.699,209.715 325.859,213.578 317.182,217.374 309.215,220.661 302.38,222.989 
		296.661,223.912 290.941,222.989 284.106,220.661 276.139,217.374 267.461,213.578 258.623,209.715 250.169,206.231 
		242.534,203.573 235.8,202.188 229.255,202.518 221.824,204.349 213.066,207.47 202.956,211.663 191.655,216.715 179.421,222.412 
		166.548,228.536 153.351,234.875 	"/>
	
		<line fill="none" stroke="#000000" stroke-linecap="round" stroke-linejoin="round" x1="153.351" y1="234.875" x2="45.319" y2="234.875"/>
	
		<line fill="none" stroke="#000000" stroke-linecap="round" stroke-linejoin="round" x1="548" y1="234.875" x2="439.97" y2="234.875"/>
	
		<line fill="none" stroke="#000000" stroke-linecap="round" stroke-linejoin="round" x1="439.97" y1="745.313" x2="439.97" y2="643.408"/>
	
		<line fill="none" stroke="#000000" stroke-linecap="round" stroke-linejoin="round" x1="153.351" y1="541.276" x2="153.351" y2="642.945"/>
	
		<line fill="none" stroke="#000000" stroke-linecap="round" stroke-linejoin="round" x1="439.97" y1="642.945" x2="439.97" y2="541.276"/>
	
		<line fill="none" stroke="#000000" stroke-linecap="round" stroke-linejoin="round" x1="153.351" y1="439.375" x2="153.351" y2="541.043"/>
	
		<line fill="none" stroke="#000000" stroke-linecap="round" stroke-linejoin="round" x1="439.97" y1="541.043" x2="439.97" y2="439.375"/>
	
		<line fill="none" stroke="#000000" stroke-linecap="round" stroke-linejoin="round" x1="153.351" y1="337.242" x2="153.351" y2="438.911"/>
	
		<line fill="none" stroke="#000000" stroke-linecap="round" stroke-linejoin="round" x1="439.97" y1="438.911" x2="439.97" y2="337.242"/>
	
		<line fill="none" stroke="#000000" stroke-linecap="round" stroke-linejoin="round" x1="153.351" y1="235.107" x2="153.351" y2="336.776"/>
	
		<line fill="none" stroke="#000000" stroke-linecap="round" stroke-linejoin="round" x1="439.97" y1="336.776" x2="439.97" y2="235.107"/>
	
		<line fill="none" stroke="#000000" stroke-linecap="round" stroke-linejoin="round" x1="153.351" y1="132.975" x2="153.351" y2="234.644"/>
	
		<line fill="none" stroke="#000000" stroke-linecap="round" stroke-linejoin="round" x1="439.97" y1="234.644" x2="439.97" y2="132.975"/>
	
		<line fill="none" stroke="#000000" stroke-linecap="round" stroke-linejoin="round" x1="153.351" y1="643.408" x2="153.351" y2="745.313"/>
</g>
<g id="Text">
	<text transform="matrix(1 0 0 1 432.3096 815.2715)" font-family="'ArialMT'" font-size="14">(c) 2016 Jun Mitani</text>
	<text transform="matrix(1 0 0 1 30.7119 42.1099)" font-family="'ArialMT'" font-size="18">Wavy Hexagonal Column</text>
</g>
</svg>
