<?xml version="1.0" encoding="utf-8"?>
<!-- Generator: Adobe Illustrator 16.0.3, SVG Export Plug-In . SVG Version: 6.00 Build 0)  -->
<!DOCTYPE svg PUBLIC "-//W3C//DTD SVG 1.1//EN" "http://www.w3.org/Graphics/SVG/1.1/DTD/svg11.dtd">
<svg version="1.1" xmlns="http://www.w3.org/2000/svg" xmlns:xlink="http://www.w3.org/1999/xlink" x="0px" y="0px"
	 width="595.28px" height="841.89px" viewBox="0 0 595.28 841.89" enable-background="new 0 0 595.28 841.89" xml:space="preserve">
<g id="Text">
	<text transform="matrix(1 0 0 1 432.3096 815.2715)" font-family="'ArialMT'" font-size="14">(c) 2016 Jun Mitani</text>
	<text transform="matrix(1 0 0 1 30.7119 42.1099)" font-family="'ArialMT'" font-size="18">Bangle</text>
</g>
<g id="CutLine">
	
		<line fill="none" stroke="#333333" stroke-linecap="round" stroke-linejoin="round" x1="247.963" y1="807.109" x2="247.963" y2="80.057"/>
	
		<line fill="none" stroke="#333333" stroke-linecap="round" stroke-linejoin="round" x1="347.318" y1="522.275" x2="347.318" y2="80.057"/>
	
		<line fill="none" stroke="#333333" stroke-linecap="round" stroke-linejoin="round" x1="347.318" y1="80.26" x2="247.963" y2="80.26"/>
	
		<line fill="none" stroke="#333333" stroke-linecap="round" stroke-linejoin="round" x1="347.318" y1="807.619" x2="347.318" y2="521.564"/>
	
		<line fill="none" stroke="#333333" stroke-linecap="round" stroke-linejoin="round" x1="347.318" y1="807.109" x2="247.963" y2="807.109"/>
</g>
<g id="MountainLine">
	<polyline fill="none" stroke="#333333" stroke-linecap="round" stroke-linejoin="round" points="247.963,111.78 260.865,122.775 
		273.767,122.775 278.329,120.128 282.926,117.813 287.798,116.158 292.785,115.165 297.641,114.835 302.494,115.165 
		307.482,116.158 312.355,117.813 316.951,120.128 321.514,122.775 334.414,122.775 347.318,111.78 	"/>
	<polyline fill="none" stroke="#333333" stroke-linecap="round" stroke-linejoin="round" points="247.963,107.384 260.865,97.202 
		273.767,97.202 278.329,99.85 282.926,102.165 287.798,103.819 292.785,104.813 297.641,105.144 302.494,104.813 307.482,103.819 
		312.355,102.165 316.951,99.85 321.514,97.202 334.414,97.202 347.318,107.384 	"/>
	<polyline fill="none" stroke="#333333" stroke-linecap="round" stroke-linejoin="round" points="247.963,183.705 260.865,173.32 
		273.767,173.32 278.329,175.967 282.926,178.283 287.798,179.938 292.785,180.931 297.641,181.262 302.494,180.931 
		307.482,179.938 312.355,178.283 316.951,175.967 321.514,173.32 334.414,173.32 347.318,183.705 	"/>
	<polyline fill="none" stroke="#333333" stroke-linecap="round" stroke-linejoin="round" points="347.318,139.513 334.414,150.304 
		321.514,150.304 316.951,147.656 312.355,145.34 307.482,143.687 302.494,142.693 297.641,142.362 292.785,142.693 
		287.798,143.687 282.926,145.34 278.329,147.656 273.767,150.304 260.865,150.304 247.963,139.513 	"/>
	
		<line fill="none" stroke="#333333" stroke-linecap="round" stroke-linejoin="round" x1="321.514" y1="139.613" x2="321.514" y2="122.775"/>
	
		<line fill="none" stroke="#333333" stroke-linecap="round" stroke-linejoin="round" x1="321.514" y1="173.32" x2="321.514" y2="150.304"/>
	
		<line fill="none" stroke="#333333" stroke-linecap="round" stroke-linejoin="round" x1="334.414" y1="173.32" x2="334.414" y2="150.304"/>
	
		<line fill="none" stroke="#333333" stroke-linecap="round" stroke-linejoin="round" x1="260.865" y1="139.613" x2="260.865" y2="122.775"/>
	
		<line fill="none" stroke="#333333" stroke-linecap="round" stroke-linejoin="round" x1="260.865" y1="173.32" x2="260.865" y2="150.304"/>
	
		<line fill="none" stroke="#333333" stroke-linecap="round" stroke-linejoin="round" x1="273.767" y1="173.32" x2="273.767" y2="150.304"/>
	
		<line fill="none" stroke="#333333" stroke-linecap="round" stroke-linejoin="round" x1="334.414" y1="139.613" x2="334.414" y2="122.776"/>
	
		<line fill="none" stroke="#333333" stroke-linecap="round" stroke-linejoin="round" x1="273.767" y1="139.613" x2="273.767" y2="122.776"/>
	
		<line fill="none" stroke="#333333" stroke-linecap="round" stroke-linejoin="round" x1="321.514" y1="97.202" x2="321.514" y2="80.364"/>
	
		<line fill="none" stroke="#333333" stroke-linecap="round" stroke-linejoin="round" x1="260.865" y1="97.202" x2="260.865" y2="80.364"/>
	
		<line fill="none" stroke="#333333" stroke-linecap="round" stroke-linejoin="round" x1="334.414" y1="97.202" x2="334.414" y2="80.366"/>
	
		<line fill="none" stroke="#333333" stroke-linecap="round" stroke-linejoin="round" x1="273.767" y1="97.202" x2="273.767" y2="80.366"/>
	
		<line fill="none" stroke="#333333" stroke-linecap="round" stroke-linejoin="round" x1="321.514" y1="243.26" x2="321.514" y2="226.422"/>
	
		<line fill="none" stroke="#333333" stroke-linecap="round" stroke-linejoin="round" x1="260.865" y1="243.26" x2="260.865" y2="226.422"/>
	
		<line fill="none" stroke="#333333" stroke-linecap="round" stroke-linejoin="round" x1="334.414" y1="243.26" x2="334.414" y2="226.423"/>
	
		<line fill="none" stroke="#333333" stroke-linecap="round" stroke-linejoin="round" x1="273.767" y1="243.26" x2="273.767" y2="226.423"/>
	
		<line fill="none" stroke="#333333" stroke-linecap="round" stroke-linejoin="round" x1="321.514" y1="200.849" x2="321.514" y2="184.011"/>
	
		<line fill="none" stroke="#333333" stroke-linecap="round" stroke-linejoin="round" x1="260.865" y1="200.849" x2="260.865" y2="184.011"/>
	
		<line fill="none" stroke="#333333" stroke-linecap="round" stroke-linejoin="round" x1="334.414" y1="200.849" x2="334.414" y2="184.012"/>
	
		<line fill="none" stroke="#333333" stroke-linecap="round" stroke-linejoin="round" x1="273.767" y1="200.849" x2="273.767" y2="184.012"/>
	
		<line fill="none" stroke="#333333" stroke-linecap="round" stroke-linejoin="round" x1="321.514" y1="347.109" x2="321.514" y2="330.271"/>
	
		<line fill="none" stroke="#333333" stroke-linecap="round" stroke-linejoin="round" x1="260.865" y1="347.109" x2="260.865" y2="330.271"/>
	
		<line fill="none" stroke="#333333" stroke-linecap="round" stroke-linejoin="round" x1="334.414" y1="347.109" x2="334.414" y2="330.272"/>
	
		<line fill="none" stroke="#333333" stroke-linecap="round" stroke-linejoin="round" x1="273.767" y1="347.109" x2="273.767" y2="330.272"/>
	
		<line fill="none" stroke="#333333" stroke-linecap="round" stroke-linejoin="round" x1="321.514" y1="304.698" x2="321.514" y2="287.86"/>
	
		<line fill="none" stroke="#333333" stroke-linecap="round" stroke-linejoin="round" x1="260.865" y1="304.698" x2="260.865" y2="287.86"/>
	
		<line fill="none" stroke="#333333" stroke-linecap="round" stroke-linejoin="round" x1="334.414" y1="304.698" x2="334.414" y2="287.861"/>
	
		<line fill="none" stroke="#333333" stroke-linecap="round" stroke-linejoin="round" x1="273.767" y1="304.698" x2="273.767" y2="287.861"/>
	<polyline fill="none" stroke="#333333" stroke-linecap="round" stroke-linejoin="round" points="247.963,215.63 260.865,226.625 
		273.767,226.625 278.329,223.978 282.926,221.662 287.798,220.008 292.785,219.015 297.641,218.685 302.494,219.015 
		307.482,220.008 312.355,221.662 316.951,223.978 321.514,226.625 334.414,226.625 347.318,215.63 	"/>
	<polyline fill="none" stroke="#333333" stroke-linecap="round" stroke-linejoin="round" points="247.963,211.233 260.865,201.052 
		273.767,201.052 278.329,203.699 282.926,206.015 287.798,207.669 292.785,208.663 297.641,208.993 302.494,208.663 
		307.482,207.669 312.355,206.015 316.951,203.699 321.514,201.052 334.414,201.052 347.318,211.233 	"/>
	<polyline fill="none" stroke="#333333" stroke-linecap="round" stroke-linejoin="round" points="247.963,287.555 260.865,277.17 
		273.767,277.17 278.329,279.816 282.926,282.133 287.798,283.788 292.785,284.78 297.641,285.111 302.494,284.78 307.482,283.788 
		312.355,282.133 316.951,279.816 321.514,277.17 334.414,277.17 347.318,287.555 	"/>
	<polyline fill="none" stroke="#333333" stroke-linecap="round" stroke-linejoin="round" points="347.318,243.362 334.414,254.153 
		321.514,254.153 316.951,251.506 312.355,249.189 307.482,247.536 302.494,246.543 297.641,246.212 292.785,246.543 
		287.798,247.536 282.926,249.189 278.329,251.506 273.767,254.153 260.865,254.153 247.963,243.362 	"/>
	
		<line fill="none" stroke="#333333" stroke-linecap="round" stroke-linejoin="round" x1="321.514" y1="277.17" x2="321.514" y2="254.153"/>
	
		<line fill="none" stroke="#333333" stroke-linecap="round" stroke-linejoin="round" x1="334.414" y1="277.17" x2="334.414" y2="254.153"/>
	
		<line fill="none" stroke="#333333" stroke-linecap="round" stroke-linejoin="round" x1="260.865" y1="277.17" x2="260.865" y2="254.153"/>
	
		<line fill="none" stroke="#333333" stroke-linecap="round" stroke-linejoin="round" x1="273.767" y1="277.17" x2="273.767" y2="254.153"/>
	<polyline fill="none" stroke="#333333" stroke-linecap="round" stroke-linejoin="round" points="247.963,319.479 260.865,330.475 
		273.767,330.475 278.329,327.827 282.926,325.512 287.798,323.857 292.785,322.864 297.641,322.534 302.494,322.864 
		307.482,323.857 312.355,325.512 316.951,327.827 321.514,330.475 334.414,330.475 347.318,319.479 	"/>
	<polyline fill="none" stroke="#333333" stroke-linecap="round" stroke-linejoin="round" points="247.963,315.083 260.865,304.901 
		273.767,304.901 278.329,307.549 282.926,309.864 287.798,311.519 292.785,312.513 297.641,312.843 302.494,312.513 
		307.482,311.519 312.355,309.864 316.951,307.549 321.514,304.901 334.414,304.901 347.318,315.083 	"/>
	<polyline fill="none" stroke="#333333" stroke-linecap="round" stroke-linejoin="round" points="247.963,391.404 260.865,381.02 
		273.767,381.02 278.329,383.666 282.926,385.982 287.798,387.638 292.785,388.63 297.641,388.961 302.494,388.63 307.482,387.638 
		312.355,385.982 316.951,383.666 321.514,381.02 334.414,381.02 347.318,391.404 	"/>
	<polyline fill="none" stroke="#333333" stroke-linecap="round" stroke-linejoin="round" points="347.318,347.212 334.414,358.003 
		321.514,358.003 316.951,355.355 312.355,353.039 307.482,351.386 302.494,350.393 297.641,350.062 292.785,350.393 
		287.798,351.386 282.926,353.039 278.329,355.355 273.767,358.003 260.865,358.003 247.963,347.212 	"/>
	
		<line fill="none" stroke="#333333" stroke-linecap="round" stroke-linejoin="round" x1="321.514" y1="381.02" x2="321.514" y2="358.003"/>
	
		<line fill="none" stroke="#333333" stroke-linecap="round" stroke-linejoin="round" x1="334.414" y1="381.02" x2="334.414" y2="358.003"/>
	
		<line fill="none" stroke="#333333" stroke-linecap="round" stroke-linejoin="round" x1="260.865" y1="381.02" x2="260.865" y2="358.003"/>
	
		<line fill="none" stroke="#333333" stroke-linecap="round" stroke-linejoin="round" x1="273.767" y1="381.02" x2="273.767" y2="358.003"/>
	<polyline fill="none" stroke="#333333" stroke-linecap="round" stroke-linejoin="round" points="247.963,423.329 260.865,434.324 
		273.767,434.324 278.329,431.677 282.926,429.361 287.798,427.707 292.785,426.714 297.641,426.384 302.494,426.714 
		307.482,427.707 312.355,429.361 316.951,431.677 321.514,434.324 334.414,434.324 347.318,423.329 	"/>
	<polyline fill="none" stroke="#333333" stroke-linecap="round" stroke-linejoin="round" points="247.963,418.933 260.865,408.751 
		273.767,408.751 278.329,411.398 282.926,413.714 287.798,415.368 292.785,416.362 297.641,416.692 302.494,416.362 
		307.482,415.368 312.355,413.714 316.951,411.398 321.514,408.751 334.414,408.751 347.318,418.933 	"/>
	<polyline fill="none" stroke="#333333" stroke-linecap="round" stroke-linejoin="round" points="247.963,495.254 260.865,484.869 
		273.767,484.869 278.329,487.516 282.926,489.832 287.798,491.488 292.785,492.48 297.641,492.811 302.494,492.48 307.482,491.488 
		312.355,489.832 316.951,487.516 321.514,484.869 334.414,484.869 347.318,495.254 	"/>
	<polyline fill="none" stroke="#333333" stroke-linecap="round" stroke-linejoin="round" points="347.318,451.063 334.414,461.854 
		321.514,461.854 316.951,459.205 312.355,456.889 307.482,455.236 302.494,454.242 297.641,453.912 292.785,454.242 
		287.798,455.236 282.926,456.889 278.329,459.205 273.767,461.854 260.865,461.854 247.963,451.063 	"/>
	
		<line fill="none" stroke="#333333" stroke-linecap="round" stroke-linejoin="round" x1="321.514" y1="484.869" x2="321.514" y2="461.854"/>
	
		<line fill="none" stroke="#333333" stroke-linecap="round" stroke-linejoin="round" x1="334.414" y1="484.869" x2="334.414" y2="461.854"/>
	
		<line fill="none" stroke="#333333" stroke-linecap="round" stroke-linejoin="round" x1="260.865" y1="484.869" x2="260.865" y2="461.854"/>
	
		<line fill="none" stroke="#333333" stroke-linecap="round" stroke-linejoin="round" x1="273.767" y1="484.869" x2="273.767" y2="461.854"/>
	<polyline fill="none" stroke="#333333" stroke-linecap="round" stroke-linejoin="round" points="247.963,527.18 260.865,538.174 
		273.767,538.174 278.329,535.527 282.926,533.211 287.798,531.557 292.785,530.564 297.641,530.234 302.494,530.564 
		307.482,531.557 312.355,533.211 316.951,535.527 321.514,538.174 334.414,538.174 347.318,527.18 	"/>
	<polyline fill="none" stroke="#333333" stroke-linecap="round" stroke-linejoin="round" points="247.963,522.783 260.865,512.602 
		273.767,512.602 278.329,515.248 282.926,517.564 287.798,519.219 292.785,520.213 297.641,520.543 302.494,520.213 
		307.482,519.219 312.355,517.564 316.951,515.248 321.514,512.602 334.414,512.602 347.318,522.783 	"/>
	<polyline fill="none" stroke="#333333" stroke-linecap="round" stroke-linejoin="round" points="247.963,599.104 260.865,588.719 
		273.767,588.719 278.329,591.365 282.926,593.682 287.798,595.338 292.785,596.33 297.641,596.66 302.494,596.33 307.482,595.338 
		312.355,593.682 316.951,591.365 321.514,588.719 334.414,588.719 347.318,599.104 	"/>
	<polyline fill="none" stroke="#333333" stroke-linecap="round" stroke-linejoin="round" points="347.318,554.912 334.414,565.703 
		321.514,565.703 316.951,563.055 312.355,560.738 307.482,559.086 302.494,558.092 297.641,557.762 292.785,558.092 
		287.798,559.086 282.926,560.738 278.329,563.055 273.767,565.703 260.865,565.703 247.963,554.912 	"/>
	
		<line fill="none" stroke="#333333" stroke-linecap="round" stroke-linejoin="round" x1="321.514" y1="588.719" x2="321.514" y2="565.703"/>
	
		<line fill="none" stroke="#333333" stroke-linecap="round" stroke-linejoin="round" x1="334.414" y1="588.719" x2="334.414" y2="565.703"/>
	
		<line fill="none" stroke="#333333" stroke-linecap="round" stroke-linejoin="round" x1="260.865" y1="588.719" x2="260.865" y2="565.703"/>
	
		<line fill="none" stroke="#333333" stroke-linecap="round" stroke-linejoin="round" x1="273.767" y1="588.719" x2="273.767" y2="565.703"/>
	<polyline fill="none" stroke="#333333" stroke-linecap="round" stroke-linejoin="round" points="247.963,631.029 260.865,642.023 
		273.767,642.023 278.329,639.377 282.926,637.061 287.798,635.406 292.785,634.414 297.641,634.084 302.494,634.414 
		307.482,635.406 312.355,637.061 316.951,639.377 321.514,642.023 334.414,642.023 347.318,631.029 	"/>
	<polyline fill="none" stroke="#333333" stroke-linecap="round" stroke-linejoin="round" points="247.963,626.633 260.865,616.451 
		273.767,616.451 278.329,619.098 282.926,621.414 287.798,623.068 292.785,624.063 297.641,624.393 302.494,624.063 
		307.482,623.068 312.355,621.414 316.951,619.098 321.514,616.451 334.414,616.451 347.318,626.633 	"/>
	<polyline fill="none" stroke="#333333" stroke-linecap="round" stroke-linejoin="round" points="247.963,702.953 260.865,692.568 
		273.767,692.568 278.329,695.215 282.926,697.531 287.798,699.188 292.785,700.18 297.641,700.51 302.494,700.18 307.482,699.188 
		312.355,697.531 316.951,695.215 321.514,692.568 334.414,692.568 347.318,702.953 	"/>
	<polyline fill="none" stroke="#333333" stroke-linecap="round" stroke-linejoin="round" points="347.318,658.762 334.414,669.553 
		321.514,669.553 316.951,666.904 312.355,664.588 307.482,662.936 302.494,661.941 297.641,661.611 292.785,661.941 
		287.798,662.936 282.926,664.588 278.329,666.904 273.767,669.553 260.865,669.553 247.963,658.762 	"/>
	
		<line fill="none" stroke="#333333" stroke-linecap="round" stroke-linejoin="round" x1="321.514" y1="692.568" x2="321.514" y2="669.553"/>
	
		<line fill="none" stroke="#333333" stroke-linecap="round" stroke-linejoin="round" x1="334.414" y1="692.568" x2="334.414" y2="669.553"/>
	
		<line fill="none" stroke="#333333" stroke-linecap="round" stroke-linejoin="round" x1="260.865" y1="692.568" x2="260.865" y2="669.553"/>
	
		<line fill="none" stroke="#333333" stroke-linecap="round" stroke-linejoin="round" x1="273.767" y1="692.568" x2="273.767" y2="669.553"/>
	<polyline fill="none" stroke="#333333" stroke-linecap="round" stroke-linejoin="round" points="247.963,734.879 260.865,745.873 
		273.767,745.873 278.329,743.227 282.926,740.91 287.798,739.256 292.785,738.264 297.641,737.934 302.494,738.264 
		307.482,739.256 312.355,740.91 316.951,743.227 321.514,745.873 334.414,745.873 347.318,734.879 	"/>
	<polyline fill="none" stroke="#333333" stroke-linecap="round" stroke-linejoin="round" points="247.963,730.482 260.865,720.301 
		273.767,720.301 278.329,722.947 282.926,725.264 287.798,726.918 292.785,727.912 297.641,728.242 302.494,727.912 
		307.482,726.918 312.355,725.264 316.951,722.947 321.514,720.301 334.414,720.301 347.318,730.482 	"/>
	<polyline fill="none" stroke="#333333" stroke-linecap="round" stroke-linejoin="round" points="247.963,806.803 260.865,796.418 
		273.767,796.418 278.329,799.064 282.926,801.381 287.798,803.037 292.785,804.029 297.641,804.359 302.494,804.029 
		307.482,803.037 312.355,801.381 316.951,799.064 321.514,796.418 334.414,796.418 347.318,806.803 	"/>
	<polyline fill="none" stroke="#333333" stroke-linecap="round" stroke-linejoin="round" points="347.318,762.611 334.414,773.402 
		321.514,773.402 316.951,770.754 312.355,768.438 307.482,766.785 302.494,765.791 297.641,765.461 292.785,765.791 
		287.798,766.785 282.926,768.438 278.329,770.754 273.767,773.402 260.865,773.402 247.963,762.611 	"/>
	
		<line fill="none" stroke="#333333" stroke-linecap="round" stroke-linejoin="round" x1="321.514" y1="796.418" x2="321.514" y2="773.402"/>
	
		<line fill="none" stroke="#333333" stroke-linecap="round" stroke-linejoin="round" x1="334.414" y1="796.418" x2="334.414" y2="773.402"/>
	
		<line fill="none" stroke="#333333" stroke-linecap="round" stroke-linejoin="round" x1="260.865" y1="796.418" x2="260.865" y2="773.402"/>
	
		<line fill="none" stroke="#333333" stroke-linecap="round" stroke-linejoin="round" x1="273.767" y1="796.418" x2="273.767" y2="773.402"/>
	
		<line fill="none" stroke="#333333" stroke-linecap="round" stroke-linejoin="round" x1="321.514" y1="450.959" x2="321.514" y2="434.121"/>
	
		<line fill="none" stroke="#333333" stroke-linecap="round" stroke-linejoin="round" x1="260.865" y1="450.959" x2="260.865" y2="434.121"/>
	
		<line fill="none" stroke="#333333" stroke-linecap="round" stroke-linejoin="round" x1="334.414" y1="450.959" x2="334.414" y2="434.122"/>
	
		<line fill="none" stroke="#333333" stroke-linecap="round" stroke-linejoin="round" x1="273.767" y1="450.959" x2="273.767" y2="434.122"/>
	
		<line fill="none" stroke="#333333" stroke-linecap="round" stroke-linejoin="round" x1="321.514" y1="408.548" x2="321.514" y2="391.71"/>
	
		<line fill="none" stroke="#333333" stroke-linecap="round" stroke-linejoin="round" x1="260.865" y1="408.548" x2="260.865" y2="391.71"/>
	
		<line fill="none" stroke="#333333" stroke-linecap="round" stroke-linejoin="round" x1="334.414" y1="408.548" x2="334.414" y2="391.711"/>
	
		<line fill="none" stroke="#333333" stroke-linecap="round" stroke-linejoin="round" x1="273.767" y1="408.548" x2="273.767" y2="391.711"/>
	
		<line fill="none" stroke="#333333" stroke-linecap="round" stroke-linejoin="round" x1="321.514" y1="554.809" x2="321.514" y2="537.971"/>
	
		<line fill="none" stroke="#333333" stroke-linecap="round" stroke-linejoin="round" x1="260.865" y1="554.809" x2="260.865" y2="537.971"/>
	
		<line fill="none" stroke="#333333" stroke-linecap="round" stroke-linejoin="round" x1="334.414" y1="554.809" x2="334.414" y2="537.973"/>
	
		<line fill="none" stroke="#333333" stroke-linecap="round" stroke-linejoin="round" x1="273.767" y1="554.809" x2="273.767" y2="537.973"/>
	
		<line fill="none" stroke="#333333" stroke-linecap="round" stroke-linejoin="round" x1="321.514" y1="512.398" x2="321.514" y2="495.561"/>
	
		<line fill="none" stroke="#333333" stroke-linecap="round" stroke-linejoin="round" x1="260.865" y1="512.398" x2="260.865" y2="495.561"/>
	
		<line fill="none" stroke="#333333" stroke-linecap="round" stroke-linejoin="round" x1="334.414" y1="512.398" x2="334.414" y2="495.561"/>
	
		<line fill="none" stroke="#333333" stroke-linecap="round" stroke-linejoin="round" x1="273.767" y1="512.398" x2="273.767" y2="495.561"/>
	
		<line fill="none" stroke="#333333" stroke-linecap="round" stroke-linejoin="round" x1="321.514" y1="658.658" x2="321.514" y2="641.82"/>
	
		<line fill="none" stroke="#333333" stroke-linecap="round" stroke-linejoin="round" x1="260.865" y1="658.658" x2="260.865" y2="641.82"/>
	
		<line fill="none" stroke="#333333" stroke-linecap="round" stroke-linejoin="round" x1="334.414" y1="658.658" x2="334.414" y2="641.822"/>
	
		<line fill="none" stroke="#333333" stroke-linecap="round" stroke-linejoin="round" x1="273.767" y1="658.658" x2="273.767" y2="641.822"/>
	
		<line fill="none" stroke="#333333" stroke-linecap="round" stroke-linejoin="round" x1="321.514" y1="616.248" x2="321.514" y2="599.41"/>
	
		<line fill="none" stroke="#333333" stroke-linecap="round" stroke-linejoin="round" x1="260.865" y1="616.248" x2="260.865" y2="599.41"/>
	
		<line fill="none" stroke="#333333" stroke-linecap="round" stroke-linejoin="round" x1="334.414" y1="616.248" x2="334.414" y2="599.41"/>
	
		<line fill="none" stroke="#333333" stroke-linecap="round" stroke-linejoin="round" x1="273.767" y1="616.248" x2="273.767" y2="599.41"/>
	
		<line fill="none" stroke="#333333" stroke-linecap="round" stroke-linejoin="round" x1="321.514" y1="762.508" x2="321.514" y2="745.67"/>
	
		<line fill="none" stroke="#333333" stroke-linecap="round" stroke-linejoin="round" x1="260.865" y1="762.508" x2="260.865" y2="745.67"/>
	
		<line fill="none" stroke="#333333" stroke-linecap="round" stroke-linejoin="round" x1="334.414" y1="762.508" x2="334.414" y2="745.672"/>
	
		<line fill="none" stroke="#333333" stroke-linecap="round" stroke-linejoin="round" x1="273.767" y1="762.508" x2="273.767" y2="745.672"/>
	
		<line fill="none" stroke="#333333" stroke-linecap="round" stroke-linejoin="round" x1="321.514" y1="720.098" x2="321.514" y2="703.26"/>
	
		<line fill="none" stroke="#333333" stroke-linecap="round" stroke-linejoin="round" x1="260.865" y1="720.098" x2="260.865" y2="703.26"/>
	
		<line fill="none" stroke="#333333" stroke-linecap="round" stroke-linejoin="round" x1="334.414" y1="720.098" x2="334.414" y2="703.26"/>
	
		<line fill="none" stroke="#333333" stroke-linecap="round" stroke-linejoin="round" x1="273.767" y1="720.098" x2="273.767" y2="703.26"/>
</g>
<g id="ValleyLine">
	
		<line fill="none" stroke="#333333" stroke-linecap="round" stroke-linejoin="round" stroke-dasharray="4" x1="321.514" y1="184.011" x2="321.514" y2="173.32"/>
	
		<line fill="none" stroke="#333333" stroke-linecap="round" stroke-linejoin="round" stroke-dasharray="4" x1="347.318" y1="139.613" x2="247.963" y2="139.613"/>
	
		<line fill="none" stroke="#333333" stroke-linecap="round" stroke-linejoin="round" stroke-dasharray="4" x1="334.414" y1="184.011" x2="334.414" y2="173.32"/>
	
		<line fill="none" stroke="#333333" stroke-linecap="round" stroke-linejoin="round" stroke-dasharray="4" x1="321.514" y1="150.304" x2="321.514" y2="139.613"/>
	
		<line fill="none" stroke="#333333" stroke-linecap="round" stroke-linejoin="round" stroke-dasharray="4" x1="334.414" y1="150.304" x2="334.414" y2="139.613"/>
	
		<line fill="none" stroke="#333333" stroke-linecap="round" stroke-linejoin="round" stroke-dasharray="4" x1="260.865" y1="184.011" x2="260.865" y2="173.32"/>
	
		<line fill="none" stroke="#333333" stroke-linecap="round" stroke-linejoin="round" stroke-dasharray="4" x1="273.767" y1="184.011" x2="273.767" y2="173.32"/>
	
		<line fill="none" stroke="#333333" stroke-linecap="round" stroke-linejoin="round" stroke-dasharray="4" x1="260.865" y1="150.304" x2="260.865" y2="139.613"/>
	
		<line fill="none" stroke="#333333" stroke-linecap="round" stroke-linejoin="round" stroke-dasharray="4" x1="273.767" y1="150.304" x2="273.767" y2="139.613"/>
	
		<line fill="none" stroke="#333333" stroke-linecap="round" stroke-linejoin="round" stroke-dasharray="4" x1="260.865" y1="97.202" x2="247.963" y2="94.122"/>
	
		<line fill="none" stroke="#333333" stroke-linecap="round" stroke-linejoin="round" stroke-dasharray="4" x1="247.965" y1="125.859" x2="260.865" y2="122.775"/>
	
		<line fill="none" stroke="#333333" stroke-linecap="round" stroke-linejoin="round" stroke-dasharray="4" x1="334.416" y1="97.204" x2="347.316" y2="94.122"/>
	
		<line fill="none" stroke="#333333" stroke-linecap="round" stroke-linejoin="round" stroke-dasharray="4" x1="347.316" y1="125.858" x2="334.416" y2="122.774"/>
	
		<line fill="none" stroke="#333333" stroke-linecap="round" stroke-linejoin="round" stroke-dasharray="4" x1="347.318" y1="184.011" x2="247.963" y2="184.011"/>
	
		<line fill="none" stroke="#333333" stroke-linecap="round" stroke-linejoin="round" stroke-dasharray="4" x1="321.514" y1="287.86" x2="321.514" y2="277.17"/>
	
		<line fill="none" stroke="#333333" stroke-linecap="round" stroke-linejoin="round" stroke-dasharray="4" x1="347.318" y1="243.463" x2="247.963" y2="243.463"/>
	
		<line fill="none" stroke="#333333" stroke-linecap="round" stroke-linejoin="round" stroke-dasharray="4" x1="334.414" y1="287.86" x2="334.414" y2="277.17"/>
	
		<line fill="none" stroke="#333333" stroke-linecap="round" stroke-linejoin="round" stroke-dasharray="4" x1="321.514" y1="254.153" x2="321.514" y2="243.463"/>
	
		<line fill="none" stroke="#333333" stroke-linecap="round" stroke-linejoin="round" stroke-dasharray="4" x1="334.414" y1="254.153" x2="334.414" y2="243.463"/>
	
		<line fill="none" stroke="#333333" stroke-linecap="round" stroke-linejoin="round" stroke-dasharray="4" x1="260.865" y1="287.86" x2="260.865" y2="277.17"/>
	
		<line fill="none" stroke="#333333" stroke-linecap="round" stroke-linejoin="round" stroke-dasharray="4" x1="273.767" y1="287.86" x2="273.767" y2="277.17"/>
	
		<line fill="none" stroke="#333333" stroke-linecap="round" stroke-linejoin="round" stroke-dasharray="4" x1="260.865" y1="254.153" x2="260.865" y2="243.463"/>
	
		<line fill="none" stroke="#333333" stroke-linecap="round" stroke-linejoin="round" stroke-dasharray="4" x1="273.767" y1="254.153" x2="273.767" y2="243.463"/>
	
		<line fill="none" stroke="#333333" stroke-linecap="round" stroke-linejoin="round" stroke-dasharray="4" x1="260.865" y1="226.625" x2="247.965" y2="229.709"/>
	
		<line fill="none" stroke="#333333" stroke-linecap="round" stroke-linejoin="round" stroke-dasharray="4" x1="260.865" y1="201.052" x2="247.963" y2="197.971"/>
	
		<line fill="none" stroke="#333333" stroke-linecap="round" stroke-linejoin="round" stroke-dasharray="4" x1="347.316" y1="229.708" x2="334.416" y2="226.624"/>
	
		<line fill="none" stroke="#333333" stroke-linecap="round" stroke-linejoin="round" stroke-dasharray="4" x1="347.316" y1="197.971" x2="334.416" y2="201.053"/>
	
		<line fill="none" stroke="#333333" stroke-linecap="round" stroke-linejoin="round" stroke-dasharray="4" x1="347.318" y1="287.86" x2="247.963" y2="287.86"/>
	
		<line fill="none" stroke="#333333" stroke-linecap="round" stroke-linejoin="round" stroke-dasharray="4" x1="321.514" y1="391.71" x2="321.514" y2="381.02"/>
	
		<line fill="none" stroke="#333333" stroke-linecap="round" stroke-linejoin="round" stroke-dasharray="4" x1="347.318" y1="347.313" x2="247.963" y2="347.313"/>
	
		<line fill="none" stroke="#333333" stroke-linecap="round" stroke-linejoin="round" stroke-dasharray="4" x1="334.414" y1="391.71" x2="334.414" y2="381.02"/>
	
		<line fill="none" stroke="#333333" stroke-linecap="round" stroke-linejoin="round" stroke-dasharray="4" x1="321.514" y1="358.003" x2="321.514" y2="347.313"/>
	
		<line fill="none" stroke="#333333" stroke-linecap="round" stroke-linejoin="round" stroke-dasharray="4" x1="334.414" y1="358.003" x2="334.414" y2="347.313"/>
	
		<line fill="none" stroke="#333333" stroke-linecap="round" stroke-linejoin="round" stroke-dasharray="4" x1="260.865" y1="391.71" x2="260.865" y2="381.02"/>
	
		<line fill="none" stroke="#333333" stroke-linecap="round" stroke-linejoin="round" stroke-dasharray="4" x1="273.767" y1="391.71" x2="273.767" y2="381.02"/>
	
		<line fill="none" stroke="#333333" stroke-linecap="round" stroke-linejoin="round" stroke-dasharray="4" x1="260.865" y1="358.003" x2="260.865" y2="347.313"/>
	
		<line fill="none" stroke="#333333" stroke-linecap="round" stroke-linejoin="round" stroke-dasharray="4" x1="273.767" y1="358.003" x2="273.767" y2="347.313"/>
	
		<line fill="none" stroke="#333333" stroke-linecap="round" stroke-linejoin="round" stroke-dasharray="4" x1="260.865" y1="330.475" x2="247.965" y2="333.559"/>
	
		<line fill="none" stroke="#333333" stroke-linecap="round" stroke-linejoin="round" stroke-dasharray="4" x1="260.865" y1="304.901" x2="247.963" y2="301.82"/>
	
		<line fill="none" stroke="#333333" stroke-linecap="round" stroke-linejoin="round" stroke-dasharray="4" x1="347.316" y1="333.558" x2="334.416" y2="330.474"/>
	
		<line fill="none" stroke="#333333" stroke-linecap="round" stroke-linejoin="round" stroke-dasharray="4" x1="347.316" y1="301.82" x2="334.416" y2="304.902"/>
	
		<line fill="none" stroke="#333333" stroke-linecap="round" stroke-linejoin="round" stroke-dasharray="4" x1="347.318" y1="391.71" x2="247.963" y2="391.71"/>
	
		<line fill="none" stroke="#333333" stroke-linecap="round" stroke-linejoin="round" stroke-dasharray="4" x1="321.514" y1="495.561" x2="321.514" y2="484.869"/>
	
		<line fill="none" stroke="#333333" stroke-linecap="round" stroke-linejoin="round" stroke-dasharray="4" x1="347.318" y1="451.162" x2="247.963" y2="451.162"/>
	
		<line fill="none" stroke="#333333" stroke-linecap="round" stroke-linejoin="round" stroke-dasharray="4" x1="334.414" y1="495.561" x2="334.414" y2="484.869"/>
	
		<line fill="none" stroke="#333333" stroke-linecap="round" stroke-linejoin="round" stroke-dasharray="4" x1="321.514" y1="461.854" x2="321.514" y2="451.162"/>
	
		<line fill="none" stroke="#333333" stroke-linecap="round" stroke-linejoin="round" stroke-dasharray="4" x1="334.414" y1="461.854" x2="334.414" y2="451.162"/>
	
		<line fill="none" stroke="#333333" stroke-linecap="round" stroke-linejoin="round" stroke-dasharray="4" x1="260.865" y1="495.561" x2="260.865" y2="484.869"/>
	
		<line fill="none" stroke="#333333" stroke-linecap="round" stroke-linejoin="round" stroke-dasharray="4" x1="273.767" y1="495.561" x2="273.767" y2="484.869"/>
	
		<line fill="none" stroke="#333333" stroke-linecap="round" stroke-linejoin="round" stroke-dasharray="4" x1="260.865" y1="461.854" x2="260.865" y2="451.162"/>
	
		<line fill="none" stroke="#333333" stroke-linecap="round" stroke-linejoin="round" stroke-dasharray="4" x1="273.767" y1="461.854" x2="273.767" y2="451.162"/>
	
		<line fill="none" stroke="#333333" stroke-linecap="round" stroke-linejoin="round" stroke-dasharray="4" x1="260.865" y1="434.324" x2="247.965" y2="437.408"/>
	
		<line fill="none" stroke="#333333" stroke-linecap="round" stroke-linejoin="round" stroke-dasharray="4" x1="260.865" y1="408.751" x2="247.963" y2="405.67"/>
	
		<line fill="none" stroke="#333333" stroke-linecap="round" stroke-linejoin="round" stroke-dasharray="4" x1="347.316" y1="437.407" x2="334.416" y2="434.323"/>
	
		<line fill="none" stroke="#333333" stroke-linecap="round" stroke-linejoin="round" stroke-dasharray="4" x1="347.316" y1="405.67" x2="334.416" y2="408.752"/>
	
		<line fill="none" stroke="#333333" stroke-linecap="round" stroke-linejoin="round" stroke-dasharray="4" x1="347.318" y1="495.561" x2="247.963" y2="495.561"/>
	
		<line fill="none" stroke="#333333" stroke-linecap="round" stroke-linejoin="round" stroke-dasharray="4" x1="321.514" y1="599.41" x2="321.514" y2="588.719"/>
	
		<line fill="none" stroke="#333333" stroke-linecap="round" stroke-linejoin="round" stroke-dasharray="4" x1="347.318" y1="555.012" x2="247.963" y2="555.012"/>
	
		<line fill="none" stroke="#333333" stroke-linecap="round" stroke-linejoin="round" stroke-dasharray="4" x1="334.414" y1="599.41" x2="334.414" y2="588.719"/>
	
		<line fill="none" stroke="#333333" stroke-linecap="round" stroke-linejoin="round" stroke-dasharray="4" x1="321.514" y1="565.703" x2="321.514" y2="555.012"/>
	
		<line fill="none" stroke="#333333" stroke-linecap="round" stroke-linejoin="round" stroke-dasharray="4" x1="334.414" y1="565.703" x2="334.414" y2="555.012"/>
	
		<line fill="none" stroke="#333333" stroke-linecap="round" stroke-linejoin="round" stroke-dasharray="4" x1="260.865" y1="599.41" x2="260.865" y2="588.719"/>
	
		<line fill="none" stroke="#333333" stroke-linecap="round" stroke-linejoin="round" stroke-dasharray="4" x1="273.767" y1="599.41" x2="273.767" y2="588.719"/>
	
		<line fill="none" stroke="#333333" stroke-linecap="round" stroke-linejoin="round" stroke-dasharray="4" x1="260.865" y1="565.703" x2="260.865" y2="555.012"/>
	
		<line fill="none" stroke="#333333" stroke-linecap="round" stroke-linejoin="round" stroke-dasharray="4" x1="273.767" y1="565.703" x2="273.767" y2="555.012"/>
	
		<line fill="none" stroke="#333333" stroke-linecap="round" stroke-linejoin="round" stroke-dasharray="4" x1="260.865" y1="538.174" x2="247.965" y2="541.258"/>
	
		<line fill="none" stroke="#333333" stroke-linecap="round" stroke-linejoin="round" stroke-dasharray="4" x1="260.865" y1="512.602" x2="247.963" y2="509.52"/>
	
		<line fill="none" stroke="#333333" stroke-linecap="round" stroke-linejoin="round" stroke-dasharray="4" x1="347.316" y1="541.258" x2="334.416" y2="538.174"/>
	
		<line fill="none" stroke="#333333" stroke-linecap="round" stroke-linejoin="round" stroke-dasharray="4" x1="347.316" y1="509.52" x2="334.416" y2="512.602"/>
	
		<line fill="none" stroke="#333333" stroke-linecap="round" stroke-linejoin="round" stroke-dasharray="4" x1="347.318" y1="599.41" x2="247.963" y2="599.41"/>
	
		<line fill="none" stroke="#333333" stroke-linecap="round" stroke-linejoin="round" stroke-dasharray="4" x1="321.514" y1="703.26" x2="321.514" y2="692.568"/>
	
		<line fill="none" stroke="#333333" stroke-linecap="round" stroke-linejoin="round" stroke-dasharray="4" x1="347.318" y1="658.861" x2="247.963" y2="658.861"/>
	
		<line fill="none" stroke="#333333" stroke-linecap="round" stroke-linejoin="round" stroke-dasharray="4" x1="334.414" y1="703.26" x2="334.414" y2="692.568"/>
	
		<line fill="none" stroke="#333333" stroke-linecap="round" stroke-linejoin="round" stroke-dasharray="4" x1="321.514" y1="669.553" x2="321.514" y2="658.861"/>
	
		<line fill="none" stroke="#333333" stroke-linecap="round" stroke-linejoin="round" stroke-dasharray="4" x1="334.414" y1="669.553" x2="334.414" y2="658.861"/>
	
		<line fill="none" stroke="#333333" stroke-linecap="round" stroke-linejoin="round" stroke-dasharray="4" x1="260.865" y1="703.26" x2="260.865" y2="692.568"/>
	
		<line fill="none" stroke="#333333" stroke-linecap="round" stroke-linejoin="round" stroke-dasharray="4" x1="273.767" y1="703.26" x2="273.767" y2="692.568"/>
	
		<line fill="none" stroke="#333333" stroke-linecap="round" stroke-linejoin="round" stroke-dasharray="4" x1="260.865" y1="669.553" x2="260.865" y2="658.861"/>
	
		<line fill="none" stroke="#333333" stroke-linecap="round" stroke-linejoin="round" stroke-dasharray="4" x1="273.767" y1="669.553" x2="273.767" y2="658.861"/>
	
		<line fill="none" stroke="#333333" stroke-linecap="round" stroke-linejoin="round" stroke-dasharray="4" x1="260.865" y1="642.023" x2="247.965" y2="645.107"/>
	
		<line fill="none" stroke="#333333" stroke-linecap="round" stroke-linejoin="round" stroke-dasharray="4" x1="260.865" y1="616.451" x2="247.963" y2="613.369"/>
	
		<line fill="none" stroke="#333333" stroke-linecap="round" stroke-linejoin="round" stroke-dasharray="4" x1="347.316" y1="645.107" x2="334.416" y2="642.023"/>
	
		<line fill="none" stroke="#333333" stroke-linecap="round" stroke-linejoin="round" stroke-dasharray="4" x1="347.316" y1="613.369" x2="334.416" y2="616.451"/>
	
		<line fill="none" stroke="#333333" stroke-linecap="round" stroke-linejoin="round" stroke-dasharray="4" x1="347.318" y1="703.26" x2="247.963" y2="703.26"/>
	
		<line fill="none" stroke="#333333" stroke-linecap="round" stroke-linejoin="round" stroke-dasharray="4" x1="321.514" y1="807.109" x2="321.514" y2="796.418"/>
	
		<line fill="none" stroke="#333333" stroke-linecap="round" stroke-linejoin="round" stroke-dasharray="4" x1="347.318" y1="762.711" x2="247.963" y2="762.711"/>
	
		<line fill="none" stroke="#333333" stroke-linecap="round" stroke-linejoin="round" stroke-dasharray="4" x1="334.414" y1="807.109" x2="334.414" y2="796.418"/>
	
		<line fill="none" stroke="#333333" stroke-linecap="round" stroke-linejoin="round" stroke-dasharray="4" x1="321.514" y1="773.402" x2="321.514" y2="762.711"/>
	
		<line fill="none" stroke="#333333" stroke-linecap="round" stroke-linejoin="round" stroke-dasharray="4" x1="334.414" y1="773.402" x2="334.414" y2="762.711"/>
	
		<line fill="none" stroke="#333333" stroke-linecap="round" stroke-linejoin="round" stroke-dasharray="4" x1="260.865" y1="807.109" x2="260.865" y2="796.418"/>
	
		<line fill="none" stroke="#333333" stroke-linecap="round" stroke-linejoin="round" stroke-dasharray="4" x1="273.767" y1="807.109" x2="273.767" y2="796.418"/>
	
		<line fill="none" stroke="#333333" stroke-linecap="round" stroke-linejoin="round" stroke-dasharray="4" x1="260.865" y1="773.402" x2="260.865" y2="762.711"/>
	
		<line fill="none" stroke="#333333" stroke-linecap="round" stroke-linejoin="round" stroke-dasharray="4" x1="273.767" y1="773.402" x2="273.767" y2="762.711"/>
	
		<line fill="none" stroke="#333333" stroke-linecap="round" stroke-linejoin="round" stroke-dasharray="4" x1="260.865" y1="745.873" x2="247.965" y2="748.957"/>
	
		<line fill="none" stroke="#333333" stroke-linecap="round" stroke-linejoin="round" stroke-dasharray="4" x1="260.865" y1="720.301" x2="247.963" y2="717.219"/>
	
		<line fill="none" stroke="#333333" stroke-linecap="round" stroke-linejoin="round" stroke-dasharray="4" x1="347.316" y1="748.957" x2="334.416" y2="745.873"/>
	
		<line fill="none" stroke="#333333" stroke-linecap="round" stroke-linejoin="round" stroke-dasharray="4" x1="347.316" y1="717.219" x2="334.416" y2="720.301"/>
	
		<line fill="none" stroke="#333333" stroke-linecap="round" stroke-linejoin="round" stroke-dasharray="4" x1="273.767" y1="226.423" x2="273.767" y2="200.849"/>
	
		<line fill="none" stroke="#333333" stroke-linecap="round" stroke-linejoin="round" stroke-dasharray="4" x1="321.514" y1="122.775" x2="321.514" y2="97.202"/>
	
		<line fill="none" stroke="#333333" stroke-linecap="round" stroke-linejoin="round" stroke-dasharray="4" x1="260.865" y1="122.775" x2="260.865" y2="97.202"/>
	
		<line fill="none" stroke="#333333" stroke-linecap="round" stroke-linejoin="round" stroke-dasharray="4" x1="334.416" y1="122.774" x2="334.416" y2="97.204"/>
	
		<line fill="none" stroke="#333333" stroke-linecap="round" stroke-linejoin="round" stroke-dasharray="4" x1="321.514" y1="226.422" x2="321.514" y2="200.849"/>
	
		<line fill="none" stroke="#333333" stroke-linecap="round" stroke-linejoin="round" stroke-dasharray="4" x1="260.865" y1="226.422" x2="260.865" y2="200.849"/>
	
		<line fill="none" stroke="#333333" stroke-linecap="round" stroke-linejoin="round" stroke-dasharray="4" x1="334.416" y1="226.421" x2="334.416" y2="200.85"/>
	
		<line fill="none" stroke="#333333" stroke-linecap="round" stroke-linejoin="round" stroke-dasharray="4" x1="273.767" y1="330.272" x2="273.767" y2="304.698"/>
	
		<line fill="none" stroke="#333333" stroke-linecap="round" stroke-linejoin="round" stroke-dasharray="4" x1="321.514" y1="330.271" x2="321.514" y2="304.698"/>
	
		<line fill="none" stroke="#333333" stroke-linecap="round" stroke-linejoin="round" stroke-dasharray="4" x1="260.865" y1="330.271" x2="260.865" y2="304.698"/>
	
		<line fill="none" stroke="#333333" stroke-linecap="round" stroke-linejoin="round" stroke-dasharray="4" x1="334.416" y1="330.271" x2="334.416" y2="304.699"/>
	
		<line fill="none" stroke="#333333" stroke-linecap="round" stroke-linejoin="round" stroke-dasharray="4" x1="273.767" y1="434.122" x2="273.767" y2="408.548"/>
	
		<line fill="none" stroke="#333333" stroke-linecap="round" stroke-linejoin="round" stroke-dasharray="4" x1="321.514" y1="434.121" x2="321.514" y2="408.548"/>
	
		<line fill="none" stroke="#333333" stroke-linecap="round" stroke-linejoin="round" stroke-dasharray="4" x1="260.865" y1="434.121" x2="260.865" y2="408.548"/>
	
		<line fill="none" stroke="#333333" stroke-linecap="round" stroke-linejoin="round" stroke-dasharray="4" x1="334.416" y1="434.12" x2="334.416" y2="408.549"/>
	
		<line fill="none" stroke="#333333" stroke-linecap="round" stroke-linejoin="round" stroke-dasharray="4" x1="273.767" y1="537.973" x2="273.767" y2="512.398"/>
	
		<line fill="none" stroke="#333333" stroke-linecap="round" stroke-linejoin="round" stroke-dasharray="4" x1="321.514" y1="537.971" x2="321.514" y2="512.398"/>
	
		<line fill="none" stroke="#333333" stroke-linecap="round" stroke-linejoin="round" stroke-dasharray="4" x1="260.865" y1="537.971" x2="260.865" y2="512.398"/>
	
		<line fill="none" stroke="#333333" stroke-linecap="round" stroke-linejoin="round" stroke-dasharray="4" x1="334.416" y1="537.971" x2="334.416" y2="512.398"/>
	
		<line fill="none" stroke="#333333" stroke-linecap="round" stroke-linejoin="round" stroke-dasharray="4" x1="273.767" y1="641.822" x2="273.767" y2="616.248"/>
	
		<line fill="none" stroke="#333333" stroke-linecap="round" stroke-linejoin="round" stroke-dasharray="4" x1="321.514" y1="641.82" x2="321.514" y2="616.248"/>
	
		<line fill="none" stroke="#333333" stroke-linecap="round" stroke-linejoin="round" stroke-dasharray="4" x1="260.865" y1="641.82" x2="260.865" y2="616.248"/>
	
		<line fill="none" stroke="#333333" stroke-linecap="round" stroke-linejoin="round" stroke-dasharray="4" x1="334.416" y1="641.82" x2="334.416" y2="616.248"/>
	
		<line fill="none" stroke="#333333" stroke-linecap="round" stroke-linejoin="round" stroke-dasharray="4" x1="273.767" y1="745.672" x2="273.767" y2="720.098"/>
	
		<line fill="none" stroke="#333333" stroke-linecap="round" stroke-linejoin="round" stroke-dasharray="4" x1="321.514" y1="745.67" x2="321.514" y2="720.098"/>
	
		<line fill="none" stroke="#333333" stroke-linecap="round" stroke-linejoin="round" stroke-dasharray="4" x1="260.865" y1="745.67" x2="260.865" y2="720.098"/>
	
		<line fill="none" stroke="#333333" stroke-linecap="round" stroke-linejoin="round" stroke-dasharray="4" x1="334.416" y1="745.67" x2="334.416" y2="720.098"/>
</g>
</svg>
