<?xml version="1.0" encoding="utf-8"?>
<!-- Generator: Adobe Illustrator 16.0.3, SVG Export Plug-In . SVG Version: 6.00 Build 0)  -->
<!DOCTYPE svg PUBLIC "-//W3C//DTD SVG 1.1//EN" "http://www.w3.org/Graphics/SVG/1.1/DTD/svg11.dtd">
<svg version="1.1" xmlns="http://www.w3.org/2000/svg" xmlns:xlink="http://www.w3.org/1999/xlink" x="0px" y="0px"
	 width="595.28px" height="841.89px" viewBox="0 0 595.28 841.89" enable-background="new 0 0 595.28 841.89" xml:space="preserve">
<g id="CutLine">
	
		<polyline fill="none" stroke="#000000" stroke-width="2" stroke-linecap="round" stroke-linejoin="round" stroke-miterlimit="10" points="
		422.549,445.723 422.549,90.981 155.583,90.981 155.583,445.723 	"/>
	
		<polyline fill="none" stroke="#000000" stroke-width="2" stroke-linecap="round" stroke-linejoin="round" stroke-miterlimit="10" points="
		422.549,445.723 422.549,800.463 155.583,800.463 155.583,445.723 	"/>
</g>
<g id="ValleyLine">
	<g id="LINE_350_">
		
			<line fill="none" stroke="#000000" stroke-linecap="round" stroke-linejoin="round" stroke-miterlimit="10" stroke-dasharray="4" x1="155.583" y1="90.981" x2="155.583" y2="445.723"/>
	</g>
	<g id="LINE_349_">
		
			<line fill="none" stroke="#000000" stroke-linecap="round" stroke-linejoin="round" stroke-miterlimit="10" stroke-dasharray="4" x1="183.245" y1="90.981" x2="183.245" y2="132.474"/>
	</g>
	<g id="LINE_348_">
		
			<line fill="none" stroke="#000000" stroke-linecap="round" stroke-linejoin="round" stroke-miterlimit="10" stroke-dasharray="4" x1="183.245" y1="141.695" x2="183.245" y2="183.188"/>
	</g>
	<g id="LINE_347_">
		
			<line fill="none" stroke="#000000" stroke-linecap="round" stroke-linejoin="round" stroke-miterlimit="10" stroke-dasharray="4" x1="183.245" y1="197.02" x2="183.245" y2="261.566"/>
	</g>
	<g id="LINE_346_">
		
			<line fill="none" stroke="#000000" stroke-linecap="round" stroke-linejoin="round" stroke-miterlimit="10" stroke-dasharray="4" x1="183.245" y1="338.18" x2="183.245" y2="284.617"/>
	</g>
	<g id="LINE_345_">
		
			<line fill="none" stroke="#000000" stroke-linecap="round" stroke-linejoin="round" stroke-miterlimit="10" stroke-dasharray="4" x1="183.245" y1="413.45" x2="183.245" y2="369.107"/>
	</g>
	<g id="LINE_344_">
		
			<line fill="none" stroke="#000000" stroke-linecap="round" stroke-linejoin="round" stroke-miterlimit="10" stroke-dasharray="4" x1="250.832" y1="104.813" x2="250.832" y2="169.357"/>
	</g>
	<g id="LINE_343_">
		
			<line fill="none" stroke="#000000" stroke-linecap="round" stroke-linejoin="round" stroke-miterlimit="10" stroke-dasharray="4" x1="327.297" y1="104.813" x2="327.297" y2="169.357"/>
	</g>
	<g id="LINE_342_">
		
			<line fill="none" stroke="#000000" stroke-linecap="round" stroke-linejoin="round" stroke-miterlimit="10" stroke-dasharray="4" x1="155.583" y1="183.189" x2="422.549" y2="183.189"/>
	</g>
	<g id="LINE_341_">
		
			<line fill="none" stroke="#000000" stroke-linecap="round" stroke-linejoin="round" stroke-miterlimit="10" stroke-dasharray="4" x1="155.582" y1="284.617" x2="422.549" y2="284.617"/>
	</g>
	<g id="LINE_340_">
		
			<line fill="none" stroke="#000000" stroke-linecap="round" stroke-linejoin="round" stroke-miterlimit="10" stroke-dasharray="4" x1="155.582" y1="413.45" x2="422.549" y2="413.45"/>
	</g>
	<g id="LINE_339_">
		
			<line fill="none" stroke="#000000" stroke-linecap="round" stroke-linejoin="round" stroke-miterlimit="10" stroke-dasharray="4" x1="373.033" y1="90.981" x2="373.033" y2="132.474"/>
	</g>
	<g id="LINE_338_">
		
			<line fill="none" stroke="#000000" stroke-linecap="round" stroke-linejoin="round" stroke-miterlimit="10" stroke-dasharray="4" x1="373.033" y1="141.695" x2="373.033" y2="183.188"/>
	</g>
	<g id="LINE_337_">
		
			<line fill="none" stroke="#000000" stroke-linecap="round" stroke-linejoin="round" stroke-miterlimit="10" stroke-dasharray="4" x1="373.033" y1="197.02" x2="373.033" y2="261.566"/>
	</g>
	<g id="LINE_336_">
		
			<line fill="none" stroke="#000000" stroke-linecap="round" stroke-linejoin="round" stroke-miterlimit="10" stroke-dasharray="4" x1="373.033" y1="338.18" x2="373.033" y2="284.617"/>
	</g>
	<g id="LINE_335_">
		
			<line fill="none" stroke="#000000" stroke-linecap="round" stroke-linejoin="round" stroke-miterlimit="10" stroke-dasharray="4" x1="373.033" y1="413.45" x2="373.033" y2="369.107"/>
	</g>
	<g id="LINE_334_">
		
			<line fill="none" stroke="#000000" stroke-linecap="round" stroke-linejoin="round" stroke-miterlimit="10" stroke-dasharray="4" x1="373.033" y1="197.02" x2="373.033" y2="183.188"/>
	</g>
	<g id="LINE_333_">
		
			<line fill="none" stroke="#000000" stroke-linecap="round" stroke-linejoin="round" stroke-miterlimit="10" stroke-dasharray="4" x1="373.033" y1="284.617" x2="373.033" y2="261.436"/>
	</g>
	<g id="LINE_332_">
		
			<line fill="none" stroke="#000000" stroke-linecap="round" stroke-linejoin="round" stroke-miterlimit="10" stroke-dasharray="4" x1="373.033" y1="477.994" x2="373.033" y2="414.032"/>
	</g>
	<g id="LINE_331_">
		
			<line fill="none" stroke="#000000" stroke-linecap="round" stroke-linejoin="round" stroke-miterlimit="10" stroke-dasharray="4" x1="394.885" y1="90.981" x2="394.885" y2="132.474"/>
	</g>
	<g id="LINE_330_">
		
			<line fill="none" stroke="#000000" stroke-linecap="round" stroke-linejoin="round" stroke-miterlimit="10" stroke-dasharray="4" x1="394.885" y1="141.695" x2="394.885" y2="183.188"/>
	</g>
	<g id="LINE_329_">
		
			<line fill="none" stroke="#000000" stroke-linecap="round" stroke-linejoin="round" stroke-miterlimit="10" stroke-dasharray="4" x1="394.885" y1="197.02" x2="394.885" y2="261.566"/>
	</g>
	<g id="LINE_328_">
		
			<line fill="none" stroke="#000000" stroke-linecap="round" stroke-linejoin="round" stroke-miterlimit="10" stroke-dasharray="4" x1="394.886" y1="338.18" x2="394.886" y2="284.617"/>
	</g>
	<g id="LINE_327_">
		
			<line fill="none" stroke="#000000" stroke-linecap="round" stroke-linejoin="round" stroke-miterlimit="10" stroke-dasharray="4" x1="394.886" y1="413.45" x2="394.886" y2="369.107"/>
	</g>
	<g id="LINE_326_">
		
			<line fill="none" stroke="#000000" stroke-linecap="round" stroke-linejoin="round" stroke-miterlimit="10" stroke-dasharray="4" x1="394.885" y1="197.02" x2="394.885" y2="183.188"/>
	</g>
	<g id="LINE_325_">
		
			<line fill="none" stroke="#000000" stroke-linecap="round" stroke-linejoin="round" stroke-miterlimit="10" stroke-dasharray="4" x1="394.885" y1="284.617" x2="394.885" y2="261.436"/>
	</g>
	<g id="LINE_324_">
		
			<line fill="none" stroke="#000000" stroke-linecap="round" stroke-linejoin="round" stroke-miterlimit="10" stroke-dasharray="4" x1="394.886" y1="477.994" x2="394.886" y2="414.032"/>
	</g>
	<g id="LINE_323_">
		
			<line fill="none" stroke="#000000" stroke-linecap="round" stroke-linejoin="round" stroke-miterlimit="10" stroke-dasharray="4" x1="155.583" y1="800.463" x2="155.583" y2="445.723"/>
	</g>
	<g id="LINE_322_">
		
			<line fill="none" stroke="#000000" stroke-linecap="round" stroke-linejoin="round" stroke-miterlimit="10" stroke-dasharray="4" x1="205.098" y1="90.981" x2="205.098" y2="132.474"/>
	</g>
	<g id="LINE_321_">
		
			<line fill="none" stroke="#000000" stroke-linecap="round" stroke-linejoin="round" stroke-miterlimit="10" stroke-dasharray="4" x1="205.098" y1="141.695" x2="205.098" y2="183.188"/>
	</g>
	<g id="LINE_320_">
		
			<line fill="none" stroke="#000000" stroke-linecap="round" stroke-linejoin="round" stroke-miterlimit="10" stroke-dasharray="4" x1="327.297" y1="183.189" x2="327.297" y2="224.681"/>
	</g>
	<g id="LINE_319_">
		
			<line fill="none" stroke="#000000" stroke-linecap="round" stroke-linejoin="round" stroke-miterlimit="10" stroke-dasharray="4" x1="250.832" y1="183.189" x2="250.832" y2="224.682"/>
	</g>
	<g id="LINE_318_">
		
			<line fill="none" stroke="#000000" stroke-linecap="round" stroke-linejoin="round" stroke-miterlimit="10" stroke-dasharray="4" x1="327.297" y1="233.902" x2="327.297" y2="284.617"/>
	</g>
	<g id="LINE_317_">
		
			<line fill="none" stroke="#000000" stroke-linecap="round" stroke-linejoin="round" stroke-miterlimit="10" stroke-dasharray="4" x1="250.832" y1="233.902" x2="250.832" y2="284.617"/>
	</g>
	<g id="LINE_316_">
		
			<line fill="none" stroke="#000000" stroke-linecap="round" stroke-linejoin="round" stroke-miterlimit="10" stroke-dasharray="4" x1="205.098" y1="197.02" x2="205.098" y2="261.566"/>
	</g>
	<g id="LINE_315_">
		
			<line fill="none" stroke="#000000" stroke-linecap="round" stroke-linejoin="round" stroke-miterlimit="10" stroke-dasharray="4" x1="205.098" y1="338.18" x2="205.098" y2="284.617"/>
	</g>
	<g id="LINE_314_">
		
			<line fill="none" stroke="#000000" stroke-linecap="round" stroke-linejoin="round" stroke-miterlimit="10" stroke-dasharray="4" x1="205.098" y1="413.45" x2="205.098" y2="369.107"/>
	</g>
	<g id="LINE_313_">
		
			<line fill="none" stroke="#000000" stroke-linecap="round" stroke-linejoin="round" stroke-miterlimit="10" stroke-dasharray="4" x1="250.832" y1="293.422" x2="250.832" y2="386.204"/>
	</g>
	<g id="LINE_312_">
		
			<line fill="none" stroke="#000000" stroke-linecap="round" stroke-linejoin="round" stroke-miterlimit="10" stroke-dasharray="4" x1="327.297" y1="293.422" x2="327.297" y2="386.203"/>
	</g>
	<g id="LINE_311_">
		
			<line fill="none" stroke="#000000" stroke-linecap="round" stroke-linejoin="round" stroke-miterlimit="10" stroke-dasharray="4" x1="183.245" y1="800.463" x2="183.245" y2="758.971"/>
	</g>
	<g id="LINE_310_">
		
			<line fill="none" stroke="#000000" stroke-linecap="round" stroke-linejoin="round" stroke-miterlimit="10" stroke-dasharray="4" x1="183.245" y1="749.75" x2="183.245" y2="708.258"/>
	</g>
	<g id="LINE_309_">
		
			<line fill="none" stroke="#000000" stroke-linecap="round" stroke-linejoin="round" stroke-miterlimit="10" stroke-dasharray="4" x1="183.245" y1="694.424" x2="183.245" y2="629.879"/>
	</g>
	<g id="LINE_308_">
		
			<line fill="none" stroke="#000000" stroke-linecap="round" stroke-linejoin="round" stroke-miterlimit="10" stroke-dasharray="4" x1="183.245" y1="553.264" x2="183.245" y2="606.828"/>
	</g>
	<g id="LINE_307_">
		
			<line fill="none" stroke="#000000" stroke-linecap="round" stroke-linejoin="round" stroke-miterlimit="10" stroke-dasharray="4" x1="183.245" y1="477.994" x2="183.245" y2="522.338"/>
	</g>
	<g id="LINE_306_">
		
			<line fill="none" stroke="#000000" stroke-linecap="round" stroke-linejoin="round" stroke-miterlimit="10" stroke-dasharray="4" x1="250.832" y1="786.633" x2="250.832" y2="722.088"/>
	</g>
	<g id="LINE_305_">
		
			<line fill="none" stroke="#000000" stroke-linecap="round" stroke-linejoin="round" stroke-miterlimit="10" stroke-dasharray="4" x1="327.297" y1="786.633" x2="327.297" y2="722.088"/>
	</g>
	<g id="LINE_304_">
		
			<line fill="none" stroke="#000000" stroke-linecap="round" stroke-linejoin="round" stroke-miterlimit="10" stroke-dasharray="4" x1="155.583" y1="708.256" x2="422.549" y2="708.256"/>
	</g>
	<g id="LINE_303_">
		
			<line fill="none" stroke="#000000" stroke-linecap="round" stroke-linejoin="round" stroke-miterlimit="10" stroke-dasharray="4" x1="155.582" y1="606.828" x2="422.549" y2="606.828"/>
	</g>
	<g id="LINE_302_">
		
			<line fill="none" stroke="#000000" stroke-linecap="round" stroke-linejoin="round" stroke-miterlimit="10" stroke-dasharray="4" x1="373.033" y1="800.463" x2="373.033" y2="758.971"/>
	</g>
	<g id="LINE_301_">
		
			<line fill="none" stroke="#000000" stroke-linecap="round" stroke-linejoin="round" stroke-miterlimit="10" stroke-dasharray="4" x1="373.033" y1="749.75" x2="373.033" y2="708.258"/>
	</g>
	<g id="LINE_300_">
		
			<line fill="none" stroke="#000000" stroke-linecap="round" stroke-linejoin="round" stroke-miterlimit="10" stroke-dasharray="4" x1="373.033" y1="694.424" x2="373.033" y2="629.879"/>
	</g>
	<g id="LINE_299_">
		
			<line fill="none" stroke="#000000" stroke-linecap="round" stroke-linejoin="round" stroke-miterlimit="10" stroke-dasharray="4" x1="373.033" y1="553.264" x2="373.033" y2="606.828"/>
	</g>
	<g id="LINE_298_">
		
			<line fill="none" stroke="#000000" stroke-linecap="round" stroke-linejoin="round" stroke-miterlimit="10" stroke-dasharray="4" x1="373.033" y1="477.994" x2="373.033" y2="522.338"/>
	</g>
	<g id="LINE_297_">
		
			<line fill="none" stroke="#000000" stroke-linecap="round" stroke-linejoin="round" stroke-miterlimit="10" stroke-dasharray="4" x1="373.033" y1="694.424" x2="373.033" y2="708.258"/>
	</g>
	<g id="LINE_296_">
		
			<line fill="none" stroke="#000000" stroke-linecap="round" stroke-linejoin="round" stroke-miterlimit="10" stroke-dasharray="4" x1="373.033" y1="606.828" x2="373.033" y2="630.008"/>
	</g>
	<g id="LINE_295_">
		
			<line fill="none" stroke="#000000" stroke-linecap="round" stroke-linejoin="round" stroke-miterlimit="10" stroke-dasharray="4" x1="394.885" y1="800.463" x2="394.885" y2="758.971"/>
	</g>
	<g id="LINE_294_">
		
			<line fill="none" stroke="#000000" stroke-linecap="round" stroke-linejoin="round" stroke-miterlimit="10" stroke-dasharray="4" x1="394.885" y1="749.75" x2="394.885" y2="708.258"/>
	</g>
	<g id="LINE_293_">
		
			<line fill="none" stroke="#000000" stroke-linecap="round" stroke-linejoin="round" stroke-miterlimit="10" stroke-dasharray="4" x1="394.885" y1="694.424" x2="394.885" y2="629.879"/>
	</g>
	<g id="LINE_292_">
		
			<line fill="none" stroke="#000000" stroke-linecap="round" stroke-linejoin="round" stroke-miterlimit="10" stroke-dasharray="4" x1="394.886" y1="553.264" x2="394.886" y2="606.828"/>
	</g>
	<g id="LINE_291_">
		
			<line fill="none" stroke="#000000" stroke-linecap="round" stroke-linejoin="round" stroke-miterlimit="10" stroke-dasharray="4" x1="394.886" y1="477.994" x2="394.886" y2="522.338"/>
	</g>
	<g id="LINE_290_">
		
			<line fill="none" stroke="#000000" stroke-linecap="round" stroke-linejoin="round" stroke-miterlimit="10" stroke-dasharray="4" x1="394.885" y1="694.424" x2="394.885" y2="708.258"/>
	</g>
	<g id="LINE_289_">
		
			<line fill="none" stroke="#000000" stroke-linecap="round" stroke-linejoin="round" stroke-miterlimit="10" stroke-dasharray="4" x1="394.885" y1="606.828" x2="394.885" y2="630.008"/>
	</g>
	<g id="LINE_288_">
		
			<line fill="none" stroke="#000000" stroke-linecap="round" stroke-linejoin="round" stroke-miterlimit="10" stroke-dasharray="4" x1="205.098" y1="800.463" x2="205.098" y2="758.971"/>
	</g>
	<g id="LINE_287_">
		
			<line fill="none" stroke="#000000" stroke-linecap="round" stroke-linejoin="round" stroke-miterlimit="10" stroke-dasharray="4" x1="205.098" y1="749.75" x2="205.098" y2="708.258"/>
	</g>
	<g id="LINE_286_">
		
			<line fill="none" stroke="#000000" stroke-linecap="round" stroke-linejoin="round" stroke-miterlimit="10" stroke-dasharray="4" x1="327.297" y1="708.256" x2="327.297" y2="666.764"/>
	</g>
	<g id="LINE_285_">
		
			<line fill="none" stroke="#000000" stroke-linecap="round" stroke-linejoin="round" stroke-miterlimit="10" stroke-dasharray="4" x1="250.832" y1="708.256" x2="250.832" y2="666.764"/>
	</g>
	<g id="LINE_284_">
		
			<line fill="none" stroke="#000000" stroke-linecap="round" stroke-linejoin="round" stroke-miterlimit="10" stroke-dasharray="4" x1="327.297" y1="657.541" x2="327.297" y2="606.828"/>
	</g>
	<g id="LINE_283_">
		
			<line fill="none" stroke="#000000" stroke-linecap="round" stroke-linejoin="round" stroke-miterlimit="10" stroke-dasharray="4" x1="250.832" y1="657.541" x2="250.832" y2="606.828"/>
	</g>
	<g id="LINE_282_">
		
			<line fill="none" stroke="#000000" stroke-linecap="round" stroke-linejoin="round" stroke-miterlimit="10" stroke-dasharray="4" x1="205.098" y1="694.424" x2="205.098" y2="629.879"/>
	</g>
	<g id="LINE_281_">
		
			<line fill="none" stroke="#000000" stroke-linecap="round" stroke-linejoin="round" stroke-miterlimit="10" stroke-dasharray="4" x1="205.098" y1="553.264" x2="205.098" y2="606.828"/>
	</g>
	<g id="LINE_280_">
		
			<line fill="none" stroke="#000000" stroke-linecap="round" stroke-linejoin="round" stroke-miterlimit="10" stroke-dasharray="4" x1="205.098" y1="477.994" x2="205.098" y2="522.338"/>
	</g>
	<g id="LINE_279_">
		
			<line fill="none" stroke="#000000" stroke-linecap="round" stroke-linejoin="round" stroke-miterlimit="10" stroke-dasharray="4" x1="250.832" y1="598.023" x2="250.832" y2="505.242"/>
	</g>
	<g id="LINE_278_">
		
			<line fill="none" stroke="#000000" stroke-linecap="round" stroke-linejoin="round" stroke-miterlimit="10" stroke-dasharray="4" x1="327.297" y1="598.023" x2="327.297" y2="505.242"/>
	</g>
	<g id="LINE_277_">
		
			<line fill="none" stroke="#000000" stroke-linecap="round" stroke-linejoin="round" stroke-miterlimit="10" stroke-dasharray="4" x1="327.297" y1="413.45" x2="327.297" y2="441.111"/>
	</g>
	<g id="LINE_276_">
		
			<line fill="none" stroke="#000000" stroke-linecap="round" stroke-linejoin="round" stroke-miterlimit="10" stroke-dasharray="4" x1="250.832" y1="413.449" x2="250.832" y2="441.111"/>
	</g>
	<g id="LINE_275_">
		
			<line fill="none" stroke="#000000" stroke-linecap="round" stroke-linejoin="round" stroke-miterlimit="10" stroke-dasharray="4" x1="183.245" y1="477.412" x2="183.245" y2="414.032"/>
	</g>
	<g id="LINE_274_">
		
			<line fill="none" stroke="#000000" stroke-linecap="round" stroke-linejoin="round" stroke-miterlimit="10" stroke-dasharray="4" x1="205.098" y1="477.994" x2="205.098" y2="414.032"/>
	</g>
	<g id="LINE_273_">
		
			<line fill="none" stroke="#000000" stroke-linecap="round" stroke-linejoin="round" stroke-miterlimit="10" stroke-dasharray="4" x1="250.833" y1="453.039" x2="250.833" y2="477.996"/>
	</g>
	<g id="LINE_272_">
		
			<line fill="none" stroke="#000000" stroke-linecap="round" stroke-linejoin="round" stroke-miterlimit="10" stroke-dasharray="4" x1="155.582" y1="477.994" x2="422.549" y2="477.994"/>
	</g>
	<g id="LINE_268_">
		
			<line fill="none" stroke="#000000" stroke-linecap="round" stroke-linejoin="round" stroke-miterlimit="10" stroke-dasharray="4" x1="327.297" y1="450.334" x2="327.297" y2="477.996"/>
	</g>
</g>
<g id="MountainLine">
	<g id="LINE_180_">
		
			<line fill="none" stroke="#000000" stroke-linecap="round" stroke-linejoin="round" stroke-miterlimit="10" x1="155.583" y1="104.813" x2="183.245" y2="132.474"/>
	</g>
	<g id="LINE_177_">
		
			<line fill="none" stroke="#000000" stroke-linecap="round" stroke-linejoin="round" stroke-miterlimit="10" x1="155.583" y1="169.357" x2="183.245" y2="141.695"/>
	</g>
	<g id="LINE_86_">
		
			<line fill="none" stroke="#000000" stroke-linecap="round" stroke-linejoin="round" stroke-miterlimit="10" x1="183.245" y1="132.474" x2="205.098" y2="132.474"/>
	</g>
	<g id="LINE_67_">
		
			<line fill="none" stroke="#000000" stroke-linecap="round" stroke-linejoin="round" stroke-miterlimit="10" x1="183.245" y1="141.695" x2="205.098" y2="141.695"/>
	</g>
	<g id="LINE_68_">
		
			<line fill="none" stroke="#000000" stroke-linecap="round" stroke-linejoin="round" stroke-miterlimit="10" x1="205.098" y1="132.474" x2="250.832" y2="104.813"/>
	</g>
	<g id="LINE_55_">
		
			<line fill="none" stroke="#000000" stroke-linecap="round" stroke-linejoin="round" stroke-miterlimit="10" x1="205.098" y1="141.695" x2="250.832" y2="169.357"/>
	</g>
	<g id="LINE_420_">
		<polyline fill="none" stroke="#000000" stroke-linecap="round" stroke-linejoin="round" stroke-miterlimit="10" points="
			327.297,104.813 321.645,109.135 316.095,113.322 310.746,117.239 305.687,120.75 300.986,123.722 296.681,126.019 
			292.747,127.504 289.065,128.044 285.383,127.504 281.449,126.019 277.145,123.722 272.443,120.75 267.384,117.239 
			262.035,113.322 256.485,109.135 250.832,104.813 		"/>
	</g>
	<g id="LINE_421_">
		<polyline fill="none" stroke="#000000" stroke-linecap="round" stroke-linejoin="round" stroke-miterlimit="10" points="
			327.297,169.357 321.645,165.036 316.095,160.848 310.746,156.93 305.687,153.418 300.986,150.448 296.681,148.152 
			292.747,146.666 289.065,146.125 285.383,146.666 281.449,148.152 277.145,150.448 272.443,153.418 267.384,156.93 
			262.035,160.848 256.485,165.036 250.832,169.357 		"/>
	</g>
	<g id="LINE_442_">
		
			<line fill="none" stroke="#000000" stroke-linecap="round" stroke-linejoin="round" stroke-miterlimit="10" x1="327.297" y1="104.813" x2="373.033" y2="132.474"/>
	</g>
	<g id="LINE_443_">
		
			<line fill="none" stroke="#000000" stroke-linecap="round" stroke-linejoin="round" stroke-miterlimit="10" x1="327.297" y1="169.357" x2="373.033" y2="141.695"/>
	</g>
	<g id="LINE_34_">
		
			<line fill="none" stroke="#000000" stroke-linecap="round" stroke-linejoin="round" stroke-miterlimit="10" x1="373.033" y1="132.474" x2="394.885" y2="132.474"/>
	</g>
	<g id="LINE_33_">
		
			<line fill="none" stroke="#000000" stroke-linecap="round" stroke-linejoin="round" stroke-miterlimit="10" x1="373.033" y1="141.695" x2="394.885" y2="141.695"/>
	</g>
	<g id="LINE_14_">
		
			<line fill="none" stroke="#000000" stroke-linecap="round" stroke-linejoin="round" stroke-miterlimit="10" x1="394.885" y1="132.474" x2="422.549" y2="104.813"/>
	</g>
	<g id="LINE_12_">
		
			<line fill="none" stroke="#000000" stroke-linecap="round" stroke-linejoin="round" stroke-miterlimit="10" x1="394.885" y1="141.695" x2="422.549" y2="169.357"/>
	</g>
	<g id="LINE_163_">
		
			<line fill="none" stroke="#000000" stroke-linecap="round" stroke-linejoin="round" stroke-miterlimit="10" x1="155.583" y1="293.422" x2="183.245" y2="338.18"/>
	</g>
	<g id="LINE_157_">
		
			<line fill="none" stroke="#000000" stroke-linecap="round" stroke-linejoin="round" stroke-miterlimit="10" x1="155.583" y1="386.204" x2="183.245" y2="369.107"/>
	</g>
	<g id="LINE_150_">
		
			<line fill="none" stroke="#000000" stroke-linecap="round" stroke-linejoin="round" stroke-miterlimit="10" x1="155.583" y1="441.111" x2="183.245" y2="413.45"/>
	</g>
	<g id="LINE_59_">
		
			<line fill="none" stroke="#000000" stroke-linecap="round" stroke-linejoin="round" stroke-miterlimit="10" x1="183.245" y1="338.18" x2="205.098" y2="338.18"/>
	</g>
	<g id="LINE_58_">
		
			<line fill="none" stroke="#000000" stroke-linecap="round" stroke-linejoin="round" stroke-miterlimit="10" x1="183.245" y1="369.107" x2="205.098" y2="369.107"/>
	</g>
	<g id="LINE_74_">
		
			<line fill="none" stroke="#000000" stroke-linecap="round" stroke-linejoin="round" stroke-miterlimit="10" x1="205.098" y1="338.18" x2="250.832" y2="293.422"/>
	</g>
	<g id="LINE_41_">
		
			<line fill="none" stroke="#000000" stroke-linecap="round" stroke-linejoin="round" stroke-miterlimit="10" x1="205.098" y1="369.107" x2="250.832" y2="386.204"/>
	</g>
	<g id="LINE_77_">
		
			<line fill="none" stroke="#000000" stroke-linecap="round" stroke-linejoin="round" stroke-miterlimit="10" x1="205.098" y1="413.45" x2="250.832" y2="441.111"/>
	</g>
	<g id="LINE_426_">
		<polyline fill="none" stroke="#000000" stroke-linecap="round" stroke-linejoin="round" stroke-miterlimit="10" points="
			327.297,293.422 321.645,300.416 316.095,307.191 310.746,313.528 305.687,319.211 300.986,324.018 296.681,327.733 
			292.747,330.137 289.065,331.012 285.383,330.137 281.449,327.733 277.145,324.018 272.443,319.211 267.384,313.528 
			262.035,307.191 256.485,300.416 250.832,293.422 		"/>
	</g>
	<g id="LINE_427_">
		<polyline fill="none" stroke="#000000" stroke-linecap="round" stroke-linejoin="round" stroke-miterlimit="10" points="
			327.297,386.204 321.645,383.531 316.095,380.945 310.746,378.523 305.687,376.354 300.986,374.516 296.681,373.098 
			292.747,372.18 289.065,371.846 285.383,372.18 281.449,373.098 277.145,374.516 272.443,376.354 267.384,378.523 
			262.035,380.945 256.485,383.531 250.832,386.204 		"/>
	</g>
	<g id="LINE_429_">
		<polyline fill="none" stroke="#000000" stroke-linecap="round" stroke-linejoin="round" stroke-miterlimit="10" points="
			327.297,441.111 321.645,436.791 316.095,432.604 310.746,428.686 305.687,425.174 300.986,422.203 296.681,419.906 
			292.747,418.42 289.065,417.88 285.383,418.42 281.449,419.906 277.145,422.203 272.443,425.174 267.384,428.686 262.035,432.604 
			256.485,436.791 250.832,441.111 		"/>
	</g>
	<g id="LINE_448_">
		
			<line fill="none" stroke="#000000" stroke-linecap="round" stroke-linejoin="round" stroke-miterlimit="10" x1="327.297" y1="293.422" x2="373.033" y2="338.18"/>
	</g>
	<g id="LINE_449_">
		
			<line fill="none" stroke="#000000" stroke-linecap="round" stroke-linejoin="round" stroke-miterlimit="10" x1="327.297" y1="386.204" x2="373.033" y2="369.107"/>
	</g>
	<g id="LINE_451_">
		
			<line fill="none" stroke="#000000" stroke-linecap="round" stroke-linejoin="round" stroke-miterlimit="10" x1="327.297" y1="441.111" x2="373.033" y2="413.45"/>
	</g>
	<g id="LINE_18_">
		
			<line fill="none" stroke="#000000" stroke-linecap="round" stroke-linejoin="round" stroke-miterlimit="10" x1="373.033" y1="338.18" x2="394.885" y2="338.18"/>
	</g>
	<g id="LINE_17_">
		
			<line fill="none" stroke="#000000" stroke-linecap="round" stroke-linejoin="round" stroke-miterlimit="10" x1="373.033" y1="369.107" x2="394.885" y2="369.107"/>
	</g>
	<g id="LINE_4_">
		
			<line fill="none" stroke="#000000" stroke-linecap="round" stroke-linejoin="round" stroke-miterlimit="10" x1="394.885" y1="338.18" x2="422.549" y2="293.422"/>
	</g>
	<g id="LINE_3_">
		
			<line fill="none" stroke="#000000" stroke-linecap="round" stroke-linejoin="round" stroke-miterlimit="10" x1="394.885" y1="369.107" x2="422.549" y2="386.204"/>
	</g>
	<g id="LINE_1_">
		
			<line fill="none" stroke="#000000" stroke-linecap="round" stroke-linejoin="round" stroke-miterlimit="10" x1="394.885" y1="413.45" x2="422.549" y2="441.111"/>
	</g>
	<g id="LINE_260_">
		
			<line fill="none" stroke="#000000" stroke-linecap="round" stroke-linejoin="round" stroke-miterlimit="10" x1="183.245" y1="141.695" x2="183.245" y2="132.474"/>
	</g>
	<g id="LINE_35_">
		
			<line fill="none" stroke="#000000" stroke-linecap="round" stroke-linejoin="round" stroke-miterlimit="10" x1="205.098" y1="141.695" x2="205.098" y2="132.474"/>
	</g>
	<g id="LINE_37_">
		
			<line fill="none" stroke="#000000" stroke-linecap="round" stroke-linejoin="round" stroke-miterlimit="10" x1="373.031" y1="141.695" x2="373.031" y2="132.474"/>
	</g>
	<g id="LINE_36_">
		
			<line fill="none" stroke="#000000" stroke-linecap="round" stroke-linejoin="round" stroke-miterlimit="10" x1="394.885" y1="141.695" x2="394.885" y2="132.474"/>
	</g>
	<g id="LINE_262_">
		
			<line fill="none" stroke="#000000" stroke-linecap="round" stroke-linejoin="round" stroke-miterlimit="10" x1="183.245" y1="197.02" x2="183.245" y2="183.188"/>
	</g>
	<g id="LINE_264_">
		
			<line fill="none" stroke="#000000" stroke-linecap="round" stroke-linejoin="round" stroke-miterlimit="10" x1="183.245" y1="284.617" x2="183.245" y2="261.436"/>
	</g>
	<g id="LINE_266_">
		
			<line fill="none" stroke="#000000" stroke-linecap="round" stroke-linejoin="round" stroke-miterlimit="10" x1="183.245" y1="369.107" x2="183.245" y2="338.18"/>
	</g>
	<g id="LINE_271_">
		
			<line fill="none" stroke="#000000" stroke-linecap="round" stroke-linejoin="round" stroke-miterlimit="10" x1="205.098" y1="197.02" x2="205.098" y2="183.188"/>
	</g>
	<g id="LINE_270_">
		
			<line fill="none" stroke="#000000" stroke-linecap="round" stroke-linejoin="round" stroke-miterlimit="10" x1="205.098" y1="284.617" x2="205.098" y2="261.436"/>
	</g>
	<g id="LINE_269_">
		
			<line fill="none" stroke="#000000" stroke-linecap="round" stroke-linejoin="round" stroke-miterlimit="10" x1="205.098" y1="369.107" x2="205.098" y2="338.18"/>
	</g>
	<g id="LINE_50_">
		
			<line fill="none" stroke="#000000" stroke-linecap="round" stroke-linejoin="round" stroke-miterlimit="10" x1="155.583" y1="450.334" x2="183.245" y2="477.994"/>
	</g>
	<g id="LINE_44_">
		
			<line fill="none" stroke="#000000" stroke-linecap="round" stroke-linejoin="round" stroke-miterlimit="10" x1="205.098" y1="477.994" x2="250.832" y2="450.334"/>
	</g>
	<g id="LINE_40_">
		<polyline fill="none" stroke="#000000" stroke-linecap="round" stroke-linejoin="round" stroke-miterlimit="10" points="
			327.297,450.334 321.645,454.654 316.095,458.842 310.746,462.758 305.687,466.271 300.986,469.242 296.681,471.539 
			292.747,473.023 289.065,473.564 285.383,473.023 281.449,471.539 277.145,469.242 272.443,466.271 267.384,462.758 
			262.035,458.842 256.485,454.654 250.832,450.334 		"/>
	</g>
	<g id="LINE_32_">
		
			<line fill="none" stroke="#000000" stroke-linecap="round" stroke-linejoin="round" stroke-miterlimit="10" x1="327.297" y1="450.334" x2="373.033" y2="477.994"/>
	</g>
	<g id="LINE_26_">
		
			<line fill="none" stroke="#000000" stroke-linecap="round" stroke-linejoin="round" stroke-miterlimit="10" x1="394.885" y1="477.994" x2="422.549" y2="450.334"/>
	</g>
	<g id="LINE_125_">
		
			<line fill="none" stroke="#000000" stroke-linecap="round" stroke-linejoin="round" stroke-miterlimit="10" x1="155.583" y1="224.681" x2="183.245" y2="197.02"/>
	</g>
	<g id="LINE_124_">
		
			<line fill="none" stroke="#000000" stroke-linecap="round" stroke-linejoin="round" stroke-miterlimit="10" x1="155.583" y1="233.902" x2="183.245" y2="261.566"/>
	</g>
	<g id="LINE_120_">
		
			<line fill="none" stroke="#000000" stroke-linecap="round" stroke-linejoin="round" stroke-miterlimit="10" x1="183.245" y1="197.02" x2="205.098" y2="197.02"/>
	</g>
	<g id="LINE_119_">
		
			<line fill="none" stroke="#000000" stroke-linecap="round" stroke-linejoin="round" stroke-miterlimit="10" x1="183.245" y1="261.566" x2="205.098" y2="261.566"/>
	</g>
	<g id="LINE_116_">
		
			<line fill="none" stroke="#000000" stroke-linecap="round" stroke-linejoin="round" stroke-miterlimit="10" x1="205.098" y1="197.02" x2="250.832" y2="224.681"/>
	</g>
	<g id="LINE_115_">
		
			<line fill="none" stroke="#000000" stroke-linecap="round" stroke-linejoin="round" stroke-miterlimit="10" x1="205.098" y1="261.566" x2="250.832" y2="233.902"/>
	</g>
	<g id="LINE_110_">
		<polyline fill="none" stroke="#000000" stroke-linecap="round" stroke-linejoin="round" stroke-miterlimit="10" points="
			327.297,224.681 321.645,220.36 316.095,216.173 310.746,212.255 305.687,208.744 300.986,205.771 296.681,203.476 
			292.747,201.99 289.065,201.45 285.383,201.99 281.449,203.476 277.145,205.771 272.443,208.744 267.384,212.255 262.035,216.173 
			256.485,220.36 250.832,224.681 		"/>
	</g>
	<g id="LINE_109_">
		<polyline fill="none" stroke="#000000" stroke-linecap="round" stroke-linejoin="round" stroke-miterlimit="10" points="
			327.297,233.902 321.645,238.224 316.095,242.413 310.746,246.329 305.687,249.841 300.986,252.813 296.681,255.108 
			292.747,256.594 289.065,257.134 285.383,256.594 281.449,255.108 277.145,252.813 272.443,249.841 267.384,246.329 
			262.035,242.413 256.485,238.224 250.832,233.902 		"/>
	</g>
	<g id="LINE_106_">
		
			<line fill="none" stroke="#000000" stroke-linecap="round" stroke-linejoin="round" stroke-miterlimit="10" x1="327.297" y1="224.681" x2="373.033" y2="197.02"/>
	</g>
	<g id="LINE_105_">
		
			<line fill="none" stroke="#000000" stroke-linecap="round" stroke-linejoin="round" stroke-miterlimit="10" x1="327.297" y1="233.902" x2="373.033" y2="261.566"/>
	</g>
	<g id="LINE_101_">
		
			<line fill="none" stroke="#000000" stroke-linecap="round" stroke-linejoin="round" stroke-miterlimit="10" x1="373.033" y1="197.02" x2="394.885" y2="197.02"/>
	</g>
	<g id="LINE_100_">
		
			<line fill="none" stroke="#000000" stroke-linecap="round" stroke-linejoin="round" stroke-miterlimit="10" x1="373.033" y1="261.566" x2="394.885" y2="261.566"/>
	</g>
	<g id="LINE_97_">
		
			<line fill="none" stroke="#000000" stroke-linecap="round" stroke-linejoin="round" stroke-miterlimit="10" x1="394.885" y1="197.02" x2="422.549" y2="224.681"/>
	</g>
	<g id="LINE_96_">
		
			<line fill="none" stroke="#000000" stroke-linecap="round" stroke-linejoin="round" stroke-miterlimit="10" x1="394.885" y1="261.566" x2="422.549" y2="233.902"/>
	</g>
	<g id="LINE_135_">
		
			<line fill="none" stroke="#000000" stroke-linecap="round" stroke-linejoin="round" stroke-miterlimit="10" x1="250.832" y1="183.188" x2="250.832" y2="169.358"/>
	</g>
	<g id="LINE_136_">
		
			<line fill="none" stroke="#000000" stroke-linecap="round" stroke-linejoin="round" stroke-miterlimit="10" x1="327.297" y1="183.188" x2="327.297" y2="169.357"/>
	</g>
	<g id="LINE_138_">
		
			<line fill="none" stroke="#000000" stroke-linecap="round" stroke-linejoin="round" stroke-miterlimit="10" x1="250.832" y1="104.813" x2="250.832" y2="90.983"/>
	</g>
	<g id="LINE_137_">
		
			<line fill="none" stroke="#000000" stroke-linecap="round" stroke-linejoin="round" stroke-miterlimit="10" x1="327.297" y1="104.813" x2="327.297" y2="90.982"/>
	</g>
	<g id="LINE_143_">
		
			<line fill="none" stroke="#000000" stroke-linecap="round" stroke-linejoin="round" stroke-miterlimit="10" x1="327.297" y1="233.902" x2="327.297" y2="224.681"/>
	</g>
	<g id="LINE_144_">
		
			<line fill="none" stroke="#000000" stroke-linecap="round" stroke-linejoin="round" stroke-miterlimit="10" x1="250.832" y1="233.902" x2="250.832" y2="224.682"/>
	</g>
	<g id="LINE_145_">
		
			<line fill="none" stroke="#000000" stroke-linecap="round" stroke-linejoin="round" stroke-miterlimit="10" x1="327.297" y1="293.837" x2="327.297" y2="284.617"/>
	</g>
	<g id="LINE_146_">
		
			<line fill="none" stroke="#000000" stroke-linecap="round" stroke-linejoin="round" stroke-miterlimit="10" x1="250.832" y1="293.837" x2="250.832" y2="284.617"/>
	</g>
	<g id="LINE_85_">
		
			<line fill="none" stroke="#000000" stroke-linecap="round" stroke-linejoin="round" stroke-miterlimit="10" x1="373.033" y1="369.107" x2="373.033" y2="338.18"/>
	</g>
	<g id="LINE_75_">
		
			<line fill="none" stroke="#000000" stroke-linecap="round" stroke-linejoin="round" stroke-miterlimit="10" x1="394.885" y1="369.107" x2="394.885" y2="338.18"/>
	</g>
	<g id="LINE_149_">
		
			<line fill="none" stroke="#000000" stroke-linecap="round" stroke-linejoin="round" stroke-miterlimit="10" x1="327.297" y1="413.45" x2="327.297" y2="386.204"/>
	</g>
	<g id="LINE_151_">
		
			<line fill="none" stroke="#000000" stroke-linecap="round" stroke-linejoin="round" stroke-miterlimit="10" x1="250.832" y1="413.449" x2="250.832" y2="386.204"/>
	</g>
	<g id="LINE_259_">
		
			<line fill="none" stroke="#000000" stroke-linecap="round" stroke-linejoin="round" stroke-miterlimit="10" x1="155.583" y1="786.633" x2="183.245" y2="758.971"/>
	</g>
	<g id="LINE_258_">
		
			<line fill="none" stroke="#000000" stroke-linecap="round" stroke-linejoin="round" stroke-miterlimit="10" x1="155.583" y1="722.088" x2="183.245" y2="749.75"/>
	</g>
	<g id="LINE_257_">
		
			<line fill="none" stroke="#000000" stroke-linecap="round" stroke-linejoin="round" stroke-miterlimit="10" x1="183.245" y1="758.971" x2="205.098" y2="758.971"/>
	</g>
	<g id="LINE_256_">
		
			<line fill="none" stroke="#000000" stroke-linecap="round" stroke-linejoin="round" stroke-miterlimit="10" x1="183.245" y1="749.75" x2="205.098" y2="749.75"/>
	</g>
	<g id="LINE_255_">
		
			<line fill="none" stroke="#000000" stroke-linecap="round" stroke-linejoin="round" stroke-miterlimit="10" x1="205.098" y1="758.971" x2="250.832" y2="786.633"/>
	</g>
	<g id="LINE_254_">
		
			<line fill="none" stroke="#000000" stroke-linecap="round" stroke-linejoin="round" stroke-miterlimit="10" x1="205.098" y1="749.75" x2="250.832" y2="722.088"/>
	</g>
	<g id="LINE_253_">
		<polyline fill="none" stroke="#000000" stroke-linecap="round" stroke-linejoin="round" stroke-miterlimit="10" points="
			327.297,786.633 321.645,782.311 316.095,778.123 310.746,774.205 305.687,770.693 300.986,767.723 296.681,765.426 
			292.747,763.941 289.065,763.4 285.383,763.941 281.449,765.426 277.145,767.723 272.443,770.693 267.384,774.205 
			262.035,778.123 256.485,782.311 250.832,786.633 		"/>
	</g>
	<g id="LINE_252_">
		<polyline fill="none" stroke="#000000" stroke-linecap="round" stroke-linejoin="round" stroke-miterlimit="10" points="
			327.297,722.088 321.645,726.408 316.095,730.596 310.746,734.514 305.687,738.027 300.986,740.996 296.681,743.293 
			292.747,744.779 289.065,745.318 285.383,744.779 281.449,743.293 277.145,740.996 272.443,738.027 267.384,734.514 
			262.035,730.596 256.485,726.408 250.832,722.088 		"/>
	</g>
	<g id="LINE_250_">
		
			<line fill="none" stroke="#000000" stroke-linecap="round" stroke-linejoin="round" stroke-miterlimit="10" x1="327.297" y1="786.633" x2="373.033" y2="758.971"/>
	</g>
	<g id="LINE_249_">
		
			<line fill="none" stroke="#000000" stroke-linecap="round" stroke-linejoin="round" stroke-miterlimit="10" x1="327.297" y1="722.088" x2="373.033" y2="749.75"/>
	</g>
	<g id="LINE_248_">
		
			<line fill="none" stroke="#000000" stroke-linecap="round" stroke-linejoin="round" stroke-miterlimit="10" x1="373.033" y1="758.971" x2="394.885" y2="758.971"/>
	</g>
	<g id="LINE_247_">
		
			<line fill="none" stroke="#000000" stroke-linecap="round" stroke-linejoin="round" stroke-miterlimit="10" x1="373.033" y1="749.75" x2="394.885" y2="749.75"/>
	</g>
	<g id="LINE_246_">
		
			<line fill="none" stroke="#000000" stroke-linecap="round" stroke-linejoin="round" stroke-miterlimit="10" x1="394.885" y1="758.971" x2="422.549" y2="786.633"/>
	</g>
	<g id="LINE_245_">
		
			<line fill="none" stroke="#000000" stroke-linecap="round" stroke-linejoin="round" stroke-miterlimit="10" x1="394.885" y1="749.75" x2="422.549" y2="722.088"/>
	</g>
	<g id="LINE_244_">
		
			<line fill="none" stroke="#000000" stroke-linecap="round" stroke-linejoin="round" stroke-miterlimit="10" x1="155.583" y1="598.023" x2="183.245" y2="553.264"/>
	</g>
	<g id="LINE_243_">
		
			<line fill="none" stroke="#000000" stroke-linecap="round" stroke-linejoin="round" stroke-miterlimit="10" x1="155.583" y1="505.242" x2="183.245" y2="522.338"/>
	</g>
	<g id="LINE_242_">
		
			<line fill="none" stroke="#000000" stroke-linecap="round" stroke-linejoin="round" stroke-miterlimit="10" x1="183.245" y1="553.264" x2="205.098" y2="553.264"/>
	</g>
	<g id="LINE_240_">
		
			<line fill="none" stroke="#000000" stroke-linecap="round" stroke-linejoin="round" stroke-miterlimit="10" x1="183.245" y1="522.338" x2="205.098" y2="522.338"/>
	</g>
	<g id="LINE_239_">
		
			<line fill="none" stroke="#000000" stroke-linecap="round" stroke-linejoin="round" stroke-miterlimit="10" x1="205.098" y1="553.264" x2="250.832" y2="598.023"/>
	</g>
	<g id="LINE_238_">
		
			<line fill="none" stroke="#000000" stroke-linecap="round" stroke-linejoin="round" stroke-miterlimit="10" x1="205.098" y1="522.338" x2="250.832" y2="505.242"/>
	</g>
	<g id="LINE_237_">
		<polyline fill="none" stroke="#000000" stroke-linecap="round" stroke-linejoin="round" stroke-miterlimit="10" points="
			327.297,598.023 321.645,591.029 316.095,584.254 310.746,577.916 305.687,572.234 300.986,567.426 296.681,563.711 
			292.747,561.307 289.065,560.434 285.383,561.307 281.449,563.711 277.145,567.426 272.443,572.234 267.384,577.916 
			262.035,584.254 256.485,591.029 250.832,598.023 		"/>
	</g>
	<g id="LINE_236_">
		<polyline fill="none" stroke="#000000" stroke-linecap="round" stroke-linejoin="round" stroke-miterlimit="10" points="
			327.297,505.242 321.645,507.914 316.095,510.5 310.746,512.922 305.687,515.09 300.986,516.93 296.681,518.348 292.747,519.264 
			289.065,519.598 285.383,519.264 281.449,518.348 277.145,516.93 272.443,515.09 267.384,512.922 262.035,510.5 256.485,507.914 
			250.832,505.242 		"/>
	</g>
	<g id="LINE_235_">
		
			<line fill="none" stroke="#000000" stroke-linecap="round" stroke-linejoin="round" stroke-miterlimit="10" x1="327.297" y1="598.023" x2="373.033" y2="553.264"/>
	</g>
	<g id="LINE_234_">
		
			<line fill="none" stroke="#000000" stroke-linecap="round" stroke-linejoin="round" stroke-miterlimit="10" x1="327.297" y1="505.242" x2="373.033" y2="522.338"/>
	</g>
	<g id="LINE_233_">
		
			<line fill="none" stroke="#000000" stroke-linecap="round" stroke-linejoin="round" stroke-miterlimit="10" x1="373.033" y1="553.264" x2="394.885" y2="553.264"/>
	</g>
	<g id="LINE_232_">
		
			<line fill="none" stroke="#000000" stroke-linecap="round" stroke-linejoin="round" stroke-miterlimit="10" x1="373.033" y1="522.338" x2="394.885" y2="522.338"/>
	</g>
	<g id="LINE_231_">
		
			<line fill="none" stroke="#000000" stroke-linecap="round" stroke-linejoin="round" stroke-miterlimit="10" x1="394.885" y1="553.264" x2="422.549" y2="598.023"/>
	</g>
	<g id="LINE_230_">
		
			<line fill="none" stroke="#000000" stroke-linecap="round" stroke-linejoin="round" stroke-miterlimit="10" x1="394.885" y1="522.338" x2="422.549" y2="505.242"/>
	</g>
	<g id="LINE_229_">
		
			<line fill="none" stroke="#000000" stroke-linecap="round" stroke-linejoin="round" stroke-miterlimit="10" x1="183.245" y1="749.75" x2="183.245" y2="758.971"/>
	</g>
	<g id="LINE_228_">
		
			<line fill="none" stroke="#000000" stroke-linecap="round" stroke-linejoin="round" stroke-miterlimit="10" x1="205.098" y1="749.75" x2="205.098" y2="758.971"/>
	</g>
	<g id="LINE_227_">
		
			<line fill="none" stroke="#000000" stroke-linecap="round" stroke-linejoin="round" stroke-miterlimit="10" x1="373.031" y1="749.75" x2="373.031" y2="758.971"/>
	</g>
	<g id="LINE_226_">
		
			<line fill="none" stroke="#000000" stroke-linecap="round" stroke-linejoin="round" stroke-miterlimit="10" x1="394.885" y1="749.75" x2="394.885" y2="758.971"/>
	</g>
	<g id="LINE_225_">
		
			<line fill="none" stroke="#000000" stroke-linecap="round" stroke-linejoin="round" stroke-miterlimit="10" x1="183.245" y1="694.424" x2="183.245" y2="708.258"/>
	</g>
	<g id="LINE_224_">
		
			<line fill="none" stroke="#000000" stroke-linecap="round" stroke-linejoin="round" stroke-miterlimit="10" x1="183.245" y1="606.828" x2="183.245" y2="630.008"/>
	</g>
	<g id="LINE_223_">
		
			<line fill="none" stroke="#000000" stroke-linecap="round" stroke-linejoin="round" stroke-miterlimit="10" x1="183.245" y1="522.338" x2="183.245" y2="553.264"/>
	</g>
	<g id="LINE_222_">
		
			<line fill="none" stroke="#000000" stroke-linecap="round" stroke-linejoin="round" stroke-miterlimit="10" x1="205.098" y1="694.424" x2="205.098" y2="708.258"/>
	</g>
	<g id="LINE_221_">
		
			<line fill="none" stroke="#000000" stroke-linecap="round" stroke-linejoin="round" stroke-miterlimit="10" x1="205.098" y1="606.828" x2="205.098" y2="630.008"/>
	</g>
	<g id="LINE_220_">
		
			<line fill="none" stroke="#000000" stroke-linecap="round" stroke-linejoin="round" stroke-miterlimit="10" x1="205.098" y1="522.338" x2="205.098" y2="553.264"/>
	</g>
	<g id="LINE_219_">
		
			<line fill="none" stroke="#000000" stroke-linecap="round" stroke-linejoin="round" stroke-miterlimit="10" x1="155.583" y1="666.764" x2="183.245" y2="694.424"/>
	</g>
	<g id="LINE_218_">
		
			<line fill="none" stroke="#000000" stroke-linecap="round" stroke-linejoin="round" stroke-miterlimit="10" x1="155.583" y1="657.541" x2="183.245" y2="629.879"/>
	</g>
	<g id="LINE_217_">
		
			<line fill="none" stroke="#000000" stroke-linecap="round" stroke-linejoin="round" stroke-miterlimit="10" x1="183.245" y1="694.424" x2="205.098" y2="694.424"/>
	</g>
	<g id="LINE_216_">
		
			<line fill="none" stroke="#000000" stroke-linecap="round" stroke-linejoin="round" stroke-miterlimit="10" x1="183.245" y1="629.879" x2="205.098" y2="629.879"/>
	</g>
	<g id="LINE_215_">
		
			<line fill="none" stroke="#000000" stroke-linecap="round" stroke-linejoin="round" stroke-miterlimit="10" x1="205.098" y1="694.424" x2="250.832" y2="666.764"/>
	</g>
	<g id="LINE_214_">
		
			<line fill="none" stroke="#000000" stroke-linecap="round" stroke-linejoin="round" stroke-miterlimit="10" x1="205.098" y1="629.879" x2="250.832" y2="657.541"/>
	</g>
	<g id="LINE_213_">
		<polyline fill="none" stroke="#000000" stroke-linecap="round" stroke-linejoin="round" stroke-miterlimit="10" points="
			327.297,666.764 321.645,671.084 316.095,675.271 310.746,679.189 305.687,682.701 300.986,685.674 296.681,687.969 
			292.747,689.455 289.065,689.994 285.383,689.455 281.449,687.969 277.145,685.674 272.443,682.701 267.384,679.189 
			262.035,675.271 256.485,671.084 250.832,666.764 		"/>
	</g>
	<g id="LINE_212_">
		<polyline fill="none" stroke="#000000" stroke-linecap="round" stroke-linejoin="round" stroke-miterlimit="10" points="
			327.297,657.541 321.645,653.221 316.095,649.031 310.746,645.115 305.687,641.604 300.986,638.631 296.681,636.336 
			292.747,634.85 289.065,634.311 285.383,634.85 281.449,636.336 277.145,638.631 272.443,641.604 267.384,645.115 
			262.035,649.031 256.485,653.221 250.832,657.541 		"/>
	</g>
	<g id="LINE_211_">
		
			<line fill="none" stroke="#000000" stroke-linecap="round" stroke-linejoin="round" stroke-miterlimit="10" x1="327.297" y1="666.764" x2="373.033" y2="694.424"/>
	</g>
	<g id="LINE_210_">
		
			<line fill="none" stroke="#000000" stroke-linecap="round" stroke-linejoin="round" stroke-miterlimit="10" x1="327.297" y1="657.541" x2="373.033" y2="629.879"/>
	</g>
	<g id="LINE_209_">
		
			<line fill="none" stroke="#000000" stroke-linecap="round" stroke-linejoin="round" stroke-miterlimit="10" x1="373.033" y1="694.424" x2="394.885" y2="694.424"/>
	</g>
	<g id="LINE_208_">
		
			<line fill="none" stroke="#000000" stroke-linecap="round" stroke-linejoin="round" stroke-miterlimit="10" x1="373.033" y1="629.879" x2="394.885" y2="629.879"/>
	</g>
	<g id="LINE_207_">
		
			<line fill="none" stroke="#000000" stroke-linecap="round" stroke-linejoin="round" stroke-miterlimit="10" x1="394.885" y1="694.424" x2="422.549" y2="666.764"/>
	</g>
	<g id="LINE_206_">
		
			<line fill="none" stroke="#000000" stroke-linecap="round" stroke-linejoin="round" stroke-miterlimit="10" x1="394.885" y1="629.879" x2="422.549" y2="657.541"/>
	</g>
	<g id="LINE_205_">
		
			<line fill="none" stroke="#000000" stroke-linecap="round" stroke-linejoin="round" stroke-miterlimit="10" x1="250.832" y1="708.258" x2="250.832" y2="722.088"/>
	</g>
	<g id="LINE_204_">
		
			<line fill="none" stroke="#000000" stroke-linecap="round" stroke-linejoin="round" stroke-miterlimit="10" x1="327.297" y1="708.258" x2="327.297" y2="722.088"/>
	</g>
	<g id="LINE_203_">
		
			<line fill="none" stroke="#000000" stroke-linecap="round" stroke-linejoin="round" stroke-miterlimit="10" x1="250.832" y1="786.631" x2="250.832" y2="800.461"/>
	</g>
	<g id="LINE_202_">
		
			<line fill="none" stroke="#000000" stroke-linecap="round" stroke-linejoin="round" stroke-miterlimit="10" x1="327.297" y1="786.633" x2="327.297" y2="800.463"/>
	</g>
	<g id="LINE_201_">
		
			<line fill="none" stroke="#000000" stroke-linecap="round" stroke-linejoin="round" stroke-miterlimit="10" x1="327.297" y1="657.543" x2="327.297" y2="666.764"/>
	</g>
	<g id="LINE_200_">
		
			<line fill="none" stroke="#000000" stroke-linecap="round" stroke-linejoin="round" stroke-miterlimit="10" x1="250.832" y1="657.541" x2="250.832" y2="666.764"/>
	</g>
	<g id="LINE_199_">
		
			<line fill="none" stroke="#000000" stroke-linecap="round" stroke-linejoin="round" stroke-miterlimit="10" x1="327.297" y1="597.607" x2="327.297" y2="606.828"/>
	</g>
	<g id="LINE_198_">
		
			<line fill="none" stroke="#000000" stroke-linecap="round" stroke-linejoin="round" stroke-miterlimit="10" x1="250.832" y1="597.607" x2="250.832" y2="606.828"/>
	</g>
	<g id="LINE_197_">
		
			<line fill="none" stroke="#000000" stroke-linecap="round" stroke-linejoin="round" stroke-miterlimit="10" x1="373.033" y1="522.338" x2="373.033" y2="553.264"/>
	</g>
	<g id="LINE_196_">
		
			<line fill="none" stroke="#000000" stroke-linecap="round" stroke-linejoin="round" stroke-miterlimit="10" x1="394.885" y1="522.338" x2="394.885" y2="553.264"/>
	</g>
	<g id="LINE_195_">
		
			<line fill="none" stroke="#000000" stroke-linecap="round" stroke-linejoin="round" stroke-miterlimit="10" x1="327.297" y1="477.996" x2="327.297" y2="505.24"/>
	</g>
	<g id="LINE_194_">
		
			<line fill="none" stroke="#000000" stroke-linecap="round" stroke-linejoin="round" stroke-miterlimit="10" x1="250.832" y1="477.996" x2="250.832" y2="505.242"/>
	</g>
	<g id="LINE_2_">
		
			<line fill="none" stroke="#000000" stroke-linecap="round" stroke-linejoin="round" stroke-miterlimit="10" x1="327.297" y1="450.334" x2="327.297" y2="441.111"/>
	</g>
	<g id="LINE_6_">
		
			<line fill="none" stroke="#000000" stroke-linecap="round" stroke-linejoin="round" stroke-miterlimit="10" x1="250.832" y1="450.334" x2="250.832" y2="441.111"/>
	</g>
</g>
<g id="Text">
	<text transform="matrix(1 0 0 1 432.3096 815.2715)" font-family="'ArialMT'" font-size="14">(c) 2016 Jun Mitani</text>
	<text transform="matrix(1 0 0 1 31.7119 42.1099)" font-family="'ArialMT'" font-size="18">Wave Packet</text>
</g>
</svg>
