  0
SECTION
  2
HEADER
  9
$ACADVER
  1
AC1012
  9
$DWGCODEPAGE
  3
ansi_932
  9
$INSBASE
 10
0.0
 20
0.0
 30
0.0
  9
$EXTMIN
 10
1.000000000000000E+20
 20
1.000000000000000E+20
 30
1.000000000000000E+20
  9
$EXTMAX
 10
-1.000000000000000E+20
 20
-1.000000000000000E+20
 30
-1.000000000000000E+20
  9
$LIMMIN
 10
0.0
 20
0.0
  9
$LIMMAX
 10
12.0
 20
9.0
  9
$ORTHOMODE
 70
     0
  9
$REGENMODE
 70
     1
  9
$FILLMODE
 70
     1
  9
$QTEXTMODE
 70
     0
  9
$MIRRTEXT
 70
     1
  9
$DRAGMODE
 70
     2
  9
$LTSCALE
 40
1.0
  9
$OSMODE
 70
    37
  9
$ATTMODE
 70
     1
  9
$TEXTSIZE
 40
0.2
  9
$TRACEWID
 40
0.05
  9
$TEXTSTYLE
  7
STANDARD
  9
$CLAYER
  8
0
  9
$CELTYPE
  6
BYLAYER
  9
$CECOLOR
 62
   256
  9
$CELTSCALE
 40
1.0
  9
$DELOBJ
 70
     1
  9
$DISPSILH
 70
     0
  9
$DIMSCALE
 40
1.0
  9
$DIMASZ
 40
0.18
  9
$DIMEXO
 40
0.0625
  9
$DIMDLI
 40
0.38
  9
$DIMRND
 40
0.0
  9
$DIMDLE
 40
0.0
  9
$DIMEXE
 40
0.18
  9
$DIMTP
 40
0.0
  9
$DIMTM
 40
0.0
  9
$DIMTXT
 40
0.18
  9
$DIMCEN
 40
0.09
  9
$DIMTSZ
 40
0.0
  9
$DIMTOL
 70
     0
  9
$DIMLIM
 70
     0
  9
$DIMTIH
 70
     1
  9
$DIMTOH
 70
     1
  9
$DIMSE1
 70
     0
  9
$DIMSE2
 70
     0
  9
$DIMTAD
 70
     0
  9
$DIMZIN
 70
     0
  9
$DIMBLK
  1

  9
$DIMASO
 70
     1
  9
$DIMSHO
 70
     1
  9
$DIMPOST
  1

  9
$DIMAPOST
  1

  9
$DIMALT
 70
     0
  9
$DIMALTD
 70
     2
  9
$DIMALTF
 40
25.4
  9
$DIMLFAC
 40
1.0
  9
$DIMTOFL
 70
     0
  9
$DIMTVP
 40
0.0
  9
$DIMTIX
 70
     0
  9
$DIMSOXD
 70
     0
  9
$DIMSAH
 70
     0
  9
$DIMBLK1
  1

  9
$DIMBLK2
  1

  9
$DIMSTYLE
  2
STANDARD
  9
$DIMCLRD
 70
     0
  9
$DIMCLRE
 70
     0
  9
$DIMCLRT
 70
     0
  9
$DIMTFAC
 40
1.0
  9
$DIMGAP
 40
0.09
  9
$DIMJUST
 70
     0
  9
$DIMSD1
 70
     0
  9
$DIMSD2
 70
     0
  9
$DIMTOLJ
 70
     1
  9
$DIMTZIN
 70
     0
  9
$DIMALTZ
 70
     0
  9
$DIMALTTZ
 70
     0
  9
$DIMFIT
 70
     3
  9
$DIMUPT
 70
     0
  9
$DIMUNIT
 70
     2
  9
$DIMDEC
 70
     4
  9
$DIMTDEC
 70
     4
  9
$DIMALTU
 70
     2
  9
$DIMALTTD
 70
     2
  9
$DIMTXSTY
  7
STANDARD
  9
$DIMAUNIT
 70
     0
  9
$LUNITS
 70
     2
  9
$LUPREC
 70
     4
  9
$SKETCHINC
 40
0.1
  9
$FILLETRAD
 40
0.5
  9
$AUNITS
 70
     0
  9
$AUPREC
 70
     0
  9
$MENU
  1
.
  9
$ELEVATION
 40
0.0
  9
$PELEVATION
 40
0.0
  9
$THICKNESS
 40
0.0
  9
$LIMCHECK
 70
     0
  9
$CHAMFERA
 40
0.5
  9
$CHAMFERB
 40
0.5
  9
$CHAMFERC
 40
1.0
  9
$CHAMFERD
 40
0.0
  9
$SKPOLY
 70
     0
  9
$TDCREATE
 40
2457508.883306759
  9
$TDUPDATE
 40
2457508.883306771
  9
$TDINDWG
 40
0.0000000116
  9
$TDUSRTIMER
 40
0.0000000116
  9
$USRTIMER
 70
     1
  9
$ANGBASE
 50
0.0
  9
$ANGDIR
 70
     0
  9
$PDMODE
 70
     0
  9
$PDSIZE
 40
0.0
  9
$PLINEWID
 40
0.0
  9
$COORDS
 70
     1
  9
$SPLFRAME
 70
     0
  9
$SPLINETYPE
 70
     6
  9
$SPLINESEGS
 70
     8
  9
$ATTDIA
 70
     0
  9
$ATTREQ
 70
     1
  9
$HANDLING
 70
     1
  9
$HANDSEED
  5
2F6
  9
$SURFTAB1
 70
     6
  9
$SURFTAB2
 70
     6
  9
$SURFTYPE
 70
     6
  9
$SURFU
 70
     6
  9
$SURFV
 70
     6
  9
$UCSNAME
  2

  9
$UCSORG
 10
0.0
 20
0.0
 30
0.0
  9
$UCSXDIR
 10
1.0
 20
0.0
 30
0.0
  9
$UCSYDIR
 10
0.0
 20
1.0
 30
0.0
  9
$PUCSNAME
  2

  9
$PUCSORG
 10
0.0
 20
0.0
 30
0.0
  9
$PUCSXDIR
 10
1.0
 20
0.0
 30
0.0
  9
$PUCSYDIR
 10
0.0
 20
1.0
 30
0.0
  9
$USERI1
 70
     0
  9
$USERI2
 70
     0
  9
$USERI3
 70
     0
  9
$USERI4
 70
     0
  9
$USERI5
 70
     0
  9
$USERR1
 40
0.0
  9
$USERR2
 40
0.0
  9
$USERR3
 40
0.0
  9
$USERR4
 40
0.0
  9
$USERR5
 40
0.0
  9
$WORLDVIEW
 70
     1
  9
$SHADEDGE
 70
     3
  9
$SHADEDIF
 70
    70
  9
$TILEMODE
 70
     1
  9
$MAXACTVP
 70
    64
  9
$PINSBASE
 10
0.0
 20
0.0
 30
0.0
  9
$PLIMCHECK
 70
     0
  9
$PEXTMIN
 10
1.000000000000000E+20
 20
1.000000000000000E+20
 30
1.000000000000000E+20
  9
$PEXTMAX
 10
-1.000000000000000E+20
 20
-1.000000000000000E+20
 30
-1.000000000000000E+20
  9
$PLIMMIN
 10
0.0
 20
0.0
  9
$PLIMMAX
 10
12.0
 20
9.0
  9
$UNITMODE
 70
     0
  9
$VISRETAIN
 70
     1
  9
$PLINEGEN
 70
     0
  9
$PSLTSCALE
 70
     1
  9
$TREEDEPTH
 70
  3020
  9
$PICKSTYLE
 70
     1
  9
$CMLSTYLE
  2
STANDARD
  9
$CMLJUST
 70
     0
  9
$CMLSCALE
 40
1.0
  9
$SAVEIMAGES
 70
     1
  0
ENDSEC
  0
SECTION
  2
CLASSES
  0
CLASS
  1
ACDBDICTIONARYWDFLT
  2
AcDbDictionaryWithDefault
  3
ObjectDBX Classes
 90
    32768
280
     0
281
     0
  0
CLASS
  1
VISUALSTYLE
  2
AcDbVisualStyle
  3
ObjectDBX Classes
 90
     4095
280
     0
281
     0
  0
CLASS
  1
XRECORD
  2
AcDbXrecord
  3
AutoCAD 2000
 90
    32768
280
     0
281
     0
  0
CLASS
  1
LWPOLYLINE
  2
AcDbPolyline
  3
AutoCAD 2000
 90
    32768
280
     0
281
     1
  0
CLASS
  1
HATCH
  2
AcDbHatch
  3
AutoCAD 2000
 90
    32768
280
     0
281
     1
  0
CLASS
  1
ACDBPLACEHOLDER
  2
AcDbPlaceHolder
  3
ObjectDBX Classes
 90
        0
280
     0
281
     0
  0
CLASS
  1
LAYOUT
  2
AcDbLayout
  3
ObjectDBX Classes
 90
        0
280
     0
281
     0
  0
ENDSEC
  0
SECTION
  2
TABLES
  0
TABLE
  2
VPORT
  5
8
330
0
100
AcDbSymbolTable
 70
     1
  0
VPORT
  5
29
330
8
100
AcDbSymbolTableRecord
100
AcDbViewportTableRecord
  2
*ACTIVE
 70
     0
 10
0.0
 20
0.0
 11
1.0
 21
1.0
 12
0.0
 22
0.0
 13
0.0
 23
0.0
 14
0.5
 24
0.5
 15
0.5
 25
0.5
 16
0.0
 26
0.0
 36
1.0
 17
105.0008259828644
 27
-148.4999796178229
 37
0.0
 40
296.9999592356459
 41
0.7070763662937379
 42
50.0
 43
0.0
 44
0.0
 50
0.0
 51
0.0
 71
     0
 72
   100
 73
     1
 74
     3
 75
     0
 76
     0
 77
     0
 78
     0
  0
ENDTAB
  0
TABLE
  2
LTYPE
  5
5
330
0
100
AcDbSymbolTable
 70
    36
  0
LTYPE
  5
14
330
5
100
AcDbSymbolTableRecord
100
AcDbLinetypeTableRecord
  2
BYBLOCK
 70
     0
  3

 72
    65
 73
     0
 40
0.0
  0
LTYPE
  5
15
330
5
100
AcDbSymbolTableRecord
100
AcDbLinetypeTableRecord
  2
BYLAYER
 70
     0
  3

 72
    65
 73
     0
 40
0.0
  0
LTYPE
  5
16
330
5
100
AcDbSymbolTableRecord
100
AcDbLinetypeTableRecord
  2
CONTINUOUS
 70
     0
  3
Solid line
 72
    65
 73
     0
 40
0.0
  0
LTYPE
  5
BA
330
5
100
AcDbSymbolTableRecord
100
AcDbLinetypeTableRecord
  2
AI-LINETYPE-1
 70
     0
  3
Adobe Illustrator Linetype No. 1
 72
    65
 73
     2
 40
2.1166666661375
 49
1.05833333306875
 74
     0
 49
-1.05833333306875
 74
     0
  0
LTYPE
  5
C3
330
5
100
AcDbSymbolTableRecord
100
AcDbLinetypeTableRecord
  2
AI-LINETYPE-2
 70
     0
  3
Adobe Illustrator Linetype No. 2
 72
    65
 73
     2
 40
2.1166666661375
 49
1.05833333306875
 74
     0
 49
-1.05833333306875
 74
     0
  0
LTYPE
  5
D0
330
5
100
AcDbSymbolTableRecord
100
AcDbLinetypeTableRecord
  2
AI-LINETYPE-3
 70
     0
  3
Adobe Illustrator Linetype No. 3
 72
    65
 73
     2
 40
2.1166666661375
 49
1.05833333306875
 74
     0
 49
-1.05833333306875
 74
     0
  0
LTYPE
  5
D5
330
5
100
AcDbSymbolTableRecord
100
AcDbLinetypeTableRecord
  2
AI-LINETYPE-4
 70
     0
  3
Adobe Illustrator Linetype No. 4
 72
    65
 73
     2
 40
2.1166666661375
 49
1.05833333306875
 74
     0
 49
-1.05833333306875
 74
     0
  0
LTYPE
  5
DE
330
5
100
AcDbSymbolTableRecord
100
AcDbLinetypeTableRecord
  2
AI-LINETYPE-5
 70
     0
  3
Adobe Illustrator Linetype No. 5
 72
    65
 73
     2
 40
2.1166666661375
 49
1.05833333306875
 74
     0
 49
-1.05833333306875
 74
     0
  0
LTYPE
  5
EB
330
5
100
AcDbSymbolTableRecord
100
AcDbLinetypeTableRecord
  2
AI-LINETYPE-6
 70
     0
  3
Adobe Illustrator Linetype No. 6
 72
    65
 73
     2
 40
2.1166666661375
 49
1.05833333306875
 74
     0
 49
-1.05833333306875
 74
     0
  0
LTYPE
  5
F0
330
5
100
AcDbSymbolTableRecord
100
AcDbLinetypeTableRecord
  2
AI-LINETYPE-7
 70
     0
  3
Adobe Illustrator Linetype No. 7
 72
    65
 73
     2
 40
2.1166666661375
 49
1.05833333306875
 74
     0
 49
-1.05833333306875
 74
     0
  0
LTYPE
  5
F9
330
5
100
AcDbSymbolTableRecord
100
AcDbLinetypeTableRecord
  2
AI-LINETYPE-8
 70
     0
  3
Adobe Illustrator Linetype No. 8
 72
    65
 73
     2
 40
2.1166666661375
 49
1.05833333306875
 74
     0
 49
-1.05833333306875
 74
     0
  0
LTYPE
  5
106
330
5
100
AcDbSymbolTableRecord
100
AcDbLinetypeTableRecord
  2
AI-LINETYPE-9
 70
     0
  3
Adobe Illustrator Linetype No. 9
 72
    65
 73
     2
 40
2.1166666661375
 49
1.05833333306875
 74
     0
 49
-1.05833333306875
 74
     0
  0
LTYPE
  5
10B
330
5
100
AcDbSymbolTableRecord
100
AcDbLinetypeTableRecord
  2
AI-LINETYPE-10
 70
     0
  3
Adobe Illustrator Linetype No. 10
 72
    65
 73
     2
 40
2.1166666661375
 49
1.05833333306875
 74
     0
 49
-1.05833333306875
 74
     0
  0
LTYPE
  5
114
330
5
100
AcDbSymbolTableRecord
100
AcDbLinetypeTableRecord
  2
AI-LINETYPE-11
 70
     0
  3
Adobe Illustrator Linetype No. 11
 72
    65
 73
     2
 40
2.1166666661375
 49
1.05833333306875
 74
     0
 49
-1.05833333306875
 74
     0
  0
LTYPE
  5
121
330
5
100
AcDbSymbolTableRecord
100
AcDbLinetypeTableRecord
  2
AI-LINETYPE-12
 70
     0
  3
Adobe Illustrator Linetype No. 12
 72
    65
 73
     2
 40
2.1166666661375
 49
1.05833333306875
 74
     0
 49
-1.05833333306875
 74
     0
  0
LTYPE
  5
126
330
5
100
AcDbSymbolTableRecord
100
AcDbLinetypeTableRecord
  2
AI-LINETYPE-13
 70
     0
  3
Adobe Illustrator Linetype No. 13
 72
    65
 73
     2
 40
2.1166666661375
 49
1.05833333306875
 74
     0
 49
-1.05833333306875
 74
     0
  0
LTYPE
  5
12F
330
5
100
AcDbSymbolTableRecord
100
AcDbLinetypeTableRecord
  2
AI-LINETYPE-14
 70
     0
  3
Adobe Illustrator Linetype No. 14
 72
    65
 73
     2
 40
2.1166666661375
 49
1.05833333306875
 74
     0
 49
-1.05833333306875
 74
     0
  0
LTYPE
  5
13C
330
5
100
AcDbSymbolTableRecord
100
AcDbLinetypeTableRecord
  2
AI-LINETYPE-15
 70
     0
  3
Adobe Illustrator Linetype No. 15
 72
    65
 73
     2
 40
2.1166666661375
 49
1.05833333306875
 74
     0
 49
-1.05833333306875
 74
     0
  0
LTYPE
  5
141
330
5
100
AcDbSymbolTableRecord
100
AcDbLinetypeTableRecord
  2
AI-LINETYPE-16
 70
     0
  3
Adobe Illustrator Linetype No. 16
 72
    65
 73
     2
 40
2.1166666661375
 49
1.05833333306875
 74
     0
 49
-1.05833333306875
 74
     0
  0
LTYPE
  5
14A
330
5
100
AcDbSymbolTableRecord
100
AcDbLinetypeTableRecord
  2
AI-LINETYPE-17
 70
     0
  3
Adobe Illustrator Linetype No. 17
 72
    65
 73
     2
 40
2.1166666661375
 49
1.05833333306875
 74
     0
 49
-1.05833333306875
 74
     0
  0
LTYPE
  5
157
330
5
100
AcDbSymbolTableRecord
100
AcDbLinetypeTableRecord
  2
AI-LINETYPE-18
 70
     0
  3
Adobe Illustrator Linetype No. 18
 72
    65
 73
     2
 40
2.1166666661375
 49
1.05833333306875
 74
     0
 49
-1.05833333306875
 74
     0
  0
LTYPE
  5
15C
330
5
100
AcDbSymbolTableRecord
100
AcDbLinetypeTableRecord
  2
AI-LINETYPE-19
 70
     0
  3
Adobe Illustrator Linetype No. 19
 72
    65
 73
     2
 40
2.1166666661375
 49
1.05833333306875
 74
     0
 49
-1.05833333306875
 74
     0
  0
LTYPE
  5
165
330
5
100
AcDbSymbolTableRecord
100
AcDbLinetypeTableRecord
  2
AI-LINETYPE-20
 70
     0
  3
Adobe Illustrator Linetype No. 20
 72
    65
 73
     2
 40
2.1166666661375
 49
1.05833333306875
 74
     0
 49
-1.05833333306875
 74
     0
  0
LTYPE
  5
172
330
5
100
AcDbSymbolTableRecord
100
AcDbLinetypeTableRecord
  2
AI-LINETYPE-21
 70
     0
  3
Adobe Illustrator Linetype No. 21
 72
    65
 73
     2
 40
2.1166666661375
 49
1.05833333306875
 74
     0
 49
-1.05833333306875
 74
     0
  0
LTYPE
  5
177
330
5
100
AcDbSymbolTableRecord
100
AcDbLinetypeTableRecord
  2
AI-LINETYPE-22
 70
     0
  3
Adobe Illustrator Linetype No. 22
 72
    65
 73
     2
 40
2.1166666661375
 49
1.05833333306875
 74
     0
 49
-1.05833333306875
 74
     0
  0
LTYPE
  5
180
330
5
100
AcDbSymbolTableRecord
100
AcDbLinetypeTableRecord
  2
AI-LINETYPE-23
 70
     0
  3
Adobe Illustrator Linetype No. 23
 72
    65
 73
     2
 40
2.1166666661375
 49
1.05833333306875
 74
     0
 49
-1.05833333306875
 74
     0
  0
LTYPE
  5
18D
330
5
100
AcDbSymbolTableRecord
100
AcDbLinetypeTableRecord
  2
AI-LINETYPE-24
 70
     0
  3
Adobe Illustrator Linetype No. 24
 72
    65
 73
     2
 40
2.1166666661375
 49
1.05833333306875
 74
     0
 49
-1.05833333306875
 74
     0
  0
LTYPE
  5
192
330
5
100
AcDbSymbolTableRecord
100
AcDbLinetypeTableRecord
  2
AI-LINETYPE-25
 70
     0
  3
Adobe Illustrator Linetype No. 25
 72
    65
 73
     2
 40
2.1166666661375
 49
1.05833333306875
 74
     0
 49
-1.05833333306875
 74
     0
  0
LTYPE
  5
19B
330
5
100
AcDbSymbolTableRecord
100
AcDbLinetypeTableRecord
  2
AI-LINETYPE-26
 70
     0
  3
Adobe Illustrator Linetype No. 26
 72
    65
 73
     2
 40
2.1166666661375
 49
1.05833333306875
 74
     0
 49
-1.05833333306875
 74
     0
  0
LTYPE
  5
1A8
330
5
100
AcDbSymbolTableRecord
100
AcDbLinetypeTableRecord
  2
AI-LINETYPE-27
 70
     0
  3
Adobe Illustrator Linetype No. 27
 72
    65
 73
     2
 40
2.1166666661375
 49
1.05833333306875
 74
     0
 49
-1.05833333306875
 74
     0
  0
LTYPE
  5
1AD
330
5
100
AcDbSymbolTableRecord
100
AcDbLinetypeTableRecord
  2
AI-LINETYPE-28
 70
     0
  3
Adobe Illustrator Linetype No. 28
 72
    65
 73
     2
 40
2.1166666661375
 49
1.05833333306875
 74
     0
 49
-1.05833333306875
 74
     0
  0
LTYPE
  5
1B6
330
5
100
AcDbSymbolTableRecord
100
AcDbLinetypeTableRecord
  2
AI-LINETYPE-29
 70
     0
  3
Adobe Illustrator Linetype No. 29
 72
    65
 73
     2
 40
2.1166666661375
 49
1.05833333306875
 74
     0
 49
-1.05833333306875
 74
     0
  0
LTYPE
  5
1C3
330
5
100
AcDbSymbolTableRecord
100
AcDbLinetypeTableRecord
  2
AI-LINETYPE-30
 70
     0
  3
Adobe Illustrator Linetype No. 30
 72
    65
 73
     2
 40
2.1166666661375
 49
1.05833333306875
 74
     0
 49
-1.05833333306875
 74
     0
  0
LTYPE
  5
1C8
330
5
100
AcDbSymbolTableRecord
100
AcDbLinetypeTableRecord
  2
AI-LINETYPE-31
 70
     0
  3
Adobe Illustrator Linetype No. 31
 72
    65
 73
     2
 40
2.1166666661375
 49
1.05833333306875
 74
     0
 49
-1.05833333306875
 74
     0
  0
LTYPE
  5
1D1
330
5
100
AcDbSymbolTableRecord
100
AcDbLinetypeTableRecord
  2
AI-LINETYPE-32
 70
     0
  3
Adobe Illustrator Linetype No. 32
 72
    65
 73
     2
 40
2.1166666661375
 49
1.05833333306875
 74
     0
 49
-1.05833333306875
 74
     0
  0
LTYPE
  5
1DE
330
5
100
AcDbSymbolTableRecord
100
AcDbLinetypeTableRecord
  2
AI-LINETYPE-33
 70
     0
  3
Adobe Illustrator Linetype No. 33
 72
    65
 73
     2
 40
2.1166666661375
 49
1.05833333306875
 74
     0
 49
-1.05833333306875
 74
     0
  0
LTYPE
  5
1E3
330
5
100
AcDbSymbolTableRecord
100
AcDbLinetypeTableRecord
  2
AI-LINETYPE-34
 70
     0
  3
Adobe Illustrator Linetype No. 34
 72
    65
 73
     2
 40
2.1166666661375
 49
1.05833333306875
 74
     0
 49
-1.05833333306875
 74
     0
  0
LTYPE
  5
1F0
330
5
100
AcDbSymbolTableRecord
100
AcDbLinetypeTableRecord
  2
AI-LINETYPE-35
 70
     0
  3
Adobe Illustrator Linetype No. 35
 72
    65
 73
     2
 40
2.1166666661375
 49
1.05833333306875
 74
     0
 49
-1.05833333306875
 74
     0
  0
ENDTAB
  0
TABLE
  2
LAYER
  5
2
330
0
100
AcDbSymbolTable
 70
     5
  0
LAYER
  5
10
330
2
100
AcDbSymbolTableRecord
100
AcDbLayerTableRecord
  2
0
 70
     0
 62
     7
  6
CONTINUOUS
  0
LAYER
  5
3B
330
2
100
AcDbSymbolTableRecord
100
AcDbLayerTableRecord
  2
CUTLINE
 70
     0
 62
     7
  6
CONTINUOUS
  0
LAYER
  5
B5
330
2
100
AcDbSymbolTableRecord
100
AcDbLayerTableRecord
  2
VALLEYLINE
 70
     0
 62
     7
  6
CONTINUOUS
  0
LAYER
  5
1F1
330
2
100
AcDbSymbolTableRecord
100
AcDbLayerTableRecord
  2
MOUNTAINLINE
 70
     0
 62
     7
  6
CONTINUOUS
  0
LAYER
  5
2F2
330
2
100
AcDbSymbolTableRecord
100
AcDbLayerTableRecord
  2
TEXT
 70
     0
 62
     7
  6
CONTINUOUS
  0
ENDTAB
  0
TABLE
  2
STYLE
  5
3
330
0
100
AcDbSymbolTable
 70
     1
  0
STYLE
  5
11
330
3
100
AcDbSymbolTableRecord
100
AcDbTextStyleTableRecord
  2
STANDARD
 70
     0
 40
0.0
 41
1.0
 50
0.0
 71
     0
 42
0.2
  3
txt
  4

  0
ENDTAB
  0
TABLE
  2
VIEW
  5
6
330
0
100
AcDbSymbolTable
 70
     0
  0
ENDTAB
  0
TABLE
  2
UCS
  5
7
330
0
100
AcDbSymbolTable
 70
     0
  0
ENDTAB
  0
TABLE
  2
APPID
  5
9
330
0
100
AcDbSymbolTable
 70
     1
  0
APPID
  5
12
330
9
100
AcDbSymbolTableRecord
100
AcDbRegAppTableRecord
  2
ACAD
 70
     0
  0
ENDTAB
  0
TABLE
  2
DIMSTYLE
  5
A
330
0
100
AcDbSymbolTable
 70
     1
  0
DIMSTYLE
105
27
330
A
100
AcDbSymbolTableRecord
100
AcDbDimStyleTableRecord
  2
STANDARD
 70
     0
  3

  4

  5

  6

  7

 40
1.0
 41
0.18
 42
0.0625
 43
0.38
 44
0.18
 45
0.0
 46
0.0
 47
0.0
 48
0.0
140
0.18
141
0.09
142
0.0
143
25.4
144
1.0
145
0.0
146
1.0
147
0.09
 71
     0
 72
     0
 73
     1
 74
     1
 75
     0
 76
     0
 77
     0
 78
     0
170
     0
171
     2
172
     0
173
     0
174
     0
175
     0
176
     0
177
     0
178
     0
270
     2
271
     4
272
     4
273
     2
274
     2
340
11
275
     0
280
     0
281
     0
282
     0
283
     1
284
     0
285
     0
286
     0
287
     3
288
     0
  0
ENDTAB
  0
TABLE
  2
BLOCK_RECORD
  5
1
330
0
100
AcDbSymbolTable
 70
    26
  0
BLOCK_RECORD
  5
1F
330
1
100
AcDbSymbolTableRecord
100
AcDbBlockTableRecord
  2
*MODEL_SPACE
  0
BLOCK_RECORD
  5
1B
330
1
100
AcDbSymbolTableRecord
100
AcDbBlockTableRecord
  2
*PAPER_SPACE
  0
BLOCK_RECORD
  5
3C
330
1
100
AcDbSymbolTableRecord
100
AcDbBlockTableRecord
  2
BLOCK_2
  0
BLOCK_RECORD
  5
45
330
1
100
AcDbSymbolTableRecord
100
AcDbBlockTableRecord
  2
BLOCK_3
  0
BLOCK_RECORD
  5
4D
330
1
100
AcDbSymbolTableRecord
100
AcDbBlockTableRecord
  2
BLOCK_4
  0
BLOCK_RECORD
  5
BB
330
1
100
AcDbSymbolTableRecord
100
AcDbBlockTableRecord
  2
BLOCK_5
  0
BLOCK_RECORD
  5
D6
330
1
100
AcDbSymbolTableRecord
100
AcDbBlockTableRecord
  2
BLOCK_6
  0
BLOCK_RECORD
  5
F1
330
1
100
AcDbSymbolTableRecord
100
AcDbBlockTableRecord
  2
BLOCK_7
  0
BLOCK_RECORD
  5
10C
330
1
100
AcDbSymbolTableRecord
100
AcDbBlockTableRecord
  2
BLOCK_8
  0
BLOCK_RECORD
  5
127
330
1
100
AcDbSymbolTableRecord
100
AcDbBlockTableRecord
  2
BLOCK_9
  0
BLOCK_RECORD
  5
142
330
1
100
AcDbSymbolTableRecord
100
AcDbBlockTableRecord
  2
BLOCK_10
  0
BLOCK_RECORD
  5
15D
330
1
100
AcDbSymbolTableRecord
100
AcDbBlockTableRecord
  2
BLOCK_11
  0
BLOCK_RECORD
  5
178
330
1
100
AcDbSymbolTableRecord
100
AcDbBlockTableRecord
  2
BLOCK_12
  0
BLOCK_RECORD
  5
193
330
1
100
AcDbSymbolTableRecord
100
AcDbBlockTableRecord
  2
BLOCK_13
  0
BLOCK_RECORD
  5
1AE
330
1
100
AcDbSymbolTableRecord
100
AcDbBlockTableRecord
  2
BLOCK_14
  0
BLOCK_RECORD
  5
1C9
330
1
100
AcDbSymbolTableRecord
100
AcDbBlockTableRecord
  2
BLOCK_15
  0
BLOCK_RECORD
  5
1F2
330
1
100
AcDbSymbolTableRecord
100
AcDbBlockTableRecord
  2
BLOCK_16
  0
BLOCK_RECORD
  5
208
330
1
100
AcDbSymbolTableRecord
100
AcDbBlockTableRecord
  2
BLOCK_17
  0
BLOCK_RECORD
  5
21E
330
1
100
AcDbSymbolTableRecord
100
AcDbBlockTableRecord
  2
BLOCK_18
  0
BLOCK_RECORD
  5
234
330
1
100
AcDbSymbolTableRecord
100
AcDbBlockTableRecord
  2
BLOCK_19
  0
BLOCK_RECORD
  5
24A
330
1
100
AcDbSymbolTableRecord
100
AcDbBlockTableRecord
  2
BLOCK_20
  0
BLOCK_RECORD
  5
260
330
1
100
AcDbSymbolTableRecord
100
AcDbBlockTableRecord
  2
BLOCK_21
  0
BLOCK_RECORD
  5
276
330
1
100
AcDbSymbolTableRecord
100
AcDbBlockTableRecord
  2
BLOCK_22
  0
BLOCK_RECORD
  5
28C
330
1
100
AcDbSymbolTableRecord
100
AcDbBlockTableRecord
  2
BLOCK_23
  0
BLOCK_RECORD
  5
2A2
330
1
100
AcDbSymbolTableRecord
100
AcDbBlockTableRecord
  2
BLOCK_24
  0
BLOCK_RECORD
  5
2B8
330
1
100
AcDbSymbolTableRecord
100
AcDbBlockTableRecord
  2
BLOCK_25
  0
BLOCK_RECORD
  5
2CE
330
1
100
AcDbSymbolTableRecord
100
AcDbBlockTableRecord
  2
BLOCK_26
  0
ENDTAB
  0
ENDSEC
  0
SECTION
  2
BLOCKS
  0
BLOCK
  5
20
330
1F
100
AcDbEntity
  8
0
100
AcDbBlockBegin
  2
*MODEL_SPACE
 70
     0
 71
     0
 10
0.0
 20
0.0
 30
0.0
  3
*MODEL_SPACE
  1

  0
ENDBLK
  5
21
330
1F
100
AcDbEntity
  8
0
100
AcDbBlockEnd
  0
BLOCK
  5
1C
330
1B
100
AcDbEntity
 67
     1
  8
0
100
AcDbBlockBegin
  2
*PAPER_SPACE
 70
     0
 71
     0
 10
0.0
 20
0.0
 30
0.0
  3
*PAPER_SPACE
  1

  0
ENDBLK
  5
1D
330
1B
100
AcDbEntity
 67
     1
  8
0
100
AcDbBlockEnd
  0
BLOCK
  5
3E
330
3C
100
AcDbEntity
  8
0
100
AcDbBlockBegin
  2
BLOCK_2
 70
     0
 71
     0
 10
0.0
 20
0.0
 30
0.0
  3
BLOCK_2
  1

  0
POLYLINE
  5
40
330
3C
100
AcDbEntity
  8
CUTLINE
 62
    29
100
AcDb2dPolyline
 66
     1
 10
0.0
 20
0.0
 30
0.0
  0
VERTEX
  5
41
330
40
100
AcDbEntity
  8
CUTLINE
 62
    29
100
AcDbVertex
100
AcDb2dVertex
 10
131.9705837343685
 20
-30.93592392889796
 30
0.0
  0
VERTEX
  5
42
330
40
100
AcDbEntity
  8
CUTLINE
 62
    29
100
AcDbVertex
100
AcDb2dVertex
 10
131.9705837343685
 20
-284.7412759704814
 30
0.0
  0
VERTEX
  5
43
330
40
100
AcDbEntity
  8
CUTLINE
 62
    29
100
AcDbVertex
100
AcDb2dVertex
 10
68.34208168864365
 20
-284.7412759704814
 30
0.0
  0
SEQEND
  5
44
330
40
100
AcDbEntity
  8
CUTLINE
  0
ENDBLK
  5
3F
330
3C
100
AcDbEntity
  8
0
100
AcDbBlockEnd
  0
BLOCK
  5
47
330
45
100
AcDbEntity
  8
0
100
AcDbBlockBegin
  2
BLOCK_3
 70
     0
 71
     0
 10
0.0
 20
0.0
 30
0.0
  3
BLOCK_3
  1

  0
POLYLINE
  5
49
330
45
100
AcDbEntity
  8
CUTLINE
 62
    29
100
AcDb2dPolyline
 66
     1
 10
0.0
 20
0.0
 30
0.0
  0
VERTEX
  5
4A
330
49
100
AcDbEntity
  8
CUTLINE
 62
    29
100
AcDbVertex
100
AcDb2dVertex
 10
68.34208168864365
 20
-30.93592392889796
 30
0.0
  0
VERTEX
  5
4B
330
49
100
AcDbEntity
  8
CUTLINE
 62
    29
100
AcDbVertex
100
AcDb2dVertex
 10
68.34208168864365
 20
-284.7412759704814
 30
0.0
  0
SEQEND
  5
4C
330
49
100
AcDbEntity
  8
CUTLINE
  0
ENDBLK
  5
48
330
45
100
AcDbEntity
  8
0
100
AcDbBlockEnd
  0
BLOCK
  5
4F
330
4D
100
AcDbEntity
  8
0
100
AcDbBlockBegin
  2
BLOCK_4
 70
     0
 71
     0
 10
0.0
 20
0.0
 30
0.0
  3
BLOCK_4
  1

  0
POLYLINE
  5
51
330
4D
100
AcDbEntity
  8
CUTLINE
 62
    29
100
AcDb2dPolyline
 66
     1
 10
0.0
 20
0.0
 30
0.0
  0
VERTEX
  5
52
330
51
100
AcDbEntity
  8
CUTLINE
 62
    29
100
AcDbVertex
100
AcDb2dVertex
 10
131.9705837343685
 20
-30.93592392889796
 30
0.0
  0
VERTEX
  5
53
330
51
100
AcDbEntity
  8
CUTLINE
 62
    29
100
AcDbVertex
100
AcDb2dVertex
 10
68.34208168864365
 20
-30.93592392889796
 30
0.0
  0
SEQEND
  5
54
330
51
100
AcDbEntity
  8
CUTLINE
  0
ENDBLK
  5
50
330
4D
100
AcDbEntity
  8
0
100
AcDbBlockEnd
  0
BLOCK
  5
BD
330
BB
100
AcDbEntity
  8
0
100
AcDbBlockBegin
  2
BLOCK_5
 70
     0
 71
     0
 10
0.0
 20
0.0
 30
0.0
  3
BLOCK_5
  1

  0
POLYLINE
  5
BF
330
BB
100
AcDbEntity
  8
VALLEYLINE
  6
AI-LINETYPE-2
 62
    29
100
AcDb2dPolyline
 66
     1
 10
0.0
 20
0.0
 30
0.0
  0
VERTEX
  5
C0
330
BF
100
AcDbEntity
  8
VALLEYLINE
  6
AI-LINETYPE-2
 62
    29
100
AcDbVertex
100
AcDb2dVertex
 10
99.4778211556861
 20
-115.537650524501
 30
0.0
  0
VERTEX
  5
C1
330
BF
100
AcDbEntity
  8
VALLEYLINE
  6
AI-LINETYPE-2
 62
    29
100
AcDbVertex
100
AcDb2dVertex
 10
68.34208168864365
 20
-115.537650524501
 30
0.0
  0
SEQEND
  5
C2
330
BF
100
AcDbEntity
  8
VALLEYLINE
  6
AI-LINETYPE-2
  0
ENDBLK
  5
BE
330
BB
100
AcDbEntity
  8
0
100
AcDbBlockEnd
  0
BLOCK
  5
D8
330
D6
100
AcDbEntity
  8
0
100
AcDbBlockBegin
  2
BLOCK_6
 70
     0
 71
     0
 10
0.0
 20
0.0
 30
0.0
  3
BLOCK_6
  1

  0
POLYLINE
  5
DA
330
D6
100
AcDbEntity
  8
VALLEYLINE
  6
AI-LINETYPE-5
 62
    29
100
AcDb2dPolyline
 66
     1
 10
0.0
 20
0.0
 30
0.0
  0
VERTEX
  5
DB
330
DA
100
AcDbEntity
  8
VALLEYLINE
  6
AI-LINETYPE-5
 62
    29
100
AcDbVertex
100
AcDb2dVertex
 10
99.4778211556861
 20
-136.6884697466439
 30
0.0
  0
VERTEX
  5
DC
330
DA
100
AcDbEntity
  8
VALLEYLINE
  6
AI-LINETYPE-5
 62
    29
100
AcDbVertex
100
AcDb2dVertex
 10
68.34208168864365
 20
-136.6884697466439
 30
0.0
  0
SEQEND
  5
DD
330
DA
100
AcDbEntity
  8
VALLEYLINE
  6
AI-LINETYPE-5
  0
ENDBLK
  5
D9
330
D6
100
AcDbEntity
  8
0
100
AcDbBlockEnd
  0
BLOCK
  5
F3
330
F1
100
AcDbEntity
  8
0
100
AcDbBlockBegin
  2
BLOCK_7
 70
     0
 71
     0
 10
0.0
 20
0.0
 30
0.0
  3
BLOCK_7
  1

  0
POLYLINE
  5
F5
330
F1
100
AcDbEntity
  8
VALLEYLINE
  6
AI-LINETYPE-8
 62
    29
100
AcDb2dPolyline
 66
     1
 10
0.0
 20
0.0
 30
0.0
  0
VERTEX
  5
F6
330
F5
100
AcDbEntity
  8
VALLEYLINE
  6
AI-LINETYPE-8
 62
    29
100
AcDbVertex
100
AcDb2dVertex
 10
99.4778211556861
 20
-157.8384276949154
 30
0.0
  0
VERTEX
  5
F7
330
F5
100
AcDbEntity
  8
VALLEYLINE
  6
AI-LINETYPE-8
 62
    29
100
AcDbVertex
100
AcDb2dVertex
 10
68.34208168864365
 20
-157.8384276949154
 30
0.0
  0
SEQEND
  5
F8
330
F5
100
AcDbEntity
  8
VALLEYLINE
  6
AI-LINETYPE-8
  0
ENDBLK
  5
F4
330
F1
100
AcDbEntity
  8
0
100
AcDbBlockEnd
  0
BLOCK
  5
10E
330
10C
100
AcDbEntity
  8
0
100
AcDbBlockBegin
  2
BLOCK_8
 70
     0
 71
     0
 10
0.0
 20
0.0
 30
0.0
  3
BLOCK_8
  1

  0
POLYLINE
  5
110
330
10C
100
AcDbEntity
  8
VALLEYLINE
  6
AI-LINETYPE-11
 62
    29
100
AcDb2dPolyline
 66
     1
 10
0.0
 20
0.0
 30
0.0
  0
VERTEX
  5
111
330
110
100
AcDbEntity
  8
VALLEYLINE
  6
AI-LINETYPE-11
 62
    29
100
AcDbVertex
100
AcDb2dVertex
 10
99.4778211556861
 20
-178.9885578979612
 30
0.0
  0
VERTEX
  5
112
330
110
100
AcDbEntity
  8
VALLEYLINE
  6
AI-LINETYPE-11
 62
    29
100
AcDbVertex
100
AcDb2dVertex
 10
68.34208168864365
 20
-178.9885578979612
 30
0.0
  0
SEQEND
  5
113
330
110
100
AcDbEntity
  8
VALLEYLINE
  6
AI-LINETYPE-11
  0
ENDBLK
  5
10F
330
10C
100
AcDbEntity
  8
0
100
AcDbBlockEnd
  0
BLOCK
  5
129
330
127
100
AcDbEntity
  8
0
100
AcDbBlockBegin
  2
BLOCK_9
 70
     0
 71
     0
 10
0.0
 20
0.0
 30
0.0
  3
BLOCK_9
  1

  0
POLYLINE
  5
12B
330
127
100
AcDbEntity
  8
VALLEYLINE
  6
AI-LINETYPE-14
 62
    29
100
AcDb2dPolyline
 66
     1
 10
0.0
 20
0.0
 30
0.0
  0
VERTEX
  5
12C
330
12B
100
AcDbEntity
  8
VALLEYLINE
  6
AI-LINETYPE-14
 62
    29
100
AcDbVertex
100
AcDb2dVertex
 10
99.4778211556861
 20
-200.1393771201041
 30
0.0
  0
VERTEX
  5
12D
330
12B
100
AcDbEntity
  8
VALLEYLINE
  6
AI-LINETYPE-14
 62
    29
100
AcDbVertex
100
AcDb2dVertex
 10
68.34208168864365
 20
-200.1393771201041
 30
0.0
  0
SEQEND
  5
12E
330
12B
100
AcDbEntity
  8
VALLEYLINE
  6
AI-LINETYPE-14
  0
ENDBLK
  5
12A
330
127
100
AcDbEntity
  8
0
100
AcDbBlockEnd
  0
BLOCK
  5
144
330
142
100
AcDbEntity
  8
0
100
AcDbBlockBegin
  2
BLOCK_10
 70
     0
 71
     0
 10
0.0
 20
0.0
 30
0.0
  3
BLOCK_10
  1

  0
POLYLINE
  5
146
330
142
100
AcDbEntity
  8
VALLEYLINE
  6
AI-LINETYPE-17
 62
    29
100
AcDb2dPolyline
 66
     1
 10
0.0
 20
0.0
 30
0.0
  0
VERTEX
  5
147
330
146
100
AcDbEntity
  8
VALLEYLINE
  6
AI-LINETYPE-17
 62
    29
100
AcDbVertex
100
AcDb2dVertex
 10
99.4778211556861
 20
-221.2895073231498
 30
0.0
  0
VERTEX
  5
148
330
146
100
AcDbEntity
  8
VALLEYLINE
  6
AI-LINETYPE-17
 62
    29
100
AcDbVertex
100
AcDb2dVertex
 10
68.34208168864365
 20
-221.2895073231498
 30
0.0
  0
SEQEND
  5
149
330
146
100
AcDbEntity
  8
VALLEYLINE
  6
AI-LINETYPE-17
  0
ENDBLK
  5
145
330
142
100
AcDbEntity
  8
0
100
AcDbBlockEnd
  0
BLOCK
  5
15F
330
15D
100
AcDbEntity
  8
0
100
AcDbBlockBegin
  2
BLOCK_11
 70
     0
 71
     0
 10
0.0
 20
0.0
 30
0.0
  3
BLOCK_11
  1

  0
POLYLINE
  5
161
330
15D
100
AcDbEntity
  8
VALLEYLINE
  6
AI-LINETYPE-20
 62
    29
100
AcDb2dPolyline
 66
     1
 10
0.0
 20
0.0
 30
0.0
  0
VERTEX
  5
162
330
161
100
AcDbEntity
  8
VALLEYLINE
  6
AI-LINETYPE-20
 62
    29
100
AcDbVertex
100
AcDb2dVertex
 10
99.4778211556861
 20
-242.4403265452927
 30
0.0
  0
VERTEX
  5
163
330
161
100
AcDbEntity
  8
VALLEYLINE
  6
AI-LINETYPE-20
 62
    29
100
AcDbVertex
100
AcDb2dVertex
 10
68.34208168864365
 20
-242.4403265452927
 30
0.0
  0
SEQEND
  5
164
330
161
100
AcDbEntity
  8
VALLEYLINE
  6
AI-LINETYPE-20
  0
ENDBLK
  5
160
330
15D
100
AcDbEntity
  8
0
100
AcDbBlockEnd
  0
BLOCK
  5
17A
330
178
100
AcDbEntity
  8
0
100
AcDbBlockBegin
  2
BLOCK_12
 70
     0
 71
     0
 10
0.0
 20
0.0
 30
0.0
  3
BLOCK_12
  1

  0
POLYLINE
  5
17C
330
178
100
AcDbEntity
  8
VALLEYLINE
  6
AI-LINETYPE-23
 62
    29
100
AcDb2dPolyline
 66
     1
 10
0.0
 20
0.0
 30
0.0
  0
VERTEX
  5
17D
330
17C
100
AcDbEntity
  8
VALLEYLINE
  6
AI-LINETYPE-23
 62
    29
100
AcDbVertex
100
AcDb2dVertex
 10
99.4778211556861
 20
-263.5904567483385
 30
0.0
  0
VERTEX
  5
17E
330
17C
100
AcDbEntity
  8
VALLEYLINE
  6
AI-LINETYPE-23
 62
    29
100
AcDbVertex
100
AcDb2dVertex
 10
68.34208168864365
 20
-263.5904567483385
 30
0.0
  0
SEQEND
  5
17F
330
17C
100
AcDbEntity
  8
VALLEYLINE
  6
AI-LINETYPE-23
  0
ENDBLK
  5
17B
330
178
100
AcDbEntity
  8
0
100
AcDbBlockEnd
  0
BLOCK
  5
195
330
193
100
AcDbEntity
  8
0
100
AcDbBlockBegin
  2
BLOCK_13
 70
     0
 71
     0
 10
0.0
 20
0.0
 30
0.0
  3
BLOCK_13
  1

  0
POLYLINE
  5
197
330
193
100
AcDbEntity
  8
VALLEYLINE
  6
AI-LINETYPE-26
 62
    29
100
AcDb2dPolyline
 66
     1
 10
0.0
 20
0.0
 30
0.0
  0
VERTEX
  5
198
330
197
100
AcDbEntity
  8
VALLEYLINE
  6
AI-LINETYPE-26
 62
    29
100
AcDbVertex
100
AcDb2dVertex
 10
99.4778211556861
 20
-94.38734806668094
 30
0.0
  0
VERTEX
  5
199
330
197
100
AcDbEntity
  8
VALLEYLINE
  6
AI-LINETYPE-26
 62
    29
100
AcDbVertex
100
AcDb2dVertex
 10
68.34208168864365
 20
-94.38734806668094
 30
0.0
  0
SEQEND
  5
19A
330
197
100
AcDbEntity
  8
VALLEYLINE
  6
AI-LINETYPE-26
  0
ENDBLK
  5
196
330
193
100
AcDbEntity
  8
0
100
AcDbBlockEnd
  0
BLOCK
  5
1B0
330
1AE
100
AcDbEntity
  8
0
100
AcDbBlockBegin
  2
BLOCK_14
 70
     0
 71
     0
 10
0.0
 20
0.0
 30
0.0
  3
BLOCK_14
  1

  0
POLYLINE
  5
1B2
330
1AE
100
AcDbEntity
  8
VALLEYLINE
  6
AI-LINETYPE-29
 62
    29
100
AcDb2dPolyline
 66
     1
 10
0.0
 20
0.0
 30
0.0
  0
VERTEX
  5
1B3
330
1B2
100
AcDbEntity
  8
VALLEYLINE
  6
AI-LINETYPE-29
 62
    29
100
AcDbVertex
100
AcDb2dVertex
 10
99.4778211556861
 20
-73.23687335408661
 30
0.0
  0
VERTEX
  5
1B4
330
1B2
100
AcDbEntity
  8
VALLEYLINE
  6
AI-LINETYPE-29
 62
    29
100
AcDbVertex
100
AcDb2dVertex
 10
68.34208168864365
 20
-73.23687335408661
 30
0.0
  0
SEQEND
  5
1B5
330
1B2
100
AcDbEntity
  8
VALLEYLINE
  6
AI-LINETYPE-29
  0
ENDBLK
  5
1B1
330
1AE
100
AcDbEntity
  8
0
100
AcDbBlockEnd
  0
BLOCK
  5
1CB
330
1C9
100
AcDbEntity
  8
0
100
AcDbBlockBegin
  2
BLOCK_15
 70
     0
 71
     0
 10
0.0
 20
0.0
 30
0.0
  3
BLOCK_15
  1

  0
POLYLINE
  5
1CD
330
1C9
100
AcDbEntity
  8
VALLEYLINE
  6
AI-LINETYPE-32
 62
    29
100
AcDb2dPolyline
 66
     1
 10
0.0
 20
0.0
 30
0.0
  0
VERTEX
  5
1CE
330
1CD
100
AcDbEntity
  8
VALLEYLINE
  6
AI-LINETYPE-32
 62
    29
100
AcDbVertex
100
AcDb2dVertex
 10
99.4778211556861
 20
-52.08657089626655
 30
0.0
  0
VERTEX
  5
1CF
330
1CD
100
AcDbEntity
  8
VALLEYLINE
  6
AI-LINETYPE-32
 62
    29
100
AcDbVertex
100
AcDb2dVertex
 10
68.34208168864365
 20
-52.08657089626655
 30
0.0
  0
SEQEND
  5
1D0
330
1CD
100
AcDbEntity
  8
VALLEYLINE
  6
AI-LINETYPE-32
  0
ENDBLK
  5
1CC
330
1C9
100
AcDbEntity
  8
0
100
AcDbBlockEnd
  0
BLOCK
  5
1F4
330
1F2
100
AcDbEntity
  8
0
100
AcDbBlockBegin
  2
BLOCK_16
 70
     0
 71
     0
 10
0.0
 20
0.0
 30
0.0
  3
BLOCK_16
  1

  0
POLYLINE
  5
1F6
330
1F2
100
AcDbEntity
  8
MOUNTAINLINE
 62
    29
100
AcDb2dPolyline
 66
     1
 10
0.0
 20
0.0
 30
0.0
  0
VERTEX
  5
1F7
330
1F6
100
AcDbEntity
  8
MOUNTAINLINE
 62
    29
100
AcDbVertex
100
AcDb2dVertex
 10
131.9705837343685
 20
-115.537650524501
 30
0.0
  0
VERTEX
  5
1F8
330
1F6
100
AcDbEntity
  8
MOUNTAINLINE
 62
    29
100
AcDbVertex
100
AcDb2dVertex
 10
99.4778211556861
 20
-115.537650524501
 30
0.0
  0
SEQEND
  5
1F9
330
1F6
100
AcDbEntity
  8
MOUNTAINLINE
  0
ENDBLK
  5
1F5
330
1F2
100
AcDbEntity
  8
0
100
AcDbBlockEnd
  0
BLOCK
  5
20A
330
208
100
AcDbEntity
  8
0
100
AcDbBlockBegin
  2
BLOCK_17
 70
     0
 71
     0
 10
0.0
 20
0.0
 30
0.0
  3
BLOCK_17
  1

  0
POLYLINE
  5
20C
330
208
100
AcDbEntity
  8
MOUNTAINLINE
 62
    29
100
AcDb2dPolyline
 66
     1
 10
0.0
 20
0.0
 30
0.0
  0
VERTEX
  5
20D
330
20C
100
AcDbEntity
  8
MOUNTAINLINE
 62
    29
100
AcDbVertex
100
AcDb2dVertex
 10
131.9705837343685
 20
-136.6884697466439
 30
0.0
  0
VERTEX
  5
20E
330
20C
100
AcDbEntity
  8
MOUNTAINLINE
 62
    29
100
AcDbVertex
100
AcDb2dVertex
 10
99.4778211556861
 20
-136.6884697466439
 30
0.0
  0
SEQEND
  5
20F
330
20C
100
AcDbEntity
  8
MOUNTAINLINE
  0
ENDBLK
  5
20B
330
208
100
AcDbEntity
  8
0
100
AcDbBlockEnd
  0
BLOCK
  5
220
330
21E
100
AcDbEntity
  8
0
100
AcDbBlockBegin
  2
BLOCK_18
 70
     0
 71
     0
 10
0.0
 20
0.0
 30
0.0
  3
BLOCK_18
  1

  0
POLYLINE
  5
222
330
21E
100
AcDbEntity
  8
MOUNTAINLINE
 62
    29
100
AcDb2dPolyline
 66
     1
 10
0.0
 20
0.0
 30
0.0
  0
VERTEX
  5
223
330
222
100
AcDbEntity
  8
MOUNTAINLINE
 62
    29
100
AcDbVertex
100
AcDb2dVertex
 10
131.9705837343685
 20
-157.8384276949154
 30
0.0
  0
VERTEX
  5
224
330
222
100
AcDbEntity
  8
MOUNTAINLINE
 62
    29
100
AcDbVertex
100
AcDb2dVertex
 10
99.4778211556861
 20
-157.8384276949154
 30
0.0
  0
SEQEND
  5
225
330
222
100
AcDbEntity
  8
MOUNTAINLINE
  0
ENDBLK
  5
221
330
21E
100
AcDbEntity
  8
0
100
AcDbBlockEnd
  0
BLOCK
  5
236
330
234
100
AcDbEntity
  8
0
100
AcDbBlockBegin
  2
BLOCK_19
 70
     0
 71
     0
 10
0.0
 20
0.0
 30
0.0
  3
BLOCK_19
  1

  0
POLYLINE
  5
238
330
234
100
AcDbEntity
  8
MOUNTAINLINE
 62
    29
100
AcDb2dPolyline
 66
     1
 10
0.0
 20
0.0
 30
0.0
  0
VERTEX
  5
239
330
238
100
AcDbEntity
  8
MOUNTAINLINE
 62
    29
100
AcDbVertex
100
AcDb2dVertex
 10
131.9705837343685
 20
-178.9885578979612
 30
0.0
  0
VERTEX
  5
23A
330
238
100
AcDbEntity
  8
MOUNTAINLINE
 62
    29
100
AcDbVertex
100
AcDb2dVertex
 10
99.4778211556861
 20
-178.9885578979612
 30
0.0
  0
SEQEND
  5
23B
330
238
100
AcDbEntity
  8
MOUNTAINLINE
  0
ENDBLK
  5
237
330
234
100
AcDbEntity
  8
0
100
AcDbBlockEnd
  0
BLOCK
  5
24C
330
24A
100
AcDbEntity
  8
0
100
AcDbBlockBegin
  2
BLOCK_20
 70
     0
 71
     0
 10
0.0
 20
0.0
 30
0.0
  3
BLOCK_20
  1

  0
POLYLINE
  5
24E
330
24A
100
AcDbEntity
  8
MOUNTAINLINE
 62
    29
100
AcDb2dPolyline
 66
     1
 10
0.0
 20
0.0
 30
0.0
  0
VERTEX
  5
24F
330
24E
100
AcDbEntity
  8
MOUNTAINLINE
 62
    29
100
AcDbVertex
100
AcDb2dVertex
 10
131.9705837343685
 20
-200.1393771201041
 30
0.0
  0
VERTEX
  5
250
330
24E
100
AcDbEntity
  8
MOUNTAINLINE
 62
    29
100
AcDbVertex
100
AcDb2dVertex
 10
99.4778211556861
 20
-200.1393771201041
 30
0.0
  0
SEQEND
  5
251
330
24E
100
AcDbEntity
  8
MOUNTAINLINE
  0
ENDBLK
  5
24D
330
24A
100
AcDbEntity
  8
0
100
AcDbBlockEnd
  0
BLOCK
  5
262
330
260
100
AcDbEntity
  8
0
100
AcDbBlockBegin
  2
BLOCK_21
 70
     0
 71
     0
 10
0.0
 20
0.0
 30
0.0
  3
BLOCK_21
  1

  0
POLYLINE
  5
264
330
260
100
AcDbEntity
  8
MOUNTAINLINE
 62
    29
100
AcDb2dPolyline
 66
     1
 10
0.0
 20
0.0
 30
0.0
  0
VERTEX
  5
265
330
264
100
AcDbEntity
  8
MOUNTAINLINE
 62
    29
100
AcDbVertex
100
AcDb2dVertex
 10
131.9705837343685
 20
-221.2895073231498
 30
0.0
  0
VERTEX
  5
266
330
264
100
AcDbEntity
  8
MOUNTAINLINE
 62
    29
100
AcDbVertex
100
AcDb2dVertex
 10
99.4778211556861
 20
-221.2895073231498
 30
0.0
  0
SEQEND
  5
267
330
264
100
AcDbEntity
  8
MOUNTAINLINE
  0
ENDBLK
  5
263
330
260
100
AcDbEntity
  8
0
100
AcDbBlockEnd
  0
BLOCK
  5
278
330
276
100
AcDbEntity
  8
0
100
AcDbBlockBegin
  2
BLOCK_22
 70
     0
 71
     0
 10
0.0
 20
0.0
 30
0.0
  3
BLOCK_22
  1

  0
POLYLINE
  5
27A
330
276
100
AcDbEntity
  8
MOUNTAINLINE
 62
    29
100
AcDb2dPolyline
 66
     1
 10
0.0
 20
0.0
 30
0.0
  0
VERTEX
  5
27B
330
27A
100
AcDbEntity
  8
MOUNTAINLINE
 62
    29
100
AcDbVertex
100
AcDb2dVertex
 10
131.9705837343685
 20
-242.4403265452927
 30
0.0
  0
VERTEX
  5
27C
330
27A
100
AcDbEntity
  8
MOUNTAINLINE
 62
    29
100
AcDbVertex
100
AcDb2dVertex
 10
99.4778211556861
 20
-242.4403265452927
 30
0.0
  0
SEQEND
  5
27D
330
27A
100
AcDbEntity
  8
MOUNTAINLINE
  0
ENDBLK
  5
279
330
276
100
AcDbEntity
  8
0
100
AcDbBlockEnd
  0
BLOCK
  5
28E
330
28C
100
AcDbEntity
  8
0
100
AcDbBlockBegin
  2
BLOCK_23
 70
     0
 71
     0
 10
0.0
 20
0.0
 30
0.0
  3
BLOCK_23
  1

  0
POLYLINE
  5
290
330
28C
100
AcDbEntity
  8
MOUNTAINLINE
 62
    29
100
AcDb2dPolyline
 66
     1
 10
0.0
 20
0.0
 30
0.0
  0
VERTEX
  5
291
330
290
100
AcDbEntity
  8
MOUNTAINLINE
 62
    29
100
AcDbVertex
100
AcDb2dVertex
 10
131.9705837343685
 20
-263.5904567483385
 30
0.0
  0
VERTEX
  5
292
330
290
100
AcDbEntity
  8
MOUNTAINLINE
 62
    29
100
AcDbVertex
100
AcDb2dVertex
 10
99.4778211556861
 20
-263.5904567483385
 30
0.0
  0
SEQEND
  5
293
330
290
100
AcDbEntity
  8
MOUNTAINLINE
  0
ENDBLK
  5
28F
330
28C
100
AcDbEntity
  8
0
100
AcDbBlockEnd
  0
BLOCK
  5
2A4
330
2A2
100
AcDbEntity
  8
0
100
AcDbBlockBegin
  2
BLOCK_24
 70
     0
 71
     0
 10
0.0
 20
0.0
 30
0.0
  3
BLOCK_24
  1

  0
POLYLINE
  5
2A6
330
2A2
100
AcDbEntity
  8
MOUNTAINLINE
 62
    29
100
AcDb2dPolyline
 66
     1
 10
0.0
 20
0.0
 30
0.0
  0
VERTEX
  5
2A7
330
2A6
100
AcDbEntity
  8
MOUNTAINLINE
 62
    29
100
AcDbVertex
100
AcDb2dVertex
 10
131.9705837343685
 20
-94.38734806668094
 30
0.0
  0
VERTEX
  5
2A8
330
2A6
100
AcDbEntity
  8
MOUNTAINLINE
 62
    29
100
AcDbVertex
100
AcDb2dVertex
 10
99.4778211556861
 20
-94.38734806668094
 30
0.0
  0
SEQEND
  5
2A9
330
2A6
100
AcDbEntity
  8
MOUNTAINLINE
  0
ENDBLK
  5
2A5
330
2A2
100
AcDbEntity
  8
0
100
AcDbBlockEnd
  0
BLOCK
  5
2BA
330
2B8
100
AcDbEntity
  8
0
100
AcDbBlockBegin
  2
BLOCK_25
 70
     0
 71
     0
 10
0.0
 20
0.0
 30
0.0
  3
BLOCK_25
  1

  0
POLYLINE
  5
2BC
330
2B8
100
AcDbEntity
  8
MOUNTAINLINE
 62
    29
100
AcDb2dPolyline
 66
     1
 10
0.0
 20
0.0
 30
0.0
  0
VERTEX
  5
2BD
330
2BC
100
AcDbEntity
  8
MOUNTAINLINE
 62
    29
100
AcDbVertex
100
AcDb2dVertex
 10
131.9705837343685
 20
-73.23687335408661
 30
0.0
  0
VERTEX
  5
2BE
330
2BC
100
AcDbEntity
  8
MOUNTAINLINE
 62
    29
100
AcDbVertex
100
AcDb2dVertex
 10
99.4778211556861
 20
-73.23687335408661
 30
0.0
  0
SEQEND
  5
2BF
330
2BC
100
AcDbEntity
  8
MOUNTAINLINE
  0
ENDBLK
  5
2BB
330
2B8
100
AcDbEntity
  8
0
100
AcDbBlockEnd
  0
BLOCK
  5
2D0
330
2CE
100
AcDbEntity
  8
0
100
AcDbBlockBegin
  2
BLOCK_26
 70
     0
 71
     0
 10
0.0
 20
0.0
 30
0.0
  3
BLOCK_26
  1

  0
POLYLINE
  5
2D2
330
2CE
100
AcDbEntity
  8
MOUNTAINLINE
 62
    29
100
AcDb2dPolyline
 66
     1
 10
0.0
 20
0.0
 30
0.0
  0
VERTEX
  5
2D3
330
2D2
100
AcDbEntity
  8
MOUNTAINLINE
 62
    29
100
AcDbVertex
100
AcDb2dVertex
 10
131.9705837343685
 20
-52.08657089626655
 30
0.0
  0
VERTEX
  5
2D4
330
2D2
100
AcDbEntity
  8
MOUNTAINLINE
 62
    29
100
AcDbVertex
100
AcDb2dVertex
 10
99.4778211556861
 20
-52.08657089626655
 30
0.0
  0
SEQEND
  5
2D5
330
2D2
100
AcDbEntity
  8
MOUNTAINLINE
  0
ENDBLK
  5
2D1
330
2CE
100
AcDbEntity
  8
0
100
AcDbBlockEnd
  0
ENDSEC
  0
SECTION
  2
ENTITIES
  0
INSERT
  5
3D
330
1F
100
AcDbEntity
  8
CUTLINE
100
AcDbBlockReference
  2
BLOCK_2
 10
0.0
 20
0.0
 30
0.0
  0
INSERT
  5
46
330
1F
100
AcDbEntity
  8
CUTLINE
100
AcDbBlockReference
  2
BLOCK_3
 10
0.0
 20
0.0
 30
0.0
  0
INSERT
  5
4E
330
1F
100
AcDbEntity
  8
CUTLINE
100
AcDbBlockReference
  2
BLOCK_4
 10
0.0
 20
0.0
 30
0.0
  0
POLYLINE
  5
55
330
1F
100
AcDbEntity
  8
CUTLINE
 62
    29
100
AcDb2dPolyline
 66
     1
 10
0.0
 20
0.0
 30
0.0
  0
VERTEX
  5
56
330
55
100
AcDbEntity
  8
CUTLINE
 62
    29
100
AcDbVertex
100
AcDb2dVertex
 10
99.4778211556861
 20
-121.0973456185972
 30
0.0
  0
VERTEX
  5
57
330
55
100
AcDbEntity
  8
CUTLINE
 62
    29
100
AcDbVertex
100
AcDb2dVertex
 10
99.4778211556861
 20
-115.537650524501
 30
0.0
  0
SEQEND
  5
58
330
55
100
AcDbEntity
  8
CUTLINE
  0
POLYLINE
  5
59
330
1F
100
AcDbEntity
  8
CUTLINE
 62
    29
100
AcDb2dPolyline
 66
     1
 10
0.0
 20
0.0
 30
0.0
  0
VERTEX
  5
5A
330
59
100
AcDbEntity
  8
CUTLINE
 62
    29
100
AcDbVertex
100
AcDb2dVertex
 10
99.4778211556861
 20
-115.537650524501
 30
0.0
  0
VERTEX
  5
5B
330
59
100
AcDbEntity
  8
CUTLINE
 62
    29
100
AcDbVertex
100
AcDb2dVertex
 10
99.4778211556861
 20
-109.9777831756306
 30
0.0
  0
SEQEND
  5
5C
330
59
100
AcDbEntity
  8
CUTLINE
  0
POLYLINE
  5
5D
330
1F
100
AcDbEntity
  8
CUTLINE
 62
    29
100
AcDb2dPolyline
 66
     1
 10
0.0
 20
0.0
 30
0.0
  0
VERTEX
  5
5E
330
5D
100
AcDbEntity
  8
CUTLINE
 62
    29
100
AcDbVertex
100
AcDb2dVertex
 10
99.4778211556861
 20
-142.2478203311915
 30
0.0
  0
VERTEX
  5
5F
330
5D
100
AcDbEntity
  8
CUTLINE
 62
    29
100
AcDbVertex
100
AcDb2dVertex
 10
99.4778211556861
 20
-136.6884697466439
 30
0.0
  0
SEQEND
  5
60
330
5D
100
AcDbEntity
  8
CUTLINE
  0
POLYLINE
  5
61
330
1F
100
AcDbEntity
  8
CUTLINE
 62
    29
100
AcDb2dPolyline
 66
     1
 10
0.0
 20
0.0
 30
0.0
  0
VERTEX
  5
62
330
61
100
AcDbEntity
  8
CUTLINE
 62
    29
100
AcDbVertex
100
AcDb2dVertex
 10
99.4778211556861
 20
-136.6884697466439
 30
0.0
  0
VERTEX
  5
63
330
61
100
AcDbEntity
  8
CUTLINE
 62
    29
100
AcDbVertex
100
AcDb2dVertex
 10
99.4778211556861
 20
-131.1280856334506
 30
0.0
  0
SEQEND
  5
64
330
61
100
AcDbEntity
  8
CUTLINE
  0
POLYLINE
  5
65
330
1F
100
AcDbEntity
  8
CUTLINE
 62
    29
100
AcDb2dPolyline
 66
     1
 10
0.0
 20
0.0
 30
0.0
  0
VERTEX
  5
66
330
65
100
AcDbEntity
  8
CUTLINE
 62
    29
100
AcDbVertex
100
AcDb2dVertex
 10
99.4778211556861
 20
-163.3981227890116
 30
0.0
  0
VERTEX
  5
67
330
65
100
AcDbEntity
  8
CUTLINE
 62
    29
100
AcDbVertex
100
AcDb2dVertex
 10
99.4778211556861
 20
-157.8384276949154
 30
0.0
  0
SEQEND
  5
68
330
65
100
AcDbEntity
  8
CUTLINE
  0
POLYLINE
  5
69
330
1F
100
AcDbEntity
  8
CUTLINE
 62
    29
100
AcDb2dPolyline
 66
     1
 10
0.0
 20
0.0
 30
0.0
  0
VERTEX
  5
6A
330
69
100
AcDbEntity
  8
CUTLINE
 62
    29
100
AcDbVertex
100
AcDb2dVertex
 10
99.4778211556861
 20
-157.8384276949154
 30
0.0
  0
VERTEX
  5
6B
330
69
100
AcDbEntity
  8
CUTLINE
 62
    29
100
AcDbVertex
100
AcDb2dVertex
 10
99.4778211556861
 20
-152.2787326008192
 30
0.0
  0
SEQEND
  5
6C
330
69
100
AcDbEntity
  8
CUTLINE
  0
POLYLINE
  5
6D
330
1F
100
AcDbEntity
  8
CUTLINE
 62
    29
100
AcDb2dPolyline
 66
     1
 10
0.0
 20
0.0
 30
0.0
  0
VERTEX
  5
6E
330
6D
100
AcDbEntity
  8
CUTLINE
 62
    29
100
AcDbVertex
100
AcDb2dVertex
 10
99.4778211556861
 20
-184.5489420111545
 30
0.0
  0
VERTEX
  5
6F
330
6D
100
AcDbEntity
  8
CUTLINE
 62
    29
100
AcDbVertex
100
AcDb2dVertex
 10
99.4778211556861
 20
-178.9885578979612
 30
0.0
  0
SEQEND
  5
70
330
6D
100
AcDbEntity
  8
CUTLINE
  0
POLYLINE
  5
71
330
1F
100
AcDbEntity
  8
CUTLINE
 62
    29
100
AcDb2dPolyline
 66
     1
 10
0.0
 20
0.0
 30
0.0
  0
VERTEX
  5
72
330
71
100
AcDbEntity
  8
CUTLINE
 62
    29
100
AcDbVertex
100
AcDb2dVertex
 10
99.4778211556861
 20
-178.9885578979612
 30
0.0
  0
VERTEX
  5
73
330
71
100
AcDbEntity
  8
CUTLINE
 62
    29
100
AcDbVertex
100
AcDb2dVertex
 10
99.4778211556861
 20
-173.428862803865
 30
0.0
  0
SEQEND
  5
74
330
71
100
AcDbEntity
  8
CUTLINE
  0
POLYLINE
  5
75
330
1F
100
AcDbEntity
  8
CUTLINE
 62
    29
100
AcDb2dPolyline
 66
     1
 10
0.0
 20
0.0
 30
0.0
  0
VERTEX
  5
76
330
75
100
AcDbEntity
  8
CUTLINE
 62
    29
100
AcDbVertex
100
AcDb2dVertex
 10
99.4778211556861
 20
-205.6990722142002
 30
0.0
  0
VERTEX
  5
77
330
75
100
AcDbEntity
  8
CUTLINE
 62
    29
100
AcDbVertex
100
AcDb2dVertex
 10
99.4778211556861
 20
-200.1393771201041
 30
0.0
  0
SEQEND
  5
78
330
75
100
AcDbEntity
  8
CUTLINE
  0
POLYLINE
  5
79
330
1F
100
AcDbEntity
  8
CUTLINE
 62
    29
100
AcDb2dPolyline
 66
     1
 10
0.0
 20
0.0
 30
0.0
  0
VERTEX
  5
7A
330
79
100
AcDbEntity
  8
CUTLINE
 62
    29
100
AcDbVertex
100
AcDb2dVertex
 10
99.4778211556861
 20
-200.1393771201041
 30
0.0
  0
VERTEX
  5
7B
330
79
100
AcDbEntity
  8
CUTLINE
 62
    29
100
AcDbVertex
100
AcDb2dVertex
 10
99.4778211556861
 20
-194.5796820260079
 30
0.0
  0
SEQEND
  5
7C
330
79
100
AcDbEntity
  8
CUTLINE
  0
POLYLINE
  5
7D
330
1F
100
AcDbEntity
  8
CUTLINE
 62
    29
100
AcDb2dPolyline
 66
     1
 10
0.0
 20
0.0
 30
0.0
  0
VERTEX
  5
7E
330
7D
100
AcDbEntity
  8
CUTLINE
 62
    29
100
AcDbVertex
100
AcDb2dVertex
 10
99.4778211556861
 20
-226.8498914363431
 30
0.0
  0
VERTEX
  5
7F
330
7D
100
AcDbEntity
  8
CUTLINE
 62
    29
100
AcDbVertex
100
AcDb2dVertex
 10
99.4778211556861
 20
-221.2895073231498
 30
0.0
  0
SEQEND
  5
80
330
7D
100
AcDbEntity
  8
CUTLINE
  0
POLYLINE
  5
81
330
1F
100
AcDbEntity
  8
CUTLINE
 62
    29
100
AcDb2dPolyline
 66
     1
 10
0.0
 20
0.0
 30
0.0
  0
VERTEX
  5
82
330
81
100
AcDbEntity
  8
CUTLINE
 62
    29
100
AcDbVertex
100
AcDb2dVertex
 10
99.4778211556861
 20
-221.2895073231498
 30
0.0
  0
VERTEX
  5
83
330
81
100
AcDbEntity
  8
CUTLINE
 62
    29
100
AcDbVertex
100
AcDb2dVertex
 10
99.4778211556861
 20
-215.7298122290537
 30
0.0
  0
SEQEND
  5
84
330
81
100
AcDbEntity
  8
CUTLINE
  0
POLYLINE
  5
85
330
1F
100
AcDbEntity
  8
CUTLINE
 62
    29
100
AcDb2dPolyline
 66
     1
 10
0.0
 20
0.0
 30
0.0
  0
VERTEX
  5
86
330
85
100
AcDbEntity
  8
CUTLINE
 62
    29
100
AcDbVertex
100
AcDb2dVertex
 10
99.4778211556861
 20
-248.0000216393889
 30
0.0
  0
VERTEX
  5
87
330
85
100
AcDbEntity
  8
CUTLINE
 62
    29
100
AcDbVertex
100
AcDb2dVertex
 10
99.4778211556861
 20
-242.4403265452927
 30
0.0
  0
SEQEND
  5
88
330
85
100
AcDbEntity
  8
CUTLINE
  0
POLYLINE
  5
89
330
1F
100
AcDbEntity
  8
CUTLINE
 62
    29
100
AcDb2dPolyline
 66
     1
 10
0.0
 20
0.0
 30
0.0
  0
VERTEX
  5
8A
330
89
100
AcDbEntity
  8
CUTLINE
 62
    29
100
AcDbVertex
100
AcDb2dVertex
 10
99.4778211556861
 20
-242.4403265452927
 30
0.0
  0
VERTEX
  5
8B
330
89
100
AcDbEntity
  8
CUTLINE
 62
    29
100
AcDbVertex
100
AcDb2dVertex
 10
99.4778211556861
 20
-236.8806314511965
 30
0.0
  0
SEQEND
  5
8C
330
89
100
AcDbEntity
  8
CUTLINE
  0
POLYLINE
  5
8D
330
1F
100
AcDbEntity
  8
CUTLINE
 62
    29
100
AcDb2dPolyline
 66
     1
 10
0.0
 20
0.0
 30
0.0
  0
VERTEX
  5
8E
330
8D
100
AcDbEntity
  8
CUTLINE
 62
    29
100
AcDbVertex
100
AcDb2dVertex
 10
99.4778211556861
 20
-269.1501518424347
 30
0.0
  0
VERTEX
  5
8F
330
8D
100
AcDbEntity
  8
CUTLINE
 62
    29
100
AcDbVertex
100
AcDb2dVertex
 10
99.4778211556861
 20
-263.5904567483385
 30
0.0
  0
SEQEND
  5
90
330
8D
100
AcDbEntity
  8
CUTLINE
  0
POLYLINE
  5
91
330
1F
100
AcDbEntity
  8
CUTLINE
 62
    29
100
AcDb2dPolyline
 66
     1
 10
0.0
 20
0.0
 30
0.0
  0
VERTEX
  5
92
330
91
100
AcDbEntity
  8
CUTLINE
 62
    29
100
AcDbVertex
100
AcDb2dVertex
 10
99.4778211556861
 20
-263.5904567483385
 30
0.0
  0
VERTEX
  5
93
330
91
100
AcDbEntity
  8
CUTLINE
 62
    29
100
AcDbVertex
100
AcDb2dVertex
 10
99.4778211556861
 20
-258.0300726351452
 30
0.0
  0
SEQEND
  5
94
330
91
100
AcDbEntity
  8
CUTLINE
  0
POLYLINE
  5
95
330
1F
100
AcDbEntity
  8
CUTLINE
 62
    29
100
AcDb2dPolyline
 66
     1
 10
0.0
 20
0.0
 30
0.0
  0
VERTEX
  5
96
330
95
100
AcDbEntity
  8
CUTLINE
 62
    29
100
AcDbVertex
100
AcDb2dVertex
 10
99.4778211556861
 20
-284.7412759704814
 30
0.0
  0
VERTEX
  5
97
330
95
100
AcDbEntity
  8
CUTLINE
 62
    29
100
AcDbVertex
100
AcDb2dVertex
 10
99.4778211556861
 20
-279.1808918572881
 30
0.0
  0
SEQEND
  5
98
330
95
100
AcDbEntity
  8
CUTLINE
  0
POLYLINE
  5
99
330
1F
100
AcDbEntity
  8
CUTLINE
 62
    29
100
AcDb2dPolyline
 66
     1
 10
0.0
 20
0.0
 30
0.0
  0
VERTEX
  5
9A
330
99
100
AcDbEntity
  8
CUTLINE
 62
    29
100
AcDbVertex
100
AcDb2dVertex
 10
99.4778211556861
 20
-99.94704316077713
 30
0.0
  0
VERTEX
  5
9B
330
99
100
AcDbEntity
  8
CUTLINE
 62
    29
100
AcDbVertex
100
AcDb2dVertex
 10
99.4778211556861
 20
-94.38734806668094
 30
0.0
  0
SEQEND
  5
9C
330
99
100
AcDbEntity
  8
CUTLINE
  0
POLYLINE
  5
9D
330
1F
100
AcDbEntity
  8
CUTLINE
 62
    29
100
AcDb2dPolyline
 66
     1
 10
0.0
 20
0.0
 30
0.0
  0
VERTEX
  5
9E
330
9D
100
AcDbEntity
  8
CUTLINE
 62
    29
100
AcDbVertex
100
AcDb2dVertex
 10
99.4778211556861
 20
-94.38734806668094
 30
0.0
  0
VERTEX
  5
9F
330
9D
100
AcDbEntity
  8
CUTLINE
 62
    29
100
AcDbVertex
100
AcDb2dVertex
 10
99.4778211556861
 20
-88.82748071781049
 30
0.0
  0
SEQEND
  5
A0
330
9D
100
AcDbEntity
  8
CUTLINE
  0
POLYLINE
  5
A1
330
1F
100
AcDbEntity
  8
CUTLINE
 62
    29
100
AcDb2dPolyline
 66
     1
 10
0.0
 20
0.0
 30
0.0
  0
VERTEX
  5
A2
330
A1
100
AcDbEntity
  8
CUTLINE
 62
    29
100
AcDbVertex
100
AcDb2dVertex
 10
99.4778211556861
 20
-78.79674070295707
 30
0.0
  0
VERTEX
  5
A3
330
A1
100
AcDbEntity
  8
CUTLINE
 62
    29
100
AcDbVertex
100
AcDb2dVertex
 10
99.4778211556861
 20
-73.23687335408661
 30
0.0
  0
SEQEND
  5
A4
330
A1
100
AcDbEntity
  8
CUTLINE
  0
POLYLINE
  5
A5
330
1F
100
AcDbEntity
  8
CUTLINE
 62
    29
100
AcDb2dPolyline
 66
     1
 10
0.0
 20
0.0
 30
0.0
  0
VERTEX
  5
A6
330
A5
100
AcDbEntity
  8
CUTLINE
 62
    29
100
AcDbVertex
100
AcDb2dVertex
 10
99.4778211556861
 20
-73.23687335408661
 30
0.0
  0
VERTEX
  5
A7
330
A5
100
AcDbEntity
  8
CUTLINE
 62
    29
100
AcDbVertex
100
AcDb2dVertex
 10
99.4778211556861
 20
-67.67700600521617
 30
0.0
  0
SEQEND
  5
A8
330
A5
100
AcDbEntity
  8
CUTLINE
  0
POLYLINE
  5
A9
330
1F
100
AcDbEntity
  8
CUTLINE
 62
    29
100
AcDb2dPolyline
 66
     1
 10
0.0
 20
0.0
 30
0.0
  0
VERTEX
  5
AA
330
A9
100
AcDbEntity
  8
CUTLINE
 62
    29
100
AcDbVertex
100
AcDb2dVertex
 10
99.4778211556861
 20
-57.64626599036274
 30
0.0
  0
VERTEX
  5
AB
330
A9
100
AcDbEntity
  8
CUTLINE
 62
    29
100
AcDbVertex
100
AcDb2dVertex
 10
99.4778211556861
 20
-52.08657089626655
 30
0.0
  0
SEQEND
  5
AC
330
A9
100
AcDbEntity
  8
CUTLINE
  0
POLYLINE
  5
AD
330
1F
100
AcDbEntity
  8
CUTLINE
 62
    29
100
AcDb2dPolyline
 66
     1
 10
0.0
 20
0.0
 30
0.0
  0
VERTEX
  5
AE
330
AD
100
AcDbEntity
  8
CUTLINE
 62
    29
100
AcDbVertex
100
AcDb2dVertex
 10
99.4778211556861
 20
-52.08657089626655
 30
0.0
  0
VERTEX
  5
AF
330
AD
100
AcDbEntity
  8
CUTLINE
 62
    29
100
AcDbVertex
100
AcDb2dVertex
 10
99.4778211556861
 20
-46.5267035473961
 30
0.0
  0
SEQEND
  5
B0
330
AD
100
AcDbEntity
  8
CUTLINE
  0
POLYLINE
  5
B1
330
1F
100
AcDbEntity
  8
CUTLINE
 62
    29
100
AcDb2dPolyline
 66
     1
 10
0.0
 20
0.0
 30
0.0
  0
VERTEX
  5
B2
330
B1
100
AcDbEntity
  8
CUTLINE
 62
    29
100
AcDbVertex
100
AcDb2dVertex
 10
99.4778211556861
 20
-36.49596353254267
 30
0.0
  0
VERTEX
  5
B3
330
B1
100
AcDbEntity
  8
CUTLINE
 62
    29
100
AcDbVertex
100
AcDb2dVertex
 10
99.4778211556861
 20
-30.93592392889796
 30
0.0
  0
SEQEND
  5
B4
330
B1
100
AcDbEntity
  8
CUTLINE
  0
POLYLINE
  5
B6
330
1F
100
AcDbEntity
  8
VALLEYLINE
  6
AI-LINETYPE-1
 62
    29
100
AcDb2dPolyline
 66
     1
 10
0.0
 20
0.0
 30
0.0
  0
VERTEX
  5
B7
330
B6
100
AcDbEntity
  8
VALLEYLINE
  6
AI-LINETYPE-1
 62
    29
100
AcDbVertex
100
AcDb2dVertex
 10
75.90320500489572
 20
-123.0117851797505
 30
0.0
  0
VERTEX
  5
B8
330
B6
100
AcDbEntity
  8
VALLEYLINE
  6
AI-LINETYPE-1
 62
    29
100
AcDbVertex
100
AcDb2dVertex
 10
75.90320500489572
 20
-115.537650524501
 30
0.0
  0
SEQEND
  5
B9
330
B6
100
AcDbEntity
  8
VALLEYLINE
  6
AI-LINETYPE-1
  0
INSERT
  5
BC
330
1F
100
AcDbEntity
  8
VALLEYLINE
100
AcDbBlockReference
  2
BLOCK_5
 10
0.0
 20
0.0
 30
0.0
  0
POLYLINE
  5
C4
330
1F
100
AcDbEntity
  8
VALLEYLINE
  6
AI-LINETYPE-3
 62
    29
100
AcDb2dPolyline
 66
     1
 10
0.0
 20
0.0
 30
0.0
  0
VERTEX
  5
C5
330
C4
100
AcDbEntity
  8
VALLEYLINE
  6
AI-LINETYPE-3
 62
    29
100
AcDbVertex
100
AcDb2dVertex
 10
99.4778211556861
 20
-121.0973456185972
 30
0.0
  0
VERTEX
  5
C6
330
C4
100
AcDbEntity
  8
VALLEYLINE
  6
AI-LINETYPE-3
 62
    29
100
AcDbVertex
100
AcDb2dVertex
 10
102.506232341995
 20
-120.315653452994
 30
0.0
  0
VERTEX
  5
C7
330
C4
100
AcDbEntity
  8
VALLEYLINE
  6
AI-LINETYPE-3
 62
    29
100
AcDbVertex
100
AcDb2dVertex
 10
105.5274088277848
 20
-119.5060560139603
 30
0.0
  0
VERTEX
  5
C8
330
C4
100
AcDbEntity
  8
VALLEYLINE
  6
AI-LINETYPE-3
 62
    29
100
AcDbVertex
100
AcDb2dVertex
 10
108.555992268868
 20
-118.7243638483571
 30
0.0
  0
VERTEX
  5
C9
330
C4
100
AcDbEntity
  8
VALLEYLINE
  6
AI-LINETYPE-3
 62
    29
100
AcDbVertex
100
AcDb2dVertex
 10
111.6038682446685
 20
-118.022770152786
 30
0.0
  0
VERTEX
  5
CA
330
C4
100
AcDbEntity
  8
VALLEYLINE
  6
AI-LINETYPE-3
 62
    29
100
AcDbVertex
100
AcDb2dVertex
 10
114.6789604748025
 20
-117.4507120474602
 30
0.0
  0
VERTEX
  5
CB
330
C4
100
AcDbEntity
  8
VALLEYLINE
  6
AI-LINETYPE-3
 62
    29
100
AcDbVertex
100
AcDb2dVertex
 10
117.7805799401729
 20
-117.0455688183949
 30
0.0
  0
VERTEX
  5
CC
330
C4
100
AcDbEntity
  8
VALLEYLINE
  6
AI-LINETYPE-3
 62
    29
100
AcDbVertex
100
AcDb2dVertex
 10
120.9014919402607
 20
-116.8362792676659
 30
0.0
  0
VERTEX
  5
CD
330
C4
100
AcDbEntity
  8
VALLEYLINE
  6
AI-LINETYPE-3
 62
    29
100
AcDbVertex
100
AcDb2dVertex
 10
124.0289496217706
 20
-116.8362792676659
 30
0.0
  0
VERTEX
  5
CE
330
C4
100
AcDbEntity
  8
VALLEYLINE
  6
AI-LINETYPE-3
 62
    29
100
AcDbVertex
100
AcDb2dVertex
 10
131.9705837343685
 20
-116.8512654330268
 30
0.0
  0
SEQEND
  5
CF
330
C4
100
AcDbEntity
  8
VALLEYLINE
  6
AI-LINETYPE-3
  0
POLYLINE
  5
D1
330
1F
100
AcDbEntity
  8
VALLEYLINE
  6
AI-LINETYPE-4
 62
    29
100
AcDb2dPolyline
 66
     1
 10
0.0
 20
0.0
 30
0.0
  0
VERTEX
  5
D2
330
D1
100
AcDbEntity
  8
VALLEYLINE
  6
AI-LINETYPE-4
 62
    29
100
AcDbVertex
100
AcDb2dVertex
 10
75.90320500489572
 20
-144.1626044018934
 30
0.0
  0
VERTEX
  5
D3
330
D1
100
AcDbEntity
  8
VALLEYLINE
  6
AI-LINETYPE-4
 62
    29
100
AcDbVertex
100
AcDb2dVertex
 10
75.90320500489572
 20
-136.6884697466439
 30
0.0
  0
SEQEND
  5
D4
330
D1
100
AcDbEntity
  8
VALLEYLINE
  6
AI-LINETYPE-4
  0
INSERT
  5
D7
330
1F
100
AcDbEntity
  8
VALLEYLINE
100
AcDbBlockReference
  2
BLOCK_6
 10
0.0
 20
0.0
 30
0.0
  0
POLYLINE
  5
DF
330
1F
100
AcDbEntity
  8
VALLEYLINE
  6
AI-LINETYPE-6
 62
    29
100
AcDb2dPolyline
 66
     1
 10
0.0
 20
0.0
 30
0.0
  0
VERTEX
  5
E0
330
DF
100
AcDbEntity
  8
VALLEYLINE
  6
AI-LINETYPE-6
 62
    29
100
AcDbVertex
100
AcDb2dVertex
 10
99.4778211556861
 20
-142.2478203311915
 30
0.0
  0
VERTEX
  5
E1
330
DF
100
AcDbEntity
  8
VALLEYLINE
  6
AI-LINETYPE-6
 62
    29
100
AcDbVertex
100
AcDb2dVertex
 10
102.506232341995
 20
-141.4661281655883
 30
0.0
  0
VERTEX
  5
E2
330
DF
100
AcDbEntity
  8
VALLEYLINE
  6
AI-LINETYPE-6
 62
    29
100
AcDbVertex
100
AcDb2dVertex
 10
105.5274088277848
 20
-140.6561862170061
 30
0.0
  0
VERTEX
  5
E3
330
DF
100
AcDbEntity
  8
VALLEYLINE
  6
AI-LINETYPE-6
 62
    29
100
AcDbVertex
100
AcDb2dVertex
 10
108.555992268868
 20
-139.8748385609514
 30
0.0
  0
VERTEX
  5
E4
330
DF
100
AcDbEntity
  8
VALLEYLINE
  6
AI-LINETYPE-6
 62
    29
100
AcDbVertex
100
AcDb2dVertex
 10
111.6038682446685
 20
-139.1734171201546
 30
0.0
  0
VERTEX
  5
E5
330
DF
100
AcDbEntity
  8
VALLEYLINE
  6
AI-LINETYPE-6
 62
    29
100
AcDbVertex
100
AcDb2dVertex
 10
114.6789604748025
 20
-138.600842250506
 30
0.0
  0
VERTEX
  5
E6
330
DF
100
AcDbEntity
  8
VALLEYLINE
  6
AI-LINETYPE-6
 62
    29
100
AcDbVertex
100
AcDb2dVertex
 10
117.7805799401729
 20
-138.1960435309892
 30
0.0
  0
VERTEX
  5
E7
330
DF
100
AcDbEntity
  8
VALLEYLINE
  6
AI-LINETYPE-6
 62
    29
100
AcDbVertex
100
AcDb2dVertex
 10
120.9014919402607
 20
-137.9869262350345
 30
0.0
  0
VERTEX
  5
E8
330
DF
100
AcDbEntity
  8
VALLEYLINE
  6
AI-LINETYPE-6
 62
    29
100
AcDbVertex
100
AcDb2dVertex
 10
124.0289496217706
 20
-137.9869262350345
 30
0.0
  0
VERTEX
  5
E9
330
DF
100
AcDbEntity
  8
VALLEYLINE
  6
AI-LINETYPE-6
 62
    29
100
AcDbVertex
100
AcDb2dVertex
 10
131.9705837343685
 20
-138.0017401456211
 30
0.0
  0
SEQEND
  5
EA
330
DF
100
AcDbEntity
  8
VALLEYLINE
  6
AI-LINETYPE-6
  0
POLYLINE
  5
EC
330
1F
100
AcDbEntity
  8
VALLEYLINE
  6
AI-LINETYPE-7
 62
    29
100
AcDb2dPolyline
 66
     1
 10
0.0
 20
0.0
 30
0.0
  0
VERTEX
  5
ED
330
EC
100
AcDbEntity
  8
VALLEYLINE
  6
AI-LINETYPE-7
 62
    29
100
AcDbVertex
100
AcDb2dVertex
 10
75.90320500489572
 20
-165.3122178406164
 30
0.0
  0
VERTEX
  5
EE
330
EC
100
AcDbEntity
  8
VALLEYLINE
  6
AI-LINETYPE-7
 62
    29
100
AcDbVertex
100
AcDb2dVertex
 10
75.90320500489572
 20
-157.8384276949154
 30
0.0
  0
SEQEND
  5
EF
330
EC
100
AcDbEntity
  8
VALLEYLINE
  6
AI-LINETYPE-7
  0
INSERT
  5
F2
330
1F
100
AcDbEntity
  8
VALLEYLINE
100
AcDbBlockReference
  2
BLOCK_7
 10
0.0
 20
0.0
 30
0.0
  0
POLYLINE
  5
FA
330
1F
100
AcDbEntity
  8
VALLEYLINE
  6
AI-LINETYPE-9
 62
    29
100
AcDb2dPolyline
 66
     1
 10
0.0
 20
0.0
 30
0.0
  0
VERTEX
  5
FB
330
FA
100
AcDbEntity
  8
VALLEYLINE
  6
AI-LINETYPE-9
 62
    29
100
AcDbVertex
100
AcDb2dVertex
 10
99.4778211556861
 20
-163.3981227890116
 30
0.0
  0
VERTEX
  5
FC
330
FA
100
AcDbEntity
  8
VALLEYLINE
  6
AI-LINETYPE-9
 62
    29
100
AcDbVertex
100
AcDb2dVertex
 10
102.506232341995
 20
-162.6160861138599
 30
0.0
  0
VERTEX
  5
FD
330
FA
100
AcDbEntity
  8
VALLEYLINE
  6
AI-LINETYPE-9
 62
    29
100
AcDbVertex
100
AcDb2dVertex
 10
105.5274088277848
 20
-161.8064886748262
 30
0.0
  0
VERTEX
  5
FE
330
FA
100
AcDbEntity
  8
VALLEYLINE
  6
AI-LINETYPE-9
 62
    29
100
AcDbVertex
100
AcDb2dVertex
 10
108.555992268868
 20
-161.0251410187715
 30
0.0
  0
VERTEX
  5
FF
330
FA
100
AcDbEntity
  8
VALLEYLINE
  6
AI-LINETYPE-9
 62
    29
100
AcDbVertex
100
AcDb2dVertex
 10
111.6038682446685
 20
-160.3237195779746
 30
0.0
  0
VERTEX
  5
100
330
FA
100
AcDbEntity
  8
VALLEYLINE
  6
AI-LINETYPE-9
 62
    29
100
AcDbVertex
100
AcDb2dVertex
 10
114.6789604748025
 20
-159.7511447083261
 30
0.0
  0
VERTEX
  5
101
330
FA
100
AcDbEntity
  8
VALLEYLINE
  6
AI-LINETYPE-9
 62
    29
100
AcDbVertex
100
AcDb2dVertex
 10
117.7805799401729
 20
-159.3466904983578
 30
0.0
  0
VERTEX
  5
102
330
FA
100
AcDbEntity
  8
VALLEYLINE
  6
AI-LINETYPE-9
 62
    29
100
AcDbVertex
100
AcDb2dVertex
 10
120.9014919402607
 20
-159.1372286928546
 30
0.0
  0
VERTEX
  5
103
330
FA
100
AcDbEntity
  8
VALLEYLINE
  6
AI-LINETYPE-9
 62
    29
100
AcDbVertex
100
AcDb2dVertex
 10
124.0289496217706
 20
-159.1372286928546
 30
0.0
  0
VERTEX
  5
104
330
FA
100
AcDbEntity
  8
VALLEYLINE
  6
AI-LINETYPE-9
 62
    29
100
AcDbVertex
100
AcDb2dVertex
 10
131.9705837343685
 20
-159.1523871129897
 30
0.0
  0
SEQEND
  5
105
330
FA
100
AcDbEntity
  8
VALLEYLINE
  6
AI-LINETYPE-9
  0
POLYLINE
  5
107
330
1F
100
AcDbEntity
  8
VALLEYLINE
  6
AI-LINETYPE-10
 62
    29
100
AcDb2dPolyline
 66
     1
 10
0.0
 20
0.0
 30
0.0
  0
VERTEX
  5
108
330
107
100
AcDbEntity
  8
VALLEYLINE
  6
AI-LINETYPE-10
 62
    29
100
AcDbVertex
100
AcDb2dVertex
 10
75.90320500489572
 20
-186.4630370627592
 30
0.0
  0
VERTEX
  5
109
330
107
100
AcDbEntity
  8
VALLEYLINE
  6
AI-LINETYPE-10
 62
    29
100
AcDbVertex
100
AcDb2dVertex
 10
75.90320500489572
 20
-178.9885578979612
 30
0.0
  0
SEQEND
  5
10A
330
107
100
AcDbEntity
  8
VALLEYLINE
  6
AI-LINETYPE-10
  0
INSERT
  5
10D
330
1F
100
AcDbEntity
  8
VALLEYLINE
100
AcDbBlockReference
  2
BLOCK_8
 10
0.0
 20
0.0
 30
0.0
  0
POLYLINE
  5
115
330
1F
100
AcDbEntity
  8
VALLEYLINE
  6
AI-LINETYPE-12
 62
    29
100
AcDb2dPolyline
 66
     1
 10
0.0
 20
0.0
 30
0.0
  0
VERTEX
  5
116
330
115
100
AcDbEntity
  8
VALLEYLINE
  6
AI-LINETYPE-12
 62
    29
100
AcDbVertex
100
AcDb2dVertex
 10
99.4778211556861
 20
-184.5489420111545
 30
0.0
  0
VERTEX
  5
117
330
115
100
AcDbEntity
  8
VALLEYLINE
  6
AI-LINETYPE-12
 62
    29
100
AcDbVertex
100
AcDb2dVertex
 10
102.506232341995
 20
-183.7669053360027
 30
0.0
  0
VERTEX
  5
118
330
115
100
AcDbEntity
  8
VALLEYLINE
  6
AI-LINETYPE-12
 62
    29
100
AcDbVertex
100
AcDb2dVertex
 10
105.5274088277848
 20
-182.957307896969
 30
0.0
  0
VERTEX
  5
119
330
115
100
AcDbEntity
  8
VALLEYLINE
  6
AI-LINETYPE-12
 62
    29
100
AcDbVertex
100
AcDb2dVertex
 10
108.555992268868
 20
-182.1752712218173
 30
0.0
  0
VERTEX
  5
11A
330
115
100
AcDbEntity
  8
VALLEYLINE
  6
AI-LINETYPE-12
 62
    29
100
AcDbVertex
100
AcDb2dVertex
 10
111.6038682446685
 20
-181.4738497810204
 30
0.0
  0
VERTEX
  5
11B
330
115
100
AcDbEntity
  8
VALLEYLINE
  6
AI-LINETYPE-12
 62
    29
100
AcDbVertex
100
AcDb2dVertex
 10
114.6789604748025
 20
-180.9012749113719
 30
0.0
  0
VERTEX
  5
11C
330
115
100
AcDbEntity
  8
VALLEYLINE
  6
AI-LINETYPE-12
 62
    29
100
AcDbVertex
100
AcDb2dVertex
 10
117.7805799401729
 20
-180.4968207014036
 30
0.0
  0
VERTEX
  5
11D
330
115
100
AcDbEntity
  8
VALLEYLINE
  6
AI-LINETYPE-12
 62
    29
100
AcDbVertex
100
AcDb2dVertex
 10
120.9014919402607
 20
-180.2873588959004
 30
0.0
  0
VERTEX
  5
11E
330
115
100
AcDbEntity
  8
VALLEYLINE
  6
AI-LINETYPE-12
 62
    29
100
AcDbVertex
100
AcDb2dVertex
 10
124.0289496217706
 20
-180.2873588959004
 30
0.0
  0
VERTEX
  5
11F
330
115
100
AcDbEntity
  8
VALLEYLINE
  6
AI-LINETYPE-12
 62
    29
100
AcDbVertex
100
AcDb2dVertex
 10
131.9705837343685
 20
-180.3025173160355
 30
0.0
  0
SEQEND
  5
120
330
115
100
AcDbEntity
  8
VALLEYLINE
  6
AI-LINETYPE-12
  0
POLYLINE
  5
122
330
1F
100
AcDbEntity
  8
VALLEYLINE
  6
AI-LINETYPE-13
 62
    29
100
AcDb2dPolyline
 66
     1
 10
0.0
 20
0.0
 30
0.0
  0
VERTEX
  5
123
330
122
100
AcDbEntity
  8
VALLEYLINE
  6
AI-LINETYPE-13
 62
    29
100
AcDbVertex
100
AcDb2dVertex
 10
75.90320500489572
 20
-207.6131672658051
 30
0.0
  0
VERTEX
  5
124
330
122
100
AcDbEntity
  8
VALLEYLINE
  6
AI-LINETYPE-13
 62
    29
100
AcDbVertex
100
AcDb2dVertex
 10
75.90320500489572
 20
-200.1393771201041
 30
0.0
  0
SEQEND
  5
125
330
122
100
AcDbEntity
  8
VALLEYLINE
  6
AI-LINETYPE-13
  0
INSERT
  5
128
330
1F
100
AcDbEntity
  8
VALLEYLINE
100
AcDbBlockReference
  2
BLOCK_9
 10
0.0
 20
0.0
 30
0.0
  0
POLYLINE
  5
130
330
1F
100
AcDbEntity
  8
VALLEYLINE
  6
AI-LINETYPE-15
 62
    29
100
AcDb2dPolyline
 66
     1
 10
0.0
 20
0.0
 30
0.0
  0
VERTEX
  5
131
330
130
100
AcDbEntity
  8
VALLEYLINE
  6
AI-LINETYPE-15
 62
    29
100
AcDbVertex
100
AcDb2dVertex
 10
99.4778211556861
 20
-205.6990722142002
 30
0.0
  0
VERTEX
  5
132
330
130
100
AcDbEntity
  8
VALLEYLINE
  6
AI-LINETYPE-15
 62
    29
100
AcDbVertex
100
AcDb2dVertex
 10
102.506232341995
 20
-204.9170355390485
 30
0.0
  0
VERTEX
  5
133
330
130
100
AcDbEntity
  8
VALLEYLINE
  6
AI-LINETYPE-15
 62
    29
100
AcDbVertex
100
AcDb2dVertex
 10
105.5274088277848
 20
-204.1074381000148
 30
0.0
  0
VERTEX
  5
134
330
130
100
AcDbEntity
  8
VALLEYLINE
  6
AI-LINETYPE-15
 62
    29
100
AcDbVertex
100
AcDb2dVertex
 10
108.555992268868
 20
-203.3254014248631
 30
0.0
  0
VERTEX
  5
135
330
130
100
AcDbEntity
  8
VALLEYLINE
  6
AI-LINETYPE-15
 62
    29
100
AcDbVertex
100
AcDb2dVertex
 10
111.6038682446685
 20
-202.6246690031633
 30
0.0
  0
VERTEX
  5
136
330
130
100
AcDbEntity
  8
VALLEYLINE
  6
AI-LINETYPE-15
 62
    29
100
AcDbVertex
100
AcDb2dVertex
 10
114.6789604748025
 20
-202.0520941335148
 30
0.0
  0
VERTEX
  5
137
330
130
100
AcDbEntity
  8
VALLEYLINE
  6
AI-LINETYPE-15
 62
    29
100
AcDbVertex
100
AcDb2dVertex
 10
117.7805799401729
 20
-201.6476399235464
 30
0.0
  0
VERTEX
  5
138
330
130
100
AcDbEntity
  8
VALLEYLINE
  6
AI-LINETYPE-15
 62
    29
100
AcDbVertex
100
AcDb2dVertex
 10
120.9014919402607
 20
-201.4374890989462
 30
0.0
  0
VERTEX
  5
139
330
130
100
AcDbEntity
  8
VALLEYLINE
  6
AI-LINETYPE-15
 62
    29
100
AcDbVertex
100
AcDb2dVertex
 10
124.0289496217706
 20
-201.4374890989462
 30
0.0
  0
VERTEX
  5
13A
330
130
100
AcDbEntity
  8
VALLEYLINE
  6
AI-LINETYPE-15
 62
    29
100
AcDbVertex
100
AcDb2dVertex
 10
131.9705837343685
 20
-201.4533365381783
 30
0.0
  0
SEQEND
  5
13B
330
130
100
AcDbEntity
  8
VALLEYLINE
  6
AI-LINETYPE-15
  0
POLYLINE
  5
13D
330
1F
100
AcDbEntity
  8
VALLEYLINE
  6
AI-LINETYPE-16
 62
    29
100
AcDb2dPolyline
 66
     1
 10
0.0
 20
0.0
 30
0.0
  0
VERTEX
  5
13E
330
13D
100
AcDbEntity
  8
VALLEYLINE
  6
AI-LINETYPE-16
 62
    29
100
AcDbVertex
100
AcDb2dVertex
 10
75.90320500489572
 20
-228.7639864879479
 30
0.0
  0
VERTEX
  5
13F
330
13D
100
AcDbEntity
  8
VALLEYLINE
  6
AI-LINETYPE-16
 62
    29
100
AcDbVertex
100
AcDb2dVertex
 10
75.90320500489572
 20
-221.2895073231498
 30
0.0
  0
SEQEND
  5
140
330
13D
100
AcDbEntity
  8
VALLEYLINE
  6
AI-LINETYPE-16
  0
INSERT
  5
143
330
1F
100
AcDbEntity
  8
VALLEYLINE
100
AcDbBlockReference
  2
BLOCK_10
 10
0.0
 20
0.0
 30
0.0
  0
POLYLINE
  5
14B
330
1F
100
AcDbEntity
  8
VALLEYLINE
  6
AI-LINETYPE-18
 62
    29
100
AcDb2dPolyline
 66
     1
 10
0.0
 20
0.0
 30
0.0
  0
VERTEX
  5
14C
330
14B
100
AcDbEntity
  8
VALLEYLINE
  6
AI-LINETYPE-18
 62
    29
100
AcDbVertex
100
AcDb2dVertex
 10
99.4778211556861
 20
-226.8498914363431
 30
0.0
  0
VERTEX
  5
14D
330
14B
100
AcDbEntity
  8
VALLEYLINE
  6
AI-LINETYPE-18
 62
    29
100
AcDbVertex
100
AcDb2dVertex
 10
102.506232341995
 20
-226.0678547611914
 30
0.0
  0
VERTEX
  5
14E
330
14B
100
AcDbEntity
  8
VALLEYLINE
  6
AI-LINETYPE-18
 62
    29
100
AcDbVertex
100
AcDb2dVertex
 10
105.5274088277848
 20
-225.2582573221577
 30
0.0
  0
VERTEX
  5
14F
330
14B
100
AcDbEntity
  8
VALLEYLINE
  6
AI-LINETYPE-18
 62
    29
100
AcDbVertex
100
AcDb2dVertex
 10
108.555992268868
 20
-224.476220647006
 30
0.0
  0
VERTEX
  5
150
330
14B
100
AcDbEntity
  8
VALLEYLINE
  6
AI-LINETYPE-18
 62
    29
100
AcDbVertex
100
AcDb2dVertex
 10
111.6038682446685
 20
-223.7754882253061
 30
0.0
  0
VERTEX
  5
151
330
14B
100
AcDbEntity
  8
VALLEYLINE
  6
AI-LINETYPE-18
 62
    29
100
AcDbVertex
100
AcDb2dVertex
 10
114.6789604748025
 20
-223.2022243365606
 30
0.0
  0
VERTEX
  5
152
330
14B
100
AcDbEntity
  8
VALLEYLINE
  6
AI-LINETYPE-18
 62
    29
100
AcDbVertex
100
AcDb2dVertex
 10
117.7805799401729
 20
-222.7970811074952
 30
0.0
  0
VERTEX
  5
153
330
14B
100
AcDbEntity
  8
VALLEYLINE
  6
AI-LINETYPE-18
 62
    29
100
AcDbVertex
100
AcDb2dVertex
 10
120.9014919402607
 20
-222.588308321089
 30
0.0
  0
VERTEX
  5
154
330
14B
100
AcDbEntity
  8
VALLEYLINE
  6
AI-LINETYPE-18
 62
    29
100
AcDbVertex
100
AcDb2dVertex
 10
124.0289496217706
 20
-222.588308321089
 30
0.0
  0
VERTEX
  5
155
330
14B
100
AcDbEntity
  8
VALLEYLINE
  6
AI-LINETYPE-18
 62
    29
100
AcDbVertex
100
AcDb2dVertex
 10
131.9705837343685
 20
-222.6027777221271
 30
0.0
  0
SEQEND
  5
156
330
14B
100
AcDbEntity
  8
VALLEYLINE
  6
AI-LINETYPE-18
  0
POLYLINE
  5
158
330
1F
100
AcDbEntity
  8
VALLEYLINE
  6
AI-LINETYPE-19
 62
    29
100
AcDb2dPolyline
 66
     1
 10
0.0
 20
0.0
 30
0.0
  0
VERTEX
  5
159
330
158
100
AcDbEntity
  8
VALLEYLINE
  6
AI-LINETYPE-19
 62
    29
100
AcDbVertex
100
AcDb2dVertex
 10
75.90320500489572
 20
-249.9141166909937
 30
0.0
  0
VERTEX
  5
15A
330
158
100
AcDbEntity
  8
VALLEYLINE
  6
AI-LINETYPE-19
 62
    29
100
AcDbVertex
100
AcDb2dVertex
 10
75.90320500489572
 20
-242.4403265452927
 30
0.0
  0
SEQEND
  5
15B
330
158
100
AcDbEntity
  8
VALLEYLINE
  6
AI-LINETYPE-19
  0
INSERT
  5
15E
330
1F
100
AcDbEntity
  8
VALLEYLINE
100
AcDbBlockReference
  2
BLOCK_11
 10
0.0
 20
0.0
 30
0.0
  0
POLYLINE
  5
166
330
1F
100
AcDbEntity
  8
VALLEYLINE
  6
AI-LINETYPE-21
 62
    29
100
AcDb2dPolyline
 66
     1
 10
0.0
 20
0.0
 30
0.0
  0
VERTEX
  5
167
330
166
100
AcDbEntity
  8
VALLEYLINE
  6
AI-LINETYPE-21
 62
    29
100
AcDbVertex
100
AcDb2dVertex
 10
99.4778211556861
 20
-248.0000216393889
 30
0.0
  0
VERTEX
  5
168
330
166
100
AcDbEntity
  8
VALLEYLINE
  6
AI-LINETYPE-21
 62
    29
100
AcDbVertex
100
AcDb2dVertex
 10
102.506232341995
 20
-247.2179849642372
 30
0.0
  0
VERTEX
  5
169
330
166
100
AcDbEntity
  8
VALLEYLINE
  6
AI-LINETYPE-21
 62
    29
100
AcDbVertex
100
AcDb2dVertex
 10
105.5274088277848
 20
-246.4083875252035
 30
0.0
  0
VERTEX
  5
16A
330
166
100
AcDbEntity
  8
VALLEYLINE
  6
AI-LINETYPE-21
 62
    29
100
AcDbVertex
100
AcDb2dVertex
 10
108.555992268868
 20
-245.6263508500518
 30
0.0
  0
VERTEX
  5
16B
330
166
100
AcDbEntity
  8
VALLEYLINE
  6
AI-LINETYPE-21
 62
    29
100
AcDbVertex
100
AcDb2dVertex
 10
111.6038682446685
 20
-244.9249294092549
 30
0.0
  0
VERTEX
  5
16C
330
166
100
AcDbEntity
  8
VALLEYLINE
  6
AI-LINETYPE-21
 62
    29
100
AcDbVertex
100
AcDb2dVertex
 10
114.6789604748025
 20
-244.3530435587034
 30
0.0
  0
VERTEX
  5
16D
330
166
100
AcDbEntity
  8
VALLEYLINE
  6
AI-LINETYPE-21
 62
    29
100
AcDbVertex
100
AcDb2dVertex
 10
117.7805799401729
 20
-243.947900329638
 30
0.0
  0
VERTEX
  5
16E
330
166
100
AcDbEntity
  8
VALLEYLINE
  6
AI-LINETYPE-21
 62
    29
100
AcDbVertex
100
AcDb2dVertex
 10
120.9014919402607
 20
-243.7384385241348
 30
0.0
  0
VERTEX
  5
16F
330
166
100
AcDbEntity
  8
VALLEYLINE
  6
AI-LINETYPE-21
 62
    29
100
AcDbVertex
100
AcDb2dVertex
 10
124.0289496217706
 20
-243.7384385241348
 30
0.0
  0
VERTEX
  5
170
330
166
100
AcDbEntity
  8
VALLEYLINE
  6
AI-LINETYPE-21
 62
    29
100
AcDbVertex
100
AcDb2dVertex
 10
131.9705837343685
 20
-243.75359694427
 30
0.0
  0
SEQEND
  5
171
330
166
100
AcDbEntity
  8
VALLEYLINE
  6
AI-LINETYPE-21
  0
POLYLINE
  5
173
330
1F
100
AcDbEntity
  8
VALLEYLINE
  6
AI-LINETYPE-22
 62
    29
100
AcDb2dPolyline
 66
     1
 10
0.0
 20
0.0
 30
0.0
  0
VERTEX
  5
174
330
173
100
AcDbEntity
  8
VALLEYLINE
  6
AI-LINETYPE-22
 62
    29
100
AcDbVertex
100
AcDb2dVertex
 10
75.90320500489572
 20
-271.0649359131365
 30
0.0
  0
VERTEX
  5
175
330
173
100
AcDbEntity
  8
VALLEYLINE
  6
AI-LINETYPE-22
 62
    29
100
AcDbVertex
100
AcDb2dVertex
 10
75.90320500489572
 20
-263.5904567483385
 30
0.0
  0
SEQEND
  5
176
330
173
100
AcDbEntity
  8
VALLEYLINE
  6
AI-LINETYPE-22
  0
INSERT
  5
179
330
1F
100
AcDbEntity
  8
VALLEYLINE
100
AcDbBlockReference
  2
BLOCK_12
 10
0.0
 20
0.0
 30
0.0
  0
POLYLINE
  5
181
330
1F
100
AcDbEntity
  8
VALLEYLINE
  6
AI-LINETYPE-24
 62
    29
100
AcDb2dPolyline
 66
     1
 10
0.0
 20
0.0
 30
0.0
  0
VERTEX
  5
182
330
181
100
AcDbEntity
  8
VALLEYLINE
  6
AI-LINETYPE-24
 62
    29
100
AcDbVertex
100
AcDb2dVertex
 10
99.4778211556861
 20
-269.1501518424347
 30
0.0
  0
VERTEX
  5
183
330
181
100
AcDbEntity
  8
VALLEYLINE
  6
AI-LINETYPE-24
 62
    29
100
AcDbVertex
100
AcDb2dVertex
 10
102.506232341995
 20
-268.36880418638
 30
0.0
  0
VERTEX
  5
184
330
181
100
AcDbEntity
  8
VALLEYLINE
  6
AI-LINETYPE-24
 62
    29
100
AcDbVertex
100
AcDb2dVertex
 10
105.5274088277848
 20
-267.5592067473463
 30
0.0
  0
VERTEX
  5
185
330
181
100
AcDbEntity
  8
VALLEYLINE
  6
AI-LINETYPE-24
 62
    29
100
AcDbVertex
100
AcDb2dVertex
 10
108.555992268868
 20
-266.7771700721946
 30
0.0
  0
VERTEX
  5
186
330
181
100
AcDbEntity
  8
VALLEYLINE
  6
AI-LINETYPE-24
 62
    29
100
AcDbVertex
100
AcDb2dVertex
 10
111.6038682446685
 20
-266.0757486313977
 30
0.0
  0
VERTEX
  5
187
330
181
100
AcDbEntity
  8
VALLEYLINE
  6
AI-LINETYPE-24
 62
    29
100
AcDbVertex
100
AcDb2dVertex
 10
114.6789604748025
 20
-265.5031737617492
 30
0.0
  0
VERTEX
  5
188
330
181
100
AcDbEntity
  8
VALLEYLINE
  6
AI-LINETYPE-24
 62
    29
100
AcDbVertex
100
AcDb2dVertex
 10
117.7805799401729
 20
-265.0980305326838
 30
0.0
  0
VERTEX
  5
189
330
181
100
AcDbEntity
  8
VALLEYLINE
  6
AI-LINETYPE-24
 62
    29
100
AcDbVertex
100
AcDb2dVertex
 10
120.9014919402607
 20
-264.8892577462777
 30
0.0
  0
VERTEX
  5
18A
330
181
100
AcDbEntity
  8
VALLEYLINE
  6
AI-LINETYPE-24
 62
    29
100
AcDbVertex
100
AcDb2dVertex
 10
124.0289496217706
 20
-264.8892577462777
 30
0.0
  0
VERTEX
  5
18B
330
181
100
AcDbEntity
  8
VALLEYLINE
  6
AI-LINETYPE-24
 62
    29
100
AcDbVertex
100
AcDb2dVertex
 10
131.9705837343685
 20
-264.9037271473157
 30
0.0
  0
SEQEND
  5
18C
330
181
100
AcDbEntity
  8
VALLEYLINE
  6
AI-LINETYPE-24
  0
POLYLINE
  5
18E
330
1F
100
AcDbEntity
  8
VALLEYLINE
  6
AI-LINETYPE-25
 62
    29
100
AcDb2dPolyline
 66
     1
 10
0.0
 20
0.0
 30
0.0
  0
VERTEX
  5
18F
330
18E
100
AcDbEntity
  8
VALLEYLINE
  6
AI-LINETYPE-25
 62
    29
100
AcDbVertex
100
AcDb2dVertex
 10
75.90320500489572
 20
-101.8614827219305
 30
0.0
  0
VERTEX
  5
190
330
18E
100
AcDbEntity
  8
VALLEYLINE
  6
AI-LINETYPE-25
 62
    29
100
AcDbVertex
100
AcDb2dVertex
 10
75.90320500489572
 20
-94.38734806668094
 30
0.0
  0
SEQEND
  5
191
330
18E
100
AcDbEntity
  8
VALLEYLINE
  6
AI-LINETYPE-25
  0
INSERT
  5
194
330
1F
100
AcDbEntity
  8
VALLEYLINE
100
AcDbBlockReference
  2
BLOCK_13
 10
0.0
 20
0.0
 30
0.0
  0
POLYLINE
  5
19C
330
1F
100
AcDbEntity
  8
VALLEYLINE
  6
AI-LINETYPE-27
 62
    29
100
AcDb2dPolyline
 66
     1
 10
0.0
 20
0.0
 30
0.0
  0
VERTEX
  5
19D
330
19C
100
AcDbEntity
  8
VALLEYLINE
  6
AI-LINETYPE-27
 62
    29
100
AcDbVertex
100
AcDb2dVertex
 10
99.4778211556861
 20
-99.94704316077713
 30
0.0
  0
VERTEX
  5
19E
330
19C
100
AcDbEntity
  8
VALLEYLINE
  6
AI-LINETYPE-27
 62
    29
100
AcDbVertex
100
AcDb2dVertex
 10
102.506232341995
 20
-99.16517874039968
 30
0.0
  0
VERTEX
  5
19F
330
19C
100
AcDbEntity
  8
VALLEYLINE
  6
AI-LINETYPE-27
 62
    29
100
AcDbVertex
100
AcDb2dVertex
 10
105.5274088277848
 20
-98.35575355614023
 30
0.0
  0
VERTEX
  5
1A0
330
19C
100
AcDbEntity
  8
VALLEYLINE
  6
AI-LINETYPE-27
 62
    29
100
AcDbVertex
100
AcDb2dVertex
 10
108.555992268868
 20
-97.57388913576278
 30
0.0
  0
VERTEX
  5
1A1
330
19C
100
AcDbEntity
  8
VALLEYLINE
  6
AI-LINETYPE-27
 62
    29
100
AcDbVertex
100
AcDb2dVertex
 10
111.6038682446685
 20
-96.87246769496592
 30
0.0
  0
VERTEX
  5
1A2
330
19C
100
AcDbEntity
  8
VALLEYLINE
  6
AI-LINETYPE-27
 62
    29
100
AcDbVertex
100
AcDb2dVertex
 10
114.6789604748025
 20
-96.29989282531739
 30
0.0
  0
VERTEX
  5
1A3
330
19C
100
AcDbEntity
  8
VALLEYLINE
  6
AI-LINETYPE-27
 62
    29
100
AcDbVertex
100
AcDb2dVertex
 10
117.7805799401729
 20
-95.8952663605748
 30
0.0
  0
VERTEX
  5
1A4
330
19C
100
AcDbEntity
  8
VALLEYLINE
  6
AI-LINETYPE-27
 62
    29
100
AcDbVertex
100
AcDb2dVertex
 10
120.9014919402607
 20
-95.68580455507161
 30
0.0
  0
VERTEX
  5
1A5
330
19C
100
AcDbEntity
  8
VALLEYLINE
  6
AI-LINETYPE-27
 62
    29
100
AcDbVertex
100
AcDb2dVertex
 10
124.0289496217706
 20
-95.68580455507161
 30
0.0
  0
VERTEX
  5
1A6
330
19C
100
AcDbEntity
  8
VALLEYLINE
  6
AI-LINETYPE-27
 62
    29
100
AcDbVertex
100
AcDb2dVertex
 10
131.9705837343685
 20
-95.70079072043245
 30
0.0
  0
SEQEND
  5
1A7
330
19C
100
AcDbEntity
  8
VALLEYLINE
  6
AI-LINETYPE-27
  0
POLYLINE
  5
1A9
330
1F
100
AcDbEntity
  8
VALLEYLINE
  6
AI-LINETYPE-28
 62
    29
100
AcDb2dPolyline
 66
     1
 10
0.0
 20
0.0
 30
0.0
  0
VERTEX
  5
1AA
330
1A9
100
AcDbEntity
  8
VALLEYLINE
  6
AI-LINETYPE-28
 62
    29
100
AcDbVertex
100
AcDb2dVertex
 10
75.90320500489572
 20
-80.71100800933614
 30
0.0
  0
VERTEX
  5
1AB
330
1A9
100
AcDbEntity
  8
VALLEYLINE
  6
AI-LINETYPE-28
 62
    29
100
AcDbVertex
100
AcDb2dVertex
 10
75.90320500489572
 20
-73.23687335408661
 30
0.0
  0
SEQEND
  5
1AC
330
1A9
100
AcDbEntity
  8
VALLEYLINE
  6
AI-LINETYPE-28
  0
INSERT
  5
1AF
330
1F
100
AcDbEntity
  8
VALLEYLINE
100
AcDbBlockReference
  2
BLOCK_14
 10
0.0
 20
0.0
 30
0.0
  0
POLYLINE
  5
1B7
330
1F
100
AcDbEntity
  8
VALLEYLINE
  6
AI-LINETYPE-30
 62
    29
100
AcDb2dPolyline
 66
     1
 10
0.0
 20
0.0
 30
0.0
  0
VERTEX
  5
1B8
330
1B7
100
AcDbEntity
  8
VALLEYLINE
  6
AI-LINETYPE-30
 62
    29
100
AcDbVertex
100
AcDb2dVertex
 10
99.4778211556861
 20
-78.79674070295707
 30
0.0
  0
VERTEX
  5
1B9
330
1B7
100
AcDbEntity
  8
VALLEYLINE
  6
AI-LINETYPE-30
 62
    29
100
AcDbVertex
100
AcDb2dVertex
 10
102.506232341995
 20
-78.01470402780535
 30
0.0
  0
VERTEX
  5
1BA
330
1B7
100
AcDbEntity
  8
VALLEYLINE
  6
AI-LINETYPE-30
 62
    29
100
AcDbVertex
100
AcDb2dVertex
 10
105.5274088277848
 20
-77.20527884354591
 30
0.0
  0
VERTEX
  5
1BB
330
1B7
100
AcDbEntity
  8
VALLEYLINE
  6
AI-LINETYPE-30
 62
    29
100
AcDbVertex
100
AcDb2dVertex
 10
108.555992268868
 20
-76.4232421683942
 30
0.0
  0
VERTEX
  5
1BC
330
1B7
100
AcDbEntity
  8
VALLEYLINE
  6
AI-LINETYPE-30
 62
    29
100
AcDbVertex
100
AcDb2dVertex
 10
111.6038682446685
 20
-75.72216523714584
 30
0.0
  0
VERTEX
  5
1BD
330
1B7
100
AcDbEntity
  8
VALLEYLINE
  6
AI-LINETYPE-30
 62
    29
100
AcDbVertex
100
AcDb2dVertex
 10
114.6789604748025
 20
-75.14959036749732
 30
0.0
  0
VERTEX
  5
1BE
330
1B7
100
AcDbEntity
  8
VALLEYLINE
  6
AI-LINETYPE-30
 62
    29
100
AcDbVertex
100
AcDb2dVertex
 10
117.7805799401729
 20
-74.74479164798048
 30
0.0
  0
VERTEX
  5
1BF
330
1B7
100
AcDbEntity
  8
VALLEYLINE
  6
AI-LINETYPE-30
 62
    29
100
AcDbVertex
100
AcDb2dVertex
 10
120.9014919402607
 20
-74.53532984247728
 30
0.0
  0
VERTEX
  5
1C0
330
1B7
100
AcDbEntity
  8
VALLEYLINE
  6
AI-LINETYPE-30
 62
    29
100
AcDbVertex
100
AcDb2dVertex
 10
124.0289496217706
 20
-74.53532984247728
 30
0.0
  0
VERTEX
  5
1C1
330
1B7
100
AcDbEntity
  8
VALLEYLINE
  6
AI-LINETYPE-30
 62
    29
100
AcDbVertex
100
AcDb2dVertex
 10
131.9705837343685
 20
-74.55031600783812
 30
0.0
  0
SEQEND
  5
1C2
330
1B7
100
AcDbEntity
  8
VALLEYLINE
  6
AI-LINETYPE-30
  0
POLYLINE
  5
1C4
330
1F
100
AcDbEntity
  8
VALLEYLINE
  6
AI-LINETYPE-31
 62
    29
100
AcDb2dPolyline
 66
     1
 10
0.0
 20
0.0
 30
0.0
  0
VERTEX
  5
1C5
330
1C4
100
AcDbEntity
  8
VALLEYLINE
  6
AI-LINETYPE-31
 62
    29
100
AcDbVertex
100
AcDb2dVertex
 10
75.90320500489572
 20
-59.56070555151608
 30
0.0
  0
VERTEX
  5
1C6
330
1C4
100
AcDbEntity
  8
VALLEYLINE
  6
AI-LINETYPE-31
 62
    29
100
AcDbVertex
100
AcDb2dVertex
 10
75.90320500489572
 20
-52.08657089626655
 30
0.0
  0
SEQEND
  5
1C7
330
1C4
100
AcDbEntity
  8
VALLEYLINE
  6
AI-LINETYPE-31
  0
INSERT
  5
1CA
330
1F
100
AcDbEntity
  8
VALLEYLINE
100
AcDbBlockReference
  2
BLOCK_15
 10
0.0
 20
0.0
 30
0.0
  0
POLYLINE
  5
1D2
330
1F
100
AcDbEntity
  8
VALLEYLINE
  6
AI-LINETYPE-33
 62
    29
100
AcDb2dPolyline
 66
     1
 10
0.0
 20
0.0
 30
0.0
  0
VERTEX
  5
1D3
330
1D2
100
AcDbEntity
  8
VALLEYLINE
  6
AI-LINETYPE-33
 62
    29
100
AcDbVertex
100
AcDb2dVertex
 10
99.4778211556861
 20
-57.64626599036274
 30
0.0
  0
VERTEX
  5
1D4
330
1D2
100
AcDbEntity
  8
VALLEYLINE
  6
AI-LINETYPE-33
 62
    29
100
AcDbVertex
100
AcDb2dVertex
 10
102.506232341995
 20
-56.86440156998529
 30
0.0
  0
VERTEX
  5
1D5
330
1D2
100
AcDbEntity
  8
VALLEYLINE
  6
AI-LINETYPE-33
 62
    29
100
AcDbVertex
100
AcDb2dVertex
 10
105.5274088277848
 20
-56.05480413095158
 30
0.0
  0
VERTEX
  5
1D6
330
1D2
100
AcDbEntity
  8
VALLEYLINE
  6
AI-LINETYPE-33
 62
    29
100
AcDbVertex
100
AcDb2dVertex
 10
108.555992268868
 20
-55.27293971057413
 30
0.0
  0
VERTEX
  5
1D7
330
1D2
100
AcDbEntity
  8
VALLEYLINE
  6
AI-LINETYPE-33
 62
    29
100
AcDbVertex
100
AcDb2dVertex
 10
111.6038682446685
 20
-54.57151826977726
 30
0.0
  0
VERTEX
  5
1D8
330
1D2
100
AcDbEntity
  8
VALLEYLINE
  6
AI-LINETYPE-33
 62
    29
100
AcDbVertex
100
AcDb2dVertex
 10
114.6789604748025
 20
-53.999115654903
 30
0.0
  0
VERTEX
  5
1D9
330
1D2
100
AcDbEntity
  8
VALLEYLINE
  6
AI-LINETYPE-33
 62
    29
100
AcDbVertex
100
AcDb2dVertex
 10
117.7805799401729
 20
-53.59448919016041
 30
0.0
  0
VERTEX
  5
1DA
330
1D2
100
AcDbEntity
  8
VALLEYLINE
  6
AI-LINETYPE-33
 62
    29
100
AcDbVertex
100
AcDb2dVertex
 10
120.9014919402607
 20
-53.38485512988296
 30
0.0
  0
VERTEX
  5
1DB
330
1D2
100
AcDbEntity
  8
VALLEYLINE
  6
AI-LINETYPE-33
 62
    29
100
AcDbVertex
100
AcDb2dVertex
 10
124.0289496217706
 20
-53.38485512988296
 30
0.0
  0
VERTEX
  5
1DC
330
1D2
100
AcDbEntity
  8
VALLEYLINE
  6
AI-LINETYPE-33
 62
    29
100
AcDbVertex
100
AcDb2dVertex
 10
131.9705837343685
 20
-53.40001355001805
 30
0.0
  0
SEQEND
  5
1DD
330
1D2
100
AcDbEntity
  8
VALLEYLINE
  6
AI-LINETYPE-33
  0
POLYLINE
  5
1DF
330
1F
100
AcDbEntity
  8
VALLEYLINE
  6
AI-LINETYPE-34
 62
    29
100
AcDb2dPolyline
 66
     1
 10
0.0
 20
0.0
 30
0.0
  0
VERTEX
  5
1E0
330
1DF
100
AcDbEntity
  8
VALLEYLINE
  6
AI-LINETYPE-34
 62
    29
100
AcDbVertex
100
AcDb2dVertex
 10
75.90320500489572
 20
-38.41005858414749
 30
0.0
  0
VERTEX
  5
1E1
330
1DF
100
AcDbEntity
  8
VALLEYLINE
  6
AI-LINETYPE-34
 62
    29
100
AcDbVertex
100
AcDb2dVertex
 10
75.90320500489572
 20
-30.93592392889796
 30
0.0
  0
SEQEND
  5
1E2
330
1DF
100
AcDbEntity
  8
VALLEYLINE
  6
AI-LINETYPE-34
  0
POLYLINE
  5
1E4
330
1F
100
AcDbEntity
  8
VALLEYLINE
  6
AI-LINETYPE-35
 62
    29
100
AcDb2dPolyline
 66
     1
 10
0.0
 20
0.0
 30
0.0
  0
VERTEX
  5
1E5
330
1E4
100
AcDbEntity
  8
VALLEYLINE
  6
AI-LINETYPE-35
 62
    29
100
AcDbVertex
100
AcDb2dVertex
 10
99.4778211556861
 20
-36.49596353254267
 30
0.0
  0
VERTEX
  5
1E6
330
1E4
100
AcDbEntity
  8
VALLEYLINE
  6
AI-LINETYPE-35
 62
    29
100
AcDbVertex
100
AcDb2dVertex
 10
102.506232341995
 20
-35.71392685739097
 30
0.0
  0
VERTEX
  5
1E7
330
1E4
100
AcDbEntity
  8
VALLEYLINE
  6
AI-LINETYPE-35
 62
    29
100
AcDbVertex
100
AcDb2dVertex
 10
105.5274088277848
 20
-34.90450167313151
 30
0.0
  0
VERTEX
  5
1E8
330
1E4
100
AcDbEntity
  8
VALLEYLINE
  6
AI-LINETYPE-35
 62
    29
100
AcDbVertex
100
AcDb2dVertex
 10
108.555992268868
 20
-34.1224649979798
 30
0.0
  0
VERTEX
  5
1E9
330
1E4
100
AcDbEntity
  8
VALLEYLINE
  6
AI-LINETYPE-35
 62
    29
100
AcDbVertex
100
AcDb2dVertex
 10
111.6038682446685
 20
-33.4212158119572
 30
0.0
  0
VERTEX
  5
1EA
330
1E4
100
AcDbEntity
  8
VALLEYLINE
  6
AI-LINETYPE-35
 62
    29
100
AcDbVertex
100
AcDb2dVertex
 10
114.6789604748025
 20
-32.84881319708294
 30
0.0
  0
VERTEX
  5
1EB
330
1E4
100
AcDbEntity
  8
VALLEYLINE
  6
AI-LINETYPE-35
 62
    29
100
AcDbVertex
100
AcDb2dVertex
 10
117.7805799401729
 20
-32.44384222279182
 30
0.0
  0
VERTEX
  5
1EC
330
1E4
100
AcDbEntity
  8
VALLEYLINE
  6
AI-LINETYPE-35
 62
    29
100
AcDbVertex
100
AcDb2dVertex
 10
120.9014919402607
 20
-32.23455267206289
 30
0.0
  0
VERTEX
  5
1ED
330
1E4
100
AcDbEntity
  8
VALLEYLINE
  6
AI-LINETYPE-35
 62
    29
100
AcDbVertex
100
AcDb2dVertex
 10
124.0289496217706
 20
-32.23455267206289
 30
0.0
  0
VERTEX
  5
1EE
330
1E4
100
AcDbEntity
  8
VALLEYLINE
  6
AI-LINETYPE-35
 62
    29
100
AcDbVertex
100
AcDb2dVertex
 10
131.9705837343685
 20
-32.24953883742373
 30
0.0
  0
SEQEND
  5
1EF
330
1E4
100
AcDbEntity
  8
VALLEYLINE
  6
AI-LINETYPE-35
  0
INSERT
  5
1F3
330
1F
100
AcDbEntity
  8
MOUNTAINLINE
100
AcDbBlockReference
  2
BLOCK_16
 10
0.0
 20
0.0
 30
0.0
  0
POLYLINE
  5
1FA
330
1F
100
AcDbEntity
  8
MOUNTAINLINE
 62
    29
100
AcDb2dPolyline
 66
     1
 10
0.0
 20
0.0
 30
0.0
  0
VERTEX
  5
1FB
330
1FA
100
AcDbEntity
  8
MOUNTAINLINE
 62
    29
100
AcDbVertex
100
AcDb2dVertex
 10
68.34208168864365
 20
-125.0375013250774
 30
0.0
  0
VERTEX
  5
1FC
330
1FA
100
AcDbEntity
  8
MOUNTAINLINE
 62
    29
100
AcDbVertex
100
AcDb2dVertex
 10
75.90320500489572
 20
-123.0117851797505
 30
0.0
  0
VERTEX
  5
1FD
330
1FA
100
AcDbEntity
  8
MOUNTAINLINE
 62
    29
100
AcDbVertex
100
AcDb2dVertex
 10
84.00451929323499
 20
-122.9852579445141
 30
0.0
  0
VERTEX
  5
1FE
330
1FA
100
AcDbEntity
  8
MOUNTAINLINE
 62
    29
100
AcDbVertex
100
AcDb2dVertex
 10
87.13249373906757
 20
-122.9852579445141
 30
0.0
  0
VERTEX
  5
1FF
330
1FA
100
AcDbEntity
  8
MOUNTAINLINE
 62
    29
100
AcDbVertex
100
AcDb2dVertex
 10
90.25323348438114
 20
-122.7754516294624
 30
0.0
  0
VERTEX
  5
200
330
1FA
100
AcDbEntity
  8
MOUNTAINLINE
 62
    29
100
AcDbVertex
100
AcDb2dVertex
 10
93.35450844020305
 20
-122.3711696742683
 30
0.0
  0
VERTEX
  5
201
330
1FA
100
AcDbEntity
  8
MOUNTAINLINE
 62
    29
100
AcDbVertex
100
AcDb2dVertex
 10
96.42977292511131
 20
-121.7982502950713
 30
0.0
  0
VERTEX
  5
202
330
1FA
100
AcDbEntity
  8
MOUNTAINLINE
 62
    29
100
AcDbVertex
100
AcDb2dVertex
 10
99.4778211556861
 20
-121.0973456185972
 30
0.0
  0
SEQEND
  5
203
330
1FA
100
AcDbEntity
  8
MOUNTAINLINE
  0
POLYLINE
  5
204
330
1F
100
AcDbEntity
  8
MOUNTAINLINE
 62
    29
100
AcDb2dPolyline
 66
     1
 10
0.0
 20
0.0
 30
0.0
  0
VERTEX
  5
205
330
204
100
AcDbEntity
  8
MOUNTAINLINE
 62
    29
100
AcDbVertex
100
AcDb2dVertex
 10
75.90320500489572
 20
-123.0117851797505
 30
0.0
  0
VERTEX
  5
206
330
204
100
AcDbEntity
  8
MOUNTAINLINE
 62
    29
100
AcDbVertex
100
AcDb2dVertex
 10
75.90320500489572
 20
-136.6884697466439
 30
0.0
  0
SEQEND
  5
207
330
204
100
AcDbEntity
  8
MOUNTAINLINE
  0
INSERT
  5
209
330
1F
100
AcDbEntity
  8
MOUNTAINLINE
100
AcDbBlockReference
  2
BLOCK_17
 10
0.0
 20
0.0
 30
0.0
  0
POLYLINE
  5
210
330
1F
100
AcDbEntity
  8
MOUNTAINLINE
 62
    29
100
AcDb2dPolyline
 66
     1
 10
0.0
 20
0.0
 30
0.0
  0
VERTEX
  5
211
330
210
100
AcDbEntity
  8
MOUNTAINLINE
 62
    29
100
AcDbVertex
100
AcDb2dVertex
 10
68.34208168864365
 20
-146.1876315281232
 30
0.0
  0
VERTEX
  5
212
330
210
100
AcDbEntity
  8
MOUNTAINLINE
 62
    29
100
AcDbVertex
100
AcDb2dVertex
 10
75.90320500489572
 20
-144.1626044018934
 30
0.0
  0
VERTEX
  5
213
330
210
100
AcDbEntity
  8
MOUNTAINLINE
 62
    29
100
AcDbVertex
100
AcDb2dVertex
 10
84.00451929323499
 20
-144.1350436380114
 30
0.0
  0
VERTEX
  5
214
330
210
100
AcDbEntity
  8
MOUNTAINLINE
 62
    29
100
AcDbVertex
100
AcDb2dVertex
 10
87.13249373906757
 20
-144.1350436380114
 30
0.0
  0
VERTEX
  5
215
330
210
100
AcDbEntity
  8
MOUNTAINLINE
 62
    29
100
AcDbVertex
100
AcDb2dVertex
 10
90.25323348438114
 20
-143.9259263420567
 30
0.0
  0
VERTEX
  5
216
330
210
100
AcDbEntity
  8
MOUNTAINLINE
 62
    29
100
AcDbVertex
100
AcDb2dVertex
 10
93.35450844020305
 20
-143.5214721320884
 30
0.0
  0
VERTEX
  5
217
330
210
100
AcDbEntity
  8
MOUNTAINLINE
 62
    29
100
AcDbVertex
100
AcDb2dVertex
 10
96.42977292511131
 20
-142.9488972624399
 30
0.0
  0
VERTEX
  5
218
330
210
100
AcDbEntity
  8
MOUNTAINLINE
 62
    29
100
AcDbVertex
100
AcDb2dVertex
 10
99.4778211556861
 20
-142.2478203311915
 30
0.0
  0
SEQEND
  5
219
330
210
100
AcDbEntity
  8
MOUNTAINLINE
  0
POLYLINE
  5
21A
330
1F
100
AcDbEntity
  8
MOUNTAINLINE
 62
    29
100
AcDb2dPolyline
 66
     1
 10
0.0
 20
0.0
 30
0.0
  0
VERTEX
  5
21B
330
21A
100
AcDbEntity
  8
MOUNTAINLINE
 62
    29
100
AcDbVertex
100
AcDb2dVertex
 10
75.90320500489572
 20
-144.1626044018934
 30
0.0
  0
VERTEX
  5
21C
330
21A
100
AcDbEntity
  8
MOUNTAINLINE
 62
    29
100
AcDbVertex
100
AcDb2dVertex
 10
75.90320500489572
 20
-157.8384276949154
 30
0.0
  0
SEQEND
  5
21D
330
21A
100
AcDbEntity
  8
MOUNTAINLINE
  0
INSERT
  5
21F
330
1F
100
AcDbEntity
  8
MOUNTAINLINE
100
AcDbBlockReference
  2
BLOCK_18
 10
0.0
 20
0.0
 30
0.0
  0
POLYLINE
  5
226
330
1F
100
AcDbEntity
  8
MOUNTAINLINE
 62
    29
100
AcDb2dPolyline
 66
     1
 10
0.0
 20
0.0
 30
0.0
  0
VERTEX
  5
227
330
226
100
AcDbEntity
  8
MOUNTAINLINE
 62
    29
100
AcDbVertex
100
AcDb2dVertex
 10
68.34208168864365
 20
-167.3386230050403
 30
0.0
  0
VERTEX
  5
228
330
226
100
AcDbEntity
  8
MOUNTAINLINE
 62
    29
100
AcDbVertex
100
AcDb2dVertex
 10
75.90320500489572
 20
-165.3122178406164
 30
0.0
  0
VERTEX
  5
229
330
226
100
AcDbEntity
  8
MOUNTAINLINE
 62
    29
100
AcDbVertex
100
AcDb2dVertex
 10
84.00451929323499
 20
-165.2860351149285
 30
0.0
  0
VERTEX
  5
22A
330
226
100
AcDbEntity
  8
MOUNTAINLINE
 62
    29
100
AcDbVertex
100
AcDb2dVertex
 10
87.13249373906757
 20
-165.2860351149285
 30
0.0
  0
VERTEX
  5
22B
330
226
100
AcDbEntity
  8
MOUNTAINLINE
 62
    29
100
AcDbVertex
100
AcDb2dVertex
 10
90.25323348438114
 20
-165.0765733094253
 30
0.0
  0
VERTEX
  5
22C
330
226
100
AcDbEntity
  8
MOUNTAINLINE
 62
    29
100
AcDbVertex
100
AcDb2dVertex
 10
93.35450844020305
 20
-164.672119099457
 30
0.0
  0
VERTEX
  5
22D
330
226
100
AcDbEntity
  8
MOUNTAINLINE
 62
    29
100
AcDbVertex
100
AcDb2dVertex
 10
96.42977292511131
 20
-164.0988552107114
 30
0.0
  0
VERTEX
  5
22E
330
226
100
AcDbEntity
  8
MOUNTAINLINE
 62
    29
100
AcDbVertex
100
AcDb2dVertex
 10
99.4778211556861
 20
-163.3981227890116
 30
0.0
  0
SEQEND
  5
22F
330
226
100
AcDbEntity
  8
MOUNTAINLINE
  0
POLYLINE
  5
230
330
1F
100
AcDbEntity
  8
MOUNTAINLINE
 62
    29
100
AcDb2dPolyline
 66
     1
 10
0.0
 20
0.0
 30
0.0
  0
VERTEX
  5
231
330
230
100
AcDbEntity
  8
MOUNTAINLINE
 62
    29
100
AcDbVertex
100
AcDb2dVertex
 10
75.90320500489572
 20
-165.3122178406164
 30
0.0
  0
VERTEX
  5
232
330
230
100
AcDbEntity
  8
MOUNTAINLINE
 62
    29
100
AcDbVertex
100
AcDb2dVertex
 10
75.90320500489572
 20
-178.9885578979612
 30
0.0
  0
SEQEND
  5
233
330
230
100
AcDbEntity
  8
MOUNTAINLINE
  0
INSERT
  5
235
330
1F
100
AcDbEntity
  8
MOUNTAINLINE
100
AcDbBlockReference
  2
BLOCK_19
 10
0.0
 20
0.0
 30
0.0
  0
POLYLINE
  5
23C
330
1F
100
AcDbEntity
  8
MOUNTAINLINE
 62
    29
100
AcDb2dPolyline
 66
     1
 10
0.0
 20
0.0
 30
0.0
  0
VERTEX
  5
23D
330
23C
100
AcDbEntity
  8
MOUNTAINLINE
 62
    29
100
AcDbVertex
100
AcDb2dVertex
 10
68.34208168864365
 20
-188.4887532080862
 30
0.0
  0
VERTEX
  5
23E
330
23C
100
AcDbEntity
  8
MOUNTAINLINE
 62
    29
100
AcDbVertex
100
AcDb2dVertex
 10
75.90320500489572
 20
-186.4630370627592
 30
0.0
  0
VERTEX
  5
23F
330
23C
100
AcDbEntity
  8
MOUNTAINLINE
 62
    29
100
AcDbVertex
100
AcDb2dVertex
 10
84.00451929323499
 20
-186.4361653179743
 30
0.0
  0
VERTEX
  5
240
330
23C
100
AcDbEntity
  8
MOUNTAINLINE
 62
    29
100
AcDbVertex
100
AcDb2dVertex
 10
87.13249373906757
 20
-186.4361653179743
 30
0.0
  0
VERTEX
  5
241
330
23C
100
AcDbEntity
  8
MOUNTAINLINE
 62
    29
100
AcDbVertex
100
AcDb2dVertex
 10
90.25323348438114
 20
-186.2267035124711
 30
0.0
  0
VERTEX
  5
242
330
23C
100
AcDbEntity
  8
MOUNTAINLINE
 62
    29
100
AcDbVertex
100
AcDb2dVertex
 10
93.35450844020305
 20
-185.8215602834057
 30
0.0
  0
VERTEX
  5
243
330
23C
100
AcDbEntity
  8
MOUNTAINLINE
 62
    29
100
AcDbVertex
100
AcDb2dVertex
 10
96.42977292511131
 20
-185.2496744328542
 30
0.0
  0
VERTEX
  5
244
330
23C
100
AcDbEntity
  8
MOUNTAINLINE
 62
    29
100
AcDbVertex
100
AcDb2dVertex
 10
99.4778211556861
 20
-184.5489420111545
 30
0.0
  0
SEQEND
  5
245
330
23C
100
AcDbEntity
  8
MOUNTAINLINE
  0
POLYLINE
  5
246
330
1F
100
AcDbEntity
  8
MOUNTAINLINE
 62
    29
100
AcDb2dPolyline
 66
     1
 10
0.0
 20
0.0
 30
0.0
  0
VERTEX
  5
247
330
246
100
AcDbEntity
  8
MOUNTAINLINE
 62
    29
100
AcDbVertex
100
AcDb2dVertex
 10
75.90320500489572
 20
-186.4630370627592
 30
0.0
  0
VERTEX
  5
248
330
246
100
AcDbEntity
  8
MOUNTAINLINE
 62
    29
100
AcDbVertex
100
AcDb2dVertex
 10
75.90320500489572
 20
-200.1393771201041
 30
0.0
  0
SEQEND
  5
249
330
246
100
AcDbEntity
  8
MOUNTAINLINE
  0
INSERT
  5
24B
330
1F
100
AcDbEntity
  8
MOUNTAINLINE
100
AcDbBlockReference
  2
BLOCK_20
 10
0.0
 20
0.0
 30
0.0
  0
POLYLINE
  5
252
330
1F
100
AcDbEntity
  8
MOUNTAINLINE
 62
    29
100
AcDb2dPolyline
 66
     1
 10
0.0
 20
0.0
 30
0.0
  0
VERTEX
  5
253
330
252
100
AcDbEntity
  8
MOUNTAINLINE
 62
    29
100
AcDbVertex
100
AcDb2dVertex
 10
68.34208168864365
 20
-209.639572430229
 30
0.0
  0
VERTEX
  5
254
330
252
100
AcDbEntity
  8
MOUNTAINLINE
 62
    29
100
AcDbVertex
100
AcDb2dVertex
 10
75.90320500489572
 20
-207.6131672658051
 30
0.0
  0
VERTEX
  5
255
330
252
100
AcDbEntity
  8
MOUNTAINLINE
 62
    29
100
AcDbVertex
100
AcDb2dVertex
 10
84.00451929323499
 20
-207.5869845401172
 30
0.0
  0
VERTEX
  5
256
330
252
100
AcDbEntity
  8
MOUNTAINLINE
 62
    29
100
AcDbVertex
100
AcDb2dVertex
 10
87.13249373906757
 20
-207.5869845401172
 30
0.0
  0
VERTEX
  5
257
330
252
100
AcDbEntity
  8
MOUNTAINLINE
 62
    29
100
AcDbVertex
100
AcDb2dVertex
 10
90.25323348438114
 20
-207.377522734614
 30
0.0
  0
VERTEX
  5
258
330
252
100
AcDbEntity
  8
MOUNTAINLINE
 62
    29
100
AcDbVertex
100
AcDb2dVertex
 10
93.35450844020305
 20
-206.9723795055486
 30
0.0
  0
VERTEX
  5
259
330
252
100
AcDbEntity
  8
MOUNTAINLINE
 62
    29
100
AcDbVertex
100
AcDb2dVertex
 10
96.42977292511131
 20
-206.4004936549971
 30
0.0
  0
VERTEX
  5
25A
330
252
100
AcDbEntity
  8
MOUNTAINLINE
 62
    29
100
AcDbVertex
100
AcDb2dVertex
 10
99.4778211556861
 20
-205.6990722142002
 30
0.0
  0
SEQEND
  5
25B
330
252
100
AcDbEntity
  8
MOUNTAINLINE
  0
POLYLINE
  5
25C
330
1F
100
AcDbEntity
  8
MOUNTAINLINE
 62
    29
100
AcDb2dPolyline
 66
     1
 10
0.0
 20
0.0
 30
0.0
  0
VERTEX
  5
25D
330
25C
100
AcDbEntity
  8
MOUNTAINLINE
 62
    29
100
AcDbVertex
100
AcDb2dVertex
 10
75.90320500489572
 20
-207.6131672658051
 30
0.0
  0
VERTEX
  5
25E
330
25C
100
AcDbEntity
  8
MOUNTAINLINE
 62
    29
100
AcDbVertex
100
AcDb2dVertex
 10
75.90320500489572
 20
-221.2895073231498
 30
0.0
  0
SEQEND
  5
25F
330
25C
100
AcDbEntity
  8
MOUNTAINLINE
  0
INSERT
  5
261
330
1F
100
AcDbEntity
  8
MOUNTAINLINE
100
AcDbBlockReference
  2
BLOCK_21
 10
0.0
 20
0.0
 30
0.0
  0
POLYLINE
  5
268
330
1F
100
AcDbEntity
  8
MOUNTAINLINE
 62
    29
100
AcDb2dPolyline
 66
     1
 10
0.0
 20
0.0
 30
0.0
  0
VERTEX
  5
269
330
268
100
AcDbEntity
  8
MOUNTAINLINE
 62
    29
100
AcDbVertex
100
AcDb2dVertex
 10
68.34208168864365
 20
-230.7897026332748
 30
0.0
  0
VERTEX
  5
26A
330
268
100
AcDbEntity
  8
MOUNTAINLINE
 62
    29
100
AcDbVertex
100
AcDb2dVertex
 10
75.90320500489572
 20
-228.7639864879479
 30
0.0
  0
VERTEX
  5
26B
330
268
100
AcDbEntity
  8
MOUNTAINLINE
 62
    29
100
AcDbVertex
100
AcDb2dVertex
 10
84.00451929323499
 20
-228.7371147431629
 30
0.0
  0
VERTEX
  5
26C
330
268
100
AcDbEntity
  8
MOUNTAINLINE
 62
    29
100
AcDbVertex
100
AcDb2dVertex
 10
87.13249373906757
 20
-228.7371147431629
 30
0.0
  0
VERTEX
  5
26D
330
268
100
AcDbEntity
  8
MOUNTAINLINE
 62
    29
100
AcDbVertex
100
AcDb2dVertex
 10
90.25323348438114
 20
-228.5276529376598
 30
0.0
  0
VERTEX
  5
26E
330
268
100
AcDbEntity
  8
MOUNTAINLINE
 62
    29
100
AcDbVertex
100
AcDb2dVertex
 10
93.35450844020305
 20
-228.1225097085944
 30
0.0
  0
VERTEX
  5
26F
330
268
100
AcDbEntity
  8
MOUNTAINLINE
 62
    29
100
AcDbVertex
100
AcDb2dVertex
 10
96.42977292511131
 20
-227.5506238580429
 30
0.0
  0
VERTEX
  5
270
330
268
100
AcDbEntity
  8
MOUNTAINLINE
 62
    29
100
AcDbVertex
100
AcDb2dVertex
 10
99.4778211556861
 20
-226.8498914363431
 30
0.0
  0
SEQEND
  5
271
330
268
100
AcDbEntity
  8
MOUNTAINLINE
  0
POLYLINE
  5
272
330
1F
100
AcDbEntity
  8
MOUNTAINLINE
 62
    29
100
AcDb2dPolyline
 66
     1
 10
0.0
 20
0.0
 30
0.0
  0
VERTEX
  5
273
330
272
100
AcDbEntity
  8
MOUNTAINLINE
 62
    29
100
AcDbVertex
100
AcDb2dVertex
 10
75.90320500489572
 20
-228.7639864879479
 30
0.0
  0
VERTEX
  5
274
330
272
100
AcDbEntity
  8
MOUNTAINLINE
 62
    29
100
AcDbVertex
100
AcDb2dVertex
 10
75.90320500489572
 20
-242.4403265452927
 30
0.0
  0
SEQEND
  5
275
330
272
100
AcDbEntity
  8
MOUNTAINLINE
  0
INSERT
  5
277
330
1F
100
AcDbEntity
  8
MOUNTAINLINE
100
AcDbBlockReference
  2
BLOCK_22
 10
0.0
 20
0.0
 30
0.0
  0
POLYLINE
  5
27E
330
1F
100
AcDbEntity
  8
MOUNTAINLINE
 62
    29
100
AcDb2dPolyline
 66
     1
 10
0.0
 20
0.0
 30
0.0
  0
VERTEX
  5
27F
330
27E
100
AcDbEntity
  8
MOUNTAINLINE
 62
    29
100
AcDbVertex
100
AcDb2dVertex
 10
68.34208168864365
 20
-251.9405218554177
 30
0.0
  0
VERTEX
  5
280
330
27E
100
AcDbEntity
  8
MOUNTAINLINE
 62
    29
100
AcDbVertex
100
AcDb2dVertex
 10
75.90320500489572
 20
-249.9141166909937
 30
0.0
  0
VERTEX
  5
281
330
27E
100
AcDbEntity
  8
MOUNTAINLINE
 62
    29
100
AcDbVertex
100
AcDb2dVertex
 10
84.00451929323499
 20
-249.8879339653058
 30
0.0
  0
VERTEX
  5
282
330
27E
100
AcDbEntity
  8
MOUNTAINLINE
 62
    29
100
AcDbVertex
100
AcDb2dVertex
 10
87.13249373906757
 20
-249.8879339653058
 30
0.0
  0
VERTEX
  5
283
330
27E
100
AcDbEntity
  8
MOUNTAINLINE
 62
    29
100
AcDbVertex
100
AcDb2dVertex
 10
90.25323348438114
 20
-249.6784721598026
 30
0.0
  0
VERTEX
  5
284
330
27E
100
AcDbEntity
  8
MOUNTAINLINE
 62
    29
100
AcDbVertex
100
AcDb2dVertex
 10
93.35450844020305
 20
-249.2733289307372
 30
0.0
  0
VERTEX
  5
285
330
27E
100
AcDbEntity
  8
MOUNTAINLINE
 62
    29
100
AcDbVertex
100
AcDb2dVertex
 10
96.42977292511131
 20
-248.7014430801858
 30
0.0
  0
VERTEX
  5
286
330
27E
100
AcDbEntity
  8
MOUNTAINLINE
 62
    29
100
AcDbVertex
100
AcDb2dVertex
 10
99.4778211556861
 20
-248.0000216393889
 30
0.0
  0
SEQEND
  5
287
330
27E
100
AcDbEntity
  8
MOUNTAINLINE
  0
POLYLINE
  5
288
330
1F
100
AcDbEntity
  8
MOUNTAINLINE
 62
    29
100
AcDb2dPolyline
 66
     1
 10
0.0
 20
0.0
 30
0.0
  0
VERTEX
  5
289
330
288
100
AcDbEntity
  8
MOUNTAINLINE
 62
    29
100
AcDbVertex
100
AcDb2dVertex
 10
75.90320500489572
 20
-249.9141166909937
 30
0.0
  0
VERTEX
  5
28A
330
288
100
AcDbEntity
  8
MOUNTAINLINE
 62
    29
100
AcDbVertex
100
AcDb2dVertex
 10
75.90320500489572
 20
-263.5904567483385
 30
0.0
  0
SEQEND
  5
28B
330
288
100
AcDbEntity
  8
MOUNTAINLINE
  0
INSERT
  5
28D
330
1F
100
AcDbEntity
  8
MOUNTAINLINE
100
AcDbBlockReference
  2
BLOCK_23
 10
0.0
 20
0.0
 30
0.0
  0
POLYLINE
  5
294
330
1F
100
AcDbEntity
  8
MOUNTAINLINE
 62
    29
100
AcDb2dPolyline
 66
     1
 10
0.0
 20
0.0
 30
0.0
  0
VERTEX
  5
295
330
294
100
AcDbEntity
  8
MOUNTAINLINE
 62
    29
100
AcDbVertex
100
AcDb2dVertex
 10
68.34208168864365
 20
-273.0906520584634
 30
0.0
  0
VERTEX
  5
296
330
294
100
AcDbEntity
  8
MOUNTAINLINE
 62
    29
100
AcDbVertex
100
AcDb2dVertex
 10
75.90320500489572
 20
-271.0649359131365
 30
0.0
  0
VERTEX
  5
297
330
294
100
AcDbEntity
  8
MOUNTAINLINE
 62
    29
100
AcDbVertex
100
AcDb2dVertex
 10
84.00451929323499
 20
-271.0380641683516
 30
0.0
  0
VERTEX
  5
298
330
294
100
AcDbEntity
  8
MOUNTAINLINE
 62
    29
100
AcDbVertex
100
AcDb2dVertex
 10
87.13249373906757
 20
-271.0380641683516
 30
0.0
  0
VERTEX
  5
299
330
294
100
AcDbEntity
  8
MOUNTAINLINE
 62
    29
100
AcDbVertex
100
AcDb2dVertex
 10
90.25323348438114
 20
-270.8279133437514
 30
0.0
  0
VERTEX
  5
29A
330
294
100
AcDbEntity
  8
MOUNTAINLINE
 62
    29
100
AcDbVertex
100
AcDb2dVertex
 10
93.35450844020305
 20
-270.4241481528801
 30
0.0
  0
VERTEX
  5
29B
330
294
100
AcDbEntity
  8
MOUNTAINLINE
 62
    29
100
AcDbVertex
100
AcDb2dVertex
 10
96.42977292511131
 20
-269.8508842641345
 30
0.0
  0
VERTEX
  5
29C
330
294
100
AcDbEntity
  8
MOUNTAINLINE
 62
    29
100
AcDbVertex
100
AcDb2dVertex
 10
99.4778211556861
 20
-269.1501518424347
 30
0.0
  0
SEQEND
  5
29D
330
294
100
AcDbEntity
  8
MOUNTAINLINE
  0
POLYLINE
  5
29E
330
1F
100
AcDbEntity
  8
MOUNTAINLINE
 62
    29
100
AcDb2dPolyline
 66
     1
 10
0.0
 20
0.0
 30
0.0
  0
VERTEX
  5
29F
330
29E
100
AcDbEntity
  8
MOUNTAINLINE
 62
    29
100
AcDbVertex
100
AcDb2dVertex
 10
75.90320500489572
 20
-271.0649359131365
 30
0.0
  0
VERTEX
  5
2A0
330
29E
100
AcDbEntity
  8
MOUNTAINLINE
 62
    29
100
AcDbVertex
100
AcDb2dVertex
 10
75.90320500489572
 20
-284.7412759704814
 30
0.0
  0
SEQEND
  5
2A1
330
29E
100
AcDbEntity
  8
MOUNTAINLINE
  0
INSERT
  5
2A3
330
1F
100
AcDbEntity
  8
MOUNTAINLINE
100
AcDbBlockReference
  2
BLOCK_24
 10
0.0
 20
0.0
 30
0.0
  0
POLYLINE
  5
2AA
330
1F
100
AcDbEntity
  8
MOUNTAINLINE
 62
    29
100
AcDb2dPolyline
 66
     1
 10
0.0
 20
0.0
 30
0.0
  0
VERTEX
  5
2AB
330
2AA
100
AcDbEntity
  8
MOUNTAINLINE
 62
    29
100
AcDbVertex
100
AcDb2dVertex
 10
68.34208168864365
 20
-103.8871988672574
 30
0.0
  0
VERTEX
  5
2AC
330
2AA
100
AcDbEntity
  8
MOUNTAINLINE
 62
    29
100
AcDbVertex
100
AcDb2dVertex
 10
75.90320500489572
 20
-101.8614827219305
 30
0.0
  0
VERTEX
  5
2AD
330
2AA
100
AcDbEntity
  8
MOUNTAINLINE
 62
    29
100
AcDbVertex
100
AcDb2dVertex
 10
84.00451929323499
 20
-101.8346109771455
 30
0.0
  0
VERTEX
  5
2AE
330
2AA
100
AcDbEntity
  8
MOUNTAINLINE
 62
    29
100
AcDbVertex
100
AcDb2dVertex
 10
87.13249373906757
 20
-101.8346109771455
 30
0.0
  0
VERTEX
  5
2AF
330
2AA
100
AcDbEntity
  8
MOUNTAINLINE
 62
    29
100
AcDbVertex
100
AcDb2dVertex
 10
90.25323348438114
 20
-101.6253214264166
 30
0.0
  0
VERTEX
  5
2B0
330
2AA
100
AcDbEntity
  8
MOUNTAINLINE
 62
    29
100
AcDbVertex
100
AcDb2dVertex
 10
93.35450844020305
 20
-101.2205227068997
 30
0.0
  0
VERTEX
  5
2B1
330
2AA
100
AcDbEntity
  8
MOUNTAINLINE
 62
    29
100
AcDbVertex
100
AcDb2dVertex
 10
96.42977292511131
 20
-100.6481200920255
 30
0.0
  0
VERTEX
  5
2B2
330
2AA
100
AcDbEntity
  8
MOUNTAINLINE
 62
    29
100
AcDbVertex
100
AcDb2dVertex
 10
99.4778211556861
 20
-99.94704316077713
 30
0.0
  0
SEQEND
  5
2B3
330
2AA
100
AcDbEntity
  8
MOUNTAINLINE
  0
POLYLINE
  5
2B4
330
1F
100
AcDbEntity
  8
MOUNTAINLINE
 62
    29
100
AcDb2dPolyline
 66
     1
 10
0.0
 20
0.0
 30
0.0
  0
VERTEX
  5
2B5
330
2B4
100
AcDbEntity
  8
MOUNTAINLINE
 62
    29
100
AcDbVertex
100
AcDb2dVertex
 10
75.90320500489572
 20
-101.8614827219305
 30
0.0
  0
VERTEX
  5
2B6
330
2B4
100
AcDbEntity
  8
MOUNTAINLINE
 62
    29
100
AcDbVertex
100
AcDb2dVertex
 10
75.90320500489572
 20
-115.537650524501
 30
0.0
  0
SEQEND
  5
2B7
330
2B4
100
AcDbEntity
  8
MOUNTAINLINE
  0
INSERT
  5
2B9
330
1F
100
AcDbEntity
  8
MOUNTAINLINE
100
AcDbBlockReference
  2
BLOCK_25
 10
0.0
 20
0.0
 30
0.0
  0
POLYLINE
  5
2C0
330
1F
100
AcDbEntity
  8
MOUNTAINLINE
 62
    29
100
AcDb2dPolyline
 66
     1
 10
0.0
 20
0.0
 30
0.0
  0
VERTEX
  5
2C1
330
2C0
100
AcDbEntity
  8
MOUNTAINLINE
 62
    29
100
AcDbVertex
100
AcDb2dVertex
 10
68.34208168864365
 20
-82.73672415466305
 30
0.0
  0
VERTEX
  5
2C2
330
2C0
100
AcDbEntity
  8
MOUNTAINLINE
 62
    29
100
AcDbVertex
100
AcDb2dVertex
 10
75.90320500489572
 20
-80.71100800933614
 30
0.0
  0
VERTEX
  5
2C3
330
2C0
100
AcDbEntity
  8
MOUNTAINLINE
 62
    29
100
AcDbVertex
100
AcDb2dVertex
 10
84.00451929323499
 20
-80.68430851932546
 30
0.0
  0
VERTEX
  5
2C4
330
2C0
100
AcDbEntity
  8
MOUNTAINLINE
 62
    29
100
AcDbVertex
100
AcDb2dVertex
 10
87.13249373906757
 20
-80.68430851932546
 30
0.0
  0
VERTEX
  5
2C5
330
2C0
100
AcDbEntity
  8
MOUNTAINLINE
 62
    29
100
AcDbVertex
100
AcDb2dVertex
 10
90.25323348438114
 20
-80.47484671382226
 30
0.0
  0
VERTEX
  5
2C6
330
2C0
100
AcDbEntity
  8
MOUNTAINLINE
 62
    29
100
AcDbVertex
100
AcDb2dVertex
 10
93.35450844020305
 20
-80.07004799430541
 30
0.0
  0
VERTEX
  5
2C7
330
2C0
100
AcDbEntity
  8
MOUNTAINLINE
 62
    29
100
AcDbVertex
100
AcDb2dVertex
 10
96.42977292511131
 20
-79.49764537943115
 30
0.0
  0
VERTEX
  5
2C8
330
2C0
100
AcDbEntity
  8
MOUNTAINLINE
 62
    29
100
AcDbVertex
100
AcDb2dVertex
 10
99.4778211556861
 20
-78.79674070295707
 30
0.0
  0
SEQEND
  5
2C9
330
2C0
100
AcDbEntity
  8
MOUNTAINLINE
  0
POLYLINE
  5
2CA
330
1F
100
AcDbEntity
  8
MOUNTAINLINE
 62
    29
100
AcDb2dPolyline
 66
     1
 10
0.0
 20
0.0
 30
0.0
  0
VERTEX
  5
2CB
330
2CA
100
AcDbEntity
  8
MOUNTAINLINE
 62
    29
100
AcDbVertex
100
AcDb2dVertex
 10
75.90320500489572
 20
-80.71100800933614
 30
0.0
  0
VERTEX
  5
2CC
330
2CA
100
AcDbEntity
  8
MOUNTAINLINE
 62
    29
100
AcDbVertex
100
AcDb2dVertex
 10
75.90320500489572
 20
-94.38734806668094
 30
0.0
  0
SEQEND
  5
2CD
330
2CA
100
AcDbEntity
  8
MOUNTAINLINE
  0
INSERT
  5
2CF
330
1F
100
AcDbEntity
  8
MOUNTAINLINE
100
AcDbBlockReference
  2
BLOCK_26
 10
0.0
 20
0.0
 30
0.0
  0
POLYLINE
  5
2D6
330
1F
100
AcDbEntity
  8
MOUNTAINLINE
 62
    29
100
AcDb2dPolyline
 66
     1
 10
0.0
 20
0.0
 30
0.0
  0
VERTEX
  5
2D7
330
2D6
100
AcDbEntity
  8
MOUNTAINLINE
 62
    29
100
AcDbVertex
100
AcDb2dVertex
 10
68.34208168864365
 20
-61.58642169684298
 30
0.0
  0
VERTEX
  5
2D8
330
2D6
100
AcDbEntity
  8
MOUNTAINLINE
 62
    29
100
AcDbVertex
100
AcDb2dVertex
 10
75.90320500489572
 20
-59.56070555151608
 30
0.0
  0
VERTEX
  5
2D9
330
2D6
100
AcDbEntity
  8
MOUNTAINLINE
 62
    29
100
AcDbVertex
100
AcDb2dVertex
 10
84.00451929323499
 20
-59.53383380673112
 30
0.0
  0
VERTEX
  5
2DA
330
2D6
100
AcDbEntity
  8
MOUNTAINLINE
 62
    29
100
AcDbVertex
100
AcDb2dVertex
 10
87.13249373906757
 20
-59.53383380673112
 30
0.0
  0
VERTEX
  5
2DB
330
2D6
100
AcDbEntity
  8
MOUNTAINLINE
 62
    29
100
AcDbVertex
100
AcDb2dVertex
 10
90.25323348438114
 20
-59.3245442560022
 30
0.0
  0
VERTEX
  5
2DC
330
2D6
100
AcDbEntity
  8
MOUNTAINLINE
 62
    29
100
AcDbVertex
100
AcDb2dVertex
 10
93.35450844020305
 20
-58.91974553648534
 30
0.0
  0
VERTEX
  5
2DD
330
2D6
100
AcDbEntity
  8
MOUNTAINLINE
 62
    29
100
AcDbVertex
100
AcDb2dVertex
 10
96.42977292511131
 20
-58.34734292161108
 30
0.0
  0
VERTEX
  5
2DE
330
2D6
100
AcDbEntity
  8
MOUNTAINLINE
 62
    29
100
AcDbVertex
100
AcDb2dVertex
 10
99.4778211556861
 20
-57.64626599036274
 30
0.0
  0
SEQEND
  5
2DF
330
2D6
100
AcDbEntity
  8
MOUNTAINLINE
  0
POLYLINE
  5
2E0
330
1F
100
AcDbEntity
  8
MOUNTAINLINE
 62
    29
100
AcDb2dPolyline
 66
     1
 10
0.0
 20
0.0
 30
0.0
  0
VERTEX
  5
2E1
330
2E0
100
AcDbEntity
  8
MOUNTAINLINE
 62
    29
100
AcDbVertex
100
AcDb2dVertex
 10
75.90320500489572
 20
-59.56070555151608
 30
0.0
  0
VERTEX
  5
2E2
330
2E0
100
AcDbEntity
  8
MOUNTAINLINE
 62
    29
100
AcDbVertex
100
AcDb2dVertex
 10
75.90320500489572
 20
-73.23687335408661
 30
0.0
  0
SEQEND
  5
2E3
330
2E0
100
AcDbEntity
  8
MOUNTAINLINE
  0
POLYLINE
  5
2E4
330
1F
100
AcDbEntity
  8
MOUNTAINLINE
 62
    29
100
AcDb2dPolyline
 66
     1
 10
0.0
 20
0.0
 30
0.0
  0
VERTEX
  5
2E5
330
2E4
100
AcDbEntity
  8
MOUNTAINLINE
 62
    29
100
AcDbVertex
100
AcDb2dVertex
 10
68.34208168864365
 20
-40.43594698424865
 30
0.0
  0
VERTEX
  5
2E6
330
2E4
100
AcDbEntity
  8
MOUNTAINLINE
 62
    29
100
AcDbVertex
100
AcDb2dVertex
 10
75.90320500489572
 20
-38.41005858414749
 30
0.0
  0
VERTEX
  5
2E7
330
2E4
100
AcDbEntity
  8
MOUNTAINLINE
 62
    29
100
AcDbVertex
100
AcDb2dVertex
 10
84.00451929323499
 20
-38.38353134891106
 30
0.0
  0
VERTEX
  5
2E8
330
2E4
100
AcDbEntity
  8
MOUNTAINLINE
 62
    29
100
AcDbVertex
100
AcDb2dVertex
 10
87.13249373906757
 20
-38.38353134891106
 30
0.0
  0
VERTEX
  5
2E9
330
2E4
100
AcDbEntity
  8
MOUNTAINLINE
 62
    29
100
AcDbVertex
100
AcDb2dVertex
 10
90.25323348438114
 20
-38.17389728863361
 30
0.0
  0
VERTEX
  5
2EA
330
2E4
100
AcDbEntity
  8
MOUNTAINLINE
 62
    29
100
AcDbVertex
100
AcDb2dVertex
 10
93.35450844020305
 20
-37.76927082389102
 30
0.0
  0
VERTEX
  5
2EB
330
2E4
100
AcDbEntity
  8
MOUNTAINLINE
 62
    29
100
AcDbVertex
100
AcDb2dVertex
 10
96.42977292511131
 20
-37.19669595424249
 30
0.0
  0
VERTEX
  5
2EC
330
2E4
100
AcDbEntity
  8
MOUNTAINLINE
 62
    29
100
AcDbVertex
100
AcDb2dVertex
 10
99.4778211556861
 20
-36.49596353254267
 30
0.0
  0
SEQEND
  5
2ED
330
2E4
100
AcDbEntity
  8
MOUNTAINLINE
  0
POLYLINE
  5
2EE
330
1F
100
AcDbEntity
  8
MOUNTAINLINE
 62
    29
100
AcDb2dPolyline
 66
     1
 10
0.0
 20
0.0
 30
0.0
  0
VERTEX
  5
2EF
330
2EE
100
AcDbEntity
  8
MOUNTAINLINE
 62
    29
100
AcDbVertex
100
AcDb2dVertex
 10
75.90320500489572
 20
-38.41005858414749
 30
0.0
  0
VERTEX
  5
2F0
330
2EE
100
AcDbEntity
  8
MOUNTAINLINE
 62
    29
100
AcDbVertex
100
AcDb2dVertex
 10
75.90320500489572
 20
-52.08657089626655
 30
0.0
  0
SEQEND
  5
2F1
330
2EE
100
AcDbEntity
  8
MOUNTAINLINE
  0
MTEXT
  5
2F3
330
1F
100
AcDbEntity
  8
TEXT
 62
     7
100
AcDbMText
 10
152.5092094887824
 20
-287.6096624715004
 30
0.0
 40
3.358444443604833
 41
0.0
 71
     7
 72
     1
  1
\fArial|b0|i0|c0|p34;\W1;(c) 2016 Jun Mitani
  0
MTEXT
  5
2F4
330
1F
100
AcDbEntity
  8
TEXT
 62
     7
100
AcDbMText
 10
11.1872585692518
 20
-14.85542398717156
 30
0.0
 40
4.3179999989205
 41
0.0
 71
     7
 72
     1
  1
\fArial|b0|i0|c0|p34;\W1;Bavarian Mold
  0
ENDSEC
  0
SECTION
  2
OBJECTS
  0
DICTIONARY
  5
C
330
0
100
AcDbDictionary
  3
ACAD_GROUP
350
D
  3
ACAD_LAYOUT
350
1A
  3
ACAD_MLINESTYLE
350
17
  3
ACAD_PLOTSETTINGS
350
19
  3
ACAD_TABLESTYLE
350
2F5
  3
ACAD_VISUALSTYLE
350
2A
1001
ACAD
1000
TREAT_AS_HARD
1070
     0
  0
DICTIONARY
  5
D
102
{ACAD_REACTORS
330
C
102
}
330
C
100
AcDbDictionary
1001
ACAD
1000
TREAT_AS_HARD
1070
     0
  0
DICTIONARY
  5
1A
102
{ACAD_REACTORS
330
C
102
}
330
C
100
AcDbDictionary
1001
ACAD
1000
TREAT_AS_HARD
1070
     0
  0
DICTIONARY
  5
17
102
{ACAD_REACTORS
330
C
102
}
330
C
100
AcDbDictionary
  3
STANDARD
350
18
1001
ACAD
1000
TREAT_AS_HARD
1070
     0
  0
DICTIONARY
  5
19
102
{ACAD_REACTORS
330
C
102
}
330
C
100
AcDbDictionary
1001
ACAD
1000
TREAT_AS_HARD
1070
     0
  0
DICTIONARY
  5
2F5
102
{ACAD_REACTORS
330
C
102
}
330
C
100
AcDbDictionary
1001
ACAD
1000
TREAT_AS_HARD
1070
     0
  0
DICTIONARY
  5
2A
102
{ACAD_REACTORS
330
C
102
}
330
C
100
AcDbDictionary
  3
2DWIREFRAME
350
2F
  3
3D_HIDDEN
350
31
  3
3DWIREFRAME
350
30
  3
BASIC
350
32
  3
BRIGHTEN
350
36
  3
COLORCHANGE
350
3A
  3
CONCEPTUAL
350
34
  3
DIM
350
35
  3
FACEPATTERN
350
39
  3
FLAT
350
2B
  3
FLATWITHEDGES
350
2C
  3
GOURAUD
350
2D
  3
GOURAUDWITHEDGES
350
2E
  3
LINEPATTERN
350
38
  3
REALISTIC
350
33
  3
THICKEN
350
37
1001
ACAD
1000
TREAT_AS_HARD
1070
     0
  0
MLINESTYLE
  5
18
102
{ACAD_REACTORS
330
17
102
}
330
17
100
AcDbMlineStyle
  2
Standard
 70
     0
  3

 62
   256
 51
90.0
 52
90.0
 71
     2
 49
0.5
 62
   256
  6
BYLAYER
 49
-0.5
 62
   256
  6
BYLAYER
  0
VISUALSTYLE
  5
2F
102
{ACAD_REACTORS
330
2A
102
}
330
2A
100
AcDbVisualStyle
  2
2dWireframe
 70
     4
 71
     0
 72
     2
 73
     0
 90
        0
 40
-0.6
 41
-30.0
 62
     5
 63
     7
 74
     1
 91
        4
 64
     7
 65
   257
 75
     1
175
     1
 42
1.0
 92
        0
 66
   257
 43
1.0
 76
     1
 77
     6
 78
     2
 67
     7
 79
     5
170
     0
171
     0
290
     0
174
     0
 93
        1
 44
0.0
173
     0
291
     0
 45
0.0
1001
ACAD
1000
AcDbSavedByObjectVersion
1070
     0
  0
VISUALSTYLE
  5
31
102
{ACAD_REACTORS
330
2A
102
}
330
2A
100
AcDbVisualStyle
  2
3D Hidden
 70
     6
 71
     1
 72
     2
 73
     2
 90
        0
 40
-0.6
 41
-30.0
 62
     5
 63
     7
 74
     2
 91
        2
 64
     7
 65
   257
 75
     2
175
     1
 42
40.0
 92
        0
 66
   257
 43
1.0
 76
     1
 77
     6
 78
     2
 67
     7
 79
     3
170
     0
171
     0
290
     0
174
     0
 93
        1
 44
0.0
173
     0
291
     0
 45
0.0
1001
ACAD
1000
AcDbSavedByObjectVersion
1070
     0
  0
VISUALSTYLE
  5
30
102
{ACAD_REACTORS
330
2A
102
}
330
2A
100
AcDbVisualStyle
  2
3dWireframe
 70
     5
 71
     0
 72
     2
 73
     0
 90
        0
 40
-0.6
 41
-30.0
 62
     5
 63
     7
 74
     1
 91
        4
 64
     7
 65
   257
 75
     1
175
     1
 42
1.0
 92
        0
 66
   257
 43
1.0
 76
     1
 77
     6
 78
     2
 67
     7
 79
     5
170
     0
171
     0
290
     0
174
     0
 93
        1
 44
0.0
173
     0
291
     0
 45
0.0
1001
ACAD
1000
AcDbSavedByObjectVersion
1070
     0
  0
VISUALSTYLE
  5
32
102
{ACAD_REACTORS
330
2A
102
}
330
2A
100
AcDbVisualStyle
  2
Basic
 70
     7
 71
     1
 72
     0
 73
     1
 90
        0
 40
-0.6
 41
-30.0
 62
     5
 63
     7
 74
     0
 91
        4
 64
     7
 65
   257
 75
     1
175
     1
 42
1.0
 92
        8
 66
     7
 43
1.0
 76
     1
 77
     6
 78
     2
 67
     7
 79
     5
170
     0
171
     0
290
     0
174
     0
 93
        1
 44
0.0
173
     0
291
     1
 45
0.0
1001
ACAD
1000
AcDbSavedByObjectVersion
1070
     0
  0
VISUALSTYLE
  5
36
102
{ACAD_REACTORS
330
2A
102
}
330
2A
100
AcDbVisualStyle
  2
Brighten
 70
    12
 71
     2
 72
     2
 73
     0
 90
        0
 40
-0.6
 41
-30.0
 62
     5
 63
     7
 74
     1
 91
        4
 64
     7
 65
   257
 75
     1
175
     1
 42
1.0
 92
        8
 66
     7
 43
1.0
 76
     1
 77
     6
 78
     2
 67
     7
 79
     5
170
     0
171
     0
290
     0
174
     0
 93
        1
 44
50.0
173
     0
291
     1
 45
0.0
1001
ACAD
1000
AcDbSavedByObjectVersion
1070
     0
  0
VISUALSTYLE
  5
3A
102
{ACAD_REACTORS
330
2A
102
}
330
2A
100
AcDbVisualStyle
  2
ColorChange
 70
    16
 71
     2
 72
     2
 73
     3
 90
        0
 40
-0.6
 41
-30.0
 62
     5
 63
     8
 74
     1
 91
        4
 64
     7
 65
   257
 75
     1
175
     1
 42
1.0
 92
        8
 66
     8
 43
1.0
 76
     1
 77
     6
 78
     2
 67
     7
 79
     5
170
     0
171
     0
290
     0
174
     0
 93
        1
 44
0.0
173
     0
291
     1
 45
0.0
1001
ACAD
1000
AcDbSavedByObjectVersion
1070
     0
  0
VISUALSTYLE
  5
34
102
{ACAD_REACTORS
330
2A
102
}
330
2A
100
AcDbVisualStyle
  2
Conceptual
 70
     9
 71
     3
 72
     2
 73
     0
 90
        0
 40
-0.6
 41
-30.0
 62
     5
 63
     7
 74
     2
 91
        2
 64
     7
 65
   257
 75
     1
175
     1
 42
40.0
 92
        8
 66
     7
 43
1.0
 76
     1
 77
     6
 78
     2
 67
     7
 79
     3
170
     0
171
     0
290
     0
174
     0
 93
        1
 44
0.0
173
     0
291
     0
 45
0.0
1001
ACAD
1000
AcDbSavedByObjectVersion
1070
     0
  0
VISUALSTYLE
  5
35
102
{ACAD_REACTORS
330
2A
102
}
330
2A
100
AcDbVisualStyle
  2
Dim
 70
    11
 71
     2
 72
     2
 73
     0
 90
        0
 40
-0.6
 41
-30.0
 62
     5
 63
     7
 74
     1
 91
        4
 64
     7
 65
   257
 75
     1
175
     1
 42
1.0
 92
        8
 66
     7
 43
1.0
 76
     1
 77
     6
 78
     2
 67
     7
 79
     5
170
     0
171
     0
290
     0
174
     0
 93
        1
 44
-50.0
173
     0
291
     1
 45
0.0
1001
ACAD
1000
AcDbSavedByObjectVersion
1070
     0
  0
VISUALSTYLE
  5
39
102
{ACAD_REACTORS
330
2A
102
}
330
2A
100
AcDbVisualStyle
  2
Facepattern
 70
    15
 71
     2
 72
     2
 73
     0
 90
        0
 40
-0.6
 41
-30.0
 62
     5
 63
     7
 74
     1
 91
        4
 64
     7
 65
   257
 75
     1
175
     1
 42
1.0
 92
        8
 66
     7
 43
1.0
 76
     1
 77
     6
 78
     2
 67
     7
 79
     5
170
     0
171
     0
290
     0
174
     0
 93
        1
 44
0.0
173
     0
291
     1
 45
0.0
1001
ACAD
1000
AcDbSavedByObjectVersion
1070
     0
  0
VISUALSTYLE
  5
2B
102
{ACAD_REACTORS
330
2A
102
}
330
2A
100
AcDbVisualStyle
  2
Flat
 70
     0
 71
     2
 72
     1
 73
     1
 90
        2
 40
-0.6
 41
30.0
 62
     5
 63
     7
 74
     0
 91
        4
 64
     7
 65
   257
 75
     1
175
     1
 42
1.0
 92
        8
 66
     7
 43
1.0
 76
     1
 77
     6
 78
     2
 67
     7
 79
     5
170
     0
171
     0
290
     0
174
     0
 93
       13
 44
0.0
173
     0
291
     1
 45
0.0
1001
ACAD
1000
AcDbSavedByObjectVersion
1070
     0
  0
VISUALSTYLE
  5
2C
102
{ACAD_REACTORS
330
2A
102
}
330
2A
100
AcDbVisualStyle
  2
FlatWithEdges
 70
     1
 71
     2
 72
     1
 73
     1
 90
        2
 40
-0.6
 41
30.0
 62
     5
 63
     7
 74
     1
 91
        4
 64
     7
 65
   257
 75
     1
175
     1
 42
1.0
 92
        0
 66
   257
 43
1.0
 76
     1
 77
     6
 78
     2
 67
     7
 79
     5
170
     0
171
     0
290
     0
174
     0
 93
       13
 44
0.0
173
     0
291
     1
 45
0.0
1001
ACAD
1000
AcDbSavedByObjectVersion
1070
     0
  0
VISUALSTYLE
  5
2D
102
{ACAD_REACTORS
330
2A
102
}
330
2A
100
AcDbVisualStyle
  2
Gouraud
 70
     2
 71
     2
 72
     2
 73
     1
 90
        2
 40
-0.6
 41
30.0
 62
     5
 63
     7
 74
     0
 91
        4
 64
     7
 65
   257
 75
     1
175
     1
 42
1.0
 92
        0
 66
     7
 43
1.0
 76
     1
 77
     6
 78
     2
 67
     7
 79
     5
170
     0
171
     0
290
     0
174
     0
 93
       13
 44
0.0
173
     0
291
     1
 45
0.0
1001
ACAD
1000
AcDbSavedByObjectVersion
1070
     0
  0
VISUALSTYLE
  5
2E
102
{ACAD_REACTORS
330
2A
102
}
330
2A
100
AcDbVisualStyle
  2
GouraudWithEdges
 70
     3
 71
     2
 72
     2
 73
     1
 90
        2
 40
-0.6
 41
30.0
 62
     5
 63
     7
 74
     1
 91
        4
 64
     7
 65
   257
 75
     1
175
     1
 42
1.0
 92
        0
 66
   257
 43
1.0
 76
     1
 77
     6
 78
     2
 67
     7
 79
     5
170
     0
171
     0
290
     0
174
     0
 93
       13
 44
0.0
173
     0
291
     1
 45
0.0
1001
ACAD
1000
AcDbSavedByObjectVersion
1070
     0
  0
VISUALSTYLE
  5
38
102
{ACAD_REACTORS
330
2A
102
}
330
2A
100
AcDbVisualStyle
  2
Linepattern
 70
    14
 71
     2
 72
     2
 73
     0
 90
        0
 40
-0.6
 41
-30.0
 62
     5
 63
     7
 74
     1
 91
        4
 64
     7
 65
   257
 75
     7
175
     7
 42
1.0
 92
        8
 66
     7
 43
1.0
 76
     1
 77
     6
 78
     2
 67
     7
 79
     5
170
     0
171
     0
290
     0
174
     0
 93
        1
 44
0.0
173
     0
291
     1
 45
0.0
1001
ACAD
1000
AcDbSavedByObjectVersion
1070
     0
  0
VISUALSTYLE
  5
33
102
{ACAD_REACTORS
330
2A
102
}
330
2A
100
AcDbVisualStyle
  2
Realistic
 70
     8
 71
     2
 72
     2
 73
     0
 90
        0
 40
-0.6
 41
-30.0
 62
     5
 63
     7
 74
     1
 91
        0
 64
     7
 65
   257
 75
     1
175
     1
 42
1.0
 92
        8
 66
     8
 43
1.0
 76
     1
 77
     6
 78
     2
 67
     7
 79
     5
170
     0
171
     0
290
     0
174
     0
 93
       13
 44
0.0
173
     0
291
     0
 45
0.0
1001
ACAD
1000
AcDbSavedByObjectVersion
1070
     0
  0
VISUALSTYLE
  5
37
102
{ACAD_REACTORS
330
2A
102
}
330
2A
100
AcDbVisualStyle
  2
Thicken
 70
    13
 71
     2
 72
     2
 73
     0
 90
        0
 40
-0.6
 41
-30.0
 62
     5
 63
     7
 74
     1
 91
        4
 64
     7
 65
   257
 75
     1
175
     1
 42
1.0
 92
       12
 66
     7
 43
1.0
 76
     1
 77
     6
 78
     2
 67
     7
 79
     5
170
     0
171
     0
290
     0
174
     0
 93
        1
 44
0.0
173
     0
291
     1
 45
0.0
1001
ACAD
1000
AcDbSavedByObjectVersion
1070
     0
  0
ENDSEC
  0
EOF
