<?xml version="1.0" encoding="utf-8"?>
<!-- Generator: Adobe Illustrator 16.0.3, SVG Export Plug-In . SVG Version: 6.00 Build 0)  -->
<!DOCTYPE svg PUBLIC "-//W3C//DTD SVG 1.1//EN" "http://www.w3.org/Graphics/SVG/1.1/DTD/svg11.dtd">
<svg version="1.1" xmlns="http://www.w3.org/2000/svg" xmlns:xlink="http://www.w3.org/1999/xlink" x="0px" y="0px"
	 width="595.28px" height="841.89px" viewBox="0 0 595.28 841.89" enable-background="new 0 0 595.28 841.89" xml:space="preserve">
<g id="CutLine">
	<g id="LINE_26_">
		
			<polyline fill="none" stroke="#231815" stroke-width="2" stroke-linecap="round" stroke-linejoin="round" stroke-miterlimit="10" points="
			374.09,87.692 374.09,807.141 193.726,807.141 		"/>
	</g>
	<g id="LINE_13_">
		
			<line fill="none" stroke="#231815" stroke-width="2" stroke-linecap="round" stroke-linejoin="round" stroke-miterlimit="10" x1="193.726" y1="87.692" x2="193.726" y2="807.141"/>
	</g>
	<g id="LINE_49_">
		
			<line fill="none" stroke="#231815" stroke-linecap="round" stroke-linejoin="round" stroke-miterlimit="10" x1="374.09" y1="87.692" x2="193.726" y2="87.692"/>
	</g>
	
		<line fill="none" stroke="#231815" stroke-width="2" stroke-linecap="round" stroke-linejoin="round" stroke-miterlimit="10" x1="281.984" y1="343.268" x2="281.984" y2="327.508"/>
	
		<line fill="none" stroke="#231815" stroke-width="2" stroke-linecap="round" stroke-linejoin="round" stroke-miterlimit="10" x1="281.984" y1="327.508" x2="281.984" y2="311.748"/>
	
		<line fill="none" stroke="#231815" stroke-width="2" stroke-linecap="round" stroke-linejoin="round" stroke-miterlimit="10" x1="281.984" y1="403.222" x2="281.984" y2="387.463"/>
	
		<line fill="none" stroke="#231815" stroke-width="2" stroke-linecap="round" stroke-linejoin="round" stroke-miterlimit="10" x1="281.984" y1="387.463" x2="281.984" y2="371.702"/>
	
		<line fill="none" stroke="#231815" stroke-width="2" stroke-linecap="round" stroke-linejoin="round" stroke-miterlimit="10" x1="281.984" y1="463.176" x2="281.984" y2="447.416"/>
	
		<line fill="none" stroke="#231815" stroke-width="2" stroke-linecap="round" stroke-linejoin="round" stroke-miterlimit="10" x1="281.984" y1="447.416" x2="281.984" y2="431.656"/>
	
		<line fill="none" stroke="#231815" stroke-width="2" stroke-linecap="round" stroke-linejoin="round" stroke-miterlimit="10" x1="281.984" y1="523.131" x2="281.984" y2="507.369"/>
	
		<line fill="none" stroke="#231815" stroke-width="2" stroke-linecap="round" stroke-linejoin="round" stroke-miterlimit="10" x1="281.984" y1="507.369" x2="281.984" y2="491.609"/>
	
		<line fill="none" stroke="#231815" stroke-width="2" stroke-linecap="round" stroke-linejoin="round" stroke-miterlimit="10" x1="281.984" y1="583.084" x2="281.984" y2="567.324"/>
	
		<line fill="none" stroke="#231815" stroke-width="2" stroke-linecap="round" stroke-linejoin="round" stroke-miterlimit="10" x1="281.984" y1="567.324" x2="281.984" y2="551.564"/>
	
		<line fill="none" stroke="#231815" stroke-width="2" stroke-linecap="round" stroke-linejoin="round" stroke-miterlimit="10" x1="281.984" y1="643.039" x2="281.984" y2="627.277"/>
	
		<line fill="none" stroke="#231815" stroke-width="2" stroke-linecap="round" stroke-linejoin="round" stroke-miterlimit="10" x1="281.984" y1="627.277" x2="281.984" y2="611.518"/>
	
		<line fill="none" stroke="#231815" stroke-width="2" stroke-linecap="round" stroke-linejoin="round" stroke-miterlimit="10" x1="281.984" y1="702.992" x2="281.984" y2="687.232"/>
	
		<line fill="none" stroke="#231815" stroke-width="2" stroke-linecap="round" stroke-linejoin="round" stroke-miterlimit="10" x1="281.984" y1="687.232" x2="281.984" y2="671.473"/>
	
		<line fill="none" stroke="#231815" stroke-width="2" stroke-linecap="round" stroke-linejoin="round" stroke-miterlimit="10" x1="281.984" y1="762.945" x2="281.984" y2="747.186"/>
	
		<line fill="none" stroke="#231815" stroke-width="2" stroke-linecap="round" stroke-linejoin="round" stroke-miterlimit="10" x1="281.984" y1="747.186" x2="281.984" y2="731.424"/>
	
		<line fill="none" stroke="#231815" stroke-width="2" stroke-linecap="round" stroke-linejoin="round" stroke-miterlimit="10" x1="281.984" y1="807.141" x2="281.984" y2="791.379"/>
	
		<line fill="none" stroke="#231815" stroke-width="2" stroke-linecap="round" stroke-linejoin="round" stroke-miterlimit="10" x1="281.984" y1="283.314" x2="281.984" y2="267.555"/>
	
		<line fill="none" stroke="#231815" stroke-width="2" stroke-linecap="round" stroke-linejoin="round" stroke-miterlimit="10" x1="281.984" y1="267.555" x2="281.984" y2="251.794"/>
	
		<line fill="none" stroke="#231815" stroke-width="2" stroke-linecap="round" stroke-linejoin="round" stroke-miterlimit="10" x1="281.984" y1="223.361" x2="281.984" y2="207.601"/>
	
		<line fill="none" stroke="#231815" stroke-width="2" stroke-linecap="round" stroke-linejoin="round" stroke-miterlimit="10" x1="281.984" y1="207.601" x2="281.984" y2="191.84"/>
	
		<line fill="none" stroke="#231815" stroke-width="2" stroke-linecap="round" stroke-linejoin="round" stroke-miterlimit="10" x1="281.984" y1="163.407" x2="281.984" y2="147.647"/>
	
		<line fill="none" stroke="#231815" stroke-width="2" stroke-linecap="round" stroke-linejoin="round" stroke-miterlimit="10" x1="281.984" y1="147.647" x2="281.984" y2="131.887"/>
	
		<line fill="none" stroke="#231815" stroke-width="2" stroke-linecap="round" stroke-linejoin="round" stroke-miterlimit="10" x1="281.984" y1="103.453" x2="281.984" y2="87.692"/>
</g>
<g id="ValleyLine">
	
		<line fill="none" stroke="#231815" stroke-linecap="round" stroke-linejoin="round" stroke-miterlimit="10" stroke-dasharray="3" x1="215.159" y1="348.695" x2="215.159" y2="327.508"/>
	<g id="LINE_11_">
		
			<line fill="none" stroke="#231815" stroke-linecap="round" stroke-linejoin="round" stroke-miterlimit="10" stroke-dasharray="3" x1="281.984" y1="327.508" x2="193.726" y2="327.508"/>
	</g>
	
		<polyline fill="none" stroke="#231815" stroke-linecap="round" stroke-linejoin="round" stroke-miterlimit="10" stroke-dasharray="3" points="
		281.984,343.268 290.569,341.052 299.133,338.757 307.718,336.542 316.357,334.553 325.074,332.931 333.866,331.783 
		342.713,331.189 351.578,331.189 374.09,331.232 	"/>
	
		<line fill="none" stroke="#231815" stroke-linecap="round" stroke-linejoin="round" stroke-miterlimit="10" stroke-dasharray="3" x1="215.159" y1="408.65" x2="215.159" y2="387.463"/>
	<g id="LINE_10_">
		
			<line fill="none" stroke="#231815" stroke-linecap="round" stroke-linejoin="round" stroke-miterlimit="10" stroke-dasharray="3" x1="281.984" y1="387.463" x2="193.726" y2="387.463"/>
	</g>
	
		<polyline fill="none" stroke="#231815" stroke-linecap="round" stroke-linejoin="round" stroke-miterlimit="10" stroke-dasharray="3" points="
		281.984,403.222 290.569,401.006 299.133,398.71 307.718,396.496 316.357,394.507 325.074,392.884 333.866,391.737 
		342.713,391.144 351.578,391.144 374.09,391.186 	"/>
	
		<line fill="none" stroke="#231815" stroke-linecap="round" stroke-linejoin="round" stroke-miterlimit="10" stroke-dasharray="3" x1="215.159" y1="468.602" x2="215.159" y2="447.416"/>
	<g id="LINE_9_">
		
			<line fill="none" stroke="#231815" stroke-linecap="round" stroke-linejoin="round" stroke-miterlimit="10" stroke-dasharray="3" x1="281.984" y1="447.416" x2="193.726" y2="447.416"/>
	</g>
	
		<polyline fill="none" stroke="#231815" stroke-linecap="round" stroke-linejoin="round" stroke-miterlimit="10" stroke-dasharray="3" points="
		281.984,463.176 290.569,460.959 299.133,458.664 307.718,456.449 316.357,454.461 325.074,452.838 333.866,451.691 
		342.713,451.098 351.578,451.098 374.09,451.141 	"/>
	
		<line fill="none" stroke="#231815" stroke-linecap="round" stroke-linejoin="round" stroke-miterlimit="10" stroke-dasharray="3" x1="215.159" y1="528.557" x2="215.159" y2="507.369"/>
	<g id="LINE_8_">
		
			<line fill="none" stroke="#231815" stroke-linecap="round" stroke-linejoin="round" stroke-miterlimit="10" stroke-dasharray="3" x1="281.984" y1="507.369" x2="193.726" y2="507.369"/>
	</g>
	
		<polyline fill="none" stroke="#231815" stroke-linecap="round" stroke-linejoin="round" stroke-miterlimit="10" stroke-dasharray="3" points="
		281.984,523.131 290.569,520.914 299.133,518.619 307.718,516.402 316.357,514.414 325.074,512.791 333.866,511.645 
		342.713,511.051 351.578,511.051 374.09,511.094 	"/>
	
		<line fill="none" stroke="#231815" stroke-linecap="round" stroke-linejoin="round" stroke-miterlimit="10" stroke-dasharray="3" x1="215.159" y1="588.51" x2="215.159" y2="567.324"/>
	<g id="LINE_7_">
		
			<line fill="none" stroke="#231815" stroke-linecap="round" stroke-linejoin="round" stroke-miterlimit="10" stroke-dasharray="3" x1="281.984" y1="567.324" x2="193.726" y2="567.324"/>
	</g>
	
		<polyline fill="none" stroke="#231815" stroke-linecap="round" stroke-linejoin="round" stroke-miterlimit="10" stroke-dasharray="3" points="
		281.984,583.084 290.569,580.867 299.133,578.572 307.718,576.355 316.357,574.369 325.074,572.746 333.866,571.6 342.713,571.004 
		351.578,571.004 374.09,571.049 	"/>
	
		<line fill="none" stroke="#231815" stroke-linecap="round" stroke-linejoin="round" stroke-miterlimit="10" stroke-dasharray="3" x1="215.159" y1="648.465" x2="215.159" y2="627.277"/>
	<g id="LINE_6_">
		
			<line fill="none" stroke="#231815" stroke-linecap="round" stroke-linejoin="round" stroke-miterlimit="10" stroke-dasharray="3" x1="281.984" y1="627.277" x2="193.726" y2="627.277"/>
	</g>
	
		<polyline fill="none" stroke="#231815" stroke-linecap="round" stroke-linejoin="round" stroke-miterlimit="10" stroke-dasharray="3" points="
		281.984,643.039 290.569,640.822 299.133,638.527 307.718,636.311 316.357,634.324 325.074,632.699 333.866,631.551 
		342.713,630.959 351.578,630.959 374.09,631 	"/>
	
		<line fill="none" stroke="#231815" stroke-linecap="round" stroke-linejoin="round" stroke-miterlimit="10" stroke-dasharray="3" x1="215.159" y1="708.418" x2="215.159" y2="687.232"/>
	<g id="LINE_5_">
		
			<line fill="none" stroke="#231815" stroke-linecap="round" stroke-linejoin="round" stroke-miterlimit="10" stroke-dasharray="3" x1="281.984" y1="687.232" x2="193.726" y2="687.232"/>
	</g>
	
		<polyline fill="none" stroke="#231815" stroke-linecap="round" stroke-linejoin="round" stroke-miterlimit="10" stroke-dasharray="3" points="
		281.984,702.992 290.569,700.775 299.133,698.48 307.718,696.264 316.357,694.275 325.074,692.654 333.866,691.506 
		342.713,690.912 351.578,690.912 374.09,690.955 	"/>
	
		<line fill="none" stroke="#231815" stroke-linecap="round" stroke-linejoin="round" stroke-miterlimit="10" stroke-dasharray="3" x1="215.159" y1="768.373" x2="215.159" y2="747.186"/>
	<g id="LINE_4_">
		
			<line fill="none" stroke="#231815" stroke-linecap="round" stroke-linejoin="round" stroke-miterlimit="10" stroke-dasharray="3" x1="281.984" y1="747.186" x2="193.726" y2="747.186"/>
	</g>
	
		<polyline fill="none" stroke="#231815" stroke-linecap="round" stroke-linejoin="round" stroke-miterlimit="10" stroke-dasharray="3" points="
		281.984,762.945 290.569,760.73 299.133,758.436 307.718,756.219 316.357,754.23 325.074,752.607 333.866,751.459 342.713,750.867 
		351.578,750.867 374.09,750.908 	"/>
	
		<line fill="none" stroke="#231815" stroke-linecap="round" stroke-linejoin="round" stroke-miterlimit="10" stroke-dasharray="3" x1="215.159" y1="288.741" x2="215.159" y2="267.555"/>
	<g id="LINE_3_">
		
			<line fill="none" stroke="#231815" stroke-linecap="round" stroke-linejoin="round" stroke-miterlimit="10" stroke-dasharray="3" x1="281.984" y1="267.555" x2="193.726" y2="267.555"/>
	</g>
	
		<polyline fill="none" stroke="#231815" stroke-linecap="round" stroke-linejoin="round" stroke-miterlimit="10" stroke-dasharray="3" points="
		281.984,283.314 290.569,281.098 299.133,278.804 307.718,276.587 316.357,274.599 325.074,272.976 333.866,271.829 
		342.713,271.235 351.578,271.235 374.09,271.278 	"/>
	
		<line fill="none" stroke="#231815" stroke-linecap="round" stroke-linejoin="round" stroke-miterlimit="10" stroke-dasharray="3" x1="215.159" y1="228.787" x2="215.159" y2="207.601"/>
	<g id="LINE_2_">
		
			<line fill="none" stroke="#231815" stroke-linecap="round" stroke-linejoin="round" stroke-miterlimit="10" stroke-dasharray="3" x1="281.984" y1="207.601" x2="193.726" y2="207.601"/>
	</g>
	
		<polyline fill="none" stroke="#231815" stroke-linecap="round" stroke-linejoin="round" stroke-miterlimit="10" stroke-dasharray="3" points="
		281.984,223.361 290.569,221.144 299.133,218.85 307.718,216.633 316.357,214.646 325.074,213.022 333.866,211.875 
		342.713,211.281 351.578,211.281 374.09,211.324 	"/>
	
		<line fill="none" stroke="#231815" stroke-linecap="round" stroke-linejoin="round" stroke-miterlimit="10" stroke-dasharray="3" x1="215.159" y1="168.833" x2="215.159" y2="147.647"/>
	<g id="LINE_1_">
		
			<line fill="none" stroke="#231815" stroke-linecap="round" stroke-linejoin="round" stroke-miterlimit="10" stroke-dasharray="3" x1="281.984" y1="147.647" x2="193.726" y2="147.647"/>
	</g>
	
		<polyline fill="none" stroke="#231815" stroke-linecap="round" stroke-linejoin="round" stroke-miterlimit="10" stroke-dasharray="3" points="
		281.984,163.407 290.569,161.19 299.133,158.896 307.718,156.679 316.357,154.691 325.074,153.068 333.866,151.921 
		342.713,151.327 351.578,151.327 374.09,151.37 	"/>
	
		<line fill="none" stroke="#231815" stroke-linecap="round" stroke-linejoin="round" stroke-miterlimit="10" stroke-dasharray="3" x1="215.159" y1="108.879" x2="215.159" y2="87.692"/>
	
		<polyline fill="none" stroke="#231815" stroke-linecap="round" stroke-linejoin="round" stroke-miterlimit="10" stroke-dasharray="3" points="
		281.984,103.453 290.569,101.236 299.133,98.942 307.718,96.725 316.357,94.737 325.074,93.115 333.866,91.967 342.713,91.374 
		351.578,91.374 374.09,91.416 	"/>
</g>
<g id="MountainLine">
	<g id="LINE_17_">
		
			<line fill="none" stroke="#231815" stroke-linecap="round" stroke-linejoin="round" stroke-miterlimit="10" x1="374.09" y1="327.508" x2="281.984" y2="327.508"/>
	</g>
	<polyline fill="none" stroke="#231815" stroke-linecap="round" stroke-linejoin="round" stroke-miterlimit="10" points="
		193.726,354.437 215.159,348.695 238.123,348.62 246.99,348.62 255.836,348.025 264.627,346.879 273.344,345.255 281.984,343.268 	
		"/>
	
		<line fill="none" stroke="#231815" stroke-linecap="round" stroke-linejoin="round" stroke-miterlimit="10" x1="215.159" y1="348.695" x2="215.159" y2="387.463"/>
	<g id="LINE_20_">
		
			<line fill="none" stroke="#231815" stroke-linecap="round" stroke-linejoin="round" stroke-miterlimit="10" x1="374.09" y1="387.463" x2="281.984" y2="387.463"/>
	</g>
	<polyline fill="none" stroke="#231815" stroke-linecap="round" stroke-linejoin="round" stroke-miterlimit="10" points="
		193.726,414.39 215.159,408.65 238.123,408.572 246.99,408.572 255.836,407.979 264.627,406.833 273.344,405.209 281.984,403.222 	
		"/>
	
		<line fill="none" stroke="#231815" stroke-linecap="round" stroke-linejoin="round" stroke-miterlimit="10" x1="215.159" y1="408.65" x2="215.159" y2="447.416"/>
	<g id="LINE_22_">
		
			<line fill="none" stroke="#231815" stroke-linecap="round" stroke-linejoin="round" stroke-miterlimit="10" x1="374.09" y1="447.416" x2="281.984" y2="447.416"/>
	</g>
	<polyline fill="none" stroke="#231815" stroke-linecap="round" stroke-linejoin="round" stroke-miterlimit="10" points="
		193.726,474.346 215.159,468.602 238.123,468.527 246.99,468.527 255.836,467.934 264.627,466.787 273.344,465.162 
		281.984,463.176 	"/>
	
		<line fill="none" stroke="#231815" stroke-linecap="round" stroke-linejoin="round" stroke-miterlimit="10" x1="215.159" y1="468.602" x2="215.159" y2="507.369"/>
	<g id="LINE_25_">
		
			<line fill="none" stroke="#231815" stroke-linecap="round" stroke-linejoin="round" stroke-miterlimit="10" x1="374.09" y1="507.369" x2="281.984" y2="507.369"/>
	</g>
	<polyline fill="none" stroke="#231815" stroke-linecap="round" stroke-linejoin="round" stroke-miterlimit="10" points="
		193.726,534.299 215.159,528.557 238.123,528.48 246.99,528.48 255.836,527.887 264.627,526.738 273.344,525.117 281.984,523.131 	
		"/>
	
		<line fill="none" stroke="#231815" stroke-linecap="round" stroke-linejoin="round" stroke-miterlimit="10" x1="215.159" y1="528.557" x2="215.159" y2="567.324"/>
	<g id="LINE_28_">
		
			<line fill="none" stroke="#231815" stroke-linecap="round" stroke-linejoin="round" stroke-miterlimit="10" x1="374.09" y1="567.324" x2="281.984" y2="567.324"/>
	</g>
	<polyline fill="none" stroke="#231815" stroke-linecap="round" stroke-linejoin="round" stroke-miterlimit="10" points="
		193.726,594.254 215.159,588.51 238.123,588.436 246.99,588.436 255.836,587.842 264.627,586.693 273.344,585.072 281.984,583.084 
			"/>
	
		<line fill="none" stroke="#231815" stroke-linecap="round" stroke-linejoin="round" stroke-miterlimit="10" x1="215.159" y1="588.51" x2="215.159" y2="627.277"/>
	<g id="LINE_30_">
		
			<line fill="none" stroke="#231815" stroke-linecap="round" stroke-linejoin="round" stroke-miterlimit="10" x1="374.09" y1="627.277" x2="281.984" y2="627.277"/>
	</g>
	<polyline fill="none" stroke="#231815" stroke-linecap="round" stroke-linejoin="round" stroke-miterlimit="10" points="
		193.726,654.207 215.159,648.465 238.123,648.389 246.99,648.389 255.836,647.795 264.627,646.646 273.344,645.025 
		281.984,643.039 	"/>
	
		<line fill="none" stroke="#231815" stroke-linecap="round" stroke-linejoin="round" stroke-miterlimit="10" x1="215.159" y1="648.465" x2="215.159" y2="687.232"/>
	<g id="LINE_38_">
		
			<line fill="none" stroke="#231815" stroke-linecap="round" stroke-linejoin="round" stroke-miterlimit="10" x1="374.09" y1="687.232" x2="281.984" y2="687.232"/>
	</g>
	<polyline fill="none" stroke="#231815" stroke-linecap="round" stroke-linejoin="round" stroke-miterlimit="10" points="
		193.726,714.162 215.159,708.418 238.123,708.344 246.99,708.344 255.836,707.75 264.627,706.602 273.344,704.98 281.984,702.992 	
		"/>
	
		<line fill="none" stroke="#231815" stroke-linecap="round" stroke-linejoin="round" stroke-miterlimit="10" x1="215.159" y1="708.418" x2="215.159" y2="747.186"/>
	<g id="LINE_40_">
		
			<line fill="none" stroke="#231815" stroke-linecap="round" stroke-linejoin="round" stroke-miterlimit="10" x1="374.09" y1="747.186" x2="281.984" y2="747.186"/>
	</g>
	<polyline fill="none" stroke="#231815" stroke-linecap="round" stroke-linejoin="round" stroke-miterlimit="10" points="
		193.726,774.115 215.159,768.373 238.123,768.297 246.99,768.297 255.836,767.701 264.627,766.557 273.344,764.932 
		281.984,762.945 	"/>
	
		<line fill="none" stroke="#231815" stroke-linecap="round" stroke-linejoin="round" stroke-miterlimit="10" x1="215.159" y1="768.373" x2="215.159" y2="807.141"/>
	<g id="LINE_42_">
		
			<line fill="none" stroke="#231815" stroke-linecap="round" stroke-linejoin="round" stroke-miterlimit="10" x1="374.09" y1="267.555" x2="281.984" y2="267.555"/>
	</g>
	<polyline fill="none" stroke="#231815" stroke-linecap="round" stroke-linejoin="round" stroke-miterlimit="10" points="
		193.726,294.483 215.159,288.741 238.123,288.665 246.99,288.665 255.836,288.072 264.627,286.924 273.344,285.302 
		281.984,283.314 	"/>
	
		<line fill="none" stroke="#231815" stroke-linecap="round" stroke-linejoin="round" stroke-miterlimit="10" x1="215.159" y1="288.741" x2="215.159" y2="327.508"/>
	<g id="LINE_44_">
		
			<line fill="none" stroke="#231815" stroke-linecap="round" stroke-linejoin="round" stroke-miterlimit="10" x1="374.09" y1="207.601" x2="281.984" y2="207.601"/>
	</g>
	<polyline fill="none" stroke="#231815" stroke-linecap="round" stroke-linejoin="round" stroke-miterlimit="10" points="
		193.726,234.529 215.159,228.787 238.123,228.711 246.99,228.711 255.836,228.118 264.627,226.97 273.344,225.348 281.984,223.361 
			"/>
	
		<line fill="none" stroke="#231815" stroke-linecap="round" stroke-linejoin="round" stroke-miterlimit="10" x1="215.159" y1="228.787" x2="215.159" y2="267.555"/>
	<g id="LINE_46_">
		
			<line fill="none" stroke="#231815" stroke-linecap="round" stroke-linejoin="round" stroke-miterlimit="10" x1="374.09" y1="147.647" x2="281.984" y2="147.647"/>
	</g>
	<polyline fill="none" stroke="#231815" stroke-linecap="round" stroke-linejoin="round" stroke-miterlimit="10" points="
		193.726,174.576 215.159,168.833 238.123,168.757 246.99,168.757 255.836,168.164 264.627,167.017 273.344,165.394 
		281.984,163.407 	"/>
	
		<line fill="none" stroke="#231815" stroke-linecap="round" stroke-linejoin="round" stroke-miterlimit="10" x1="215.159" y1="168.833" x2="215.159" y2="207.601"/>
	<polyline fill="none" stroke="#231815" stroke-linecap="round" stroke-linejoin="round" stroke-miterlimit="10" points="
		193.726,114.622 215.159,108.879 238.123,108.804 246.99,108.804 255.836,108.209 264.627,107.063 273.344,105.439 
		281.984,103.453 	"/>
	
		<line fill="none" stroke="#231815" stroke-linecap="round" stroke-linejoin="round" stroke-miterlimit="10" x1="215.159" y1="108.879" x2="215.159" y2="147.647"/>
</g>
<g id="Text">
	<text transform="matrix(1 0 0 1 432.3096 815.2715)" font-family="'ArialMT'" font-size="14">(c) 2016 Jun Mitani</text>
	<text transform="matrix(1 0 0 1 31.7119 42.1099)" font-family="'ArialMT'" font-size="18">Bavarian Mold</text>
</g>
</svg>
