<?xml version="1.0" encoding="utf-8"?>
<!-- Generator: Adobe Illustrator 16.0.3, SVG Export Plug-In . SVG Version: 6.00 Build 0)  -->
<!DOCTYPE svg PUBLIC "-//W3C//DTD SVG 1.1//EN" "http://www.w3.org/Graphics/SVG/1.1/DTD/svg11.dtd">
<svg version="1.1" xmlns="http://www.w3.org/2000/svg" xmlns:xlink="http://www.w3.org/1999/xlink" x="0px" y="0px"
	 width="595.28px" height="841.89px" viewBox="0 0 595.28 841.89" enable-background="new 0 0 595.28 841.89" xml:space="preserve">
<g id="CutLine">
	<line fill="none" stroke="#231815" stroke-width="2" x1="52.552" y1="453.371" x2="35.186" y2="486.732"/>
	<line fill="none" stroke="#231815" stroke-width="2" x1="52.552" y1="520.094" x2="35.186" y2="486.732"/>
	<line fill="none" stroke="#231815" stroke-width="2" x1="52.552" y1="386.648" x2="35.186" y2="420.01"/>
	<line fill="none" stroke="#231815" stroke-width="2" x1="52.552" y1="453.371" x2="35.186" y2="420.01"/>
	<line fill="none" stroke="#231815" stroke-width="2" x1="52.552" y1="319.925" x2="35.186" y2="353.286"/>
	<line fill="none" stroke="#231815" stroke-width="2" x1="52.552" y1="386.648" x2="35.186" y2="353.286"/>
	<g id="LINE_217_">
		
			<line fill="none" stroke="#231815" stroke-width="2" stroke-linecap="round" stroke-linejoin="round" x1="559.906" y1="668.604" x2="52.552" y2="668.604"/>
	</g>
	<g id="LINE_8_">
		
			<line fill="none" stroke="#231815" stroke-width="2" stroke-linecap="round" stroke-linejoin="round" x1="52.552" y1="668.604" x2="52.552" y2="520.094"/>
	</g>
	<g id="LINE_212_">
		
			<line fill="none" stroke="#231815" stroke-width="2" stroke-linecap="round" stroke-linejoin="round" x1="559.906" y1="171.414" x2="52.552" y2="171.414"/>
	</g>
	<g id="LINE_210_">
		
			<line fill="none" stroke="#231815" stroke-width="2" stroke-linecap="round" stroke-linejoin="round" x1="52.552" y1="171.414" x2="52.552" y2="319.925"/>
	</g>
	<line fill="none" stroke="#231815" stroke-width="2" x1="559.906" y1="453.371" x2="542.541" y2="486.732"/>
	<line fill="none" stroke="#231815" stroke-width="2" x1="559.906" y1="520.094" x2="542.541" y2="486.732"/>
	<line fill="none" stroke="#231815" stroke-width="2" x1="559.906" y1="386.648" x2="542.541" y2="420.01"/>
	<line fill="none" stroke="#231815" stroke-width="2" x1="559.906" y1="453.371" x2="542.541" y2="420.01"/>
	<line fill="none" stroke="#231815" stroke-width="2" x1="559.906" y1="319.925" x2="542.541" y2="353.286"/>
	<line fill="none" stroke="#231815" stroke-width="2" x1="559.906" y1="386.648" x2="542.541" y2="353.286"/>
	<g id="LINE_11_">
		
			<line fill="none" stroke="#231815" stroke-width="2" stroke-linecap="round" stroke-linejoin="round" x1="559.906" y1="668.604" x2="559.906" y2="520.094"/>
	</g>
	<g id="LINE_9_">
		
			<line fill="none" stroke="#231815" stroke-width="2" stroke-linecap="round" stroke-linejoin="round" x1="559.906" y1="171.414" x2="559.906" y2="319.925"/>
	</g>
</g>
<g id="ValleyLine">
	<g id="LINE_56_">
		<polyline fill="none" stroke="#231815" stroke-linecap="round" stroke-linejoin="round" stroke-dasharray="4" points="
			559.635,530.931 558.825,541.737 557.492,552.496 555.658,563.179 553.354,573.768 550.618,584.257 547.501,594.637 
			544.051,604.913 540.331,615.093 536.404,625.194 532.335,635.24 528.196,645.26 518.527,668.604 		"/>
	</g>
	<g id="LINE_55_">
		<polyline fill="none" stroke="#231815" stroke-linecap="round" stroke-linejoin="round" stroke-dasharray="4" points="
			496.216,530.931 495.406,541.737 494.072,552.496 492.238,563.179 489.933,573.768 487.199,584.257 484.08,594.637 
			480.632,604.913 476.912,615.093 472.983,625.194 468.916,635.24 464.778,645.26 455.104,668.608 		"/>
	</g>
	<g id="LINE_54_">
		<polyline fill="none" stroke="#231815" stroke-linecap="round" stroke-linejoin="round" stroke-dasharray="4" points="
			432.797,530.931 431.988,541.737 430.654,552.496 428.818,563.179 426.515,573.768 423.78,584.257 420.661,594.637 
			417.213,604.913 413.492,615.093 409.564,625.194 405.497,635.24 401.357,645.26 391.688,668.604 		"/>
	</g>
	<g id="LINE_53_">
		<polyline fill="none" stroke="#231815" stroke-linecap="round" stroke-linejoin="round" stroke-dasharray="4" points="
			369.377,530.931 368.568,541.737 367.235,552.496 365.4,563.179 363.097,573.768 360.361,584.257 357.242,594.637 
			353.794,604.913 350.074,615.093 346.146,625.194 342.078,635.24 337.939,645.26 328.27,668.604 		"/>
	</g>
	<g id="LINE_52_">
		<polyline fill="none" stroke="#231815" stroke-linecap="round" stroke-linejoin="round" stroke-dasharray="4" points="
			305.957,530.931 305.148,541.737 303.814,552.496 301.98,563.179 299.676,573.768 296.94,584.257 293.823,594.637 
			290.373,604.913 286.654,615.093 282.726,625.194 278.658,635.24 274.519,645.26 264.849,668.604 		"/>
	</g>
	<g id="LINE_51_">
		<polyline fill="none" stroke="#231815" stroke-linecap="round" stroke-linejoin="round" stroke-dasharray="4" points="
			242.539,530.931 241.729,541.737 240.395,552.496 238.56,563.179 236.257,573.768 233.521,584.257 230.403,594.637 
			226.954,604.913 223.234,615.093 219.307,625.194 215.239,635.24 211.101,645.26 201.428,668.608 		"/>
	</g>
	<g id="LINE_50_">
		<polyline fill="none" stroke="#231815" stroke-linecap="round" stroke-linejoin="round" stroke-dasharray="4" points="
			179.12,530.931 178.311,541.737 176.977,552.496 175.142,563.179 172.837,573.768 170.103,584.257 166.984,594.637 
			163.536,604.913 159.815,615.093 155.887,625.194 151.819,635.24 147.68,645.26 138.009,668.608 		"/>
	</g>
	<g id="LINE_49_">
		<polyline fill="none" stroke="#231815" stroke-linecap="round" stroke-linejoin="round" stroke-dasharray="4" points="
			115.699,530.931 114.89,541.737 113.558,552.496 111.723,563.179 109.418,573.768 106.684,584.257 103.565,594.637 
			100.117,604.913 96.397,615.093 92.469,625.194 88.401,635.24 84.261,645.26 74.592,668.604 		"/>
	</g>
	<g id="LINE_48_">
		<polyline fill="none" stroke="#231815" stroke-linecap="round" stroke-linejoin="round" stroke-dasharray="4" points="
			559.635,309.09 558.825,298.281 557.492,287.525 555.658,276.842 553.354,266.251 550.618,255.763 547.501,245.382 
			544.051,235.107 540.331,224.926 536.404,214.824 532.335,204.778 528.196,194.761 518.527,171.414 		"/>
	</g>
	<g id="LINE_47_">
		<polyline fill="none" stroke="#231815" stroke-linecap="round" stroke-linejoin="round" stroke-dasharray="4" points="
			496.216,309.09 495.406,298.281 494.072,287.525 492.238,276.842 489.933,266.251 487.199,255.763 484.08,245.382 
			480.632,235.107 476.912,224.926 472.983,214.824 468.916,204.778 464.778,194.761 455.106,171.414 		"/>
	</g>
	<g id="LINE_46_">
		<polyline fill="none" stroke="#231815" stroke-linecap="round" stroke-linejoin="round" stroke-dasharray="4" points="
			432.797,309.09 431.988,298.281 430.654,287.525 428.818,276.842 426.515,266.251 423.78,255.763 420.661,245.382 
			417.213,235.107 413.492,224.926 409.564,214.824 405.497,204.778 401.357,194.761 391.688,171.414 		"/>
	</g>
	<g id="LINE_45_">
		<polyline fill="none" stroke="#231815" stroke-linecap="round" stroke-linejoin="round" stroke-dasharray="4" points="
			369.377,309.09 368.568,298.281 367.235,287.525 365.4,276.842 363.097,266.251 360.361,255.763 357.242,245.382 353.794,235.107 
			350.074,224.926 346.146,214.824 342.078,204.778 337.939,194.761 328.269,171.414 		"/>
	</g>
	<g id="LINE_44_">
		<polyline fill="none" stroke="#231815" stroke-linecap="round" stroke-linejoin="round" stroke-dasharray="4" points="
			305.957,309.09 305.148,298.281 303.814,287.525 301.98,276.842 299.676,266.251 296.94,255.763 293.823,245.382 290.373,235.107 
			286.654,224.926 282.726,214.824 278.658,204.778 274.519,194.761 264.849,171.414 		"/>
	</g>
	<g id="LINE_34_">
		<polyline fill="none" stroke="#231815" stroke-linecap="round" stroke-linejoin="round" stroke-dasharray="4" points="
			242.539,309.09 241.729,298.281 240.395,287.525 238.56,276.842 236.257,266.251 233.521,255.763 230.403,245.382 
			226.954,235.107 223.234,224.926 219.307,214.824 215.239,204.778 211.101,194.761 201.43,171.414 		"/>
	</g>
	<g id="LINE_26_">
		<polyline fill="none" stroke="#231815" stroke-linecap="round" stroke-linejoin="round" stroke-dasharray="4" points="
			179.12,309.09 178.311,298.281 176.977,287.525 175.142,276.842 172.837,266.251 170.103,255.763 166.984,245.382 
			163.536,235.107 159.815,224.926 155.887,214.824 151.819,204.778 147.68,194.761 138.01,171.414 		"/>
	</g>
	<g id="LINE_25_">
		<polyline fill="none" stroke="#231815" stroke-linecap="round" stroke-linejoin="round" stroke-dasharray="4" points="
			115.699,309.09 114.89,298.281 113.558,287.525 111.723,276.842 109.418,266.251 106.684,255.763 103.565,245.382 
			100.117,235.107 96.397,224.926 92.469,214.824 88.401,204.778 84.261,194.761 74.591,171.414 		"/>
	</g>
	<line fill="none" stroke="#231815" stroke-dasharray="4" x1="77.206" y1="486.732" x2="36.214" y2="486.732"/>
	<line fill="none" stroke="#231815" stroke-dasharray="4" x1="140.03" y1="486.732" x2="99.039" y2="486.732"/>
	<line fill="none" stroke="#231815" stroke-dasharray="4" x1="202.854" y1="486.732" x2="161.863" y2="486.732"/>
	<line fill="none" stroke="#231815" stroke-dasharray="4" x1="265.679" y1="486.732" x2="224.687" y2="486.732"/>
	<line fill="none" stroke="#231815" stroke-dasharray="4" x1="330.119" y1="486.732" x2="289.128" y2="486.732"/>
	<line fill="none" stroke="#231815" stroke-dasharray="4" x1="394.561" y1="486.732" x2="353.568" y2="486.732"/>
	<line fill="none" stroke="#231815" stroke-dasharray="4" x1="458.193" y1="486.732" x2="417.201" y2="486.732"/>
	<line fill="none" stroke="#231815" stroke-dasharray="4" x1="522.634" y1="486.732" x2="481.642" y2="486.732"/>
	<line fill="none" stroke="#231815" stroke-dasharray="4" x1="558.912" y1="454.205" x2="521.14" y2="485.898"/>
	<line fill="none" stroke="#231815" stroke-dasharray="4" x1="495.493" y1="454.205" x2="457.723" y2="485.898"/>
	<line fill="none" stroke="#231815" stroke-dasharray="4" x1="432.073" y1="454.205" x2="394.303" y2="485.898"/>
	<line fill="none" stroke="#231815" stroke-dasharray="4" x1="368.653" y1="454.205" x2="330.883" y2="485.898"/>
	<line fill="none" stroke="#231815" stroke-dasharray="4" x1="305.234" y1="454.205" x2="267.465" y2="485.898"/>
	<line fill="none" stroke="#231815" stroke-dasharray="4" x1="241.815" y1="454.205" x2="204.043" y2="485.898"/>
	<line fill="none" stroke="#231815" stroke-dasharray="4" x1="178.396" y1="454.205" x2="140.625" y2="485.898"/>
	<line fill="none" stroke="#231815" stroke-dasharray="4" x1="114.977" y1="454.205" x2="77.206" y2="485.898"/>
	<line fill="none" stroke="#231815" stroke-dasharray="4" x1="558.912" y1="519.26" x2="521.14" y2="487.566"/>
	<line fill="none" stroke="#231815" stroke-dasharray="4" x1="495.493" y1="519.26" x2="457.723" y2="487.566"/>
	<line fill="none" stroke="#231815" stroke-dasharray="4" x1="432.073" y1="519.26" x2="394.303" y2="487.566"/>
	<line fill="none" stroke="#231815" stroke-dasharray="4" x1="368.653" y1="519.26" x2="330.883" y2="487.566"/>
	<line fill="none" stroke="#231815" stroke-dasharray="4" x1="305.234" y1="519.26" x2="267.465" y2="487.566"/>
	<line fill="none" stroke="#231815" stroke-dasharray="4" x1="241.815" y1="519.26" x2="204.043" y2="487.566"/>
	<line fill="none" stroke="#231815" stroke-dasharray="4" x1="178.396" y1="519.26" x2="140.625" y2="487.566"/>
	<line fill="none" stroke="#231815" stroke-dasharray="4" x1="114.977" y1="519.26" x2="77.206" y2="487.566"/>
	<line fill="none" stroke="#231815" stroke-dasharray="4" x1="76.176" y1="420.01" x2="35.186" y2="420.01"/>
	<line fill="none" stroke="#231815" stroke-dasharray="4" x1="139" y1="420.01" x2="98.01" y2="420.01"/>
	<line fill="none" stroke="#231815" stroke-dasharray="4" x1="201.825" y1="420.01" x2="160.834" y2="420.01"/>
	<line fill="none" stroke="#231815" stroke-dasharray="4" x1="264.65" y1="420.01" x2="223.658" y2="420.01"/>
	<line fill="none" stroke="#231815" stroke-dasharray="4" x1="329.091" y1="420.01" x2="288.1" y2="420.01"/>
	<line fill="none" stroke="#231815" stroke-dasharray="4" x1="393.53" y1="420.01" x2="352.54" y2="420.01"/>
	<line fill="none" stroke="#231815" stroke-dasharray="4" x1="457.163" y1="420.01" x2="416.172" y2="420.01"/>
	<line fill="none" stroke="#231815" stroke-dasharray="4" x1="521.604" y1="420.01" x2="480.613" y2="420.01"/>
	<line fill="none" stroke="#231815" stroke-dasharray="4" x1="557.882" y1="387.481" x2="520.111" y2="419.176"/>
	<line fill="none" stroke="#231815" stroke-dasharray="4" x1="494.464" y1="387.481" x2="456.693" y2="419.176"/>
	<line fill="none" stroke="#231815" stroke-dasharray="4" x1="431.044" y1="387.481" x2="393.273" y2="419.176"/>
	<line fill="none" stroke="#231815" stroke-dasharray="4" x1="367.625" y1="387.481" x2="329.854" y2="419.176"/>
	<line fill="none" stroke="#231815" stroke-dasharray="4" x1="304.205" y1="387.481" x2="266.436" y2="419.176"/>
	<line fill="none" stroke="#231815" stroke-dasharray="4" x1="240.786" y1="387.481" x2="203.015" y2="419.176"/>
	<line fill="none" stroke="#231815" stroke-dasharray="4" x1="177.367" y1="387.481" x2="139.597" y2="419.176"/>
	<line fill="none" stroke="#231815" stroke-dasharray="4" x1="113.948" y1="387.481" x2="76.177" y2="419.176"/>
	<line fill="none" stroke="#231815" stroke-dasharray="4" x1="557.882" y1="452.537" x2="520.111" y2="420.843"/>
	<line fill="none" stroke="#231815" stroke-dasharray="4" x1="494.464" y1="452.537" x2="456.693" y2="420.843"/>
	<line fill="none" stroke="#231815" stroke-dasharray="4" x1="431.044" y1="452.537" x2="393.273" y2="420.843"/>
	<line fill="none" stroke="#231815" stroke-dasharray="4" x1="367.625" y1="452.537" x2="329.854" y2="420.843"/>
	<line fill="none" stroke="#231815" stroke-dasharray="4" x1="304.205" y1="452.537" x2="266.436" y2="420.843"/>
	<line fill="none" stroke="#231815" stroke-dasharray="4" x1="240.786" y1="452.537" x2="203.015" y2="420.843"/>
	<line fill="none" stroke="#231815" stroke-dasharray="4" x1="177.367" y1="452.537" x2="139.597" y2="420.843"/>
	<line fill="none" stroke="#231815" stroke-dasharray="4" x1="113.948" y1="452.537" x2="76.177" y2="420.843"/>
	<line fill="none" stroke="#231815" stroke-dasharray="4" x1="76.176" y1="353.286" x2="35.186" y2="353.286"/>
	<line fill="none" stroke="#231815" stroke-dasharray="4" x1="139" y1="353.286" x2="98.01" y2="353.286"/>
	<line fill="none" stroke="#231815" stroke-dasharray="4" x1="201.825" y1="353.286" x2="160.834" y2="353.286"/>
	<line fill="none" stroke="#231815" stroke-dasharray="4" x1="264.65" y1="353.286" x2="223.658" y2="353.286"/>
	<line fill="none" stroke="#231815" stroke-dasharray="4" x1="329.091" y1="353.286" x2="288.1" y2="353.286"/>
	<line fill="none" stroke="#231815" stroke-dasharray="4" x1="393.53" y1="353.286" x2="352.54" y2="353.286"/>
	<line fill="none" stroke="#231815" stroke-dasharray="4" x1="457.163" y1="353.286" x2="416.172" y2="353.286"/>
	<line fill="none" stroke="#231815" stroke-dasharray="4" x1="521.604" y1="353.286" x2="480.613" y2="353.286"/>
	<line fill="none" stroke="#231815" stroke-dasharray="4" x1="557.882" y1="320.759" x2="520.111" y2="352.453"/>
	<line fill="none" stroke="#231815" stroke-dasharray="4" x1="494.464" y1="320.759" x2="456.693" y2="352.453"/>
	<line fill="none" stroke="#231815" stroke-dasharray="4" x1="431.044" y1="320.759" x2="393.273" y2="352.453"/>
	<line fill="none" stroke="#231815" stroke-dasharray="4" x1="367.625" y1="320.759" x2="329.854" y2="352.453"/>
	<line fill="none" stroke="#231815" stroke-dasharray="4" x1="304.205" y1="320.759" x2="266.436" y2="352.453"/>
	<line fill="none" stroke="#231815" stroke-dasharray="4" x1="240.786" y1="320.759" x2="203.015" y2="352.453"/>
	<line fill="none" stroke="#231815" stroke-dasharray="4" x1="177.367" y1="320.759" x2="139.597" y2="352.453"/>
	<line fill="none" stroke="#231815" stroke-dasharray="4" x1="113.948" y1="320.759" x2="76.177" y2="352.453"/>
	<line fill="none" stroke="#231815" stroke-dasharray="4" x1="557.882" y1="385.813" x2="520.111" y2="354.12"/>
	<line fill="none" stroke="#231815" stroke-dasharray="4" x1="494.464" y1="385.813" x2="456.693" y2="354.12"/>
	<line fill="none" stroke="#231815" stroke-dasharray="4" x1="431.044" y1="385.813" x2="393.273" y2="354.12"/>
	<line fill="none" stroke="#231815" stroke-dasharray="4" x1="367.625" y1="385.813" x2="329.854" y2="354.12"/>
	<line fill="none" stroke="#231815" stroke-dasharray="4" x1="304.205" y1="385.813" x2="266.436" y2="354.12"/>
	<line fill="none" stroke="#231815" stroke-dasharray="4" x1="240.786" y1="385.813" x2="203.015" y2="354.12"/>
	<line fill="none" stroke="#231815" stroke-dasharray="4" x1="177.367" y1="385.813" x2="139.597" y2="354.12"/>
	<line fill="none" stroke="#231815" stroke-dasharray="4" x1="113.948" y1="385.813" x2="76.177" y2="354.12"/>
</g>
<g id="MountainLine">
	<line fill="none" stroke="#231815" x1="496.053" y1="454.205" x2="479.554" y2="485.898"/>
	<line fill="none" stroke="#231815" x1="432.633" y1="454.205" x2="416.136" y2="485.898"/>
	<line fill="none" stroke="#231815" x1="369.214" y1="454.205" x2="352.715" y2="485.898"/>
	<line fill="none" stroke="#231815" x1="305.794" y1="454.205" x2="289.295" y2="485.898"/>
	<line fill="none" stroke="#231815" x1="242.375" y1="454.205" x2="225.877" y2="485.898"/>
	<line fill="none" stroke="#231815" x1="178.956" y1="454.205" x2="162.457" y2="485.898"/>
	<line fill="none" stroke="#231815" x1="115.537" y1="454.205" x2="99.039" y2="485.898"/>
	<line fill="none" stroke="#231815" x1="496.053" y1="519.26" x2="479.554" y2="487.566"/>
	<line fill="none" stroke="#231815" x1="432.633" y1="519.26" x2="416.136" y2="487.566"/>
	<line fill="none" stroke="#231815" x1="369.214" y1="519.26" x2="352.715" y2="487.566"/>
	<line fill="none" stroke="#231815" x1="305.794" y1="519.26" x2="289.295" y2="487.566"/>
	<line fill="none" stroke="#231815" x1="242.375" y1="519.26" x2="225.877" y2="487.566"/>
	<line fill="none" stroke="#231815" x1="178.956" y1="519.26" x2="162.457" y2="487.566"/>
	<line fill="none" stroke="#231815" x1="115.537" y1="519.26" x2="99.039" y2="487.566"/>
	<g id="LINE_1_">
		
			<line fill="none" stroke="#231815" stroke-linecap="round" stroke-linejoin="round" x1="496.487" y1="668.604" x2="496.487" y2="520.094"/>
	</g>
	<g id="LINE_2_">
		
			<line fill="none" stroke="#231815" stroke-linecap="round" stroke-linejoin="round" x1="433.066" y1="668.604" x2="433.066" y2="520.094"/>
	</g>
	<g id="LINE_3_">
		
			<line fill="none" stroke="#231815" stroke-linecap="round" stroke-linejoin="round" x1="369.648" y1="668.604" x2="369.648" y2="520.094"/>
	</g>
	<g id="LINE_4_">
		
			<line fill="none" stroke="#231815" stroke-linecap="round" stroke-linejoin="round" x1="306.229" y1="668.604" x2="306.229" y2="520.094"/>
	</g>
	<g id="LINE_5_">
		
			<line fill="none" stroke="#231815" stroke-linecap="round" stroke-linejoin="round" x1="242.811" y1="668.604" x2="242.811" y2="520.094"/>
	</g>
	<g id="LINE_6_">
		
			<line fill="none" stroke="#231815" stroke-linecap="round" stroke-linejoin="round" x1="179.389" y1="668.604" x2="179.389" y2="520.094"/>
	</g>
	<g id="LINE_7_">
		
			<line fill="none" stroke="#231815" stroke-linecap="round" stroke-linejoin="round" x1="115.971" y1="668.604" x2="115.971" y2="520.094"/>
	</g>
	<g id="LINE_208_">
		
			<line fill="none" stroke="#231815" stroke-linecap="round" stroke-linejoin="round" x1="496.487" y1="171.414" x2="496.487" y2="319.925"/>
	</g>
	<g id="LINE_207_">
		
			<line fill="none" stroke="#231815" stroke-linecap="round" stroke-linejoin="round" x1="433.066" y1="171.414" x2="433.066" y2="319.925"/>
	</g>
	<g id="LINE_206_">
		
			<line fill="none" stroke="#231815" stroke-linecap="round" stroke-linejoin="round" x1="369.648" y1="171.414" x2="369.648" y2="319.925"/>
	</g>
	<g id="LINE_205_">
		
			<line fill="none" stroke="#231815" stroke-linecap="round" stroke-linejoin="round" x1="306.229" y1="171.414" x2="306.229" y2="319.925"/>
	</g>
	<g id="LINE_192_">
		
			<line fill="none" stroke="#231815" stroke-linecap="round" stroke-linejoin="round" x1="242.811" y1="171.414" x2="242.811" y2="319.925"/>
	</g>
	<g id="LINE_191_">
		
			<line fill="none" stroke="#231815" stroke-linecap="round" stroke-linejoin="round" x1="179.389" y1="171.414" x2="179.389" y2="319.925"/>
	</g>
	<g id="LINE_190_">
		
			<line fill="none" stroke="#231815" stroke-linecap="round" stroke-linejoin="round" x1="115.971" y1="171.414" x2="115.971" y2="319.925"/>
	</g>
	<line fill="none" stroke="#231815" x1="560.094" y1="453.371" x2="52.552" y2="453.371"/>
	<line fill="none" stroke="#231815" x1="560.094" y1="520.094" x2="52.552" y2="520.094"/>
	<line fill="none" stroke="#231815" x1="560.094" y1="386.648" x2="52.552" y2="386.648"/>
	<line fill="none" stroke="#231815" x1="560.094" y1="319.925" x2="52.552" y2="319.925"/>
	<line fill="none" stroke="#231815" x1="99.039" y1="486.732" x2="77.206" y2="486.732"/>
	<line fill="none" stroke="#231815" x1="161.863" y1="486.732" x2="140.03" y2="486.732"/>
	<line fill="none" stroke="#231815" x1="225.495" y1="486.732" x2="203.662" y2="486.732"/>
	<line fill="none" stroke="#231815" x1="289.128" y1="486.732" x2="267.295" y2="486.732"/>
	<line fill="none" stroke="#231815" x1="353.568" y1="486.732" x2="331.736" y2="486.732"/>
	<line fill="none" stroke="#231815" x1="415.585" y1="486.732" x2="393.752" y2="486.732"/>
	<line fill="none" stroke="#231815" x1="480.834" y1="486.732" x2="459.001" y2="486.732"/>
	<line fill="none" stroke="#231815" x1="543.657" y1="486.732" x2="521.825" y2="486.732"/>
	<line fill="none" stroke="#231815" x1="495.023" y1="387.481" x2="478.525" y2="419.176"/>
	<line fill="none" stroke="#231815" x1="431.604" y1="387.481" x2="415.107" y2="419.176"/>
	<line fill="none" stroke="#231815" x1="368.186" y1="387.481" x2="351.687" y2="419.176"/>
	<line fill="none" stroke="#231815" x1="304.766" y1="387.481" x2="288.267" y2="419.176"/>
	<line fill="none" stroke="#231815" x1="241.347" y1="387.481" x2="224.848" y2="419.176"/>
	<line fill="none" stroke="#231815" x1="177.928" y1="387.481" x2="161.428" y2="419.176"/>
	<line fill="none" stroke="#231815" x1="114.508" y1="387.481" x2="98.01" y2="419.176"/>
	<line fill="none" stroke="#231815" x1="495.023" y1="452.537" x2="478.525" y2="420.843"/>
	<line fill="none" stroke="#231815" x1="431.604" y1="452.537" x2="415.107" y2="420.843"/>
	<line fill="none" stroke="#231815" x1="368.186" y1="452.537" x2="351.687" y2="420.843"/>
	<line fill="none" stroke="#231815" x1="304.766" y1="452.537" x2="288.267" y2="420.843"/>
	<line fill="none" stroke="#231815" x1="241.347" y1="452.537" x2="224.848" y2="420.843"/>
	<line fill="none" stroke="#231815" x1="177.928" y1="452.537" x2="161.428" y2="420.843"/>
	<line fill="none" stroke="#231815" x1="114.508" y1="452.537" x2="98.01" y2="420.843"/>
	<line fill="none" stroke="#231815" x1="98.01" y1="420.01" x2="76.176" y2="420.01"/>
	<line fill="none" stroke="#231815" x1="160.834" y1="420.01" x2="139" y2="420.01"/>
	<line fill="none" stroke="#231815" x1="224.466" y1="420.01" x2="202.633" y2="420.01"/>
	<line fill="none" stroke="#231815" x1="288.1" y1="420.01" x2="266.267" y2="420.01"/>
	<line fill="none" stroke="#231815" x1="352.54" y1="420.01" x2="330.707" y2="420.01"/>
	<line fill="none" stroke="#231815" x1="414.556" y1="420.01" x2="392.723" y2="420.01"/>
	<line fill="none" stroke="#231815" x1="479.805" y1="420.01" x2="457.972" y2="420.01"/>
	<line fill="none" stroke="#231815" x1="542.63" y1="420.01" x2="520.796" y2="420.01"/>
	<line fill="none" stroke="#231815" x1="495.023" y1="320.759" x2="478.525" y2="352.453"/>
	<line fill="none" stroke="#231815" x1="431.604" y1="320.759" x2="415.107" y2="352.453"/>
	<line fill="none" stroke="#231815" x1="368.186" y1="320.759" x2="351.687" y2="352.453"/>
	<line fill="none" stroke="#231815" x1="304.766" y1="320.759" x2="288.267" y2="352.453"/>
	<line fill="none" stroke="#231815" x1="241.347" y1="320.759" x2="224.848" y2="352.453"/>
	<line fill="none" stroke="#231815" x1="177.928" y1="320.759" x2="161.428" y2="352.453"/>
	<line fill="none" stroke="#231815" x1="114.508" y1="320.759" x2="98.01" y2="352.453"/>
	<line fill="none" stroke="#231815" x1="495.023" y1="385.813" x2="478.525" y2="354.12"/>
	<line fill="none" stroke="#231815" x1="431.604" y1="385.813" x2="415.107" y2="354.12"/>
	<line fill="none" stroke="#231815" x1="368.186" y1="385.813" x2="351.687" y2="354.12"/>
	<line fill="none" stroke="#231815" x1="304.766" y1="385.813" x2="288.267" y2="354.12"/>
	<line fill="none" stroke="#231815" x1="241.347" y1="385.813" x2="224.848" y2="354.12"/>
	<line fill="none" stroke="#231815" x1="177.928" y1="385.813" x2="161.428" y2="354.12"/>
	<line fill="none" stroke="#231815" x1="114.508" y1="385.813" x2="98.01" y2="354.12"/>
	<line fill="none" stroke="#231815" x1="98.01" y1="353.286" x2="76.176" y2="353.286"/>
	<line fill="none" stroke="#231815" x1="160.834" y1="353.286" x2="139" y2="353.286"/>
	<line fill="none" stroke="#231815" x1="224.466" y1="353.286" x2="202.633" y2="353.286"/>
	<line fill="none" stroke="#231815" x1="288.1" y1="353.286" x2="266.267" y2="353.286"/>
	<line fill="none" stroke="#231815" x1="352.54" y1="353.286" x2="330.707" y2="353.286"/>
	<line fill="none" stroke="#231815" x1="414.556" y1="353.286" x2="392.723" y2="353.286"/>
	<line fill="none" stroke="#231815" x1="479.805" y1="353.286" x2="457.972" y2="353.286"/>
	<line fill="none" stroke="#231815" x1="542.63" y1="353.286" x2="520.796" y2="353.286"/>
</g>
<g id="Text">
	<text transform="matrix(1 0 0 1 432.3096 815.2715)" font-family="'ArialMT'" font-size="14">(c) 2016 Jun Mitani</text>
	<text transform="matrix(1 0 0 1 31.7119 42.1099)" font-family="'ArialMT'" font-size="18">Accordion Capsule</text>
</g>
</svg>
