<?xml version="1.0" encoding="utf-8"?>
<!-- Generator: Adobe Illustrator 16.0.3, SVG Export Plug-In . SVG Version: 6.00 Build 0)  -->
<!DOCTYPE svg PUBLIC "-//W3C//DTD SVG 1.1//EN" "http://www.w3.org/Graphics/SVG/1.1/DTD/svg11.dtd">
<svg version="1.1" xmlns="http://www.w3.org/2000/svg" xmlns:xlink="http://www.w3.org/1999/xlink" x="0px" y="0px"
	 width="595.28px" height="841.89px" viewBox="0 0 595.28 841.89" enable-background="new 0 0 595.28 841.89" xml:space="preserve">
<g id="CutLine">
	<path fill="none" stroke="#231815" stroke-width="2" d="M36.267,441.981c0-165.595,134.241-299.835,299.834-299.835
		c82.796,0,157.755,33.559,212.014,87.817"/>
	<path fill="none" stroke="#231815" stroke-width="2" d="M569.306,441.981c0,165.595-134.241,299.836-299.835,299.836
		c-82.795,0-157.753-33.56-212.013-87.817"/>
	<line fill="none" stroke="#231815" stroke-width="2" x1="501.002" y1="277.082" x2="548.117" y2="229.965"/>
	<line fill="none" stroke="#231815" stroke-width="2" x1="104.57" y1="606.883" x2="57.456" y2="653.997"/>
	<path fill="none" stroke="#231815" stroke-width="2" d="M104.575,606.888c-42.204-42.202-68.308-100.506-68.308-164.906"/>
	<path fill="none" stroke="#231815" stroke-width="2" d="M501,277.08c42.203,42.202,68.306,100.503,68.306,164.902"/>
</g>
<g id="ValleyLine">
	<path fill="none" stroke="#231815" stroke-dasharray="4" d="M406.776,371.313c-18.086-18.088-43.074-29.276-70.675-29.276
		c-55.198,0-99.945,44.748-99.945,99.945"/>
	<path fill="none" stroke="#231815" stroke-dasharray="4" d="M198.802,512.654c18.087,18.086,43.072,29.273,70.67,29.273
		c55.198,0,99.945-44.747,99.945-99.946"/>
	<path fill="none" stroke="#231815" stroke-dasharray="4" d="M207.896,467.484c3.378,8.145,8.324,15.475,14.461,21.612"/>
	<path fill="none" stroke="#231815" stroke-dasharray="4" d="M397.676,416.48c-3.378-8.145-8.323-15.474-14.46-21.611"/>
	<path fill="none" stroke="#231815" stroke-dasharray="4" d="M459.251,390.974c-6.755-16.287-16.645-30.946-28.92-43.22"/>
	<path fill="none" stroke="#231815" stroke-dasharray="4" d="M146.321,492.986c6.754,16.29,16.647,30.95,28.923,43.226"/>
	<path fill="none" stroke="#231815" stroke-dasharray="4" d="M453.885,324.193c-30.144-30.143-71.787-48.787-117.783-48.787
		c-91.998,0-166.575,74.579-166.575,166.575"/>
	<path fill="none" stroke="#231815" stroke-dasharray="4" d="M151.683,559.766c30.144,30.146,71.79,48.791,117.788,48.791
		c91.997,0,166.575-74.578,166.575-166.575"/>
	<path fill="none" stroke="#231815" stroke-dasharray="4" d="M102.896,441.981c0,22.587,4.495,44.123,12.64,63.763"/>
	<path fill="none" stroke="#231815" stroke-dasharray="4" d="M520.823,365.465c-10.131-24.431-24.968-46.418-43.38-64.829"/>
	<path fill="none" stroke="#231815" stroke-dasharray="4" d="M84.746,518.489c10.13,24.433,24.968,46.421,43.38,64.835"/>
	<line fill="none" stroke="#231815" stroke-dasharray="4" x1="269.471" y1="441.981" x2="104.57" y2="606.883"/>
	<line fill="none" stroke="#231815" stroke-dasharray="4" x1="336.102" y1="441.981" x2="501.002" y2="277.082"/>
	<path fill="none" stroke="#231815" stroke-dasharray="4" d="M502.677,441.981c0,128.796-104.409,233.205-233.206,233.205
		c-64.396,0-122.695-26.1-164.896-68.299"/>
	<path fill="none" stroke="#231815" stroke-dasharray="4" d="M102.896,441.981c0-128.795,104.409-233.204,233.205-233.204
		c64.396,0,122.696,26.102,164.899,68.302"/>
	<path fill="none" stroke="#231815" stroke-dasharray="4" d="M369.417,441.981c0-4.518-0.9-8.825-2.529-12.755"/>
	<path fill="none" stroke="#231815" stroke-dasharray="4" d="M236.157,441.981c0,4.519,0.9,8.827,2.53,12.756"/>
	<path fill="none" stroke="#231815" stroke-dasharray="4" d="M436.046,441.981c0-13.55-2.697-26.47-7.583-38.253"/>
	<path fill="none" stroke="#231815" stroke-dasharray="4" d="M169.527,441.981c0,13.554,2.698,26.478,7.585,38.263"/>
	<path fill="none" stroke="#231815" stroke-dasharray="4" d="M502.677,441.981c0-22.583-4.495-44.117-12.638-63.756"/>
	<path fill="none" stroke="#231815" stroke-dasharray="4" d="M359.662,418.428c-6.029-6.031-14.359-9.761-23.561-9.761
		c-18.399,0-33.314,14.915-33.314,33.314"/>
	<path fill="none" stroke="#231815" stroke-dasharray="4" d="M245.913,465.537c6.029,6.03,14.358,9.76,23.56,9.76
		c18.399,0,33.315-14.915,33.315-33.315"/>
</g>
<g id="MountainLine">
	<path fill="none" stroke="#231815" d="M366.888,429.227c-1.688-4.068-4.159-7.731-7.226-10.798"/>
	<path fill="none" stroke="#231815" d="M238.687,454.737c1.687,4.07,4.159,7.732,7.226,10.8"/>
	<path fill="none" stroke="#231815" d="M428.463,403.728c-5.065-12.215-12.481-23.209-21.687-32.415"/>
	<path fill="none" stroke="#231815" d="M177.113,480.244c5.066,12.213,12.484,23.205,21.689,32.41"/>
	<path fill="none" stroke="#231815" d="M222.357,489.097c12.057,12.057,28.715,19.515,47.113,19.515
		c36.799,0,66.631-29.83,66.631-66.63"/>
	<path fill="none" stroke="#231815" d="M202.84,441.981c0,9.033,1.799,17.647,5.056,25.503"/>
	<path fill="none" stroke="#231815" d="M383.216,394.869c-12.058-12.059-28.715-19.517-47.114-19.517
		c-36.799,0-66.631,29.831-66.631,66.629"/>
	<path fill="none" stroke="#231815" d="M402.73,441.981c0-9.033-1.797-17.646-5.055-25.501"/>
	<path fill="none" stroke="#231815" d="M430.331,347.754c-24.114-24.116-57.43-39.032-94.229-39.032
		c-73.598,0-133.26,59.663-133.26,133.259"/>
	<path fill="none" stroke="#231815" d="M469.361,441.981c0-18.067-3.596-35.295-10.11-51.007"/>
	<path fill="none" stroke="#231815" d="M175.244,536.212c24.116,24.114,57.431,39.03,94.227,39.03
		c73.599,0,133.261-59.664,133.261-133.261"/>
	<path fill="none" stroke="#231815" d="M136.212,441.981c0,18.067,3.595,35.294,10.109,51.005"/>
	<path fill="none" stroke="#231815" d="M490.039,378.225c-8.443-20.362-20.809-38.687-36.154-54.032"/>
	<path fill="none" stroke="#231815" d="M115.536,505.744c8.442,20.359,20.805,38.679,36.146,54.021"/>
	<path fill="none" stroke="#231815" d="M477.443,300.636c-36.173-36.171-86.145-58.544-141.342-58.544
		c-110.396,0-199.889,89.494-199.889,199.89"/>
	<path fill="none" stroke="#231815" d="M535.991,441.981c0-27.104-5.394-52.948-15.168-76.517"/>
	<path fill="none" stroke="#231815" d="M128.126,583.324c36.173,36.175,86.146,58.549,141.344,58.549
		c110.397,0,199.891-89.494,199.891-199.892"/>
	<path fill="none" stroke="#231815" d="M69.582,441.981c0,27.102,5.393,52.942,15.164,76.508"/>
	<line fill="none" stroke="#231815" x1="269.471" y1="441.981" x2="53.971" y2="531.245"/>
	<line fill="none" stroke="#231815" x1="336.102" y1="441.981" x2="551.598" y2="352.72"/>
	<path fill="none" stroke="#231815" d="M535.991,441.981c0,147.196-119.323,266.52-266.519,266.52
		c-73.595,0-140.223-29.83-188.453-78.058"/>
	<path fill="none" stroke="#231815" d="M69.582,441.981c0-147.194,119.325-266.519,266.52-266.519
		c73.597,0,140.227,29.83,188.456,78.06"/>
</g>
<g id="Text">
	<text transform="matrix(1 0 0 1 432.3096 815.2715)" font-family="'ArialMT'" font-size="14">(c) 2016 Jun Mitani</text>
	<text transform="matrix(1 0 0 1 31.7119 42.1099)" font-family="'ArialMT'" font-size="18">Whirl</text>
</g>
</svg>
