  0
SECTION
  2
HEADER
  9
$ACADVER
  1
AC1012
  9
$DWGCODEPAGE
  3
ansi_932
  9
$INSBASE
 10
0.0
 20
0.0
 30
0.0
  9
$EXTMIN
 10
1.000000000000000E+20
 20
1.000000000000000E+20
 30
1.000000000000000E+20
  9
$EXTMAX
 10
-1.000000000000000E+20
 20
-1.000000000000000E+20
 30
-1.000000000000000E+20
  9
$LIMMIN
 10
0.0
 20
0.0
  9
$LIMMAX
 10
12.0
 20
9.0
  9
$ORTHOMODE
 70
     0
  9
$REGENMODE
 70
     1
  9
$FILLMODE
 70
     1
  9
$QTEXTMODE
 70
     0
  9
$MIRRTEXT
 70
     1
  9
$DRAGMODE
 70
     2
  9
$LTSCALE
 40
1.0
  9
$OSMODE
 70
    37
  9
$ATTMODE
 70
     1
  9
$TEXTSIZE
 40
0.2
  9
$TRACEWID
 40
0.05
  9
$TEXTSTYLE
  7
STANDARD
  9
$CLAYER
  8
0
  9
$CELTYPE
  6
BYLAYER
  9
$CECOLOR
 62
   256
  9
$CELTSCALE
 40
1.0
  9
$DELOBJ
 70
     1
  9
$DISPSILH
 70
     0
  9
$DIMSCALE
 40
1.0
  9
$DIMASZ
 40
0.18
  9
$DIMEXO
 40
0.0625
  9
$DIMDLI
 40
0.38
  9
$DIMRND
 40
0.0
  9
$DIMDLE
 40
0.0
  9
$DIMEXE
 40
0.18
  9
$DIMTP
 40
0.0
  9
$DIMTM
 40
0.0
  9
$DIMTXT
 40
0.18
  9
$DIMCEN
 40
0.09
  9
$DIMTSZ
 40
0.0
  9
$DIMTOL
 70
     0
  9
$DIMLIM
 70
     0
  9
$DIMTIH
 70
     1
  9
$DIMTOH
 70
     1
  9
$DIMSE1
 70
     0
  9
$DIMSE2
 70
     0
  9
$DIMTAD
 70
     0
  9
$DIMZIN
 70
     0
  9
$DIMBLK
  1

  9
$DIMASO
 70
     1
  9
$DIMSHO
 70
     1
  9
$DIMPOST
  1

  9
$DIMAPOST
  1

  9
$DIMALT
 70
     0
  9
$DIMALTD
 70
     2
  9
$DIMALTF
 40
25.4
  9
$DIMLFAC
 40
1.0
  9
$DIMTOFL
 70
     0
  9
$DIMTVP
 40
0.0
  9
$DIMTIX
 70
     0
  9
$DIMSOXD
 70
     0
  9
$DIMSAH
 70
     0
  9
$DIMBLK1
  1

  9
$DIMBLK2
  1

  9
$DIMSTYLE
  2
STANDARD
  9
$DIMCLRD
 70
     0
  9
$DIMCLRE
 70
     0
  9
$DIMCLRT
 70
     0
  9
$DIMTFAC
 40
1.0
  9
$DIMGAP
 40
0.09
  9
$DIMJUST
 70
     0
  9
$DIMSD1
 70
     0
  9
$DIMSD2
 70
     0
  9
$DIMTOLJ
 70
     1
  9
$DIMTZIN
 70
     0
  9
$DIMALTZ
 70
     0
  9
$DIMALTTZ
 70
     0
  9
$DIMFIT
 70
     3
  9
$DIMUPT
 70
     0
  9
$DIMUNIT
 70
     2
  9
$DIMDEC
 70
     4
  9
$DIMTDEC
 70
     4
  9
$DIMALTU
 70
     2
  9
$DIMALTTD
 70
     2
  9
$DIMTXSTY
  7
STANDARD
  9
$DIMAUNIT
 70
     0
  9
$LUNITS
 70
     2
  9
$LUPREC
 70
     4
  9
$SKETCHINC
 40
0.1
  9
$FILLETRAD
 40
0.5
  9
$AUNITS
 70
     0
  9
$AUPREC
 70
     0
  9
$MENU
  1
.
  9
$ELEVATION
 40
0.0
  9
$PELEVATION
 40
0.0
  9
$THICKNESS
 40
0.0
  9
$LIMCHECK
 70
     0
  9
$CHAMFERA
 40
0.5
  9
$CHAMFERB
 40
0.5
  9
$CHAMFERC
 40
1.0
  9
$CHAMFERD
 40
0.0
  9
$SKPOLY
 70
     0
  9
$TDCREATE
 40
2457508.884370255
  9
$TDUPDATE
 40
2457508.884370266
  9
$TDINDWG
 40
0.0000000116
  9
$TDUSRTIMER
 40
0.0000000116
  9
$USRTIMER
 70
     1
  9
$ANGBASE
 50
0.0
  9
$ANGDIR
 70
     0
  9
$PDMODE
 70
     0
  9
$PDSIZE
 40
0.0
  9
$PLINEWID
 40
0.0
  9
$COORDS
 70
     1
  9
$SPLFRAME
 70
     0
  9
$SPLINETYPE
 70
     6
  9
$SPLINESEGS
 70
     8
  9
$ATTDIA
 70
     0
  9
$ATTREQ
 70
     1
  9
$HANDLING
 70
     1
  9
$HANDSEED
  5
9C
  9
$SURFTAB1
 70
     6
  9
$SURFTAB2
 70
     6
  9
$SURFTYPE
 70
     6
  9
$SURFU
 70
     6
  9
$SURFV
 70
     6
  9
$UCSNAME
  2

  9
$UCSORG
 10
0.0
 20
0.0
 30
0.0
  9
$UCSXDIR
 10
1.0
 20
0.0
 30
0.0
  9
$UCSYDIR
 10
0.0
 20
1.0
 30
0.0
  9
$PUCSNAME
  2

  9
$PUCSORG
 10
0.0
 20
0.0
 30
0.0
  9
$PUCSXDIR
 10
1.0
 20
0.0
 30
0.0
  9
$PUCSYDIR
 10
0.0
 20
1.0
 30
0.0
  9
$USERI1
 70
     0
  9
$USERI2
 70
     0
  9
$USERI3
 70
     0
  9
$USERI4
 70
     0
  9
$USERI5
 70
     0
  9
$USERR1
 40
0.0
  9
$USERR2
 40
0.0
  9
$USERR3
 40
0.0
  9
$USERR4
 40
0.0
  9
$USERR5
 40
0.0
  9
$WORLDVIEW
 70
     1
  9
$SHADEDGE
 70
     3
  9
$SHADEDIF
 70
    70
  9
$TILEMODE
 70
     1
  9
$MAXACTVP
 70
    64
  9
$PINSBASE
 10
0.0
 20
0.0
 30
0.0
  9
$PLIMCHECK
 70
     0
  9
$PEXTMIN
 10
1.000000000000000E+20
 20
1.000000000000000E+20
 30
1.000000000000000E+20
  9
$PEXTMAX
 10
-1.000000000000000E+20
 20
-1.000000000000000E+20
 30
-1.000000000000000E+20
  9
$PLIMMIN
 10
0.0
 20
0.0
  9
$PLIMMAX
 10
12.0
 20
9.0
  9
$UNITMODE
 70
     0
  9
$VISRETAIN
 70
     1
  9
$PLINEGEN
 70
     0
  9
$PSLTSCALE
 70
     1
  9
$TREEDEPTH
 70
  3020
  9
$PICKSTYLE
 70
     1
  9
$CMLSTYLE
  2
STANDARD
  9
$CMLJUST
 70
     0
  9
$CMLSCALE
 40
1.0
  9
$SAVEIMAGES
 70
     1
  0
ENDSEC
  0
SECTION
  2
CLASSES
  0
CLASS
  1
ACDBDICTIONARYWDFLT
  2
AcDbDictionaryWithDefault
  3
ObjectDBX Classes
 90
    32768
280
     0
281
     0
  0
CLASS
  1
VISUALSTYLE
  2
AcDbVisualStyle
  3
ObjectDBX Classes
 90
     4095
280
     0
281
     0
  0
CLASS
  1
XRECORD
  2
AcDbXrecord
  3
AutoCAD 2000
 90
    32768
280
     0
281
     0
  0
CLASS
  1
LWPOLYLINE
  2
AcDbPolyline
  3
AutoCAD 2000
 90
    32768
280
     0
281
     1
  0
CLASS
  1
HATCH
  2
AcDbHatch
  3
AutoCAD 2000
 90
    32768
280
     0
281
     1
  0
CLASS
  1
ACDBPLACEHOLDER
  2
AcDbPlaceHolder
  3
ObjectDBX Classes
 90
        0
280
     0
281
     0
  0
CLASS
  1
LAYOUT
  2
AcDbLayout
  3
ObjectDBX Classes
 90
        0
280
     0
281
     0
  0
ENDSEC
  0
SECTION
  2
TABLES
  0
TABLE
  2
VPORT
  5
8
330
0
100
AcDbSymbolTable
 70
     1
  0
VPORT
  5
29
330
8
100
AcDbSymbolTableRecord
100
AcDbViewportTableRecord
  2
*ACTIVE
 70
     0
 10
0.0
 20
0.0
 11
1.0
 21
1.0
 12
0.0
 22
0.0
 13
0.0
 23
0.0
 14
0.5
 24
0.5
 15
0.5
 25
0.5
 16
0.0
 26
0.0
 36
1.0
 17
105.0008259828644
 27
-148.4999796178229
 37
0.0
 40
296.9999592356459
 41
0.7070763662937379
 42
50.0
 43
0.0
 44
0.0
 50
0.0
 51
0.0
 71
     0
 72
   100
 73
     1
 74
     3
 75
     0
 76
     0
 77
     0
 78
     0
  0
ENDTAB
  0
TABLE
  2
LTYPE
  5
5
330
0
100
AcDbSymbolTable
 70
    23
  0
LTYPE
  5
14
330
5
100
AcDbSymbolTableRecord
100
AcDbLinetypeTableRecord
  2
BYBLOCK
 70
     0
  3

 72
    65
 73
     0
 40
0.0
  0
LTYPE
  5
15
330
5
100
AcDbSymbolTableRecord
100
AcDbLinetypeTableRecord
  2
BYLAYER
 70
     0
  3

 72
    65
 73
     0
 40
0.0
  0
LTYPE
  5
16
330
5
100
AcDbSymbolTableRecord
100
AcDbLinetypeTableRecord
  2
CONTINUOUS
 70
     0
  3
Solid line
 72
    65
 73
     0
 40
0.0
  0
LTYPE
  5
4A
330
5
100
AcDbSymbolTableRecord
100
AcDbLinetypeTableRecord
  2
AI-LINETYPE-1
 70
     0
  3
Adobe Illustrator Linetype No. 1
 72
    65
 73
     2
 40
2.822222221516667
 49
1.411111110758333
 74
     0
 49
-1.411111110758333
 74
     0
  0
LTYPE
  5
4C
330
5
100
AcDbSymbolTableRecord
100
AcDbLinetypeTableRecord
  2
AI-LINETYPE-2
 70
     0
  3
Adobe Illustrator Linetype No. 2
 72
    65
 73
     2
 40
2.822222221516667
 49
1.411111110758333
 74
     0
 49
-1.411111110758333
 74
     0
  0
LTYPE
  5
4E
330
5
100
AcDbSymbolTableRecord
100
AcDbLinetypeTableRecord
  2
AI-LINETYPE-3
 70
     0
  3
Adobe Illustrator Linetype No. 3
 72
    65
 73
     2
 40
2.822222221516667
 49
1.411111110758333
 74
     0
 49
-1.411111110758333
 74
     0
  0
LTYPE
  5
50
330
5
100
AcDbSymbolTableRecord
100
AcDbLinetypeTableRecord
  2
AI-LINETYPE-4
 70
     0
  3
Adobe Illustrator Linetype No. 4
 72
    65
 73
     2
 40
2.822222221516667
 49
1.411111110758333
 74
     0
 49
-1.411111110758333
 74
     0
  0
LTYPE
  5
52
330
5
100
AcDbSymbolTableRecord
100
AcDbLinetypeTableRecord
  2
AI-LINETYPE-5
 70
     0
  3
Adobe Illustrator Linetype No. 5
 72
    65
 73
     2
 40
2.822222221516667
 49
1.411111110758333
 74
     0
 49
-1.411111110758333
 74
     0
  0
LTYPE
  5
54
330
5
100
AcDbSymbolTableRecord
100
AcDbLinetypeTableRecord
  2
AI-LINETYPE-6
 70
     0
  3
Adobe Illustrator Linetype No. 6
 72
    65
 73
     2
 40
2.822222221516667
 49
1.411111110758333
 74
     0
 49
-1.411111110758333
 74
     0
  0
LTYPE
  5
56
330
5
100
AcDbSymbolTableRecord
100
AcDbLinetypeTableRecord
  2
AI-LINETYPE-7
 70
     0
  3
Adobe Illustrator Linetype No. 7
 72
    65
 73
     2
 40
2.822222221516667
 49
1.411111110758333
 74
     0
 49
-1.411111110758333
 74
     0
  0
LTYPE
  5
58
330
5
100
AcDbSymbolTableRecord
100
AcDbLinetypeTableRecord
  2
AI-LINETYPE-8
 70
     0
  3
Adobe Illustrator Linetype No. 8
 72
    65
 73
     2
 40
2.822222221516667
 49
1.411111110758333
 74
     0
 49
-1.411111110758333
 74
     0
  0
LTYPE
  5
5A
330
5
100
AcDbSymbolTableRecord
100
AcDbLinetypeTableRecord
  2
AI-LINETYPE-9
 70
     0
  3
Adobe Illustrator Linetype No. 9
 72
    65
 73
     2
 40
2.822222221516667
 49
1.411111110758333
 74
     0
 49
-1.411111110758333
 74
     0
  0
LTYPE
  5
5C
330
5
100
AcDbSymbolTableRecord
100
AcDbLinetypeTableRecord
  2
AI-LINETYPE-10
 70
     0
  3
Adobe Illustrator Linetype No. 10
 72
    65
 73
     2
 40
2.822222221516667
 49
1.411111110758333
 74
     0
 49
-1.411111110758333
 74
     0
  0
LTYPE
  5
5E
330
5
100
AcDbSymbolTableRecord
100
AcDbLinetypeTableRecord
  2
AI-LINETYPE-11
 70
     0
  3
Adobe Illustrator Linetype No. 11
 72
    65
 73
     2
 40
2.822222221516667
 49
1.411111110758333
 74
     0
 49
-1.411111110758333
 74
     0
  0
LTYPE
  5
63
330
5
100
AcDbSymbolTableRecord
100
AcDbLinetypeTableRecord
  2
AI-LINETYPE-12
 70
     0
  3
Adobe Illustrator Linetype No. 12
 72
    65
 73
     2
 40
2.822222221516667
 49
1.411111110758333
 74
     0
 49
-1.411111110758333
 74
     0
  0
LTYPE
  5
68
330
5
100
AcDbSymbolTableRecord
100
AcDbLinetypeTableRecord
  2
AI-LINETYPE-13
 70
     0
  3
Adobe Illustrator Linetype No. 13
 72
    65
 73
     2
 40
2.822222221516667
 49
1.411111110758333
 74
     0
 49
-1.411111110758333
 74
     0
  0
LTYPE
  5
6A
330
5
100
AcDbSymbolTableRecord
100
AcDbLinetypeTableRecord
  2
AI-LINETYPE-14
 70
     0
  3
Adobe Illustrator Linetype No. 14
 72
    65
 73
     2
 40
2.822222221516667
 49
1.411111110758333
 74
     0
 49
-1.411111110758333
 74
     0
  0
LTYPE
  5
6C
330
5
100
AcDbSymbolTableRecord
100
AcDbLinetypeTableRecord
  2
AI-LINETYPE-15
 70
     0
  3
Adobe Illustrator Linetype No. 15
 72
    65
 73
     2
 40
2.822222221516667
 49
1.411111110758333
 74
     0
 49
-1.411111110758333
 74
     0
  0
LTYPE
  5
6E
330
5
100
AcDbSymbolTableRecord
100
AcDbLinetypeTableRecord
  2
AI-LINETYPE-16
 70
     0
  3
Adobe Illustrator Linetype No. 16
 72
    65
 73
     2
 40
2.822222221516667
 49
1.411111110758333
 74
     0
 49
-1.411111110758333
 74
     0
  0
LTYPE
  5
70
330
5
100
AcDbSymbolTableRecord
100
AcDbLinetypeTableRecord
  2
AI-LINETYPE-17
 70
     0
  3
Adobe Illustrator Linetype No. 17
 72
    65
 73
     2
 40
2.822222221516667
 49
1.411111110758333
 74
     0
 49
-1.411111110758333
 74
     0
  0
LTYPE
  5
72
330
5
100
AcDbSymbolTableRecord
100
AcDbLinetypeTableRecord
  2
AI-LINETYPE-18
 70
     0
  3
Adobe Illustrator Linetype No. 18
 72
    65
 73
     2
 40
2.822222221516667
 49
1.411111110758333
 74
     0
 49
-1.411111110758333
 74
     0
  0
LTYPE
  5
74
330
5
100
AcDbSymbolTableRecord
100
AcDbLinetypeTableRecord
  2
AI-LINETYPE-19
 70
     0
  3
Adobe Illustrator Linetype No. 19
 72
    65
 73
     2
 40
2.822222221516667
 49
1.411111110758333
 74
     0
 49
-1.411111110758333
 74
     0
  0
LTYPE
  5
76
330
5
100
AcDbSymbolTableRecord
100
AcDbLinetypeTableRecord
  2
AI-LINETYPE-20
 70
     0
  3
Adobe Illustrator Linetype No. 20
 72
    65
 73
     2
 40
2.822222221516667
 49
1.411111110758333
 74
     0
 49
-1.411111110758333
 74
     0
  0
LTYPE
  5
78
330
5
100
AcDbSymbolTableRecord
100
AcDbLinetypeTableRecord
  2
AI-LINETYPE-21
 70
     0
  3
Adobe Illustrator Linetype No. 21
 72
    65
 73
     2
 40
2.822222221516667
 49
1.411111110758333
 74
     0
 49
-1.411111110758333
 74
     0
  0
LTYPE
  5
7A
330
5
100
AcDbSymbolTableRecord
100
AcDbLinetypeTableRecord
  2
AI-LINETYPE-22
 70
     0
  3
Adobe Illustrator Linetype No. 22
 72
    65
 73
     2
 40
2.822222221516667
 49
1.411111110758333
 74
     0
 49
-1.411111110758333
 74
     0
  0
ENDTAB
  0
TABLE
  2
LAYER
  5
2
330
0
100
AcDbSymbolTable
 70
     5
  0
LAYER
  5
10
330
2
100
AcDbSymbolTableRecord
100
AcDbLayerTableRecord
  2
0
 70
     0
 62
     7
  6
CONTINUOUS
  0
LAYER
  5
3B
330
2
100
AcDbSymbolTableRecord
100
AcDbLayerTableRecord
  2
CUTLINE
 70
     0
 62
     7
  6
CONTINUOUS
  0
LAYER
  5
48
330
2
100
AcDbSymbolTableRecord
100
AcDbLayerTableRecord
  2
VALLEYLINE
 70
     0
 62
     7
  6
CONTINUOUS
  0
LAYER
  5
7B
330
2
100
AcDbSymbolTableRecord
100
AcDbLayerTableRecord
  2
MOUNTAINLINE
 70
     0
 62
     7
  6
CONTINUOUS
  0
LAYER
  5
98
330
2
100
AcDbSymbolTableRecord
100
AcDbLayerTableRecord
  2
TEXT
 70
     0
 62
     7
  6
CONTINUOUS
  0
ENDTAB
  0
TABLE
  2
STYLE
  5
3
330
0
100
AcDbSymbolTable
 70
     1
  0
STYLE
  5
11
330
3
100
AcDbSymbolTableRecord
100
AcDbTextStyleTableRecord
  2
STANDARD
 70
     0
 40
0.0
 41
1.0
 50
0.0
 71
     0
 42
0.2
  3
txt
  4

  0
ENDTAB
  0
TABLE
  2
VIEW
  5
6
330
0
100
AcDbSymbolTable
 70
     0
  0
ENDTAB
  0
TABLE
  2
UCS
  5
7
330
0
100
AcDbSymbolTable
 70
     0
  0
ENDTAB
  0
TABLE
  2
APPID
  5
9
330
0
100
AcDbSymbolTable
 70
     1
  0
APPID
  5
12
330
9
100
AcDbSymbolTableRecord
100
AcDbRegAppTableRecord
  2
ACAD
 70
     0
  0
ENDTAB
  0
TABLE
  2
DIMSTYLE
  5
A
330
0
100
AcDbSymbolTable
 70
     1
  0
DIMSTYLE
105
27
330
A
100
AcDbSymbolTableRecord
100
AcDbDimStyleTableRecord
  2
STANDARD
 70
     0
  3

  4

  5

  6

  7

 40
1.0
 41
0.18
 42
0.0625
 43
0.38
 44
0.18
 45
0.0
 46
0.0
 47
0.0
 48
0.0
140
0.18
141
0.09
142
0.0
143
25.4
144
1.0
145
0.0
146
1.0
147
0.09
 71
     0
 72
     0
 73
     1
 74
     1
 75
     0
 76
     0
 77
     0
 78
     0
170
     0
171
     2
172
     0
173
     0
174
     0
175
     0
176
     0
177
     0
178
     0
270
     2
271
     4
272
     4
273
     2
274
     2
340
11
275
     0
280
     0
281
     0
282
     0
283
     1
284
     0
285
     0
286
     0
287
     3
288
     0
  0
ENDTAB
  0
TABLE
  2
BLOCK_RECORD
  5
1
330
0
100
AcDbSymbolTable
 70
     1
  0
BLOCK_RECORD
  5
1F
330
1
100
AcDbSymbolTableRecord
100
AcDbBlockTableRecord
  2
*MODEL_SPACE
  0
BLOCK_RECORD
  5
1B
330
1
100
AcDbSymbolTableRecord
100
AcDbBlockTableRecord
  2
*PAPER_SPACE
  0
ENDTAB
  0
ENDSEC
  0
SECTION
  2
BLOCKS
  0
BLOCK
  5
20
330
1F
100
AcDbEntity
  8
0
100
AcDbBlockBegin
  2
*MODEL_SPACE
 70
     0
 71
     0
 10
0.0
 20
0.0
 30
0.0
  3
*MODEL_SPACE
  1

  0
ENDBLK
  5
21
330
1F
100
AcDbEntity
  8
0
100
AcDbBlockEnd
  0
BLOCK
  5
1C
330
1B
100
AcDbEntity
 67
     1
  8
0
100
AcDbBlockBegin
  2
*PAPER_SPACE
 70
     0
 71
     0
 10
0.0
 20
0.0
 30
0.0
  3
*PAPER_SPACE
  1

  0
ENDBLK
  5
1D
330
1B
100
AcDbEntity
 67
     1
  8
0
100
AcDbBlockEnd
  0
ENDSEC
  0
SECTION
  2
ENTITIES
  0
SPLINE
  5
3C
330
1F
100
AcDbEntity
  8
CUTLINE
 62
    29
100
AcDbSpline
210
0.0
220
0.0
230
1.0
 70
     8
 71
     3
 72
    11
 73
     7
 74
     0
 42
0.0000000001
 43
0.0000000001
 40
0.0
 40
0.0
 40
0.0
 40
0.0
 40
1.0
 40
1.0
 40
1.0
 40
2.0
 40
2.0
 40
2.0
 40
2.0
 10
12.79422335834658
 20
-155.9212320573739
 30
0.0
 10
12.79422335834658
 20
-97.50309242354089
 30
0.0
 10
60.15136717246216
 20
-50.14612086419958
 30
0.0
 10
118.5691622967466
 20
-50.14612086419958
 30
0.0
 10
147.7777153493403
 20
-50.14612086419958
 30
0.0
 10
174.221579275021
 20
-61.98501924448639
 30
0.0
 10
193.3628743006176
 20
-81.12596976053449
 30
0.0
  0
SPLINE
  5
3D
330
1F
100
AcDbEntity
  8
CUTLINE
 62
    29
100
AcDbSpline
210
0.0
220
0.0
230
1.0
 70
     8
 71
     3
 72
    11
 73
     7
 74
     0
 42
0.0000000001
 43
0.0000000001
 40
0.0
 40
0.0
 40
0.0
 40
0.0
 40
1.0
 40
1.0
 40
1.0
 40
2.0
 40
2.0
 40
2.0
 40
2.0
 10
200.8383869940612
 20
-155.9212320573739
 30
0.0
 10
200.8383869940612
 20
-214.3393716912068
 30
0.0
 10
153.4810709251714
 20
-261.6966877600967
 30
0.0
 10
95.06327580088697
 20
-261.6966877600967
 30
0.0
 10
65.8550672578418
 20
-261.6966877600967
 30
0.0
 10
39.41137558693535
 20
-249.8576171250356
 30
0.0
 10
20.2697360517902
 20
-230.7166666089875
 30
0.0
  0
POLYLINE
  5
3E
330
1F
100
AcDbEntity
  8
CUTLINE
 62
    29
100
AcDb2dPolyline
 66
     1
 10
0.0
 20
0.0
 30
0.0
  0
VERTEX
  5
3F
330
3E
100
AcDbEntity
  8
CUTLINE
 62
    29
100
AcDbVertex
100
AcDb2dVertex
 10
176.7423556415783
 20
-97.74821096731642
 30
0.0
  0
VERTEX
  5
40
330
3E
100
AcDbEntity
  8
CUTLINE
 62
    29
100
AcDbVertex
100
AcDb2dVertex
 10
193.3635633197147
 20
-81.12665877963153
 30
0.0
  0
SEQEND
  5
41
330
3E
100
AcDbEntity
  8
CUTLINE
  0
POLYLINE
  5
42
330
1F
100
AcDbEntity
  8
CUTLINE
 62
    29
100
AcDb2dPolyline
 66
     1
 10
0.0
 20
0.0
 30
0.0
  0
VERTEX
  5
43
330
42
100
AcDbEntity
  8
CUTLINE
 62
    29
100
AcDbVertex
100
AcDb2dVertex
 10
36.889910201281
 20
-214.0947699117541
 30
0.0
  0
VERTEX
  5
44
330
42
100
AcDbEntity
  8
CUTLINE
 62
    29
100
AcDbVertex
100
AcDb2dVertex
 10
20.26904703269316
 20
-230.7156330803419
 30
0.0
  0
SEQEND
  5
45
330
42
100
AcDbEntity
  8
CUTLINE
  0
SPLINE
  5
46
330
1F
100
AcDbEntity
  8
CUTLINE
 62
    29
100
AcDbSpline
210
0.0
220
0.0
230
1.0
 70
     8
 71
     3
 72
     8
 73
     4
 74
     0
 42
0.0000000001
 43
0.0000000001
 40
0.0
 40
0.0
 40
0.0
 40
0.0
 40
1.0
 40
1.0
 40
1.0
 40
1.0
 10
36.89163274902362
 20
-214.0964924594967
 30
0.0
 10
22.0029635904194
 20
-199.2085123199896
 30
0.0
 10
12.79405110357232
 20
-178.6402587444024
 30
0.0
 10
12.79405110357232
 20
-155.9212320573739
 30
0.0
  0
SPLINE
  5
47
330
1F
100
AcDbEntity
  8
CUTLINE
 62
    29
100
AcDbSpline
210
0.0
220
0.0
230
1.0
 70
     8
 71
     3
 72
     8
 73
     4
 74
     0
 42
0.0000000001
 43
0.0000000001
 40
0.0
 40
0.0
 40
0.0
 40
0.0
 40
1.0
 40
1.0
 40
1.0
 40
1.0
 10
176.7416666224813
 20
-97.74752194821937
 30
0.0
 10
191.629991271537
 20
-112.6353298329523
 30
0.0
 10
200.8383869940612
 20
-133.2028943894423
 30
0.0
 10
200.8383869940612
 20
-155.9212320573739
 30
0.0
  0
SPLINE
  5
49
330
1F
100
AcDbEntity
  8
VALLEYLINE
  6
AI-LINETYPE-1
 62
    29
100
AcDbSpline
210
0.0
220
0.0
230
1.0
 70
     8
 71
     3
 72
    11
 73
     7
 74
     0
 42
0.0000000001
 43
0.0000000001
 40
0.0
 40
0.0
 40
0.0
 40
0.0
 40
1.0
 40
1.0
 40
1.0
 40
2.0
 40
2.0
 40
2.0
 40
2.0
 10
143.5016628330482
 20
-130.9909708331377
 30
0.0
 10
137.1213459943655
 20
-124.6097927205837
 30
0.0
 10
128.3060356667082
 20
-120.6629190779072
 30
0.0
 10
118.5691622967466
 20
-120.6629190779072
 30
0.0
 10
99.09644908546895
 20
-120.6629190779072
 30
0.0
 10
83.31084931727993
 20
-136.4488633556447
 30
0.0
 10
83.31084931727993
 20
-155.9212320573739
 30
0.0
  0
SPLINE
  5
4B
330
1F
100
AcDbEntity
  8
VALLEYLINE
  6
AI-LINETYPE-2
 62
    29
100
AcDbSpline
210
0.0
220
0.0
230
1.0
 70
     8
 71
     3
 72
    11
 73
     7
 74
     0
 42
0.0000000001
 43
0.0000000001
 40
0.0
 40
0.0
 40
0.0
 40
0.0
 40
1.0
 40
1.0
 40
1.0
 40
2.0
 40
2.0
 40
2.0
 40
2.0
 10
70.13284232187651
 20
-180.8530435745784
 30
0.0
 10
76.51350367010774
 20
-187.2333604132611
 30
0.0
 10
85.32760821434519
 20
-191.1800618011633
 30
0.0
 10
95.06379256520975
 20
-191.1800618011633
 30
0.0
 10
114.5363335217131
 20
-191.1800618011633
 30
0.0
 10
130.3221055446764
 20
-175.3942897782
 30
0.0
 10
130.3221055446764
 20
-155.9212320573739
 30
0.0
  0
SPLINE
  5
4D
330
1F
100
AcDbEntity
  8
VALLEYLINE
  6
AI-LINETYPE-3
 62
    29
100
AcDbSpline
210
0.0
220
0.0
230
1.0
 70
     8
 71
     3
 72
     8
 73
     4
 74
     0
 42
0.0000000001
 43
0.0000000001
 40
0.0
 40
0.0
 40
0.0
 40
0.0
 40
1.0
 40
1.0
 40
1.0
 40
1.0
 10
73.34108749251543
 20
-164.9180989171038
 30
0.0
 10
74.53274602086334
 20
-167.7913085518022
 30
0.0
 10
76.27751462936813
 20
-170.3771972230307
 30
0.0
 10
78.44275714184765
 20
-172.5424397355102
 30
0.0
  0
SPLINE
  5
4F
330
1F
100
AcDbEntity
  8
VALLEYLINE
  6
AI-LINETYPE-4
 62
    29
100
AcDbSpline
210
0.0
220
0.0
230
1.0
 70
     8
 71
     3
 72
     8
 73
     4
 74
     0
 42
0.0000000001
 43
0.0000000001
 40
0.0
 40
0.0
 40
0.0
 40
0.0
 40
1.0
 40
1.0
 40
1.0
 40
1.0
 10
140.2911783503439
 20
-146.9248819619667
 30
0.0
 10
139.099519821996
 20
-144.0516723272683
 30
0.0
 10
137.3549234682654
 20
-141.4659559108141
 30
0.0
 10
135.1900254653345
 20
-139.3008856531088
 30
0.0
  0
SPLINE
  5
51
330
1F
100
AcDbEntity
  8
VALLEYLINE
  6
AI-LINETYPE-5
 62
    29
100
AcDbSpline
210
0.0
220
0.0
230
1.0
 70
     8
 71
     3
 72
     8
 73
     4
 74
     0
 42
0.0000000001
 43
0.0000000001
 40
0.0
 40
0.0
 40
0.0
 40
0.0
 40
1.0
 40
1.0
 40
1.0
 40
1.0
 10
162.0135389134897
 20
-137.9269815735912
 30
0.0
 10
159.6305663663424
 20
-132.1812513232915
 30
0.0
 10
156.1417181684299
 20
-127.0099907451572
 30
0.0
 10
151.8112331434708
 20
-122.6798502297467
 30
0.0
  0
SPLINE
  5
53
330
1F
100
AcDbEntity
  8
VALLEYLINE
  6
AI-LINETYPE-6
 62
    29
100
AcDbSpline
210
0.0
220
0.0
230
1.0
 70
     8
 71
     3
 72
     8
 73
     4
 74
     0
 42
0.0000000001
 43
0.0000000001
 40
0.0
 40
0.0
 40
0.0
 40
0.0
 40
1.0
 40
1.0
 40
1.0
 40
1.0
 10
51.61889918414389
 20
-173.9146212672852
 30
0.0
 10
54.00169947651694
 20
-179.6613850462305
 30
0.0
 10
57.49158120307502
 20
-184.8331623886876
 30
0.0
 10
61.82223848280833
 20
-189.1636474136466
 30
0.0
  0
SPLINE
  5
55
330
1F
100
AcDbEntity
  8
VALLEYLINE
  6
AI-LINETYPE-7
 62
    29
100
AcDbSpline
210
0.0
220
0.0
230
1.0
 70
     8
 71
     3
 72
    11
 73
     7
 74
     0
 42
0.0000000001
 43
0.0000000001
 40
0.0
 40
0.0
 40
0.0
 40
0.0
 40
1.0
 40
1.0
 40
1.0
 40
2.0
 40
2.0
 40
2.0
 40
2.0
 10
160.1204589443449
 20
-114.3682128620329
 30
0.0
 10
149.4864827100242
 20
-103.7345811372608
 30
0.0
 10
134.7955620322733
 20
-97.15737709159608
 30
0.0
 10
118.5691622967466
 20
-97.15737709159608
 30
0.0
 10
86.11429576840199
 20
-97.15737709159608
 30
0.0
 10
59.80513507619455
 20
-123.4670545481263
 30
0.0
 10
59.80513507619455
 20
-155.9212320573739
 30
0.0
  0
SPLINE
  5
57
330
1F
100
AcDbEntity
  8
VALLEYLINE
  6
AI-LINETYPE-8
 62
    29
100
AcDbSpline
210
0.0
220
0.0
230
1.0
 70
     8
 71
     3
 72
    11
 73
     7
 74
     0
 42
0.0000000001
 43
0.0000000001
 40
0.0
 40
0.0
 40
0.0
 40
0.0
 40
1.0
 40
1.0
 40
1.0
 40
2.0
 40
2.0
 40
2.0
 40
2.0
 10
53.51025660554605
 20
-197.4728732145207
 30
0.0
 10
64.14440509464099
 20
-208.1078829774869
 30
0.0
 10
78.83601479148892
 20
-214.6852592779259
 30
0.0
 10
95.06327580088697
 20
-214.6852592779259
 30
0.0
 10
127.5177978196831
 20
-214.6852592779259
 30
0.0
 10
153.827303021439
 20
-188.37575407617
 30
0.0
 10
153.827303021439
 20
-155.9212320573739
 30
0.0
  0
SPLINE
  5
59
330
1F
100
AcDbEntity
  8
VALLEYLINE
  6
AI-LINETYPE-9
 62
    29
100
AcDbSpline
210
0.0
220
0.0
230
1.0
 70
     8
 71
     3
 72
     8
 73
     4
 74
     0
 42
0.0000000001
 43
0.0000000001
 40
0.0
 40
0.0
 40
0.0
 40
0.0
 40
1.0
 40
1.0
 40
1.0
 40
1.0
 10
36.29942083510917
 20
-155.9212320573739
 30
0.0
 10
36.29942083510917
 20
-163.8893934052082
 30
0.0
 10
37.88519828696968
 20
-171.4868624788297
 30
0.0
 10
40.7585801764423
 20
-178.4152940092156
 30
0.0
  0
SPLINE
  5
5B
330
1F
100
AcDbEntity
  8
VALLEYLINE
  6
AI-LINETYPE-10
 62
    29
100
AcDbSpline
210
0.0
220
0.0
230
1.0
 70
     8
 71
     3
 72
     8
 73
     4
 74
     0
 42
0.0000000001
 43
0.0000000001
 40
0.0
 40
0.0
 40
0.0
 40
0.0
 40
1.0
 40
1.0
 40
1.0
 40
1.0
 10
183.7348659479899
 20
-128.9278754017958
 30
0.0
 10
180.1609238915917
 20
-120.309107771572
 30
0.0
 10
174.9267903208516
 20
-112.5526475413063
 30
0.0
 10
168.4314072929616
 20
-106.0576090229648
 30
0.0
  0
SPLINE
  5
5D
330
1F
100
AcDbEntity
  8
VALLEYLINE
  6
AI-LINETYPE-11
 62
    29
100
AcDbSpline
210
0.0
220
0.0
230
1.0
 70
     8
 71
     3
 72
     8
 73
     4
 74
     0
 42
0.0000000001
 43
0.0000000001
 40
0.0
 40
0.0
 40
0.0
 40
0.0
 40
1.0
 40
1.0
 40
1.0
 40
1.0
 10
29.89653862099809
 20
-182.9114881270152
 30
0.0
 10
33.470308422622
 20
-191.5307725215618
 30
0.0
 10
38.70461424813634
 20
-199.2877495161503
 30
0.0
 10
45.20016953080066
 20
-205.7838215631374
 30
0.0
  0
POLYLINE
  5
5F
330
1F
100
AcDbEntity
  8
VALLEYLINE
  6
AI-LINETYPE-12
 62
    29
100
AcDb2dPolyline
 66
     1
 10
0.0
 20
0.0
 30
0.0
  0
VERTEX
  5
60
330
5F
100
AcDbEntity
  8
VALLEYLINE
  6
AI-LINETYPE-12
 62
    29
100
AcDbVertex
100
AcDb2dVertex
 10
95.06327580088697
 20
-155.9212320573739
 30
0.0
  0
VERTEX
  5
61
330
5F
100
AcDbEntity
  8
VALLEYLINE
  6
AI-LINETYPE-12
 62
    29
100
AcDbVertex
100
AcDb2dVertex
 10
36.889910201281
 20
-214.0947699117541
 30
0.0
  0
SEQEND
  5
62
330
5F
100
AcDbEntity
  8
VALLEYLINE
  6
AI-LINETYPE-12
  0
POLYLINE
  5
64
330
1F
100
AcDbEntity
  8
VALLEYLINE
  6
AI-LINETYPE-13
 62
    29
100
AcDb2dPolyline
 66
     1
 10
0.0
 20
0.0
 30
0.0
  0
VERTEX
  5
65
330
64
100
AcDbEntity
  8
VALLEYLINE
  6
AI-LINETYPE-13
 62
    29
100
AcDbVertex
100
AcDb2dVertex
 10
118.5691622967466
 20
-155.9212320573739
 30
0.0
  0
VERTEX
  5
66
330
64
100
AcDbEntity
  8
VALLEYLINE
  6
AI-LINETYPE-13
 62
    29
100
AcDbVertex
100
AcDb2dVertex
 10
176.7423556415783
 20
-97.74821096731642
 30
0.0
  0
SEQEND
  5
67
330
64
100
AcDbEntity
  8
VALLEYLINE
  6
AI-LINETYPE-13
  0
SPLINE
  5
69
330
1F
100
AcDbEntity
  8
VALLEYLINE
  6
AI-LINETYPE-14
 62
    29
100
AcDbSpline
210
0.0
220
0.0
230
1.0
 70
     8
 71
     3
 72
    11
 73
     7
 74
     0
 42
0.0000000001
 43
0.0000000001
 40
0.0
 40
0.0
 40
0.0
 40
0.0
 40
1.0
 40
1.0
 40
1.0
 40
2.0
 40
2.0
 40
2.0
 40
2.0
 10
177.3331895172986
 20
-155.9212320573739
 30
0.0
 10
177.3331895172986
 20
-201.3575628836884
 30
0.0
 10
140.49995113675
 20
-238.190801264237
 30
0.0
 10
95.06327580088697
 20
-238.190801264237
 30
0.0
 10
72.34597166160101
 20
-238.190801264237
 30
0.0
 10
51.77926837898227
 20
-228.9834390703583
 30
0.0
 10
36.89163274902362
 20
-214.0964924594967
 30
0.0
  0
SPLINE
  5
6B
330
1F
100
AcDbEntity
  8
VALLEYLINE
  6
AI-LINETYPE-15
 62
    29
100
AcDbSpline
210
0.0
220
0.0
230
1.0
 70
     8
 71
     3
 72
    11
 73
     7
 74
     0
 42
0.0000000001
 43
0.0000000001
 40
0.0
 40
0.0
 40
0.0
 40
0.0
 40
1.0
 40
1.0
 40
1.0
 40
2.0
 40
2.0
 40
2.0
 40
2.0
 10
36.29942083510917
 20
-155.9212320573739
 30
0.0
 10
36.29942083510917
 20
-110.4852457406079
 30
0.0
 10
73.13265921565781
 20
-73.65200736005923
 30
0.0
 10
118.5688177871981
 20
-73.65200736005923
 30
0.0
 10
141.2864664360326
 20
-73.65200736005923
 30
0.0
 10
161.8533419734256
 20
-82.86023082780925
 30
0.0
 10
176.7416666224813
 20
-97.74752194821937
 30
0.0
  0
SPLINE
  5
6D
330
1F
100
AcDbEntity
  8
VALLEYLINE
  6
AI-LINETYPE-16
 62
    29
100
AcDbSpline
210
0.0
220
0.0
230
1.0
 70
     8
 71
     3
 72
     8
 73
     4
 74
     0
 42
0.0000000001
 43
0.0000000001
 40
0.0
 40
0.0
 40
0.0
 40
0.0
 40
1.0
 40
1.0
 40
1.0
 40
1.0
 10
130.3221055446764
 20
-155.9212320573739
 30
0.0
 10
130.3221055446764
 20
-154.3275308858973
 30
0.0
 10
130.0044677409364
 20
-152.8078992673536
 30
0.0
 10
129.4298258139967
 20
-151.421592844089
 30
0.0
  0
SPLINE
  5
6F
330
1F
100
AcDbEntity
  8
VALLEYLINE
  6
AI-LINETYPE-17
 62
    29
100
AcDbSpline
210
0.0
220
0.0
230
1.0
 70
     8
 71
     3
 72
     8
 73
     4
 74
     0
 42
0.0000000001
 43
0.0000000001
 40
0.0
 40
0.0
 40
0.0
 40
0.0
 40
1.0
 40
1.0
 40
1.0
 40
1.0
 10
83.31084931727993
 20
-155.9212320573739
 30
0.0
 10
83.31084931727993
 20
-157.515277738399
 30
0.0
 10
83.6283148662457
 20
-159.0352538664912
 30
0.0
 10
84.2033013027339
 20
-160.4212157802072
 30
0.0
  0
SPLINE
  5
71
330
1F
100
AcDbEntity
  8
VALLEYLINE
  6
AI-LINETYPE-18
 62
    29
100
AcDbSpline
210
0.0
220
0.0
230
1.0
 70
     8
 71
     3
 72
     8
 73
     4
 74
     0
 42
0.0000000001
 43
0.0000000001
 40
0.0
 40
0.0
 40
0.0
 40
0.0
 40
1.0
 40
1.0
 40
1.0
 40
1.0
 10
153.827303021439
 20
-155.9212320573739
 30
0.0
 10
153.827303021439
 20
-151.1411620715897
 30
0.0
 10
152.875767648413
 20
-146.5831284898299
 30
0.0
 10
151.1521863771425
 20
-142.4262762773275
 30
0.0
  0
SPLINE
  5
73
330
1F
100
AcDbEntity
  8
VALLEYLINE
  6
AI-LINETYPE-19
 62
    29
100
AcDbSpline
210
0.0
220
0.0
230
1.0
 70
     8
 71
     3
 72
     8
 73
     4
 74
     0
 42
0.0000000001
 43
0.0000000001
 40
0.0
 40
0.0
 40
0.0
 40
0.0
 40
1.0
 40
1.0
 40
1.0
 40
1.0
 10
59.80547958574308
 20
-155.9212320573739
 30
0.0
 10
59.80547958574308
 20
-160.7026800813521
 30
0.0
 10
60.75735946831761
 20
-165.2619194465317
 30
0.0
 10
62.48145750391089
 20
-169.4194606781313
 30
0.0
  0
SPLINE
  5
75
330
1F
100
AcDbEntity
  8
VALLEYLINE
  6
AI-LINETYPE-20
 62
    29
100
AcDbSpline
210
0.0
220
0.0
230
1.0
 70
     8
 71
     3
 72
     8
 73
     4
 74
     0
 42
0.0000000001
 43
0.0000000001
 40
0.0
 40
0.0
 40
0.0
 40
0.0
 40
1.0
 40
1.0
 40
1.0
 40
1.0
 10
177.3331895172986
 20
-155.9212320573739
 30
0.0
 10
177.3331895172986
 20
-147.9544487477336
 30
0.0
 10
175.7474120654381
 20
-140.3576686932092
 30
0.0
 10
172.8748914498368
 20
-133.4294094175975
 30
0.0
  0
SPLINE
  5
77
330
1F
100
AcDbEntity
  8
VALLEYLINE
  6
AI-LINETYPE-21
 62
    29
100
AcDbSpline
210
0.0
220
0.0
230
1.0
 70
     8
 71
     3
 72
    11
 73
     7
 74
     0
 42
0.0000000001
 43
0.0000000001
 40
0.0
 40
0.0
 40
0.0
 40
0.0
 40
1.0
 40
1.0
 40
1.0
 40
2.0
 40
2.0
 40
2.0
 40
2.0
 10
126.8807996644604
 20
-147.612178511274
 30
0.0
 10
124.7537977118671
 20
-145.484659794358
 30
0.0
 10
121.815131262949
 20
-144.1686333189926
 30
0.0
 10
118.5691622967466
 20
-144.1686333189926
 30
0.0
 10
112.0782578929874
 20
-144.1686333189926
 30
0.0
 10
106.8165635583653
 20
-149.4303276536147
 30
0.0
 10
106.8165635583653
 20
-155.9212320573739
 30
0.0
  0
SPLINE
  5
79
330
1F
100
AcDbEntity
  8
VALLEYLINE
  6
AI-LINETYPE-22
 62
    29
100
AcDbSpline
210
0.0
220
0.0
230
1.0
 70
     8
 71
     3
 72
    11
 73
     7
 74
     0
 42
0.0000000001
 43
0.0000000001
 40
0.0
 40
0.0
 40
0.0
 40
0.0
 40
1.0
 40
1.0
 40
1.0
 40
2.0
 40
2.0
 40
2.0
 40
2.0
 10
86.75249970704452
 20
-164.231146877345
 30
0.0
 10
88.87932940486351
 20
-166.3584933394868
 30
0.0
 10
91.81765134423308
 20
-167.6741753053037
 30
0.0
 10
95.06379256520975
 20
-167.6741753053037
 30
0.0
 10
101.5545247141947
 20
-167.6741753053037
 30
0.0
 10
106.8165635583653
 20
-162.4124809706816
 30
0.0
 10
106.8165635583653
 20
-155.9212320573739
 30
0.0
  0
SPLINE
  5
7C
330
1F
100
AcDbEntity
  8
MOUNTAINLINE
 62
    29
100
AcDbSpline
210
0.0
220
0.0
230
1.0
 70
     8
 71
     3
 72
     8
 73
     4
 74
     0
 42
0.0000000001
 43
0.0000000001
 40
0.0
 40
0.0
 40
0.0
 40
0.0
 40
1.0
 40
1.0
 40
1.0
 40
1.0
 10
129.4298258139967
 20
-151.421592844089
 30
0.0
 10
128.8345133141455
 20
-149.986366064934
 30
0.0
 10
127.9625596468288
 20
-148.6941107484168
 30
0.0
 10
126.8807996644604
 20
-147.612178511274
 30
0.0
  0
SPLINE
  5
7D
330
1F
100
AcDbEntity
  8
MOUNTAINLINE
 62
    29
100
AcDbSpline
210
0.0
220
0.0
230
1.0
 70
     8
 71
     3
 72
     8
 73
     4
 74
     0
 42
0.0000000001
 43
0.0000000001
 40
0.0
 40
0.0
 40
0.0
 40
0.0
 40
1.0
 40
1.0
 40
1.0
 40
1.0
 10
84.2033013027339
 20
-160.4212157802072
 30
0.0
 10
84.79844154781081
 20
-161.8571315784593
 30
0.0
 10
85.67056746990181
 20
-163.149042385428
 30
0.0
 10
86.75249970704452
 20
-164.231146877345
 30
0.0
  0
SPLINE
  5
7E
330
1F
100
AcDbEntity
  8
MOUNTAINLINE
 62
    29
100
AcDbSpline
210
0.0
220
0.0
230
1.0
 70
     8
 71
     3
 72
     8
 73
     4
 74
     0
 42
0.0000000001
 43
0.0000000001
 40
0.0
 40
0.0
 40
0.0
 40
0.0
 40
1.0
 40
1.0
 40
1.0
 40
1.0
 10
151.1521863771425
 20
-142.4262762773275
 30
0.0
 10
149.3652153489434
 20
-138.1169785896027
 30
0.0
 10
146.7490098374447
 20
-134.2386623470827
 30
0.0
 10
143.5016628330482
 20
-130.9909708331377
 30
0.0
  0
SPLINE
  5
7F
330
1F
100
AcDbEntity
  8
MOUNTAINLINE
 62
    29
100
AcDbSpline
210
0.0
220
0.0
230
1.0
 70
     8
 71
     3
 72
     8
 73
     4
 74
     0
 42
0.0000000001
 43
0.0000000001
 40
0.0
 40
0.0
 40
0.0
 40
0.0
 40
1.0
 40
1.0
 40
1.0
 40
1.0
 10
62.48145750391089
 20
-169.4194606781313
 30
0.0
 10
64.2687730416585
 20
-173.7278970919847
 30
0.0
 10
66.88549531748002
 20
-177.6056965701819
 30
0.0
 10
70.13284232187651
 20
-180.8530435745784
 30
0.0
  0
SPLINE
  5
80
330
1F
100
AcDbEntity
  8
MOUNTAINLINE
 62
    29
100
AcDbSpline
210
0.0
220
0.0
230
1.0
 70
     8
 71
     3
 72
    11
 73
     7
 74
     0
 42
0.0000000001
 43
0.0000000001
 40
0.0
 40
0.0
 40
0.0
 40
0.0
 40
1.0
 40
1.0
 40
1.0
 40
2.0
 40
2.0
 40
2.0
 40
2.0
 10
78.44275714184765
 20
-172.5424397355102
 30
0.0
 10
82.69624428271136
 20
-176.7957546215997
 30
0.0
 10
88.57288816145054
 20
-179.426774043685
 30
0.0
 10
95.06327580088697
 20
-179.426774043685
 30
0.0
 10
108.0450846084054
 20
-179.426774043685
 30
0.0
 10
118.5691622967466
 20
-168.9033853744408
 30
0.0
 10
118.5691622967466
 20
-155.9212320573739
 30
0.0
  0
SPLINE
  5
81
330
1F
100
AcDbEntity
  8
MOUNTAINLINE
 62
    29
100
AcDbSpline
210
0.0
220
0.0
230
1.0
 70
     8
 71
     3
 72
     8
 73
     4
 74
     0
 42
0.0000000001
 43
0.0000000001
 40
0.0
 40
0.0
 40
0.0
 40
0.0
 40
1.0
 40
1.0
 40
1.0
 40
1.0
 10
71.55756155980158
 20
-155.9212320573739
 30
0.0
 10
71.55756155980158
 20
-159.10794538123
 30
0.0
 10
72.1921481481846
 20
-162.1468641087689
 30
0.0
 10
73.34108749251543
 20
-164.9180989171038
 30
0.0
  0
SPLINE
  5
82
330
1F
100
AcDbEntity
  8
MOUNTAINLINE
 62
    29
100
AcDbSpline
210
0.0
220
0.0
230
1.0
 70
     8
 71
     3
 72
    11
 73
     7
 74
     0
 42
0.0000000001
 43
0.0000000001
 40
0.0
 40
0.0
 40
0.0
 40
0.0
 40
1.0
 40
1.0
 40
1.0
 40
2.0
 40
2.0
 40
2.0
 40
2.0
 10
135.1900254653345
 20
-139.3008856531088
 30
0.0
 10
130.9363660696965
 20
-135.0468817479223
 30
0.0
 10
125.0600667005058
 20
-132.415862325837
 30
0.0
 10
118.5691622967466
 20
-132.415862325837
 30
0.0
 10
105.5873534892282
 20
-132.415862325837
 30
0.0
 10
95.06327580088697
 20
-142.9395955046297
 30
0.0
 10
95.06327580088697
 20
-155.9212320573739
 30
0.0
  0
SPLINE
  5
83
330
1F
100
AcDbEntity
  8
MOUNTAINLINE
 62
    29
100
AcDbSpline
210
0.0
220
0.0
230
1.0
 70
     8
 71
     3
 72
     8
 73
     4
 74
     0
 42
0.0000000001
 43
0.0000000001
 40
0.0
 40
0.0
 40
0.0
 40
0.0
 40
1.0
 40
1.0
 40
1.0
 40
1.0
 10
142.0743597735092
 20
-155.9212320573739
 30
0.0
 10
142.0743597735092
 20
-152.7345187335178
 30
0.0
 10
141.4404622042232
 20
-149.6962890250759
 30
0.0
 10
140.2911783503439
 20
-146.9248819619667
 30
0.0
  0
SPLINE
  5
84
330
1F
100
AcDbEntity
  8
MOUNTAINLINE
 62
    29
100
AcDbSpline
210
0.0
220
0.0
230
1.0
 70
     8
 71
     3
 72
    11
 73
     7
 74
     0
 42
0.0000000001
 43
0.0000000001
 40
0.0
 40
0.0
 40
0.0
 40
0.0
 40
1.0
 40
1.0
 40
1.0
 40
2.0
 40
2.0
 40
2.0
 40
2.0
 10
151.8112331434708
 20
-122.6798502297467
 30
0.0
 10
143.3042588617434
 20
-114.1723591836965
 30
0.0
 10
131.5513156138136
 20
-108.9103203395259
 30
0.0
 10
118.5691622967466
 20
-108.9103203395259
 30
0.0
 10
92.60554468170973
 20
-108.9103203395259
 30
0.0
 10
71.55807832412437
 20
-129.9579589518855
 30
0.0
 10
71.55807832412437
 20
-155.9212320573739
 30
0.0
  0
SPLINE
  5
85
330
1F
100
AcDbEntity
  8
MOUNTAINLINE
 62
    29
100
AcDbSpline
210
0.0
220
0.0
230
1.0
 70
     8
 71
     3
 72
     8
 73
     4
 74
     0
 42
0.0000000001
 43
0.0000000001
 40
0.0
 40
0.0
 40
0.0
 40
0.0
 40
1.0
 40
1.0
 40
1.0
 40
1.0
 10
165.5802462693688
 20
-155.9212320573739
 30
0.0
 10
165.5802462693688
 20
-149.5474609001132
 30
0.0
 10
164.3117621116998
 20
-143.4697956998097
 30
0.0
 10
162.0135389134897
 20
-137.9269815735912
 30
0.0
  0
SPLINE
  5
86
330
1F
100
AcDbEntity
  8
MOUNTAINLINE
 62
    29
100
AcDbSpline
210
0.0
220
0.0
230
1.0
 70
     8
 71
     3
 72
    11
 73
     7
 74
     0
 42
0.0000000001
 43
0.0000000001
 40
0.0
 40
0.0
 40
0.0
 40
0.0
 40
1.0
 40
1.0
 40
1.0
 40
2.0
 40
2.0
 40
2.0
 40
2.0
 10
61.82223848280833
 20
-189.1636474136466
 30
0.0
 10
70.3299017836328
 20
-197.670621695374
 30
0.0
 10
82.0825005220141
 20
-202.9326605395446
 30
0.0
 10
95.06327580088697
 20
-202.9326605395446
 30
0.0
 10
121.0272379254724
 20
-202.9326605395446
 30
0.0
 10
142.0747042830577
 20
-181.8845051628622
 30
0.0
 10
142.0747042830577
 20
-155.9212320573739
 30
0.0
  0
SPLINE
  5
87
330
1F
100
AcDbEntity
  8
MOUNTAINLINE
 62
    29
100
AcDbSpline
210
0.0
220
0.0
230
1.0
 70
     8
 71
     3
 72
     8
 73
     4
 74
     0
 42
0.0000000001
 43
0.0000000001
 40
0.0
 40
0.0
 40
0.0
 40
0.0
 40
1.0
 40
1.0
 40
1.0
 40
1.0
 10
48.05253633781326
 20
-155.9212320573739
 30
0.0
 10
48.05253633781326
 20
-162.2950032146346
 30
0.0
 10
49.32084824070798
 20
-168.3721516506153
 30
0.0
 10
51.61889918414389
 20
-173.9146212672852
 30
0.0
  0
SPLINE
  5
88
330
1F
100
AcDbEntity
  8
MOUNTAINLINE
 62
    29
100
AcDbSpline
210
0.0
220
0.0
230
1.0
 70
     8
 71
     3
 72
     8
 73
     4
 74
     0
 42
0.0000000001
 43
0.0000000001
 40
0.0
 40
0.0
 40
0.0
 40
0.0
 40
1.0
 40
1.0
 40
1.0
 40
1.0
 10
172.8748914498368
 20
-133.4294094175975
 30
0.0
 10
169.8962618932898
 20
-126.2460408213031
 30
0.0
 10
165.5340819898665
 20
-119.781491398006
 30
0.0
 10
160.1204589443449
 20
-114.3682128620329
 30
0.0
  0
SPLINE
  5
89
330
1F
100
AcDbEntity
  8
MOUNTAINLINE
 62
    29
100
AcDbSpline
210
0.0
220
0.0
230
1.0
 70
     8
 71
     3
 72
     8
 73
     4
 74
     0
 42
0.0000000001
 43
0.0000000001
 40
0.0
 40
0.0
 40
0.0
 40
0.0
 40
1.0
 40
1.0
 40
1.0
 40
1.0
 10
40.7585801764423
 20
-178.4152940092156
 30
0.0
 10
43.73669296866652
 20
-185.5976290768645
 30
0.0
 10
48.09801159821856
 20
-192.0602836976446
 30
0.0
 10
53.51025660554605
 20
-197.4728732145207
 30
0.0
  0
SPLINE
  5
8A
330
1F
100
AcDbEntity
  8
MOUNTAINLINE
 62
    29
100
AcDbSpline
210
0.0
220
0.0
230
1.0
 70
     8
 71
     3
 72
    11
 73
     7
 74
     0
 42
0.0000000001
 43
0.0000000001
 40
0.0
 40
0.0
 40
0.0
 40
0.0
 40
1.0
 40
1.0
 40
1.0
 40
2.0
 40
2.0
 40
2.0
 40
2.0
 10
168.4314072929616
 20
-106.0576090229648
 30
0.0
 10
155.6704291060477
 20
-93.29714760037363
 30
0.0
 10
138.0415309984757
 20
-85.40460609844052
 30
0.0
 10
118.5691622967466
 20
-85.40460609844052
 30
0.0
 10
79.62390812896555
 20
-85.40460609844052
 30
0.0
 10
48.05270859258752
 20
-116.9759778895928
 30
0.0
 10
48.05270859258752
 20
-155.9212320573739
 30
0.0
  0
SPLINE
  5
8B
330
1F
100
AcDbEntity
  8
MOUNTAINLINE
 62
    29
100
AcDbSpline
210
0.0
220
0.0
230
1.0
 70
     8
 71
     3
 72
     8
 73
     4
 74
     0
 42
0.0000000001
 43
0.0000000001
 40
0.0
 40
0.0
 40
0.0
 40
0.0
 40
1.0
 40
1.0
 40
1.0
 40
1.0
 10
189.0857882556799
 20
-155.9212320573739
 30
0.0
 10
189.0857882556799
 20
-146.3595417928372
 30
0.0
 10
187.1830620191765
 20
-137.2422688458978
 30
0.0
 10
183.7348659479899
 20
-128.9278754017958
 30
0.0
  0
SPLINE
  5
8C
330
1F
100
AcDbEntity
  8
MOUNTAINLINE
 62
    29
100
AcDbSpline
210
0.0
220
0.0
230
1.0
 70
     8
 71
     3
 72
    11
 73
     7
 74
     0
 42
0.0000000001
 43
0.0000000001
 40
0.0
 40
0.0
 40
0.0
 40
0.0
 40
1.0
 40
1.0
 40
1.0
 40
2.0
 40
2.0
 40
2.0
 40
2.0
 10
45.20016953080066
 20
-205.7838215631374
 30
0.0
 10
57.96131997248884
 20
-218.5454887691484
 30
0.0
 10
75.59039033483505
 20
-226.4385470354043
 30
0.0
 10
95.06327580088697
 20
-226.4385470354043
 30
0.0
 10
134.0090467329908
 20
-226.4385470354043
 30
0.0
 10
165.5802462693688
 20
-194.8670029894777
 30
0.0
 10
165.5802462693688
 20
-155.9212320573739
 30
0.0
  0
SPLINE
  5
8D
330
1F
100
AcDbEntity
  8
MOUNTAINLINE
 62
    29
100
AcDbSpline
210
0.0
220
0.0
230
1.0
 70
     8
 71
     3
 72
     8
 73
     4
 74
     0
 42
0.0000000001
 43
0.0000000001
 40
0.0
 40
0.0
 40
0.0
 40
0.0
 40
1.0
 40
1.0
 40
1.0
 40
1.0
 10
24.54699435150214
 20
-155.9212320573739
 30
0.0
 10
24.54699435150214
 20
-165.4820610480392
 30
0.0
 10
26.44954833323136
 20
-174.5981282115588
 30
0.0
 10
29.89653862099809
 20
-182.9114881270152
 30
0.0
  0
POLYLINE
  5
8E
330
1F
100
AcDbEntity
  8
MOUNTAINLINE
 62
    29
100
AcDb2dPolyline
 66
     1
 10
0.0
 20
0.0
 30
0.0
  0
VERTEX
  5
8F
330
8E
100
AcDbEntity
  8
MOUNTAINLINE
 62
    29
100
AcDbVertex
100
AcDb2dVertex
 10
95.06327580088697
 20
-155.9212320573739
 30
0.0
  0
VERTEX
  5
90
330
8E
100
AcDbEntity
  8
MOUNTAINLINE
 62
    29
100
AcDbVertex
100
AcDb2dVertex
 10
19.03966470878175
 20
-187.4114718498485
 30
0.0
  0
SEQEND
  5
91
330
8E
100
AcDbEntity
  8
MOUNTAINLINE
  0
POLYLINE
  5
92
330
1F
100
AcDbEntity
  8
MOUNTAINLINE
 62
    29
100
AcDb2dPolyline
 66
     1
 10
0.0
 20
0.0
 30
0.0
  0
VERTEX
  5
93
330
92
100
AcDbEntity
  8
MOUNTAINLINE
 62
    29
100
AcDbVertex
100
AcDb2dVertex
 10
118.5691622967466
 20
-155.9212320573739
 30
0.0
  0
VERTEX
  5
94
330
92
100
AcDbEntity
  8
MOUNTAINLINE
 62
    29
100
AcDbVertex
100
AcDb2dVertex
 10
194.5913953506577
 20
-124.4318535387705
 30
0.0
  0
SEQEND
  5
95
330
92
100
AcDbEntity
  8
MOUNTAINLINE
  0
SPLINE
  5
96
330
1F
100
AcDbEntity
  8
MOUNTAINLINE
 62
    29
100
AcDbSpline
210
0.0
220
0.0
230
1.0
 70
     8
 71
     3
 72
    11
 73
     7
 74
     0
 42
0.0000000001
 43
0.0000000001
 40
0.0
 40
0.0
 40
0.0
 40
0.0
 40
1.0
 40
1.0
 40
1.0
 40
2.0
 40
2.0
 40
2.0
 40
2.0
 10
189.0857882556799
 20
-155.9212320573739
 30
0.0
 10
189.0857882556799
 20
-207.8488117969961
 30
0.0
 10
146.9912000500578
 20
-249.9434000026183
 30
0.0
 10
95.06379256520975
 20
-249.9434000026183
 30
0.0
 10
69.1010362240442
 20
-249.9434000026183
 30
0.0
 10
45.59618325683012
 20
-239.4200113333742
 30
0.0
 10
28.58171792905249
 20
-222.4064072794679
 30
0.0
  0
SPLINE
  5
97
330
1F
100
AcDbEntity
  8
MOUNTAINLINE
 62
    29
100
AcDbSpline
210
0.0
220
0.0
230
1.0
 70
     8
 71
     3
 72
    11
 73
     7
 74
     0
 42
0.0000000001
 43
0.0000000001
 40
0.0
 40
0.0
 40
0.0
 40
0.0
 40
1.0
 40
1.0
 40
1.0
 40
2.0
 40
2.0
 40
2.0
 40
2.0
 10
24.54699435150214
 20
-155.9212320573739
 30
0.0
 10
24.54699435150214
 20
-103.9945135916229
 30
0.0
 10
66.64209932144712
 20
-61.89923636690366
 30
0.0
 10
118.5691622967466
 20
-61.89923636690366
 30
0.0
 10
144.532435402235
 20
-61.89923636690366
 30
0.0
 10
168.0379773885461
 20
-72.42262503614782
 30
0.0
 10
185.0522704615495
 20
-89.4369181091512
 30
0.0
  0
MTEXT
  5
99
330
1F
100
AcDbEntity
  8
TEXT
 62
     7
100
AcDbMText
 10
152.5092094887824
 20
-287.6096624715004
 30
0.0
 40
3.358444443604833
 41
0.0
 71
     7
 72
     1
  1
\fArial|b0|i0|c0|p34;\W1;(c) 2016 Jun Mitani
  0
MTEXT
  5
9A
330
1F
100
AcDbEntity
  8
TEXT
 62
     7
100
AcDbMText
 10
11.1872585692518
 20
-14.85542398717156
 30
0.0
 40
4.3179999989205
 41
0.0
 71
     7
 72
     1
  1
\fArial|b0|i0|c0|p34;\W1;Whirl
  0
ENDSEC
  0
SECTION
  2
OBJECTS
  0
DICTIONARY
  5
C
330
0
100
AcDbDictionary
  3
ACAD_GROUP
350
D
  3
ACAD_LAYOUT
350
1A
  3
ACAD_MLINESTYLE
350
17
  3
ACAD_PLOTSETTINGS
350
19
  3
ACAD_TABLESTYLE
350
9B
  3
ACAD_VISUALSTYLE
350
2A
1001
ACAD
1000
TREAT_AS_HARD
1070
     0
  0
DICTIONARY
  5
D
102
{ACAD_REACTORS
330
C
102
}
330
C
100
AcDbDictionary
1001
ACAD
1000
TREAT_AS_HARD
1070
     0
  0
DICTIONARY
  5
1A
102
{ACAD_REACTORS
330
C
102
}
330
C
100
AcDbDictionary
1001
ACAD
1000
TREAT_AS_HARD
1070
     0
  0
DICTIONARY
  5
17
102
{ACAD_REACTORS
330
C
102
}
330
C
100
AcDbDictionary
  3
STANDARD
350
18
1001
ACAD
1000
TREAT_AS_HARD
1070
     0
  0
DICTIONARY
  5
19
102
{ACAD_REACTORS
330
C
102
}
330
C
100
AcDbDictionary
1001
ACAD
1000
TREAT_AS_HARD
1070
     0
  0
DICTIONARY
  5
9B
102
{ACAD_REACTORS
330
C
102
}
330
C
100
AcDbDictionary
1001
ACAD
1000
TREAT_AS_HARD
1070
     0
  0
DICTIONARY
  5
2A
102
{ACAD_REACTORS
330
C
102
}
330
C
100
AcDbDictionary
  3
2DWIREFRAME
350
2F
  3
3D_HIDDEN
350
31
  3
3DWIREFRAME
350
30
  3
BASIC
350
32
  3
BRIGHTEN
350
36
  3
COLORCHANGE
350
3A
  3
CONCEPTUAL
350
34
  3
DIM
350
35
  3
FACEPATTERN
350
39
  3
FLAT
350
2B
  3
FLATWITHEDGES
350
2C
  3
GOURAUD
350
2D
  3
GOURAUDWITHEDGES
350
2E
  3
LINEPATTERN
350
38
  3
REALISTIC
350
33
  3
THICKEN
350
37
1001
ACAD
1000
TREAT_AS_HARD
1070
     0
  0
MLINESTYLE
  5
18
102
{ACAD_REACTORS
330
17
102
}
330
17
100
AcDbMlineStyle
  2
Standard
 70
     0
  3

 62
   256
 51
90.0
 52
90.0
 71
     2
 49
0.5
 62
   256
  6
BYLAYER
 49
-0.5
 62
   256
  6
BYLAYER
  0
VISUALSTYLE
  5
2F
102
{ACAD_REACTORS
330
2A
102
}
330
2A
100
AcDbVisualStyle
  2
2dWireframe
 70
     4
 71
     0
 72
     2
 73
     0
 90
        0
 40
-0.6
 41
-30.0
 62
     5
 63
     7
 74
     1
 91
        4
 64
     7
 65
   257
 75
     1
175
     1
 42
1.0
 92
        0
 66
   257
 43
1.0
 76
     1
 77
     6
 78
     2
 67
     7
 79
     5
170
     0
171
     0
290
     0
174
     0
 93
        1
 44
0.0
173
     0
291
     0
 45
0.0
1001
ACAD
1000
AcDbSavedByObjectVersion
1070
     0
  0
VISUALSTYLE
  5
31
102
{ACAD_REACTORS
330
2A
102
}
330
2A
100
AcDbVisualStyle
  2
3D Hidden
 70
     6
 71
     1
 72
     2
 73
     2
 90
        0
 40
-0.6
 41
-30.0
 62
     5
 63
     7
 74
     2
 91
        2
 64
     7
 65
   257
 75
     2
175
     1
 42
40.0
 92
        0
 66
   257
 43
1.0
 76
     1
 77
     6
 78
     2
 67
     7
 79
     3
170
     0
171
     0
290
     0
174
     0
 93
        1
 44
0.0
173
     0
291
     0
 45
0.0
1001
ACAD
1000
AcDbSavedByObjectVersion
1070
     0
  0
VISUALSTYLE
  5
30
102
{ACAD_REACTORS
330
2A
102
}
330
2A
100
AcDbVisualStyle
  2
3dWireframe
 70
     5
 71
     0
 72
     2
 73
     0
 90
        0
 40
-0.6
 41
-30.0
 62
     5
 63
     7
 74
     1
 91
        4
 64
     7
 65
   257
 75
     1
175
     1
 42
1.0
 92
        0
 66
   257
 43
1.0
 76
     1
 77
     6
 78
     2
 67
     7
 79
     5
170
     0
171
     0
290
     0
174
     0
 93
        1
 44
0.0
173
     0
291
     0
 45
0.0
1001
ACAD
1000
AcDbSavedByObjectVersion
1070
     0
  0
VISUALSTYLE
  5
32
102
{ACAD_REACTORS
330
2A
102
}
330
2A
100
AcDbVisualStyle
  2
Basic
 70
     7
 71
     1
 72
     0
 73
     1
 90
        0
 40
-0.6
 41
-30.0
 62
     5
 63
     7
 74
     0
 91
        4
 64
     7
 65
   257
 75
     1
175
     1
 42
1.0
 92
        8
 66
     7
 43
1.0
 76
     1
 77
     6
 78
     2
 67
     7
 79
     5
170
     0
171
     0
290
     0
174
     0
 93
        1
 44
0.0
173
     0
291
     1
 45
0.0
1001
ACAD
1000
AcDbSavedByObjectVersion
1070
     0
  0
VISUALSTYLE
  5
36
102
{ACAD_REACTORS
330
2A
102
}
330
2A
100
AcDbVisualStyle
  2
Brighten
 70
    12
 71
     2
 72
     2
 73
     0
 90
        0
 40
-0.6
 41
-30.0
 62
     5
 63
     7
 74
     1
 91
        4
 64
     7
 65
   257
 75
     1
175
     1
 42
1.0
 92
        8
 66
     7
 43
1.0
 76
     1
 77
     6
 78
     2
 67
     7
 79
     5
170
     0
171
     0
290
     0
174
     0
 93
        1
 44
50.0
173
     0
291
     1
 45
0.0
1001
ACAD
1000
AcDbSavedByObjectVersion
1070
     0
  0
VISUALSTYLE
  5
3A
102
{ACAD_REACTORS
330
2A
102
}
330
2A
100
AcDbVisualStyle
  2
ColorChange
 70
    16
 71
     2
 72
     2
 73
     3
 90
        0
 40
-0.6
 41
-30.0
 62
     5
 63
     8
 74
     1
 91
        4
 64
     7
 65
   257
 75
     1
175
     1
 42
1.0
 92
        8
 66
     8
 43
1.0
 76
     1
 77
     6
 78
     2
 67
     7
 79
     5
170
     0
171
     0
290
     0
174
     0
 93
        1
 44
0.0
173
     0
291
     1
 45
0.0
1001
ACAD
1000
AcDbSavedByObjectVersion
1070
     0
  0
VISUALSTYLE
  5
34
102
{ACAD_REACTORS
330
2A
102
}
330
2A
100
AcDbVisualStyle
  2
Conceptual
 70
     9
 71
     3
 72
     2
 73
     0
 90
        0
 40
-0.6
 41
-30.0
 62
     5
 63
     7
 74
     2
 91
        2
 64
     7
 65
   257
 75
     1
175
     1
 42
40.0
 92
        8
 66
     7
 43
1.0
 76
     1
 77
     6
 78
     2
 67
     7
 79
     3
170
     0
171
     0
290
     0
174
     0
 93
        1
 44
0.0
173
     0
291
     0
 45
0.0
1001
ACAD
1000
AcDbSavedByObjectVersion
1070
     0
  0
VISUALSTYLE
  5
35
102
{ACAD_REACTORS
330
2A
102
}
330
2A
100
AcDbVisualStyle
  2
Dim
 70
    11
 71
     2
 72
     2
 73
     0
 90
        0
 40
-0.6
 41
-30.0
 62
     5
 63
     7
 74
     1
 91
        4
 64
     7
 65
   257
 75
     1
175
     1
 42
1.0
 92
        8
 66
     7
 43
1.0
 76
     1
 77
     6
 78
     2
 67
     7
 79
     5
170
     0
171
     0
290
     0
174
     0
 93
        1
 44
-50.0
173
     0
291
     1
 45
0.0
1001
ACAD
1000
AcDbSavedByObjectVersion
1070
     0
  0
VISUALSTYLE
  5
39
102
{ACAD_REACTORS
330
2A
102
}
330
2A
100
AcDbVisualStyle
  2
Facepattern
 70
    15
 71
     2
 72
     2
 73
     0
 90
        0
 40
-0.6
 41
-30.0
 62
     5
 63
     7
 74
     1
 91
        4
 64
     7
 65
   257
 75
     1
175
     1
 42
1.0
 92
        8
 66
     7
 43
1.0
 76
     1
 77
     6
 78
     2
 67
     7
 79
     5
170
     0
171
     0
290
     0
174
     0
 93
        1
 44
0.0
173
     0
291
     1
 45
0.0
1001
ACAD
1000
AcDbSavedByObjectVersion
1070
     0
  0
VISUALSTYLE
  5
2B
102
{ACAD_REACTORS
330
2A
102
}
330
2A
100
AcDbVisualStyle
  2
Flat
 70
     0
 71
     2
 72
     1
 73
     1
 90
        2
 40
-0.6
 41
30.0
 62
     5
 63
     7
 74
     0
 91
        4
 64
     7
 65
   257
 75
     1
175
     1
 42
1.0
 92
        8
 66
     7
 43
1.0
 76
     1
 77
     6
 78
     2
 67
     7
 79
     5
170
     0
171
     0
290
     0
174
     0
 93
       13
 44
0.0
173
     0
291
     1
 45
0.0
1001
ACAD
1000
AcDbSavedByObjectVersion
1070
     0
  0
VISUALSTYLE
  5
2C
102
{ACAD_REACTORS
330
2A
102
}
330
2A
100
AcDbVisualStyle
  2
FlatWithEdges
 70
     1
 71
     2
 72
     1
 73
     1
 90
        2
 40
-0.6
 41
30.0
 62
     5
 63
     7
 74
     1
 91
        4
 64
     7
 65
   257
 75
     1
175
     1
 42
1.0
 92
        0
 66
   257
 43
1.0
 76
     1
 77
     6
 78
     2
 67
     7
 79
     5
170
     0
171
     0
290
     0
174
     0
 93
       13
 44
0.0
173
     0
291
     1
 45
0.0
1001
ACAD
1000
AcDbSavedByObjectVersion
1070
     0
  0
VISUALSTYLE
  5
2D
102
{ACAD_REACTORS
330
2A
102
}
330
2A
100
AcDbVisualStyle
  2
Gouraud
 70
     2
 71
     2
 72
     2
 73
     1
 90
        2
 40
-0.6
 41
30.0
 62
     5
 63
     7
 74
     0
 91
        4
 64
     7
 65
   257
 75
     1
175
     1
 42
1.0
 92
        0
 66
     7
 43
1.0
 76
     1
 77
     6
 78
     2
 67
     7
 79
     5
170
     0
171
     0
290
     0
174
     0
 93
       13
 44
0.0
173
     0
291
     1
 45
0.0
1001
ACAD
1000
AcDbSavedByObjectVersion
1070
     0
  0
VISUALSTYLE
  5
2E
102
{ACAD_REACTORS
330
2A
102
}
330
2A
100
AcDbVisualStyle
  2
GouraudWithEdges
 70
     3
 71
     2
 72
     2
 73
     1
 90
        2
 40
-0.6
 41
30.0
 62
     5
 63
     7
 74
     1
 91
        4
 64
     7
 65
   257
 75
     1
175
     1
 42
1.0
 92
        0
 66
   257
 43
1.0
 76
     1
 77
     6
 78
     2
 67
     7
 79
     5
170
     0
171
     0
290
     0
174
     0
 93
       13
 44
0.0
173
     0
291
     1
 45
0.0
1001
ACAD
1000
AcDbSavedByObjectVersion
1070
     0
  0
VISUALSTYLE
  5
38
102
{ACAD_REACTORS
330
2A
102
}
330
2A
100
AcDbVisualStyle
  2
Linepattern
 70
    14
 71
     2
 72
     2
 73
     0
 90
        0
 40
-0.6
 41
-30.0
 62
     5
 63
     7
 74
     1
 91
        4
 64
     7
 65
   257
 75
     7
175
     7
 42
1.0
 92
        8
 66
     7
 43
1.0
 76
     1
 77
     6
 78
     2
 67
     7
 79
     5
170
     0
171
     0
290
     0
174
     0
 93
        1
 44
0.0
173
     0
291
     1
 45
0.0
1001
ACAD
1000
AcDbSavedByObjectVersion
1070
     0
  0
VISUALSTYLE
  5
33
102
{ACAD_REACTORS
330
2A
102
}
330
2A
100
AcDbVisualStyle
  2
Realistic
 70
     8
 71
     2
 72
     2
 73
     0
 90
        0
 40
-0.6
 41
-30.0
 62
     5
 63
     7
 74
     1
 91
        0
 64
     7
 65
   257
 75
     1
175
     1
 42
1.0
 92
        8
 66
     8
 43
1.0
 76
     1
 77
     6
 78
     2
 67
     7
 79
     5
170
     0
171
     0
290
     0
174
     0
 93
       13
 44
0.0
173
     0
291
     0
 45
0.0
1001
ACAD
1000
AcDbSavedByObjectVersion
1070
     0
  0
VISUALSTYLE
  5
37
102
{ACAD_REACTORS
330
2A
102
}
330
2A
100
AcDbVisualStyle
  2
Thicken
 70
    13
 71
     2
 72
     2
 73
     0
 90
        0
 40
-0.6
 41
-30.0
 62
     5
 63
     7
 74
     1
 91
        4
 64
     7
 65
   257
 75
     1
175
     1
 42
1.0
 92
       12
 66
     7
 43
1.0
 76
     1
 77
     6
 78
     2
 67
     7
 79
     5
170
     0
171
     0
290
     0
174
     0
 93
        1
 44
0.0
173
     0
291
     1
 45
0.0
1001
ACAD
1000
AcDbSavedByObjectVersion
1070
     0
  0
ENDSEC
  0
EOF
