<?xml version="1.0" encoding="utf-8"?>
<!-- Generator: Adobe Illustrator 16.0.3, SVG Export Plug-In . SVG Version: 6.00 Build 0)  -->
<!DOCTYPE svg PUBLIC "-//W3C//DTD SVG 1.1//EN" "http://www.w3.org/Graphics/SVG/1.1/DTD/svg11.dtd">
<svg version="1.1" xmlns="http://www.w3.org/2000/svg" xmlns:xlink="http://www.w3.org/1999/xlink" x="0px" y="0px"
	 width="595.28px" height="841.89px" viewBox="0 0 595.28 841.89" enable-background="new 0 0 595.28 841.89" xml:space="preserve">
<g id="CutLine">
	
		<line fill="none" stroke="#000000" stroke-width="2" stroke-linecap="round" stroke-linejoin="round" stroke-miterlimit="500" x1="369.098" y1="800.395" x2="369.098" y2="438.695"/>
	
		<line fill="none" stroke="#000000" stroke-width="2" stroke-linecap="round" stroke-linejoin="round" stroke-miterlimit="500" x1="223.747" y1="800.395" x2="223.747" y2="438.695"/>
	
		<line fill="none" stroke="#000000" stroke-width="2" stroke-linecap="round" stroke-linejoin="round" stroke-miterlimit="500" x1="369.098" y1="438.695" x2="369.098" y2="76.996"/>
	
		<line fill="none" stroke="#000000" stroke-width="2" stroke-linecap="round" stroke-linejoin="round" stroke-miterlimit="500" x1="223.747" y1="438.695" x2="223.747" y2="76.996"/>
	
		<line fill="none" stroke="#000000" stroke-width="2" stroke-linecap="round" stroke-linejoin="round" stroke-miterlimit="500" x1="369.098" y1="76.996" x2="223.747" y2="76.996"/>
	
		<line fill="none" stroke="#000000" stroke-width="2" stroke-linecap="round" stroke-linejoin="round" stroke-miterlimit="500" x1="369.098" y1="800.395" x2="223.747" y2="800.395"/>
</g>
<g id="ValleyLine">
	
		<polyline fill="none" stroke="#000000" stroke-linecap="round" stroke-linejoin="round" stroke-miterlimit="500" stroke-dasharray="4" points="
		223.747,684.851 236.375,687.361 241.331,688.345 246.29,689.312 251.255,690.245 256.229,691.13 261.216,691.95 266.213,692.69 
		271.224,693.338 276.247,693.889 281.279,694.323 286.322,694.64 291.371,694.832 296.423,694.896 301.476,694.832 306.523,694.64 
		311.566,694.323 316.601,693.889 321.621,693.338 326.633,692.69 331.63,691.95 336.615,691.13 341.59,690.245 346.556,689.312 
		351.515,688.345 356.471,687.361 369.098,684.851 	"/>
	
		<polyline fill="none" stroke="#000000" stroke-linecap="round" stroke-linejoin="round" stroke-miterlimit="500" stroke-dasharray="4" points="
		369.098,730.062 356.471,732.574 351.515,733.558 346.556,734.522 341.59,735.458 336.615,736.341 331.63,737.161 326.633,737.901 
		321.621,738.552 316.601,739.1 311.566,739.536 306.523,739.853 301.476,740.045 296.423,740.108 291.371,740.045 286.322,739.853 
		281.279,739.536 276.247,739.1 271.224,738.552 266.213,737.901 261.216,737.161 256.229,736.341 251.255,735.458 246.29,734.522 
		241.331,733.558 236.375,732.574 223.747,730.062 	"/>
	
		<polyline fill="none" stroke="#000000" stroke-linecap="round" stroke-linejoin="round" stroke-miterlimit="500" stroke-dasharray="4" points="
		223.747,775.274 236.375,777.787 241.331,778.771 246.29,779.735 251.255,780.672 256.229,781.554 261.216,782.374 
		266.213,783.114 271.224,783.765 276.247,784.311 281.279,784.75 286.322,785.065 291.371,785.256 296.423,785.321 
		301.476,785.256 306.523,785.065 311.566,784.75 316.601,784.311 321.621,783.765 326.633,783.114 331.63,782.374 336.615,781.554 
		341.59,780.672 346.556,779.735 351.515,778.771 356.471,777.787 369.098,775.274 	"/>
	
		<polyline fill="none" stroke="#000000" stroke-linecap="round" stroke-linejoin="round" stroke-miterlimit="500" stroke-dasharray="4" points="
		369.098,639.638 356.471,642.15 351.515,643.134 346.556,644.099 341.59,645.032 336.615,645.917 331.63,646.737 326.633,647.478 
		321.621,648.127 316.601,648.674 311.566,649.112 306.523,649.427 301.476,649.619 296.423,649.685 291.371,649.619 
		286.322,649.427 281.279,649.112 276.247,648.674 271.224,648.127 266.213,647.478 261.216,646.737 256.229,645.917 
		251.255,645.032 246.29,644.099 241.331,643.134 236.375,642.15 223.747,639.638 	"/>
	
		<polyline fill="none" stroke="#000000" stroke-linecap="round" stroke-linejoin="round" stroke-miterlimit="500" stroke-dasharray="4" points="
		223.747,594.425 236.375,596.938 241.331,597.921 246.29,598.886 251.255,599.819 256.229,600.703 261.216,601.524 
		266.213,602.265 271.224,602.914 276.247,603.463 281.279,603.899 286.322,604.216 291.371,604.408 296.423,604.472 
		301.476,604.408 306.523,604.216 311.566,603.899 316.601,603.463 321.621,602.914 326.633,602.265 331.63,601.524 
		336.615,600.703 341.59,599.819 346.556,598.886 351.515,597.921 356.471,596.938 369.098,594.425 	"/>
	
		<polyline fill="none" stroke="#000000" stroke-linecap="round" stroke-linejoin="round" stroke-miterlimit="500" stroke-dasharray="4" points="
		369.098,549.214 356.471,551.725 351.515,552.708 346.556,553.675 341.59,554.608 336.615,555.492 331.63,556.313 326.633,557.054 
		321.621,557.703 316.601,558.25 311.566,558.687 306.523,559.003 301.476,559.197 296.423,559.259 291.371,559.197 
		286.322,559.003 281.279,558.687 276.247,558.25 271.224,557.703 266.213,557.054 261.216,556.313 256.229,555.492 
		251.255,554.608 246.29,553.675 241.331,552.708 236.375,551.725 223.747,549.214 	"/>
	
		<polyline fill="none" stroke="#000000" stroke-linecap="round" stroke-linejoin="round" stroke-miterlimit="500" stroke-dasharray="4" points="
		223.747,504.001 236.375,506.512 241.331,507.497 246.29,508.462 251.255,509.396 256.229,510.279 261.216,511.101 
		266.213,511.841 271.224,512.492 276.247,513.037 281.279,513.474 286.322,513.79 291.371,513.982 296.423,514.046 
		301.476,513.982 306.523,513.79 311.566,513.474 316.601,513.037 321.621,512.492 326.633,511.841 331.63,511.101 336.615,510.279 
		341.59,509.396 346.556,508.462 351.515,507.497 356.471,506.512 369.098,504.001 	"/>
	
		<polyline fill="none" stroke="#000000" stroke-linecap="round" stroke-linejoin="round" stroke-miterlimit="500" stroke-dasharray="4" points="
		223.747,458.788 236.375,461.299 241.331,462.284 246.29,463.251 251.255,464.185 256.229,465.066 261.216,465.888 
		266.213,466.628 271.224,467.279 276.247,467.826 281.279,468.261 286.322,468.581 291.371,468.77 296.423,468.835 301.476,468.77 
		306.523,468.581 311.566,468.261 316.601,467.826 321.621,467.279 326.633,466.628 331.63,465.888 336.615,465.066 341.59,464.185 
		346.556,463.251 351.515,462.284 356.471,461.299 369.098,458.788 	"/>
	
		<polyline fill="none" stroke="#000000" stroke-linecap="round" stroke-linejoin="round" stroke-miterlimit="500" stroke-dasharray="4" points="
		369.098,413.576 356.471,416.088 351.514,417.071 346.556,418.038 341.59,418.972 336.615,419.855 331.63,420.675 326.633,421.416 
		321.621,422.066 316.601,422.612 311.566,423.05 306.523,423.365 301.476,423.557 296.423,423.623 291.371,423.557 
		286.322,423.365 281.28,423.05 276.247,422.612 271.224,422.066 266.213,421.416 261.216,420.675 256.229,419.855 251.255,418.972 
		246.29,418.038 241.331,417.071 236.375,416.088 223.747,413.576 	"/>
	
		<polyline fill="none" stroke="#000000" stroke-linecap="round" stroke-linejoin="round" stroke-miterlimit="500" stroke-dasharray="4" points="
		223.747,368.363 236.375,370.875 241.331,371.858 246.29,372.825 251.255,373.76 256.229,374.643 261.216,375.463 266.213,376.204 
		271.224,376.853 276.247,377.4 281.28,377.838 286.322,378.153 291.371,378.346 296.423,378.411 301.476,378.346 306.523,378.153 
		311.566,377.838 316.601,377.4 321.621,376.853 326.633,376.204 331.63,375.463 336.615,374.643 341.59,373.76 346.556,372.825 
		351.514,371.858 356.471,370.875 369.098,368.363 	"/>
	
		<polyline fill="none" stroke="#000000" stroke-linecap="round" stroke-linejoin="round" stroke-miterlimit="500" stroke-dasharray="4" points="
		369.098,323.151 356.471,325.664 351.514,326.647 346.556,327.613 341.59,328.546 336.615,329.431 331.63,330.25 326.633,330.991 
		321.621,331.64 316.601,332.189 311.566,332.625 306.523,332.942 301.476,333.134 296.423,333.198 291.371,333.134 
		286.322,332.942 281.28,332.625 276.247,332.189 271.224,331.64 266.213,330.991 261.216,330.25 256.229,329.431 251.255,328.546 
		246.29,327.613 241.331,326.647 236.375,325.664 223.747,323.151 	"/>
	
		<polyline fill="none" stroke="#000000" stroke-linecap="round" stroke-linejoin="round" stroke-miterlimit="500" stroke-dasharray="4" points="
		369.098,277.938 356.471,280.452 351.514,281.434 346.556,282.401 341.59,283.334 336.615,284.218 331.63,285.039 326.633,285.778 
		321.621,286.43 316.601,286.976 311.566,287.413 306.523,287.728 301.476,287.922 296.423,287.986 291.371,287.922 
		286.322,287.728 281.28,287.413 276.247,286.976 271.224,286.43 266.213,285.778 261.216,285.039 256.229,284.218 251.255,283.334 
		246.29,282.401 241.331,281.434 236.375,280.452 223.747,277.938 	"/>
	
		<polyline fill="none" stroke="#000000" stroke-linecap="round" stroke-linejoin="round" stroke-miterlimit="500" stroke-dasharray="4" points="
		223.747,232.726 236.375,235.239 241.331,236.223 246.29,237.188 251.255,238.122 256.229,239.005 261.216,239.826 
		266.213,240.567 271.224,241.217 276.247,241.764 281.28,242.2 286.322,242.517 291.371,242.709 296.423,242.773 301.476,242.709 
		306.523,242.517 311.566,242.2 316.601,241.764 321.621,241.217 326.633,240.567 331.63,239.826 336.615,239.005 341.59,238.122 
		346.556,237.188 351.514,236.223 356.471,235.239 369.098,232.726 	"/>
	
		<polyline fill="none" stroke="#000000" stroke-linecap="round" stroke-linejoin="round" stroke-miterlimit="500" stroke-dasharray="4" points="
		369.098,187.515 356.471,190.025 351.514,191.01 346.556,191.976 341.59,192.91 336.615,193.794 331.63,194.614 326.633,195.355 
		321.621,196.005 316.601,196.551 311.566,196.988 306.523,197.304 301.476,197.499 296.423,197.561 291.371,197.499 
		286.322,197.304 281.28,196.988 276.247,196.551 271.224,196.005 266.213,195.355 261.216,194.614 256.229,193.794 251.255,192.91 
		246.29,191.976 241.331,191.01 236.375,190.025 223.747,187.515 	"/>
	
		<polyline fill="none" stroke="#000000" stroke-linecap="round" stroke-linejoin="round" stroke-miterlimit="500" stroke-dasharray="4" points="
		223.747,142.302 236.375,144.813 241.331,145.797 246.29,146.764 251.255,147.698 256.229,148.582 261.216,149.401 
		266.213,150.142 271.224,150.793 276.247,151.339 281.28,151.776 286.322,152.092 291.371,152.285 296.423,152.349 
		301.476,152.285 306.523,152.092 311.566,151.776 316.601,151.339 321.621,150.793 326.633,150.142 331.63,149.401 
		336.615,148.582 341.59,147.698 346.556,146.764 351.514,145.797 356.471,144.813 369.098,142.302 	"/>
	
		<polyline fill="none" stroke="#000000" stroke-linecap="round" stroke-linejoin="round" stroke-miterlimit="500" stroke-dasharray="4" points="
		369.098,97.089 356.471,99.601 351.514,100.585 346.556,101.552 341.59,102.485 336.615,103.368 331.63,104.189 326.633,104.93 
		321.621,105.58 316.601,106.127 311.566,106.563 306.523,106.881 301.476,107.072 296.423,107.137 291.371,107.072 
		286.322,106.881 281.28,106.563 276.247,106.127 271.224,105.58 266.213,104.93 261.216,104.189 256.229,103.368 251.255,102.485 
		246.29,101.552 241.331,100.585 236.375,99.601 223.747,97.089 	"/>
</g>
<g id="MountainLine">
	
		<line fill="none" stroke="#000000" stroke-linecap="round" stroke-linejoin="round" stroke-miterlimit="500" x1="369.098" y1="755.18" x2="223.747" y2="755.18"/>
	
		<line fill="none" stroke="#000000" stroke-linecap="round" stroke-linejoin="round" stroke-miterlimit="500" x1="369.098" y1="709.969" x2="223.747" y2="709.969"/>
	
		<line fill="none" stroke="#000000" stroke-linecap="round" stroke-linejoin="round" stroke-miterlimit="500" x1="369.098" y1="664.756" x2="223.747" y2="664.756"/>
	
		<line fill="none" stroke="#000000" stroke-linecap="round" stroke-linejoin="round" stroke-miterlimit="500" x1="369.098" y1="619.543" x2="223.747" y2="619.543"/>
	
		<line fill="none" stroke="#000000" stroke-linecap="round" stroke-linejoin="round" stroke-miterlimit="500" x1="369.098" y1="574.332" x2="223.747" y2="574.332"/>
	
		<line fill="none" stroke="#000000" stroke-linecap="round" stroke-linejoin="round" stroke-miterlimit="500" x1="369.098" y1="529.119" x2="223.747" y2="529.119"/>
	
		<line fill="none" stroke="#000000" stroke-linecap="round" stroke-linejoin="round" stroke-miterlimit="500" x1="369.098" y1="483.906" x2="223.747" y2="483.906"/>
	
		<line fill="none" stroke="#000000" stroke-linecap="round" stroke-linejoin="round" stroke-miterlimit="500" x1="369.098" y1="393.481" x2="223.747" y2="393.481"/>
	
		<line fill="none" stroke="#000000" stroke-linecap="round" stroke-linejoin="round" stroke-miterlimit="500" x1="369.098" y1="348.27" x2="223.747" y2="348.27"/>
	
		<line fill="none" stroke="#000000" stroke-linecap="round" stroke-linejoin="round" stroke-miterlimit="500" x1="369.098" y1="303.057" x2="223.747" y2="303.057"/>
	
		<line fill="none" stroke="#000000" stroke-linecap="round" stroke-linejoin="round" stroke-miterlimit="500" x1="369.098" y1="257.844" x2="223.747" y2="257.844"/>
	
		<line fill="none" stroke="#000000" stroke-linecap="round" stroke-linejoin="round" stroke-miterlimit="500" x1="369.098" y1="212.633" x2="223.747" y2="212.633"/>
	
		<line fill="none" stroke="#000000" stroke-linecap="round" stroke-linejoin="round" stroke-miterlimit="500" x1="369.098" y1="167.421" x2="223.747" y2="167.421"/>
	
		<line fill="none" stroke="#000000" stroke-linecap="round" stroke-linejoin="round" stroke-miterlimit="500" x1="369.098" y1="122.208" x2="223.747" y2="122.208"/>
	
		<line fill="none" stroke="#000000" stroke-linecap="round" stroke-linejoin="round" stroke-miterlimit="500" x1="369.098" y1="438.695" x2="223.747" y2="438.695"/>
</g>
<g id="Text">
	<text transform="matrix(1 0 0 1 432.3096 815.2715)" font-family="'ArialMT'" font-size="14">(c) 2016 Jun Mitani</text>
	<text transform="matrix(1 0 0 1 30.7119 42.1099)" font-family="'ArialMT'" font-size="18">16-Flap Sphere Origami</text>
</g>
</svg>
