<?xml version="1.0" encoding="utf-8"?>
<!-- Generator: Adobe Illustrator 16.0.3, SVG Export Plug-In . SVG Version: 6.00 Build 0)  -->
<!DOCTYPE svg PUBLIC "-//W3C//DTD SVG 1.1//EN" "http://www.w3.org/Graphics/SVG/1.1/DTD/svg11.dtd">
<svg version="1.1" xmlns="http://www.w3.org/2000/svg" xmlns:xlink="http://www.w3.org/1999/xlink" x="0px" y="0px"
	 width="595.28px" height="841.89px" viewBox="0 0 595.28 841.89" enable-background="new 0 0 595.28 841.89" xml:space="preserve">
<g id="ValleyLine">
	
		<polyline fill="none" stroke="#000000" stroke-linecap="round" stroke-linejoin="round" stroke-miterlimit="500" stroke-dasharray="4" points="
		257.831,179.366 299.155,279.141 301.424,284.641 303.646,290.228 305.776,295.985 307.774,301.972 309.597,308.24 
		311.213,314.813 312.587,321.703 313.697,328.898 314.524,336.372 315.056,344.083 315.286,351.978 315.217,359.993 
		314.855,368.052 314.216,376.078 313.32,383.981 312.194,391.679 310.867,399.084 309.377,406.113 307.759,412.693 
		306.052,418.767 304.299,424.29 302.539,429.261 300.812,433.714 	"/>
	
		<polyline fill="none" stroke="#000000" stroke-linecap="round" stroke-linejoin="round" stroke-miterlimit="500" stroke-dasharray="4" points="
		87.233,284.265 187.005,325.596 192.497,327.879 198.02,330.261 203.598,332.823 209.241,335.647 214.963,338.789 220.754,342.296 
		226.6,346.194 232.472,350.498 238.342,355.196 244.169,360.273 249.915,365.694 255.532,371.41 260.976,377.365 266.198,383.491 
		271.154,389.715 275.801,395.954 280.099,402.126 284.014,408.151 287.523,413.949 290.61,419.45 293.277,424.596 295.547,429.354 
		297.475,433.725 	"/>
	
		<polyline fill="none" stroke="#000000" stroke-linecap="round" stroke-linejoin="round" stroke-miterlimit="500" stroke-dasharray="4" points="
		40.776,479.07 140.551,437.746 146.049,435.479 151.639,433.257 157.393,431.127 163.382,429.129 169.649,427.306 176.225,425.69 
		183.114,424.315 190.307,423.205 197.782,422.379 205.492,421.847 213.388,421.616 221.401,421.687 229.462,422.048 
		237.486,422.688 245.391,423.583 253.089,424.708 260.494,426.034 267.522,427.527 274.102,429.145 280.175,430.852 285.7,432.604 
		290.67,434.365 295.124,436.091 	"/>
	
		<polyline fill="none" stroke="#000000" stroke-linecap="round" stroke-linejoin="round" stroke-miterlimit="500" stroke-dasharray="4" points="
		145.673,649.671 187.005,549.897 189.292,544.406 191.67,538.883 194.233,533.307 197.055,527.659 200.198,521.938 
		203.705,516.148 207.604,510.305 211.906,504.432 216.607,498.563 221.683,492.733 227.103,486.989 232.82,481.371 
		238.773,475.929 244.899,470.705 251.124,465.749 257.363,461.103 263.536,456.804 269.561,452.888 275.356,449.38 
		280.857,446.292 286.005,443.626 290.765,441.355 295.134,439.428 	"/>
	
		<polyline fill="none" stroke="#000000" stroke-linecap="round" stroke-linejoin="round" stroke-miterlimit="500" stroke-dasharray="4" points="
		340.48,696.127 299.157,596.353 296.888,590.854 294.667,585.265 292.537,579.51 290.538,573.521 288.714,567.255 287.101,560.681 
		285.726,553.789 284.615,546.595 283.788,539.121 283.254,531.41 283.026,523.515 283.096,515.501 283.458,507.441 
		284.096,499.416 284.993,491.512 286.119,483.813 287.445,476.409 288.936,469.382 290.555,462.799 292.261,456.728 
		294.014,451.203 295.774,446.232 297.501,441.78 	"/>
	
		<polyline fill="none" stroke="#000000" stroke-linecap="round" stroke-linejoin="round" stroke-miterlimit="500" stroke-dasharray="4" points="
		511.078,591.229 411.307,549.899 411.309,549.898 405.815,547.612 400.292,545.233 394.716,542.669 389.07,539.847 
		383.349,536.705 377.558,533.198 371.714,529.3 365.841,524.997 359.972,520.297 354.143,515.219 348.398,509.801 342.782,504.084 
		337.337,498.129 332.114,492.002 327.157,485.78 322.511,479.539 318.213,473.365 314.299,467.342 310.789,461.545 
		307.702,456.044 305.035,450.897 302.764,446.14 300.836,441.77 	"/>
	
		<polyline fill="none" stroke="#000000" stroke-linecap="round" stroke-linejoin="round" stroke-miterlimit="500" stroke-dasharray="4" points="
		557.535,396.424 457.761,437.748 457.763,437.747 452.264,440.014 446.674,442.236 440.92,444.367 434.93,446.363 428.663,448.188 
		422.089,449.802 415.197,451.178 408.006,452.288 400.53,453.115 392.819,453.646 384.924,453.877 376.91,453.808 368.851,453.444 
		360.827,452.808 352.92,451.91 345.225,450.785 337.818,449.458 330.79,447.968 324.209,446.349 318.138,444.643 312.612,442.889 
		307.642,441.129 303.188,439.402 	"/>
	
		<polyline fill="none" stroke="#000000" stroke-linecap="round" stroke-linejoin="round" stroke-miterlimit="500" stroke-dasharray="4" points="
		452.639,225.823 411.309,325.596 409.021,331.087 406.642,336.611 404.079,342.186 401.256,347.833 398.114,353.554 
		394.609,359.346 390.708,365.19 386.405,371.062 381.705,376.931 376.629,382.759 371.211,388.506 365.494,394.123 359.54,399.564 
		353.412,404.79 347.188,409.745 340.95,414.391 334.776,418.689 328.753,422.605 322.955,426.112 317.456,429.2 312.307,431.868 
		307.549,434.138 303.178,436.066 	"/>
</g>
<g id="CutLine">
	
		<line fill="none" stroke="#000000" stroke-width="2" stroke-linecap="round" stroke-linejoin="round" stroke-miterlimit="500" x1="557.539" y1="544.773" x2="557.539" y2="330.722"/>
	
		<line fill="none" stroke="#000000" stroke-width="2" stroke-linecap="round" stroke-linejoin="round" stroke-miterlimit="500" x1="406.183" y1="696.13" x2="557.539" y2="544.773"/>
	
		<line fill="none" stroke="#000000" stroke-width="2" stroke-linecap="round" stroke-linejoin="round" stroke-miterlimit="500" x1="192.131" y1="696.131" x2="406.183" y2="696.13"/>
	
		<line fill="none" stroke="#000000" stroke-width="2" stroke-linecap="round" stroke-linejoin="round" stroke-miterlimit="500" x1="40.774" y1="544.771" x2="192.131" y2="696.131"/>
	
		<line fill="none" stroke="#000000" stroke-width="2" stroke-linecap="round" stroke-linejoin="round" stroke-miterlimit="500" x1="40.773" y1="330.72" x2="40.774" y2="544.771"/>
	
		<line fill="none" stroke="#000000" stroke-width="2" stroke-linecap="round" stroke-linejoin="round" stroke-miterlimit="500" x1="192.131" y1="179.364" x2="40.773" y2="330.72"/>
	
		<line fill="none" stroke="#000000" stroke-width="2" stroke-linecap="round" stroke-linejoin="round" stroke-miterlimit="500" x1="406.183" y1="179.364" x2="192.131" y2="179.364"/>
	
		<line fill="none" stroke="#000000" stroke-width="2" stroke-linecap="round" stroke-linejoin="round" stroke-miterlimit="500" x1="557.539" y1="330.722" x2="406.183" y2="179.364"/>
</g>
<g id="MountainLine">
	
		<line fill="none" stroke="#000000" stroke-linecap="round" stroke-linejoin="round" stroke-miterlimit="500" x1="192.131" y1="179.364" x2="406.183" y2="696.13"/>
	
		<line fill="none" stroke="#000000" stroke-linecap="round" stroke-linejoin="round" stroke-miterlimit="500" x1="192.131" y1="696.131" x2="406.183" y2="179.364"/>
	
		<line fill="none" stroke="#000000" stroke-linecap="round" stroke-linejoin="round" stroke-miterlimit="500" x1="557.539" y1="330.722" x2="40.774" y2="544.771"/>
	
		<line fill="none" stroke="#000000" stroke-linecap="round" stroke-linejoin="round" stroke-miterlimit="500" x1="557.539" y1="544.773" x2="40.773" y2="330.72"/>
</g>
<g id="text">
	<g id="レイヤー_4">
		<text transform="matrix(1 0 0 1 432.3096 815.2715)" font-family="'ArialMT'" font-size="14">(c) 2016 Jun Mitani</text>
		<text transform="matrix(1 0 0 1 30.7119 42.1099)" font-family="'ArialMT'" font-size="18">Egg Wrapping</text>
	</g>
</g>
</svg>
