<?xml version="1.0" encoding="utf-8"?>
<!-- Generator: Adobe Illustrator 16.0.3, SVG Export Plug-In . SVG Version: 6.00 Build 0)  -->
<!DOCTYPE svg PUBLIC "-//W3C//DTD SVG 1.1//EN" "http://www.w3.org/Graphics/SVG/1.1/DTD/svg11.dtd">
<svg version="1.1" xmlns="http://www.w3.org/2000/svg" xmlns:xlink="http://www.w3.org/1999/xlink" x="0px" y="0px"
	 width="595.28px" height="841.89px" viewBox="0 0 595.28 841.89" enable-background="new 0 0 595.28 841.89" xml:space="preserve">
<g id="CutLine">
	<g id="LINE_20_">
		
			<line fill="none" stroke="#000000" stroke-width="2" stroke-linecap="round" stroke-linejoin="round" x1="143.056" y1="790" x2="435.63" y2="790"/>
		<path fill="none" stroke="#000000" stroke-width="2" stroke-linecap="round" stroke-linejoin="round" d="M143.056,440.523"/>
	</g>
	<g id="LINE_18_">
		<path fill="none" stroke="#000000" stroke-width="2" stroke-linecap="round" stroke-linejoin="round" d="M435.63,790"/>
		<path fill="none" stroke="#000000" stroke-width="2" stroke-linecap="round" stroke-linejoin="round" d="M435.63,440.523"/>
	</g>
	<g id="LINE_9_">
		
			<line fill="none" stroke="#000000" stroke-width="2" stroke-linecap="round" stroke-linejoin="round" x1="143.056" y1="91.049" x2="435.63" y2="91.049"/>
	</g>
	<g id="LINE_8_">
		<path fill="none" stroke="#000000" stroke-width="2" stroke-linecap="round" stroke-linejoin="round" d="M435.63,440.523"/>
		
			<line fill="none" stroke="#000000" stroke-width="2" stroke-linecap="round" stroke-linejoin="round" x1="143.056" y1="91.049" x2="143.056" y2="790"/>
	</g>
	<g id="LINE_7_">
		
			<line fill="none" stroke="#000000" stroke-width="2" stroke-linecap="round" stroke-linejoin="round" x1="435.63" y1="91.049" x2="435.63" y2="790"/>
	</g>
</g>
<g id="ValleyLine">
	<polyline fill="none" stroke="#000000" stroke-linecap="round" stroke-linejoin="round" stroke-dasharray="4" points="
		435.63,765.339 418.349,760.709 400.571,755.98 381.091,751.056 361.308,746.649 341.598,743.469 322.908,741.685 306.721,741.461 
		291.213,742.479 275.395,744.418 260.561,746.58 248.585,748.268 237.313,749.704 224.541,751.112 211.177,752.299 
		198.035,753.065 185.689,754.168 173.493,756.357 161.917,759.02 152.228,761.545 143.056,764.001 	"/>
	<polyline fill="none" stroke="#000000" stroke-linecap="round" stroke-linejoin="round" stroke-dasharray="4" points="
		435.63,707.094 418.349,702.463 400.571,697.735 381.091,692.811 361.308,688.404 341.598,685.225 322.908,683.438 
		306.721,683.215 291.213,684.234 275.395,686.172 260.561,688.334 248.585,690.021 237.313,691.459 224.541,692.867 
		211.177,694.053 198.035,694.818 185.689,695.921 173.493,698.11 161.917,700.775 152.228,703.3 143.056,705.754 	"/>
	<polyline fill="none" stroke="#000000" stroke-linecap="round" stroke-linejoin="round" stroke-dasharray="4" points="
		435.63,648.848 418.349,644.217 400.571,639.489 381.091,634.565 361.308,630.158 341.598,626.978 322.908,625.192 306.721,624.97 
		291.213,625.986 275.395,627.926 260.561,630.089 248.585,631.776 237.313,633.212 224.541,634.621 211.177,635.807 
		198.035,636.573 185.689,637.676 173.493,639.865 161.917,642.529 152.228,645.055 143.056,647.509 	"/>
	<polyline fill="none" stroke="#000000" stroke-linecap="round" stroke-linejoin="round" stroke-dasharray="4" points="
		435.63,590.603 418.349,585.972 400.571,581.244 381.091,576.32 361.308,571.91 341.598,568.731 322.908,566.947 306.721,566.724 
		291.213,567.741 275.395,569.68 260.561,571.843 248.585,573.53 237.313,574.967 224.541,576.376 211.177,577.561 198.035,578.328 
		185.689,579.43 173.493,581.619 161.917,584.283 152.228,586.808 143.056,589.263 	"/>
	<polyline fill="none" stroke="#000000" stroke-linecap="round" stroke-linejoin="round" stroke-dasharray="4" points="
		435.63,532.356 418.349,527.727 400.571,522.998 381.091,518.073 361.308,513.666 341.598,510.486 322.908,508.699 
		306.721,508.479 291.213,509.496 275.395,511.436 260.561,513.598 248.585,515.284 237.313,516.721 224.541,518.13 
		211.177,519.315 198.035,520.082 185.689,521.184 173.493,523.375 161.917,526.038 152.228,528.563 143.056,531.018 	"/>
	<polyline fill="none" stroke="#000000" stroke-linecap="round" stroke-linejoin="round" stroke-dasharray="4" points="
		435.63,474.111 418.349,469.479 400.571,464.751 381.091,459.828 361.308,455.421 341.598,452.24 322.908,450.455 306.721,450.231 
		291.213,451.249 275.395,453.188 260.561,455.351 248.585,457.039 237.313,458.476 224.541,459.885 211.177,461.069 
		198.035,461.836 185.689,462.938 173.493,465.128 161.917,467.792 152.228,470.316 143.056,472.771 	"/>
	<polyline fill="none" stroke="#000000" stroke-linecap="round" stroke-linejoin="round" stroke-dasharray="4" points="
		435.63,415.864 418.349,411.233 400.571,406.504 381.091,401.581 361.308,397.174 341.598,393.995 322.908,392.208 
		306.721,391.985 291.213,393.003 275.395,394.942 260.561,397.104 248.585,398.792 237.313,400.229 224.541,401.638 
		211.177,402.823 198.035,403.59 185.689,404.691 173.493,406.882 161.917,409.546 152.228,412.07 143.056,414.526 	"/>
	<polyline fill="none" stroke="#000000" stroke-linecap="round" stroke-linejoin="round" stroke-dasharray="4" points="
		435.63,357.617 418.349,352.988 400.571,348.259 381.091,343.336 361.308,338.928 341.598,335.749 322.908,333.964 306.721,333.74 
		291.213,334.758 275.395,336.696 260.561,338.859 248.585,340.546 237.313,341.983 224.541,343.392 211.177,344.577 
		198.035,345.344 185.689,346.446 173.493,348.635 161.917,351.3 152.228,353.824 143.056,356.279 	"/>
	<polyline fill="none" stroke="#000000" stroke-linecap="round" stroke-linejoin="round" stroke-dasharray="4" points="
		435.63,299.373 418.349,294.742 400.571,290.013 381.091,285.089 361.308,280.682 341.598,277.502 322.908,275.717 
		306.721,275.493 291.213,276.511 275.395,278.449 260.561,280.613 248.585,282.3 237.313,283.737 224.541,285.145 211.177,286.332 
		198.035,287.098 185.689,288.2 173.493,290.39 161.917,293.055 152.228,295.578 143.056,298.033 	"/>
	<polyline fill="none" stroke="#000000" stroke-linecap="round" stroke-linejoin="round" stroke-dasharray="4" points="
		435.63,241.127 418.349,236.497 400.571,231.768 381.091,226.845 361.308,222.436 341.598,219.257 322.908,217.471 
		306.721,217.248 291.213,218.266 275.395,220.205 260.561,222.367 248.585,224.055 237.313,225.492 224.541,226.9 211.177,228.086 
		198.035,228.853 185.689,229.955 173.493,232.144 161.917,234.808 152.228,237.333 143.056,239.787 	"/>
	<polyline fill="none" stroke="#000000" stroke-linecap="round" stroke-linejoin="round" stroke-dasharray="4" points="
		435.63,182.88 418.349,178.25 400.571,173.522 381.091,168.598 361.308,164.191 341.598,161.011 322.908,159.225 306.721,159.002 
		291.213,160.021 275.395,161.959 260.561,164.121 248.585,165.809 237.313,167.246 224.541,168.654 211.177,169.839 
		198.035,170.607 185.689,171.708 173.493,173.899 161.917,176.563 152.228,179.087 143.056,181.541 	"/>
	<polyline fill="none" stroke="#000000" stroke-linecap="round" stroke-linejoin="round" stroke-dasharray="4" points="
		435.63,124.635 418.349,120.004 400.571,115.276 381.091,110.354 361.308,105.945 341.598,102.764 322.908,100.979 
		306.721,100.756 291.213,101.774 275.395,103.713 260.561,105.875 248.585,107.564 237.313,108.999 224.541,110.409 
		211.177,111.594 198.035,112.361 185.689,113.462 173.493,115.653 161.917,118.316 152.228,120.84 143.056,123.296 	"/>
</g>
<g id="MountainLine">
	<g id="LINE_21_">
		
			<line fill="none" stroke="#000000" stroke-linecap="round" stroke-linejoin="round" x1="143.056" y1="440.523" x2="435.63" y2="440.523"/>
	</g>
	<g id="LINE_29_">
		
			<line fill="none" stroke="#000000" stroke-linecap="round" stroke-linejoin="round" x1="143.056" y1="498.771" x2="435.63" y2="498.771"/>
	</g>
	<g id="LINE_12_">
		
			<line fill="none" stroke="#000000" stroke-linecap="round" stroke-linejoin="round" x1="143.056" y1="557.016" x2="435.63" y2="557.016"/>
	</g>
	<g id="LINE_11_">
		
			<line fill="none" stroke="#000000" stroke-linecap="round" stroke-linejoin="round" x1="143.056" y1="615.263" x2="435.63" y2="615.263"/>
	</g>
	<g id="LINE_26_">
		
			<line fill="none" stroke="#000000" stroke-linecap="round" stroke-linejoin="round" x1="143.056" y1="673.508" x2="435.63" y2="673.508"/>
	</g>
	<g id="LINE_4_">
		
			<line fill="none" stroke="#000000" stroke-linecap="round" stroke-linejoin="round" x1="143.056" y1="731.753" x2="435.63" y2="731.753"/>
	</g>
	<g id="LINE_6_">
		
			<line fill="none" stroke="#000000" stroke-linecap="round" stroke-linejoin="round" x1="143.056" y1="149.294" x2="435.63" y2="149.294"/>
	</g>
	<g id="LINE_5_">
		
			<line fill="none" stroke="#000000" stroke-linecap="round" stroke-linejoin="round" x1="143.056" y1="207.54" x2="435.63" y2="207.54"/>
	</g>
	<g id="LINE_3_">
		
			<line fill="none" stroke="#000000" stroke-linecap="round" stroke-linejoin="round" x1="143.056" y1="265.787" x2="435.63" y2="265.787"/>
	</g>
	<g id="LINE_2_">
		
			<line fill="none" stroke="#000000" stroke-linecap="round" stroke-linejoin="round" x1="143.056" y1="324.033" x2="435.63" y2="324.033"/>
	</g>
	<g id="LINE_1_">
		
			<line fill="none" stroke="#000000" stroke-linecap="round" stroke-linejoin="round" x1="143.056" y1="382.278" x2="435.63" y2="382.278"/>
	</g>
</g>
<g id="Text">
	<text transform="matrix(1 0 0 1 432.3096 815.2715)" font-family="'ArialMT'" font-size="14">(c) 2016 Jun Mitani</text>
	<text transform="matrix(1 0 0 1 30.7119 42.1099)" font-family="'ArialMT'" font-size="18">Pear</text>
</g>
</svg>
