  0
SECTION
  2
HEADER
  9
$ACADVER
  1
AC1012
  9
$DWGCODEPAGE
  3
ansi_932
  9
$INSBASE
 10
0.0
 20
0.0
 30
0.0
  9
$EXTMIN
 10
1.000000000000000E+20
 20
1.000000000000000E+20
 30
1.000000000000000E+20
  9
$EXTMAX
 10
-1.000000000000000E+20
 20
-1.000000000000000E+20
 30
-1.000000000000000E+20
  9
$LIMMIN
 10
0.0
 20
0.0
  9
$LIMMAX
 10
12.0
 20
9.0
  9
$ORTHOMODE
 70
     0
  9
$REGENMODE
 70
     1
  9
$FILLMODE
 70
     1
  9
$QTEXTMODE
 70
     0
  9
$MIRRTEXT
 70
     1
  9
$DRAGMODE
 70
     2
  9
$LTSCALE
 40
1.0
  9
$OSMODE
 70
    37
  9
$ATTMODE
 70
     1
  9
$TEXTSIZE
 40
0.2
  9
$TRACEWID
 40
0.05
  9
$TEXTSTYLE
  7
STANDARD
  9
$CLAYER
  8
0
  9
$CELTYPE
  6
BYLAYER
  9
$CECOLOR
 62
   256
  9
$CELTSCALE
 40
1.0
  9
$DELOBJ
 70
     1
  9
$DISPSILH
 70
     0
  9
$DIMSCALE
 40
1.0
  9
$DIMASZ
 40
0.18
  9
$DIMEXO
 40
0.0625
  9
$DIMDLI
 40
0.38
  9
$DIMRND
 40
0.0
  9
$DIMDLE
 40
0.0
  9
$DIMEXE
 40
0.18
  9
$DIMTP
 40
0.0
  9
$DIMTM
 40
0.0
  9
$DIMTXT
 40
0.18
  9
$DIMCEN
 40
0.09
  9
$DIMTSZ
 40
0.0
  9
$DIMTOL
 70
     0
  9
$DIMLIM
 70
     0
  9
$DIMTIH
 70
     1
  9
$DIMTOH
 70
     1
  9
$DIMSE1
 70
     0
  9
$DIMSE2
 70
     0
  9
$DIMTAD
 70
     0
  9
$DIMZIN
 70
     0
  9
$DIMBLK
  1

  9
$DIMASO
 70
     1
  9
$DIMSHO
 70
     1
  9
$DIMPOST
  1

  9
$DIMAPOST
  1

  9
$DIMALT
 70
     0
  9
$DIMALTD
 70
     2
  9
$DIMALTF
 40
25.4
  9
$DIMLFAC
 40
1.0
  9
$DIMTOFL
 70
     0
  9
$DIMTVP
 40
0.0
  9
$DIMTIX
 70
     0
  9
$DIMSOXD
 70
     0
  9
$DIMSAH
 70
     0
  9
$DIMBLK1
  1

  9
$DIMBLK2
  1

  9
$DIMSTYLE
  2
STANDARD
  9
$DIMCLRD
 70
     0
  9
$DIMCLRE
 70
     0
  9
$DIMCLRT
 70
     0
  9
$DIMTFAC
 40
1.0
  9
$DIMGAP
 40
0.09
  9
$DIMJUST
 70
     0
  9
$DIMSD1
 70
     0
  9
$DIMSD2
 70
     0
  9
$DIMTOLJ
 70
     1
  9
$DIMTZIN
 70
     0
  9
$DIMALTZ
 70
     0
  9
$DIMALTTZ
 70
     0
  9
$DIMFIT
 70
     3
  9
$DIMUPT
 70
     0
  9
$DIMUNIT
 70
     2
  9
$DIMDEC
 70
     4
  9
$DIMTDEC
 70
     4
  9
$DIMALTU
 70
     2
  9
$DIMALTTD
 70
     2
  9
$DIMTXSTY
  7
STANDARD
  9
$DIMAUNIT
 70
     0
  9
$LUNITS
 70
     2
  9
$LUPREC
 70
     4
  9
$SKETCHINC
 40
0.1
  9
$FILLETRAD
 40
0.5
  9
$AUNITS
 70
     0
  9
$AUPREC
 70
     0
  9
$MENU
  1
.
  9
$ELEVATION
 40
0.0
  9
$PELEVATION
 40
0.0
  9
$THICKNESS
 40
0.0
  9
$LIMCHECK
 70
     0
  9
$CHAMFERA
 40
0.5
  9
$CHAMFERB
 40
0.5
  9
$CHAMFERC
 40
1.0
  9
$CHAMFERD
 40
0.0
  9
$SKPOLY
 70
     0
  9
$TDCREATE
 40
2457508.8198025
  9
$TDUPDATE
 40
2457508.819802511
  9
$TDINDWG
 40
0.0000000116
  9
$TDUSRTIMER
 40
0.0000000116
  9
$USRTIMER
 70
     1
  9
$ANGBASE
 50
0.0
  9
$ANGDIR
 70
     0
  9
$PDMODE
 70
     0
  9
$PDSIZE
 40
0.0
  9
$PLINEWID
 40
0.0
  9
$COORDS
 70
     1
  9
$SPLFRAME
 70
     0
  9
$SPLINETYPE
 70
     6
  9
$SPLINESEGS
 70
     8
  9
$ATTDIA
 70
     0
  9
$ATTREQ
 70
     1
  9
$HANDLING
 70
     1
  9
$HANDSEED
  5
1EE
  9
$SURFTAB1
 70
     6
  9
$SURFTAB2
 70
     6
  9
$SURFTYPE
 70
     6
  9
$SURFU
 70
     6
  9
$SURFV
 70
     6
  9
$UCSNAME
  2

  9
$UCSORG
 10
0.0
 20
0.0
 30
0.0
  9
$UCSXDIR
 10
1.0
 20
0.0
 30
0.0
  9
$UCSYDIR
 10
0.0
 20
1.0
 30
0.0
  9
$PUCSNAME
  2

  9
$PUCSORG
 10
0.0
 20
0.0
 30
0.0
  9
$PUCSXDIR
 10
1.0
 20
0.0
 30
0.0
  9
$PUCSYDIR
 10
0.0
 20
1.0
 30
0.0
  9
$USERI1
 70
     0
  9
$USERI2
 70
     0
  9
$USERI3
 70
     0
  9
$USERI4
 70
     0
  9
$USERI5
 70
     0
  9
$USERR1
 40
0.0
  9
$USERR2
 40
0.0
  9
$USERR3
 40
0.0
  9
$USERR4
 40
0.0
  9
$USERR5
 40
0.0
  9
$WORLDVIEW
 70
     1
  9
$SHADEDGE
 70
     3
  9
$SHADEDIF
 70
    70
  9
$TILEMODE
 70
     1
  9
$MAXACTVP
 70
    64
  9
$PINSBASE
 10
0.0
 20
0.0
 30
0.0
  9
$PLIMCHECK
 70
     0
  9
$PEXTMIN
 10
1.000000000000000E+20
 20
1.000000000000000E+20
 30
1.000000000000000E+20
  9
$PEXTMAX
 10
-1.000000000000000E+20
 20
-1.000000000000000E+20
 30
-1.000000000000000E+20
  9
$PLIMMIN
 10
0.0
 20
0.0
  9
$PLIMMAX
 10
12.0
 20
9.0
  9
$UNITMODE
 70
     0
  9
$VISRETAIN
 70
     1
  9
$PLINEGEN
 70
     0
  9
$PSLTSCALE
 70
     1
  9
$TREEDEPTH
 70
  3020
  9
$PICKSTYLE
 70
     1
  9
$CMLSTYLE
  2
STANDARD
  9
$CMLJUST
 70
     0
  9
$CMLSCALE
 40
1.0
  9
$SAVEIMAGES
 70
     1
  0
ENDSEC
  0
SECTION
  2
CLASSES
  0
CLASS
  1
ACDBDICTIONARYWDFLT
  2
AcDbDictionaryWithDefault
  3
ObjectDBX Classes
 90
    32768
280
     0
281
     0
  0
CLASS
  1
VISUALSTYLE
  2
AcDbVisualStyle
  3
ObjectDBX Classes
 90
     4095
280
     0
281
     0
  0
CLASS
  1
XRECORD
  2
AcDbXrecord
  3
AutoCAD 2000
 90
    32768
280
     0
281
     0
  0
CLASS
  1
LWPOLYLINE
  2
AcDbPolyline
  3
AutoCAD 2000
 90
    32768
280
     0
281
     1
  0
CLASS
  1
HATCH
  2
AcDbHatch
  3
AutoCAD 2000
 90
    32768
280
     0
281
     1
  0
CLASS
  1
ACDBPLACEHOLDER
  2
AcDbPlaceHolder
  3
ObjectDBX Classes
 90
        0
280
     0
281
     0
  0
CLASS
  1
LAYOUT
  2
AcDbLayout
  3
ObjectDBX Classes
 90
        0
280
     0
281
     0
  0
ENDSEC
  0
SECTION
  2
TABLES
  0
TABLE
  2
VPORT
  5
8
330
0
100
AcDbSymbolTable
 70
     1
  0
VPORT
  5
29
330
8
100
AcDbSymbolTableRecord
100
AcDbViewportTableRecord
  2
*ACTIVE
 70
     0
 10
0.0
 20
0.0
 11
1.0
 21
1.0
 12
0.0
 22
0.0
 13
0.0
 23
0.0
 14
0.5
 24
0.5
 15
0.5
 25
0.5
 16
0.0
 26
0.0
 36
1.0
 17
105.0008259828644
 27
-148.4999796178229
 37
0.0
 40
296.9999592356459
 41
0.7070763662937379
 42
50.0
 43
0.0
 44
0.0
 50
0.0
 51
0.0
 71
     0
 72
   100
 73
     1
 74
     3
 75
     0
 76
     0
 77
     0
 78
     0
  0
ENDTAB
  0
TABLE
  2
LTYPE
  5
5
330
0
100
AcDbSymbolTable
 70
    13
  0
LTYPE
  5
14
330
5
100
AcDbSymbolTableRecord
100
AcDbLinetypeTableRecord
  2
BYBLOCK
 70
     0
  3

 72
    65
 73
     0
 40
0.0
  0
LTYPE
  5
15
330
5
100
AcDbSymbolTableRecord
100
AcDbLinetypeTableRecord
  2
BYLAYER
 70
     0
  3

 72
    65
 73
     0
 40
0.0
  0
LTYPE
  5
16
330
5
100
AcDbSymbolTableRecord
100
AcDbLinetypeTableRecord
  2
CONTINUOUS
 70
     0
  3
Solid line
 72
    65
 73
     0
 40
0.0
  0
LTYPE
  5
84
330
5
100
AcDbSymbolTableRecord
100
AcDbLinetypeTableRecord
  2
AI-LINETYPE-1
 70
     0
  3
Adobe Illustrator Linetype No. 1
 72
    65
 73
     2
 40
2.822222221516667
 49
1.411111110758333
 74
     0
 49
-1.411111110758333
 74
     0
  0
LTYPE
  5
9C
330
5
100
AcDbSymbolTableRecord
100
AcDbLinetypeTableRecord
  2
AI-LINETYPE-2
 70
     0
  3
Adobe Illustrator Linetype No. 2
 72
    65
 73
     2
 40
2.822222221516667
 49
1.411111110758333
 74
     0
 49
-1.411111110758333
 74
     0
  0
LTYPE
  5
B4
330
5
100
AcDbSymbolTableRecord
100
AcDbLinetypeTableRecord
  2
AI-LINETYPE-3
 70
     0
  3
Adobe Illustrator Linetype No. 3
 72
    65
 73
     2
 40
2.822222221516667
 49
1.411111110758333
 74
     0
 49
-1.411111110758333
 74
     0
  0
LTYPE
  5
CC
330
5
100
AcDbSymbolTableRecord
100
AcDbLinetypeTableRecord
  2
AI-LINETYPE-4
 70
     0
  3
Adobe Illustrator Linetype No. 4
 72
    65
 73
     2
 40
2.822222221516667
 49
1.411111110758333
 74
     0
 49
-1.411111110758333
 74
     0
  0
LTYPE
  5
E4
330
5
100
AcDbSymbolTableRecord
100
AcDbLinetypeTableRecord
  2
AI-LINETYPE-5
 70
     0
  3
Adobe Illustrator Linetype No. 5
 72
    65
 73
     2
 40
2.822222221516667
 49
1.411111110758333
 74
     0
 49
-1.411111110758333
 74
     0
  0
LTYPE
  5
FC
330
5
100
AcDbSymbolTableRecord
100
AcDbLinetypeTableRecord
  2
AI-LINETYPE-6
 70
     0
  3
Adobe Illustrator Linetype No. 6
 72
    65
 73
     2
 40
2.822222221516667
 49
1.411111110758333
 74
     0
 49
-1.411111110758333
 74
     0
  0
LTYPE
  5
114
330
5
100
AcDbSymbolTableRecord
100
AcDbLinetypeTableRecord
  2
AI-LINETYPE-7
 70
     0
  3
Adobe Illustrator Linetype No. 7
 72
    65
 73
     2
 40
2.822222221516667
 49
1.411111110758333
 74
     0
 49
-1.411111110758333
 74
     0
  0
LTYPE
  5
12C
330
5
100
AcDbSymbolTableRecord
100
AcDbLinetypeTableRecord
  2
AI-LINETYPE-8
 70
     0
  3
Adobe Illustrator Linetype No. 8
 72
    65
 73
     2
 40
2.822222221516667
 49
1.411111110758333
 74
     0
 49
-1.411111110758333
 74
     0
  0
LTYPE
  5
144
330
5
100
AcDbSymbolTableRecord
100
AcDbLinetypeTableRecord
  2
AI-LINETYPE-9
 70
     0
  3
Adobe Illustrator Linetype No. 9
 72
    65
 73
     2
 40
2.822222221516667
 49
1.411111110758333
 74
     0
 49
-1.411111110758333
 74
     0
  0
LTYPE
  5
15C
330
5
100
AcDbSymbolTableRecord
100
AcDbLinetypeTableRecord
  2
AI-LINETYPE-10
 70
     0
  3
Adobe Illustrator Linetype No. 10
 72
    65
 73
     2
 40
2.822222221516667
 49
1.411111110758333
 74
     0
 49
-1.411111110758333
 74
     0
  0
LTYPE
  5
174
330
5
100
AcDbSymbolTableRecord
100
AcDbLinetypeTableRecord
  2
AI-LINETYPE-11
 70
     0
  3
Adobe Illustrator Linetype No. 11
 72
    65
 73
     2
 40
2.822222221516667
 49
1.411111110758333
 74
     0
 49
-1.411111110758333
 74
     0
  0
LTYPE
  5
18C
330
5
100
AcDbSymbolTableRecord
100
AcDbLinetypeTableRecord
  2
AI-LINETYPE-12
 70
     0
  3
Adobe Illustrator Linetype No. 12
 72
    65
 73
     2
 40
2.822222221516667
 49
1.411111110758333
 74
     0
 49
-1.411111110758333
 74
     0
  0
ENDTAB
  0
TABLE
  2
LAYER
  5
2
330
0
100
AcDbSymbolTable
 70
     5
  0
LAYER
  5
10
330
2
100
AcDbSymbolTableRecord
100
AcDbLayerTableRecord
  2
0
 70
     0
 62
     7
  6
CONTINUOUS
  0
LAYER
  5
3B
330
2
100
AcDbSymbolTableRecord
100
AcDbLayerTableRecord
  2
CUTLINE
 70
     0
 62
     7
  6
CONTINUOUS
  0
LAYER
  5
6C
330
2
100
AcDbSymbolTableRecord
100
AcDbLayerTableRecord
  2
VALLEYLINE
 70
     0
 62
     7
  6
CONTINUOUS
  0
LAYER
  5
18D
330
2
100
AcDbSymbolTableRecord
100
AcDbLayerTableRecord
  2
MOUNTAINLINE
 70
     0
 62
     7
  6
CONTINUOUS
  0
LAYER
  5
1E6
330
2
100
AcDbSymbolTableRecord
100
AcDbLayerTableRecord
  2
TEXT
 70
     0
 62
     7
  6
CONTINUOUS
  0
ENDTAB
  0
TABLE
  2
STYLE
  5
3
330
0
100
AcDbSymbolTable
 70
     1
  0
STYLE
  5
11
330
3
100
AcDbSymbolTableRecord
100
AcDbTextStyleTableRecord
  2
STANDARD
 70
     0
 40
0.0
 41
1.0
 50
0.0
 71
     0
 42
0.2
  3
txt
  4

  0
ENDTAB
  0
TABLE
  2
VIEW
  5
6
330
0
100
AcDbSymbolTable
 70
     0
  0
ENDTAB
  0
TABLE
  2
UCS
  5
7
330
0
100
AcDbSymbolTable
 70
     0
  0
ENDTAB
  0
TABLE
  2
APPID
  5
9
330
0
100
AcDbSymbolTable
 70
     1
  0
APPID
  5
12
330
9
100
AcDbSymbolTableRecord
100
AcDbRegAppTableRecord
  2
ACAD
 70
     0
  0
ENDTAB
  0
TABLE
  2
DIMSTYLE
  5
A
330
0
100
AcDbSymbolTable
 70
     1
  0
DIMSTYLE
105
27
330
A
100
AcDbSymbolTableRecord
100
AcDbDimStyleTableRecord
  2
STANDARD
 70
     0
  3

  4

  5

  6

  7

 40
1.0
 41
0.18
 42
0.0625
 43
0.38
 44
0.18
 45
0.0
 46
0.0
 47
0.0
 48
0.0
140
0.18
141
0.09
142
0.0
143
25.4
144
1.0
145
0.0
146
1.0
147
0.09
 71
     0
 72
     0
 73
     1
 74
     1
 75
     0
 76
     0
 77
     0
 78
     0
170
     0
171
     2
172
     0
173
     0
174
     0
175
     0
176
     0
177
     0
178
     0
270
     2
271
     4
272
     4
273
     2
274
     2
340
11
275
     0
280
     0
281
     0
282
     0
283
     1
284
     0
285
     0
286
     0
287
     3
288
     0
  0
ENDTAB
  0
TABLE
  2
BLOCK_RECORD
  5
1
330
0
100
AcDbSymbolTable
 70
    17
  0
BLOCK_RECORD
  5
1F
330
1
100
AcDbSymbolTableRecord
100
AcDbBlockTableRecord
  2
*MODEL_SPACE
  0
BLOCK_RECORD
  5
1B
330
1
100
AcDbSymbolTableRecord
100
AcDbBlockTableRecord
  2
*PAPER_SPACE
  0
BLOCK_RECORD
  5
3C
330
1
100
AcDbSymbolTableRecord
100
AcDbBlockTableRecord
  2
BLOCK_2
  0
BLOCK_RECORD
  5
47
330
1
100
AcDbSymbolTableRecord
100
AcDbBlockTableRecord
  2
BLOCK_3
  0
BLOCK_RECORD
  5
51
330
1
100
AcDbSymbolTableRecord
100
AcDbBlockTableRecord
  2
BLOCK_4
  0
BLOCK_RECORD
  5
59
330
1
100
AcDbSymbolTableRecord
100
AcDbBlockTableRecord
  2
BLOCK_5
  0
BLOCK_RECORD
  5
64
330
1
100
AcDbSymbolTableRecord
100
AcDbBlockTableRecord
  2
BLOCK_6
  0
BLOCK_RECORD
  5
18E
330
1
100
AcDbSymbolTableRecord
100
AcDbBlockTableRecord
  2
BLOCK_7
  0
BLOCK_RECORD
  5
196
330
1
100
AcDbSymbolTableRecord
100
AcDbBlockTableRecord
  2
BLOCK_8
  0
BLOCK_RECORD
  5
19E
330
1
100
AcDbSymbolTableRecord
100
AcDbBlockTableRecord
  2
BLOCK_9
  0
BLOCK_RECORD
  5
1A6
330
1
100
AcDbSymbolTableRecord
100
AcDbBlockTableRecord
  2
BLOCK_10
  0
BLOCK_RECORD
  5
1AE
330
1
100
AcDbSymbolTableRecord
100
AcDbBlockTableRecord
  2
BLOCK_11
  0
BLOCK_RECORD
  5
1B6
330
1
100
AcDbSymbolTableRecord
100
AcDbBlockTableRecord
  2
BLOCK_12
  0
BLOCK_RECORD
  5
1BE
330
1
100
AcDbSymbolTableRecord
100
AcDbBlockTableRecord
  2
BLOCK_13
  0
BLOCK_RECORD
  5
1C6
330
1
100
AcDbSymbolTableRecord
100
AcDbBlockTableRecord
  2
BLOCK_14
  0
BLOCK_RECORD
  5
1CE
330
1
100
AcDbSymbolTableRecord
100
AcDbBlockTableRecord
  2
BLOCK_15
  0
BLOCK_RECORD
  5
1D6
330
1
100
AcDbSymbolTableRecord
100
AcDbBlockTableRecord
  2
BLOCK_16
  0
BLOCK_RECORD
  5
1DE
330
1
100
AcDbSymbolTableRecord
100
AcDbBlockTableRecord
  2
BLOCK_17
  0
ENDTAB
  0
ENDSEC
  0
SECTION
  2
BLOCKS
  0
BLOCK
  5
20
330
1F
100
AcDbEntity
  8
0
100
AcDbBlockBegin
  2
*MODEL_SPACE
 70
     0
 71
     0
 10
0.0
 20
0.0
 30
0.0
  3
*MODEL_SPACE
  1

  0
ENDBLK
  5
21
330
1F
100
AcDbEntity
  8
0
100
AcDbBlockEnd
  0
BLOCK
  5
1C
330
1B
100
AcDbEntity
 67
     1
  8
0
100
AcDbBlockBegin
  2
*PAPER_SPACE
 70
     0
 71
     0
 10
0.0
 20
0.0
 30
0.0
  3
*PAPER_SPACE
  1

  0
ENDBLK
  5
1D
330
1B
100
AcDbEntity
 67
     1
  8
0
100
AcDbBlockEnd
  0
BLOCK
  5
3E
330
3C
100
AcDbEntity
  8
0
100
AcDbBlockBegin
  2
BLOCK_2
 70
     0
 71
     0
 10
0.0
 20
0.0
 30
0.0
  3
BLOCK_2
  1

  0
POLYLINE
  5
40
330
3C
100
AcDbEntity
  8
CUTLINE
 62
     7
100
AcDb2dPolyline
 66
     1
 10
0.0
 20
0.0
 30
0.0
  0
VERTEX
  5
41
330
40
100
AcDbEntity
  8
CUTLINE
 62
     7
100
AcDbVertex
100
AcDb2dVertex
 10
50.46703150865061
 20
-278.6944443747709
 30
0.0
  0
VERTEX
  5
42
330
40
100
AcDbEntity
  8
CUTLINE
 62
     7
100
AcDbVertex
100
AcDb2dVertex
 10
153.6805419537674
 20
-278.6944443747709
 30
0.0
  0
SEQEND
  5
43
330
40
100
AcDbEntity
  8
CUTLINE
  0
POLYLINE
  5
44
330
3C
100
AcDbEntity
  8
CUTLINE
 62
     7
100
AcDb2dPolyline
 66
     1
 10
0.0
 20
0.0
 30
0.0
  0
VERTEX
  5
45
330
44
100
AcDbEntity
  8
CUTLINE
 62
     7
100
AcDbVertex
100
AcDb2dVertex
 10
50.46703150865061
 20
-155.4068793014261
 30
0.0
  0
VERTEX
  5
1E9
330
44
100
AcDbEntity
  8
0
100
AcDbVertex
100
AcDb2dVertex
 10
50.46703150865061
 20
-155.4068793014261
 30
0.0
  0
SEQEND
  5
46
330
44
100
AcDbEntity
  8
CUTLINE
  0
ENDBLK
  5
3F
330
3C
100
AcDbEntity
  8
0
100
AcDbBlockEnd
  0
BLOCK
  5
49
330
47
100
AcDbEntity
  8
0
100
AcDbBlockBegin
  2
BLOCK_3
 70
     0
 71
     0
 10
0.0
 20
0.0
 30
0.0
  3
BLOCK_3
  1

  0
POLYLINE
  5
4B
330
47
100
AcDbEntity
  8
CUTLINE
 62
     7
100
AcDb2dPolyline
 66
     1
 10
0.0
 20
0.0
 30
0.0
  0
VERTEX
  5
4C
330
4B
100
AcDbEntity
  8
CUTLINE
 62
     7
100
AcDbVertex
100
AcDb2dVertex
 10
153.6805419537674
 20
-278.6944443747709
 30
0.0
  0
VERTEX
  5
1EA
330
4B
100
AcDbEntity
  8
0
100
AcDbVertex
100
AcDb2dVertex
 10
153.6805419537674
 20
-278.6944443747709
 30
0.0
  0
SEQEND
  5
4D
330
4B
100
AcDbEntity
  8
CUTLINE
  0
POLYLINE
  5
4E
330
47
100
AcDbEntity
  8
CUTLINE
 62
     7
100
AcDb2dPolyline
 66
     1
 10
0.0
 20
0.0
 30
0.0
  0
VERTEX
  5
4F
330
4E
100
AcDbEntity
  8
CUTLINE
 62
     7
100
AcDbVertex
100
AcDb2dVertex
 10
153.6805419537674
 20
-155.4068793014261
 30
0.0
  0
VERTEX
  5
1EB
330
4E
100
AcDbEntity
  8
0
100
AcDbVertex
100
AcDb2dVertex
 10
153.6805419537674
 20
-155.4068793014261
 30
0.0
  0
SEQEND
  5
50
330
4E
100
AcDbEntity
  8
CUTLINE
  0
ENDBLK
  5
4A
330
47
100
AcDbEntity
  8
0
100
AcDbBlockEnd
  0
BLOCK
  5
53
330
51
100
AcDbEntity
  8
0
100
AcDbBlockBegin
  2
BLOCK_4
 70
     0
 71
     0
 10
0.0
 20
0.0
 30
0.0
  3
BLOCK_4
  1

  0
POLYLINE
  5
55
330
51
100
AcDbEntity
  8
CUTLINE
 62
     7
100
AcDb2dPolyline
 66
     1
 10
0.0
 20
0.0
 30
0.0
  0
VERTEX
  5
56
330
55
100
AcDbEntity
  8
CUTLINE
 62
     7
100
AcDbVertex
100
AcDb2dVertex
 10
50.46703150865061
 20
-32.12000324717833
 30
0.0
  0
VERTEX
  5
57
330
55
100
AcDbEntity
  8
CUTLINE
 62
     7
100
AcDbVertex
100
AcDb2dVertex
 10
153.6805419537674
 20
-32.12000324717833
 30
0.0
  0
SEQEND
  5
58
330
55
100
AcDbEntity
  8
CUTLINE
  0
ENDBLK
  5
54
330
51
100
AcDbEntity
  8
0
100
AcDbBlockEnd
  0
BLOCK
  5
5B
330
59
100
AcDbEntity
  8
0
100
AcDbBlockBegin
  2
BLOCK_5
 70
     0
 71
     0
 10
0.0
 20
0.0
 30
0.0
  3
BLOCK_5
  1

  0
POLYLINE
  5
5D
330
59
100
AcDbEntity
  8
CUTLINE
 62
     7
100
AcDb2dPolyline
 66
     1
 10
0.0
 20
0.0
 30
0.0
  0
VERTEX
  5
5E
330
5D
100
AcDbEntity
  8
CUTLINE
 62
     7
100
AcDbVertex
100
AcDb2dVertex
 10
153.6805419537674
 20
-155.4068793014261
 30
0.0
  0
VERTEX
  5
1EC
330
5D
100
AcDbEntity
  8
0
100
AcDbVertex
100
AcDb2dVertex
 10
153.6805419537674
 20
-155.4068793014261
 30
0.0
  0
SEQEND
  5
5F
330
5D
100
AcDbEntity
  8
CUTLINE
  0
POLYLINE
  5
60
330
59
100
AcDbEntity
  8
CUTLINE
 62
     7
100
AcDb2dPolyline
 66
     1
 10
0.0
 20
0.0
 30
0.0
  0
VERTEX
  5
61
330
60
100
AcDbEntity
  8
CUTLINE
 62
     7
100
AcDbVertex
100
AcDb2dVertex
 10
50.46703150865061
 20
-32.12000324717833
 30
0.0
  0
VERTEX
  5
62
330
60
100
AcDbEntity
  8
CUTLINE
 62
     7
100
AcDbVertex
100
AcDb2dVertex
 10
50.46703150865061
 20
-278.6944443747709
 30
0.0
  0
SEQEND
  5
63
330
60
100
AcDbEntity
  8
CUTLINE
  0
ENDBLK
  5
5C
330
59
100
AcDbEntity
  8
0
100
AcDbBlockEnd
  0
BLOCK
  5
66
330
64
100
AcDbEntity
  8
0
100
AcDbBlockBegin
  2
BLOCK_6
 70
     0
 71
     0
 10
0.0
 20
0.0
 30
0.0
  3
BLOCK_6
  1

  0
POLYLINE
  5
68
330
64
100
AcDbEntity
  8
CUTLINE
 62
     7
100
AcDb2dPolyline
 66
     1
 10
0.0
 20
0.0
 30
0.0
  0
VERTEX
  5
69
330
68
100
AcDbEntity
  8
CUTLINE
 62
     7
100
AcDbVertex
100
AcDb2dVertex
 10
153.6805419537674
 20
-32.12000324717833
 30
0.0
  0
VERTEX
  5
6A
330
68
100
AcDbEntity
  8
CUTLINE
 62
     7
100
AcDbVertex
100
AcDb2dVertex
 10
153.6805419537674
 20
-278.6944443747709
 30
0.0
  0
SEQEND
  5
6B
330
68
100
AcDbEntity
  8
CUTLINE
  0
ENDBLK
  5
67
330
64
100
AcDbEntity
  8
0
100
AcDbBlockEnd
  0
BLOCK
  5
190
330
18E
100
AcDbEntity
  8
0
100
AcDbBlockBegin
  2
BLOCK_7
 70
     0
 71
     0
 10
0.0
 20
0.0
 30
0.0
  3
BLOCK_7
  1

  0
POLYLINE
  5
192
330
18E
100
AcDbEntity
  8
MOUNTAINLINE
 62
     7
100
AcDb2dPolyline
 66
     1
 10
0.0
 20
0.0
 30
0.0
  0
VERTEX
  5
193
330
192
100
AcDbEntity
  8
MOUNTAINLINE
 62
     7
100
AcDbVertex
100
AcDb2dVertex
 10
50.46703150865061
 20
-155.4068793014261
 30
0.0
  0
VERTEX
  5
194
330
192
100
AcDbEntity
  8
MOUNTAINLINE
 62
     7
100
AcDbVertex
100
AcDb2dVertex
 10
153.6805419537674
 20
-155.4068793014261
 30
0.0
  0
SEQEND
  5
195
330
192
100
AcDbEntity
  8
MOUNTAINLINE
  0
ENDBLK
  5
191
330
18E
100
AcDbEntity
  8
0
100
AcDbBlockEnd
  0
BLOCK
  5
198
330
196
100
AcDbEntity
  8
0
100
AcDbBlockBegin
  2
BLOCK_8
 70
     0
 71
     0
 10
0.0
 20
0.0
 30
0.0
  3
BLOCK_8
  1

  0
POLYLINE
  5
19A
330
196
100
AcDbEntity
  8
MOUNTAINLINE
 62
     7
100
AcDb2dPolyline
 66
     1
 10
0.0
 20
0.0
 30
0.0
  0
VERTEX
  5
19B
330
19A
100
AcDbEntity
  8
MOUNTAINLINE
 62
     7
100
AcDbVertex
100
AcDb2dVertex
 10
50.46703150865061
 20
-175.9551513231987
 30
0.0
  0
VERTEX
  5
19C
330
19A
100
AcDbEntity
  8
MOUNTAINLINE
 62
     7
100
AcDbVertex
100
AcDb2dVertex
 10
153.6805419537674
 20
-175.9551513231987
 30
0.0
  0
SEQEND
  5
19D
330
19A
100
AcDbEntity
  8
MOUNTAINLINE
  0
ENDBLK
  5
199
330
196
100
AcDbEntity
  8
0
100
AcDbBlockEnd
  0
BLOCK
  5
1A0
330
19E
100
AcDbEntity
  8
0
100
AcDbBlockBegin
  2
BLOCK_9
 70
     0
 71
     0
 10
0.0
 20
0.0
 30
0.0
  3
BLOCK_9
  1

  0
POLYLINE
  5
1A2
330
19E
100
AcDbEntity
  8
MOUNTAINLINE
 62
     7
100
AcDb2dPolyline
 66
     1
 10
0.0
 20
0.0
 30
0.0
  0
VERTEX
  5
1A3
330
1A2
100
AcDbEntity
  8
MOUNTAINLINE
 62
     7
100
AcDbVertex
100
AcDb2dVertex
 10
50.46703150865061
 20
-196.5027343258743
 30
0.0
  0
VERTEX
  5
1A4
330
1A2
100
AcDbEntity
  8
MOUNTAINLINE
 62
     7
100
AcDbVertex
100
AcDb2dVertex
 10
153.6805419537674
 20
-196.5027343258743
 30
0.0
  0
SEQEND
  5
1A5
330
1A2
100
AcDbEntity
  8
MOUNTAINLINE
  0
ENDBLK
  5
1A1
330
19E
100
AcDbEntity
  8
0
100
AcDbBlockEnd
  0
BLOCK
  5
1A8
330
1A6
100
AcDbEntity
  8
0
100
AcDbBlockBegin
  2
BLOCK_10
 70
     0
 71
     0
 10
0.0
 20
0.0
 30
0.0
  3
BLOCK_10
  1

  0
POLYLINE
  5
1AA
330
1A6
100
AcDbEntity
  8
MOUNTAINLINE
 62
     7
100
AcDb2dPolyline
 66
     1
 10
0.0
 20
0.0
 30
0.0
  0
VERTEX
  5
1AB
330
1AA
100
AcDbEntity
  8
MOUNTAINLINE
 62
     7
100
AcDbVertex
100
AcDb2dVertex
 10
50.46703150865061
 20
-217.051006347647
 30
0.0
  0
VERTEX
  5
1AC
330
1AA
100
AcDbEntity
  8
MOUNTAINLINE
 62
     7
100
AcDbVertex
100
AcDb2dVertex
 10
153.6805419537674
 20
-217.051006347647
 30
0.0
  0
SEQEND
  5
1AD
330
1AA
100
AcDbEntity
  8
MOUNTAINLINE
  0
ENDBLK
  5
1A9
330
1A6
100
AcDbEntity
  8
0
100
AcDbBlockEnd
  0
BLOCK
  5
1B0
330
1AE
100
AcDbEntity
  8
0
100
AcDbBlockBegin
  2
BLOCK_11
 70
     0
 71
     0
 10
0.0
 20
0.0
 30
0.0
  3
BLOCK_11
  1

  0
POLYLINE
  5
1B2
330
1AE
100
AcDbEntity
  8
MOUNTAINLINE
 62
     7
100
AcDb2dPolyline
 66
     1
 10
0.0
 20
0.0
 30
0.0
  0
VERTEX
  5
1B3
330
1B2
100
AcDbEntity
  8
MOUNTAINLINE
 62
     7
100
AcDbVertex
100
AcDb2dVertex
 10
50.46703150865061
 20
-237.5985893503226
 30
0.0
  0
VERTEX
  5
1B4
330
1B2
100
AcDbEntity
  8
MOUNTAINLINE
 62
     7
100
AcDbVertex
100
AcDb2dVertex
 10
153.6805419537674
 20
-237.5985893503226
 30
0.0
  0
SEQEND
  5
1B5
330
1B2
100
AcDbEntity
  8
MOUNTAINLINE
  0
ENDBLK
  5
1B1
330
1AE
100
AcDbEntity
  8
0
100
AcDbBlockEnd
  0
BLOCK
  5
1B8
330
1B6
100
AcDbEntity
  8
0
100
AcDbBlockBegin
  2
BLOCK_12
 70
     0
 71
     0
 10
0.0
 20
0.0
 30
0.0
  3
BLOCK_12
  1

  0
POLYLINE
  5
1BA
330
1B6
100
AcDbEntity
  8
MOUNTAINLINE
 62
     7
100
AcDb2dPolyline
 66
     1
 10
0.0
 20
0.0
 30
0.0
  0
VERTEX
  5
1BB
330
1BA
100
AcDbEntity
  8
MOUNTAINLINE
 62
     7
100
AcDbVertex
100
AcDb2dVertex
 10
50.46703150865061
 20
-258.1461723529982
 30
0.0
  0
VERTEX
  5
1BC
330
1BA
100
AcDbEntity
  8
MOUNTAINLINE
 62
     7
100
AcDbVertex
100
AcDb2dVertex
 10
153.6805419537674
 20
-258.1461723529982
 30
0.0
  0
SEQEND
  5
1BD
330
1BA
100
AcDbEntity
  8
MOUNTAINLINE
  0
ENDBLK
  5
1B9
330
1B6
100
AcDbEntity
  8
0
100
AcDbBlockEnd
  0
BLOCK
  5
1C0
330
1BE
100
AcDbEntity
  8
0
100
AcDbBlockBegin
  2
BLOCK_13
 70
     0
 71
     0
 10
0.0
 20
0.0
 30
0.0
  3
BLOCK_13
  1

  0
POLYLINE
  5
1C2
330
1BE
100
AcDbEntity
  8
MOUNTAINLINE
 62
     7
100
AcDb2dPolyline
 66
     1
 10
0.0
 20
0.0
 30
0.0
  0
VERTEX
  5
1C3
330
1C2
100
AcDbEntity
  8
MOUNTAINLINE
 62
     7
100
AcDbVertex
100
AcDb2dVertex
 10
50.46703150865061
 20
-52.6677585046282
 30
0.0
  0
VERTEX
  5
1C4
330
1C2
100
AcDbEntity
  8
MOUNTAINLINE
 62
     7
100
AcDbVertex
100
AcDb2dVertex
 10
153.6805419537674
 20
-52.6677585046282
 30
0.0
  0
SEQEND
  5
1C5
330
1C2
100
AcDbEntity
  8
MOUNTAINLINE
  0
ENDBLK
  5
1C1
330
1BE
100
AcDbEntity
  8
0
100
AcDbBlockEnd
  0
BLOCK
  5
1C8
330
1C6
100
AcDbEntity
  8
0
100
AcDbBlockBegin
  2
BLOCK_14
 70
     0
 71
     0
 10
0.0
 20
0.0
 30
0.0
  3
BLOCK_14
  1

  0
POLYLINE
  5
1CA
330
1C6
100
AcDbEntity
  8
MOUNTAINLINE
 62
     7
100
AcDb2dPolyline
 66
     1
 10
0.0
 20
0.0
 30
0.0
  0
VERTEX
  5
1CB
330
1CA
100
AcDbEntity
  8
MOUNTAINLINE
 62
     7
100
AcDbVertex
100
AcDb2dVertex
 10
50.46703150865061
 20
-73.21551376207807
 30
0.0
  0
VERTEX
  5
1CC
330
1CA
100
AcDbEntity
  8
MOUNTAINLINE
 62
     7
100
AcDbVertex
100
AcDb2dVertex
 10
153.6805419537674
 20
-73.21551376207807
 30
0.0
  0
SEQEND
  5
1CD
330
1CA
100
AcDbEntity
  8
MOUNTAINLINE
  0
ENDBLK
  5
1C9
330
1C6
100
AcDbEntity
  8
0
100
AcDbBlockEnd
  0
BLOCK
  5
1D0
330
1CE
100
AcDbEntity
  8
0
100
AcDbBlockBegin
  2
BLOCK_15
 70
     0
 71
     0
 10
0.0
 20
0.0
 30
0.0
  3
BLOCK_15
  1

  0
POLYLINE
  5
1D2
330
1CE
100
AcDbEntity
  8
MOUNTAINLINE
 62
     7
100
AcDb2dPolyline
 66
     1
 10
0.0
 20
0.0
 30
0.0
  0
VERTEX
  5
1D3
330
1D2
100
AcDbEntity
  8
MOUNTAINLINE
 62
     7
100
AcDbVertex
100
AcDb2dVertex
 10
50.46703150865061
 20
-93.76378578385072
 30
0.0
  0
VERTEX
  5
1D4
330
1D2
100
AcDbEntity
  8
MOUNTAINLINE
 62
     7
100
AcDbVertex
100
AcDb2dVertex
 10
153.6805419537674
 20
-93.76378578385072
 30
0.0
  0
SEQEND
  5
1D5
330
1D2
100
AcDbEntity
  8
MOUNTAINLINE
  0
ENDBLK
  5
1D1
330
1CE
100
AcDbEntity
  8
0
100
AcDbBlockEnd
  0
BLOCK
  5
1D8
330
1D6
100
AcDbEntity
  8
0
100
AcDbBlockBegin
  2
BLOCK_16
 70
     0
 71
     0
 10
0.0
 20
0.0
 30
0.0
  3
BLOCK_16
  1

  0
POLYLINE
  5
1DA
330
1D6
100
AcDbEntity
  8
MOUNTAINLINE
 62
     7
100
AcDb2dPolyline
 66
     1
 10
0.0
 20
0.0
 30
0.0
  0
VERTEX
  5
1DB
330
1DA
100
AcDbEntity
  8
MOUNTAINLINE
 62
     7
100
AcDbVertex
100
AcDb2dVertex
 10
50.46703150865061
 20
-114.3115410413006
 30
0.0
  0
VERTEX
  5
1DC
330
1DA
100
AcDbEntity
  8
MOUNTAINLINE
 62
     7
100
AcDbVertex
100
AcDb2dVertex
 10
153.6805419537674
 20
-114.3115410413006
 30
0.0
  0
SEQEND
  5
1DD
330
1DA
100
AcDbEntity
  8
MOUNTAINLINE
  0
ENDBLK
  5
1D9
330
1D6
100
AcDbEntity
  8
0
100
AcDbBlockEnd
  0
BLOCK
  5
1E0
330
1DE
100
AcDbEntity
  8
0
100
AcDbBlockBegin
  2
BLOCK_17
 70
     0
 71
     0
 10
0.0
 20
0.0
 30
0.0
  3
BLOCK_17
  1

  0
POLYLINE
  5
1E2
330
1DE
100
AcDbEntity
  8
MOUNTAINLINE
 62
     7
100
AcDb2dPolyline
 66
     1
 10
0.0
 20
0.0
 30
0.0
  0
VERTEX
  5
1E3
330
1E2
100
AcDbEntity
  8
MOUNTAINLINE
 62
     7
100
AcDbVertex
100
AcDb2dVertex
 10
50.46703150865061
 20
-134.8592962987505
 30
0.0
  0
VERTEX
  5
1E4
330
1E2
100
AcDbEntity
  8
MOUNTAINLINE
 62
     7
100
AcDbVertex
100
AcDb2dVertex
 10
153.6805419537674
 20
-134.8592962987505
 30
0.0
  0
SEQEND
  5
1E5
330
1E2
100
AcDbEntity
  8
MOUNTAINLINE
  0
ENDBLK
  5
1E1
330
1DE
100
AcDbEntity
  8
0
100
AcDbBlockEnd
  0
ENDSEC
  0
SECTION
  2
ENTITIES
  0
INSERT
  5
3D
330
1F
100
AcDbEntity
  8
CUTLINE
100
AcDbBlockReference
  2
BLOCK_2
 10
0.0
 20
0.0
 30
0.0
  0
INSERT
  5
48
330
1F
100
AcDbEntity
  8
CUTLINE
100
AcDbBlockReference
  2
BLOCK_3
 10
0.0
 20
0.0
 30
0.0
  0
INSERT
  5
52
330
1F
100
AcDbEntity
  8
CUTLINE
100
AcDbBlockReference
  2
BLOCK_4
 10
0.0
 20
0.0
 30
0.0
  0
INSERT
  5
5A
330
1F
100
AcDbEntity
  8
CUTLINE
100
AcDbBlockReference
  2
BLOCK_5
 10
0.0
 20
0.0
 30
0.0
  0
INSERT
  5
65
330
1F
100
AcDbEntity
  8
CUTLINE
100
AcDbBlockReference
  2
BLOCK_6
 10
0.0
 20
0.0
 30
0.0
  0
POLYLINE
  5
6D
330
1F
100
AcDbEntity
  8
VALLEYLINE
  6
AI-LINETYPE-1
 62
     7
100
AcDb2dPolyline
 66
     1
 10
0.0
 20
0.0
 30
0.0
  0
VERTEX
  5
6E
330
6D
100
AcDbEntity
  8
VALLEYLINE
  6
AI-LINETYPE-1
 62
     7
100
AcDbVertex
100
AcDb2dVertex
 10
153.6805419537674
 20
-269.9945447458694
 30
0.0
  0
VERTEX
  5
6F
330
6D
100
AcDbEntity
  8
VALLEYLINE
  6
AI-LINETYPE-1
 62
     7
100
AcDbVertex
100
AcDb2dVertex
 10
147.5841009830692
 20
-268.3612249763125
 30
0.0
  0
VERTEX
  5
70
330
6D
100
AcDbEntity
  8
VALLEYLINE
  6
AI-LINETYPE-1
 62
     7
100
AcDbVertex
100
AcDb2dVertex
 10
141.3126491617205
 20
-266.6931097423545
 30
0.0
  0
VERTEX
  5
71
330
6D
100
AcDbEntity
  8
VALLEYLINE
  6
AI-LINETYPE-1
 62
     7
100
AcDbVertex
100
AcDb2dVertex
 10
134.4403726877441
 20
-264.955748089143
 30
0.0
  0
VERTEX
  5
72
330
6D
100
AcDbEntity
  8
VALLEYLINE
  6
AI-LINETYPE-1
 62
     7
100
AcDbVertex
100
AcDb2dVertex
 10
127.461298253725
 20
-263.4013210061983
 30
0.0
  0
VERTEX
  5
73
330
6D
100
AcDbEntity
  8
VALLEYLINE
  6
AI-LINETYPE-1
 62
     7
100
AcDbVertex
100
AcDb2dVertex
 10
120.5080620358452
 20
-262.2792534066524
 30
0.0
  0
VERTEX
  5
74
330
6D
100
AcDbEntity
  8
VALLEYLINE
  6
AI-LINETYPE-1
 62
     7
100
AcDbVertex
100
AcDb2dVertex
 10
113.9148382961741
 20
-261.6498344614973
 30
0.0
  0
VERTEX
  5
75
330
6D
100
AcDbEntity
  8
VALLEYLINE
  6
AI-LINETYPE-1
 62
     7
100
AcDbVertex
100
AcDb2dVertex
 10
108.2042480198239
 20
-261.5709417748851
 30
0.0
  0
VERTEX
  5
76
330
6D
100
AcDbEntity
  8
VALLEYLINE
  6
AI-LINETYPE-1
 62
     7
100
AcDbVertex
100
AcDb2dVertex
 10
102.7336086440215
 20
-261.9299207244481
 30
0.0
  0
VERTEX
  5
77
330
6D
100
AcDbEntity
  8
VALLEYLINE
  6
AI-LINETYPE-1
 62
     7
100
AcDbVertex
100
AcDb2dVertex
 10
97.15307072223952
 20
-262.6141166878187
 30
0.0
  0
VERTEX
  5
78
330
6D
100
AcDbEntity
  8
VALLEYLINE
  6
AI-LINETYPE-1
 62
     7
100
AcDbVertex
100
AcDb2dVertex
 10
91.91997068014501
 20
-263.376860828253
 30
0.0
  0
VERTEX
  5
79
330
6D
100
AcDbEntity
  8
VALLEYLINE
  6
AI-LINETYPE-1
 62
     7
100
AcDbVertex
100
AcDb2dVertex
 10
87.6954223413574
 20
-263.9721733281042
 30
0.0
  0
VERTEX
  5
7A
330
6D
100
AcDbEntity
  8
VALLEYLINE
  6
AI-LINETYPE-1
 62
     7
100
AcDbVertex
100
AcDb2dVertex
 10
83.71874862273351
 20
-264.4789468739845
 30
0.0
  0
VERTEX
  5
7B
330
6D
100
AcDbEntity
  8
VALLEYLINE
  6
AI-LINETYPE-1
 62
     7
100
AcDbVertex
100
AcDb2dVertex
 10
79.21290823757525
 20
-264.9757296429574
 30
0.0
  0
VERTEX
  5
7C
330
6D
100
AcDbEntity
  8
VALLEYLINE
  6
AI-LINETYPE-1
 62
     7
100
AcDbVertex
100
AcDb2dVertex
 10
74.49846732078511
 20
-265.3943087444153
 30
0.0
  0
VERTEX
  5
7D
330
6D
100
AcDbEntity
  8
VALLEYLINE
  6
AI-LINETYPE-1
 62
     7
100
AcDbVertex
100
AcDb2dVertex
 10
69.8624023262844
 20
-265.6647487400074
 30
0.0
  0
VERTEX
  5
7E
330
6D
100
AcDbEntity
  8
VALLEYLINE
  6
AI-LINETYPE-1
 62
     7
100
AcDbVertex
100
AcDb2dVertex
 10
65.5069403590573
 20
-266.0537000202921
 30
0.0
  0
VERTEX
  5
7F
330
6D
100
AcDbEntity
  8
VALLEYLINE
  6
AI-LINETYPE-1
 62
     7
100
AcDbVertex
100
AcDb2dVertex
 10
61.20436060752878
 20
-266.8260904280851
 30
0.0
  0
VERTEX
  5
80
330
6D
100
AcDbEntity
  8
VALLEYLINE
  6
AI-LINETYPE-1
 62
     7
100
AcDbVertex
100
AcDb2dVertex
 10
57.12071667408788
 20
-267.7652234573642
 30
0.0
  0
VERTEX
  5
81
330
6D
100
AcDbEntity
  8
VALLEYLINE
  6
AI-LINETYPE-1
 62
     7
100
AcDbVertex
100
AcDb2dVertex
 10
53.70266518839725
 20
-268.6561251498499
 30
0.0
  0
VERTEX
  5
82
330
6D
100
AcDbEntity
  8
VALLEYLINE
  6
AI-LINETYPE-1
 62
     7
100
AcDbVertex
100
AcDb2dVertex
 10
50.46703150865061
 20
-269.5225666643902
 30
0.0
  0
SEQEND
  5
83
330
6D
100
AcDbEntity
  8
VALLEYLINE
  6
AI-LINETYPE-1
  0
POLYLINE
  5
85
330
1F
100
AcDbEntity
  8
VALLEYLINE
  6
AI-LINETYPE-2
 62
     7
100
AcDb2dPolyline
 66
     1
 10
0.0
 20
0.0
 30
0.0
  0
VERTEX
  5
86
330
85
100
AcDbEntity
  8
VALLEYLINE
  6
AI-LINETYPE-2
 62
     7
100
AcDbVertex
100
AcDb2dVertex
 10
153.6805419537674
 20
-249.4469617431938
 30
0.0
  0
VERTEX
  5
87
330
85
100
AcDbEntity
  8
VALLEYLINE
  6
AI-LINETYPE-2
 62
     7
100
AcDbVertex
100
AcDb2dVertex
 10
147.5841009830692
 20
-247.8132974640884
 30
0.0
  0
VERTEX
  5
88
330
85
100
AcDbEntity
  8
VALLEYLINE
  6
AI-LINETYPE-2
 62
     7
100
AcDbVertex
100
AcDb2dVertex
 10
141.3126491617205
 20
-246.1455267396789
 30
0.0
  0
VERTEX
  5
89
330
85
100
AcDbEntity
  8
VALLEYLINE
  6
AI-LINETYPE-2
 62
     7
100
AcDbVertex
100
AcDb2dVertex
 10
134.4403726877441
 20
-244.4081650864674
 30
0.0
  0
VERTEX
  5
8A
330
85
100
AcDbEntity
  8
VALLEYLINE
  6
AI-LINETYPE-2
 62
     7
100
AcDbVertex
100
AcDb2dVertex
 10
127.461298253725
 20
-242.8537380035227
 30
0.0
  0
VERTEX
  5
8B
330
85
100
AcDbEntity
  8
VALLEYLINE
  6
AI-LINETYPE-2
 62
     7
100
AcDbVertex
100
AcDb2dVertex
 10
120.5080620358452
 20
-241.7320149135253
 30
0.0
  0
VERTEX
  5
8C
330
85
100
AcDbEntity
  8
VALLEYLINE
  6
AI-LINETYPE-2
 62
     7
100
AcDbVertex
100
AcDb2dVertex
 10
113.9148382961741
 20
-241.1019069492731
 30
0.0
  0
VERTEX
  5
8D
330
85
100
AcDbEntity
  8
VALLEYLINE
  6
AI-LINETYPE-2
 62
     7
100
AcDbVertex
100
AcDb2dVertex
 10
108.2042480198239
 20
-241.0230142626609
 30
0.0
  0
VERTEX
  5
8E
330
85
100
AcDbEntity
  8
VALLEYLINE
  6
AI-LINETYPE-2
 62
     7
100
AcDbVertex
100
AcDb2dVertex
 10
102.7336086440215
 20
-241.382682231321
 30
0.0
  0
VERTEX
  5
8F
330
85
100
AcDbEntity
  8
VALLEYLINE
  6
AI-LINETYPE-2
 62
     7
100
AcDbVertex
100
AcDb2dVertex
 10
97.15307072223952
 20
-242.0661891755946
 30
0.0
  0
VERTEX
  5
90
330
85
100
AcDbEntity
  8
VALLEYLINE
  6
AI-LINETYPE-2
 62
     7
100
AcDbVertex
100
AcDb2dVertex
 10
91.91997068014501
 20
-242.8289333160289
 30
0.0
  0
VERTEX
  5
91
330
85
100
AcDbEntity
  8
VALLEYLINE
  6
AI-LINETYPE-2
 62
     7
100
AcDbVertex
100
AcDb2dVertex
 10
87.6954223413574
 20
-243.4242458158801
 30
0.0
  0
VERTEX
  5
92
330
85
100
AcDbEntity
  8
VALLEYLINE
  6
AI-LINETYPE-2
 62
     7
100
AcDbVertex
100
AcDb2dVertex
 10
83.71874862273351
 20
-243.9313638713088
 30
0.0
  0
VERTEX
  5
93
330
85
100
AcDbEntity
  8
VALLEYLINE
  6
AI-LINETYPE-2
 62
     7
100
AcDbVertex
100
AcDb2dVertex
 10
79.21290823757525
 20
-244.4281466402819
 30
0.0
  0
VERTEX
  5
94
330
85
100
AcDbEntity
  8
VALLEYLINE
  6
AI-LINETYPE-2
 62
     7
100
AcDbVertex
100
AcDb2dVertex
 10
74.49846732078511
 20
-244.8463812321912
 30
0.0
  0
VERTEX
  5
95
330
85
100
AcDbEntity
  8
VALLEYLINE
  6
AI-LINETYPE-2
 62
     7
100
AcDbVertex
100
AcDb2dVertex
 10
69.8624023262844
 20
-245.1164767182348
 30
0.0
  0
VERTEX
  5
96
330
85
100
AcDbEntity
  8
VALLEYLINE
  6
AI-LINETYPE-2
 62
     7
100
AcDbVertex
100
AcDb2dVertex
 10
65.5069403590573
 20
-245.5054279985195
 30
0.0
  0
VERTEX
  5
97
330
85
100
AcDbEntity
  8
VALLEYLINE
  6
AI-LINETYPE-2
 62
     7
100
AcDbVertex
100
AcDb2dVertex
 10
61.20436060752878
 20
-246.2778184063125
 30
0.0
  0
VERTEX
  5
98
330
85
100
AcDbEntity
  8
VALLEYLINE
  6
AI-LINETYPE-2
 62
     7
100
AcDbVertex
100
AcDb2dVertex
 10
57.12071667408788
 20
-247.2179849642372
 30
0.0
  0
VERTEX
  5
99
330
85
100
AcDbEntity
  8
VALLEYLINE
  6
AI-LINETYPE-2
 62
     7
100
AcDbVertex
100
AcDb2dVertex
 10
53.70266518839725
 20
-248.1085421471743
 30
0.0
  0
VERTEX
  5
9A
330
85
100
AcDbEntity
  8
VALLEYLINE
  6
AI-LINETYPE-2
 62
     7
100
AcDbVertex
100
AcDb2dVertex
 10
50.46703150865061
 20
-248.9742946426175
 30
0.0
  0
SEQEND
  5
9B
330
85
100
AcDbEntity
  8
VALLEYLINE
  6
AI-LINETYPE-2
  0
POLYLINE
  5
9D
330
1F
100
AcDbEntity
  8
VALLEYLINE
  6
AI-LINETYPE-3
 62
     7
100
AcDb2dPolyline
 66
     1
 10
0.0
 20
0.0
 30
0.0
  0
VERTEX
  5
9E
330
9D
100
AcDbEntity
  8
VALLEYLINE
  6
AI-LINETYPE-3
 62
     7
100
AcDbVertex
100
AcDb2dVertex
 10
153.6805419537674
 20
-228.8990342309697
 30
0.0
  0
VERTEX
  5
9F
330
9D
100
AcDbEntity
  8
VALLEYLINE
  6
AI-LINETYPE-3
 62
     7
100
AcDbVertex
100
AcDb2dVertex
 10
147.5841009830692
 20
-227.2653699518642
 30
0.0
  0
VERTEX
  5
A0
330
9D
100
AcDbEntity
  8
VALLEYLINE
  6
AI-LINETYPE-3
 62
     7
100
AcDbVertex
100
AcDb2dVertex
 10
141.3126491617205
 20
-225.5975992274548
 30
0.0
  0
VERTEX
  5
A1
330
9D
100
AcDbEntity
  8
VALLEYLINE
  6
AI-LINETYPE-3
 62
     7
100
AcDbVertex
100
AcDb2dVertex
 10
134.4403726877441
 20
-223.8605820837918
 30
0.0
  0
VERTEX
  5
A2
330
9D
100
AcDbEntity
  8
VALLEYLINE
  6
AI-LINETYPE-3
 62
     7
100
AcDbVertex
100
AcDb2dVertex
 10
127.461298253725
 20
-222.3058104912986
 30
0.0
  0
VERTEX
  5
A3
330
9D
100
AcDbEntity
  8
VALLEYLINE
  6
AI-LINETYPE-3
 62
     7
100
AcDbVertex
100
AcDb2dVertex
 10
120.5080620358452
 20
-221.1837428917527
 30
0.0
  0
VERTEX
  5
A4
330
9D
100
AcDbEntity
  8
VALLEYLINE
  6
AI-LINETYPE-3
 62
     7
100
AcDbVertex
100
AcDb2dVertex
 10
113.9148382961741
 20
-220.553979437049
 30
0.0
  0
VERTEX
  5
A5
330
9D
100
AcDbEntity
  8
VALLEYLINE
  6
AI-LINETYPE-3
 62
     7
100
AcDbVertex
100
AcDb2dVertex
 10
108.2042480198239
 20
-220.4754312599853
 30
0.0
  0
VERTEX
  5
A6
330
9D
100
AcDbEntity
  8
VALLEYLINE
  6
AI-LINETYPE-3
 62
     7
100
AcDbVertex
100
AcDb2dVertex
 10
102.7336086440215
 20
-220.8340656999998
 30
0.0
  0
VERTEX
  5
A7
330
9D
100
AcDbEntity
  8
VALLEYLINE
  6
AI-LINETYPE-3
 62
     7
100
AcDbVertex
100
AcDb2dVertex
 10
97.15307072223952
 20
-221.5182616633705
 30
0.0
  0
VERTEX
  5
A8
330
9D
100
AcDbEntity
  8
VALLEYLINE
  6
AI-LINETYPE-3
 62
     7
100
AcDbVertex
100
AcDb2dVertex
 10
91.91997068014501
 20
-222.2813503133533
 30
0.0
  0
VERTEX
  5
A9
330
9D
100
AcDbEntity
  8
VALLEYLINE
  6
AI-LINETYPE-3
 62
     7
100
AcDbVertex
100
AcDb2dVertex
 10
87.6954223413574
 20
-222.8766628132045
 30
0.0
  0
VERTEX
  5
AA
330
9D
100
AcDbEntity
  8
VALLEYLINE
  6
AI-LINETYPE-3
 62
     7
100
AcDbVertex
100
AcDb2dVertex
 10
83.71874862273351
 20
-223.3830918495362
 30
0.0
  0
VERTEX
  5
AB
330
9D
100
AcDbEntity
  8
VALLEYLINE
  6
AI-LINETYPE-3
 62
     7
100
AcDbVertex
100
AcDb2dVertex
 10
79.21290823757525
 20
-223.8802191280577
 30
0.0
  0
VERTEX
  5
AC
330
9D
100
AcDbEntity
  8
VALLEYLINE
  6
AI-LINETYPE-3
 62
     7
100
AcDbVertex
100
AcDb2dVertex
 10
74.49846732078511
 20
-224.2984537199671
 30
0.0
  0
VERTEX
  5
AD
330
9D
100
AcDbEntity
  8
VALLEYLINE
  6
AI-LINETYPE-3
 62
     7
100
AcDbVertex
100
AcDb2dVertex
 10
69.8624023262844
 20
-224.5688937155592
 30
0.0
  0
VERTEX
  5
AE
330
9D
100
AcDbEntity
  8
VALLEYLINE
  6
AI-LINETYPE-3
 62
     7
100
AcDbVertex
100
AcDb2dVertex
 10
65.5069403590573
 20
-224.9578449958439
 30
0.0
  0
VERTEX
  5
AF
330
9D
100
AcDbEntity
  8
VALLEYLINE
  6
AI-LINETYPE-3
 62
     7
100
AcDbVertex
100
AcDb2dVertex
 10
61.20436060752878
 20
-225.7302354036369
 30
0.0
  0
VERTEX
  5
B0
330
9D
100
AcDbEntity
  8
VALLEYLINE
  6
AI-LINETYPE-3
 62
     7
100
AcDbVertex
100
AcDb2dVertex
 10
57.12071667408788
 20
-226.6700574520131
 30
0.0
  0
VERTEX
  5
B1
330
9D
100
AcDbEntity
  8
VALLEYLINE
  6
AI-LINETYPE-3
 62
     7
100
AcDbVertex
100
AcDb2dVertex
 10
53.70266518839725
 20
-227.5609591444987
 30
0.0
  0
VERTEX
  5
B2
330
9D
100
AcDbEntity
  8
VALLEYLINE
  6
AI-LINETYPE-3
 62
     7
100
AcDbVertex
100
AcDb2dVertex
 10
50.46703150865061
 20
-228.4267116399419
 30
0.0
  0
SEQEND
  5
B3
330
9D
100
AcDbEntity
  8
VALLEYLINE
  6
AI-LINETYPE-3
  0
POLYLINE
  5
B5
330
1F
100
AcDbEntity
  8
VALLEYLINE
  6
AI-LINETYPE-4
 62
     7
100
AcDb2dPolyline
 66
     1
 10
0.0
 20
0.0
 30
0.0
  0
VERTEX
  5
B6
330
B5
100
AcDbEntity
  8
VALLEYLINE
  6
AI-LINETYPE-4
 62
     7
100
AcDbVertex
100
AcDb2dVertex
 10
153.6805419537674
 20
-208.3514512282941
 30
0.0
  0
VERTEX
  5
B7
330
B5
100
AcDbEntity
  8
VALLEYLINE
  6
AI-LINETYPE-4
 62
     7
100
AcDbVertex
100
AcDb2dVertex
 10
147.5841009830692
 20
-206.7177869491886
 30
0.0
  0
VERTEX
  5
B8
330
B5
100
AcDbEntity
  8
VALLEYLINE
  6
AI-LINETYPE-4
 62
     7
100
AcDbVertex
100
AcDb2dVertex
 10
141.3126491617205
 20
-205.0500162247792
 30
0.0
  0
VERTEX
  5
B9
330
B5
100
AcDbEntity
  8
VALLEYLINE
  6
AI-LINETYPE-4
 62
     7
100
AcDbVertex
100
AcDb2dVertex
 10
134.4403726877441
 20
-203.3129990811162
 30
0.0
  0
VERTEX
  5
BA
330
B5
100
AcDbEntity
  8
VALLEYLINE
  6
AI-LINETYPE-4
 62
     7
100
AcDbVertex
100
AcDb2dVertex
 10
127.461298253725
 20
-201.7571939599774
 30
0.0
  0
VERTEX
  5
BB
330
B5
100
AcDbEntity
  8
VALLEYLINE
  6
AI-LINETYPE-4
 62
     7
100
AcDbVertex
100
AcDb2dVertex
 10
120.5080620358452
 20
-200.6358153795286
 30
0.0
  0
VERTEX
  5
BC
330
B5
100
AcDbEntity
  8
VALLEYLINE
  6
AI-LINETYPE-4
 62
     7
100
AcDbVertex
100
AcDb2dVertex
 10
113.9148382961741
 20
-200.0063964343734
 30
0.0
  0
VERTEX
  5
BD
330
B5
100
AcDbEntity
  8
VALLEYLINE
  6
AI-LINETYPE-4
 62
     7
100
AcDbVertex
100
AcDb2dVertex
 10
108.2042480198239
 20
-199.9275037477612
 30
0.0
  0
VERTEX
  5
BE
330
B5
100
AcDbEntity
  8
VALLEYLINE
  6
AI-LINETYPE-4
 62
     7
100
AcDbVertex
100
AcDb2dVertex
 10
102.7336086440215
 20
-200.2864826973242
 30
0.0
  0
VERTEX
  5
BF
330
B5
100
AcDbEntity
  8
VALLEYLINE
  6
AI-LINETYPE-4
 62
     7
100
AcDbVertex
100
AcDb2dVertex
 10
97.15307072223952
 20
-200.9703341511463
 30
0.0
  0
VERTEX
  5
C0
330
B5
100
AcDbEntity
  8
VALLEYLINE
  6
AI-LINETYPE-4
 62
     7
100
AcDbVertex
100
AcDb2dVertex
 10
91.91997068014501
 20
-201.7334228011292
 30
0.0
  0
VERTEX
  5
C1
330
B5
100
AcDbEntity
  8
VALLEYLINE
  6
AI-LINETYPE-4
 62
     7
100
AcDbVertex
100
AcDb2dVertex
 10
87.6954223413574
 20
-202.3287353009803
 30
0.0
  0
VERTEX
  5
C2
330
B5
100
AcDbEntity
  8
VALLEYLINE
  6
AI-LINETYPE-4
 62
     7
100
AcDbVertex
100
AcDb2dVertex
 10
83.71874862273351
 20
-202.8355088468606
 30
0.0
  0
VERTEX
  5
C3
330
B5
100
AcDbEntity
  8
VALLEYLINE
  6
AI-LINETYPE-4
 62
     7
100
AcDbVertex
100
AcDb2dVertex
 10
79.21290823757525
 20
-203.3326361253821
 30
0.0
  0
VERTEX
  5
C4
330
B5
100
AcDbEntity
  8
VALLEYLINE
  6
AI-LINETYPE-4
 62
     7
100
AcDbVertex
100
AcDb2dVertex
 10
74.49846732078511
 20
-203.7505262077429
 30
0.0
  0
VERTEX
  5
C5
330
B5
100
AcDbEntity
  8
VALLEYLINE
  6
AI-LINETYPE-4
 62
     7
100
AcDbVertex
100
AcDb2dVertex
 10
69.8624023262844
 20
-204.0213107128836
 30
0.0
  0
VERTEX
  5
C6
330
B5
100
AcDbEntity
  8
VALLEYLINE
  6
AI-LINETYPE-4
 62
     7
100
AcDbVertex
100
AcDb2dVertex
 10
65.5069403590573
 20
-204.4099174836198
 30
0.0
  0
VERTEX
  5
C7
330
B5
100
AcDbEntity
  8
VALLEYLINE
  6
AI-LINETYPE-4
 62
     7
100
AcDbVertex
100
AcDb2dVertex
 10
61.20436060752878
 20
-205.1823078914128
 30
0.0
  0
VERTEX
  5
C8
330
B5
100
AcDbEntity
  8
VALLEYLINE
  6
AI-LINETYPE-4
 62
     7
100
AcDbVertex
100
AcDb2dVertex
 10
57.12071667408788
 20
-206.1221299397889
 30
0.0
  0
VERTEX
  5
C9
330
B5
100
AcDbEntity
  8
VALLEYLINE
  6
AI-LINETYPE-4
 62
     7
100
AcDbVertex
100
AcDb2dVertex
 10
53.70266518839725
 20
-207.012687122726
 30
0.0
  0
VERTEX
  5
CA
330
B5
100
AcDbEntity
  8
VALLEYLINE
  6
AI-LINETYPE-4
 62
     7
100
AcDbVertex
100
AcDb2dVertex
 10
50.46703150865061
 20
-207.8787841277178
 30
0.0
  0
SEQEND
  5
CB
330
B5
100
AcDbEntity
  8
VALLEYLINE
  6
AI-LINETYPE-4
  0
POLYLINE
  5
CD
330
1F
100
AcDbEntity
  8
VALLEYLINE
  6
AI-LINETYPE-5
 62
     7
100
AcDb2dPolyline
 66
     1
 10
0.0
 20
0.0
 30
0.0
  0
VERTEX
  5
CE
330
CD
100
AcDbEntity
  8
VALLEYLINE
  6
AI-LINETYPE-5
 62
     7
100
AcDbVertex
100
AcDb2dVertex
 10
153.6805419537674
 20
-187.80352371607
 30
0.0
  0
VERTEX
  5
CF
330
CD
100
AcDbEntity
  8
VALLEYLINE
  6
AI-LINETYPE-5
 62
     7
100
AcDbVertex
100
AcDb2dVertex
 10
147.5841009830692
 20
-186.170203946513
 30
0.0
  0
VERTEX
  5
D0
330
CD
100
AcDbEntity
  8
VALLEYLINE
  6
AI-LINETYPE-5
 62
     7
100
AcDbVertex
100
AcDb2dVertex
 10
141.3126491617205
 20
-184.502088712555
 30
0.0
  0
VERTEX
  5
D1
330
CD
100
AcDbEntity
  8
VALLEYLINE
  6
AI-LINETYPE-5
 62
     7
100
AcDbVertex
100
AcDb2dVertex
 10
134.4403726877441
 20
-182.7647270593436
 30
0.0
  0
VERTEX
  5
D2
330
CD
100
AcDbEntity
  8
VALLEYLINE
  6
AI-LINETYPE-5
 62
     7
100
AcDbVertex
100
AcDb2dVertex
 10
127.461298253725
 20
-181.2099554668503
 30
0.0
  0
VERTEX
  5
D3
330
CD
100
AcDbEntity
  8
VALLEYLINE
  6
AI-LINETYPE-5
 62
     7
100
AcDbVertex
100
AcDb2dVertex
 10
120.5080620358452
 20
-180.0882323768529
 30
0.0
  0
VERTEX
  5
D4
330
CD
100
AcDbEntity
  8
VALLEYLINE
  6
AI-LINETYPE-5
 62
     7
100
AcDbVertex
100
AcDb2dVertex
 10
113.9148382961741
 20
-179.4577799030522
 30
0.0
  0
VERTEX
  5
D5
330
CD
100
AcDbEntity
  8
VALLEYLINE
  6
AI-LINETYPE-5
 62
     7
100
AcDbVertex
100
AcDb2dVertex
 10
108.2042480198239
 20
-179.3799207450856
 30
0.0
  0
VERTEX
  5
D6
330
CD
100
AcDbEntity
  8
VALLEYLINE
  6
AI-LINETYPE-5
 62
     7
100
AcDbVertex
100
AcDb2dVertex
 10
102.7336086440215
 20
-179.7388996946486
 30
0.0
  0
VERTEX
  5
D7
330
CD
100
AcDbEntity
  8
VALLEYLINE
  6
AI-LINETYPE-5
 62
     7
100
AcDbVertex
100
AcDb2dVertex
 10
97.15307072223952
 20
-180.4230956580192
 30
0.0
  0
VERTEX
  5
D8
330
CD
100
AcDbEntity
  8
VALLEYLINE
  6
AI-LINETYPE-5
 62
     7
100
AcDbVertex
100
AcDb2dVertex
 10
91.91997068014501
 20
-181.1858397984535
 30
0.0
  0
VERTEX
  5
D9
330
CD
100
AcDbEntity
  8
VALLEYLINE
  6
AI-LINETYPE-5
 62
     7
100
AcDbVertex
100
AcDb2dVertex
 10
87.6954223413574
 20
-181.7808077887562
 30
0.0
  0
VERTEX
  5
DA
330
CD
100
AcDbEntity
  8
VALLEYLINE
  6
AI-LINETYPE-5
 62
     7
100
AcDbVertex
100
AcDb2dVertex
 10
83.71874862273351
 20
-182.2875813346365
 30
0.0
  0
VERTEX
  5
DB
330
CD
100
AcDbEntity
  8
VALLEYLINE
  6
AI-LINETYPE-5
 62
     7
100
AcDbVertex
100
AcDb2dVertex
 10
79.21290823757525
 20
-182.784708613158
 30
0.0
  0
VERTEX
  5
DC
330
CD
100
AcDbEntity
  8
VALLEYLINE
  6
AI-LINETYPE-5
 62
     7
100
AcDbVertex
100
AcDb2dVertex
 10
74.49846732078511
 20
-183.2029432050673
 30
0.0
  0
VERTEX
  5
DD
330
CD
100
AcDbEntity
  8
VALLEYLINE
  6
AI-LINETYPE-5
 62
     7
100
AcDbVertex
100
AcDb2dVertex
 10
69.8624023262844
 20
-183.4733832006594
 30
0.0
  0
VERTEX
  5
DE
330
CD
100
AcDbEntity
  8
VALLEYLINE
  6
AI-LINETYPE-5
 62
     7
100
AcDbVertex
100
AcDb2dVertex
 10
65.5069403590573
 20
-183.8619899713956
 30
0.0
  0
VERTEX
  5
DF
330
CD
100
AcDbEntity
  8
VALLEYLINE
  6
AI-LINETYPE-5
 62
     7
100
AcDbVertex
100
AcDb2dVertex
 10
61.20436060752878
 20
-184.6350693982857
 30
0.0
  0
VERTEX
  5
E0
330
CD
100
AcDbEntity
  8
VALLEYLINE
  6
AI-LINETYPE-5
 62
     7
100
AcDbVertex
100
AcDb2dVertex
 10
57.12071667408788
 20
-185.5745469371133
 30
0.0
  0
VERTEX
  5
E1
330
CD
100
AcDbEntity
  8
VALLEYLINE
  6
AI-LINETYPE-5
 62
     7
100
AcDbVertex
100
AcDb2dVertex
 10
53.70266518839725
 20
-186.4654486295989
 30
0.0
  0
VERTEX
  5
E2
330
CD
100
AcDbEntity
  8
VALLEYLINE
  6
AI-LINETYPE-5
 62
     7
100
AcDbVertex
100
AcDb2dVertex
 10
50.46703150865061
 20
-187.3312011250422
 30
0.0
  0
SEQEND
  5
E3
330
CD
100
AcDbEntity
  8
VALLEYLINE
  6
AI-LINETYPE-5
  0
POLYLINE
  5
E5
330
1F
100
AcDbEntity
  8
VALLEYLINE
  6
AI-LINETYPE-6
 62
     7
100
AcDb2dPolyline
 66
     1
 10
0.0
 20
0.0
 30
0.0
  0
VERTEX
  5
E6
330
E5
100
AcDbEntity
  8
VALLEYLINE
  6
AI-LINETYPE-6
 62
     7
100
AcDbVertex
100
AcDb2dVertex
 10
153.6805419537674
 20
-167.2559407133944
 30
0.0
  0
VERTEX
  5
E7
330
E5
100
AcDbEntity
  8
VALLEYLINE
  6
AI-LINETYPE-6
 62
     7
100
AcDbVertex
100
AcDb2dVertex
 10
147.5841009830692
 20
-165.6215874151918
 30
0.0
  0
VERTEX
  5
E8
330
E5
100
AcDbEntity
  8
VALLEYLINE
  6
AI-LINETYPE-6
 62
     7
100
AcDbVertex
100
AcDb2dVertex
 10
141.3126491617205
 20
-163.9538166907824
 30
0.0
  0
VERTEX
  5
E9
330
E5
100
AcDbEntity
  8
VALLEYLINE
  6
AI-LINETYPE-6
 62
     7
100
AcDbVertex
100
AcDb2dVertex
 10
134.4403726877441
 20
-162.2171440566679
 30
0.0
  0
VERTEX
  5
EA
330
E5
100
AcDbEntity
  8
VALLEYLINE
  6
AI-LINETYPE-6
 62
     7
100
AcDbVertex
100
AcDb2dVertex
 10
127.461298253725
 20
-160.6623724641747
 30
0.0
  0
VERTEX
  5
EB
330
E5
100
AcDbEntity
  8
VALLEYLINE
  6
AI-LINETYPE-6
 62
     7
100
AcDbVertex
100
AcDb2dVertex
 10
120.5080620358452
 20
-159.5403048646288
 30
0.0
  0
VERTEX
  5
EC
330
E5
100
AcDbEntity
  8
VALLEYLINE
  6
AI-LINETYPE-6
 62
     7
100
AcDbVertex
100
AcDb2dVertex
 10
113.9148382961741
 20
-158.9105414099251
 30
0.0
  0
VERTEX
  5
ED
330
E5
100
AcDbEntity
  8
VALLEYLINE
  6
AI-LINETYPE-6
 62
     7
100
AcDbVertex
100
AcDb2dVertex
 10
108.2042480198239
 20
-158.8316487233129
 30
0.0
  0
VERTEX
  5
EE
330
E5
100
AcDbEntity
  8
VALLEYLINE
  6
AI-LINETYPE-6
 62
     7
100
AcDbVertex
100
AcDb2dVertex
 10
102.7336086440215
 20
-159.190627672876
 30
0.0
  0
VERTEX
  5
EF
330
E5
100
AcDbEntity
  8
VALLEYLINE
  6
AI-LINETYPE-6
 62
     7
100
AcDbVertex
100
AcDb2dVertex
 10
97.15307072223952
 20
-159.8748236362466
 30
0.0
  0
VERTEX
  5
F0
330
E5
100
AcDbEntity
  8
VALLEYLINE
  6
AI-LINETYPE-6
 62
     7
100
AcDbVertex
100
AcDb2dVertex
 10
91.91997068014501
 20
-160.6375677766809
 30
0.0
  0
VERTEX
  5
F1
330
E5
100
AcDbEntity
  8
VALLEYLINE
  6
AI-LINETYPE-6
 62
     7
100
AcDbVertex
100
AcDb2dVertex
 10
87.6954223413574
 20
-161.2332247860806
 30
0.0
  0
VERTEX
  5
F2
330
E5
100
AcDbEntity
  8
VALLEYLINE
  6
AI-LINETYPE-6
 62
     7
100
AcDbVertex
100
AcDb2dVertex
 10
83.71874862273351
 20
-161.7399983319608
 30
0.0
  0
VERTEX
  5
F3
330
E5
100
AcDbEntity
  8
VALLEYLINE
  6
AI-LINETYPE-6
 62
     7
100
AcDbVertex
100
AcDb2dVertex
 10
79.21290823757525
 20
-162.2371256104824
 30
0.0
  0
VERTEX
  5
F4
330
E5
100
AcDbEntity
  8
VALLEYLINE
  6
AI-LINETYPE-6
 62
     7
100
AcDbVertex
100
AcDb2dVertex
 10
74.49846732078511
 20
-162.6550156928432
 30
0.0
  0
VERTEX
  5
F5
330
E5
100
AcDbEntity
  8
VALLEYLINE
  6
AI-LINETYPE-6
 62
     7
100
AcDbVertex
100
AcDb2dVertex
 10
69.8624023262844
 20
-162.9254556884353
 30
0.0
  0
VERTEX
  5
F6
330
E5
100
AcDbEntity
  8
VALLEYLINE
  6
AI-LINETYPE-6
 62
     7
100
AcDbVertex
100
AcDb2dVertex
 10
65.5069403590573
 20
-163.31440696872
 30
0.0
  0
VERTEX
  5
F7
330
E5
100
AcDbEntity
  8
VALLEYLINE
  6
AI-LINETYPE-6
 62
     7
100
AcDbVertex
100
AcDb2dVertex
 10
61.20436060752878
 20
-164.086797376513
 30
0.0
  0
VERTEX
  5
F8
330
E5
100
AcDbEntity
  8
VALLEYLINE
  6
AI-LINETYPE-6
 62
     7
100
AcDbVertex
100
AcDb2dVertex
 10
57.12071667408788
 20
-165.0266194248892
 30
0.0
  0
VERTEX
  5
F9
330
E5
100
AcDbEntity
  8
VALLEYLINE
  6
AI-LINETYPE-6
 62
     7
100
AcDbVertex
100
AcDb2dVertex
 10
53.70266518839725
 20
-165.9171766078263
 30
0.0
  0
VERTEX
  5
FA
330
E5
100
AcDbEntity
  8
VALLEYLINE
  6
AI-LINETYPE-6
 62
     7
100
AcDbVertex
100
AcDb2dVertex
 10
50.46703150865061
 20
-166.7832736128181
 30
0.0
  0
SEQEND
  5
FB
330
E5
100
AcDbEntity
  8
VALLEYLINE
  6
AI-LINETYPE-6
  0
POLYLINE
  5
FD
330
1F
100
AcDbEntity
  8
VALLEYLINE
  6
AI-LINETYPE-7
 62
     7
100
AcDb2dPolyline
 66
     1
 10
0.0
 20
0.0
 30
0.0
  0
VERTEX
  5
FE
330
FD
100
AcDbEntity
  8
VALLEYLINE
  6
AI-LINETYPE-7
 62
     7
100
AcDbVertex
100
AcDb2dVertex
 10
153.6805419537674
 20
-146.7076686916217
 30
0.0
  0
VERTEX
  5
FF
330
FD
100
AcDbEntity
  8
VALLEYLINE
  6
AI-LINETYPE-7
 62
     7
100
AcDbVertex
100
AcDb2dVertex
 10
147.5841009830692
 20
-145.0740044125162
 30
0.0
  0
VERTEX
  5
100
330
FD
100
AcDbEntity
  8
VALLEYLINE
  6
AI-LINETYPE-7
 62
     7
100
AcDbVertex
100
AcDb2dVertex
 10
141.3126491617205
 20
-143.405716923784
 30
0.0
  0
VERTEX
  5
101
330
FD
100
AcDbEntity
  8
VALLEYLINE
  6
AI-LINETYPE-7
 62
     7
100
AcDbVertex
100
AcDb2dVertex
 10
134.4403726877441
 20
-141.668699780121
 30
0.0
  0
VERTEX
  5
102
330
FD
100
AcDbEntity
  8
VALLEYLINE
  6
AI-LINETYPE-7
 62
     7
100
AcDbVertex
100
AcDb2dVertex
 10
127.461298253725
 20
-140.1142726971763
 30
0.0
  0
VERTEX
  5
103
330
FD
100
AcDbEntity
  8
VALLEYLINE
  6
AI-LINETYPE-7
 62
     7
100
AcDbVertex
100
AcDb2dVertex
 10
120.5080620358452
 20
-138.9925496071789
 30
0.0
  0
VERTEX
  5
104
330
FD
100
AcDbEntity
  8
VALLEYLINE
  6
AI-LINETYPE-7
 62
     7
100
AcDbVertex
100
AcDb2dVertex
 10
113.9148382961741
 20
-138.3624416429268
 30
0.0
  0
VERTEX
  5
105
330
FD
100
AcDbEntity
  8
VALLEYLINE
  6
AI-LINETYPE-7
 62
     7
100
AcDbVertex
100
AcDb2dVertex
 10
108.2042480198239
 20
-138.2835489563145
 30
0.0
  0
VERTEX
  5
106
330
FD
100
AcDbEntity
  8
VALLEYLINE
  6
AI-LINETYPE-7
 62
     7
100
AcDbVertex
100
AcDb2dVertex
 10
102.7336086440215
 20
-138.6428724154261
 30
0.0
  0
VERTEX
  5
107
330
FD
100
AcDbEntity
  8
VALLEYLINE
  6
AI-LINETYPE-7
 62
     7
100
AcDbVertex
100
AcDb2dVertex
 10
97.15307072223952
 20
-139.3267238692482
 30
0.0
  0
VERTEX
  5
108
330
FD
100
AcDbEntity
  8
VALLEYLINE
  6
AI-LINETYPE-7
 62
     7
100
AcDbVertex
100
AcDb2dVertex
 10
91.91997068014501
 20
-140.0894680096825
 30
0.0
  0
VERTEX
  5
109
330
FD
100
AcDbEntity
  8
VALLEYLINE
  6
AI-LINETYPE-7
 62
     7
100
AcDbVertex
100
AcDb2dVertex
 10
87.6954223413574
 20
-140.6849527643079
 30
0.0
  0
VERTEX
  5
10A
330
FD
100
AcDbEntity
  8
VALLEYLINE
  6
AI-LINETYPE-7
 62
     7
100
AcDbVertex
100
AcDb2dVertex
 10
83.71874862273351
 20
-141.1917263101882
 30
0.0
  0
VERTEX
  5
10B
330
FD
100
AcDbEntity
  8
VALLEYLINE
  6
AI-LINETYPE-7
 62
     7
100
AcDbVertex
100
AcDb2dVertex
 10
79.21290823757525
 20
-141.6888535887097
 30
0.0
  0
VERTEX
  5
10C
330
FD
100
AcDbEntity
  8
VALLEYLINE
  6
AI-LINETYPE-7
 62
     7
100
AcDbVertex
100
AcDb2dVertex
 10
74.49846732078511
 20
-142.1069159258448
 30
0.0
  0
VERTEX
  5
10D
330
FD
100
AcDbEntity
  8
VALLEYLINE
  6
AI-LINETYPE-7
 62
     7
100
AcDbVertex
100
AcDb2dVertex
 10
69.8624023262844
 20
-142.3775281762112
 30
0.0
  0
VERTEX
  5
10E
330
FD
100
AcDbEntity
  8
VALLEYLINE
  6
AI-LINETYPE-7
 62
     7
100
AcDbVertex
100
AcDb2dVertex
 10
65.5069403590573
 20
-142.7661349469474
 30
0.0
  0
VERTEX
  5
10F
330
FD
100
AcDbEntity
  8
VALLEYLINE
  6
AI-LINETYPE-7
 62
     7
100
AcDbVertex
100
AcDb2dVertex
 10
61.20436060752878
 20
-143.5388698642889
 30
0.0
  0
VERTEX
  5
110
330
FD
100
AcDbEntity
  8
VALLEYLINE
  6
AI-LINETYPE-7
 62
     7
100
AcDbVertex
100
AcDb2dVertex
 10
57.12071667408788
 20
-144.4786919126651
 30
0.0
  0
VERTEX
  5
111
330
FD
100
AcDbEntity
  8
VALLEYLINE
  6
AI-LINETYPE-7
 62
     7
100
AcDbVertex
100
AcDb2dVertex
 10
53.70266518839725
 20
-145.3690768408279
 30
0.0
  0
VERTEX
  5
112
330
FD
100
AcDbEntity
  8
VALLEYLINE
  6
AI-LINETYPE-7
 62
     7
100
AcDbVertex
100
AcDb2dVertex
 10
50.46703150865061
 20
-146.2355183553682
 30
0.0
  0
SEQEND
  5
113
330
FD
100
AcDbEntity
  8
VALLEYLINE
  6
AI-LINETYPE-7
  0
POLYLINE
  5
115
330
1F
100
AcDbEntity
  8
VALLEYLINE
  6
AI-LINETYPE-8
 62
     7
100
AcDb2dPolyline
 66
     1
 10
0.0
 20
0.0
 30
0.0
  0
VERTEX
  5
116
330
115
100
AcDbEntity
  8
VALLEYLINE
  6
AI-LINETYPE-8
 62
     7
100
AcDbVertex
100
AcDb2dVertex
 10
153.6805419537674
 20
-126.159396669849
 30
0.0
  0
VERTEX
  5
117
330
115
100
AcDbEntity
  8
VALLEYLINE
  6
AI-LINETYPE-8
 62
     7
100
AcDbVertex
100
AcDb2dVertex
 10
147.5841009830692
 20
-124.5262491550664
 30
0.0
  0
VERTEX
  5
118
330
115
100
AcDbEntity
  8
VALLEYLINE
  6
AI-LINETYPE-8
 62
     7
100
AcDbVertex
100
AcDb2dVertex
 10
141.3126491617205
 20
-122.8579616663341
 30
0.0
  0
VERTEX
  5
119
330
115
100
AcDbEntity
  8
VALLEYLINE
  6
AI-LINETYPE-8
 62
     7
100
AcDbVertex
100
AcDb2dVertex
 10
134.4403726877441
 20
-121.1212890322197
 30
0.0
  0
VERTEX
  5
11A
330
115
100
AcDbEntity
  8
VALLEYLINE
  6
AI-LINETYPE-8
 62
     7
100
AcDbVertex
100
AcDb2dVertex
 10
127.461298253725
 20
-119.5661729301779
 30
0.0
  0
VERTEX
  5
11B
330
115
100
AcDbEntity
  8
VALLEYLINE
  6
AI-LINETYPE-8
 62
     7
100
AcDbVertex
100
AcDb2dVertex
 10
120.5080620358452
 20
-118.4447943497291
 30
0.0
  0
VERTEX
  5
11C
330
115
100
AcDbEntity
  8
VALLEYLINE
  6
AI-LINETYPE-8
 62
     7
100
AcDbVertex
100
AcDb2dVertex
 10
113.9148382961741
 20
-117.8150308950254
 30
0.0
  0
VERTEX
  5
11D
330
115
100
AcDbEntity
  8
VALLEYLINE
  6
AI-LINETYPE-8
 62
     7
100
AcDbVertex
100
AcDb2dVertex
 10
108.2042480198239
 20
-117.7361382084132
 30
0.0
  0
VERTEX
  5
11E
330
115
100
AcDbEntity
  8
VALLEYLINE
  6
AI-LINETYPE-8
 62
     7
100
AcDbVertex
100
AcDb2dVertex
 10
102.7336086440215
 20
-118.0951171579762
 30
0.0
  0
VERTEX
  5
11F
330
115
100
AcDbEntity
  8
VALLEYLINE
  6
AI-LINETYPE-8
 62
     7
100
AcDbVertex
100
AcDb2dVertex
 10
97.15307072223952
 20
-118.7789686117983
 30
0.0
  0
VERTEX
  5
120
330
115
100
AcDbEntity
  8
VALLEYLINE
  6
AI-LINETYPE-8
 62
     7
100
AcDbVertex
100
AcDb2dVertex
 10
91.91997068014501
 20
-119.5420572617812
 30
0.0
  0
VERTEX
  5
121
330
115
100
AcDbEntity
  8
VALLEYLINE
  6
AI-LINETYPE-8
 62
     7
100
AcDbVertex
100
AcDb2dVertex
 10
87.6954223413574
 20
-120.1371975068581
 30
0.0
  0
VERTEX
  5
122
330
115
100
AcDbEntity
  8
VALLEYLINE
  6
AI-LINETYPE-8
 62
     7
100
AcDbVertex
100
AcDb2dVertex
 10
83.71874862273351
 20
-120.6439710527383
 30
0.0
  0
VERTEX
  5
123
330
115
100
AcDbEntity
  8
VALLEYLINE
  6
AI-LINETYPE-8
 62
     7
100
AcDbVertex
100
AcDb2dVertex
 10
79.21290823757525
 20
-121.1409260764856
 30
0.0
  0
VERTEX
  5
124
330
115
100
AcDbEntity
  8
VALLEYLINE
  6
AI-LINETYPE-8
 62
     7
100
AcDbVertex
100
AcDb2dVertex
 10
74.49846732078511
 20
-121.5591606683949
 30
0.0
  0
VERTEX
  5
125
330
115
100
AcDbEntity
  8
VALLEYLINE
  6
AI-LINETYPE-8
 62
     7
100
AcDbVertex
100
AcDb2dVertex
 10
69.8624023262844
 20
-121.8296006639871
 30
0.0
  0
VERTEX
  5
126
330
115
100
AcDbEntity
  8
VALLEYLINE
  6
AI-LINETYPE-8
 62
     7
100
AcDbVertex
100
AcDb2dVertex
 10
65.5069403590573
 20
-122.2183796894975
 30
0.0
  0
VERTEX
  5
127
330
115
100
AcDbEntity
  8
VALLEYLINE
  6
AI-LINETYPE-8
 62
     7
100
AcDbVertex
100
AcDb2dVertex
 10
61.20436060752878
 20
-122.9907700972905
 30
0.0
  0
VERTEX
  5
128
330
115
100
AcDbEntity
  8
VALLEYLINE
  6
AI-LINETYPE-8
 62
     7
100
AcDbVertex
100
AcDb2dVertex
 10
57.12071667408788
 20
-123.9309366552152
 30
0.0
  0
VERTEX
  5
129
330
115
100
AcDbEntity
  8
VALLEYLINE
  6
AI-LINETYPE-8
 62
     7
100
AcDbVertex
100
AcDb2dVertex
 10
53.70266518839725
 20
-124.821321583378
 30
0.0
  0
VERTEX
  5
12A
330
115
100
AcDbEntity
  8
VALLEYLINE
  6
AI-LINETYPE-8
 62
     7
100
AcDbVertex
100
AcDb2dVertex
 10
50.46703150865061
 20
-125.6874185883698
 30
0.0
  0
SEQEND
  5
12B
330
115
100
AcDbEntity
  8
VALLEYLINE
  6
AI-LINETYPE-8
  0
POLYLINE
  5
12D
330
1F
100
AcDbEntity
  8
VALLEYLINE
  6
AI-LINETYPE-9
 62
     7
100
AcDb2dPolyline
 66
     1
 10
0.0
 20
0.0
 30
0.0
  0
VERTEX
  5
12E
330
12D
100
AcDbEntity
  8
VALLEYLINE
  6
AI-LINETYPE-9
 62
     7
100
AcDbVertex
100
AcDb2dVertex
 10
153.6805419537674
 20
-105.612158176722
 30
0.0
  0
VERTEX
  5
12F
330
12D
100
AcDbEntity
  8
VALLEYLINE
  6
AI-LINETYPE-9
 62
     7
100
AcDbVertex
100
AcDb2dVertex
 10
147.5841009830692
 20
-103.9784938976165
 30
0.0
  0
VERTEX
  5
130
330
12D
100
AcDbEntity
  8
VALLEYLINE
  6
AI-LINETYPE-9
 62
     7
100
AcDbVertex
100
AcDb2dVertex
 10
141.3126491617205
 20
-102.3102064088843
 30
0.0
  0
VERTEX
  5
131
330
12D
100
AcDbEntity
  8
VALLEYLINE
  6
AI-LINETYPE-9
 62
     7
100
AcDbVertex
100
AcDb2dVertex
 10
134.4403726877441
 20
-100.5731892652213
 30
0.0
  0
VERTEX
  5
132
330
12D
100
AcDbEntity
  8
VALLEYLINE
  6
AI-LINETYPE-9
 62
     7
100
AcDbVertex
100
AcDb2dVertex
 10
127.461298253725
 20
-99.01841767272803
 30
0.0
  0
VERTEX
  5
133
330
12D
100
AcDbEntity
  8
VALLEYLINE
  6
AI-LINETYPE-9
 62
     7
100
AcDbVertex
100
AcDb2dVertex
 10
120.5080620358452
 20
-97.89669458273069
 30
0.0
  0
VERTEX
  5
134
330
12D
100
AcDbEntity
  8
VALLEYLINE
  6
AI-LINETYPE-9
 62
     7
100
AcDbVertex
100
AcDb2dVertex
 10
113.9148382961741
 20
-97.26675887325275
 30
0.0
  0
VERTEX
  5
135
330
12D
100
AcDbEntity
  8
VALLEYLINE
  6
AI-LINETYPE-9
 62
     7
100
AcDbVertex
100
AcDb2dVertex
 10
108.2042480198239
 20
-97.18786618664053
 30
0.0
  0
VERTEX
  5
136
330
12D
100
AcDbEntity
  8
VALLEYLINE
  6
AI-LINETYPE-9
 62
     7
100
AcDbVertex
100
AcDb2dVertex
 10
102.7336086440215
 20
-97.54701739097783
 30
0.0
  0
VERTEX
  5
137
330
12D
100
AcDbEntity
  8
VALLEYLINE
  6
AI-LINETYPE-9
 62
     7
100
AcDbVertex
100
AcDb2dVertex
 10
97.15307072223952
 20
-98.23069659002566
 30
0.0
  0
VERTEX
  5
138
330
12D
100
AcDbEntity
  8
VALLEYLINE
  6
AI-LINETYPE-9
 62
     7
100
AcDbVertex
100
AcDb2dVertex
 10
91.91997068014501
 20
-98.99412974955703
 30
0.0
  0
VERTEX
  5
139
330
12D
100
AcDbEntity
  8
VALLEYLINE
  6
AI-LINETYPE-9
 62
     7
100
AcDbVertex
100
AcDb2dVertex
 10
87.6954223413574
 20
-99.58909773985967
 30
0.0
  0
VERTEX
  5
13A
330
12D
100
AcDbEntity
  8
VALLEYLINE
  6
AI-LINETYPE-9
 62
     7
100
AcDbVertex
100
AcDb2dVertex
 10
83.71874862273351
 20
-100.0962157952884
 30
0.0
  0
VERTEX
  5
13B
330
12D
100
AcDbEntity
  8
VALLEYLINE
  6
AI-LINETYPE-9
 62
     7
100
AcDbVertex
100
AcDb2dVertex
 10
79.21290823757525
 20
-100.5928263094872
 30
0.0
  0
VERTEX
  5
13C
330
12D
100
AcDbEntity
  8
VALLEYLINE
  6
AI-LINETYPE-9
 62
     7
100
AcDbVertex
100
AcDb2dVertex
 10
74.49846732078511
 20
-101.0114054109451
 30
0.0
  0
VERTEX
  5
13D
330
12D
100
AcDbEntity
  8
VALLEYLINE
  6
AI-LINETYPE-9
 62
     7
100
AcDbVertex
100
AcDb2dVertex
 10
69.8624023262844
 20
-101.2818454065372
 30
0.0
  0
VERTEX
  5
13E
330
12D
100
AcDbEntity
  8
VALLEYLINE
  6
AI-LINETYPE-9
 62
     7
100
AcDbVertex
100
AcDb2dVertex
 10
65.5069403590573
 20
-101.6706244320476
 30
0.0
  0
VERTEX
  5
13F
330
12D
100
AcDbEntity
  8
VALLEYLINE
  6
AI-LINETYPE-9
 62
     7
100
AcDbVertex
100
AcDb2dVertex
 10
61.20436060752878
 20
-102.4430148398406
 30
0.0
  0
VERTEX
  5
140
330
12D
100
AcDbEntity
  8
VALLEYLINE
  6
AI-LINETYPE-9
 62
     7
100
AcDbVertex
100
AcDb2dVertex
 10
57.12071667408788
 20
-103.3831813977653
 30
0.0
  0
VERTEX
  5
141
330
12D
100
AcDbEntity
  8
VALLEYLINE
  6
AI-LINETYPE-9
 62
     7
100
AcDbVertex
100
AcDb2dVertex
 10
53.70266518839725
 20
-104.2733940711539
 30
0.0
  0
VERTEX
  5
142
330
12D
100
AcDbEntity
  8
VALLEYLINE
  6
AI-LINETYPE-9
 62
     7
100
AcDbVertex
100
AcDb2dVertex
 10
50.46703150865061
 20
-105.1394910761457
 30
0.0
  0
SEQEND
  5
143
330
12D
100
AcDbEntity
  8
VALLEYLINE
  6
AI-LINETYPE-9
  0
POLYLINE
  5
145
330
1F
100
AcDbEntity
  8
VALLEYLINE
  6
AI-LINETYPE-10
 62
     7
100
AcDb2dPolyline
 66
     1
 10
0.0
 20
0.0
 30
0.0
  0
VERTEX
  5
146
330
145
100
AcDbEntity
  8
VALLEYLINE
  6
AI-LINETYPE-10
 62
     7
100
AcDbVertex
100
AcDb2dVertex
 10
153.6805419537674
 20
-85.06423066449784
 30
0.0
  0
VERTEX
  5
147
330
145
100
AcDbEntity
  8
VALLEYLINE
  6
AI-LINETYPE-10
 62
     7
100
AcDbVertex
100
AcDb2dVertex
 10
147.5841009830692
 20
-83.43073864016662
 30
0.0
  0
VERTEX
  5
148
330
145
100
AcDbEntity
  8
VALLEYLINE
  6
AI-LINETYPE-10
 62
     7
100
AcDbVertex
100
AcDb2dVertex
 10
141.3126491617205
 20
-81.76245115143439
 30
0.0
  0
VERTEX
  5
149
330
145
100
AcDbEntity
  8
VALLEYLINE
  6
AI-LINETYPE-10
 62
     7
100
AcDbVertex
100
AcDb2dVertex
 10
134.4403726877441
 20
-80.02577851731995
 30
0.0
  0
VERTEX
  5
14A
330
145
100
AcDbEntity
  8
VALLEYLINE
  6
AI-LINETYPE-10
 62
     7
100
AcDbVertex
100
AcDb2dVertex
 10
127.461298253725
 20
-78.47031790572964
 30
0.0
  0
VERTEX
  5
14B
330
145
100
AcDbEntity
  8
VALLEYLINE
  6
AI-LINETYPE-10
 62
     7
100
AcDbVertex
100
AcDb2dVertex
 10
120.5080620358452
 20
-77.34893932528082
 30
0.0
  0
VERTEX
  5
14C
330
145
100
AcDbEntity
  8
VALLEYLINE
  6
AI-LINETYPE-10
 62
     7
100
AcDbVertex
100
AcDb2dVertex
 10
113.9148382961741
 20
-76.71900361580289
 30
0.0
  0
VERTEX
  5
14D
330
145
100
AcDbEntity
  8
VALLEYLINE
  6
AI-LINETYPE-10
 62
     7
100
AcDbVertex
100
AcDb2dVertex
 10
108.2042480198239
 20
-76.64011092919067
 30
0.0
  0
VERTEX
  5
14E
330
145
100
AcDbEntity
  8
VALLEYLINE
  6
AI-LINETYPE-10
 62
     7
100
AcDbVertex
100
AcDb2dVertex
 10
102.7336086440215
 20
-76.99926213352796
 30
0.0
  0
VERTEX
  5
14F
330
145
100
AcDbEntity
  8
VALLEYLINE
  6
AI-LINETYPE-10
 62
     7
100
AcDbVertex
100
AcDb2dVertex
 10
97.15307072223952
 20
-77.68345809689859
 30
0.0
  0
VERTEX
  5
150
330
145
100
AcDbEntity
  8
VALLEYLINE
  6
AI-LINETYPE-10
 62
     7
100
AcDbVertex
100
AcDb2dVertex
 10
91.91997068014501
 20
-78.44602998255864
 30
0.0
  0
VERTEX
  5
151
330
145
100
AcDbEntity
  8
VALLEYLINE
  6
AI-LINETYPE-10
 62
     7
100
AcDbVertex
100
AcDb2dVertex
 10
87.6954223413574
 20
-79.04168699195833
 30
0.0
  0
VERTEX
  5
152
330
145
100
AcDbEntity
  8
VALLEYLINE
  6
AI-LINETYPE-10
 62
     7
100
AcDbVertex
100
AcDb2dVertex
 10
83.71874862273351
 20
-79.54846053783858
 30
0.0
  0
VERTEX
  5
153
330
145
100
AcDbEntity
  8
VALLEYLINE
  6
AI-LINETYPE-10
 62
     7
100
AcDbVertex
100
AcDb2dVertex
 10
79.21290823757525
 20
-80.04541556158587
 30
0.0
  0
VERTEX
  5
154
330
145
100
AcDbEntity
  8
VALLEYLINE
  6
AI-LINETYPE-10
 62
     7
100
AcDbVertex
100
AcDb2dVertex
 10
74.49846732078511
 20
-80.46365015349521
 30
0.0
  0
VERTEX
  5
155
330
145
100
AcDbEntity
  8
VALLEYLINE
  6
AI-LINETYPE-10
 62
     7
100
AcDbVertex
100
AcDb2dVertex
 10
69.8624023262844
 20
-80.73409014908731
 30
0.0
  0
VERTEX
  5
156
330
145
100
AcDbEntity
  8
VALLEYLINE
  6
AI-LINETYPE-10
 62
     7
100
AcDbVertex
100
AcDb2dVertex
 10
65.5069403590573
 20
-81.12286917459775
 30
0.0
  0
VERTEX
  5
157
330
145
100
AcDbEntity
  8
VALLEYLINE
  6
AI-LINETYPE-10
 62
     7
100
AcDbVertex
100
AcDb2dVertex
 10
61.20436060752878
 20
-81.89525958239078
 30
0.0
  0
VERTEX
  5
158
330
145
100
AcDbEntity
  8
VALLEYLINE
  6
AI-LINETYPE-10
 62
     7
100
AcDbVertex
100
AcDb2dVertex
 10
57.12071667408788
 20
-82.83508163076692
 30
0.0
  0
VERTEX
  5
159
330
145
100
AcDbEntity
  8
VALLEYLINE
  6
AI-LINETYPE-10
 62
     7
100
AcDbVertex
100
AcDb2dVertex
 10
53.70266518839725
 20
-83.72563881370401
 30
0.0
  0
VERTEX
  5
15A
330
145
100
AcDbEntity
  8
VALLEYLINE
  6
AI-LINETYPE-10
 62
     7
100
AcDbVertex
100
AcDb2dVertex
 10
50.46703150865061
 20
-84.5913913091473
 30
0.0
  0
SEQEND
  5
15B
330
145
100
AcDbEntity
  8
VALLEYLINE
  6
AI-LINETYPE-10
  0
POLYLINE
  5
15D
330
1F
100
AcDbEntity
  8
VALLEYLINE
  6
AI-LINETYPE-11
 62
     7
100
AcDb2dPolyline
 66
     1
 10
0.0
 20
0.0
 30
0.0
  0
VERTEX
  5
15E
330
15D
100
AcDbEntity
  8
VALLEYLINE
  6
AI-LINETYPE-11
 62
     7
100
AcDbVertex
100
AcDb2dVertex
 10
153.6805419537674
 20
-64.51613089749944
 30
0.0
  0
VERTEX
  5
15F
330
15D
100
AcDbEntity
  8
VALLEYLINE
  6
AI-LINETYPE-11
 62
     7
100
AcDbVertex
100
AcDb2dVertex
 10
147.5841009830692
 20
-62.8828111279425
 30
0.0
  0
VERTEX
  5
160
330
15D
100
AcDbEntity
  8
VALLEYLINE
  6
AI-LINETYPE-11
 62
     7
100
AcDbVertex
100
AcDb2dVertex
 10
141.3126491617205
 20
-61.21469589398453
 30
0.0
  0
VERTEX
  5
161
330
15D
100
AcDbEntity
  8
VALLEYLINE
  6
AI-LINETYPE-11
 62
     7
100
AcDbVertex
100
AcDb2dVertex
 10
134.4403726877441
 20
-59.47767875032156
 30
0.0
  0
VERTEX
  5
162
330
15D
100
AcDbEntity
  8
VALLEYLINE
  6
AI-LINETYPE-11
 62
     7
100
AcDbVertex
100
AcDb2dVertex
 10
127.461298253725
 20
-57.92290715782831
 30
0.0
  0
VERTEX
  5
163
330
15D
100
AcDbEntity
  8
VALLEYLINE
  6
AI-LINETYPE-11
 62
     7
100
AcDbVertex
100
AcDb2dVertex
 10
120.5080620358452
 20
-56.80118406783096
 30
0.0
  0
VERTEX
  5
164
330
15D
100
AcDbEntity
  8
VALLEYLINE
  6
AI-LINETYPE-11
 62
     7
100
AcDbVertex
100
AcDb2dVertex
 10
113.9148382961741
 20
-56.1709038488045
 30
0.0
  0
VERTEX
  5
165
330
15D
100
AcDbEntity
  8
VALLEYLINE
  6
AI-LINETYPE-11
 62
     7
100
AcDbVertex
100
AcDb2dVertex
 10
108.2042480198239
 20
-56.0923556717408
 30
0.0
  0
VERTEX
  5
166
330
15D
100
AcDbEntity
  8
VALLEYLINE
  6
AI-LINETYPE-11
 62
     7
100
AcDbVertex
100
AcDb2dVertex
 10
102.7336086440215
 20
-56.45185138562663
 30
0.0
  0
VERTEX
  5
167
330
15D
100
AcDbEntity
  8
VALLEYLINE
  6
AI-LINETYPE-11
 62
     7
100
AcDbVertex
100
AcDb2dVertex
 10
97.15307072223952
 20
-57.13553058467446
 30
0.0
  0
VERTEX
  5
168
330
15D
100
AcDbEntity
  8
VALLEYLINE
  6
AI-LINETYPE-11
 62
     7
100
AcDbVertex
100
AcDb2dVertex
 10
91.91997068014501
 20
-57.89827472510877
 30
0.0
  0
VERTEX
  5
169
330
15D
100
AcDbEntity
  8
VALLEYLINE
  6
AI-LINETYPE-11
 62
     7
100
AcDbVertex
100
AcDb2dVertex
 10
87.6954223413574
 20
-58.49358722495994
 30
0.0
  0
VERTEX
  5
16A
330
15D
100
AcDbEntity
  8
VALLEYLINE
  6
AI-LINETYPE-11
 62
     7
100
AcDbVertex
100
AcDb2dVertex
 10
83.71874862273351
 20
-59.00070528038871
 30
0.0
  0
VERTEX
  5
16B
330
15D
100
AcDbEntity
  8
VALLEYLINE
  6
AI-LINETYPE-11
 62
     7
100
AcDbVertex
100
AcDb2dVertex
 10
79.21290823757525
 20
-59.49731579458748
 30
0.0
  0
VERTEX
  5
16C
330
15D
100
AcDbEntity
  8
VALLEYLINE
  6
AI-LINETYPE-11
 62
     7
100
AcDbVertex
100
AcDb2dVertex
 10
74.49846732078511
 20
-59.91555038649681
 30
0.0
  0
VERTEX
  5
16D
330
15D
100
AcDbEntity
  8
VALLEYLINE
  6
AI-LINETYPE-11
 62
     7
100
AcDbVertex
100
AcDb2dVertex
 10
69.8624023262844
 20
-60.18633489163744
 30
0.0
  0
VERTEX
  5
16E
330
15D
100
AcDbEntity
  8
VALLEYLINE
  6
AI-LINETYPE-11
 62
     7
100
AcDbVertex
100
AcDb2dVertex
 10
65.5069403590573
 20
-60.57476940759937
 30
0.0
  0
VERTEX
  5
16F
330
15D
100
AcDbEntity
  8
VALLEYLINE
  6
AI-LINETYPE-11
 62
     7
100
AcDbVertex
100
AcDb2dVertex
 10
61.20436060752878
 20
-61.34784883448943
 30
0.0
  0
VERTEX
  5
170
330
15D
100
AcDbEntity
  8
VALLEYLINE
  6
AI-LINETYPE-11
 62
     7
100
AcDbVertex
100
AcDb2dVertex
 10
57.12071667408788
 20
-62.28732637331706
 30
0.0
  0
VERTEX
  5
171
330
15D
100
AcDbEntity
  8
VALLEYLINE
  6
AI-LINETYPE-11
 62
     7
100
AcDbVertex
100
AcDb2dVertex
 10
53.70266518839725
 20
-63.17788355625414
 30
0.0
  0
VERTEX
  5
172
330
15D
100
AcDbEntity
  8
VALLEYLINE
  6
AI-LINETYPE-11
 62
     7
100
AcDbVertex
100
AcDb2dVertex
 10
50.46703150865061
 20
-64.04363605169743
 30
0.0
  0
SEQEND
  5
173
330
15D
100
AcDbEntity
  8
VALLEYLINE
  6
AI-LINETYPE-11
  0
POLYLINE
  5
175
330
1F
100
AcDbEntity
  8
VALLEYLINE
  6
AI-LINETYPE-12
 62
     7
100
AcDb2dPolyline
 66
     1
 10
0.0
 20
0.0
 30
0.0
  0
VERTEX
  5
176
330
175
100
AcDbEntity
  8
VALLEYLINE
  6
AI-LINETYPE-12
 62
     7
100
AcDbVertex
100
AcDb2dVertex
 10
153.6805419537674
 20
-43.96837564004957
 30
0.0
  0
VERTEX
  5
177
330
175
100
AcDbEntity
  8
VALLEYLINE
  6
AI-LINETYPE-12
 62
     7
100
AcDbVertex
100
AcDb2dVertex
 10
147.5841009830692
 20
-42.33471136094411
 30
0.0
  0
VERTEX
  5
178
330
175
100
AcDbEntity
  8
VALLEYLINE
  6
AI-LINETYPE-12
 62
     7
100
AcDbVertex
100
AcDb2dVertex
 10
141.3126491617205
 20
-40.66694063653465
 30
0.0
  0
VERTEX
  5
179
330
175
100
AcDbEntity
  8
VALLEYLINE
  6
AI-LINETYPE-12
 62
     7
100
AcDbVertex
100
AcDb2dVertex
 10
134.4403726877441
 20
-38.93026800242021
 30
0.0
  0
VERTEX
  5
17A
330
175
100
AcDbEntity
  8
VALLEYLINE
  6
AI-LINETYPE-12
 62
     7
100
AcDbVertex
100
AcDb2dVertex
 10
127.461298253725
 20
-37.37515190037843
 30
0.0
  0
VERTEX
  5
17B
330
175
100
AcDbEntity
  8
VALLEYLINE
  6
AI-LINETYPE-12
 62
     7
100
AcDbVertex
100
AcDb2dVertex
 10
120.5080620358452
 20
-36.2529120460583
 30
0.0
  0
VERTEX
  5
17C
330
175
100
AcDbEntity
  8
VALLEYLINE
  6
AI-LINETYPE-12
 62
     7
100
AcDbVertex
100
AcDb2dVertex
 10
113.9148382961741
 20
-35.62314859135463
 30
0.0
  0
VERTEX
  5
17D
330
175
100
AcDbEntity
  8
VALLEYLINE
  6
AI-LINETYPE-12
 62
     7
100
AcDbVertex
100
AcDb2dVertex
 10
108.2042480198239
 20
-35.54460041429093
 30
0.0
  0
VERTEX
  5
17E
330
175
100
AcDbEntity
  8
VALLEYLINE
  6
AI-LINETYPE-12
 62
     7
100
AcDbVertex
100
AcDb2dVertex
 10
102.7336086440215
 20
-35.90357936385396
 30
0.0
  0
VERTEX
  5
17F
330
175
100
AcDbEntity
  8
VALLEYLINE
  6
AI-LINETYPE-12
 62
     7
100
AcDbVertex
100
AcDb2dVertex
 10
97.15307072223952
 20
-36.58777532722458
 30
0.0
  0
VERTEX
  5
180
330
175
100
AcDbEntity
  8
VALLEYLINE
  6
AI-LINETYPE-12
 62
     7
100
AcDbVertex
100
AcDb2dVertex
 10
91.91997068014501
 20
-37.3505194676589
 30
0.0
  0
VERTEX
  5
181
330
175
100
AcDbEntity
  8
VALLEYLINE
  6
AI-LINETYPE-12
 62
     7
100
AcDbVertex
100
AcDb2dVertex
 10
87.6954223413574
 20
-37.94617647705859
 30
0.0
  0
VERTEX
  5
182
330
175
100
AcDbEntity
  8
VALLEYLINE
  6
AI-LINETYPE-12
 62
     7
100
AcDbVertex
100
AcDb2dVertex
 10
83.71874862273351
 20
-38.45243325861606
 30
0.0
  0
VERTEX
  5
183
330
175
100
AcDbEntity
  8
VALLEYLINE
  6
AI-LINETYPE-12
 62
     7
100
AcDbVertex
100
AcDb2dVertex
 10
79.21290823757525
 20
-38.94990504668613
 30
0.0
  0
VERTEX
  5
184
330
175
100
AcDbEntity
  8
VALLEYLINE
  6
AI-LINETYPE-12
 62
     7
100
AcDbVertex
100
AcDb2dVertex
 10
74.49846732078511
 20
-39.36779512904694
 30
0.0
  0
VERTEX
  5
185
330
175
100
AcDbEntity
  8
VALLEYLINE
  6
AI-LINETYPE-12
 62
     7
100
AcDbVertex
100
AcDb2dVertex
 10
69.8624023262844
 20
-39.63857963418758
 30
0.0
  0
VERTEX
  5
186
330
175
100
AcDbEntity
  8
VALLEYLINE
  6
AI-LINETYPE-12
 62
     7
100
AcDbVertex
100
AcDb2dVertex
 10
65.5069403590573
 20
-40.0270141501495
 30
0.0
  0
VERTEX
  5
187
330
175
100
AcDbEntity
  8
VALLEYLINE
  6
AI-LINETYPE-12
 62
     7
100
AcDbVertex
100
AcDb2dVertex
 10
61.20436060752878
 20
-40.79974906749104
 30
0.0
  0
VERTEX
  5
188
330
175
100
AcDbEntity
  8
VALLEYLINE
  6
AI-LINETYPE-12
 62
     7
100
AcDbVertex
100
AcDb2dVertex
 10
57.12071667408788
 20
-41.73939886109293
 30
0.0
  0
VERTEX
  5
189
330
175
100
AcDbEntity
  8
VALLEYLINE
  6
AI-LINETYPE-12
 62
     7
100
AcDbVertex
100
AcDb2dVertex
 10
53.70266518839725
 20
-42.62978378925575
 30
0.0
  0
VERTEX
  5
18A
330
175
100
AcDbEntity
  8
VALLEYLINE
  6
AI-LINETYPE-12
 62
     7
100
AcDbVertex
100
AcDb2dVertex
 10
50.46703150865061
 20
-43.49622530379609
 30
0.0
  0
SEQEND
  5
18B
330
175
100
AcDbEntity
  8
VALLEYLINE
  6
AI-LINETYPE-12
  0
INSERT
  5
18F
330
1F
100
AcDbEntity
  8
MOUNTAINLINE
100
AcDbBlockReference
  2
BLOCK_7
 10
0.0
 20
0.0
 30
0.0
  0
INSERT
  5
197
330
1F
100
AcDbEntity
  8
MOUNTAINLINE
100
AcDbBlockReference
  2
BLOCK_8
 10
0.0
 20
0.0
 30
0.0
  0
INSERT
  5
19F
330
1F
100
AcDbEntity
  8
MOUNTAINLINE
100
AcDbBlockReference
  2
BLOCK_9
 10
0.0
 20
0.0
 30
0.0
  0
INSERT
  5
1A7
330
1F
100
AcDbEntity
  8
MOUNTAINLINE
100
AcDbBlockReference
  2
BLOCK_10
 10
0.0
 20
0.0
 30
0.0
  0
INSERT
  5
1AF
330
1F
100
AcDbEntity
  8
MOUNTAINLINE
100
AcDbBlockReference
  2
BLOCK_11
 10
0.0
 20
0.0
 30
0.0
  0
INSERT
  5
1B7
330
1F
100
AcDbEntity
  8
MOUNTAINLINE
100
AcDbBlockReference
  2
BLOCK_12
 10
0.0
 20
0.0
 30
0.0
  0
INSERT
  5
1BF
330
1F
100
AcDbEntity
  8
MOUNTAINLINE
100
AcDbBlockReference
  2
BLOCK_13
 10
0.0
 20
0.0
 30
0.0
  0
INSERT
  5
1C7
330
1F
100
AcDbEntity
  8
MOUNTAINLINE
100
AcDbBlockReference
  2
BLOCK_14
 10
0.0
 20
0.0
 30
0.0
  0
INSERT
  5
1CF
330
1F
100
AcDbEntity
  8
MOUNTAINLINE
100
AcDbBlockReference
  2
BLOCK_15
 10
0.0
 20
0.0
 30
0.0
  0
INSERT
  5
1D7
330
1F
100
AcDbEntity
  8
MOUNTAINLINE
100
AcDbBlockReference
  2
BLOCK_16
 10
0.0
 20
0.0
 30
0.0
  0
INSERT
  5
1DF
330
1F
100
AcDbEntity
  8
MOUNTAINLINE
100
AcDbBlockReference
  2
BLOCK_17
 10
0.0
 20
0.0
 30
0.0
  0
MTEXT
  5
1E7
330
1F
100
AcDbEntity
  8
TEXT
 62
     7
100
AcDbMText
 10
152.5092094887824
 20
-287.6096624715004
 30
0.0
 40
3.358444443604833
 41
0.0
 71
     7
 72
     1
  1
\fArial|b0|i0|c0|p34;\W1;(c) 2016 Jun Mitani
  0
MTEXT
  5
1E8
330
1F
100
AcDbEntity
  8
TEXT
 62
     7
100
AcDbMText
 10
10.83448079156221
 20
-14.85542398717156
 30
0.0
 40
4.3179999989205
 41
0.0
 71
     7
 72
     1
  1
\fArial|b0|i0|c0|p34;\W1;Pear
  0
ENDSEC
  0
SECTION
  2
OBJECTS
  0
DICTIONARY
  5
C
330
0
100
AcDbDictionary
  3
ACAD_GROUP
350
D
  3
ACAD_LAYOUT
350
1A
  3
ACAD_MLINESTYLE
350
17
  3
ACAD_PLOTSETTINGS
350
19
  3
ACAD_TABLESTYLE
350
1ED
  3
ACAD_VISUALSTYLE
350
2A
1001
ACAD
1000
TREAT_AS_HARD
1070
     0
  0
DICTIONARY
  5
D
102
{ACAD_REACTORS
330
C
102
}
330
C
100
AcDbDictionary
1001
ACAD
1000
TREAT_AS_HARD
1070
     0
  0
DICTIONARY
  5
1A
102
{ACAD_REACTORS
330
C
102
}
330
C
100
AcDbDictionary
1001
ACAD
1000
TREAT_AS_HARD
1070
     0
  0
DICTIONARY
  5
17
102
{ACAD_REACTORS
330
C
102
}
330
C
100
AcDbDictionary
  3
STANDARD
350
18
1001
ACAD
1000
TREAT_AS_HARD
1070
     0
  0
DICTIONARY
  5
19
102
{ACAD_REACTORS
330
C
102
}
330
C
100
AcDbDictionary
1001
ACAD
1000
TREAT_AS_HARD
1070
     0
  0
DICTIONARY
  5
1ED
102
{ACAD_REACTORS
330
C
102
}
330
C
100
AcDbDictionary
1001
ACAD
1000
TREAT_AS_HARD
1070
     0
  0
DICTIONARY
  5
2A
102
{ACAD_REACTORS
330
C
102
}
330
C
100
AcDbDictionary
  3
2DWIREFRAME
350
2F
  3
3D_HIDDEN
350
31
  3
3DWIREFRAME
350
30
  3
BASIC
350
32
  3
BRIGHTEN
350
36
  3
COLORCHANGE
350
3A
  3
CONCEPTUAL
350
34
  3
DIM
350
35
  3
FACEPATTERN
350
39
  3
FLAT
350
2B
  3
FLATWITHEDGES
350
2C
  3
GOURAUD
350
2D
  3
GOURAUDWITHEDGES
350
2E
  3
LINEPATTERN
350
38
  3
REALISTIC
350
33
  3
THICKEN
350
37
1001
ACAD
1000
TREAT_AS_HARD
1070
     0
  0
MLINESTYLE
  5
18
102
{ACAD_REACTORS
330
17
102
}
330
17
100
AcDbMlineStyle
  2
Standard
 70
     0
  3

 62
   256
 51
90.0
 52
90.0
 71
     2
 49
0.5
 62
   256
  6
BYLAYER
 49
-0.5
 62
   256
  6
BYLAYER
  0
VISUALSTYLE
  5
2F
102
{ACAD_REACTORS
330
2A
102
}
330
2A
100
AcDbVisualStyle
  2
2dWireframe
 70
     4
 71
     0
 72
     2
 73
     0
 90
        0
 40
-0.6
 41
-30.0
 62
     5
 63
     7
 74
     1
 91
        4
 64
     7
 65
   257
 75
     1
175
     1
 42
1.0
 92
        0
 66
   257
 43
1.0
 76
     1
 77
     6
 78
     2
 67
     7
 79
     5
170
     0
171
     0
290
     0
174
     0
 93
        1
 44
0.0
173
     0
291
     0
 45
0.0
1001
ACAD
1000
AcDbSavedByObjectVersion
1070
     0
  0
VISUALSTYLE
  5
31
102
{ACAD_REACTORS
330
2A
102
}
330
2A
100
AcDbVisualStyle
  2
3D Hidden
 70
     6
 71
     1
 72
     2
 73
     2
 90
        0
 40
-0.6
 41
-30.0
 62
     5
 63
     7
 74
     2
 91
        2
 64
     7
 65
   257
 75
     2
175
     1
 42
40.0
 92
        0
 66
   257
 43
1.0
 76
     1
 77
     6
 78
     2
 67
     7
 79
     3
170
     0
171
     0
290
     0
174
     0
 93
        1
 44
0.0
173
     0
291
     0
 45
0.0
1001
ACAD
1000
AcDbSavedByObjectVersion
1070
     0
  0
VISUALSTYLE
  5
30
102
{ACAD_REACTORS
330
2A
102
}
330
2A
100
AcDbVisualStyle
  2
3dWireframe
 70
     5
 71
     0
 72
     2
 73
     0
 90
        0
 40
-0.6
 41
-30.0
 62
     5
 63
     7
 74
     1
 91
        4
 64
     7
 65
   257
 75
     1
175
     1
 42
1.0
 92
        0
 66
   257
 43
1.0
 76
     1
 77
     6
 78
     2
 67
     7
 79
     5
170
     0
171
     0
290
     0
174
     0
 93
        1
 44
0.0
173
     0
291
     0
 45
0.0
1001
ACAD
1000
AcDbSavedByObjectVersion
1070
     0
  0
VISUALSTYLE
  5
32
102
{ACAD_REACTORS
330
2A
102
}
330
2A
100
AcDbVisualStyle
  2
Basic
 70
     7
 71
     1
 72
     0
 73
     1
 90
        0
 40
-0.6
 41
-30.0
 62
     5
 63
     7
 74
     0
 91
        4
 64
     7
 65
   257
 75
     1
175
     1
 42
1.0
 92
        8
 66
     7
 43
1.0
 76
     1
 77
     6
 78
     2
 67
     7
 79
     5
170
     0
171
     0
290
     0
174
     0
 93
        1
 44
0.0
173
     0
291
     1
 45
0.0
1001
ACAD
1000
AcDbSavedByObjectVersion
1070
     0
  0
VISUALSTYLE
  5
36
102
{ACAD_REACTORS
330
2A
102
}
330
2A
100
AcDbVisualStyle
  2
Brighten
 70
    12
 71
     2
 72
     2
 73
     0
 90
        0
 40
-0.6
 41
-30.0
 62
     5
 63
     7
 74
     1
 91
        4
 64
     7
 65
   257
 75
     1
175
     1
 42
1.0
 92
        8
 66
     7
 43
1.0
 76
     1
 77
     6
 78
     2
 67
     7
 79
     5
170
     0
171
     0
290
     0
174
     0
 93
        1
 44
50.0
173
     0
291
     1
 45
0.0
1001
ACAD
1000
AcDbSavedByObjectVersion
1070
     0
  0
VISUALSTYLE
  5
3A
102
{ACAD_REACTORS
330
2A
102
}
330
2A
100
AcDbVisualStyle
  2
ColorChange
 70
    16
 71
     2
 72
     2
 73
     3
 90
        0
 40
-0.6
 41
-30.0
 62
     5
 63
     8
 74
     1
 91
        4
 64
     7
 65
   257
 75
     1
175
     1
 42
1.0
 92
        8
 66
     8
 43
1.0
 76
     1
 77
     6
 78
     2
 67
     7
 79
     5
170
     0
171
     0
290
     0
174
     0
 93
        1
 44
0.0
173
     0
291
     1
 45
0.0
1001
ACAD
1000
AcDbSavedByObjectVersion
1070
     0
  0
VISUALSTYLE
  5
34
102
{ACAD_REACTORS
330
2A
102
}
330
2A
100
AcDbVisualStyle
  2
Conceptual
 70
     9
 71
     3
 72
     2
 73
     0
 90
        0
 40
-0.6
 41
-30.0
 62
     5
 63
     7
 74
     2
 91
        2
 64
     7
 65
   257
 75
     1
175
     1
 42
40.0
 92
        8
 66
     7
 43
1.0
 76
     1
 77
     6
 78
     2
 67
     7
 79
     3
170
     0
171
     0
290
     0
174
     0
 93
        1
 44
0.0
173
     0
291
     0
 45
0.0
1001
ACAD
1000
AcDbSavedByObjectVersion
1070
     0
  0
VISUALSTYLE
  5
35
102
{ACAD_REACTORS
330
2A
102
}
330
2A
100
AcDbVisualStyle
  2
Dim
 70
    11
 71
     2
 72
     2
 73
     0
 90
        0
 40
-0.6
 41
-30.0
 62
     5
 63
     7
 74
     1
 91
        4
 64
     7
 65
   257
 75
     1
175
     1
 42
1.0
 92
        8
 66
     7
 43
1.0
 76
     1
 77
     6
 78
     2
 67
     7
 79
     5
170
     0
171
     0
290
     0
174
     0
 93
        1
 44
-50.0
173
     0
291
     1
 45
0.0
1001
ACAD
1000
AcDbSavedByObjectVersion
1070
     0
  0
VISUALSTYLE
  5
39
102
{ACAD_REACTORS
330
2A
102
}
330
2A
100
AcDbVisualStyle
  2
Facepattern
 70
    15
 71
     2
 72
     2
 73
     0
 90
        0
 40
-0.6
 41
-30.0
 62
     5
 63
     7
 74
     1
 91
        4
 64
     7
 65
   257
 75
     1
175
     1
 42
1.0
 92
        8
 66
     7
 43
1.0
 76
     1
 77
     6
 78
     2
 67
     7
 79
     5
170
     0
171
     0
290
     0
174
     0
 93
        1
 44
0.0
173
     0
291
     1
 45
0.0
1001
ACAD
1000
AcDbSavedByObjectVersion
1070
     0
  0
VISUALSTYLE
  5
2B
102
{ACAD_REACTORS
330
2A
102
}
330
2A
100
AcDbVisualStyle
  2
Flat
 70
     0
 71
     2
 72
     1
 73
     1
 90
        2
 40
-0.6
 41
30.0
 62
     5
 63
     7
 74
     0
 91
        4
 64
     7
 65
   257
 75
     1
175
     1
 42
1.0
 92
        8
 66
     7
 43
1.0
 76
     1
 77
     6
 78
     2
 67
     7
 79
     5
170
     0
171
     0
290
     0
174
     0
 93
       13
 44
0.0
173
     0
291
     1
 45
0.0
1001
ACAD
1000
AcDbSavedByObjectVersion
1070
     0
  0
VISUALSTYLE
  5
2C
102
{ACAD_REACTORS
330
2A
102
}
330
2A
100
AcDbVisualStyle
  2
FlatWithEdges
 70
     1
 71
     2
 72
     1
 73
     1
 90
        2
 40
-0.6
 41
30.0
 62
     5
 63
     7
 74
     1
 91
        4
 64
     7
 65
   257
 75
     1
175
     1
 42
1.0
 92
        0
 66
   257
 43
1.0
 76
     1
 77
     6
 78
     2
 67
     7
 79
     5
170
     0
171
     0
290
     0
174
     0
 93
       13
 44
0.0
173
     0
291
     1
 45
0.0
1001
ACAD
1000
AcDbSavedByObjectVersion
1070
     0
  0
VISUALSTYLE
  5
2D
102
{ACAD_REACTORS
330
2A
102
}
330
2A
100
AcDbVisualStyle
  2
Gouraud
 70
     2
 71
     2
 72
     2
 73
     1
 90
        2
 40
-0.6
 41
30.0
 62
     5
 63
     7
 74
     0
 91
        4
 64
     7
 65
   257
 75
     1
175
     1
 42
1.0
 92
        0
 66
     7
 43
1.0
 76
     1
 77
     6
 78
     2
 67
     7
 79
     5
170
     0
171
     0
290
     0
174
     0
 93
       13
 44
0.0
173
     0
291
     1
 45
0.0
1001
ACAD
1000
AcDbSavedByObjectVersion
1070
     0
  0
VISUALSTYLE
  5
2E
102
{ACAD_REACTORS
330
2A
102
}
330
2A
100
AcDbVisualStyle
  2
GouraudWithEdges
 70
     3
 71
     2
 72
     2
 73
     1
 90
        2
 40
-0.6
 41
30.0
 62
     5
 63
     7
 74
     1
 91
        4
 64
     7
 65
   257
 75
     1
175
     1
 42
1.0
 92
        0
 66
   257
 43
1.0
 76
     1
 77
     6
 78
     2
 67
     7
 79
     5
170
     0
171
     0
290
     0
174
     0
 93
       13
 44
0.0
173
     0
291
     1
 45
0.0
1001
ACAD
1000
AcDbSavedByObjectVersion
1070
     0
  0
VISUALSTYLE
  5
38
102
{ACAD_REACTORS
330
2A
102
}
330
2A
100
AcDbVisualStyle
  2
Linepattern
 70
    14
 71
     2
 72
     2
 73
     0
 90
        0
 40
-0.6
 41
-30.0
 62
     5
 63
     7
 74
     1
 91
        4
 64
     7
 65
   257
 75
     7
175
     7
 42
1.0
 92
        8
 66
     7
 43
1.0
 76
     1
 77
     6
 78
     2
 67
     7
 79
     5
170
     0
171
     0
290
     0
174
     0
 93
        1
 44
0.0
173
     0
291
     1
 45
0.0
1001
ACAD
1000
AcDbSavedByObjectVersion
1070
     0
  0
VISUALSTYLE
  5
33
102
{ACAD_REACTORS
330
2A
102
}
330
2A
100
AcDbVisualStyle
  2
Realistic
 70
     8
 71
     2
 72
     2
 73
     0
 90
        0
 40
-0.6
 41
-30.0
 62
     5
 63
     7
 74
     1
 91
        0
 64
     7
 65
   257
 75
     1
175
     1
 42
1.0
 92
        8
 66
     8
 43
1.0
 76
     1
 77
     6
 78
     2
 67
     7
 79
     5
170
     0
171
     0
290
     0
174
     0
 93
       13
 44
0.0
173
     0
291
     0
 45
0.0
1001
ACAD
1000
AcDbSavedByObjectVersion
1070
     0
  0
VISUALSTYLE
  5
37
102
{ACAD_REACTORS
330
2A
102
}
330
2A
100
AcDbVisualStyle
  2
Thicken
 70
    13
 71
     2
 72
     2
 73
     0
 90
        0
 40
-0.6
 41
-30.0
 62
     5
 63
     7
 74
     1
 91
        4
 64
     7
 65
   257
 75
     1
175
     1
 42
1.0
 92
       12
 66
     7
 43
1.0
 76
     1
 77
     6
 78
     2
 67
     7
 79
     5
170
     0
171
     0
290
     0
174
     0
 93
        1
 44
0.0
173
     0
291
     1
 45
0.0
1001
ACAD
1000
AcDbSavedByObjectVersion
1070
     0
  0
ENDSEC
  0
EOF
