  0
SECTION
  2
HEADER
  9
$ACADVER
  1
AC1012
  9
$DWGCODEPAGE
  3
ansi_932
  9
$INSBASE
 10
0.0
 20
0.0
 30
0.0
  9
$EXTMIN
 10
1.000000000000000E+20
 20
1.000000000000000E+20
 30
1.000000000000000E+20
  9
$EXTMAX
 10
-1.000000000000000E+20
 20
-1.000000000000000E+20
 30
-1.000000000000000E+20
  9
$LIMMIN
 10
0.0
 20
0.0
  9
$LIMMAX
 10
12.0
 20
9.0
  9
$ORTHOMODE
 70
     0
  9
$REGENMODE
 70
     1
  9
$FILLMODE
 70
     1
  9
$QTEXTMODE
 70
     0
  9
$MIRRTEXT
 70
     1
  9
$DRAGMODE
 70
     2
  9
$LTSCALE
 40
1.0
  9
$OSMODE
 70
    37
  9
$ATTMODE
 70
     1
  9
$TEXTSIZE
 40
0.2
  9
$TRACEWID
 40
0.05
  9
$TEXTSTYLE
  7
STANDARD
  9
$CLAYER
  8
0
  9
$CELTYPE
  6
BYLAYER
  9
$CECOLOR
 62
   256
  9
$CELTSCALE
 40
1.0
  9
$DELOBJ
 70
     1
  9
$DISPSILH
 70
     0
  9
$DIMSCALE
 40
1.0
  9
$DIMASZ
 40
0.18
  9
$DIMEXO
 40
0.0625
  9
$DIMDLI
 40
0.38
  9
$DIMRND
 40
0.0
  9
$DIMDLE
 40
0.0
  9
$DIMEXE
 40
0.18
  9
$DIMTP
 40
0.0
  9
$DIMTM
 40
0.0
  9
$DIMTXT
 40
0.18
  9
$DIMCEN
 40
0.09
  9
$DIMTSZ
 40
0.0
  9
$DIMTOL
 70
     0
  9
$DIMLIM
 70
     0
  9
$DIMTIH
 70
     1
  9
$DIMTOH
 70
     1
  9
$DIMSE1
 70
     0
  9
$DIMSE2
 70
     0
  9
$DIMTAD
 70
     0
  9
$DIMZIN
 70
     0
  9
$DIMBLK
  1

  9
$DIMASO
 70
     1
  9
$DIMSHO
 70
     1
  9
$DIMPOST
  1

  9
$DIMAPOST
  1

  9
$DIMALT
 70
     0
  9
$DIMALTD
 70
     2
  9
$DIMALTF
 40
25.4
  9
$DIMLFAC
 40
1.0
  9
$DIMTOFL
 70
     0
  9
$DIMTVP
 40
0.0
  9
$DIMTIX
 70
     0
  9
$DIMSOXD
 70
     0
  9
$DIMSAH
 70
     0
  9
$DIMBLK1
  1

  9
$DIMBLK2
  1

  9
$DIMSTYLE
  2
STANDARD
  9
$DIMCLRD
 70
     0
  9
$DIMCLRE
 70
     0
  9
$DIMCLRT
 70
     0
  9
$DIMTFAC
 40
1.0
  9
$DIMGAP
 40
0.09
  9
$DIMJUST
 70
     0
  9
$DIMSD1
 70
     0
  9
$DIMSD2
 70
     0
  9
$DIMTOLJ
 70
     1
  9
$DIMTZIN
 70
     0
  9
$DIMALTZ
 70
     0
  9
$DIMALTTZ
 70
     0
  9
$DIMFIT
 70
     3
  9
$DIMUPT
 70
     0
  9
$DIMUNIT
 70
     2
  9
$DIMDEC
 70
     4
  9
$DIMTDEC
 70
     4
  9
$DIMALTU
 70
     2
  9
$DIMALTTD
 70
     2
  9
$DIMTXSTY
  7
STANDARD
  9
$DIMAUNIT
 70
     0
  9
$LUNITS
 70
     2
  9
$LUPREC
 70
     4
  9
$SKETCHINC
 40
0.1
  9
$FILLETRAD
 40
0.5
  9
$AUNITS
 70
     0
  9
$AUPREC
 70
     0
  9
$MENU
  1
.
  9
$ELEVATION
 40
0.0
  9
$PELEVATION
 40
0.0
  9
$THICKNESS
 40
0.0
  9
$LIMCHECK
 70
     0
  9
$CHAMFERA
 40
0.5
  9
$CHAMFERB
 40
0.5
  9
$CHAMFERC
 40
1.0
  9
$CHAMFERD
 40
0.0
  9
$SKPOLY
 70
     0
  9
$TDCREATE
 40
2457508.823358808
  9
$TDUPDATE
 40
2457508.823358819
  9
$TDINDWG
 40
0.0000000116
  9
$TDUSRTIMER
 40
0.0000000116
  9
$USRTIMER
 70
     1
  9
$ANGBASE
 50
0.0
  9
$ANGDIR
 70
     0
  9
$PDMODE
 70
     0
  9
$PDSIZE
 40
0.0
  9
$PLINEWID
 40
0.0
  9
$COORDS
 70
     1
  9
$SPLFRAME
 70
     0
  9
$SPLINETYPE
 70
     6
  9
$SPLINESEGS
 70
     8
  9
$ATTDIA
 70
     0
  9
$ATTREQ
 70
     1
  9
$HANDLING
 70
     1
  9
$HANDSEED
  5
14A
  9
$SURFTAB1
 70
     6
  9
$SURFTAB2
 70
     6
  9
$SURFTYPE
 70
     6
  9
$SURFU
 70
     6
  9
$SURFV
 70
     6
  9
$UCSNAME
  2

  9
$UCSORG
 10
0.0
 20
0.0
 30
0.0
  9
$UCSXDIR
 10
1.0
 20
0.0
 30
0.0
  9
$UCSYDIR
 10
0.0
 20
1.0
 30
0.0
  9
$PUCSNAME
  2

  9
$PUCSORG
 10
0.0
 20
0.0
 30
0.0
  9
$PUCSXDIR
 10
1.0
 20
0.0
 30
0.0
  9
$PUCSYDIR
 10
0.0
 20
1.0
 30
0.0
  9
$USERI1
 70
     0
  9
$USERI2
 70
     0
  9
$USERI3
 70
     0
  9
$USERI4
 70
     0
  9
$USERI5
 70
     0
  9
$USERR1
 40
0.0
  9
$USERR2
 40
0.0
  9
$USERR3
 40
0.0
  9
$USERR4
 40
0.0
  9
$USERR5
 40
0.0
  9
$WORLDVIEW
 70
     1
  9
$SHADEDGE
 70
     3
  9
$SHADEDIF
 70
    70
  9
$TILEMODE
 70
     1
  9
$MAXACTVP
 70
    64
  9
$PINSBASE
 10
0.0
 20
0.0
 30
0.0
  9
$PLIMCHECK
 70
     0
  9
$PEXTMIN
 10
1.000000000000000E+20
 20
1.000000000000000E+20
 30
1.000000000000000E+20
  9
$PEXTMAX
 10
-1.000000000000000E+20
 20
-1.000000000000000E+20
 30
-1.000000000000000E+20
  9
$PLIMMIN
 10
0.0
 20
0.0
  9
$PLIMMAX
 10
12.0
 20
9.0
  9
$UNITMODE
 70
     0
  9
$VISRETAIN
 70
     1
  9
$PLINEGEN
 70
     0
  9
$PSLTSCALE
 70
     1
  9
$TREEDEPTH
 70
  3020
  9
$PICKSTYLE
 70
     1
  9
$CMLSTYLE
  2
STANDARD
  9
$CMLJUST
 70
     0
  9
$CMLSCALE
 40
1.0
  9
$SAVEIMAGES
 70
     1
  0
ENDSEC
  0
SECTION
  2
CLASSES
  0
CLASS
  1
ACDBDICTIONARYWDFLT
  2
AcDbDictionaryWithDefault
  3
ObjectDBX Classes
 90
    32768
280
     0
281
     0
  0
CLASS
  1
VISUALSTYLE
  2
AcDbVisualStyle
  3
ObjectDBX Classes
 90
     4095
280
     0
281
     0
  0
CLASS
  1
XRECORD
  2
AcDbXrecord
  3
AutoCAD 2000
 90
    32768
280
     0
281
     0
  0
CLASS
  1
LWPOLYLINE
  2
AcDbPolyline
  3
AutoCAD 2000
 90
    32768
280
     0
281
     1
  0
CLASS
  1
HATCH
  2
AcDbHatch
  3
AutoCAD 2000
 90
    32768
280
     0
281
     1
  0
CLASS
  1
ACDBPLACEHOLDER
  2
AcDbPlaceHolder
  3
ObjectDBX Classes
 90
        0
280
     0
281
     0
  0
CLASS
  1
LAYOUT
  2
AcDbLayout
  3
ObjectDBX Classes
 90
        0
280
     0
281
     0
  0
ENDSEC
  0
SECTION
  2
TABLES
  0
TABLE
  2
VPORT
  5
8
330
0
100
AcDbSymbolTable
 70
     1
  0
VPORT
  5
29
330
8
100
AcDbSymbolTableRecord
100
AcDbViewportTableRecord
  2
*ACTIVE
 70
     0
 10
0.0
 20
0.0
 11
1.0
 21
1.0
 12
0.0
 22
0.0
 13
0.0
 23
0.0
 14
0.5
 24
0.5
 15
0.5
 25
0.5
 16
0.0
 26
0.0
 36
1.0
 17
105.0008259828644
 27
-148.4999796178229
 37
0.0
 40
296.9999592356459
 41
0.7070763662937379
 42
50.0
 43
0.0
 44
0.0
 50
0.0
 51
0.0
 71
     0
 72
   100
 73
     1
 74
     3
 75
     0
 76
     0
 77
     0
 78
     0
  0
ENDTAB
  0
TABLE
  2
LTYPE
  5
5
330
0
100
AcDbSymbolTable
 70
     9
  0
LTYPE
  5
14
330
5
100
AcDbSymbolTableRecord
100
AcDbLinetypeTableRecord
  2
BYBLOCK
 70
     0
  3

 72
    65
 73
     0
 40
0.0
  0
LTYPE
  5
15
330
5
100
AcDbSymbolTableRecord
100
AcDbLinetypeTableRecord
  2
BYLAYER
 70
     0
  3

 72
    65
 73
     0
 40
0.0
  0
LTYPE
  5
16
330
5
100
AcDbSymbolTableRecord
100
AcDbLinetypeTableRecord
  2
CONTINUOUS
 70
     0
  3
Solid line
 72
    65
 73
     0
 40
0.0
  0
LTYPE
  5
64
330
5
100
AcDbSymbolTableRecord
100
AcDbLinetypeTableRecord
  2
AI-LINETYPE-1
 70
     0
  3
Adobe Illustrator Linetype No. 1
 72
    65
 73
     2
 40
2.822222221516667
 49
1.411111110758333
 74
     0
 49
-1.411111110758333
 74
     0
  0
LTYPE
  5
80
330
5
100
AcDbSymbolTableRecord
100
AcDbLinetypeTableRecord
  2
AI-LINETYPE-2
 70
     0
  3
Adobe Illustrator Linetype No. 2
 72
    65
 73
     2
 40
2.822222221516667
 49
1.411111110758333
 74
     0
 49
-1.411111110758333
 74
     0
  0
LTYPE
  5
9C
330
5
100
AcDbSymbolTableRecord
100
AcDbLinetypeTableRecord
  2
AI-LINETYPE-3
 70
     0
  3
Adobe Illustrator Linetype No. 3
 72
    65
 73
     2
 40
2.822222221516667
 49
1.411111110758333
 74
     0
 49
-1.411111110758333
 74
     0
  0
LTYPE
  5
B8
330
5
100
AcDbSymbolTableRecord
100
AcDbLinetypeTableRecord
  2
AI-LINETYPE-4
 70
     0
  3
Adobe Illustrator Linetype No. 4
 72
    65
 73
     2
 40
2.822222221516667
 49
1.411111110758333
 74
     0
 49
-1.411111110758333
 74
     0
  0
LTYPE
  5
D4
330
5
100
AcDbSymbolTableRecord
100
AcDbLinetypeTableRecord
  2
AI-LINETYPE-5
 70
     0
  3
Adobe Illustrator Linetype No. 5
 72
    65
 73
     2
 40
2.822222221516667
 49
1.411111110758333
 74
     0
 49
-1.411111110758333
 74
     0
  0
LTYPE
  5
F0
330
5
100
AcDbSymbolTableRecord
100
AcDbLinetypeTableRecord
  2
AI-LINETYPE-6
 70
     0
  3
Adobe Illustrator Linetype No. 6
 72
    65
 73
     2
 40
2.822222221516667
 49
1.411111110758333
 74
     0
 49
-1.411111110758333
 74
     0
  0
LTYPE
  5
10C
330
5
100
AcDbSymbolTableRecord
100
AcDbLinetypeTableRecord
  2
AI-LINETYPE-7
 70
     0
  3
Adobe Illustrator Linetype No. 7
 72
    65
 73
     2
 40
2.822222221516667
 49
1.411111110758333
 74
     0
 49
-1.411111110758333
 74
     0
  0
LTYPE
  5
128
330
5
100
AcDbSymbolTableRecord
100
AcDbLinetypeTableRecord
  2
AI-LINETYPE-8
 70
     0
  3
Adobe Illustrator Linetype No. 8
 72
    65
 73
     2
 40
2.822222221516667
 49
1.411111110758333
 74
     0
 49
-1.411111110758333
 74
     0
  0
ENDTAB
  0
TABLE
  2
LAYER
  5
2
330
0
100
AcDbSymbolTable
 70
     5
  0
LAYER
  5
10
330
2
100
AcDbSymbolTableRecord
100
AcDbLayerTableRecord
  2
0
 70
     0
 62
     7
  6
CONTINUOUS
  0
LAYER
  5
3B
330
2
100
AcDbSymbolTableRecord
100
AcDbLayerTableRecord
  2
CUTLINE
 70
     0
 62
     7
  6
CONTINUOUS
  0
LAYER
  5
48
330
2
100
AcDbSymbolTableRecord
100
AcDbLayerTableRecord
  2
VALLEYLINE
 70
     0
 62
     7
  6
CONTINUOUS
  0
LAYER
  5
129
330
2
100
AcDbSymbolTableRecord
100
AcDbLayerTableRecord
  2
MOUNTAINLINE
 70
     0
 62
     7
  6
CONTINUOUS
  0
LAYER
  5
146
330
2
100
AcDbSymbolTableRecord
100
AcDbLayerTableRecord
  2
TEXT
 70
     0
 62
     7
  6
CONTINUOUS
  0
ENDTAB
  0
TABLE
  2
STYLE
  5
3
330
0
100
AcDbSymbolTable
 70
     1
  0
STYLE
  5
11
330
3
100
AcDbSymbolTableRecord
100
AcDbTextStyleTableRecord
  2
STANDARD
 70
     0
 40
0.0
 41
1.0
 50
0.0
 71
     0
 42
0.2
  3
txt
  4

  0
ENDTAB
  0
TABLE
  2
VIEW
  5
6
330
0
100
AcDbSymbolTable
 70
     0
  0
ENDTAB
  0
TABLE
  2
UCS
  5
7
330
0
100
AcDbSymbolTable
 70
     0
  0
ENDTAB
  0
TABLE
  2
APPID
  5
9
330
0
100
AcDbSymbolTable
 70
     1
  0
APPID
  5
12
330
9
100
AcDbSymbolTableRecord
100
AcDbRegAppTableRecord
  2
ACAD
 70
     0
  0
ENDTAB
  0
TABLE
  2
DIMSTYLE
  5
A
330
0
100
AcDbSymbolTable
 70
     1
  0
DIMSTYLE
105
27
330
A
100
AcDbSymbolTableRecord
100
AcDbDimStyleTableRecord
  2
STANDARD
 70
     0
  3

  4

  5

  6

  7

 40
1.0
 41
0.18
 42
0.0625
 43
0.38
 44
0.18
 45
0.0
 46
0.0
 47
0.0
 48
0.0
140
0.18
141
0.09
142
0.0
143
25.4
144
1.0
145
0.0
146
1.0
147
0.09
 71
     0
 72
     0
 73
     1
 74
     1
 75
     0
 76
     0
 77
     0
 78
     0
170
     0
171
     2
172
     0
173
     0
174
     0
175
     0
176
     0
177
     0
178
     0
270
     2
271
     4
272
     4
273
     2
274
     2
340
11
275
     0
280
     0
281
     0
282
     0
283
     1
284
     0
285
     0
286
     0
287
     3
288
     0
  0
ENDTAB
  0
TABLE
  2
BLOCK_RECORD
  5
1
330
0
100
AcDbSymbolTable
 70
     1
  0
BLOCK_RECORD
  5
1F
330
1
100
AcDbSymbolTableRecord
100
AcDbBlockTableRecord
  2
*MODEL_SPACE
  0
BLOCK_RECORD
  5
1B
330
1
100
AcDbSymbolTableRecord
100
AcDbBlockTableRecord
  2
*PAPER_SPACE
  0
ENDTAB
  0
ENDSEC
  0
SECTION
  2
BLOCKS
  0
BLOCK
  5
20
330
1F
100
AcDbEntity
  8
0
100
AcDbBlockBegin
  2
*MODEL_SPACE
 70
     0
 71
     0
 10
0.0
 20
0.0
 30
0.0
  3
*MODEL_SPACE
  1

  0
ENDBLK
  5
21
330
1F
100
AcDbEntity
  8
0
100
AcDbBlockEnd
  0
BLOCK
  5
1C
330
1B
100
AcDbEntity
 67
     1
  8
0
100
AcDbBlockBegin
  2
*PAPER_SPACE
 70
     0
 71
     0
 10
0.0
 20
0.0
 30
0.0
  3
*PAPER_SPACE
  1

  0
ENDBLK
  5
1D
330
1B
100
AcDbEntity
 67
     1
  8
0
100
AcDbBlockEnd
  0
ENDSEC
  0
SECTION
  2
ENTITIES
  0
POLYLINE
  5
3C
330
1F
100
AcDbEntity
  8
CUTLINE
 62
   250
100
AcDb2dPolyline
 66
     1
 10
0.0
 20
0.0
 30
0.0
  0
VERTEX
  5
3D
330
3C
100
AcDbEntity
  8
CUTLINE
 62
   250
100
AcDbVertex
100
AcDb2dVertex
 10
126.1280463009333
 20
-29.39751653995965
 30
0.0
  0
VERTEX
  5
3E
330
3C
100
AcDbEntity
  8
CUTLINE
 62
   250
100
AcDbVertex
100
AcDb2dVertex
 10
64.18454045704415
 20
-29.39751653995965
 30
0.0
  0
SEQEND
  5
3F
330
3C
100
AcDbEntity
  8
CUTLINE
  0
POLYLINE
  5
40
330
1F
100
AcDbEntity
  8
CUTLINE
 62
   250
100
AcDb2dPolyline
 66
     1
 10
0.0
 20
0.0
 30
0.0
  0
VERTEX
  5
41
330
40
100
AcDbEntity
  8
CUTLINE
 62
   250
100
AcDbVertex
100
AcDb2dVertex
 10
126.1280463009333
 20
-29.39751653995965
 30
0.0
  0
VERTEX
  5
42
330
40
100
AcDbEntity
  8
CUTLINE
 62
   250
100
AcDbVertex
100
AcDb2dVertex
 10
126.1280463009333
 20
-277.3067599133122
 30
0.0
  0
VERTEX
  5
43
330
40
100
AcDbEntity
  8
CUTLINE
 62
   250
100
AcDbVertex
100
AcDb2dVertex
 10
126.1280463009333
 20
-280.9206650773393
 30
0.0
  0
VERTEX
  5
44
330
40
100
AcDbEntity
  8
CUTLINE
 62
   250
100
AcDbVertex
100
AcDb2dVertex
 10
64.18454045704415
 20
-280.9206650773393
 30
0.0
  0
VERTEX
  5
45
330
40
100
AcDbEntity
  8
CUTLINE
 62
   250
100
AcDbVertex
100
AcDb2dVertex
 10
64.18454045704415
 20
-277.3067599133122
 30
0.0
  0
VERTEX
  5
46
330
40
100
AcDbEntity
  8
CUTLINE
 62
   250
100
AcDbVertex
100
AcDb2dVertex
 10
64.18454045704415
 20
-29.39751653995965
 30
0.0
  0
SEQEND
  5
47
330
40
100
AcDbEntity
  8
CUTLINE
  0
POLYLINE
  5
49
330
1F
100
AcDbEntity
  8
VALLEYLINE
  6
AI-LINETYPE-1
 62
   250
100
AcDb2dPolyline
 66
     1
 10
0.0
 20
0.0
 30
0.0
  0
VERTEX
  5
4A
330
49
100
AcDbEntity
  8
VALLEYLINE
  6
AI-LINETYPE-1
 62
   250
100
AcDbVertex
100
AcDb2dVertex
 10
64.18454045704415
 20
-33.02554659547626
 30
0.0
  0
VERTEX
  5
4B
330
49
100
AcDbEntity
  8
VALLEYLINE
  6
AI-LINETYPE-1
 62
   250
100
AcDbVertex
100
AcDb2dVertex
 10
66.99573837300801
 20
-34.00929361128934
 30
0.0
  0
VERTEX
  5
4C
330
49
100
AcDbEntity
  8
VALLEYLINE
  6
AI-LINETYPE-1
 62
   250
100
AcDbVertex
100
AcDb2dVertex
 10
69.801768645744
 20
-34.99097356981129
 30
0.0
  0
VERTEX
  5
4D
330
49
100
AcDbEntity
  8
VALLEYLINE
  6
AI-LINETYPE-1
 62
   250
100
AcDbVertex
100
AcDb2dVertex
 10
72.60090872750949
 20
-35.96903617807371
 30
0.0
  0
VERTEX
  5
4E
330
49
100
AcDbEntity
  8
VALLEYLINE
  6
AI-LINETYPE-1
 62
   250
100
AcDbVertex
100
AcDb2dVertex
 10
75.39212508965892
 20
-36.94279241697958
 30
0.0
  0
VERTEX
  5
4F
330
49
100
AcDbEntity
  8
VALLEYLINE
  6
AI-LINETYPE-1
 62
   250
100
AcDbVertex
100
AcDb2dVertex
 10
78.17025008896438
 20
-37.91086424833478
 30
0.0
  0
VERTEX
  5
50
330
49
100
AcDbEntity
  8
VALLEYLINE
  6
AI-LINETYPE-1
 62
   250
100
AcDbVertex
100
AcDb2dVertex
 10
80.93011608219803
 20
-38.86963432187981
 30
0.0
  0
VERTEX
  5
51
330
49
100
AcDbEntity
  8
VALLEYLINE
  6
AI-LINETYPE-1
 62
   250
100
AcDbVertex
100
AcDb2dVertex
 10
83.66242131154968
 20
-39.81479626825811
 30
0.0
  0
VERTEX
  5
52
330
49
100
AcDbEntity
  8
VALLEYLINE
  6
AI-LINETYPE-1
 62
   250
100
AcDbVertex
100
AcDb2dVertex
 10
86.34925128049602
 20
-40.73756509398228
 30
0.0
  0
VERTEX
  5
53
330
49
100
AcDbEntity
  8
VALLEYLINE
  6
AI-LINETYPE-1
 62
   250
100
AcDbVertex
100
AcDb2dVertex
 10
88.955121505539
 20
-41.61916502865771
 30
0.0
  0
VERTEX
  5
54
330
49
100
AcDbEntity
  8
VALLEYLINE
  6
AI-LINETYPE-1
 62
   250
100
AcDbVertex
100
AcDb2dVertex
 10
91.40423988600311
 20
-42.41997747420403
 30
0.0
  0
VERTEX
  5
55
330
49
100
AcDbEntity
  8
VALLEYLINE
  6
AI-LINETYPE-1
 62
   250
100
AcDbVertex
100
AcDb2dVertex
 10
93.53261987679046
 20
-43.04422877613131
 30
0.0
  0
VERTEX
  5
56
330
49
100
AcDbEntity
  8
VALLEYLINE
  6
AI-LINETYPE-1
 62
   250
100
AcDbVertex
100
AcDb2dVertex
 10
95.15663788853723
 20
-43.29933809681405
 30
0.0
  0
VERTEX
  5
57
330
49
100
AcDbEntity
  8
VALLEYLINE
  6
AI-LINETYPE-1
 62
   250
100
AcDbVertex
100
AcDb2dVertex
 10
96.77996688118695
 20
-43.04422877613131
 30
0.0
  0
VERTEX
  5
58
330
49
100
AcDbEntity
  8
VALLEYLINE
  6
AI-LINETYPE-1
 62
   250
100
AcDbVertex
100
AcDb2dVertex
 10
98.9083468719743
 20
-42.41997747420403
 30
0.0
  0
VERTEX
  5
59
330
49
100
AcDbEntity
  8
VALLEYLINE
  6
AI-LINETYPE-1
 62
   250
100
AcDbVertex
100
AcDb2dVertex
 10
101.3578097619869
 20
-41.61916502865771
 30
0.0
  0
VERTEX
  5
5A
330
49
100
AcDbEntity
  8
VALLEYLINE
  6
AI-LINETYPE-1
 62
   250
100
AcDbVertex
100
AcDb2dVertex
 10
103.9633354774814
 20
-40.73756509398228
 30
0.0
  0
VERTEX
  5
5B
330
49
100
AcDbEntity
  8
VALLEYLINE
  6
AI-LINETYPE-1
 62
   250
100
AcDbVertex
100
AcDb2dVertex
 10
106.6505099559763
 20
-39.81479626825811
 30
0.0
  0
VERTEX
  5
5C
330
49
100
AcDbEntity
  8
VALLEYLINE
  6
AI-LINETYPE-1
 62
   250
100
AcDbVertex
100
AcDb2dVertex
 10
109.3824706757794
 20
-38.86963432187981
 30
0.0
  0
VERTEX
  5
5D
330
49
100
AcDbEntity
  8
VALLEYLINE
  6
AI-LINETYPE-1
 62
   250
100
AcDbVertex
100
AcDb2dVertex
 10
112.142336669013
 20
-37.91086424833478
 30
0.0
  0
VERTEX
  5
5E
330
49
100
AcDbEntity
  8
VALLEYLINE
  6
AI-LINETYPE-1
 62
   250
100
AcDbVertex
100
AcDb2dVertex
 10
114.9204616683185
 20
-36.94279241697958
 30
0.0
  0
VERTEX
  5
5F
330
49
100
AcDbEntity
  8
VALLEYLINE
  6
AI-LINETYPE-1
 62
   250
100
AcDbVertex
100
AcDb2dVertex
 10
117.7116780304679
 20
-35.96903617807371
 30
0.0
  0
VERTEX
  5
60
330
49
100
AcDbEntity
  8
VALLEYLINE
  6
AI-LINETYPE-1
 62
   250
100
AcDbVertex
100
AcDb2dVertex
 10
120.5111626217819
 20
-34.99097356981129
 30
0.0
  0
VERTEX
  5
61
330
49
100
AcDbEntity
  8
VALLEYLINE
  6
AI-LINETYPE-1
 62
   250
100
AcDbVertex
100
AcDb2dVertex
 10
123.3175374040665
 20
-34.00929361128934
 30
0.0
  0
VERTEX
  5
62
330
49
100
AcDbEntity
  8
VALLEYLINE
  6
AI-LINETYPE-1
 62
   250
100
AcDbVertex
100
AcDb2dVertex
 10
126.1280463009333
 20
-33.02554659547626
 30
0.0
  0
SEQEND
  5
63
330
49
100
AcDbEntity
  8
VALLEYLINE
  6
AI-LINETYPE-1
  0
POLYLINE
  5
65
330
1F
100
AcDbEntity
  8
VALLEYLINE
  6
AI-LINETYPE-2
 62
   250
100
AcDb2dPolyline
 66
     1
 10
0.0
 20
0.0
 30
0.0
  0
VERTEX
  5
66
330
65
100
AcDbEntity
  8
VALLEYLINE
  6
AI-LINETYPE-2
 62
   250
100
AcDbVertex
100
AcDb2dVertex
 10
126.1280463009333
 20
-64.465315739092
 30
0.0
  0
VERTEX
  5
67
330
65
100
AcDbEntity
  8
VALLEYLINE
  6
AI-LINETYPE-2
 62
   250
100
AcDbVertex
100
AcDb2dVertex
 10
123.3175374040665
 20
-65.44957951922788
 30
0.0
  0
VERTEX
  5
68
330
65
100
AcDbEntity
  8
VALLEYLINE
  6
AI-LINETYPE-2
 62
   250
100
AcDbVertex
100
AcDb2dVertex
 10
120.5111626217819
 20
-66.43125947774983
 30
0.0
  0
VERTEX
  5
69
330
65
100
AcDbEntity
  8
VALLEYLINE
  6
AI-LINETYPE-2
 62
   250
100
AcDbVertex
100
AcDb2dVertex
 10
117.7116780304679
 20
-67.40932208601225
 30
0.0
  0
VERTEX
  5
6A
330
65
100
AcDbEntity
  8
VALLEYLINE
  6
AI-LINETYPE-2
 62
   250
100
AcDbVertex
100
AcDb2dVertex
 10
114.9204616683185
 20
-68.38307832491812
 30
0.0
  0
VERTEX
  5
6B
330
65
100
AcDbEntity
  8
VALLEYLINE
  6
AI-LINETYPE-2
 62
   250
100
AcDbVertex
100
AcDb2dVertex
 10
112.142336669013
 20
-69.35115015627332
 30
0.0
  0
VERTEX
  5
6C
330
65
100
AcDbEntity
  8
VALLEYLINE
  6
AI-LINETYPE-2
 62
   250
100
AcDbVertex
100
AcDb2dVertex
 10
109.3824706757794
 20
-70.31043699414114
 30
0.0
  0
VERTEX
  5
6D
330
65
100
AcDbEntity
  8
VALLEYLINE
  6
AI-LINETYPE-2
 62
   250
100
AcDbVertex
100
AcDb2dVertex
 10
106.6505099559763
 20
-71.25559894051943
 30
0.0
  0
VERTEX
  5
6E
330
65
100
AcDbEntity
  8
VALLEYLINE
  6
AI-LINETYPE-2
 62
   250
100
AcDbVertex
100
AcDb2dVertex
 10
103.9633354774814
 20
-72.17802325669508
 30
0.0
  0
VERTEX
  5
6F
330
65
100
AcDbEntity
  8
VALLEYLINE
  6
AI-LINETYPE-2
 62
   250
100
AcDbVertex
100
AcDb2dVertex
 10
101.3578097619869
 20
-73.05945093659625
 30
0.0
  0
VERTEX
  5
70
330
65
100
AcDbEntity
  8
VALLEYLINE
  6
AI-LINETYPE-2
 62
   250
100
AcDbVertex
100
AcDb2dVertex
 10
98.9083468719743
 20
-73.86026338214258
 30
0.0
  0
VERTEX
  5
71
330
65
100
AcDbEntity
  8
VALLEYLINE
  6
AI-LINETYPE-2
 62
   250
100
AcDbVertex
100
AcDb2dVertex
 10
96.77996688118695
 20
-74.48451468406985
 30
0.0
  0
VERTEX
  5
72
330
65
100
AcDbEntity
  8
VALLEYLINE
  6
AI-LINETYPE-2
 62
   250
100
AcDbVertex
100
AcDb2dVertex
 10
95.15663788853723
 20
-74.7396240047526
 30
0.0
  0
VERTEX
  5
73
330
65
100
AcDbEntity
  8
VALLEYLINE
  6
AI-LINETYPE-2
 62
   250
100
AcDbVertex
100
AcDb2dVertex
 10
93.53261987679046
 20
-74.48451468406985
 30
0.0
  0
VERTEX
  5
74
330
65
100
AcDbEntity
  8
VALLEYLINE
  6
AI-LINETYPE-2
 62
   250
100
AcDbVertex
100
AcDb2dVertex
 10
91.40423988600311
 20
-73.86026338214258
 30
0.0
  0
VERTEX
  5
75
330
65
100
AcDbEntity
  8
VALLEYLINE
  6
AI-LINETYPE-2
 62
   250
100
AcDbVertex
100
AcDb2dVertex
 10
88.955121505539
 20
-73.05945093659625
 30
0.0
  0
VERTEX
  5
76
330
65
100
AcDbEntity
  8
VALLEYLINE
  6
AI-LINETYPE-2
 62
   250
100
AcDbVertex
100
AcDb2dVertex
 10
86.34925128049602
 20
-72.17802325669508
 30
0.0
  0
VERTEX
  5
77
330
65
100
AcDbEntity
  8
VALLEYLINE
  6
AI-LINETYPE-2
 62
   250
100
AcDbVertex
100
AcDb2dVertex
 10
83.66242131154968
 20
-71.25559894051943
 30
0.0
  0
VERTEX
  5
78
330
65
100
AcDbEntity
  8
VALLEYLINE
  6
AI-LINETYPE-2
 62
   250
100
AcDbVertex
100
AcDb2dVertex
 10
80.93011608219803
 20
-70.31043699414114
 30
0.0
  0
VERTEX
  5
79
330
65
100
AcDbEntity
  8
VALLEYLINE
  6
AI-LINETYPE-2
 62
   250
100
AcDbVertex
100
AcDb2dVertex
 10
78.17025008896438
 20
-69.35115015627332
 30
0.0
  0
VERTEX
  5
7A
330
65
100
AcDbEntity
  8
VALLEYLINE
  6
AI-LINETYPE-2
 62
   250
100
AcDbVertex
100
AcDb2dVertex
 10
75.39212508965892
 20
-68.38307832491812
 30
0.0
  0
VERTEX
  5
7B
330
65
100
AcDbEntity
  8
VALLEYLINE
  6
AI-LINETYPE-2
 62
   250
100
AcDbVertex
100
AcDb2dVertex
 10
72.60090872750949
 20
-67.40932208601225
 30
0.0
  0
VERTEX
  5
7C
330
65
100
AcDbEntity
  8
VALLEYLINE
  6
AI-LINETYPE-2
 62
   250
100
AcDbVertex
100
AcDb2dVertex
 10
69.801768645744
 20
-66.43125947774983
 30
0.0
  0
VERTEX
  5
7D
330
65
100
AcDbEntity
  8
VALLEYLINE
  6
AI-LINETYPE-2
 62
   250
100
AcDbVertex
100
AcDb2dVertex
 10
66.99573837300801
 20
-65.44957951922788
 30
0.0
  0
VERTEX
  5
7E
330
65
100
AcDbEntity
  8
VALLEYLINE
  6
AI-LINETYPE-2
 62
   250
100
AcDbVertex
100
AcDb2dVertex
 10
64.18454045704415
 20
-64.465315739092
 30
0.0
  0
SEQEND
  5
7F
330
65
100
AcDbEntity
  8
VALLEYLINE
  6
AI-LINETYPE-2
  0
POLYLINE
  5
81
330
1F
100
AcDbEntity
  8
VALLEYLINE
  6
AI-LINETYPE-3
 62
   250
100
AcDb2dPolyline
 66
     1
 10
0.0
 20
0.0
 30
0.0
  0
VERTEX
  5
82
330
81
100
AcDbEntity
  8
VALLEYLINE
  6
AI-LINETYPE-3
 62
   250
100
AcDbVertex
100
AcDb2dVertex
 10
64.18454045704415
 20
-95.90611841135333
 30
0.0
  0
VERTEX
  5
83
330
81
100
AcDbEntity
  8
VALLEYLINE
  6
AI-LINETYPE-3
 62
   250
100
AcDbVertex
100
AcDb2dVertex
 10
66.99573837300801
 20
-96.89003768194068
 30
0.0
  0
VERTEX
  5
84
330
81
100
AcDbEntity
  8
VALLEYLINE
  6
AI-LINETYPE-3
 62
   250
100
AcDbVertex
100
AcDb2dVertex
 10
69.801768645744
 20
-97.87154538568836
 30
0.0
  0
VERTEX
  5
85
330
81
100
AcDbEntity
  8
VALLEYLINE
  6
AI-LINETYPE-3
 62
   250
100
AcDbVertex
100
AcDb2dVertex
 10
72.60090872750949
 20
-98.84978024872505
 30
0.0
  0
VERTEX
  5
86
330
81
100
AcDbEntity
  8
VALLEYLINE
  6
AI-LINETYPE-3
 62
   250
100
AcDbVertex
100
AcDb2dVertex
 10
75.39212508965892
 20
-99.82353648763093
 30
0.0
  0
VERTEX
  5
87
330
81
100
AcDbEntity
  8
VALLEYLINE
  6
AI-LINETYPE-3
 62
   250
100
AcDbVertex
100
AcDb2dVertex
 10
78.17025008896438
 20
-100.7919528285347
 30
0.0
  0
VERTEX
  5
88
330
81
100
AcDbEntity
  8
VALLEYLINE
  6
AI-LINETYPE-3
 62
   250
100
AcDbVertex
100
AcDb2dVertex
 10
80.93011608219803
 20
-101.7507229020797
 30
0.0
  0
VERTEX
  5
89
330
81
100
AcDbEntity
  8
VALLEYLINE
  6
AI-LINETYPE-3
 62
   250
100
AcDbVertex
100
AcDb2dVertex
 10
83.66242131154968
 20
-102.6955403389095
 30
0.0
  0
VERTEX
  5
8A
330
81
100
AcDbEntity
  8
VALLEYLINE
  6
AI-LINETYPE-3
 62
   250
100
AcDbVertex
100
AcDb2dVertex
 10
86.34925128049602
 20
-103.6183091646336
 30
0.0
  0
VERTEX
  5
8B
330
81
100
AcDbEntity
  8
VALLEYLINE
  6
AI-LINETYPE-3
 62
   250
100
AcDbVertex
100
AcDb2dVertex
 10
88.955121505539
 20
-104.4997368445348
 30
0.0
  0
VERTEX
  5
8C
330
81
100
AcDbEntity
  8
VALLEYLINE
  6
AI-LINETYPE-3
 62
   250
100
AcDbVertex
100
AcDb2dVertex
 10
91.40423988600311
 20
-105.3010660544039
 30
0.0
  0
VERTEX
  5
8D
330
81
100
AcDbEntity
  8
VALLEYLINE
  6
AI-LINETYPE-3
 62
   250
100
AcDbVertex
100
AcDb2dVertex
 10
93.53261987679046
 20
-105.9248005920084
 30
0.0
  0
VERTEX
  5
8E
330
81
100
AcDbEntity
  8
VALLEYLINE
  6
AI-LINETYPE-3
 62
   250
100
AcDbVertex
100
AcDb2dVertex
 10
95.15663788853723
 20
-106.1799099126911
 30
0.0
  0
VERTEX
  5
8F
330
81
100
AcDbEntity
  8
VALLEYLINE
  6
AI-LINETYPE-3
 62
   250
100
AcDbVertex
100
AcDb2dVertex
 10
96.77996688118695
 20
-105.9248005920084
 30
0.0
  0
VERTEX
  5
90
330
81
100
AcDbEntity
  8
VALLEYLINE
  6
AI-LINETYPE-3
 62
   250
100
AcDbVertex
100
AcDb2dVertex
 10
98.9083468719743
 20
-105.3010660544039
 30
0.0
  0
VERTEX
  5
91
330
81
100
AcDbEntity
  8
VALLEYLINE
  6
AI-LINETYPE-3
 62
   250
100
AcDbVertex
100
AcDb2dVertex
 10
101.3578097619869
 20
-104.4997368445348
 30
0.0
  0
VERTEX
  5
92
330
81
100
AcDbEntity
  8
VALLEYLINE
  6
AI-LINETYPE-3
 62
   250
100
AcDbVertex
100
AcDb2dVertex
 10
103.9633354774814
 20
-103.6183091646336
 30
0.0
  0
VERTEX
  5
93
330
81
100
AcDbEntity
  8
VALLEYLINE
  6
AI-LINETYPE-3
 62
   250
100
AcDbVertex
100
AcDb2dVertex
 10
106.6505099559763
 20
-102.6955403389095
 30
0.0
  0
VERTEX
  5
94
330
81
100
AcDbEntity
  8
VALLEYLINE
  6
AI-LINETYPE-3
 62
   250
100
AcDbVertex
100
AcDb2dVertex
 10
109.3824706757794
 20
-101.7507229020797
 30
0.0
  0
VERTEX
  5
95
330
81
100
AcDbEntity
  8
VALLEYLINE
  6
AI-LINETYPE-3
 62
   250
100
AcDbVertex
100
AcDb2dVertex
 10
112.142336669013
 20
-100.7919528285347
 30
0.0
  0
VERTEX
  5
96
330
81
100
AcDbEntity
  8
VALLEYLINE
  6
AI-LINETYPE-3
 62
   250
100
AcDbVertex
100
AcDb2dVertex
 10
114.9204616683185
 20
-99.82353648763093
 30
0.0
  0
VERTEX
  5
97
330
81
100
AcDbEntity
  8
VALLEYLINE
  6
AI-LINETYPE-3
 62
   250
100
AcDbVertex
100
AcDb2dVertex
 10
117.7116780304679
 20
-98.84978024872505
 30
0.0
  0
VERTEX
  5
98
330
81
100
AcDbEntity
  8
VALLEYLINE
  6
AI-LINETYPE-3
 62
   250
100
AcDbVertex
100
AcDb2dVertex
 10
120.5111626217819
 20
-97.87154538568836
 30
0.0
  0
VERTEX
  5
99
330
81
100
AcDbEntity
  8
VALLEYLINE
  6
AI-LINETYPE-3
 62
   250
100
AcDbVertex
100
AcDb2dVertex
 10
123.3175374040665
 20
-96.89003768194068
 30
0.0
  0
VERTEX
  5
9A
330
81
100
AcDbEntity
  8
VALLEYLINE
  6
AI-LINETYPE-3
 62
   250
100
AcDbVertex
100
AcDb2dVertex
 10
126.1280463009333
 20
-95.90611841135333
 30
0.0
  0
SEQEND
  5
9B
330
81
100
AcDbEntity
  8
VALLEYLINE
  6
AI-LINETYPE-3
  0
POLYLINE
  5
9D
330
1F
100
AcDbEntity
  8
VALLEYLINE
  6
AI-LINETYPE-4
 62
   250
100
AcDb2dPolyline
 66
     1
 10
0.0
 20
0.0
 30
0.0
  0
VERTEX
  5
9E
330
9D
100
AcDbEntity
  8
VALLEYLINE
  6
AI-LINETYPE-4
 62
   250
100
AcDbVertex
100
AcDb2dVertex
 10
126.1280463009333
 20
-127.3464043192919
 30
0.0
  0
VERTEX
  5
9F
330
9D
100
AcDbEntity
  8
VALLEYLINE
  6
AI-LINETYPE-4
 62
   250
100
AcDbVertex
100
AcDb2dVertex
 10
123.3175374040665
 20
-128.3303235898792
 30
0.0
  0
VERTEX
  5
A0
330
9D
100
AcDbEntity
  8
VALLEYLINE
  6
AI-LINETYPE-4
 62
   250
100
AcDbVertex
100
AcDb2dVertex
 10
120.5111626217819
 20
-129.3118312936269
 30
0.0
  0
VERTEX
  5
A1
330
9D
100
AcDbEntity
  8
VALLEYLINE
  6
AI-LINETYPE-4
 62
   250
100
AcDbVertex
100
AcDb2dVertex
 10
117.7116780304679
 20
-130.2900661566636
 30
0.0
  0
VERTEX
  5
A2
330
9D
100
AcDbEntity
  8
VALLEYLINE
  6
AI-LINETYPE-4
 62
   250
100
AcDbVertex
100
AcDb2dVertex
 10
114.9204616683185
 20
-131.264166905118
 30
0.0
  0
VERTEX
  5
A3
330
9D
100
AcDbEntity
  8
VALLEYLINE
  6
AI-LINETYPE-4
 62
   250
100
AcDbVertex
100
AcDb2dVertex
 10
112.142336669013
 20
-132.2317219721504
 30
0.0
  0
VERTEX
  5
A4
330
9D
100
AcDbEntity
  8
VALLEYLINE
  6
AI-LINETYPE-4
 62
   250
100
AcDbVertex
100
AcDb2dVertex
 10
109.3824706757794
 20
-133.1910088100182
 30
0.0
  0
VERTEX
  5
A5
330
9D
100
AcDbEntity
  8
VALLEYLINE
  6
AI-LINETYPE-4
 62
   250
100
AcDbVertex
100
AcDb2dVertex
 10
106.6505099559763
 20
-134.135826246848
 30
0.0
  0
VERTEX
  5
A6
330
9D
100
AcDbEntity
  8
VALLEYLINE
  6
AI-LINETYPE-4
 62
   250
100
AcDbVertex
100
AcDb2dVertex
 10
103.9633354774814
 20
-135.0582505630236
 30
0.0
  0
VERTEX
  5
A7
330
9D
100
AcDbEntity
  8
VALLEYLINE
  6
AI-LINETYPE-4
 62
   250
100
AcDbVertex
100
AcDb2dVertex
 10
101.3578097619869
 20
-135.9401950072476
 30
0.0
  0
VERTEX
  5
A8
330
9D
100
AcDbEntity
  8
VALLEYLINE
  6
AI-LINETYPE-4
 62
   250
100
AcDbVertex
100
AcDb2dVertex
 10
98.9083468719743
 20
-136.7413519623424
 30
0.0
  0
VERTEX
  5
A9
330
9D
100
AcDbEntity
  8
VALLEYLINE
  6
AI-LINETYPE-4
 62
   250
100
AcDbVertex
100
AcDb2dVertex
 10
96.77996688118695
 20
-137.3650864999469
 30
0.0
  0
VERTEX
  5
AA
330
9D
100
AcDbEntity
  8
VALLEYLINE
  6
AI-LINETYPE-4
 62
   250
100
AcDbVertex
100
AcDb2dVertex
 10
95.15663788853723
 20
-137.6201958206297
 30
0.0
  0
VERTEX
  5
AB
330
9D
100
AcDbEntity
  8
VALLEYLINE
  6
AI-LINETYPE-4
 62
   250
100
AcDbVertex
100
AcDb2dVertex
 10
93.53261987679046
 20
-137.3650864999469
 30
0.0
  0
VERTEX
  5
AC
330
9D
100
AcDbEntity
  8
VALLEYLINE
  6
AI-LINETYPE-4
 62
   250
100
AcDbVertex
100
AcDb2dVertex
 10
91.40423988600311
 20
-136.7413519623424
 30
0.0
  0
VERTEX
  5
AD
330
9D
100
AcDbEntity
  8
VALLEYLINE
  6
AI-LINETYPE-4
 62
   250
100
AcDbVertex
100
AcDb2dVertex
 10
88.955121505539
 20
-135.9401950072476
 30
0.0
  0
VERTEX
  5
AE
330
9D
100
AcDbEntity
  8
VALLEYLINE
  6
AI-LINETYPE-4
 62
   250
100
AcDbVertex
100
AcDb2dVertex
 10
86.34925128049602
 20
-135.0582505630236
 30
0.0
  0
VERTEX
  5
AF
330
9D
100
AcDbEntity
  8
VALLEYLINE
  6
AI-LINETYPE-4
 62
   250
100
AcDbVertex
100
AcDb2dVertex
 10
83.66242131154968
 20
-134.135826246848
 30
0.0
  0
VERTEX
  5
B0
330
9D
100
AcDbEntity
  8
VALLEYLINE
  6
AI-LINETYPE-4
 62
   250
100
AcDbVertex
100
AcDb2dVertex
 10
80.93011608219803
 20
-133.1910088100182
 30
0.0
  0
VERTEX
  5
B1
330
9D
100
AcDbEntity
  8
VALLEYLINE
  6
AI-LINETYPE-4
 62
   250
100
AcDbVertex
100
AcDb2dVertex
 10
78.17025008896438
 20
-132.2317219721504
 30
0.0
  0
VERTEX
  5
B2
330
9D
100
AcDbEntity
  8
VALLEYLINE
  6
AI-LINETYPE-4
 62
   250
100
AcDbVertex
100
AcDb2dVertex
 10
75.39212508965892
 20
-131.264166905118
 30
0.0
  0
VERTEX
  5
B3
330
9D
100
AcDbEntity
  8
VALLEYLINE
  6
AI-LINETYPE-4
 62
   250
100
AcDbVertex
100
AcDb2dVertex
 10
72.60090872750949
 20
-130.2900661566636
 30
0.0
  0
VERTEX
  5
B4
330
9D
100
AcDbEntity
  8
VALLEYLINE
  6
AI-LINETYPE-4
 62
   250
100
AcDbVertex
100
AcDb2dVertex
 10
69.801768645744
 20
-129.3118312936269
 30
0.0
  0
VERTEX
  5
B5
330
9D
100
AcDbEntity
  8
VALLEYLINE
  6
AI-LINETYPE-4
 62
   250
100
AcDbVertex
100
AcDb2dVertex
 10
66.99573837300801
 20
-128.3303235898792
 30
0.0
  0
VERTEX
  5
B6
330
9D
100
AcDbEntity
  8
VALLEYLINE
  6
AI-LINETYPE-4
 62
   250
100
AcDbVertex
100
AcDb2dVertex
 10
64.18454045704415
 20
-127.3464043192919
 30
0.0
  0
SEQEND
  5
B7
330
9D
100
AcDbEntity
  8
VALLEYLINE
  6
AI-LINETYPE-4
  0
POLYLINE
  5
B9
330
1F
100
AcDbEntity
  8
VALLEYLINE
  6
AI-LINETYPE-5
 62
   250
100
AcDb2dPolyline
 66
     1
 10
0.0
 20
0.0
 30
0.0
  0
VERTEX
  5
BA
330
B9
100
AcDbEntity
  8
VALLEYLINE
  6
AI-LINETYPE-5
 62
   250
100
AcDbVertex
100
AcDb2dVertex
 10
126.1280463009333
 20
-158.7872069915532
 30
0.0
  0
VERTEX
  5
BB
330
B9
100
AcDbEntity
  8
VALLEYLINE
  6
AI-LINETYPE-5
 62
   250
100
AcDbVertex
100
AcDb2dVertex
 10
123.3175374040665
 20
-159.7704372430435
 30
0.0
  0
VERTEX
  5
BC
330
B9
100
AcDbEntity
  8
VALLEYLINE
  6
AI-LINETYPE-5
 62
   250
100
AcDbVertex
100
AcDb2dVertex
 10
120.5111626217819
 20
-160.7526339658882
 30
0.0
  0
VERTEX
  5
BD
330
B9
100
AcDbEntity
  8
VALLEYLINE
  6
AI-LINETYPE-5
 62
   250
100
AcDbVertex
100
AcDb2dVertex
 10
117.7116780304679
 20
-161.7306965741507
 30
0.0
  0
VERTEX
  5
BE
330
B9
100
AcDbEntity
  8
VALLEYLINE
  6
AI-LINETYPE-5
 62
   250
100
AcDbVertex
100
AcDb2dVertex
 10
114.9204616683185
 20
-162.7042805582823
 30
0.0
  0
VERTEX
  5
BF
330
B9
100
AcDbEntity
  8
VALLEYLINE
  6
AI-LINETYPE-5
 62
   250
100
AcDbVertex
100
AcDb2dVertex
 10
112.142336669013
 20
-163.6723523896375
 30
0.0
  0
VERTEX
  5
C0
330
B9
100
AcDbEntity
  8
VALLEYLINE
  6
AI-LINETYPE-5
 62
   250
100
AcDbVertex
100
AcDb2dVertex
 10
109.3824706757794
 20
-164.630777953634
 30
0.0
  0
VERTEX
  5
C1
330
B9
100
AcDbEntity
  8
VALLEYLINE
  6
AI-LINETYPE-5
 62
   250
100
AcDbVertex
100
AcDb2dVertex
 10
106.6505099559763
 20
-165.5768011738836
 30
0.0
  0
VERTEX
  5
C2
330
B9
100
AcDbEntity
  8
VALLEYLINE
  6
AI-LINETYPE-5
 62
   250
100
AcDbVertex
100
AcDb2dVertex
 10
103.9633354774814
 20
-166.4993977448335
 30
0.0
  0
VERTEX
  5
C3
330
B9
100
AcDbEntity
  8
VALLEYLINE
  6
AI-LINETYPE-5
 62
   250
100
AcDbVertex
100
AcDb2dVertex
 10
101.3578097619869
 20
-167.3806531699604
 30
0.0
  0
VERTEX
  5
C4
330
B9
100
AcDbEntity
  8
VALLEYLINE
  6
AI-LINETYPE-5
 62
   250
100
AcDbVertex
100
AcDb2dVertex
 10
98.9083468719743
 20
-168.1819823798295
 30
0.0
  0
VERTEX
  5
C5
330
B9
100
AcDbEntity
  8
VALLEYLINE
  6
AI-LINETYPE-5
 62
   250
100
AcDbVertex
100
AcDb2dVertex
 10
96.77996688118695
 20
-168.8055446626597
 30
0.0
  0
VERTEX
  5
C6
330
B9
100
AcDbEntity
  8
VALLEYLINE
  6
AI-LINETYPE-5
 62
   250
100
AcDbVertex
100
AcDb2dVertex
 10
95.15663788853723
 20
-169.0611707476653
 30
0.0
  0
VERTEX
  5
C7
330
B9
100
AcDbEntity
  8
VALLEYLINE
  6
AI-LINETYPE-5
 62
   250
100
AcDbVertex
100
AcDb2dVertex
 10
93.53261987679046
 20
-168.8055446626597
 30
0.0
  0
VERTEX
  5
C8
330
B9
100
AcDbEntity
  8
VALLEYLINE
  6
AI-LINETYPE-5
 62
   250
100
AcDbVertex
100
AcDb2dVertex
 10
91.40423988600311
 20
-168.1819823798295
 30
0.0
  0
VERTEX
  5
C9
330
B9
100
AcDbEntity
  8
VALLEYLINE
  6
AI-LINETYPE-5
 62
   250
100
AcDbVertex
100
AcDb2dVertex
 10
88.955121505539
 20
-167.3806531699604
 30
0.0
  0
VERTEX
  5
CA
330
B9
100
AcDbEntity
  8
VALLEYLINE
  6
AI-LINETYPE-5
 62
   250
100
AcDbVertex
100
AcDb2dVertex
 10
86.34925128049602
 20
-166.4993977448335
 30
0.0
  0
VERTEX
  5
CB
330
B9
100
AcDbEntity
  8
VALLEYLINE
  6
AI-LINETYPE-5
 62
   250
100
AcDbVertex
100
AcDb2dVertex
 10
83.66242131154968
 20
-165.5768011738836
 30
0.0
  0
VERTEX
  5
CC
330
B9
100
AcDbEntity
  8
VALLEYLINE
  6
AI-LINETYPE-5
 62
   250
100
AcDbVertex
100
AcDb2dVertex
 10
80.93011608219803
 20
-164.630777953634
 30
0.0
  0
VERTEX
  5
CD
330
B9
100
AcDbEntity
  8
VALLEYLINE
  6
AI-LINETYPE-5
 62
   250
100
AcDbVertex
100
AcDb2dVertex
 10
78.17025008896438
 20
-163.6723523896375
 30
0.0
  0
VERTEX
  5
CE
330
B9
100
AcDbEntity
  8
VALLEYLINE
  6
AI-LINETYPE-5
 62
   250
100
AcDbVertex
100
AcDb2dVertex
 10
75.39212508965892
 20
-162.7042805582823
 30
0.0
  0
VERTEX
  5
CF
330
B9
100
AcDbEntity
  8
VALLEYLINE
  6
AI-LINETYPE-5
 62
   250
100
AcDbVertex
100
AcDb2dVertex
 10
72.60090872750949
 20
-161.7306965741507
 30
0.0
  0
VERTEX
  5
D0
330
B9
100
AcDbEntity
  8
VALLEYLINE
  6
AI-LINETYPE-5
 62
   250
100
AcDbVertex
100
AcDb2dVertex
 10
69.801768645744
 20
-160.7526339658882
 30
0.0
  0
VERTEX
  5
D1
330
B9
100
AcDbEntity
  8
VALLEYLINE
  6
AI-LINETYPE-5
 62
   250
100
AcDbVertex
100
AcDb2dVertex
 10
66.99573837300801
 20
-159.7704372430435
 30
0.0
  0
VERTEX
  5
D2
330
B9
100
AcDbEntity
  8
VALLEYLINE
  6
AI-LINETYPE-5
 62
   250
100
AcDbVertex
100
AcDb2dVertex
 10
64.18454045704415
 20
-158.7872069915532
 30
0.0
  0
SEQEND
  5
D3
330
B9
100
AcDbEntity
  8
VALLEYLINE
  6
AI-LINETYPE-5
  0
POLYLINE
  5
D5
330
1F
100
AcDbEntity
  8
VALLEYLINE
  6
AI-LINETYPE-6
 62
   250
100
AcDb2dPolyline
 66
     1
 10
0.0
 20
0.0
 30
0.0
  0
VERTEX
  5
D6
330
D5
100
AcDbEntity
  8
VALLEYLINE
  6
AI-LINETYPE-6
 62
   250
100
AcDbVertex
100
AcDb2dVertex
 10
64.18454045704415
 20
-190.2278374090403
 30
0.0
  0
VERTEX
  5
D7
330
D5
100
AcDbEntity
  8
VALLEYLINE
  6
AI-LINETYPE-6
 62
   250
100
AcDbVertex
100
AcDb2dVertex
 10
66.99573837300801
 20
-191.2110676605306
 30
0.0
  0
VERTEX
  5
D8
330
D5
100
AcDbEntity
  8
VALLEYLINE
  6
AI-LINETYPE-6
 62
   250
100
AcDbVertex
100
AcDb2dVertex
 10
69.801768645744
 20
-192.1922308547297
 30
0.0
  0
VERTEX
  5
D9
330
D5
100
AcDbEntity
  8
VALLEYLINE
  6
AI-LINETYPE-6
 62
   250
100
AcDbVertex
100
AcDb2dVertex
 10
72.60090872750949
 20
-193.1706379725407
 30
0.0
  0
VERTEX
  5
DA
330
D5
100
AcDbEntity
  8
VALLEYLINE
  6
AI-LINETYPE-6
 62
   250
100
AcDbVertex
100
AcDb2dVertex
 10
75.39212508965892
 20
-194.1449109757693
 30
0.0
  0
VERTEX
  5
DB
330
D5
100
AcDbEntity
  8
VALLEYLINE
  6
AI-LINETYPE-6
 62
   250
100
AcDbVertex
100
AcDb2dVertex
 10
78.17025008896438
 20
-195.1122937880275
 30
0.0
  0
VERTEX
  5
DC
330
D5
100
AcDbEntity
  8
VALLEYLINE
  6
AI-LINETYPE-6
 62
   250
100
AcDbVertex
100
AcDb2dVertex
 10
80.93011608219803
 20
-196.071408371121
 30
0.0
  0
VERTEX
  5
DD
330
D5
100
AcDbEntity
  8
VALLEYLINE
  6
AI-LINETYPE-6
 62
   250
100
AcDbVertex
100
AcDb2dVertex
 10
83.66242131154968
 20
-197.0174315913706
 30
0.0
  0
VERTEX
  5
DE
330
D5
100
AcDbEntity
  8
VALLEYLINE
  6
AI-LINETYPE-6
 62
   250
100
AcDbVertex
100
AcDb2dVertex
 10
86.34925128049602
 20
-197.9393391432235
 30
0.0
  0
VERTEX
  5
DF
330
D5
100
AcDbEntity
  8
VALLEYLINE
  6
AI-LINETYPE-6
 62
   250
100
AcDbVertex
100
AcDb2dVertex
 10
88.955121505539
 20
-198.8219726065445
 30
0.0
  0
VERTEX
  5
E0
330
D5
100
AcDbEntity
  8
VALLEYLINE
  6
AI-LINETYPE-6
 62
   250
100
AcDbVertex
100
AcDb2dVertex
 10
91.40423988600311
 20
-199.6226127973166
 30
0.0
  0
VERTEX
  5
E1
330
D5
100
AcDbEntity
  8
VALLEYLINE
  6
AI-LINETYPE-6
 62
   250
100
AcDbVertex
100
AcDb2dVertex
 10
93.53261987679046
 20
-200.2454860610497
 30
0.0
  0
VERTEX
  5
E2
330
D5
100
AcDbEntity
  8
VALLEYLINE
  6
AI-LINETYPE-6
 62
   250
100
AcDbVertex
100
AcDb2dVertex
 10
95.15663788853723
 20
-200.5011121460553
 30
0.0
  0
VERTEX
  5
E3
330
D5
100
AcDbEntity
  8
VALLEYLINE
  6
AI-LINETYPE-6
 62
   250
100
AcDbVertex
100
AcDb2dVertex
 10
96.77996688118695
 20
-200.2454860610497
 30
0.0
  0
VERTEX
  5
E4
330
D5
100
AcDbEntity
  8
VALLEYLINE
  6
AI-LINETYPE-6
 62
   250
100
AcDbVertex
100
AcDb2dVertex
 10
98.9083468719743
 20
-199.6226127973166
 30
0.0
  0
VERTEX
  5
E5
330
D5
100
AcDbEntity
  8
VALLEYLINE
  6
AI-LINETYPE-6
 62
   250
100
AcDbVertex
100
AcDb2dVertex
 10
101.3578097619869
 20
-198.8219726065445
 30
0.0
  0
VERTEX
  5
E6
330
D5
100
AcDbEntity
  8
VALLEYLINE
  6
AI-LINETYPE-6
 62
   250
100
AcDbVertex
100
AcDb2dVertex
 10
103.9633354774814
 20
-197.9393391432235
 30
0.0
  0
VERTEX
  5
E7
330
D5
100
AcDbEntity
  8
VALLEYLINE
  6
AI-LINETYPE-6
 62
   250
100
AcDbVertex
100
AcDb2dVertex
 10
106.6505099559763
 20
-197.0174315913706
 30
0.0
  0
VERTEX
  5
E8
330
D5
100
AcDbEntity
  8
VALLEYLINE
  6
AI-LINETYPE-6
 62
   250
100
AcDbVertex
100
AcDb2dVertex
 10
109.3824706757794
 20
-196.071408371121
 30
0.0
  0
VERTEX
  5
E9
330
D5
100
AcDbEntity
  8
VALLEYLINE
  6
AI-LINETYPE-6
 62
   250
100
AcDbVertex
100
AcDb2dVertex
 10
112.142336669013
 20
-195.1122937880275
 30
0.0
  0
VERTEX
  5
EA
330
D5
100
AcDbEntity
  8
VALLEYLINE
  6
AI-LINETYPE-6
 62
   250
100
AcDbVertex
100
AcDb2dVertex
 10
114.9204616683185
 20
-194.1449109757693
 30
0.0
  0
VERTEX
  5
EB
330
D5
100
AcDbEntity
  8
VALLEYLINE
  6
AI-LINETYPE-6
 62
   250
100
AcDbVertex
100
AcDb2dVertex
 10
117.7116780304679
 20
-193.1706379725407
 30
0.0
  0
VERTEX
  5
EC
330
D5
100
AcDbEntity
  8
VALLEYLINE
  6
AI-LINETYPE-6
 62
   250
100
AcDbVertex
100
AcDb2dVertex
 10
120.5111626217819
 20
-192.1922308547297
 30
0.0
  0
VERTEX
  5
ED
330
D5
100
AcDbEntity
  8
VALLEYLINE
  6
AI-LINETYPE-6
 62
   250
100
AcDbVertex
100
AcDb2dVertex
 10
123.3175374040665
 20
-191.2110676605306
 30
0.0
  0
VERTEX
  5
EE
330
D5
100
AcDbEntity
  8
VALLEYLINE
  6
AI-LINETYPE-6
 62
   250
100
AcDbVertex
100
AcDb2dVertex
 10
126.1280463009333
 20
-190.2278374090403
 30
0.0
  0
SEQEND
  5
EF
330
D5
100
AcDbEntity
  8
VALLEYLINE
  6
AI-LINETYPE-6
  0
POLYLINE
  5
F1
330
1F
100
AcDbEntity
  8
VALLEYLINE
  6
AI-LINETYPE-7
 62
   250
100
AcDb2dPolyline
 66
     1
 10
0.0
 20
0.0
 30
0.0
  0
VERTEX
  5
F2
330
F1
100
AcDbEntity
  8
VALLEYLINE
  6
AI-LINETYPE-7
 62
   250
100
AcDbVertex
100
AcDb2dVertex
 10
126.1280463009333
 20
-221.6670897883332
 30
0.0
  0
VERTEX
  5
F3
330
F1
100
AcDbEntity
  8
VALLEYLINE
  6
AI-LINETYPE-7
 62
   250
100
AcDbVertex
100
AcDb2dVertex
 10
123.3175374040665
 20
-222.6510090589206
 30
0.0
  0
VERTEX
  5
F4
330
F1
100
AcDbEntity
  8
VALLEYLINE
  6
AI-LINETYPE-7
 62
   250
100
AcDbVertex
100
AcDb2dVertex
 10
120.5111626217819
 20
-223.6335502913138
 30
0.0
  0
VERTEX
  5
F5
330
F1
100
AcDbEntity
  8
VALLEYLINE
  6
AI-LINETYPE-7
 62
   250
100
AcDbVertex
100
AcDb2dVertex
 10
117.7116780304679
 20
-224.6112683900278
 30
0.0
  0
VERTEX
  5
F6
330
F1
100
AcDbEntity
  8
VALLEYLINE
  6
AI-LINETYPE-7
 62
   250
100
AcDbVertex
100
AcDb2dVertex
 10
114.9204616683185
 20
-225.5855413932564
 30
0.0
  0
VERTEX
  5
F7
330
F1
100
AcDbEntity
  8
VALLEYLINE
  6
AI-LINETYPE-7
 62
   250
100
AcDbVertex
100
AcDb2dVertex
 10
112.142336669013
 20
-226.5529242055146
 30
0.0
  0
VERTEX
  5
F8
330
F1
100
AcDbEntity
  8
VALLEYLINE
  6
AI-LINETYPE-7
 62
   250
100
AcDbVertex
100
AcDb2dVertex
 10
109.3824706757794
 20
-227.5120387886081
 30
0.0
  0
VERTEX
  5
F9
330
F1
100
AcDbEntity
  8
VALLEYLINE
  6
AI-LINETYPE-7
 62
   250
100
AcDbVertex
100
AcDb2dVertex
 10
106.6505099559763
 20
-228.4573729897607
 30
0.0
  0
VERTEX
  5
FA
330
F1
100
AcDbEntity
  8
VALLEYLINE
  6
AI-LINETYPE-7
 62
   250
100
AcDbVertex
100
AcDb2dVertex
 10
103.9633354774814
 20
-229.3792805416135
 30
0.0
  0
VERTEX
  5
FB
330
F1
100
AcDbEntity
  8
VALLEYLINE
  6
AI-LINETYPE-7
 62
   250
100
AcDbVertex
100
AcDb2dVertex
 10
101.3578097619869
 20
-230.2619140049345
 30
0.0
  0
VERTEX
  5
FC
330
F1
100
AcDbEntity
  8
VALLEYLINE
  6
AI-LINETYPE-7
 62
   250
100
AcDbVertex
100
AcDb2dVertex
 10
98.9083468719743
 20
-231.0625541957066
 30
0.0
  0
VERTEX
  5
FD
330
F1
100
AcDbEntity
  8
VALLEYLINE
  6
AI-LINETYPE-7
 62
   250
100
AcDbVertex
100
AcDb2dVertex
 10
96.77996688118695
 20
-231.6861164785368
 30
0.0
  0
VERTEX
  5
FE
330
F1
100
AcDbEntity
  8
VALLEYLINE
  6
AI-LINETYPE-7
 62
   250
100
AcDbVertex
100
AcDb2dVertex
 10
95.15663788853723
 20
-231.9417425635424
 30
0.0
  0
VERTEX
  5
FF
330
F1
100
AcDbEntity
  8
VALLEYLINE
  6
AI-LINETYPE-7
 62
   250
100
AcDbVertex
100
AcDb2dVertex
 10
93.53261987679046
 20
-231.6861164785368
 30
0.0
  0
VERTEX
  5
100
330
F1
100
AcDbEntity
  8
VALLEYLINE
  6
AI-LINETYPE-7
 62
   250
100
AcDbVertex
100
AcDb2dVertex
 10
91.40423988600311
 20
-231.0625541957066
 30
0.0
  0
VERTEX
  5
101
330
F1
100
AcDbEntity
  8
VALLEYLINE
  6
AI-LINETYPE-7
 62
   250
100
AcDbVertex
100
AcDb2dVertex
 10
88.955121505539
 20
-230.2619140049345
 30
0.0
  0
VERTEX
  5
102
330
F1
100
AcDbEntity
  8
VALLEYLINE
  6
AI-LINETYPE-7
 62
   250
100
AcDbVertex
100
AcDb2dVertex
 10
86.34925128049602
 20
-229.3792805416135
 30
0.0
  0
VERTEX
  5
103
330
F1
100
AcDbEntity
  8
VALLEYLINE
  6
AI-LINETYPE-7
 62
   250
100
AcDbVertex
100
AcDb2dVertex
 10
83.66242131154968
 20
-228.4573729897607
 30
0.0
  0
VERTEX
  5
104
330
F1
100
AcDbEntity
  8
VALLEYLINE
  6
AI-LINETYPE-7
 62
   250
100
AcDbVertex
100
AcDb2dVertex
 10
80.93011608219803
 20
-227.5120387886081
 30
0.0
  0
VERTEX
  5
105
330
F1
100
AcDbEntity
  8
VALLEYLINE
  6
AI-LINETYPE-7
 62
   250
100
AcDbVertex
100
AcDb2dVertex
 10
78.17025008896438
 20
-226.5529242055146
 30
0.0
  0
VERTEX
  5
106
330
F1
100
AcDbEntity
  8
VALLEYLINE
  6
AI-LINETYPE-7
 62
   250
100
AcDbVertex
100
AcDb2dVertex
 10
75.39212508965892
 20
-225.5855413932564
 30
0.0
  0
VERTEX
  5
107
330
F1
100
AcDbEntity
  8
VALLEYLINE
  6
AI-LINETYPE-7
 62
   250
100
AcDbVertex
100
AcDb2dVertex
 10
72.60090872750949
 20
-224.6112683900278
 30
0.0
  0
VERTEX
  5
108
330
F1
100
AcDbEntity
  8
VALLEYLINE
  6
AI-LINETYPE-7
 62
   250
100
AcDbVertex
100
AcDb2dVertex
 10
69.801768645744
 20
-223.6335502913138
 30
0.0
  0
VERTEX
  5
109
330
F1
100
AcDbEntity
  8
VALLEYLINE
  6
AI-LINETYPE-7
 62
   250
100
AcDbVertex
100
AcDb2dVertex
 10
66.99573837300801
 20
-222.6510090589206
 30
0.0
  0
VERTEX
  5
10A
330
F1
100
AcDbEntity
  8
VALLEYLINE
  6
AI-LINETYPE-7
 62
   250
100
AcDbVertex
100
AcDb2dVertex
 10
64.18454045704415
 20
-221.6670897883332
 30
0.0
  0
SEQEND
  5
10B
330
F1
100
AcDbEntity
  8
VALLEYLINE
  6
AI-LINETYPE-7
  0
POLYLINE
  5
10D
330
1F
100
AcDbEntity
  8
VALLEYLINE
  6
AI-LINETYPE-8
 62
   250
100
AcDb2dPolyline
 66
     1
 10
0.0
 20
0.0
 30
0.0
  0
VERTEX
  5
10E
330
10D
100
AcDbEntity
  8
VALLEYLINE
  6
AI-LINETYPE-8
 62
   250
100
AcDbVertex
100
AcDb2dVertex
 10
64.18454045704415
 20
-253.1084092249174
 30
0.0
  0
VERTEX
  5
10F
330
10D
100
AcDbEntity
  8
VALLEYLINE
  6
AI-LINETYPE-8
 62
   250
100
AcDbVertex
100
AcDb2dVertex
 10
66.99573837300801
 20
-254.0923284955047
 30
0.0
  0
VERTEX
  5
110
330
10D
100
AcDbEntity
  8
VALLEYLINE
  6
AI-LINETYPE-8
 62
   250
100
AcDbVertex
100
AcDb2dVertex
 10
69.801768645744
 20
-255.0734916897039
 30
0.0
  0
VERTEX
  5
111
330
10D
100
AcDbEntity
  8
VALLEYLINE
  6
AI-LINETYPE-8
 62
   250
100
AcDbVertex
100
AcDb2dVertex
 10
72.60090872750949
 20
-256.0518988075148
 30
0.0
  0
VERTEX
  5
112
330
10D
100
AcDbEntity
  8
VALLEYLINE
  6
AI-LINETYPE-8
 62
   250
100
AcDbVertex
100
AcDb2dVertex
 10
75.39212508965892
 20
-257.0261718107434
 30
0.0
  0
VERTEX
  5
113
330
10D
100
AcDbEntity
  8
VALLEYLINE
  6
AI-LINETYPE-8
 62
   250
100
AcDbVertex
100
AcDb2dVertex
 10
78.17025008896438
 20
-257.9935546230016
 30
0.0
  0
VERTEX
  5
114
330
10D
100
AcDbEntity
  8
VALLEYLINE
  6
AI-LINETYPE-8
 62
   250
100
AcDbVertex
100
AcDb2dVertex
 10
80.93011608219803
 20
-258.9519801869981
 30
0.0
  0
VERTEX
  5
115
330
10D
100
AcDbEntity
  8
VALLEYLINE
  6
AI-LINETYPE-8
 62
   250
100
AcDbVertex
100
AcDb2dVertex
 10
83.66242131154968
 20
-259.8973143881507
 30
0.0
  0
VERTEX
  5
116
330
10D
100
AcDbEntity
  8
VALLEYLINE
  6
AI-LINETYPE-8
 62
   250
100
AcDbVertex
100
AcDb2dVertex
 10
86.34925128049602
 20
-260.8199109591006
 30
0.0
  0
VERTEX
  5
117
330
10D
100
AcDbEntity
  8
VALLEYLINE
  6
AI-LINETYPE-8
 62
   250
100
AcDbVertex
100
AcDb2dVertex
 10
88.955121505539
 20
-261.7018554033245
 30
0.0
  0
VERTEX
  5
118
330
10D
100
AcDbEntity
  8
VALLEYLINE
  6
AI-LINETYPE-8
 62
   250
100
AcDbVertex
100
AcDb2dVertex
 10
91.40423988600311
 20
-262.5031846131936
 30
0.0
  0
VERTEX
  5
119
330
10D
100
AcDbEntity
  8
VALLEYLINE
  6
AI-LINETYPE-8
 62
   250
100
AcDbVertex
100
AcDb2dVertex
 10
93.53261987679046
 20
-263.1267468960239
 30
0.0
  0
VERTEX
  5
11A
330
10D
100
AcDbEntity
  8
VALLEYLINE
  6
AI-LINETYPE-8
 62
   250
100
AcDbVertex
100
AcDb2dVertex
 10
95.15663788853723
 20
-263.3816839619324
 30
0.0
  0
VERTEX
  5
11B
330
10D
100
AcDbEntity
  8
VALLEYLINE
  6
AI-LINETYPE-8
 62
   250
100
AcDbVertex
100
AcDb2dVertex
 10
96.77996688118695
 20
-263.1267468960239
 30
0.0
  0
VERTEX
  5
11C
330
10D
100
AcDbEntity
  8
VALLEYLINE
  6
AI-LINETYPE-8
 62
   250
100
AcDbVertex
100
AcDb2dVertex
 10
98.9083468719743
 20
-262.5031846131936
 30
0.0
  0
VERTEX
  5
11D
330
10D
100
AcDbEntity
  8
VALLEYLINE
  6
AI-LINETYPE-8
 62
   250
100
AcDbVertex
100
AcDb2dVertex
 10
101.3578097619869
 20
-261.7018554033245
 30
0.0
  0
VERTEX
  5
11E
330
10D
100
AcDbEntity
  8
VALLEYLINE
  6
AI-LINETYPE-8
 62
   250
100
AcDbVertex
100
AcDb2dVertex
 10
103.9633354774814
 20
-260.8199109591006
 30
0.0
  0
VERTEX
  5
11F
330
10D
100
AcDbEntity
  8
VALLEYLINE
  6
AI-LINETYPE-8
 62
   250
100
AcDbVertex
100
AcDb2dVertex
 10
106.6505099559763
 20
-259.8973143881507
 30
0.0
  0
VERTEX
  5
120
330
10D
100
AcDbEntity
  8
VALLEYLINE
  6
AI-LINETYPE-8
 62
   250
100
AcDbVertex
100
AcDb2dVertex
 10
109.3824706757794
 20
-258.9519801869981
 30
0.0
  0
VERTEX
  5
121
330
10D
100
AcDbEntity
  8
VALLEYLINE
  6
AI-LINETYPE-8
 62
   250
100
AcDbVertex
100
AcDb2dVertex
 10
112.142336669013
 20
-257.9935546230016
 30
0.0
  0
VERTEX
  5
122
330
10D
100
AcDbEntity
  8
VALLEYLINE
  6
AI-LINETYPE-8
 62
   250
100
AcDbVertex
100
AcDb2dVertex
 10
114.9204616683185
 20
-257.0261718107434
 30
0.0
  0
VERTEX
  5
123
330
10D
100
AcDbEntity
  8
VALLEYLINE
  6
AI-LINETYPE-8
 62
   250
100
AcDbVertex
100
AcDb2dVertex
 10
117.7116780304679
 20
-256.0518988075148
 30
0.0
  0
VERTEX
  5
124
330
10D
100
AcDbEntity
  8
VALLEYLINE
  6
AI-LINETYPE-8
 62
   250
100
AcDbVertex
100
AcDb2dVertex
 10
120.5111626217819
 20
-255.0734916897039
 30
0.0
  0
VERTEX
  5
125
330
10D
100
AcDbEntity
  8
VALLEYLINE
  6
AI-LINETYPE-8
 62
   250
100
AcDbVertex
100
AcDb2dVertex
 10
123.3175374040665
 20
-254.0923284955047
 30
0.0
  0
VERTEX
  5
126
330
10D
100
AcDbEntity
  8
VALLEYLINE
  6
AI-LINETYPE-8
 62
   250
100
AcDbVertex
100
AcDb2dVertex
 10
126.1280463009333
 20
-253.1084092249174
 30
0.0
  0
SEQEND
  5
127
330
10D
100
AcDbEntity
  8
VALLEYLINE
  6
AI-LINETYPE-8
  0
POLYLINE
  5
12A
330
1F
100
AcDbEntity
  8
MOUNTAINLINE
 62
   250
100
AcDb2dPolyline
 66
     1
 10
0.0
 20
0.0
 30
0.0
  0
VERTEX
  5
12B
330
12A
100
AcDbEntity
  8
MOUNTAINLINE
 62
   250
100
AcDbVertex
100
AcDb2dVertex
 10
126.1280463009333
 20
-60.83831921222098
 30
0.0
  0
VERTEX
  5
12C
330
12A
100
AcDbEntity
  8
MOUNTAINLINE
 62
   250
100
AcDbVertex
100
AcDb2dVertex
 10
64.18454045704415
 20
-60.83831921222098
 30
0.0
  0
SEQEND
  5
12D
330
12A
100
AcDbEntity
  8
MOUNTAINLINE
  0
POLYLINE
  5
12E
330
1F
100
AcDbEntity
  8
MOUNTAINLINE
 62
   250
100
AcDb2dPolyline
 66
     1
 10
0.0
 20
0.0
 30
0.0
  0
VERTEX
  5
12F
330
12E
100
AcDbEntity
  8
MOUNTAINLINE
 62
   250
100
AcDbVertex
100
AcDb2dVertex
 10
126.1280463009333
 20
-92.27860512015953
 30
0.0
  0
VERTEX
  5
130
330
12E
100
AcDbEntity
  8
MOUNTAINLINE
 62
   250
100
AcDbVertex
100
AcDb2dVertex
 10
64.18454045704415
 20
-92.27860512015953
 30
0.0
  0
SEQEND
  5
131
330
12E
100
AcDbEntity
  8
MOUNTAINLINE
  0
POLYLINE
  5
132
330
1F
100
AcDbEntity
  8
MOUNTAINLINE
 62
   250
100
AcDb2dPolyline
 66
     1
 10
0.0
 20
0.0
 30
0.0
  0
VERTEX
  5
133
330
132
100
AcDbEntity
  8
MOUNTAINLINE
 62
   250
100
AcDbVertex
100
AcDb2dVertex
 10
126.1280463009333
 20
-123.7188910280981
 30
0.0
  0
VERTEX
  5
134
330
132
100
AcDbEntity
  8
MOUNTAINLINE
 62
   250
100
AcDbVertex
100
AcDb2dVertex
 10
64.18454045704415
 20
-123.7188910280981
 30
0.0
  0
SEQEND
  5
135
330
132
100
AcDbEntity
  8
MOUNTAINLINE
  0
POLYLINE
  5
136
330
1F
100
AcDbEntity
  8
MOUNTAINLINE
 62
   250
100
AcDb2dPolyline
 66
     1
 10
0.0
 20
0.0
 30
0.0
  0
VERTEX
  5
137
330
136
100
AcDbEntity
  8
MOUNTAINLINE
 62
   250
100
AcDbVertex
100
AcDb2dVertex
 10
126.1280463009333
 20
-155.1591769360366
 30
0.0
  0
VERTEX
  5
138
330
136
100
AcDbEntity
  8
MOUNTAINLINE
 62
   250
100
AcDbVertex
100
AcDb2dVertex
 10
64.18454045704415
 20
-155.1591769360366
 30
0.0
  0
SEQEND
  5
139
330
136
100
AcDbEntity
  8
MOUNTAINLINE
  0
POLYLINE
  5
13A
330
1F
100
AcDbEntity
  8
MOUNTAINLINE
 62
   250
100
AcDb2dPolyline
 66
     1
 10
0.0
 20
0.0
 30
0.0
  0
VERTEX
  5
13B
330
13A
100
AcDbEntity
  8
MOUNTAINLINE
 62
   250
100
AcDbVertex
100
AcDb2dVertex
 10
126.1280463009333
 20
-186.5994628439751
 30
0.0
  0
VERTEX
  5
13C
330
13A
100
AcDbEntity
  8
MOUNTAINLINE
 62
   250
100
AcDbVertex
100
AcDb2dVertex
 10
64.18454045704415
 20
-186.5994628439751
 30
0.0
  0
SEQEND
  5
13D
330
13A
100
AcDbEntity
  8
MOUNTAINLINE
  0
POLYLINE
  5
13E
330
1F
100
AcDbEntity
  8
MOUNTAINLINE
 62
   250
100
AcDb2dPolyline
 66
     1
 10
0.0
 20
0.0
 30
0.0
  0
VERTEX
  5
13F
330
13E
100
AcDbEntity
  8
MOUNTAINLINE
 62
   250
100
AcDbVertex
100
AcDb2dVertex
 10
126.1280463009333
 20
-218.0400932614622
 30
0.0
  0
VERTEX
  5
140
330
13E
100
AcDbEntity
  8
MOUNTAINLINE
 62
   250
100
AcDbVertex
100
AcDb2dVertex
 10
64.18454045704415
 20
-218.0400932614622
 30
0.0
  0
SEQEND
  5
141
330
13E
100
AcDbEntity
  8
MOUNTAINLINE
  0
POLYLINE
  5
142
330
1F
100
AcDbEntity
  8
MOUNTAINLINE
 62
   250
100
AcDb2dPolyline
 66
     1
 10
0.0
 20
0.0
 30
0.0
  0
VERTEX
  5
143
330
142
100
AcDbEntity
  8
MOUNTAINLINE
 62
   250
100
AcDbVertex
100
AcDb2dVertex
 10
126.1280463009333
 20
-249.4800346598522
 30
0.0
  0
VERTEX
  5
144
330
142
100
AcDbEntity
  8
MOUNTAINLINE
 62
   250
100
AcDbVertex
100
AcDb2dVertex
 10
64.18454045704415
 20
-249.4800346598522
 30
0.0
  0
SEQEND
  5
145
330
142
100
AcDbEntity
  8
MOUNTAINLINE
  0
MTEXT
  5
147
330
1F
100
AcDbEntity
  8
TEXT
 62
     7
100
AcDbMText
 10
152.5092094887824
 20
-287.6096624715004
 30
0.0
 40
3.358444443604833
 41
0.0
 71
     7
 72
     1
  1
\fArial|b0|i0|c0|p34;\W1;(c) 2016 Jun Mitani
  0
MTEXT
  5
148
330
1F
100
AcDbEntity
  8
TEXT
 62
     7
100
AcDbMText
 10
10.83448079156221
 20
-14.85542398717156
 30
0.0
 40
4.3179999989205
 41
0.0
 71
     7
 72
     1
  1
\fArial|b0|i0|c0|p34;\W1;Water Wheel
  0
ENDSEC
  0
SECTION
  2
OBJECTS
  0
DICTIONARY
  5
C
330
0
100
AcDbDictionary
  3
ACAD_GROUP
350
D
  3
ACAD_LAYOUT
350
1A
  3
ACAD_MLINESTYLE
350
17
  3
ACAD_PLOTSETTINGS
350
19
  3
ACAD_TABLESTYLE
350
149
  3
ACAD_VISUALSTYLE
350
2A
1001
ACAD
1000
TREAT_AS_HARD
1070
     0
  0
DICTIONARY
  5
D
102
{ACAD_REACTORS
330
C
102
}
330
C
100
AcDbDictionary
1001
ACAD
1000
TREAT_AS_HARD
1070
     0
  0
DICTIONARY
  5
1A
102
{ACAD_REACTORS
330
C
102
}
330
C
100
AcDbDictionary
1001
ACAD
1000
TREAT_AS_HARD
1070
     0
  0
DICTIONARY
  5
17
102
{ACAD_REACTORS
330
C
102
}
330
C
100
AcDbDictionary
  3
STANDARD
350
18
1001
ACAD
1000
TREAT_AS_HARD
1070
     0
  0
DICTIONARY
  5
19
102
{ACAD_REACTORS
330
C
102
}
330
C
100
AcDbDictionary
1001
ACAD
1000
TREAT_AS_HARD
1070
     0
  0
DICTIONARY
  5
149
102
{ACAD_REACTORS
330
C
102
}
330
C
100
AcDbDictionary
1001
ACAD
1000
TREAT_AS_HARD
1070
     0
  0
DICTIONARY
  5
2A
102
{ACAD_REACTORS
330
C
102
}
330
C
100
AcDbDictionary
  3
2DWIREFRAME
350
2F
  3
3D_HIDDEN
350
31
  3
3DWIREFRAME
350
30
  3
BASIC
350
32
  3
BRIGHTEN
350
36
  3
COLORCHANGE
350
3A
  3
CONCEPTUAL
350
34
  3
DIM
350
35
  3
FACEPATTERN
350
39
  3
FLAT
350
2B
  3
FLATWITHEDGES
350
2C
  3
GOURAUD
350
2D
  3
GOURAUDWITHEDGES
350
2E
  3
LINEPATTERN
350
38
  3
REALISTIC
350
33
  3
THICKEN
350
37
1001
ACAD
1000
TREAT_AS_HARD
1070
     0
  0
MLINESTYLE
  5
18
102
{ACAD_REACTORS
330
17
102
}
330
17
100
AcDbMlineStyle
  2
Standard
 70
     0
  3

 62
   256
 51
90.0
 52
90.0
 71
     2
 49
0.5
 62
   256
  6
BYLAYER
 49
-0.5
 62
   256
  6
BYLAYER
  0
VISUALSTYLE
  5
2F
102
{ACAD_REACTORS
330
2A
102
}
330
2A
100
AcDbVisualStyle
  2
2dWireframe
 70
     4
 71
     0
 72
     2
 73
     0
 90
        0
 40
-0.6
 41
-30.0
 62
     5
 63
     7
 74
     1
 91
        4
 64
     7
 65
   257
 75
     1
175
     1
 42
1.0
 92
        0
 66
   257
 43
1.0
 76
     1
 77
     6
 78
     2
 67
     7
 79
     5
170
     0
171
     0
290
     0
174
     0
 93
        1
 44
0.0
173
     0
291
     0
 45
0.0
1001
ACAD
1000
AcDbSavedByObjectVersion
1070
     0
  0
VISUALSTYLE
  5
31
102
{ACAD_REACTORS
330
2A
102
}
330
2A
100
AcDbVisualStyle
  2
3D Hidden
 70
     6
 71
     1
 72
     2
 73
     2
 90
        0
 40
-0.6
 41
-30.0
 62
     5
 63
     7
 74
     2
 91
        2
 64
     7
 65
   257
 75
     2
175
     1
 42
40.0
 92
        0
 66
   257
 43
1.0
 76
     1
 77
     6
 78
     2
 67
     7
 79
     3
170
     0
171
     0
290
     0
174
     0
 93
        1
 44
0.0
173
     0
291
     0
 45
0.0
1001
ACAD
1000
AcDbSavedByObjectVersion
1070
     0
  0
VISUALSTYLE
  5
30
102
{ACAD_REACTORS
330
2A
102
}
330
2A
100
AcDbVisualStyle
  2
3dWireframe
 70
     5
 71
     0
 72
     2
 73
     0
 90
        0
 40
-0.6
 41
-30.0
 62
     5
 63
     7
 74
     1
 91
        4
 64
     7
 65
   257
 75
     1
175
     1
 42
1.0
 92
        0
 66
   257
 43
1.0
 76
     1
 77
     6
 78
     2
 67
     7
 79
     5
170
     0
171
     0
290
     0
174
     0
 93
        1
 44
0.0
173
     0
291
     0
 45
0.0
1001
ACAD
1000
AcDbSavedByObjectVersion
1070
     0
  0
VISUALSTYLE
  5
32
102
{ACAD_REACTORS
330
2A
102
}
330
2A
100
AcDbVisualStyle
  2
Basic
 70
     7
 71
     1
 72
     0
 73
     1
 90
        0
 40
-0.6
 41
-30.0
 62
     5
 63
     7
 74
     0
 91
        4
 64
     7
 65
   257
 75
     1
175
     1
 42
1.0
 92
        8
 66
     7
 43
1.0
 76
     1
 77
     6
 78
     2
 67
     7
 79
     5
170
     0
171
     0
290
     0
174
     0
 93
        1
 44
0.0
173
     0
291
     1
 45
0.0
1001
ACAD
1000
AcDbSavedByObjectVersion
1070
     0
  0
VISUALSTYLE
  5
36
102
{ACAD_REACTORS
330
2A
102
}
330
2A
100
AcDbVisualStyle
  2
Brighten
 70
    12
 71
     2
 72
     2
 73
     0
 90
        0
 40
-0.6
 41
-30.0
 62
     5
 63
     7
 74
     1
 91
        4
 64
     7
 65
   257
 75
     1
175
     1
 42
1.0
 92
        8
 66
     7
 43
1.0
 76
     1
 77
     6
 78
     2
 67
     7
 79
     5
170
     0
171
     0
290
     0
174
     0
 93
        1
 44
50.0
173
     0
291
     1
 45
0.0
1001
ACAD
1000
AcDbSavedByObjectVersion
1070
     0
  0
VISUALSTYLE
  5
3A
102
{ACAD_REACTORS
330
2A
102
}
330
2A
100
AcDbVisualStyle
  2
ColorChange
 70
    16
 71
     2
 72
     2
 73
     3
 90
        0
 40
-0.6
 41
-30.0
 62
     5
 63
     8
 74
     1
 91
        4
 64
     7
 65
   257
 75
     1
175
     1
 42
1.0
 92
        8
 66
     8
 43
1.0
 76
     1
 77
     6
 78
     2
 67
     7
 79
     5
170
     0
171
     0
290
     0
174
     0
 93
        1
 44
0.0
173
     0
291
     1
 45
0.0
1001
ACAD
1000
AcDbSavedByObjectVersion
1070
     0
  0
VISUALSTYLE
  5
34
102
{ACAD_REACTORS
330
2A
102
}
330
2A
100
AcDbVisualStyle
  2
Conceptual
 70
     9
 71
     3
 72
     2
 73
     0
 90
        0
 40
-0.6
 41
-30.0
 62
     5
 63
     7
 74
     2
 91
        2
 64
     7
 65
   257
 75
     1
175
     1
 42
40.0
 92
        8
 66
     7
 43
1.0
 76
     1
 77
     6
 78
     2
 67
     7
 79
     3
170
     0
171
     0
290
     0
174
     0
 93
        1
 44
0.0
173
     0
291
     0
 45
0.0
1001
ACAD
1000
AcDbSavedByObjectVersion
1070
     0
  0
VISUALSTYLE
  5
35
102
{ACAD_REACTORS
330
2A
102
}
330
2A
100
AcDbVisualStyle
  2
Dim
 70
    11
 71
     2
 72
     2
 73
     0
 90
        0
 40
-0.6
 41
-30.0
 62
     5
 63
     7
 74
     1
 91
        4
 64
     7
 65
   257
 75
     1
175
     1
 42
1.0
 92
        8
 66
     7
 43
1.0
 76
     1
 77
     6
 78
     2
 67
     7
 79
     5
170
     0
171
     0
290
     0
174
     0
 93
        1
 44
-50.0
173
     0
291
     1
 45
0.0
1001
ACAD
1000
AcDbSavedByObjectVersion
1070
     0
  0
VISUALSTYLE
  5
39
102
{ACAD_REACTORS
330
2A
102
}
330
2A
100
AcDbVisualStyle
  2
Facepattern
 70
    15
 71
     2
 72
     2
 73
     0
 90
        0
 40
-0.6
 41
-30.0
 62
     5
 63
     7
 74
     1
 91
        4
 64
     7
 65
   257
 75
     1
175
     1
 42
1.0
 92
        8
 66
     7
 43
1.0
 76
     1
 77
     6
 78
     2
 67
     7
 79
     5
170
     0
171
     0
290
     0
174
     0
 93
        1
 44
0.0
173
     0
291
     1
 45
0.0
1001
ACAD
1000
AcDbSavedByObjectVersion
1070
     0
  0
VISUALSTYLE
  5
2B
102
{ACAD_REACTORS
330
2A
102
}
330
2A
100
AcDbVisualStyle
  2
Flat
 70
     0
 71
     2
 72
     1
 73
     1
 90
        2
 40
-0.6
 41
30.0
 62
     5
 63
     7
 74
     0
 91
        4
 64
     7
 65
   257
 75
     1
175
     1
 42
1.0
 92
        8
 66
     7
 43
1.0
 76
     1
 77
     6
 78
     2
 67
     7
 79
     5
170
     0
171
     0
290
     0
174
     0
 93
       13
 44
0.0
173
     0
291
     1
 45
0.0
1001
ACAD
1000
AcDbSavedByObjectVersion
1070
     0
  0
VISUALSTYLE
  5
2C
102
{ACAD_REACTORS
330
2A
102
}
330
2A
100
AcDbVisualStyle
  2
FlatWithEdges
 70
     1
 71
     2
 72
     1
 73
     1
 90
        2
 40
-0.6
 41
30.0
 62
     5
 63
     7
 74
     1
 91
        4
 64
     7
 65
   257
 75
     1
175
     1
 42
1.0
 92
        0
 66
   257
 43
1.0
 76
     1
 77
     6
 78
     2
 67
     7
 79
     5
170
     0
171
     0
290
     0
174
     0
 93
       13
 44
0.0
173
     0
291
     1
 45
0.0
1001
ACAD
1000
AcDbSavedByObjectVersion
1070
     0
  0
VISUALSTYLE
  5
2D
102
{ACAD_REACTORS
330
2A
102
}
330
2A
100
AcDbVisualStyle
  2
Gouraud
 70
     2
 71
     2
 72
     2
 73
     1
 90
        2
 40
-0.6
 41
30.0
 62
     5
 63
     7
 74
     0
 91
        4
 64
     7
 65
   257
 75
     1
175
     1
 42
1.0
 92
        0
 66
     7
 43
1.0
 76
     1
 77
     6
 78
     2
 67
     7
 79
     5
170
     0
171
     0
290
     0
174
     0
 93
       13
 44
0.0
173
     0
291
     1
 45
0.0
1001
ACAD
1000
AcDbSavedByObjectVersion
1070
     0
  0
VISUALSTYLE
  5
2E
102
{ACAD_REACTORS
330
2A
102
}
330
2A
100
AcDbVisualStyle
  2
GouraudWithEdges
 70
     3
 71
     2
 72
     2
 73
     1
 90
        2
 40
-0.6
 41
30.0
 62
     5
 63
     7
 74
     1
 91
        4
 64
     7
 65
   257
 75
     1
175
     1
 42
1.0
 92
        0
 66
   257
 43
1.0
 76
     1
 77
     6
 78
     2
 67
     7
 79
     5
170
     0
171
     0
290
     0
174
     0
 93
       13
 44
0.0
173
     0
291
     1
 45
0.0
1001
ACAD
1000
AcDbSavedByObjectVersion
1070
     0
  0
VISUALSTYLE
  5
38
102
{ACAD_REACTORS
330
2A
102
}
330
2A
100
AcDbVisualStyle
  2
Linepattern
 70
    14
 71
     2
 72
     2
 73
     0
 90
        0
 40
-0.6
 41
-30.0
 62
     5
 63
     7
 74
     1
 91
        4
 64
     7
 65
   257
 75
     7
175
     7
 42
1.0
 92
        8
 66
     7
 43
1.0
 76
     1
 77
     6
 78
     2
 67
     7
 79
     5
170
     0
171
     0
290
     0
174
     0
 93
        1
 44
0.0
173
     0
291
     1
 45
0.0
1001
ACAD
1000
AcDbSavedByObjectVersion
1070
     0
  0
VISUALSTYLE
  5
33
102
{ACAD_REACTORS
330
2A
102
}
330
2A
100
AcDbVisualStyle
  2
Realistic
 70
     8
 71
     2
 72
     2
 73
     0
 90
        0
 40
-0.6
 41
-30.0
 62
     5
 63
     7
 74
     1
 91
        0
 64
     7
 65
   257
 75
     1
175
     1
 42
1.0
 92
        8
 66
     8
 43
1.0
 76
     1
 77
     6
 78
     2
 67
     7
 79
     5
170
     0
171
     0
290
     0
174
     0
 93
       13
 44
0.0
173
     0
291
     0
 45
0.0
1001
ACAD
1000
AcDbSavedByObjectVersion
1070
     0
  0
VISUALSTYLE
  5
37
102
{ACAD_REACTORS
330
2A
102
}
330
2A
100
AcDbVisualStyle
  2
Thicken
 70
    13
 71
     2
 72
     2
 73
     0
 90
        0
 40
-0.6
 41
-30.0
 62
     5
 63
     7
 74
     1
 91
        4
 64
     7
 65
   257
 75
     1
175
     1
 42
1.0
 92
       12
 66
     7
 43
1.0
 76
     1
 77
     6
 78
     2
 67
     7
 79
     5
170
     0
171
     0
290
     0
174
     0
 93
        1
 44
0.0
173
     0
291
     1
 45
0.0
1001
ACAD
1000
AcDbSavedByObjectVersion
1070
     0
  0
ENDSEC
  0
EOF
