<?xml version="1.0" encoding="utf-8"?>
<!-- Generator: Adobe Illustrator 16.0.3, SVG Export Plug-In . SVG Version: 6.00 Build 0)  -->
<!DOCTYPE svg PUBLIC "-//W3C//DTD SVG 1.1//EN" "http://www.w3.org/Graphics/SVG/1.1/DTD/svg11.dtd">
<svg version="1.1" xmlns="http://www.w3.org/2000/svg" xmlns:xlink="http://www.w3.org/1999/xlink" x="0px" y="0px"
	 width="595.28px" height="841.89px" viewBox="0 0 595.28 841.89" enable-background="new 0 0 595.28 841.89" xml:space="preserve">
<g id="CutLine">
	
		<line fill="none" stroke="#242424" stroke-width="2" stroke-linecap="round" stroke-linejoin="round" stroke-miterlimit="500" x1="357.528" y1="83.332" x2="181.94" y2="83.332"/>
	
		<polyline fill="none" stroke="#242424" stroke-width="2" stroke-linecap="round" stroke-linejoin="round" stroke-miterlimit="500" points="
		357.528,83.332 357.528,786.066 357.528,796.311 181.94,796.311 181.94,786.066 181.94,83.332 	"/>
</g>
<g id="ValleyLine">
	
		<polyline fill="none" stroke="#242424" stroke-linecap="round" stroke-linejoin="round" stroke-miterlimit="500" stroke-dasharray="4" points="
		181.94,93.616 189.909,96.404 197.863,99.187 205.798,101.959 213.71,104.72 221.585,107.464 229.408,110.182 237.153,112.861 
		244.77,115.477 252.156,117.976 259.099,120.246 265.132,122.015 269.735,122.738 274.337,122.015 280.37,120.246 287.313,117.976 
		294.699,115.477 302.316,112.861 310.061,110.182 317.884,107.464 325.759,104.72 333.671,101.959 341.606,99.187 349.562,96.404 
		357.528,93.616 	"/>
	
		<polyline fill="none" stroke="#242424" stroke-linecap="round" stroke-linejoin="round" stroke-miterlimit="500" stroke-dasharray="4" points="
		357.528,182.736 349.562,185.526 341.606,188.309 333.671,191.082 325.759,193.842 317.884,196.586 310.061,199.305 
		302.316,201.984 294.699,204.599 287.313,207.098 280.37,209.368 274.337,211.137 269.735,211.86 265.132,211.137 259.099,209.368 
		252.156,207.098 244.77,204.599 237.153,201.984 229.408,199.305 221.585,196.586 213.71,193.842 205.798,191.082 197.863,188.309 
		189.909,185.526 181.94,182.736 	"/>
	
		<polyline fill="none" stroke="#242424" stroke-linecap="round" stroke-linejoin="round" stroke-miterlimit="500" stroke-dasharray="4" points="
		181.94,271.86 189.909,274.649 197.863,277.431 205.798,280.204 213.71,282.964 221.585,285.709 229.408,288.427 237.153,291.105 
		244.77,293.721 252.156,296.22 259.099,298.491 265.132,300.259 269.735,300.982 274.337,300.259 280.37,298.491 287.313,296.22 
		294.699,293.721 302.316,291.105 310.061,288.427 317.884,285.709 325.759,282.964 333.671,280.204 341.606,277.431 
		349.562,274.649 357.528,271.86 	"/>
	
		<polyline fill="none" stroke="#242424" stroke-linecap="round" stroke-linejoin="round" stroke-miterlimit="500" stroke-dasharray="4" points="
		357.528,360.982 349.562,363.771 341.606,366.553 333.671,369.326 325.759,372.087 317.884,374.83 310.061,377.549 
		302.316,380.228 294.699,382.842 287.313,385.342 280.37,387.613 274.337,389.381 269.735,390.104 265.132,389.381 
		259.099,387.613 252.156,385.342 244.77,382.842 237.153,380.228 229.408,377.549 221.585,374.83 213.71,372.087 205.798,369.326 
		197.863,366.553 189.909,363.771 181.94,360.982 	"/>
	
		<polyline fill="none" stroke="#242424" stroke-linecap="round" stroke-linejoin="round" stroke-miterlimit="500" stroke-dasharray="4" points="
		357.528,450.105 349.562,452.893 341.606,455.677 333.671,458.449 325.759,461.209 317.884,463.953 310.061,466.67 
		302.316,469.352 294.699,471.967 287.313,474.465 280.37,476.736 274.337,478.504 269.735,479.229 265.132,478.504 
		259.099,476.736 252.156,474.465 244.77,471.967 237.153,469.352 229.408,466.67 221.585,463.953 213.71,461.209 205.798,458.449 
		197.863,455.677 189.909,452.893 181.94,450.105 	"/>
	
		<polyline fill="none" stroke="#242424" stroke-linecap="round" stroke-linejoin="round" stroke-miterlimit="500" stroke-dasharray="4" points="
		181.94,539.229 189.909,542.016 197.863,544.797 205.798,547.57 213.71,550.332 221.585,553.074 229.408,555.793 237.153,558.475 
		244.77,561.088 252.156,563.59 259.099,565.859 265.132,567.625 269.735,568.35 274.337,567.625 280.37,565.859 287.313,563.59 
		294.699,561.088 302.316,558.475 310.061,555.793 317.884,553.074 325.759,550.332 333.671,547.57 341.606,544.797 
		349.562,542.016 357.528,539.229 	"/>
	
		<polyline fill="none" stroke="#242424" stroke-linecap="round" stroke-linejoin="round" stroke-miterlimit="500" stroke-dasharray="4" points="
		357.528,628.348 349.562,631.137 341.606,633.922 333.671,636.693 325.759,639.455 317.884,642.197 310.061,644.916 
		302.316,647.596 294.699,650.209 287.313,652.711 280.37,654.98 274.337,656.748 269.735,657.473 265.132,656.748 259.099,654.98 
		252.156,652.711 244.77,650.209 237.153,647.596 229.408,644.916 221.585,642.197 213.71,639.455 205.798,636.693 197.863,633.922 
		189.909,631.137 181.94,628.348 	"/>
	
		<polyline fill="none" stroke="#242424" stroke-linecap="round" stroke-linejoin="round" stroke-miterlimit="500" stroke-dasharray="4" points="
		181.94,717.473 189.909,720.262 197.863,723.043 205.798,725.816 213.71,728.578 221.585,731.32 229.408,734.037 237.153,736.717 
		244.77,739.332 252.156,741.832 259.099,744.104 265.132,745.871 269.735,746.594 274.337,745.871 280.37,744.104 287.313,741.832 
		294.699,739.332 302.316,736.717 310.061,734.037 317.884,731.32 325.759,728.578 333.671,725.816 341.606,723.043 
		349.562,720.262 357.528,717.473 	"/>
</g>
<g id="MountainLine">
	
		<line fill="none" stroke="#242424" stroke-linecap="round" stroke-linejoin="round" stroke-miterlimit="500" x1="357.528" y1="172.455" x2="181.94" y2="172.455"/>
	
		<line fill="none" stroke="#242424" stroke-linecap="round" stroke-linejoin="round" stroke-miterlimit="500" x1="357.528" y1="261.577" x2="181.94" y2="261.577"/>
	
		<line fill="none" stroke="#242424" stroke-linecap="round" stroke-linejoin="round" stroke-miterlimit="500" x1="357.528" y1="350.699" x2="181.94" y2="350.699"/>
	
		<line fill="none" stroke="#242424" stroke-linecap="round" stroke-linejoin="round" stroke-miterlimit="500" x1="357.528" y1="439.821" x2="181.94" y2="439.821"/>
	
		<line fill="none" stroke="#242424" stroke-linecap="round" stroke-linejoin="round" stroke-miterlimit="500" x1="357.528" y1="528.943" x2="181.94" y2="528.943"/>
	
		<line fill="none" stroke="#242424" stroke-linecap="round" stroke-linejoin="round" stroke-miterlimit="500" x1="357.528" y1="618.066" x2="181.94" y2="618.066"/>
	
		<line fill="none" stroke="#242424" stroke-linecap="round" stroke-linejoin="round" stroke-miterlimit="500" x1="357.528" y1="707.188" x2="181.94" y2="707.188"/>
</g>
<g id="Text">
	<text transform="matrix(1 0 0 1 432.3096 815.2715)" font-family="'ArialMT'" font-size="14">(c) 2016 Jun Mitani</text>
	<text transform="matrix(1 0 0 1 30.7119 42.1099)" font-family="'ArialMT'" font-size="18">Water Wheel</text>
</g>
</svg>
